M48
; DRILL file {KiCad (5.1.9-0-10_14)} date Thursday, June 10, 2021 at 12:39:00 PM
; FORMAT={-:-/ absolute / metric / decimal}
; #@! TF.CreationDate,2021-06-10T12:39:00+02:00
; #@! TF.GenerationSoftware,Kicad,Pcbnew,(5.1.9-0-10_14)
; #@! TF.FileFunction,Plated,1,4,PTH
FMAT,2
METRIC
T1C0.400
T2C0.800
T3C1.000
T4C3.200
%
G90
G05
T1
X91.186Y-103.886
T2
X77.724Y-93.472
X77.724Y-96.012
X77.724Y-98.552
X77.724Y-101.092
X77.724Y-103.632
X77.724Y-106.172
X77.724Y-108.712
X77.724Y-111.252
X85.344Y-93.472
X85.344Y-96.012
X85.344Y-98.552
X85.344Y-101.092
X85.344Y-103.632
X85.344Y-106.172
X85.344Y-108.712
X85.344Y-111.252
X88.646Y-85.905
X88.646Y-88.445
X88.646Y-90.985
X88.646Y-93.525
X88.646Y-96.065
X88.646Y-98.605
X88.646Y-101.145
X88.646Y-103.685
X88.646Y-106.225
X88.646Y-108.765
X88.646Y-111.305
X88.646Y-113.845
X88.646Y-116.385
X88.646Y-118.925
X96.266Y-85.905
X96.266Y-88.445
X96.266Y-90.985
X96.266Y-93.525
X96.266Y-96.065
X96.266Y-98.605
X96.266Y-101.145
X96.266Y-103.685
X96.266Y-106.225
X96.266Y-108.765
X96.266Y-111.305
X96.266Y-113.845
X96.266Y-116.385
X96.266Y-118.925
X99.568Y-85.905
X99.568Y-88.445
X99.568Y-90.985
X99.568Y-93.525
X99.568Y-96.065
X99.568Y-98.605
X99.568Y-101.145
X99.568Y-103.685
X99.568Y-106.225
X99.568Y-108.765
X99.568Y-111.305
X99.568Y-113.845
X99.568Y-116.385
X99.568Y-118.925
X107.188Y-85.905
X107.188Y-88.445
X107.188Y-90.985
X107.188Y-93.525
X107.188Y-96.065
X107.188Y-98.605
X107.188Y-101.145
X107.188Y-103.685
X107.188Y-106.225
X107.188Y-108.765
X107.188Y-111.305
X107.188Y-113.845
X107.188Y-116.385
X107.188Y-118.925
X110.49Y-85.905
X110.49Y-88.445
X110.49Y-90.985
X110.49Y-93.525
X110.49Y-96.065
X110.49Y-98.605
X110.49Y-101.145
X110.49Y-103.685
X110.49Y-106.225
X110.49Y-108.765
X110.49Y-111.305
X110.49Y-113.845
X110.49Y-116.385
X110.49Y-118.925
X118.11Y-85.905
X118.11Y-88.445
X118.11Y-90.985
X118.11Y-93.525
X118.11Y-96.065
X118.11Y-98.605
X118.11Y-101.145
X118.11Y-103.685
X118.11Y-106.225
X118.11Y-108.765
X118.11Y-111.305
X118.11Y-113.845
X118.11Y-116.385
X118.11Y-118.925
X121.412Y-85.905
X121.412Y-88.445
X121.412Y-90.985
X121.412Y-93.525
X121.412Y-96.065
X121.412Y-98.605
X121.412Y-101.145
X121.412Y-103.685
X121.412Y-106.225
X121.412Y-108.765
X121.412Y-111.305
X121.412Y-113.845
X121.412Y-116.385
X121.412Y-118.925
X129.032Y-85.905
X129.032Y-88.445
X129.032Y-90.985
X129.032Y-93.525
X129.032Y-96.065
X129.032Y-98.605
X129.032Y-101.145
X129.032Y-103.685
X129.032Y-106.225
X129.032Y-108.765
X129.032Y-111.305
X129.032Y-113.845
X129.032Y-116.385
X129.032Y-118.925
X132.334Y-85.905
X132.334Y-88.445
X132.334Y-90.985
X132.334Y-93.525
X132.334Y-96.065
X132.334Y-98.605
X132.334Y-101.145
X132.334Y-103.685
X132.334Y-106.225
X132.334Y-108.765
X132.334Y-111.305
X132.334Y-113.845
X132.334Y-116.385
X132.334Y-118.925
X139.954Y-85.905
X139.954Y-88.445
X139.954Y-90.985
X139.954Y-93.525
X139.954Y-96.065
X139.954Y-98.605
X139.954Y-101.145
X139.954Y-103.685
X139.954Y-106.225
X139.954Y-108.765
X139.954Y-111.305
X139.954Y-113.845
X139.954Y-116.385
X139.954Y-118.925
X143.256Y-85.905
X143.256Y-88.445
X143.256Y-90.985
X143.256Y-93.525
X143.256Y-96.065
X143.256Y-98.605
X143.256Y-101.145
X143.256Y-103.685
X143.256Y-106.225
X143.256Y-108.765
X143.256Y-111.305
X143.256Y-113.845
X143.256Y-116.385
X143.256Y-118.925
X150.876Y-85.905
X150.876Y-88.445
X150.876Y-90.985
X150.876Y-93.525
X150.876Y-96.065
X150.876Y-98.605
X150.876Y-101.145
X150.876Y-103.685
X150.876Y-106.225
X150.876Y-108.765
X150.876Y-111.305
X150.876Y-113.845
X150.876Y-116.385
X150.876Y-118.925
X154.178Y-85.905
X154.178Y-88.445
X154.178Y-90.985
X154.178Y-93.525
X154.178Y-96.065
X154.178Y-98.605
X154.178Y-101.145
X154.178Y-103.685
X154.178Y-106.225
X154.178Y-108.765
X154.178Y-111.305
X154.178Y-113.845
X154.178Y-116.385
X154.178Y-118.925
X161.798Y-85.905
X161.798Y-88.445
X161.798Y-90.985
X161.798Y-93.525
X161.798Y-96.065
X161.798Y-98.605
X161.798Y-101.145
X161.798Y-103.685
X161.798Y-106.225
X161.798Y-108.765
X161.798Y-111.305
X161.798Y-113.845
X161.798Y-116.385
X161.798Y-118.925
X165.1Y-85.905
X165.1Y-88.445
X165.1Y-90.985
X165.1Y-93.525
X165.1Y-96.065
X165.1Y-98.605
X165.1Y-101.145
X165.1Y-103.685
X165.1Y-106.225
X165.1Y-108.765
X165.1Y-111.305
X165.1Y-113.845
X165.1Y-116.385
X165.1Y-118.925
X172.72Y-85.905
X172.72Y-88.445
X172.72Y-90.985
X172.72Y-93.525
X172.72Y-96.065
X172.72Y-98.605
X172.72Y-101.145
X172.72Y-103.685
X172.72Y-106.225
X172.72Y-108.765
X172.72Y-111.305
X172.72Y-113.845
X172.72Y-116.385
X172.72Y-118.925
T3
X88.646Y-125.73
X91.186Y-125.73
X93.726Y-125.73
X96.266Y-125.73
X98.806Y-125.73
X101.346Y-125.73
X103.886Y-125.73
X106.426Y-125.73
X108.966Y-125.73
X111.506Y-125.73
X114.046Y-125.73
X116.586Y-125.73
X119.126Y-125.73
X121.666Y-125.73
X124.206Y-125.73
X126.746Y-125.73
X129.286Y-125.73
X131.826Y-125.73
X134.366Y-125.73
X136.906Y-125.73
X139.446Y-125.73
X141.986Y-125.73
X144.526Y-125.73
X147.066Y-125.73
X149.606Y-125.73
X152.146Y-125.73
X154.686Y-125.73
X157.226Y-125.73
X159.766Y-125.73
X162.306Y-125.73
X164.846Y-125.73
X167.386Y-125.73
X169.926Y-125.73
T4
X80.01Y-86.36
X80.01Y-123.444
X177.546Y-86.36
X177.546Y-123.444
T0
M30
