G04 #@! TF.GenerationSoftware,KiCad,Pcbnew,(5.1.9-0-10_14)*
G04 #@! TF.CreationDate,2021-06-10T12:38:53+02:00*
G04 #@! TF.ProjectId,video_memory,76696465-6f5f-46d6-956d-6f72792e6b69,rev?*
G04 #@! TF.SameCoordinates,Original*
G04 #@! TF.FileFunction,Paste,Bot*
G04 #@! TF.FilePolarity,Positive*
%FSLAX46Y46*%
G04 Gerber Fmt 4.6, Leading zero omitted, Abs format (unit mm)*
G04 Created by KiCad (PCBNEW (5.1.9-0-10_14)) date 2021-06-10 12:38:53*
%MOMM*%
%LPD*%
G01*
G04 APERTURE LIST*
G04 APERTURE END LIST*
G36*
G01*
X168968000Y-87663000D02*
X168968000Y-88613000D01*
G75*
G02*
X168718000Y-88863000I-250000J0D01*
G01*
X168043000Y-88863000D01*
G75*
G02*
X167793000Y-88613000I0J250000D01*
G01*
X167793000Y-87663000D01*
G75*
G02*
X168043000Y-87413000I250000J0D01*
G01*
X168718000Y-87413000D01*
G75*
G02*
X168968000Y-87663000I0J-250000D01*
G01*
G37*
G36*
G01*
X171043000Y-87663000D02*
X171043000Y-88613000D01*
G75*
G02*
X170793000Y-88863000I-250000J0D01*
G01*
X170118000Y-88863000D01*
G75*
G02*
X169868000Y-88613000I0J250000D01*
G01*
X169868000Y-87663000D01*
G75*
G02*
X170118000Y-87413000I250000J0D01*
G01*
X170793000Y-87413000D01*
G75*
G02*
X171043000Y-87663000I0J-250000D01*
G01*
G37*
G36*
G01*
X158046000Y-87663000D02*
X158046000Y-88613000D01*
G75*
G02*
X157796000Y-88863000I-250000J0D01*
G01*
X157121000Y-88863000D01*
G75*
G02*
X156871000Y-88613000I0J250000D01*
G01*
X156871000Y-87663000D01*
G75*
G02*
X157121000Y-87413000I250000J0D01*
G01*
X157796000Y-87413000D01*
G75*
G02*
X158046000Y-87663000I0J-250000D01*
G01*
G37*
G36*
G01*
X160121000Y-87663000D02*
X160121000Y-88613000D01*
G75*
G02*
X159871000Y-88863000I-250000J0D01*
G01*
X159196000Y-88863000D01*
G75*
G02*
X158946000Y-88613000I0J250000D01*
G01*
X158946000Y-87663000D01*
G75*
G02*
X159196000Y-87413000I250000J0D01*
G01*
X159871000Y-87413000D01*
G75*
G02*
X160121000Y-87663000I0J-250000D01*
G01*
G37*
G36*
G01*
X147124000Y-87663000D02*
X147124000Y-88613000D01*
G75*
G02*
X146874000Y-88863000I-250000J0D01*
G01*
X146199000Y-88863000D01*
G75*
G02*
X145949000Y-88613000I0J250000D01*
G01*
X145949000Y-87663000D01*
G75*
G02*
X146199000Y-87413000I250000J0D01*
G01*
X146874000Y-87413000D01*
G75*
G02*
X147124000Y-87663000I0J-250000D01*
G01*
G37*
G36*
G01*
X149199000Y-87663000D02*
X149199000Y-88613000D01*
G75*
G02*
X148949000Y-88863000I-250000J0D01*
G01*
X148274000Y-88863000D01*
G75*
G02*
X148024000Y-88613000I0J250000D01*
G01*
X148024000Y-87663000D01*
G75*
G02*
X148274000Y-87413000I250000J0D01*
G01*
X148949000Y-87413000D01*
G75*
G02*
X149199000Y-87663000I0J-250000D01*
G01*
G37*
G36*
G01*
X136202000Y-87663000D02*
X136202000Y-88613000D01*
G75*
G02*
X135952000Y-88863000I-250000J0D01*
G01*
X135277000Y-88863000D01*
G75*
G02*
X135027000Y-88613000I0J250000D01*
G01*
X135027000Y-87663000D01*
G75*
G02*
X135277000Y-87413000I250000J0D01*
G01*
X135952000Y-87413000D01*
G75*
G02*
X136202000Y-87663000I0J-250000D01*
G01*
G37*
G36*
G01*
X138277000Y-87663000D02*
X138277000Y-88613000D01*
G75*
G02*
X138027000Y-88863000I-250000J0D01*
G01*
X137352000Y-88863000D01*
G75*
G02*
X137102000Y-88613000I0J250000D01*
G01*
X137102000Y-87663000D01*
G75*
G02*
X137352000Y-87413000I250000J0D01*
G01*
X138027000Y-87413000D01*
G75*
G02*
X138277000Y-87663000I0J-250000D01*
G01*
G37*
G36*
G01*
X125280000Y-87663000D02*
X125280000Y-88613000D01*
G75*
G02*
X125030000Y-88863000I-250000J0D01*
G01*
X124355000Y-88863000D01*
G75*
G02*
X124105000Y-88613000I0J250000D01*
G01*
X124105000Y-87663000D01*
G75*
G02*
X124355000Y-87413000I250000J0D01*
G01*
X125030000Y-87413000D01*
G75*
G02*
X125280000Y-87663000I0J-250000D01*
G01*
G37*
G36*
G01*
X127355000Y-87663000D02*
X127355000Y-88613000D01*
G75*
G02*
X127105000Y-88863000I-250000J0D01*
G01*
X126430000Y-88863000D01*
G75*
G02*
X126180000Y-88613000I0J250000D01*
G01*
X126180000Y-87663000D01*
G75*
G02*
X126430000Y-87413000I250000J0D01*
G01*
X127105000Y-87413000D01*
G75*
G02*
X127355000Y-87663000I0J-250000D01*
G01*
G37*
G36*
G01*
X114358000Y-87663000D02*
X114358000Y-88613000D01*
G75*
G02*
X114108000Y-88863000I-250000J0D01*
G01*
X113433000Y-88863000D01*
G75*
G02*
X113183000Y-88613000I0J250000D01*
G01*
X113183000Y-87663000D01*
G75*
G02*
X113433000Y-87413000I250000J0D01*
G01*
X114108000Y-87413000D01*
G75*
G02*
X114358000Y-87663000I0J-250000D01*
G01*
G37*
G36*
G01*
X116433000Y-87663000D02*
X116433000Y-88613000D01*
G75*
G02*
X116183000Y-88863000I-250000J0D01*
G01*
X115508000Y-88863000D01*
G75*
G02*
X115258000Y-88613000I0J250000D01*
G01*
X115258000Y-87663000D01*
G75*
G02*
X115508000Y-87413000I250000J0D01*
G01*
X116183000Y-87413000D01*
G75*
G02*
X116433000Y-87663000I0J-250000D01*
G01*
G37*
G36*
G01*
X103436000Y-87663000D02*
X103436000Y-88613000D01*
G75*
G02*
X103186000Y-88863000I-250000J0D01*
G01*
X102511000Y-88863000D01*
G75*
G02*
X102261000Y-88613000I0J250000D01*
G01*
X102261000Y-87663000D01*
G75*
G02*
X102511000Y-87413000I250000J0D01*
G01*
X103186000Y-87413000D01*
G75*
G02*
X103436000Y-87663000I0J-250000D01*
G01*
G37*
G36*
G01*
X105511000Y-87663000D02*
X105511000Y-88613000D01*
G75*
G02*
X105261000Y-88863000I-250000J0D01*
G01*
X104586000Y-88863000D01*
G75*
G02*
X104336000Y-88613000I0J250000D01*
G01*
X104336000Y-87663000D01*
G75*
G02*
X104586000Y-87413000I250000J0D01*
G01*
X105261000Y-87413000D01*
G75*
G02*
X105511000Y-87663000I0J-250000D01*
G01*
G37*
G36*
G01*
X92514000Y-87663000D02*
X92514000Y-88613000D01*
G75*
G02*
X92264000Y-88863000I-250000J0D01*
G01*
X91589000Y-88863000D01*
G75*
G02*
X91339000Y-88613000I0J250000D01*
G01*
X91339000Y-87663000D01*
G75*
G02*
X91589000Y-87413000I250000J0D01*
G01*
X92264000Y-87413000D01*
G75*
G02*
X92514000Y-87663000I0J-250000D01*
G01*
G37*
G36*
G01*
X94589000Y-87663000D02*
X94589000Y-88613000D01*
G75*
G02*
X94339000Y-88863000I-250000J0D01*
G01*
X93664000Y-88863000D01*
G75*
G02*
X93414000Y-88613000I0J250000D01*
G01*
X93414000Y-87663000D01*
G75*
G02*
X93664000Y-87413000I250000J0D01*
G01*
X94339000Y-87413000D01*
G75*
G02*
X94589000Y-87663000I0J-250000D01*
G01*
G37*
G36*
G01*
X81592000Y-105443000D02*
X81592000Y-106393000D01*
G75*
G02*
X81342000Y-106643000I-250000J0D01*
G01*
X80667000Y-106643000D01*
G75*
G02*
X80417000Y-106393000I0J250000D01*
G01*
X80417000Y-105443000D01*
G75*
G02*
X80667000Y-105193000I250000J0D01*
G01*
X81342000Y-105193000D01*
G75*
G02*
X81592000Y-105443000I0J-250000D01*
G01*
G37*
G36*
G01*
X83667000Y-105443000D02*
X83667000Y-106393000D01*
G75*
G02*
X83417000Y-106643000I-250000J0D01*
G01*
X82742000Y-106643000D01*
G75*
G02*
X82492000Y-106393000I0J250000D01*
G01*
X82492000Y-105443000D01*
G75*
G02*
X82742000Y-105193000I250000J0D01*
G01*
X83417000Y-105193000D01*
G75*
G02*
X83667000Y-105443000I0J-250000D01*
G01*
G37*
G36*
G01*
X168968000Y-85377000D02*
X168968000Y-86327000D01*
G75*
G02*
X168718000Y-86577000I-250000J0D01*
G01*
X168043000Y-86577000D01*
G75*
G02*
X167793000Y-86327000I0J250000D01*
G01*
X167793000Y-85377000D01*
G75*
G02*
X168043000Y-85127000I250000J0D01*
G01*
X168718000Y-85127000D01*
G75*
G02*
X168968000Y-85377000I0J-250000D01*
G01*
G37*
G36*
G01*
X171043000Y-85377000D02*
X171043000Y-86327000D01*
G75*
G02*
X170793000Y-86577000I-250000J0D01*
G01*
X170118000Y-86577000D01*
G75*
G02*
X169868000Y-86327000I0J250000D01*
G01*
X169868000Y-85377000D01*
G75*
G02*
X170118000Y-85127000I250000J0D01*
G01*
X170793000Y-85127000D01*
G75*
G02*
X171043000Y-85377000I0J-250000D01*
G01*
G37*
G36*
G01*
X158046000Y-85377000D02*
X158046000Y-86327000D01*
G75*
G02*
X157796000Y-86577000I-250000J0D01*
G01*
X157121000Y-86577000D01*
G75*
G02*
X156871000Y-86327000I0J250000D01*
G01*
X156871000Y-85377000D01*
G75*
G02*
X157121000Y-85127000I250000J0D01*
G01*
X157796000Y-85127000D01*
G75*
G02*
X158046000Y-85377000I0J-250000D01*
G01*
G37*
G36*
G01*
X160121000Y-85377000D02*
X160121000Y-86327000D01*
G75*
G02*
X159871000Y-86577000I-250000J0D01*
G01*
X159196000Y-86577000D01*
G75*
G02*
X158946000Y-86327000I0J250000D01*
G01*
X158946000Y-85377000D01*
G75*
G02*
X159196000Y-85127000I250000J0D01*
G01*
X159871000Y-85127000D01*
G75*
G02*
X160121000Y-85377000I0J-250000D01*
G01*
G37*
G36*
G01*
X147124000Y-85377000D02*
X147124000Y-86327000D01*
G75*
G02*
X146874000Y-86577000I-250000J0D01*
G01*
X146199000Y-86577000D01*
G75*
G02*
X145949000Y-86327000I0J250000D01*
G01*
X145949000Y-85377000D01*
G75*
G02*
X146199000Y-85127000I250000J0D01*
G01*
X146874000Y-85127000D01*
G75*
G02*
X147124000Y-85377000I0J-250000D01*
G01*
G37*
G36*
G01*
X149199000Y-85377000D02*
X149199000Y-86327000D01*
G75*
G02*
X148949000Y-86577000I-250000J0D01*
G01*
X148274000Y-86577000D01*
G75*
G02*
X148024000Y-86327000I0J250000D01*
G01*
X148024000Y-85377000D01*
G75*
G02*
X148274000Y-85127000I250000J0D01*
G01*
X148949000Y-85127000D01*
G75*
G02*
X149199000Y-85377000I0J-250000D01*
G01*
G37*
G36*
G01*
X136202000Y-85377000D02*
X136202000Y-86327000D01*
G75*
G02*
X135952000Y-86577000I-250000J0D01*
G01*
X135277000Y-86577000D01*
G75*
G02*
X135027000Y-86327000I0J250000D01*
G01*
X135027000Y-85377000D01*
G75*
G02*
X135277000Y-85127000I250000J0D01*
G01*
X135952000Y-85127000D01*
G75*
G02*
X136202000Y-85377000I0J-250000D01*
G01*
G37*
G36*
G01*
X138277000Y-85377000D02*
X138277000Y-86327000D01*
G75*
G02*
X138027000Y-86577000I-250000J0D01*
G01*
X137352000Y-86577000D01*
G75*
G02*
X137102000Y-86327000I0J250000D01*
G01*
X137102000Y-85377000D01*
G75*
G02*
X137352000Y-85127000I250000J0D01*
G01*
X138027000Y-85127000D01*
G75*
G02*
X138277000Y-85377000I0J-250000D01*
G01*
G37*
G36*
G01*
X125280000Y-85377000D02*
X125280000Y-86327000D01*
G75*
G02*
X125030000Y-86577000I-250000J0D01*
G01*
X124355000Y-86577000D01*
G75*
G02*
X124105000Y-86327000I0J250000D01*
G01*
X124105000Y-85377000D01*
G75*
G02*
X124355000Y-85127000I250000J0D01*
G01*
X125030000Y-85127000D01*
G75*
G02*
X125280000Y-85377000I0J-250000D01*
G01*
G37*
G36*
G01*
X127355000Y-85377000D02*
X127355000Y-86327000D01*
G75*
G02*
X127105000Y-86577000I-250000J0D01*
G01*
X126430000Y-86577000D01*
G75*
G02*
X126180000Y-86327000I0J250000D01*
G01*
X126180000Y-85377000D01*
G75*
G02*
X126430000Y-85127000I250000J0D01*
G01*
X127105000Y-85127000D01*
G75*
G02*
X127355000Y-85377000I0J-250000D01*
G01*
G37*
G36*
G01*
X114358000Y-85377000D02*
X114358000Y-86327000D01*
G75*
G02*
X114108000Y-86577000I-250000J0D01*
G01*
X113433000Y-86577000D01*
G75*
G02*
X113183000Y-86327000I0J250000D01*
G01*
X113183000Y-85377000D01*
G75*
G02*
X113433000Y-85127000I250000J0D01*
G01*
X114108000Y-85127000D01*
G75*
G02*
X114358000Y-85377000I0J-250000D01*
G01*
G37*
G36*
G01*
X116433000Y-85377000D02*
X116433000Y-86327000D01*
G75*
G02*
X116183000Y-86577000I-250000J0D01*
G01*
X115508000Y-86577000D01*
G75*
G02*
X115258000Y-86327000I0J250000D01*
G01*
X115258000Y-85377000D01*
G75*
G02*
X115508000Y-85127000I250000J0D01*
G01*
X116183000Y-85127000D01*
G75*
G02*
X116433000Y-85377000I0J-250000D01*
G01*
G37*
G36*
G01*
X103436000Y-85377000D02*
X103436000Y-86327000D01*
G75*
G02*
X103186000Y-86577000I-250000J0D01*
G01*
X102511000Y-86577000D01*
G75*
G02*
X102261000Y-86327000I0J250000D01*
G01*
X102261000Y-85377000D01*
G75*
G02*
X102511000Y-85127000I250000J0D01*
G01*
X103186000Y-85127000D01*
G75*
G02*
X103436000Y-85377000I0J-250000D01*
G01*
G37*
G36*
G01*
X105511000Y-85377000D02*
X105511000Y-86327000D01*
G75*
G02*
X105261000Y-86577000I-250000J0D01*
G01*
X104586000Y-86577000D01*
G75*
G02*
X104336000Y-86327000I0J250000D01*
G01*
X104336000Y-85377000D01*
G75*
G02*
X104586000Y-85127000I250000J0D01*
G01*
X105261000Y-85127000D01*
G75*
G02*
X105511000Y-85377000I0J-250000D01*
G01*
G37*
G36*
G01*
X92514000Y-85377000D02*
X92514000Y-86327000D01*
G75*
G02*
X92264000Y-86577000I-250000J0D01*
G01*
X91589000Y-86577000D01*
G75*
G02*
X91339000Y-86327000I0J250000D01*
G01*
X91339000Y-85377000D01*
G75*
G02*
X91589000Y-85127000I250000J0D01*
G01*
X92264000Y-85127000D01*
G75*
G02*
X92514000Y-85377000I0J-250000D01*
G01*
G37*
G36*
G01*
X94589000Y-85377000D02*
X94589000Y-86327000D01*
G75*
G02*
X94339000Y-86577000I-250000J0D01*
G01*
X93664000Y-86577000D01*
G75*
G02*
X93414000Y-86327000I0J250000D01*
G01*
X93414000Y-85377000D01*
G75*
G02*
X93664000Y-85127000I250000J0D01*
G01*
X94339000Y-85127000D01*
G75*
G02*
X94589000Y-85377000I0J-250000D01*
G01*
G37*
G36*
G01*
X81592000Y-103157000D02*
X81592000Y-104107000D01*
G75*
G02*
X81342000Y-104357000I-250000J0D01*
G01*
X80667000Y-104357000D01*
G75*
G02*
X80417000Y-104107000I0J250000D01*
G01*
X80417000Y-103157000D01*
G75*
G02*
X80667000Y-102907000I250000J0D01*
G01*
X81342000Y-102907000D01*
G75*
G02*
X81592000Y-103157000I0J-250000D01*
G01*
G37*
G36*
G01*
X83667000Y-103157000D02*
X83667000Y-104107000D01*
G75*
G02*
X83417000Y-104357000I-250000J0D01*
G01*
X82742000Y-104357000D01*
G75*
G02*
X82492000Y-104107000I0J250000D01*
G01*
X82492000Y-103157000D01*
G75*
G02*
X82742000Y-102907000I250000J0D01*
G01*
X83417000Y-102907000D01*
G75*
G02*
X83667000Y-103157000I0J-250000D01*
G01*
G37*
M02*
