G04 #@! TF.GenerationSoftware,KiCad,Pcbnew,(5.1.9-0-10_14)*
G04 #@! TF.CreationDate,2021-06-10T12:38:53+02:00*
G04 #@! TF.ProjectId,video_memory,76696465-6f5f-46d6-956d-6f72792e6b69,rev?*
G04 #@! TF.SameCoordinates,Original*
G04 #@! TF.FileFunction,Soldermask,Top*
G04 #@! TF.FilePolarity,Negative*
%FSLAX46Y46*%
G04 Gerber Fmt 4.6, Leading zero omitted, Abs format (unit mm)*
G04 Created by KiCad (PCBNEW (5.1.9-0-10_14)) date 2021-06-10 12:38:53*
%MOMM*%
%LPD*%
G01*
G04 APERTURE LIST*
%ADD10O,1.600000X1.600000*%
%ADD11R,1.600000X1.600000*%
%ADD12C,6.400000*%
%ADD13O,1.700000X1.700000*%
%ADD14R,1.700000X1.700000*%
G04 APERTURE END LIST*
D10*
X96266000Y-85905000D03*
X88646000Y-118925000D03*
X96266000Y-88445000D03*
X88646000Y-116385000D03*
X96266000Y-90985000D03*
X88646000Y-113845000D03*
X96266000Y-93525000D03*
X88646000Y-111305000D03*
X96266000Y-96065000D03*
X88646000Y-108765000D03*
X96266000Y-98605000D03*
X88646000Y-106225000D03*
X96266000Y-101145000D03*
X88646000Y-103685000D03*
X96266000Y-103685000D03*
X88646000Y-101145000D03*
X96266000Y-106225000D03*
X88646000Y-98605000D03*
X96266000Y-108765000D03*
X88646000Y-96065000D03*
X96266000Y-111305000D03*
X88646000Y-93525000D03*
X96266000Y-113845000D03*
X88646000Y-90985000D03*
X96266000Y-116385000D03*
X88646000Y-88445000D03*
X96266000Y-118925000D03*
D11*
X88646000Y-85905000D03*
D10*
X85344000Y-93472000D03*
X77724000Y-111252000D03*
X85344000Y-96012000D03*
X77724000Y-108712000D03*
X85344000Y-98552000D03*
X77724000Y-106172000D03*
X85344000Y-101092000D03*
X77724000Y-103632000D03*
X85344000Y-103632000D03*
X77724000Y-101092000D03*
X85344000Y-106172000D03*
X77724000Y-98552000D03*
X85344000Y-108712000D03*
X77724000Y-96012000D03*
X85344000Y-111252000D03*
D11*
X77724000Y-93472000D03*
D12*
X177546000Y-123444000D03*
X177546000Y-86360000D03*
X80010000Y-123444000D03*
X80010000Y-86360000D03*
D10*
X172720000Y-85905000D03*
X165100000Y-118925000D03*
X172720000Y-88445000D03*
X165100000Y-116385000D03*
X172720000Y-90985000D03*
X165100000Y-113845000D03*
X172720000Y-93525000D03*
X165100000Y-111305000D03*
X172720000Y-96065000D03*
X165100000Y-108765000D03*
X172720000Y-98605000D03*
X165100000Y-106225000D03*
X172720000Y-101145000D03*
X165100000Y-103685000D03*
X172720000Y-103685000D03*
X165100000Y-101145000D03*
X172720000Y-106225000D03*
X165100000Y-98605000D03*
X172720000Y-108765000D03*
X165100000Y-96065000D03*
X172720000Y-111305000D03*
X165100000Y-93525000D03*
X172720000Y-113845000D03*
X165100000Y-90985000D03*
X172720000Y-116385000D03*
X165100000Y-88445000D03*
X172720000Y-118925000D03*
D11*
X165100000Y-85905000D03*
D10*
X161798000Y-85905000D03*
X154178000Y-118925000D03*
X161798000Y-88445000D03*
X154178000Y-116385000D03*
X161798000Y-90985000D03*
X154178000Y-113845000D03*
X161798000Y-93525000D03*
X154178000Y-111305000D03*
X161798000Y-96065000D03*
X154178000Y-108765000D03*
X161798000Y-98605000D03*
X154178000Y-106225000D03*
X161798000Y-101145000D03*
X154178000Y-103685000D03*
X161798000Y-103685000D03*
X154178000Y-101145000D03*
X161798000Y-106225000D03*
X154178000Y-98605000D03*
X161798000Y-108765000D03*
X154178000Y-96065000D03*
X161798000Y-111305000D03*
X154178000Y-93525000D03*
X161798000Y-113845000D03*
X154178000Y-90985000D03*
X161798000Y-116385000D03*
X154178000Y-88445000D03*
X161798000Y-118925000D03*
D11*
X154178000Y-85905000D03*
D10*
X150876000Y-85905000D03*
X143256000Y-118925000D03*
X150876000Y-88445000D03*
X143256000Y-116385000D03*
X150876000Y-90985000D03*
X143256000Y-113845000D03*
X150876000Y-93525000D03*
X143256000Y-111305000D03*
X150876000Y-96065000D03*
X143256000Y-108765000D03*
X150876000Y-98605000D03*
X143256000Y-106225000D03*
X150876000Y-101145000D03*
X143256000Y-103685000D03*
X150876000Y-103685000D03*
X143256000Y-101145000D03*
X150876000Y-106225000D03*
X143256000Y-98605000D03*
X150876000Y-108765000D03*
X143256000Y-96065000D03*
X150876000Y-111305000D03*
X143256000Y-93525000D03*
X150876000Y-113845000D03*
X143256000Y-90985000D03*
X150876000Y-116385000D03*
X143256000Y-88445000D03*
X150876000Y-118925000D03*
D11*
X143256000Y-85905000D03*
D10*
X139954000Y-85905000D03*
X132334000Y-118925000D03*
X139954000Y-88445000D03*
X132334000Y-116385000D03*
X139954000Y-90985000D03*
X132334000Y-113845000D03*
X139954000Y-93525000D03*
X132334000Y-111305000D03*
X139954000Y-96065000D03*
X132334000Y-108765000D03*
X139954000Y-98605000D03*
X132334000Y-106225000D03*
X139954000Y-101145000D03*
X132334000Y-103685000D03*
X139954000Y-103685000D03*
X132334000Y-101145000D03*
X139954000Y-106225000D03*
X132334000Y-98605000D03*
X139954000Y-108765000D03*
X132334000Y-96065000D03*
X139954000Y-111305000D03*
X132334000Y-93525000D03*
X139954000Y-113845000D03*
X132334000Y-90985000D03*
X139954000Y-116385000D03*
X132334000Y-88445000D03*
X139954000Y-118925000D03*
D11*
X132334000Y-85905000D03*
D10*
X129032000Y-85905000D03*
X121412000Y-118925000D03*
X129032000Y-88445000D03*
X121412000Y-116385000D03*
X129032000Y-90985000D03*
X121412000Y-113845000D03*
X129032000Y-93525000D03*
X121412000Y-111305000D03*
X129032000Y-96065000D03*
X121412000Y-108765000D03*
X129032000Y-98605000D03*
X121412000Y-106225000D03*
X129032000Y-101145000D03*
X121412000Y-103685000D03*
X129032000Y-103685000D03*
X121412000Y-101145000D03*
X129032000Y-106225000D03*
X121412000Y-98605000D03*
X129032000Y-108765000D03*
X121412000Y-96065000D03*
X129032000Y-111305000D03*
X121412000Y-93525000D03*
X129032000Y-113845000D03*
X121412000Y-90985000D03*
X129032000Y-116385000D03*
X121412000Y-88445000D03*
X129032000Y-118925000D03*
D11*
X121412000Y-85905000D03*
D10*
X118110000Y-85905000D03*
X110490000Y-118925000D03*
X118110000Y-88445000D03*
X110490000Y-116385000D03*
X118110000Y-90985000D03*
X110490000Y-113845000D03*
X118110000Y-93525000D03*
X110490000Y-111305000D03*
X118110000Y-96065000D03*
X110490000Y-108765000D03*
X118110000Y-98605000D03*
X110490000Y-106225000D03*
X118110000Y-101145000D03*
X110490000Y-103685000D03*
X118110000Y-103685000D03*
X110490000Y-101145000D03*
X118110000Y-106225000D03*
X110490000Y-98605000D03*
X118110000Y-108765000D03*
X110490000Y-96065000D03*
X118110000Y-111305000D03*
X110490000Y-93525000D03*
X118110000Y-113845000D03*
X110490000Y-90985000D03*
X118110000Y-116385000D03*
X110490000Y-88445000D03*
X118110000Y-118925000D03*
D11*
X110490000Y-85905000D03*
D10*
X107188000Y-85905000D03*
X99568000Y-118925000D03*
X107188000Y-88445000D03*
X99568000Y-116385000D03*
X107188000Y-90985000D03*
X99568000Y-113845000D03*
X107188000Y-93525000D03*
X99568000Y-111305000D03*
X107188000Y-96065000D03*
X99568000Y-108765000D03*
X107188000Y-98605000D03*
X99568000Y-106225000D03*
X107188000Y-101145000D03*
X99568000Y-103685000D03*
X107188000Y-103685000D03*
X99568000Y-101145000D03*
X107188000Y-106225000D03*
X99568000Y-98605000D03*
X107188000Y-108765000D03*
X99568000Y-96065000D03*
X107188000Y-111305000D03*
X99568000Y-93525000D03*
X107188000Y-113845000D03*
X99568000Y-90985000D03*
X107188000Y-116385000D03*
X99568000Y-88445000D03*
X107188000Y-118925000D03*
D11*
X99568000Y-85905000D03*
D13*
X169926000Y-125730000D03*
X167386000Y-125730000D03*
X164846000Y-125730000D03*
X162306000Y-125730000D03*
X159766000Y-125730000D03*
X157226000Y-125730000D03*
X154686000Y-125730000D03*
X152146000Y-125730000D03*
X149606000Y-125730000D03*
X147066000Y-125730000D03*
X144526000Y-125730000D03*
X141986000Y-125730000D03*
X139446000Y-125730000D03*
X136906000Y-125730000D03*
X134366000Y-125730000D03*
X131826000Y-125730000D03*
X129286000Y-125730000D03*
X126746000Y-125730000D03*
X124206000Y-125730000D03*
X121666000Y-125730000D03*
X119126000Y-125730000D03*
X116586000Y-125730000D03*
X114046000Y-125730000D03*
X111506000Y-125730000D03*
X108966000Y-125730000D03*
X106426000Y-125730000D03*
X103886000Y-125730000D03*
X101346000Y-125730000D03*
X98806000Y-125730000D03*
X96266000Y-125730000D03*
X93726000Y-125730000D03*
X91186000Y-125730000D03*
D14*
X88646000Y-125730000D03*
M02*
