%FSLAX45Y45*%
G04 Gerber Fmt 4.5, Leading zero omitted, Abs format (unit mm)*
G04 Created by KiCad (PCBNEW (5.1.9-0-10_14)) date 2021-06-10 12:39:00*
%MOMM*%
%LPD*%
G01*
G04 APERTURE LIST*
%TA.AperFunction,Profile*%
%ADD10C,0.050000*%
%TD*%
%ADD11C,0.200000*%
%ADD12C,0.300000*%
G04 APERTURE END LIST*
D10*
X17754600Y-12750800D02*
X8001000Y-12750800D01*
X18161000Y-8636000D02*
X18161000Y-12344400D01*
X8001000Y-8229600D02*
X17754600Y-8229600D01*
X7594600Y-12344400D02*
X7594600Y-8636000D01*
X8001000Y-12750800D02*
G75*
G02*
X7594600Y-12344400I0J406400D01*
G01*
X7594600Y-8636000D02*
G75*
G02*
X8001000Y-8229600I406400J0D01*
G01*
X17754600Y-8229600D02*
G75*
G02*
X18161000Y-8636000I0J-406400D01*
G01*
X18161000Y-12344400D02*
G75*
G02*
X17754600Y-12750800I-406400J0D01*
G01*
D11*
X9098600Y-10368600D02*
X9138600Y-10408600D01*
X9138600Y-10368600D02*
X9098600Y-10408600D01*
X7812400Y-9347200D02*
G75*
G03*
X7812400Y-9347200I-40000J0D01*
G01*
X7812400Y-9601200D02*
G75*
G03*
X7812400Y-9601200I-40000J0D01*
G01*
X7812400Y-9855200D02*
G75*
G03*
X7812400Y-9855200I-40000J0D01*
G01*
X7812400Y-10109200D02*
G75*
G03*
X7812400Y-10109200I-40000J0D01*
G01*
X7812400Y-10363200D02*
G75*
G03*
X7812400Y-10363200I-40000J0D01*
G01*
X7812400Y-10617200D02*
G75*
G03*
X7812400Y-10617200I-40000J0D01*
G01*
X7812400Y-10871200D02*
G75*
G03*
X7812400Y-10871200I-40000J0D01*
G01*
X7812400Y-11125200D02*
G75*
G03*
X7812400Y-11125200I-40000J0D01*
G01*
X8574400Y-9347200D02*
G75*
G03*
X8574400Y-9347200I-40000J0D01*
G01*
X8574400Y-9601200D02*
G75*
G03*
X8574400Y-9601200I-40000J0D01*
G01*
X8574400Y-9855200D02*
G75*
G03*
X8574400Y-9855200I-40000J0D01*
G01*
X8574400Y-10109200D02*
G75*
G03*
X8574400Y-10109200I-40000J0D01*
G01*
X8574400Y-10363200D02*
G75*
G03*
X8574400Y-10363200I-40000J0D01*
G01*
X8574400Y-10617200D02*
G75*
G03*
X8574400Y-10617200I-40000J0D01*
G01*
X8574400Y-10871200D02*
G75*
G03*
X8574400Y-10871200I-40000J0D01*
G01*
X8574400Y-11125200D02*
G75*
G03*
X8574400Y-11125200I-40000J0D01*
G01*
X8904600Y-8590500D02*
G75*
G03*
X8904600Y-8590500I-40000J0D01*
G01*
X8904600Y-8844500D02*
G75*
G03*
X8904600Y-8844500I-40000J0D01*
G01*
X8904600Y-9098500D02*
G75*
G03*
X8904600Y-9098500I-40000J0D01*
G01*
X8904600Y-9352500D02*
G75*
G03*
X8904600Y-9352500I-40000J0D01*
G01*
X8904600Y-9606500D02*
G75*
G03*
X8904600Y-9606500I-40000J0D01*
G01*
X8904600Y-9860500D02*
G75*
G03*
X8904600Y-9860500I-40000J0D01*
G01*
X8904600Y-10114500D02*
G75*
G03*
X8904600Y-10114500I-40000J0D01*
G01*
X8904600Y-10368500D02*
G75*
G03*
X8904600Y-10368500I-40000J0D01*
G01*
X8904600Y-10622500D02*
G75*
G03*
X8904600Y-10622500I-40000J0D01*
G01*
X8904600Y-10876500D02*
G75*
G03*
X8904600Y-10876500I-40000J0D01*
G01*
X8904600Y-11130500D02*
G75*
G03*
X8904600Y-11130500I-40000J0D01*
G01*
X8904600Y-11384500D02*
G75*
G03*
X8904600Y-11384500I-40000J0D01*
G01*
X8904600Y-11638500D02*
G75*
G03*
X8904600Y-11638500I-40000J0D01*
G01*
X8904600Y-11892500D02*
G75*
G03*
X8904600Y-11892500I-40000J0D01*
G01*
X9666600Y-8590500D02*
G75*
G03*
X9666600Y-8590500I-40000J0D01*
G01*
X9666600Y-8844500D02*
G75*
G03*
X9666600Y-8844500I-40000J0D01*
G01*
X9666600Y-9098500D02*
G75*
G03*
X9666600Y-9098500I-40000J0D01*
G01*
X9666600Y-9352500D02*
G75*
G03*
X9666600Y-9352500I-40000J0D01*
G01*
X9666600Y-9606500D02*
G75*
G03*
X9666600Y-9606500I-40000J0D01*
G01*
X9666600Y-9860500D02*
G75*
G03*
X9666600Y-9860500I-40000J0D01*
G01*
X9666600Y-10114500D02*
G75*
G03*
X9666600Y-10114500I-40000J0D01*
G01*
X9666600Y-10368500D02*
G75*
G03*
X9666600Y-10368500I-40000J0D01*
G01*
X9666600Y-10622500D02*
G75*
G03*
X9666600Y-10622500I-40000J0D01*
G01*
X9666600Y-10876500D02*
G75*
G03*
X9666600Y-10876500I-40000J0D01*
G01*
X9666600Y-11130500D02*
G75*
G03*
X9666600Y-11130500I-40000J0D01*
G01*
X9666600Y-11384500D02*
G75*
G03*
X9666600Y-11384500I-40000J0D01*
G01*
X9666600Y-11638500D02*
G75*
G03*
X9666600Y-11638500I-40000J0D01*
G01*
X9666600Y-11892500D02*
G75*
G03*
X9666600Y-11892500I-40000J0D01*
G01*
X9996800Y-8590500D02*
G75*
G03*
X9996800Y-8590500I-40000J0D01*
G01*
X9996800Y-8844500D02*
G75*
G03*
X9996800Y-8844500I-40000J0D01*
G01*
X9996800Y-9098500D02*
G75*
G03*
X9996800Y-9098500I-40000J0D01*
G01*
X9996800Y-9352500D02*
G75*
G03*
X9996800Y-9352500I-40000J0D01*
G01*
X9996800Y-9606500D02*
G75*
G03*
X9996800Y-9606500I-40000J0D01*
G01*
X9996800Y-9860500D02*
G75*
G03*
X9996800Y-9860500I-40000J0D01*
G01*
X9996800Y-10114500D02*
G75*
G03*
X9996800Y-10114500I-40000J0D01*
G01*
X9996800Y-10368500D02*
G75*
G03*
X9996800Y-10368500I-40000J0D01*
G01*
X9996800Y-10622500D02*
G75*
G03*
X9996800Y-10622500I-40000J0D01*
G01*
X9996800Y-10876500D02*
G75*
G03*
X9996800Y-10876500I-40000J0D01*
G01*
X9996800Y-11130500D02*
G75*
G03*
X9996800Y-11130500I-40000J0D01*
G01*
X9996800Y-11384500D02*
G75*
G03*
X9996800Y-11384500I-40000J0D01*
G01*
X9996800Y-11638500D02*
G75*
G03*
X9996800Y-11638500I-40000J0D01*
G01*
X9996800Y-11892500D02*
G75*
G03*
X9996800Y-11892500I-40000J0D01*
G01*
X10758800Y-8590500D02*
G75*
G03*
X10758800Y-8590500I-40000J0D01*
G01*
X10758800Y-8844500D02*
G75*
G03*
X10758800Y-8844500I-40000J0D01*
G01*
X10758800Y-9098500D02*
G75*
G03*
X10758800Y-9098500I-40000J0D01*
G01*
X10758800Y-9352500D02*
G75*
G03*
X10758800Y-9352500I-40000J0D01*
G01*
X10758800Y-9606500D02*
G75*
G03*
X10758800Y-9606500I-40000J0D01*
G01*
X10758800Y-9860500D02*
G75*
G03*
X10758800Y-9860500I-40000J0D01*
G01*
X10758800Y-10114500D02*
G75*
G03*
X10758800Y-10114500I-40000J0D01*
G01*
X10758800Y-10368500D02*
G75*
G03*
X10758800Y-10368500I-40000J0D01*
G01*
X10758800Y-10622500D02*
G75*
G03*
X10758800Y-10622500I-40000J0D01*
G01*
X10758800Y-10876500D02*
G75*
G03*
X10758800Y-10876500I-40000J0D01*
G01*
X10758800Y-11130500D02*
G75*
G03*
X10758800Y-11130500I-40000J0D01*
G01*
X10758800Y-11384500D02*
G75*
G03*
X10758800Y-11384500I-40000J0D01*
G01*
X10758800Y-11638500D02*
G75*
G03*
X10758800Y-11638500I-40000J0D01*
G01*
X10758800Y-11892500D02*
G75*
G03*
X10758800Y-11892500I-40000J0D01*
G01*
X11089000Y-8590500D02*
G75*
G03*
X11089000Y-8590500I-40000J0D01*
G01*
X11089000Y-8844500D02*
G75*
G03*
X11089000Y-8844500I-40000J0D01*
G01*
X11089000Y-9098500D02*
G75*
G03*
X11089000Y-9098500I-40000J0D01*
G01*
X11089000Y-9352500D02*
G75*
G03*
X11089000Y-9352500I-40000J0D01*
G01*
X11089000Y-9606500D02*
G75*
G03*
X11089000Y-9606500I-40000J0D01*
G01*
X11089000Y-9860500D02*
G75*
G03*
X11089000Y-9860500I-40000J0D01*
G01*
X11089000Y-10114500D02*
G75*
G03*
X11089000Y-10114500I-40000J0D01*
G01*
X11089000Y-10368500D02*
G75*
G03*
X11089000Y-10368500I-40000J0D01*
G01*
X11089000Y-10622500D02*
G75*
G03*
X11089000Y-10622500I-40000J0D01*
G01*
X11089000Y-10876500D02*
G75*
G03*
X11089000Y-10876500I-40000J0D01*
G01*
X11089000Y-11130500D02*
G75*
G03*
X11089000Y-11130500I-40000J0D01*
G01*
X11089000Y-11384500D02*
G75*
G03*
X11089000Y-11384500I-40000J0D01*
G01*
X11089000Y-11638500D02*
G75*
G03*
X11089000Y-11638500I-40000J0D01*
G01*
X11089000Y-11892500D02*
G75*
G03*
X11089000Y-11892500I-40000J0D01*
G01*
X11851000Y-8590500D02*
G75*
G03*
X11851000Y-8590500I-40000J0D01*
G01*
X11851000Y-8844500D02*
G75*
G03*
X11851000Y-8844500I-40000J0D01*
G01*
X11851000Y-9098500D02*
G75*
G03*
X11851000Y-9098500I-40000J0D01*
G01*
X11851000Y-9352500D02*
G75*
G03*
X11851000Y-9352500I-40000J0D01*
G01*
X11851000Y-9606500D02*
G75*
G03*
X11851000Y-9606500I-40000J0D01*
G01*
X11851000Y-9860500D02*
G75*
G03*
X11851000Y-9860500I-40000J0D01*
G01*
X11851000Y-10114500D02*
G75*
G03*
X11851000Y-10114500I-40000J0D01*
G01*
X11851000Y-10368500D02*
G75*
G03*
X11851000Y-10368500I-40000J0D01*
G01*
X11851000Y-10622500D02*
G75*
G03*
X11851000Y-10622500I-40000J0D01*
G01*
X11851000Y-10876500D02*
G75*
G03*
X11851000Y-10876500I-40000J0D01*
G01*
X11851000Y-11130500D02*
G75*
G03*
X11851000Y-11130500I-40000J0D01*
G01*
X11851000Y-11384500D02*
G75*
G03*
X11851000Y-11384500I-40000J0D01*
G01*
X11851000Y-11638500D02*
G75*
G03*
X11851000Y-11638500I-40000J0D01*
G01*
X11851000Y-11892500D02*
G75*
G03*
X11851000Y-11892500I-40000J0D01*
G01*
X12181200Y-8590500D02*
G75*
G03*
X12181200Y-8590500I-40000J0D01*
G01*
X12181200Y-8844500D02*
G75*
G03*
X12181200Y-8844500I-40000J0D01*
G01*
X12181200Y-9098500D02*
G75*
G03*
X12181200Y-9098500I-40000J0D01*
G01*
X12181200Y-9352500D02*
G75*
G03*
X12181200Y-9352500I-40000J0D01*
G01*
X12181200Y-9606500D02*
G75*
G03*
X12181200Y-9606500I-40000J0D01*
G01*
X12181200Y-9860500D02*
G75*
G03*
X12181200Y-9860500I-40000J0D01*
G01*
X12181200Y-10114500D02*
G75*
G03*
X12181200Y-10114500I-40000J0D01*
G01*
X12181200Y-10368500D02*
G75*
G03*
X12181200Y-10368500I-40000J0D01*
G01*
X12181200Y-10622500D02*
G75*
G03*
X12181200Y-10622500I-40000J0D01*
G01*
X12181200Y-10876500D02*
G75*
G03*
X12181200Y-10876500I-40000J0D01*
G01*
X12181200Y-11130500D02*
G75*
G03*
X12181200Y-11130500I-40000J0D01*
G01*
X12181200Y-11384500D02*
G75*
G03*
X12181200Y-11384500I-40000J0D01*
G01*
X12181200Y-11638500D02*
G75*
G03*
X12181200Y-11638500I-40000J0D01*
G01*
X12181200Y-11892500D02*
G75*
G03*
X12181200Y-11892500I-40000J0D01*
G01*
X12943200Y-8590500D02*
G75*
G03*
X12943200Y-8590500I-40000J0D01*
G01*
X12943200Y-8844500D02*
G75*
G03*
X12943200Y-8844500I-40000J0D01*
G01*
X12943200Y-9098500D02*
G75*
G03*
X12943200Y-9098500I-40000J0D01*
G01*
X12943200Y-9352500D02*
G75*
G03*
X12943200Y-9352500I-40000J0D01*
G01*
X12943200Y-9606500D02*
G75*
G03*
X12943200Y-9606500I-40000J0D01*
G01*
X12943200Y-9860500D02*
G75*
G03*
X12943200Y-9860500I-40000J0D01*
G01*
X12943200Y-10114500D02*
G75*
G03*
X12943200Y-10114500I-40000J0D01*
G01*
X12943200Y-10368500D02*
G75*
G03*
X12943200Y-10368500I-40000J0D01*
G01*
X12943200Y-10622500D02*
G75*
G03*
X12943200Y-10622500I-40000J0D01*
G01*
X12943200Y-10876500D02*
G75*
G03*
X12943200Y-10876500I-40000J0D01*
G01*
X12943200Y-11130500D02*
G75*
G03*
X12943200Y-11130500I-40000J0D01*
G01*
X12943200Y-11384500D02*
G75*
G03*
X12943200Y-11384500I-40000J0D01*
G01*
X12943200Y-11638500D02*
G75*
G03*
X12943200Y-11638500I-40000J0D01*
G01*
X12943200Y-11892500D02*
G75*
G03*
X12943200Y-11892500I-40000J0D01*
G01*
X13273400Y-8590500D02*
G75*
G03*
X13273400Y-8590500I-40000J0D01*
G01*
X13273400Y-8844500D02*
G75*
G03*
X13273400Y-8844500I-40000J0D01*
G01*
X13273400Y-9098500D02*
G75*
G03*
X13273400Y-9098500I-40000J0D01*
G01*
X13273400Y-9352500D02*
G75*
G03*
X13273400Y-9352500I-40000J0D01*
G01*
X13273400Y-9606500D02*
G75*
G03*
X13273400Y-9606500I-40000J0D01*
G01*
X13273400Y-9860500D02*
G75*
G03*
X13273400Y-9860500I-40000J0D01*
G01*
X13273400Y-10114500D02*
G75*
G03*
X13273400Y-10114500I-40000J0D01*
G01*
X13273400Y-10368500D02*
G75*
G03*
X13273400Y-10368500I-40000J0D01*
G01*
X13273400Y-10622500D02*
G75*
G03*
X13273400Y-10622500I-40000J0D01*
G01*
X13273400Y-10876500D02*
G75*
G03*
X13273400Y-10876500I-40000J0D01*
G01*
X13273400Y-11130500D02*
G75*
G03*
X13273400Y-11130500I-40000J0D01*
G01*
X13273400Y-11384500D02*
G75*
G03*
X13273400Y-11384500I-40000J0D01*
G01*
X13273400Y-11638500D02*
G75*
G03*
X13273400Y-11638500I-40000J0D01*
G01*
X13273400Y-11892500D02*
G75*
G03*
X13273400Y-11892500I-40000J0D01*
G01*
X14035400Y-8590500D02*
G75*
G03*
X14035400Y-8590500I-40000J0D01*
G01*
X14035400Y-8844500D02*
G75*
G03*
X14035400Y-8844500I-40000J0D01*
G01*
X14035400Y-9098500D02*
G75*
G03*
X14035400Y-9098500I-40000J0D01*
G01*
X14035400Y-9352500D02*
G75*
G03*
X14035400Y-9352500I-40000J0D01*
G01*
X14035400Y-9606500D02*
G75*
G03*
X14035400Y-9606500I-40000J0D01*
G01*
X14035400Y-9860500D02*
G75*
G03*
X14035400Y-9860500I-40000J0D01*
G01*
X14035400Y-10114500D02*
G75*
G03*
X14035400Y-10114500I-40000J0D01*
G01*
X14035400Y-10368500D02*
G75*
G03*
X14035400Y-10368500I-40000J0D01*
G01*
X14035400Y-10622500D02*
G75*
G03*
X14035400Y-10622500I-40000J0D01*
G01*
X14035400Y-10876500D02*
G75*
G03*
X14035400Y-10876500I-40000J0D01*
G01*
X14035400Y-11130500D02*
G75*
G03*
X14035400Y-11130500I-40000J0D01*
G01*
X14035400Y-11384500D02*
G75*
G03*
X14035400Y-11384500I-40000J0D01*
G01*
X14035400Y-11638500D02*
G75*
G03*
X14035400Y-11638500I-40000J0D01*
G01*
X14035400Y-11892500D02*
G75*
G03*
X14035400Y-11892500I-40000J0D01*
G01*
X14365600Y-8590500D02*
G75*
G03*
X14365600Y-8590500I-40000J0D01*
G01*
X14365600Y-8844500D02*
G75*
G03*
X14365600Y-8844500I-40000J0D01*
G01*
X14365600Y-9098500D02*
G75*
G03*
X14365600Y-9098500I-40000J0D01*
G01*
X14365600Y-9352500D02*
G75*
G03*
X14365600Y-9352500I-40000J0D01*
G01*
X14365600Y-9606500D02*
G75*
G03*
X14365600Y-9606500I-40000J0D01*
G01*
X14365600Y-9860500D02*
G75*
G03*
X14365600Y-9860500I-40000J0D01*
G01*
X14365600Y-10114500D02*
G75*
G03*
X14365600Y-10114500I-40000J0D01*
G01*
X14365600Y-10368500D02*
G75*
G03*
X14365600Y-10368500I-40000J0D01*
G01*
X14365600Y-10622500D02*
G75*
G03*
X14365600Y-10622500I-40000J0D01*
G01*
X14365600Y-10876500D02*
G75*
G03*
X14365600Y-10876500I-40000J0D01*
G01*
X14365600Y-11130500D02*
G75*
G03*
X14365600Y-11130500I-40000J0D01*
G01*
X14365600Y-11384500D02*
G75*
G03*
X14365600Y-11384500I-40000J0D01*
G01*
X14365600Y-11638500D02*
G75*
G03*
X14365600Y-11638500I-40000J0D01*
G01*
X14365600Y-11892500D02*
G75*
G03*
X14365600Y-11892500I-40000J0D01*
G01*
X15127600Y-8590500D02*
G75*
G03*
X15127600Y-8590500I-40000J0D01*
G01*
X15127600Y-8844500D02*
G75*
G03*
X15127600Y-8844500I-40000J0D01*
G01*
X15127600Y-9098500D02*
G75*
G03*
X15127600Y-9098500I-40000J0D01*
G01*
X15127600Y-9352500D02*
G75*
G03*
X15127600Y-9352500I-40000J0D01*
G01*
X15127600Y-9606500D02*
G75*
G03*
X15127600Y-9606500I-40000J0D01*
G01*
X15127600Y-9860500D02*
G75*
G03*
X15127600Y-9860500I-40000J0D01*
G01*
X15127600Y-10114500D02*
G75*
G03*
X15127600Y-10114500I-40000J0D01*
G01*
X15127600Y-10368500D02*
G75*
G03*
X15127600Y-10368500I-40000J0D01*
G01*
X15127600Y-10622500D02*
G75*
G03*
X15127600Y-10622500I-40000J0D01*
G01*
X15127600Y-10876500D02*
G75*
G03*
X15127600Y-10876500I-40000J0D01*
G01*
X15127600Y-11130500D02*
G75*
G03*
X15127600Y-11130500I-40000J0D01*
G01*
X15127600Y-11384500D02*
G75*
G03*
X15127600Y-11384500I-40000J0D01*
G01*
X15127600Y-11638500D02*
G75*
G03*
X15127600Y-11638500I-40000J0D01*
G01*
X15127600Y-11892500D02*
G75*
G03*
X15127600Y-11892500I-40000J0D01*
G01*
X15457800Y-8590500D02*
G75*
G03*
X15457800Y-8590500I-40000J0D01*
G01*
X15457800Y-8844500D02*
G75*
G03*
X15457800Y-8844500I-40000J0D01*
G01*
X15457800Y-9098500D02*
G75*
G03*
X15457800Y-9098500I-40000J0D01*
G01*
X15457800Y-9352500D02*
G75*
G03*
X15457800Y-9352500I-40000J0D01*
G01*
X15457800Y-9606500D02*
G75*
G03*
X15457800Y-9606500I-40000J0D01*
G01*
X15457800Y-9860500D02*
G75*
G03*
X15457800Y-9860500I-40000J0D01*
G01*
X15457800Y-10114500D02*
G75*
G03*
X15457800Y-10114500I-40000J0D01*
G01*
X15457800Y-10368500D02*
G75*
G03*
X15457800Y-10368500I-40000J0D01*
G01*
X15457800Y-10622500D02*
G75*
G03*
X15457800Y-10622500I-40000J0D01*
G01*
X15457800Y-10876500D02*
G75*
G03*
X15457800Y-10876500I-40000J0D01*
G01*
X15457800Y-11130500D02*
G75*
G03*
X15457800Y-11130500I-40000J0D01*
G01*
X15457800Y-11384500D02*
G75*
G03*
X15457800Y-11384500I-40000J0D01*
G01*
X15457800Y-11638500D02*
G75*
G03*
X15457800Y-11638500I-40000J0D01*
G01*
X15457800Y-11892500D02*
G75*
G03*
X15457800Y-11892500I-40000J0D01*
G01*
X16219800Y-8590500D02*
G75*
G03*
X16219800Y-8590500I-40000J0D01*
G01*
X16219800Y-8844500D02*
G75*
G03*
X16219800Y-8844500I-40000J0D01*
G01*
X16219800Y-9098500D02*
G75*
G03*
X16219800Y-9098500I-40000J0D01*
G01*
X16219800Y-9352500D02*
G75*
G03*
X16219800Y-9352500I-40000J0D01*
G01*
X16219800Y-9606500D02*
G75*
G03*
X16219800Y-9606500I-40000J0D01*
G01*
X16219800Y-9860500D02*
G75*
G03*
X16219800Y-9860500I-40000J0D01*
G01*
X16219800Y-10114500D02*
G75*
G03*
X16219800Y-10114500I-40000J0D01*
G01*
X16219800Y-10368500D02*
G75*
G03*
X16219800Y-10368500I-40000J0D01*
G01*
X16219800Y-10622500D02*
G75*
G03*
X16219800Y-10622500I-40000J0D01*
G01*
X16219800Y-10876500D02*
G75*
G03*
X16219800Y-10876500I-40000J0D01*
G01*
X16219800Y-11130500D02*
G75*
G03*
X16219800Y-11130500I-40000J0D01*
G01*
X16219800Y-11384500D02*
G75*
G03*
X16219800Y-11384500I-40000J0D01*
G01*
X16219800Y-11638500D02*
G75*
G03*
X16219800Y-11638500I-40000J0D01*
G01*
X16219800Y-11892500D02*
G75*
G03*
X16219800Y-11892500I-40000J0D01*
G01*
X16550000Y-8590500D02*
G75*
G03*
X16550000Y-8590500I-40000J0D01*
G01*
X16550000Y-8844500D02*
G75*
G03*
X16550000Y-8844500I-40000J0D01*
G01*
X16550000Y-9098500D02*
G75*
G03*
X16550000Y-9098500I-40000J0D01*
G01*
X16550000Y-9352500D02*
G75*
G03*
X16550000Y-9352500I-40000J0D01*
G01*
X16550000Y-9606500D02*
G75*
G03*
X16550000Y-9606500I-40000J0D01*
G01*
X16550000Y-9860500D02*
G75*
G03*
X16550000Y-9860500I-40000J0D01*
G01*
X16550000Y-10114500D02*
G75*
G03*
X16550000Y-10114500I-40000J0D01*
G01*
X16550000Y-10368500D02*
G75*
G03*
X16550000Y-10368500I-40000J0D01*
G01*
X16550000Y-10622500D02*
G75*
G03*
X16550000Y-10622500I-40000J0D01*
G01*
X16550000Y-10876500D02*
G75*
G03*
X16550000Y-10876500I-40000J0D01*
G01*
X16550000Y-11130500D02*
G75*
G03*
X16550000Y-11130500I-40000J0D01*
G01*
X16550000Y-11384500D02*
G75*
G03*
X16550000Y-11384500I-40000J0D01*
G01*
X16550000Y-11638500D02*
G75*
G03*
X16550000Y-11638500I-40000J0D01*
G01*
X16550000Y-11892500D02*
G75*
G03*
X16550000Y-11892500I-40000J0D01*
G01*
X17312000Y-8590500D02*
G75*
G03*
X17312000Y-8590500I-40000J0D01*
G01*
X17312000Y-8844500D02*
G75*
G03*
X17312000Y-8844500I-40000J0D01*
G01*
X17312000Y-9098500D02*
G75*
G03*
X17312000Y-9098500I-40000J0D01*
G01*
X17312000Y-9352500D02*
G75*
G03*
X17312000Y-9352500I-40000J0D01*
G01*
X17312000Y-9606500D02*
G75*
G03*
X17312000Y-9606500I-40000J0D01*
G01*
X17312000Y-9860500D02*
G75*
G03*
X17312000Y-9860500I-40000J0D01*
G01*
X17312000Y-10114500D02*
G75*
G03*
X17312000Y-10114500I-40000J0D01*
G01*
X17312000Y-10368500D02*
G75*
G03*
X17312000Y-10368500I-40000J0D01*
G01*
X17312000Y-10622500D02*
G75*
G03*
X17312000Y-10622500I-40000J0D01*
G01*
X17312000Y-10876500D02*
G75*
G03*
X17312000Y-10876500I-40000J0D01*
G01*
X17312000Y-11130500D02*
G75*
G03*
X17312000Y-11130500I-40000J0D01*
G01*
X17312000Y-11384500D02*
G75*
G03*
X17312000Y-11384500I-40000J0D01*
G01*
X17312000Y-11638500D02*
G75*
G03*
X17312000Y-11638500I-40000J0D01*
G01*
X17312000Y-11892500D02*
G75*
G03*
X17312000Y-11892500I-40000J0D01*
G01*
X8864600Y-12523000D02*
X8864600Y-12623000D01*
X8814600Y-12573000D02*
X8914600Y-12573000D01*
X9118600Y-12523000D02*
X9118600Y-12623000D01*
X9068600Y-12573000D02*
X9168600Y-12573000D01*
X9372600Y-12523000D02*
X9372600Y-12623000D01*
X9322600Y-12573000D02*
X9422600Y-12573000D01*
X9626600Y-12523000D02*
X9626600Y-12623000D01*
X9576600Y-12573000D02*
X9676600Y-12573000D01*
X9880600Y-12523000D02*
X9880600Y-12623000D01*
X9830600Y-12573000D02*
X9930600Y-12573000D01*
X10134600Y-12523000D02*
X10134600Y-12623000D01*
X10084600Y-12573000D02*
X10184600Y-12573000D01*
X10388600Y-12523000D02*
X10388600Y-12623000D01*
X10338600Y-12573000D02*
X10438600Y-12573000D01*
X10642600Y-12523000D02*
X10642600Y-12623000D01*
X10592600Y-12573000D02*
X10692600Y-12573000D01*
X10896600Y-12523000D02*
X10896600Y-12623000D01*
X10846600Y-12573000D02*
X10946600Y-12573000D01*
X11150600Y-12523000D02*
X11150600Y-12623000D01*
X11100600Y-12573000D02*
X11200600Y-12573000D01*
X11404600Y-12523000D02*
X11404600Y-12623000D01*
X11354600Y-12573000D02*
X11454600Y-12573000D01*
X11658600Y-12523000D02*
X11658600Y-12623000D01*
X11608600Y-12573000D02*
X11708600Y-12573000D01*
X11912600Y-12523000D02*
X11912600Y-12623000D01*
X11862600Y-12573000D02*
X11962600Y-12573000D01*
X12166600Y-12523000D02*
X12166600Y-12623000D01*
X12116600Y-12573000D02*
X12216600Y-12573000D01*
X12420600Y-12523000D02*
X12420600Y-12623000D01*
X12370600Y-12573000D02*
X12470600Y-12573000D01*
X12674600Y-12523000D02*
X12674600Y-12623000D01*
X12624600Y-12573000D02*
X12724600Y-12573000D01*
X12928600Y-12523000D02*
X12928600Y-12623000D01*
X12878600Y-12573000D02*
X12978600Y-12573000D01*
X13182600Y-12523000D02*
X13182600Y-12623000D01*
X13132600Y-12573000D02*
X13232600Y-12573000D01*
X13436600Y-12523000D02*
X13436600Y-12623000D01*
X13386600Y-12573000D02*
X13486600Y-12573000D01*
X13690600Y-12523000D02*
X13690600Y-12623000D01*
X13640600Y-12573000D02*
X13740600Y-12573000D01*
X13944600Y-12523000D02*
X13944600Y-12623000D01*
X13894600Y-12573000D02*
X13994600Y-12573000D01*
X14198600Y-12523000D02*
X14198600Y-12623000D01*
X14148600Y-12573000D02*
X14248600Y-12573000D01*
X14452600Y-12523000D02*
X14452600Y-12623000D01*
X14402600Y-12573000D02*
X14502600Y-12573000D01*
X14706600Y-12523000D02*
X14706600Y-12623000D01*
X14656600Y-12573000D02*
X14756600Y-12573000D01*
X14960600Y-12523000D02*
X14960600Y-12623000D01*
X14910600Y-12573000D02*
X15010600Y-12573000D01*
X15214600Y-12523000D02*
X15214600Y-12623000D01*
X15164600Y-12573000D02*
X15264600Y-12573000D01*
X15468600Y-12523000D02*
X15468600Y-12623000D01*
X15418600Y-12573000D02*
X15518600Y-12573000D01*
X15722600Y-12523000D02*
X15722600Y-12623000D01*
X15672600Y-12573000D02*
X15772600Y-12573000D01*
X15976600Y-12523000D02*
X15976600Y-12623000D01*
X15926600Y-12573000D02*
X16026600Y-12573000D01*
X16230600Y-12523000D02*
X16230600Y-12623000D01*
X16180600Y-12573000D02*
X16280600Y-12573000D01*
X16484600Y-12523000D02*
X16484600Y-12623000D01*
X16434600Y-12573000D02*
X16534600Y-12573000D01*
X16738600Y-12523000D02*
X16738600Y-12623000D01*
X16688600Y-12573000D02*
X16788600Y-12573000D01*
X16992600Y-12523000D02*
X16992600Y-12623000D01*
X16942600Y-12573000D02*
X17042600Y-12573000D01*
X8114138Y-8749138D02*
X8114138Y-8522862D01*
X7887862Y-8522862D01*
X7887862Y-8749138D01*
X8114138Y-8749138D01*
X8114138Y-12457538D02*
X8114138Y-12231262D01*
X7887862Y-12231262D01*
X7887862Y-12457538D01*
X8114138Y-12457538D01*
X17867738Y-8749138D02*
X17867738Y-8522862D01*
X17641462Y-8522862D01*
X17641462Y-8749138D01*
X17867738Y-8749138D01*
X17867738Y-12457538D02*
X17867738Y-12231262D01*
X17641462Y-12231262D01*
X17641462Y-12457538D01*
X17867738Y-12457538D01*
D12*
X7878528Y-13219014D02*
X7878528Y-12919014D01*
X7949957Y-12919014D01*
X7992814Y-12933300D01*
X8021386Y-12961871D01*
X8035671Y-12990443D01*
X8049957Y-13047586D01*
X8049957Y-13090443D01*
X8035671Y-13147586D01*
X8021386Y-13176157D01*
X7992814Y-13204729D01*
X7949957Y-13219014D01*
X7878528Y-13219014D01*
X8178528Y-13219014D02*
X8178528Y-13019014D01*
X8178528Y-13076157D02*
X8192814Y-13047586D01*
X8207100Y-13033300D01*
X8235671Y-13019014D01*
X8264243Y-13019014D01*
X8364243Y-13219014D02*
X8364243Y-13019014D01*
X8364243Y-12919014D02*
X8349957Y-12933300D01*
X8364243Y-12947586D01*
X8378528Y-12933300D01*
X8364243Y-12919014D01*
X8364243Y-12947586D01*
X8549957Y-13219014D02*
X8521386Y-13204729D01*
X8507100Y-13176157D01*
X8507100Y-12919014D01*
X8707100Y-13219014D02*
X8678528Y-13204729D01*
X8664243Y-13176157D01*
X8664243Y-12919014D01*
X9049957Y-13219014D02*
X9049957Y-12919014D01*
X9149957Y-13133300D01*
X9249957Y-12919014D01*
X9249957Y-13219014D01*
X9521386Y-13219014D02*
X9521386Y-13061871D01*
X9507100Y-13033300D01*
X9478528Y-13019014D01*
X9421386Y-13019014D01*
X9392814Y-13033300D01*
X9521386Y-13204729D02*
X9492814Y-13219014D01*
X9421386Y-13219014D01*
X9392814Y-13204729D01*
X9378528Y-13176157D01*
X9378528Y-13147586D01*
X9392814Y-13119014D01*
X9421386Y-13104729D01*
X9492814Y-13104729D01*
X9521386Y-13090443D01*
X9664243Y-13019014D02*
X9664243Y-13319014D01*
X9664243Y-13033300D02*
X9692814Y-13019014D01*
X9749957Y-13019014D01*
X9778528Y-13033300D01*
X9792814Y-13047586D01*
X9807100Y-13076157D01*
X9807100Y-13161871D01*
X9792814Y-13190443D01*
X9778528Y-13204729D01*
X9749957Y-13219014D01*
X9692814Y-13219014D01*
X9664243Y-13204729D01*
X9935671Y-13190443D02*
X9949957Y-13204729D01*
X9935671Y-13219014D01*
X9921386Y-13204729D01*
X9935671Y-13190443D01*
X9935671Y-13219014D01*
X9935671Y-13033300D02*
X9949957Y-13047586D01*
X9935671Y-13061871D01*
X9921386Y-13047586D01*
X9935671Y-13033300D01*
X9935671Y-13061871D01*
X7552100Y-13693300D02*
X7592100Y-13733300D01*
X7592100Y-13693300D02*
X7552100Y-13733300D01*
X7935671Y-13549014D02*
X7964243Y-13549014D01*
X7992814Y-13563300D01*
X8007100Y-13577586D01*
X8021386Y-13606157D01*
X8035671Y-13663300D01*
X8035671Y-13734729D01*
X8021386Y-13791871D01*
X8007100Y-13820443D01*
X7992814Y-13834729D01*
X7964243Y-13849014D01*
X7935671Y-13849014D01*
X7907100Y-13834729D01*
X7892814Y-13820443D01*
X7878528Y-13791871D01*
X7864243Y-13734729D01*
X7864243Y-13663300D01*
X7878528Y-13606157D01*
X7892814Y-13577586D01*
X7907100Y-13563300D01*
X7935671Y-13549014D01*
X8164243Y-13820443D02*
X8178528Y-13834729D01*
X8164243Y-13849014D01*
X8149957Y-13834729D01*
X8164243Y-13820443D01*
X8164243Y-13849014D01*
X8435671Y-13649014D02*
X8435671Y-13849014D01*
X8364243Y-13534729D02*
X8292814Y-13749014D01*
X8478528Y-13749014D01*
X8649957Y-13549014D02*
X8678528Y-13549014D01*
X8707100Y-13563300D01*
X8721386Y-13577586D01*
X8735671Y-13606157D01*
X8749957Y-13663300D01*
X8749957Y-13734729D01*
X8735671Y-13791871D01*
X8721386Y-13820443D01*
X8707100Y-13834729D01*
X8678528Y-13849014D01*
X8649957Y-13849014D01*
X8621386Y-13834729D01*
X8607100Y-13820443D01*
X8592814Y-13791871D01*
X8578528Y-13734729D01*
X8578528Y-13663300D01*
X8592814Y-13606157D01*
X8607100Y-13577586D01*
X8621386Y-13563300D01*
X8649957Y-13549014D01*
X8878528Y-13849014D02*
X8878528Y-13649014D01*
X8878528Y-13677586D02*
X8892814Y-13663300D01*
X8921386Y-13649014D01*
X8964243Y-13649014D01*
X8992814Y-13663300D01*
X9007100Y-13691871D01*
X9007100Y-13849014D01*
X9007100Y-13691871D02*
X9021386Y-13663300D01*
X9049957Y-13649014D01*
X9092814Y-13649014D01*
X9121386Y-13663300D01*
X9135671Y-13691871D01*
X9135671Y-13849014D01*
X9278528Y-13849014D02*
X9278528Y-13649014D01*
X9278528Y-13677586D02*
X9292814Y-13663300D01*
X9321386Y-13649014D01*
X9364243Y-13649014D01*
X9392814Y-13663300D01*
X9407100Y-13691871D01*
X9407100Y-13849014D01*
X9407100Y-13691871D02*
X9421386Y-13663300D01*
X9449957Y-13649014D01*
X9492814Y-13649014D01*
X9521386Y-13663300D01*
X9535671Y-13691871D01*
X9535671Y-13849014D01*
X10121386Y-13534729D02*
X9864243Y-13920443D01*
X10507100Y-13549014D02*
X10535671Y-13549014D01*
X10564243Y-13563300D01*
X10578528Y-13577586D01*
X10592814Y-13606157D01*
X10607100Y-13663300D01*
X10607100Y-13734729D01*
X10592814Y-13791871D01*
X10578528Y-13820443D01*
X10564243Y-13834729D01*
X10535671Y-13849014D01*
X10507100Y-13849014D01*
X10478528Y-13834729D01*
X10464243Y-13820443D01*
X10449957Y-13791871D01*
X10435671Y-13734729D01*
X10435671Y-13663300D01*
X10449957Y-13606157D01*
X10464243Y-13577586D01*
X10478528Y-13563300D01*
X10507100Y-13549014D01*
X10735671Y-13820443D02*
X10749957Y-13834729D01*
X10735671Y-13849014D01*
X10721386Y-13834729D01*
X10735671Y-13820443D01*
X10735671Y-13849014D01*
X10935671Y-13549014D02*
X10964243Y-13549014D01*
X10992814Y-13563300D01*
X11007100Y-13577586D01*
X11021386Y-13606157D01*
X11035671Y-13663300D01*
X11035671Y-13734729D01*
X11021386Y-13791871D01*
X11007100Y-13820443D01*
X10992814Y-13834729D01*
X10964243Y-13849014D01*
X10935671Y-13849014D01*
X10907100Y-13834729D01*
X10892814Y-13820443D01*
X10878528Y-13791871D01*
X10864243Y-13734729D01*
X10864243Y-13663300D01*
X10878528Y-13606157D01*
X10892814Y-13577586D01*
X10907100Y-13563300D01*
X10935671Y-13549014D01*
X11321386Y-13849014D02*
X11149957Y-13849014D01*
X11235671Y-13849014D02*
X11235671Y-13549014D01*
X11207100Y-13591871D01*
X11178528Y-13620443D01*
X11149957Y-13634729D01*
X11578528Y-13549014D02*
X11521386Y-13549014D01*
X11492814Y-13563300D01*
X11478528Y-13577586D01*
X11449957Y-13620443D01*
X11435671Y-13677586D01*
X11435671Y-13791871D01*
X11449957Y-13820443D01*
X11464243Y-13834729D01*
X11492814Y-13849014D01*
X11549957Y-13849014D01*
X11578528Y-13834729D01*
X11592814Y-13820443D01*
X11607100Y-13791871D01*
X11607100Y-13720443D01*
X11592814Y-13691871D01*
X11578528Y-13677586D01*
X11549957Y-13663300D01*
X11492814Y-13663300D01*
X11464243Y-13677586D01*
X11449957Y-13691871D01*
X11435671Y-13720443D01*
X11721386Y-13549014D02*
X11721386Y-13606157D01*
X11835671Y-13549014D02*
X11835671Y-13606157D01*
X12278528Y-13963300D02*
X12264243Y-13949014D01*
X12235671Y-13906157D01*
X12221386Y-13877586D01*
X12207100Y-13834729D01*
X12192814Y-13763300D01*
X12192814Y-13706157D01*
X12207100Y-13634729D01*
X12221386Y-13591871D01*
X12235671Y-13563300D01*
X12264243Y-13520443D01*
X12278528Y-13506157D01*
X12549957Y-13849014D02*
X12378528Y-13849014D01*
X12464243Y-13849014D02*
X12464243Y-13549014D01*
X12435671Y-13591871D01*
X12407100Y-13620443D01*
X12378528Y-13634729D01*
X12907100Y-13849014D02*
X12907100Y-13549014D01*
X13035671Y-13849014D02*
X13035671Y-13691871D01*
X13021386Y-13663300D01*
X12992814Y-13649014D01*
X12949957Y-13649014D01*
X12921386Y-13663300D01*
X12907100Y-13677586D01*
X13221386Y-13849014D02*
X13192814Y-13834729D01*
X13178528Y-13820443D01*
X13164243Y-13791871D01*
X13164243Y-13706157D01*
X13178528Y-13677586D01*
X13192814Y-13663300D01*
X13221386Y-13649014D01*
X13264243Y-13649014D01*
X13292814Y-13663300D01*
X13307100Y-13677586D01*
X13321386Y-13706157D01*
X13321386Y-13791871D01*
X13307100Y-13820443D01*
X13292814Y-13834729D01*
X13264243Y-13849014D01*
X13221386Y-13849014D01*
X13492814Y-13849014D02*
X13464243Y-13834729D01*
X13449957Y-13806157D01*
X13449957Y-13549014D01*
X13721386Y-13834729D02*
X13692814Y-13849014D01*
X13635671Y-13849014D01*
X13607100Y-13834729D01*
X13592814Y-13806157D01*
X13592814Y-13691871D01*
X13607100Y-13663300D01*
X13635671Y-13649014D01*
X13692814Y-13649014D01*
X13721386Y-13663300D01*
X13735671Y-13691871D01*
X13735671Y-13720443D01*
X13592814Y-13749014D01*
X13835671Y-13963300D02*
X13849957Y-13949014D01*
X13878528Y-13906157D01*
X13892814Y-13877586D01*
X13907100Y-13834729D01*
X13921386Y-13763300D01*
X13921386Y-13706157D01*
X13907100Y-13634729D01*
X13892814Y-13591871D01*
X13878528Y-13563300D01*
X13849957Y-13520443D01*
X13835671Y-13506157D01*
X7592100Y-14109300D02*
G75*
G03*
X7592100Y-14109300I-40000J0D01*
G01*
X7935671Y-13945014D02*
X7964243Y-13945014D01*
X7992814Y-13959300D01*
X8007100Y-13973586D01*
X8021386Y-14002157D01*
X8035671Y-14059300D01*
X8035671Y-14130729D01*
X8021386Y-14187871D01*
X8007100Y-14216443D01*
X7992814Y-14230729D01*
X7964243Y-14245014D01*
X7935671Y-14245014D01*
X7907100Y-14230729D01*
X7892814Y-14216443D01*
X7878528Y-14187871D01*
X7864243Y-14130729D01*
X7864243Y-14059300D01*
X7878528Y-14002157D01*
X7892814Y-13973586D01*
X7907100Y-13959300D01*
X7935671Y-13945014D01*
X8164243Y-14216443D02*
X8178528Y-14230729D01*
X8164243Y-14245014D01*
X8149957Y-14230729D01*
X8164243Y-14216443D01*
X8164243Y-14245014D01*
X8349957Y-14073586D02*
X8321386Y-14059300D01*
X8307100Y-14045014D01*
X8292814Y-14016443D01*
X8292814Y-14002157D01*
X8307100Y-13973586D01*
X8321386Y-13959300D01*
X8349957Y-13945014D01*
X8407100Y-13945014D01*
X8435671Y-13959300D01*
X8449957Y-13973586D01*
X8464243Y-14002157D01*
X8464243Y-14016443D01*
X8449957Y-14045014D01*
X8435671Y-14059300D01*
X8407100Y-14073586D01*
X8349957Y-14073586D01*
X8321386Y-14087871D01*
X8307100Y-14102157D01*
X8292814Y-14130729D01*
X8292814Y-14187871D01*
X8307100Y-14216443D01*
X8321386Y-14230729D01*
X8349957Y-14245014D01*
X8407100Y-14245014D01*
X8435671Y-14230729D01*
X8449957Y-14216443D01*
X8464243Y-14187871D01*
X8464243Y-14130729D01*
X8449957Y-14102157D01*
X8435671Y-14087871D01*
X8407100Y-14073586D01*
X8649957Y-13945014D02*
X8678528Y-13945014D01*
X8707100Y-13959300D01*
X8721386Y-13973586D01*
X8735671Y-14002157D01*
X8749957Y-14059300D01*
X8749957Y-14130729D01*
X8735671Y-14187871D01*
X8721386Y-14216443D01*
X8707100Y-14230729D01*
X8678528Y-14245014D01*
X8649957Y-14245014D01*
X8621386Y-14230729D01*
X8607100Y-14216443D01*
X8592814Y-14187871D01*
X8578528Y-14130729D01*
X8578528Y-14059300D01*
X8592814Y-14002157D01*
X8607100Y-13973586D01*
X8621386Y-13959300D01*
X8649957Y-13945014D01*
X8878528Y-14245014D02*
X8878528Y-14045014D01*
X8878528Y-14073586D02*
X8892814Y-14059300D01*
X8921386Y-14045014D01*
X8964243Y-14045014D01*
X8992814Y-14059300D01*
X9007100Y-14087871D01*
X9007100Y-14245014D01*
X9007100Y-14087871D02*
X9021386Y-14059300D01*
X9049957Y-14045014D01*
X9092814Y-14045014D01*
X9121386Y-14059300D01*
X9135671Y-14087871D01*
X9135671Y-14245014D01*
X9278528Y-14245014D02*
X9278528Y-14045014D01*
X9278528Y-14073586D02*
X9292814Y-14059300D01*
X9321386Y-14045014D01*
X9364243Y-14045014D01*
X9392814Y-14059300D01*
X9407100Y-14087871D01*
X9407100Y-14245014D01*
X9407100Y-14087871D02*
X9421386Y-14059300D01*
X9449957Y-14045014D01*
X9492814Y-14045014D01*
X9521386Y-14059300D01*
X9535671Y-14087871D01*
X9535671Y-14245014D01*
X10121386Y-13930729D02*
X9864243Y-14316443D01*
X10507100Y-13945014D02*
X10535671Y-13945014D01*
X10564243Y-13959300D01*
X10578528Y-13973586D01*
X10592814Y-14002157D01*
X10607100Y-14059300D01*
X10607100Y-14130729D01*
X10592814Y-14187871D01*
X10578528Y-14216443D01*
X10564243Y-14230729D01*
X10535671Y-14245014D01*
X10507100Y-14245014D01*
X10478528Y-14230729D01*
X10464243Y-14216443D01*
X10449957Y-14187871D01*
X10435671Y-14130729D01*
X10435671Y-14059300D01*
X10449957Y-14002157D01*
X10464243Y-13973586D01*
X10478528Y-13959300D01*
X10507100Y-13945014D01*
X10735671Y-14216443D02*
X10749957Y-14230729D01*
X10735671Y-14245014D01*
X10721386Y-14230729D01*
X10735671Y-14216443D01*
X10735671Y-14245014D01*
X10935671Y-13945014D02*
X10964243Y-13945014D01*
X10992814Y-13959300D01*
X11007100Y-13973586D01*
X11021386Y-14002157D01*
X11035671Y-14059300D01*
X11035671Y-14130729D01*
X11021386Y-14187871D01*
X11007100Y-14216443D01*
X10992814Y-14230729D01*
X10964243Y-14245014D01*
X10935671Y-14245014D01*
X10907100Y-14230729D01*
X10892814Y-14216443D01*
X10878528Y-14187871D01*
X10864243Y-14130729D01*
X10864243Y-14059300D01*
X10878528Y-14002157D01*
X10892814Y-13973586D01*
X10907100Y-13959300D01*
X10935671Y-13945014D01*
X11135671Y-13945014D02*
X11321386Y-13945014D01*
X11221386Y-14059300D01*
X11264243Y-14059300D01*
X11292814Y-14073586D01*
X11307100Y-14087871D01*
X11321386Y-14116443D01*
X11321386Y-14187871D01*
X11307100Y-14216443D01*
X11292814Y-14230729D01*
X11264243Y-14245014D01*
X11178528Y-14245014D01*
X11149957Y-14230729D01*
X11135671Y-14216443D01*
X11607100Y-14245014D02*
X11435671Y-14245014D01*
X11521386Y-14245014D02*
X11521386Y-13945014D01*
X11492814Y-13987871D01*
X11464243Y-14016443D01*
X11435671Y-14030729D01*
X11721386Y-13945014D02*
X11721386Y-14002157D01*
X11835671Y-13945014D02*
X11835671Y-14002157D01*
X12278528Y-14359300D02*
X12264243Y-14345014D01*
X12235671Y-14302157D01*
X12221386Y-14273586D01*
X12207100Y-14230729D01*
X12192814Y-14159300D01*
X12192814Y-14102157D01*
X12207100Y-14030729D01*
X12221386Y-13987871D01*
X12235671Y-13959300D01*
X12264243Y-13916443D01*
X12278528Y-13902157D01*
X12378528Y-13973586D02*
X12392814Y-13959300D01*
X12421386Y-13945014D01*
X12492814Y-13945014D01*
X12521386Y-13959300D01*
X12535671Y-13973586D01*
X12549957Y-14002157D01*
X12549957Y-14030729D01*
X12535671Y-14073586D01*
X12364243Y-14245014D01*
X12549957Y-14245014D01*
X12807100Y-14045014D02*
X12807100Y-14245014D01*
X12735671Y-13930729D02*
X12664243Y-14145014D01*
X12849957Y-14145014D01*
X13021386Y-13945014D02*
X13049957Y-13945014D01*
X13078528Y-13959300D01*
X13092814Y-13973586D01*
X13107100Y-14002157D01*
X13121386Y-14059300D01*
X13121386Y-14130729D01*
X13107100Y-14187871D01*
X13092814Y-14216443D01*
X13078528Y-14230729D01*
X13049957Y-14245014D01*
X13021386Y-14245014D01*
X12992814Y-14230729D01*
X12978528Y-14216443D01*
X12964243Y-14187871D01*
X12949957Y-14130729D01*
X12949957Y-14059300D01*
X12964243Y-14002157D01*
X12978528Y-13973586D01*
X12992814Y-13959300D01*
X13021386Y-13945014D01*
X13478528Y-14245014D02*
X13478528Y-13945014D01*
X13607100Y-14245014D02*
X13607100Y-14087871D01*
X13592814Y-14059300D01*
X13564243Y-14045014D01*
X13521386Y-14045014D01*
X13492814Y-14059300D01*
X13478528Y-14073586D01*
X13792814Y-14245014D02*
X13764243Y-14230729D01*
X13749957Y-14216443D01*
X13735671Y-14187871D01*
X13735671Y-14102157D01*
X13749957Y-14073586D01*
X13764243Y-14059300D01*
X13792814Y-14045014D01*
X13835671Y-14045014D01*
X13864243Y-14059300D01*
X13878528Y-14073586D01*
X13892814Y-14102157D01*
X13892814Y-14187871D01*
X13878528Y-14216443D01*
X13864243Y-14230729D01*
X13835671Y-14245014D01*
X13792814Y-14245014D01*
X14064243Y-14245014D02*
X14035671Y-14230729D01*
X14021386Y-14202157D01*
X14021386Y-13945014D01*
X14292814Y-14230729D02*
X14264243Y-14245014D01*
X14207100Y-14245014D01*
X14178528Y-14230729D01*
X14164243Y-14202157D01*
X14164243Y-14087871D01*
X14178528Y-14059300D01*
X14207100Y-14045014D01*
X14264243Y-14045014D01*
X14292814Y-14059300D01*
X14307100Y-14087871D01*
X14307100Y-14116443D01*
X14164243Y-14145014D01*
X14421386Y-14230729D02*
X14449957Y-14245014D01*
X14507100Y-14245014D01*
X14535671Y-14230729D01*
X14549957Y-14202157D01*
X14549957Y-14187871D01*
X14535671Y-14159300D01*
X14507100Y-14145014D01*
X14464243Y-14145014D01*
X14435671Y-14130729D01*
X14421386Y-14102157D01*
X14421386Y-14087871D01*
X14435671Y-14059300D01*
X14464243Y-14045014D01*
X14507100Y-14045014D01*
X14535671Y-14059300D01*
X14649957Y-14359300D02*
X14664243Y-14345014D01*
X14692814Y-14302157D01*
X14707100Y-14273586D01*
X14721386Y-14230729D01*
X14735671Y-14159300D01*
X14735671Y-14102157D01*
X14721386Y-14030729D01*
X14707100Y-13987871D01*
X14692814Y-13959300D01*
X14664243Y-13916443D01*
X14649957Y-13902157D01*
X7542100Y-14455300D02*
X7542100Y-14555300D01*
X7492100Y-14505300D02*
X7592100Y-14505300D01*
X8035671Y-14641014D02*
X7864243Y-14641014D01*
X7949957Y-14641014D02*
X7949957Y-14341014D01*
X7921386Y-14383871D01*
X7892814Y-14412443D01*
X7864243Y-14426729D01*
X8164243Y-14612443D02*
X8178528Y-14626729D01*
X8164243Y-14641014D01*
X8149957Y-14626729D01*
X8164243Y-14612443D01*
X8164243Y-14641014D01*
X8364243Y-14341014D02*
X8392814Y-14341014D01*
X8421386Y-14355300D01*
X8435671Y-14369586D01*
X8449957Y-14398157D01*
X8464243Y-14455300D01*
X8464243Y-14526729D01*
X8449957Y-14583871D01*
X8435671Y-14612443D01*
X8421386Y-14626729D01*
X8392814Y-14641014D01*
X8364243Y-14641014D01*
X8335671Y-14626729D01*
X8321386Y-14612443D01*
X8307100Y-14583871D01*
X8292814Y-14526729D01*
X8292814Y-14455300D01*
X8307100Y-14398157D01*
X8321386Y-14369586D01*
X8335671Y-14355300D01*
X8364243Y-14341014D01*
X8649957Y-14341014D02*
X8678528Y-14341014D01*
X8707100Y-14355300D01*
X8721386Y-14369586D01*
X8735671Y-14398157D01*
X8749957Y-14455300D01*
X8749957Y-14526729D01*
X8735671Y-14583871D01*
X8721386Y-14612443D01*
X8707100Y-14626729D01*
X8678528Y-14641014D01*
X8649957Y-14641014D01*
X8621386Y-14626729D01*
X8607100Y-14612443D01*
X8592814Y-14583871D01*
X8578528Y-14526729D01*
X8578528Y-14455300D01*
X8592814Y-14398157D01*
X8607100Y-14369586D01*
X8621386Y-14355300D01*
X8649957Y-14341014D01*
X8878528Y-14641014D02*
X8878528Y-14441014D01*
X8878528Y-14469586D02*
X8892814Y-14455300D01*
X8921386Y-14441014D01*
X8964243Y-14441014D01*
X8992814Y-14455300D01*
X9007100Y-14483871D01*
X9007100Y-14641014D01*
X9007100Y-14483871D02*
X9021386Y-14455300D01*
X9049957Y-14441014D01*
X9092814Y-14441014D01*
X9121386Y-14455300D01*
X9135671Y-14483871D01*
X9135671Y-14641014D01*
X9278528Y-14641014D02*
X9278528Y-14441014D01*
X9278528Y-14469586D02*
X9292814Y-14455300D01*
X9321386Y-14441014D01*
X9364243Y-14441014D01*
X9392814Y-14455300D01*
X9407100Y-14483871D01*
X9407100Y-14641014D01*
X9407100Y-14483871D02*
X9421386Y-14455300D01*
X9449957Y-14441014D01*
X9492814Y-14441014D01*
X9521386Y-14455300D01*
X9535671Y-14483871D01*
X9535671Y-14641014D01*
X10121386Y-14326729D02*
X9864243Y-14712443D01*
X10507100Y-14341014D02*
X10535671Y-14341014D01*
X10564243Y-14355300D01*
X10578528Y-14369586D01*
X10592814Y-14398157D01*
X10607100Y-14455300D01*
X10607100Y-14526729D01*
X10592814Y-14583871D01*
X10578528Y-14612443D01*
X10564243Y-14626729D01*
X10535671Y-14641014D01*
X10507100Y-14641014D01*
X10478528Y-14626729D01*
X10464243Y-14612443D01*
X10449957Y-14583871D01*
X10435671Y-14526729D01*
X10435671Y-14455300D01*
X10449957Y-14398157D01*
X10464243Y-14369586D01*
X10478528Y-14355300D01*
X10507100Y-14341014D01*
X10735671Y-14612443D02*
X10749957Y-14626729D01*
X10735671Y-14641014D01*
X10721386Y-14626729D01*
X10735671Y-14612443D01*
X10735671Y-14641014D01*
X10935671Y-14341014D02*
X10964243Y-14341014D01*
X10992814Y-14355300D01*
X11007100Y-14369586D01*
X11021386Y-14398157D01*
X11035671Y-14455300D01*
X11035671Y-14526729D01*
X11021386Y-14583871D01*
X11007100Y-14612443D01*
X10992814Y-14626729D01*
X10964243Y-14641014D01*
X10935671Y-14641014D01*
X10907100Y-14626729D01*
X10892814Y-14612443D01*
X10878528Y-14583871D01*
X10864243Y-14526729D01*
X10864243Y-14455300D01*
X10878528Y-14398157D01*
X10892814Y-14369586D01*
X10907100Y-14355300D01*
X10935671Y-14341014D01*
X11135671Y-14341014D02*
X11321386Y-14341014D01*
X11221386Y-14455300D01*
X11264243Y-14455300D01*
X11292814Y-14469586D01*
X11307100Y-14483871D01*
X11321386Y-14512443D01*
X11321386Y-14583871D01*
X11307100Y-14612443D01*
X11292814Y-14626729D01*
X11264243Y-14641014D01*
X11178528Y-14641014D01*
X11149957Y-14626729D01*
X11135671Y-14612443D01*
X11464243Y-14641014D02*
X11521386Y-14641014D01*
X11549957Y-14626729D01*
X11564243Y-14612443D01*
X11592814Y-14569586D01*
X11607100Y-14512443D01*
X11607100Y-14398157D01*
X11592814Y-14369586D01*
X11578528Y-14355300D01*
X11549957Y-14341014D01*
X11492814Y-14341014D01*
X11464243Y-14355300D01*
X11449957Y-14369586D01*
X11435671Y-14398157D01*
X11435671Y-14469586D01*
X11449957Y-14498157D01*
X11464243Y-14512443D01*
X11492814Y-14526729D01*
X11549957Y-14526729D01*
X11578528Y-14512443D01*
X11592814Y-14498157D01*
X11607100Y-14469586D01*
X11721386Y-14341014D02*
X11721386Y-14398157D01*
X11835671Y-14341014D02*
X11835671Y-14398157D01*
X12278528Y-14755300D02*
X12264243Y-14741014D01*
X12235671Y-14698157D01*
X12221386Y-14669586D01*
X12207100Y-14626729D01*
X12192814Y-14555300D01*
X12192814Y-14498157D01*
X12207100Y-14426729D01*
X12221386Y-14383871D01*
X12235671Y-14355300D01*
X12264243Y-14312443D01*
X12278528Y-14298157D01*
X12364243Y-14341014D02*
X12549957Y-14341014D01*
X12449957Y-14455300D01*
X12492814Y-14455300D01*
X12521386Y-14469586D01*
X12535671Y-14483871D01*
X12549957Y-14512443D01*
X12549957Y-14583871D01*
X12535671Y-14612443D01*
X12521386Y-14626729D01*
X12492814Y-14641014D01*
X12407100Y-14641014D01*
X12378528Y-14626729D01*
X12364243Y-14612443D01*
X12649957Y-14341014D02*
X12835671Y-14341014D01*
X12735671Y-14455300D01*
X12778528Y-14455300D01*
X12807100Y-14469586D01*
X12821386Y-14483871D01*
X12835671Y-14512443D01*
X12835671Y-14583871D01*
X12821386Y-14612443D01*
X12807100Y-14626729D01*
X12778528Y-14641014D01*
X12692814Y-14641014D01*
X12664243Y-14626729D01*
X12649957Y-14612443D01*
X13192814Y-14641014D02*
X13192814Y-14341014D01*
X13321386Y-14641014D02*
X13321386Y-14483871D01*
X13307100Y-14455300D01*
X13278528Y-14441014D01*
X13235671Y-14441014D01*
X13207100Y-14455300D01*
X13192814Y-14469586D01*
X13507100Y-14641014D02*
X13478528Y-14626729D01*
X13464243Y-14612443D01*
X13449957Y-14583871D01*
X13449957Y-14498157D01*
X13464243Y-14469586D01*
X13478528Y-14455300D01*
X13507100Y-14441014D01*
X13549957Y-14441014D01*
X13578528Y-14455300D01*
X13592814Y-14469586D01*
X13607100Y-14498157D01*
X13607100Y-14583871D01*
X13592814Y-14612443D01*
X13578528Y-14626729D01*
X13549957Y-14641014D01*
X13507100Y-14641014D01*
X13778528Y-14641014D02*
X13749957Y-14626729D01*
X13735671Y-14598157D01*
X13735671Y-14341014D01*
X14007100Y-14626729D02*
X13978528Y-14641014D01*
X13921386Y-14641014D01*
X13892814Y-14626729D01*
X13878528Y-14598157D01*
X13878528Y-14483871D01*
X13892814Y-14455300D01*
X13921386Y-14441014D01*
X13978528Y-14441014D01*
X14007100Y-14455300D01*
X14021386Y-14483871D01*
X14021386Y-14512443D01*
X13878528Y-14541014D01*
X14135671Y-14626729D02*
X14164243Y-14641014D01*
X14221386Y-14641014D01*
X14249957Y-14626729D01*
X14264243Y-14598157D01*
X14264243Y-14583871D01*
X14249957Y-14555300D01*
X14221386Y-14541014D01*
X14178528Y-14541014D01*
X14149957Y-14526729D01*
X14135671Y-14498157D01*
X14135671Y-14483871D01*
X14149957Y-14455300D01*
X14178528Y-14441014D01*
X14221386Y-14441014D01*
X14249957Y-14455300D01*
X14364243Y-14755300D02*
X14378528Y-14741014D01*
X14407100Y-14698157D01*
X14421386Y-14669586D01*
X14435671Y-14626729D01*
X14449957Y-14555300D01*
X14449957Y-14498157D01*
X14435671Y-14426729D01*
X14421386Y-14383871D01*
X14407100Y-14355300D01*
X14378528Y-14312443D01*
X14364243Y-14298157D01*
X7545238Y-15014438D02*
X7545238Y-14788162D01*
X7318962Y-14788162D01*
X7318962Y-15014438D01*
X7545238Y-15014438D01*
X7849957Y-14737014D02*
X8035671Y-14737014D01*
X7935671Y-14851300D01*
X7978528Y-14851300D01*
X8007100Y-14865586D01*
X8021386Y-14879871D01*
X8035671Y-14908443D01*
X8035671Y-14979871D01*
X8021386Y-15008443D01*
X8007100Y-15022729D01*
X7978528Y-15037014D01*
X7892814Y-15037014D01*
X7864243Y-15022729D01*
X7849957Y-15008443D01*
X8164243Y-15008443D02*
X8178528Y-15022729D01*
X8164243Y-15037014D01*
X8149957Y-15022729D01*
X8164243Y-15008443D01*
X8164243Y-15037014D01*
X8292814Y-14765586D02*
X8307100Y-14751300D01*
X8335671Y-14737014D01*
X8407100Y-14737014D01*
X8435671Y-14751300D01*
X8449957Y-14765586D01*
X8464243Y-14794157D01*
X8464243Y-14822729D01*
X8449957Y-14865586D01*
X8278528Y-15037014D01*
X8464243Y-15037014D01*
X8649957Y-14737014D02*
X8678528Y-14737014D01*
X8707100Y-14751300D01*
X8721386Y-14765586D01*
X8735671Y-14794157D01*
X8749957Y-14851300D01*
X8749957Y-14922729D01*
X8735671Y-14979871D01*
X8721386Y-15008443D01*
X8707100Y-15022729D01*
X8678528Y-15037014D01*
X8649957Y-15037014D01*
X8621386Y-15022729D01*
X8607100Y-15008443D01*
X8592814Y-14979871D01*
X8578528Y-14922729D01*
X8578528Y-14851300D01*
X8592814Y-14794157D01*
X8607100Y-14765586D01*
X8621386Y-14751300D01*
X8649957Y-14737014D01*
X8878528Y-15037014D02*
X8878528Y-14837014D01*
X8878528Y-14865586D02*
X8892814Y-14851300D01*
X8921386Y-14837014D01*
X8964243Y-14837014D01*
X8992814Y-14851300D01*
X9007100Y-14879871D01*
X9007100Y-15037014D01*
X9007100Y-14879871D02*
X9021386Y-14851300D01*
X9049957Y-14837014D01*
X9092814Y-14837014D01*
X9121386Y-14851300D01*
X9135671Y-14879871D01*
X9135671Y-15037014D01*
X9278528Y-15037014D02*
X9278528Y-14837014D01*
X9278528Y-14865586D02*
X9292814Y-14851300D01*
X9321386Y-14837014D01*
X9364243Y-14837014D01*
X9392814Y-14851300D01*
X9407100Y-14879871D01*
X9407100Y-15037014D01*
X9407100Y-14879871D02*
X9421386Y-14851300D01*
X9449957Y-14837014D01*
X9492814Y-14837014D01*
X9521386Y-14851300D01*
X9535671Y-14879871D01*
X9535671Y-15037014D01*
X10121386Y-14722729D02*
X9864243Y-15108443D01*
X10507100Y-14737014D02*
X10535671Y-14737014D01*
X10564243Y-14751300D01*
X10578528Y-14765586D01*
X10592814Y-14794157D01*
X10607100Y-14851300D01*
X10607100Y-14922729D01*
X10592814Y-14979871D01*
X10578528Y-15008443D01*
X10564243Y-15022729D01*
X10535671Y-15037014D01*
X10507100Y-15037014D01*
X10478528Y-15022729D01*
X10464243Y-15008443D01*
X10449957Y-14979871D01*
X10435671Y-14922729D01*
X10435671Y-14851300D01*
X10449957Y-14794157D01*
X10464243Y-14765586D01*
X10478528Y-14751300D01*
X10507100Y-14737014D01*
X10735671Y-15008443D02*
X10749957Y-15022729D01*
X10735671Y-15037014D01*
X10721386Y-15022729D01*
X10735671Y-15008443D01*
X10735671Y-15037014D01*
X11035671Y-15037014D02*
X10864243Y-15037014D01*
X10949957Y-15037014D02*
X10949957Y-14737014D01*
X10921386Y-14779871D01*
X10892814Y-14808443D01*
X10864243Y-14822729D01*
X11149957Y-14765586D02*
X11164243Y-14751300D01*
X11192814Y-14737014D01*
X11264243Y-14737014D01*
X11292814Y-14751300D01*
X11307100Y-14765586D01*
X11321386Y-14794157D01*
X11321386Y-14822729D01*
X11307100Y-14865586D01*
X11135671Y-15037014D01*
X11321386Y-15037014D01*
X11578528Y-14737014D02*
X11521386Y-14737014D01*
X11492814Y-14751300D01*
X11478528Y-14765586D01*
X11449957Y-14808443D01*
X11435671Y-14865586D01*
X11435671Y-14979871D01*
X11449957Y-15008443D01*
X11464243Y-15022729D01*
X11492814Y-15037014D01*
X11549957Y-15037014D01*
X11578528Y-15022729D01*
X11592814Y-15008443D01*
X11607100Y-14979871D01*
X11607100Y-14908443D01*
X11592814Y-14879871D01*
X11578528Y-14865586D01*
X11549957Y-14851300D01*
X11492814Y-14851300D01*
X11464243Y-14865586D01*
X11449957Y-14879871D01*
X11435671Y-14908443D01*
X11721386Y-14737014D02*
X11721386Y-14794157D01*
X11835671Y-14737014D02*
X11835671Y-14794157D01*
X12278528Y-15151300D02*
X12264243Y-15137014D01*
X12235671Y-15094157D01*
X12221386Y-15065586D01*
X12207100Y-15022729D01*
X12192814Y-14951300D01*
X12192814Y-14894157D01*
X12207100Y-14822729D01*
X12221386Y-14779871D01*
X12235671Y-14751300D01*
X12264243Y-14708443D01*
X12278528Y-14694157D01*
X12521386Y-14837014D02*
X12521386Y-15037014D01*
X12449957Y-14722729D02*
X12378528Y-14937014D01*
X12564243Y-14937014D01*
X12907100Y-15037014D02*
X12907100Y-14737014D01*
X13035671Y-15037014D02*
X13035671Y-14879871D01*
X13021386Y-14851300D01*
X12992814Y-14837014D01*
X12949957Y-14837014D01*
X12921386Y-14851300D01*
X12907100Y-14865586D01*
X13221386Y-15037014D02*
X13192814Y-15022729D01*
X13178528Y-15008443D01*
X13164243Y-14979871D01*
X13164243Y-14894157D01*
X13178528Y-14865586D01*
X13192814Y-14851300D01*
X13221386Y-14837014D01*
X13264243Y-14837014D01*
X13292814Y-14851300D01*
X13307100Y-14865586D01*
X13321386Y-14894157D01*
X13321386Y-14979871D01*
X13307100Y-15008443D01*
X13292814Y-15022729D01*
X13264243Y-15037014D01*
X13221386Y-15037014D01*
X13492814Y-15037014D02*
X13464243Y-15022729D01*
X13449957Y-14994157D01*
X13449957Y-14737014D01*
X13721386Y-15022729D02*
X13692814Y-15037014D01*
X13635671Y-15037014D01*
X13607100Y-15022729D01*
X13592814Y-14994157D01*
X13592814Y-14879871D01*
X13607100Y-14851300D01*
X13635671Y-14837014D01*
X13692814Y-14837014D01*
X13721386Y-14851300D01*
X13735671Y-14879871D01*
X13735671Y-14908443D01*
X13592814Y-14937014D01*
X13849957Y-15022729D02*
X13878528Y-15037014D01*
X13935671Y-15037014D01*
X13964243Y-15022729D01*
X13978528Y-14994157D01*
X13978528Y-14979871D01*
X13964243Y-14951300D01*
X13935671Y-14937014D01*
X13892814Y-14937014D01*
X13864243Y-14922729D01*
X13849957Y-14894157D01*
X13849957Y-14879871D01*
X13864243Y-14851300D01*
X13892814Y-14837014D01*
X13935671Y-14837014D01*
X13964243Y-14851300D01*
X14078528Y-15151300D02*
X14092814Y-15137014D01*
X14121386Y-15094157D01*
X14135671Y-15065586D01*
X14149957Y-15022729D01*
X14164243Y-14951300D01*
X14164243Y-14894157D01*
X14149957Y-14822729D01*
X14135671Y-14779871D01*
X14121386Y-14751300D01*
X14092814Y-14708443D01*
X14078528Y-14694157D01*
M02*
