G04 #@! TF.GenerationSoftware,KiCad,Pcbnew,(5.1.9-0-10_14)*
G04 #@! TF.CreationDate,2021-06-10T12:38:53+02:00*
G04 #@! TF.ProjectId,video_memory,76696465-6f5f-46d6-956d-6f72792e6b69,rev?*
G04 #@! TF.SameCoordinates,Original*
G04 #@! TF.FileFunction,Copper,L1,Top*
G04 #@! TF.FilePolarity,Positive*
%FSLAX46Y46*%
G04 Gerber Fmt 4.6, Leading zero omitted, Abs format (unit mm)*
G04 Created by KiCad (PCBNEW (5.1.9-0-10_14)) date 2021-06-10 12:38:53*
%MOMM*%
%LPD*%
G01*
G04 APERTURE LIST*
G04 #@! TA.AperFunction,ComponentPad*
%ADD10O,1.600000X1.600000*%
G04 #@! TD*
G04 #@! TA.AperFunction,ComponentPad*
%ADD11R,1.600000X1.600000*%
G04 #@! TD*
G04 #@! TA.AperFunction,ComponentPad*
%ADD12C,6.400000*%
G04 #@! TD*
G04 #@! TA.AperFunction,ComponentPad*
%ADD13O,1.700000X1.700000*%
G04 #@! TD*
G04 #@! TA.AperFunction,ComponentPad*
%ADD14R,1.700000X1.700000*%
G04 #@! TD*
G04 #@! TA.AperFunction,ViaPad*
%ADD15C,0.800000*%
G04 #@! TD*
G04 #@! TA.AperFunction,Conductor*
%ADD16C,0.203200*%
G04 #@! TD*
G04 APERTURE END LIST*
D10*
X96266000Y-85905000D03*
X88646000Y-118925000D03*
X96266000Y-88445000D03*
X88646000Y-116385000D03*
X96266000Y-90985000D03*
X88646000Y-113845000D03*
X96266000Y-93525000D03*
X88646000Y-111305000D03*
X96266000Y-96065000D03*
X88646000Y-108765000D03*
X96266000Y-98605000D03*
X88646000Y-106225000D03*
X96266000Y-101145000D03*
X88646000Y-103685000D03*
X96266000Y-103685000D03*
X88646000Y-101145000D03*
X96266000Y-106225000D03*
X88646000Y-98605000D03*
X96266000Y-108765000D03*
X88646000Y-96065000D03*
X96266000Y-111305000D03*
X88646000Y-93525000D03*
X96266000Y-113845000D03*
X88646000Y-90985000D03*
X96266000Y-116385000D03*
X88646000Y-88445000D03*
X96266000Y-118925000D03*
D11*
X88646000Y-85905000D03*
D10*
X85344000Y-93472000D03*
X77724000Y-111252000D03*
X85344000Y-96012000D03*
X77724000Y-108712000D03*
X85344000Y-98552000D03*
X77724000Y-106172000D03*
X85344000Y-101092000D03*
X77724000Y-103632000D03*
X85344000Y-103632000D03*
X77724000Y-101092000D03*
X85344000Y-106172000D03*
X77724000Y-98552000D03*
X85344000Y-108712000D03*
X77724000Y-96012000D03*
X85344000Y-111252000D03*
D11*
X77724000Y-93472000D03*
D12*
X177546000Y-123444000D03*
X177546000Y-86360000D03*
X80010000Y-123444000D03*
X80010000Y-86360000D03*
D10*
X172720000Y-85905000D03*
X165100000Y-118925000D03*
X172720000Y-88445000D03*
X165100000Y-116385000D03*
X172720000Y-90985000D03*
X165100000Y-113845000D03*
X172720000Y-93525000D03*
X165100000Y-111305000D03*
X172720000Y-96065000D03*
X165100000Y-108765000D03*
X172720000Y-98605000D03*
X165100000Y-106225000D03*
X172720000Y-101145000D03*
X165100000Y-103685000D03*
X172720000Y-103685000D03*
X165100000Y-101145000D03*
X172720000Y-106225000D03*
X165100000Y-98605000D03*
X172720000Y-108765000D03*
X165100000Y-96065000D03*
X172720000Y-111305000D03*
X165100000Y-93525000D03*
X172720000Y-113845000D03*
X165100000Y-90985000D03*
X172720000Y-116385000D03*
X165100000Y-88445000D03*
X172720000Y-118925000D03*
D11*
X165100000Y-85905000D03*
D10*
X161798000Y-85905000D03*
X154178000Y-118925000D03*
X161798000Y-88445000D03*
X154178000Y-116385000D03*
X161798000Y-90985000D03*
X154178000Y-113845000D03*
X161798000Y-93525000D03*
X154178000Y-111305000D03*
X161798000Y-96065000D03*
X154178000Y-108765000D03*
X161798000Y-98605000D03*
X154178000Y-106225000D03*
X161798000Y-101145000D03*
X154178000Y-103685000D03*
X161798000Y-103685000D03*
X154178000Y-101145000D03*
X161798000Y-106225000D03*
X154178000Y-98605000D03*
X161798000Y-108765000D03*
X154178000Y-96065000D03*
X161798000Y-111305000D03*
X154178000Y-93525000D03*
X161798000Y-113845000D03*
X154178000Y-90985000D03*
X161798000Y-116385000D03*
X154178000Y-88445000D03*
X161798000Y-118925000D03*
D11*
X154178000Y-85905000D03*
D10*
X150876000Y-85905000D03*
X143256000Y-118925000D03*
X150876000Y-88445000D03*
X143256000Y-116385000D03*
X150876000Y-90985000D03*
X143256000Y-113845000D03*
X150876000Y-93525000D03*
X143256000Y-111305000D03*
X150876000Y-96065000D03*
X143256000Y-108765000D03*
X150876000Y-98605000D03*
X143256000Y-106225000D03*
X150876000Y-101145000D03*
X143256000Y-103685000D03*
X150876000Y-103685000D03*
X143256000Y-101145000D03*
X150876000Y-106225000D03*
X143256000Y-98605000D03*
X150876000Y-108765000D03*
X143256000Y-96065000D03*
X150876000Y-111305000D03*
X143256000Y-93525000D03*
X150876000Y-113845000D03*
X143256000Y-90985000D03*
X150876000Y-116385000D03*
X143256000Y-88445000D03*
X150876000Y-118925000D03*
D11*
X143256000Y-85905000D03*
D10*
X139954000Y-85905000D03*
X132334000Y-118925000D03*
X139954000Y-88445000D03*
X132334000Y-116385000D03*
X139954000Y-90985000D03*
X132334000Y-113845000D03*
X139954000Y-93525000D03*
X132334000Y-111305000D03*
X139954000Y-96065000D03*
X132334000Y-108765000D03*
X139954000Y-98605000D03*
X132334000Y-106225000D03*
X139954000Y-101145000D03*
X132334000Y-103685000D03*
X139954000Y-103685000D03*
X132334000Y-101145000D03*
X139954000Y-106225000D03*
X132334000Y-98605000D03*
X139954000Y-108765000D03*
X132334000Y-96065000D03*
X139954000Y-111305000D03*
X132334000Y-93525000D03*
X139954000Y-113845000D03*
X132334000Y-90985000D03*
X139954000Y-116385000D03*
X132334000Y-88445000D03*
X139954000Y-118925000D03*
D11*
X132334000Y-85905000D03*
D10*
X129032000Y-85905000D03*
X121412000Y-118925000D03*
X129032000Y-88445000D03*
X121412000Y-116385000D03*
X129032000Y-90985000D03*
X121412000Y-113845000D03*
X129032000Y-93525000D03*
X121412000Y-111305000D03*
X129032000Y-96065000D03*
X121412000Y-108765000D03*
X129032000Y-98605000D03*
X121412000Y-106225000D03*
X129032000Y-101145000D03*
X121412000Y-103685000D03*
X129032000Y-103685000D03*
X121412000Y-101145000D03*
X129032000Y-106225000D03*
X121412000Y-98605000D03*
X129032000Y-108765000D03*
X121412000Y-96065000D03*
X129032000Y-111305000D03*
X121412000Y-93525000D03*
X129032000Y-113845000D03*
X121412000Y-90985000D03*
X129032000Y-116385000D03*
X121412000Y-88445000D03*
X129032000Y-118925000D03*
D11*
X121412000Y-85905000D03*
D10*
X118110000Y-85905000D03*
X110490000Y-118925000D03*
X118110000Y-88445000D03*
X110490000Y-116385000D03*
X118110000Y-90985000D03*
X110490000Y-113845000D03*
X118110000Y-93525000D03*
X110490000Y-111305000D03*
X118110000Y-96065000D03*
X110490000Y-108765000D03*
X118110000Y-98605000D03*
X110490000Y-106225000D03*
X118110000Y-101145000D03*
X110490000Y-103685000D03*
X118110000Y-103685000D03*
X110490000Y-101145000D03*
X118110000Y-106225000D03*
X110490000Y-98605000D03*
X118110000Y-108765000D03*
X110490000Y-96065000D03*
X118110000Y-111305000D03*
X110490000Y-93525000D03*
X118110000Y-113845000D03*
X110490000Y-90985000D03*
X118110000Y-116385000D03*
X110490000Y-88445000D03*
X118110000Y-118925000D03*
D11*
X110490000Y-85905000D03*
D10*
X107188000Y-85905000D03*
X99568000Y-118925000D03*
X107188000Y-88445000D03*
X99568000Y-116385000D03*
X107188000Y-90985000D03*
X99568000Y-113845000D03*
X107188000Y-93525000D03*
X99568000Y-111305000D03*
X107188000Y-96065000D03*
X99568000Y-108765000D03*
X107188000Y-98605000D03*
X99568000Y-106225000D03*
X107188000Y-101145000D03*
X99568000Y-103685000D03*
X107188000Y-103685000D03*
X99568000Y-101145000D03*
X107188000Y-106225000D03*
X99568000Y-98605000D03*
X107188000Y-108765000D03*
X99568000Y-96065000D03*
X107188000Y-111305000D03*
X99568000Y-93525000D03*
X107188000Y-113845000D03*
X99568000Y-90985000D03*
X107188000Y-116385000D03*
X99568000Y-88445000D03*
X107188000Y-118925000D03*
D11*
X99568000Y-85905000D03*
D13*
X169926000Y-125730000D03*
X167386000Y-125730000D03*
X164846000Y-125730000D03*
X162306000Y-125730000D03*
X159766000Y-125730000D03*
X157226000Y-125730000D03*
X154686000Y-125730000D03*
X152146000Y-125730000D03*
X149606000Y-125730000D03*
X147066000Y-125730000D03*
X144526000Y-125730000D03*
X141986000Y-125730000D03*
X139446000Y-125730000D03*
X136906000Y-125730000D03*
X134366000Y-125730000D03*
X131826000Y-125730000D03*
X129286000Y-125730000D03*
X126746000Y-125730000D03*
X124206000Y-125730000D03*
X121666000Y-125730000D03*
X119126000Y-125730000D03*
X116586000Y-125730000D03*
X114046000Y-125730000D03*
X111506000Y-125730000D03*
X108966000Y-125730000D03*
X106426000Y-125730000D03*
X103886000Y-125730000D03*
X101346000Y-125730000D03*
X98806000Y-125730000D03*
X96266000Y-125730000D03*
X93726000Y-125730000D03*
X91186000Y-125730000D03*
D14*
X88646000Y-125730000D03*
D15*
X91186000Y-103886000D03*
D16*
X98539399Y-110276399D02*
X99568000Y-111305000D01*
X89674601Y-110276399D02*
X98539399Y-110276399D01*
X88646000Y-111305000D02*
X89674601Y-110276399D01*
X109461399Y-110276399D02*
X110490000Y-111305000D01*
X100596601Y-110276399D02*
X109461399Y-110276399D01*
X99568000Y-111305000D02*
X100596601Y-110276399D01*
X120383399Y-110276399D02*
X121412000Y-111305000D01*
X111518601Y-110276399D02*
X120383399Y-110276399D01*
X110490000Y-111305000D02*
X111518601Y-110276399D01*
X131305399Y-110276399D02*
X132334000Y-111305000D01*
X122440601Y-110276399D02*
X131305399Y-110276399D01*
X121412000Y-111305000D02*
X122440601Y-110276399D01*
X133362601Y-110276399D02*
X142227399Y-110276399D01*
X142227399Y-110276399D02*
X143256000Y-111305000D01*
X132334000Y-111305000D02*
X133362601Y-110276399D01*
X153149399Y-110276399D02*
X154178000Y-111305000D01*
X144284601Y-110276399D02*
X153149399Y-110276399D01*
X143256000Y-111305000D02*
X144284601Y-110276399D01*
X164071399Y-110276399D02*
X165100000Y-111305000D01*
X155206601Y-110276399D02*
X164071399Y-110276399D01*
X154178000Y-111305000D02*
X155206601Y-110276399D01*
X98539399Y-112816399D02*
X99568000Y-113845000D01*
X89674601Y-112816399D02*
X98539399Y-112816399D01*
X88646000Y-113845000D02*
X89674601Y-112816399D01*
X109461399Y-112816399D02*
X110490000Y-113845000D01*
X100596601Y-112816399D02*
X109461399Y-112816399D01*
X99568000Y-113845000D02*
X100596601Y-112816399D01*
X120383399Y-112816399D02*
X121412000Y-113845000D01*
X111518601Y-112816399D02*
X120383399Y-112816399D01*
X110490000Y-113845000D02*
X111518601Y-112816399D01*
X131305399Y-112816399D02*
X132334000Y-113845000D01*
X122440601Y-112816399D02*
X131305399Y-112816399D01*
X121412000Y-113845000D02*
X122440601Y-112816399D01*
X142227399Y-112816399D02*
X143256000Y-113845000D01*
X133362601Y-112816399D02*
X142227399Y-112816399D01*
X132334000Y-113845000D02*
X133362601Y-112816399D01*
X153149399Y-112816399D02*
X154178000Y-113845000D01*
X144284601Y-112816399D02*
X153149399Y-112816399D01*
X143256000Y-113845000D02*
X144284601Y-112816399D01*
X164071399Y-112816399D02*
X165100000Y-113845000D01*
X155206601Y-112816399D02*
X164071399Y-112816399D01*
X154178000Y-113845000D02*
X155206601Y-112816399D01*
X98539399Y-115356399D02*
X99568000Y-116385000D01*
X89674601Y-115356399D02*
X98539399Y-115356399D01*
X88646000Y-116385000D02*
X89674601Y-115356399D01*
X109461399Y-115356399D02*
X110490000Y-116385000D01*
X100596601Y-115356399D02*
X109461399Y-115356399D01*
X99568000Y-116385000D02*
X100596601Y-115356399D01*
X120383399Y-115356399D02*
X121412000Y-116385000D01*
X111518601Y-115356399D02*
X120383399Y-115356399D01*
X110490000Y-116385000D02*
X111518601Y-115356399D01*
X131305399Y-115356399D02*
X132334000Y-116385000D01*
X122440601Y-115356399D02*
X131305399Y-115356399D01*
X121412000Y-116385000D02*
X122440601Y-115356399D01*
X142227399Y-115356399D02*
X143256000Y-116385000D01*
X133362601Y-115356399D02*
X142227399Y-115356399D01*
X132334000Y-116385000D02*
X133362601Y-115356399D01*
X153149399Y-115356399D02*
X154178000Y-116385000D01*
X144284601Y-115356399D02*
X153149399Y-115356399D01*
X143256000Y-116385000D02*
X144284601Y-115356399D01*
X164071399Y-115356399D02*
X165100000Y-116385000D01*
X155206601Y-115356399D02*
X164071399Y-115356399D01*
X154178000Y-116385000D02*
X155206601Y-115356399D01*
X116954399Y-120080601D02*
X118110000Y-118925000D01*
X108343601Y-120080601D02*
X116954399Y-120080601D01*
X107188000Y-118925000D02*
X108343601Y-120080601D01*
X138798399Y-120080601D02*
X139954000Y-118925000D01*
X130187601Y-120080601D02*
X138798399Y-120080601D01*
X129032000Y-118925000D02*
X130187601Y-120080601D01*
X149720399Y-120080601D02*
X150876000Y-118925000D01*
X141109601Y-120080601D02*
X149720399Y-120080601D01*
X139954000Y-118925000D02*
X141109601Y-120080601D01*
X119265601Y-120080601D02*
X118110000Y-118925000D01*
X127876399Y-120080601D02*
X119265601Y-120080601D01*
X129032000Y-118925000D02*
X127876399Y-120080601D01*
X160642399Y-120080601D02*
X161798000Y-118925000D01*
X152031601Y-120080601D02*
X160642399Y-120080601D01*
X150876000Y-118925000D02*
X152031601Y-120080601D01*
X171564399Y-120080601D02*
X172720000Y-118925000D01*
X162953601Y-120080601D02*
X171564399Y-120080601D01*
X161798000Y-118925000D02*
X162953601Y-120080601D01*
X106388001Y-119724999D02*
X107188000Y-118925000D01*
X97857710Y-118925000D02*
X99013311Y-120080601D01*
X99013311Y-120080601D02*
X106032399Y-120080601D01*
X96266000Y-118925000D02*
X97857710Y-118925000D01*
X106032399Y-120080601D02*
X106388001Y-119724999D01*
X105803601Y-117769399D02*
X107188000Y-116385000D01*
X97650399Y-117769399D02*
X105803601Y-117769399D01*
X96266000Y-116385000D02*
X97650399Y-117769399D01*
X117081399Y-117413601D02*
X118110000Y-116385000D01*
X108216601Y-117413601D02*
X117081399Y-117413601D01*
X107188000Y-116385000D02*
X108216601Y-117413601D01*
X138925399Y-117413601D02*
X139954000Y-116385000D01*
X130060601Y-117413601D02*
X138925399Y-117413601D01*
X129032000Y-116385000D02*
X130060601Y-117413601D01*
X140982601Y-117413601D02*
X149847399Y-117413601D01*
X149847399Y-117413601D02*
X150876000Y-116385000D01*
X139954000Y-116385000D02*
X140982601Y-117413601D01*
X128003399Y-117413601D02*
X129032000Y-116385000D01*
X119138601Y-117413601D02*
X128003399Y-117413601D01*
X118110000Y-116385000D02*
X119138601Y-117413601D01*
X160769399Y-117413601D02*
X161798000Y-116385000D01*
X151904601Y-117413601D02*
X160769399Y-117413601D01*
X150876000Y-116385000D02*
X151904601Y-117413601D01*
X171691399Y-117413601D02*
X172720000Y-116385000D01*
X162826601Y-117413601D02*
X171691399Y-117413601D01*
X161798000Y-116385000D02*
X162826601Y-117413601D01*
X106159399Y-114873601D02*
X107188000Y-113845000D01*
X97294601Y-114873601D02*
X106159399Y-114873601D01*
X96266000Y-113845000D02*
X97294601Y-114873601D01*
X117081399Y-114873601D02*
X118110000Y-113845000D01*
X108216601Y-114873601D02*
X117081399Y-114873601D01*
X107188000Y-113845000D02*
X108216601Y-114873601D01*
X138925399Y-114873601D02*
X139954000Y-113845000D01*
X130060601Y-114873601D02*
X138925399Y-114873601D01*
X129032000Y-113845000D02*
X130060601Y-114873601D01*
X140982601Y-114873601D02*
X149847399Y-114873601D01*
X149847399Y-114873601D02*
X150876000Y-113845000D01*
X139954000Y-113845000D02*
X140982601Y-114873601D01*
X128003399Y-114873601D02*
X129032000Y-113845000D01*
X119138601Y-114873601D02*
X128003399Y-114873601D01*
X118110000Y-113845000D02*
X119138601Y-114873601D01*
X160769399Y-114873601D02*
X161798000Y-113845000D01*
X151904601Y-114873601D02*
X160769399Y-114873601D01*
X150876000Y-113845000D02*
X151904601Y-114873601D01*
X171691399Y-114873601D02*
X172720000Y-113845000D01*
X162826601Y-114873601D02*
X171691399Y-114873601D01*
X161798000Y-113845000D02*
X162826601Y-114873601D01*
X106159399Y-112333601D02*
X107188000Y-111305000D01*
X97294601Y-112333601D02*
X106159399Y-112333601D01*
X96266000Y-111305000D02*
X97294601Y-112333601D01*
X108216601Y-112333601D02*
X117081399Y-112333601D01*
X117081399Y-112333601D02*
X118110000Y-111305000D01*
X107188000Y-111305000D02*
X108216601Y-112333601D01*
X138925399Y-112333601D02*
X139954000Y-111305000D01*
X130060601Y-112333601D02*
X138925399Y-112333601D01*
X129032000Y-111305000D02*
X130060601Y-112333601D01*
X149847399Y-112333601D02*
X150876000Y-111305000D01*
X140982601Y-112333601D02*
X149847399Y-112333601D01*
X139954000Y-111305000D02*
X140982601Y-112333601D01*
X119138601Y-112333601D02*
X128003399Y-112333601D01*
X128003399Y-112333601D02*
X129032000Y-111305000D01*
X118110000Y-111305000D02*
X119138601Y-112333601D01*
X160769399Y-112333601D02*
X161798000Y-111305000D01*
X151904601Y-112333601D02*
X160769399Y-112333601D01*
X150876000Y-111305000D02*
X151904601Y-112333601D01*
X171691399Y-112333601D02*
X172720000Y-111305000D01*
X162826601Y-112333601D02*
X171691399Y-112333601D01*
X161798000Y-111305000D02*
X162826601Y-112333601D01*
X106159399Y-109793601D02*
X107188000Y-108765000D01*
X97294601Y-109793601D02*
X106159399Y-109793601D01*
X96266000Y-108765000D02*
X97294601Y-109793601D01*
X117081399Y-109793601D02*
X118110000Y-108765000D01*
X108216601Y-109793601D02*
X117081399Y-109793601D01*
X107188000Y-108765000D02*
X108216601Y-109793601D01*
X130060601Y-109793601D02*
X138925399Y-109793601D01*
X138925399Y-109793601D02*
X139954000Y-108765000D01*
X129032000Y-108765000D02*
X130060601Y-109793601D01*
X149847399Y-109793601D02*
X150876000Y-108765000D01*
X140982601Y-109793601D02*
X149847399Y-109793601D01*
X139954000Y-108765000D02*
X140982601Y-109793601D01*
X128003399Y-109793601D02*
X129032000Y-108765000D01*
X119138601Y-109793601D02*
X128003399Y-109793601D01*
X118110000Y-108765000D02*
X119138601Y-109793601D01*
X160769399Y-109793601D02*
X161798000Y-108765000D01*
X151904601Y-109793601D02*
X160769399Y-109793601D01*
X150876000Y-108765000D02*
X151904601Y-109793601D01*
X171691399Y-109793601D02*
X172720000Y-108765000D01*
X162826601Y-109793601D02*
X171691399Y-109793601D01*
X161798000Y-108765000D02*
X162826601Y-109793601D01*
X98539399Y-107736399D02*
X99568000Y-108765000D01*
X89674601Y-107736399D02*
X98539399Y-107736399D01*
X88646000Y-108765000D02*
X89674601Y-107736399D01*
X109461399Y-107736399D02*
X110490000Y-108765000D01*
X100596601Y-107736399D02*
X109461399Y-107736399D01*
X99568000Y-108765000D02*
X100596601Y-107736399D01*
X111518601Y-107736399D02*
X120383399Y-107736399D01*
X120383399Y-107736399D02*
X121412000Y-108765000D01*
X110490000Y-108765000D02*
X111518601Y-107736399D01*
X131305399Y-107736399D02*
X132334000Y-108765000D01*
X122440601Y-107736399D02*
X131305399Y-107736399D01*
X121412000Y-108765000D02*
X122440601Y-107736399D01*
X142227399Y-107736399D02*
X143256000Y-108765000D01*
X133362601Y-107736399D02*
X142227399Y-107736399D01*
X132334000Y-108765000D02*
X133362601Y-107736399D01*
X144284601Y-107736399D02*
X153149399Y-107736399D01*
X153149399Y-107736399D02*
X154178000Y-108765000D01*
X143256000Y-108765000D02*
X144284601Y-107736399D01*
X155206601Y-107736399D02*
X164071399Y-107736399D01*
X164071399Y-107736399D02*
X165100000Y-108765000D01*
X154178000Y-108765000D02*
X155206601Y-107736399D01*
X98539399Y-105196399D02*
X99568000Y-106225000D01*
X89674601Y-105196399D02*
X98539399Y-105196399D01*
X88646000Y-106225000D02*
X89674601Y-105196399D01*
X109461399Y-105196399D02*
X110490000Y-106225000D01*
X100596601Y-105196399D02*
X109461399Y-105196399D01*
X99568000Y-106225000D02*
X100596601Y-105196399D01*
X120383399Y-105196399D02*
X121412000Y-106225000D01*
X111518601Y-105196399D02*
X120383399Y-105196399D01*
X110490000Y-106225000D02*
X111518601Y-105196399D01*
X131305399Y-105196399D02*
X132334000Y-106225000D01*
X122440601Y-105196399D02*
X131305399Y-105196399D01*
X121412000Y-106225000D02*
X122440601Y-105196399D01*
X142227399Y-105196399D02*
X143256000Y-106225000D01*
X133362601Y-105196399D02*
X142227399Y-105196399D01*
X132334000Y-106225000D02*
X133362601Y-105196399D01*
X153149399Y-105196399D02*
X154178000Y-106225000D01*
X144284601Y-105196399D02*
X153149399Y-105196399D01*
X143256000Y-106225000D02*
X144284601Y-105196399D01*
X164071399Y-105196399D02*
X165100000Y-106225000D01*
X155206601Y-105196399D02*
X164071399Y-105196399D01*
X154178000Y-106225000D02*
X155206601Y-105196399D01*
X109461399Y-102656399D02*
X110490000Y-103685000D01*
X100596601Y-102656399D02*
X109461399Y-102656399D01*
X99568000Y-103685000D02*
X100596601Y-102656399D01*
X120383399Y-102656399D02*
X121412000Y-103685000D01*
X111518601Y-102656399D02*
X120383399Y-102656399D01*
X110490000Y-103685000D02*
X111518601Y-102656399D01*
X131305399Y-102656399D02*
X132334000Y-103685000D01*
X122440601Y-102656399D02*
X131305399Y-102656399D01*
X121412000Y-103685000D02*
X122440601Y-102656399D01*
X133362601Y-102656399D02*
X142227399Y-102656399D01*
X142227399Y-102656399D02*
X143256000Y-103685000D01*
X132334000Y-103685000D02*
X133362601Y-102656399D01*
X153149399Y-102656399D02*
X154178000Y-103685000D01*
X144284601Y-102656399D02*
X153149399Y-102656399D01*
X143256000Y-103685000D02*
X144284601Y-102656399D01*
X164071399Y-102656399D02*
X165100000Y-103685000D01*
X155206601Y-102656399D02*
X164071399Y-102656399D01*
X154178000Y-103685000D02*
X155206601Y-102656399D01*
X98539399Y-102656399D02*
X99568000Y-103685000D01*
X89674601Y-102656399D02*
X98539399Y-102656399D01*
X88646000Y-103685000D02*
X89674601Y-102656399D01*
X98539399Y-100116399D02*
X99568000Y-101145000D01*
X89674601Y-100116399D02*
X98539399Y-100116399D01*
X88646000Y-101145000D02*
X89674601Y-100116399D01*
X109461399Y-100116399D02*
X110490000Y-101145000D01*
X100596601Y-100116399D02*
X109461399Y-100116399D01*
X99568000Y-101145000D02*
X100596601Y-100116399D01*
X111518601Y-100116399D02*
X120383399Y-100116399D01*
X120383399Y-100116399D02*
X121412000Y-101145000D01*
X110490000Y-101145000D02*
X111518601Y-100116399D01*
X122440601Y-100116399D02*
X131305399Y-100116399D01*
X131305399Y-100116399D02*
X132334000Y-101145000D01*
X121412000Y-101145000D02*
X122440601Y-100116399D01*
X142227399Y-100116399D02*
X143256000Y-101145000D01*
X133362601Y-100116399D02*
X142227399Y-100116399D01*
X132334000Y-101145000D02*
X133362601Y-100116399D01*
X153149399Y-100116399D02*
X154178000Y-101145000D01*
X144284601Y-100116399D02*
X153149399Y-100116399D01*
X143256000Y-101145000D02*
X144284601Y-100116399D01*
X164071399Y-100116399D02*
X165100000Y-101145000D01*
X155206601Y-100116399D02*
X164071399Y-100116399D01*
X154178000Y-101145000D02*
X155206601Y-100116399D01*
X98539399Y-97576399D02*
X99568000Y-98605000D01*
X89674601Y-97576399D02*
X98539399Y-97576399D01*
X88646000Y-98605000D02*
X89674601Y-97576399D01*
X100596601Y-97576399D02*
X109461399Y-97576399D01*
X109461399Y-97576399D02*
X110490000Y-98605000D01*
X99568000Y-98605000D02*
X100596601Y-97576399D01*
X120383399Y-97576399D02*
X121412000Y-98605000D01*
X111518601Y-97576399D02*
X120383399Y-97576399D01*
X110490000Y-98605000D02*
X111518601Y-97576399D01*
X122440601Y-97576399D02*
X131305399Y-97576399D01*
X131305399Y-97576399D02*
X132334000Y-98605000D01*
X121412000Y-98605000D02*
X122440601Y-97576399D01*
X142227399Y-97576399D02*
X143256000Y-98605000D01*
X133362601Y-97576399D02*
X142227399Y-97576399D01*
X132334000Y-98605000D02*
X133362601Y-97576399D01*
X153149399Y-97576399D02*
X154178000Y-98605000D01*
X144284601Y-97576399D02*
X153149399Y-97576399D01*
X143256000Y-98605000D02*
X144284601Y-97576399D01*
X164071399Y-97576399D02*
X165100000Y-98605000D01*
X155206601Y-97576399D02*
X164071399Y-97576399D01*
X154178000Y-98605000D02*
X155206601Y-97576399D01*
X98539399Y-95036399D02*
X99568000Y-96065000D01*
X89674601Y-95036399D02*
X98539399Y-95036399D01*
X88646000Y-96065000D02*
X89674601Y-95036399D01*
X109461399Y-95036399D02*
X110490000Y-96065000D01*
X100596601Y-95036399D02*
X109461399Y-95036399D01*
X99568000Y-96065000D02*
X100596601Y-95036399D01*
X120383399Y-95036399D02*
X121412000Y-96065000D01*
X111518601Y-95036399D02*
X120383399Y-95036399D01*
X110490000Y-96065000D02*
X111518601Y-95036399D01*
X131305399Y-95036399D02*
X132334000Y-96065000D01*
X122440601Y-95036399D02*
X131305399Y-95036399D01*
X121412000Y-96065000D02*
X122440601Y-95036399D01*
X142227399Y-95036399D02*
X143256000Y-96065000D01*
X133362601Y-95036399D02*
X142227399Y-95036399D01*
X132334000Y-96065000D02*
X133362601Y-95036399D01*
X153149399Y-95036399D02*
X154178000Y-96065000D01*
X144284601Y-95036399D02*
X153149399Y-95036399D01*
X143256000Y-96065000D02*
X144284601Y-95036399D01*
X164071399Y-95036399D02*
X165100000Y-96065000D01*
X155206601Y-95036399D02*
X164071399Y-95036399D01*
X154178000Y-96065000D02*
X155206601Y-95036399D01*
X98539399Y-92496399D02*
X99568000Y-93525000D01*
X89674601Y-92496399D02*
X98539399Y-92496399D01*
X88646000Y-93525000D02*
X89674601Y-92496399D01*
X109461399Y-92496399D02*
X110490000Y-93525000D01*
X100596601Y-92496399D02*
X109461399Y-92496399D01*
X99568000Y-93525000D02*
X100596601Y-92496399D01*
X120383399Y-92496399D02*
X121412000Y-93525000D01*
X111518601Y-92496399D02*
X120383399Y-92496399D01*
X110490000Y-93525000D02*
X111518601Y-92496399D01*
X131305399Y-92496399D02*
X132334000Y-93525000D01*
X122440601Y-92496399D02*
X131305399Y-92496399D01*
X121412000Y-93525000D02*
X122440601Y-92496399D01*
X142227399Y-92496399D02*
X143256000Y-93525000D01*
X133362601Y-92496399D02*
X142227399Y-92496399D01*
X132334000Y-93525000D02*
X133362601Y-92496399D01*
X153149399Y-92496399D02*
X154178000Y-93525000D01*
X144284601Y-92496399D02*
X153149399Y-92496399D01*
X143256000Y-93525000D02*
X144284601Y-92496399D01*
X164071399Y-92496399D02*
X165100000Y-93525000D01*
X155206601Y-92496399D02*
X164071399Y-92496399D01*
X154178000Y-93525000D02*
X155206601Y-92496399D01*
X98539399Y-89956399D02*
X99568000Y-90985000D01*
X89674601Y-89956399D02*
X98539399Y-89956399D01*
X88646000Y-90985000D02*
X89674601Y-89956399D01*
X109461399Y-89956399D02*
X110490000Y-90985000D01*
X100596601Y-89956399D02*
X109461399Y-89956399D01*
X99568000Y-90985000D02*
X100596601Y-89956399D01*
X120383399Y-89956399D02*
X121412000Y-90985000D01*
X111518601Y-89956399D02*
X120383399Y-89956399D01*
X110490000Y-90985000D02*
X111518601Y-89956399D01*
X131305399Y-89956399D02*
X132334000Y-90985000D01*
X122440601Y-89956399D02*
X131305399Y-89956399D01*
X121412000Y-90985000D02*
X122440601Y-89956399D01*
X142227399Y-89956399D02*
X143256000Y-90985000D01*
X133362601Y-89956399D02*
X142227399Y-89956399D01*
X132334000Y-90985000D02*
X133362601Y-89956399D01*
X153149399Y-89956399D02*
X154178000Y-90985000D01*
X144284601Y-89956399D02*
X153149399Y-89956399D01*
X143256000Y-90985000D02*
X144284601Y-89956399D01*
X164071399Y-89956399D02*
X165100000Y-90985000D01*
X155206601Y-89956399D02*
X164071399Y-89956399D01*
X154178000Y-90985000D02*
X155206601Y-89956399D01*
X106159399Y-94553601D02*
X107188000Y-93525000D01*
X97294601Y-94553601D02*
X106159399Y-94553601D01*
X96266000Y-93525000D02*
X97294601Y-94553601D01*
X117081399Y-94553601D02*
X118110000Y-93525000D01*
X108216601Y-94553601D02*
X117081399Y-94553601D01*
X107188000Y-93525000D02*
X108216601Y-94553601D01*
X128003399Y-94553601D02*
X129032000Y-93525000D01*
X119138601Y-94553601D02*
X128003399Y-94553601D01*
X118110000Y-93525000D02*
X119138601Y-94553601D01*
X138925399Y-94553601D02*
X139954000Y-93525000D01*
X130060601Y-94553601D02*
X138925399Y-94553601D01*
X129032000Y-93525000D02*
X130060601Y-94553601D01*
X149847399Y-94553601D02*
X150876000Y-93525000D01*
X140982601Y-94553601D02*
X149847399Y-94553601D01*
X139954000Y-93525000D02*
X140982601Y-94553601D01*
X160769399Y-94553601D02*
X161798000Y-93525000D01*
X151904601Y-94553601D02*
X160769399Y-94553601D01*
X150876000Y-93525000D02*
X151904601Y-94553601D01*
X162826601Y-94553601D02*
X171691399Y-94553601D01*
X171691399Y-94553601D02*
X172720000Y-93525000D01*
X161798000Y-93525000D02*
X162826601Y-94553601D01*
X106159399Y-97093601D02*
X107188000Y-96065000D01*
X97294601Y-97093601D02*
X106159399Y-97093601D01*
X96266000Y-96065000D02*
X97294601Y-97093601D01*
X117081399Y-97093601D02*
X118110000Y-96065000D01*
X108216601Y-97093601D02*
X117081399Y-97093601D01*
X107188000Y-96065000D02*
X108216601Y-97093601D01*
X128003399Y-97093601D02*
X129032000Y-96065000D01*
X119138601Y-97093601D02*
X128003399Y-97093601D01*
X118110000Y-96065000D02*
X119138601Y-97093601D01*
X138925399Y-97093601D02*
X139954000Y-96065000D01*
X130060601Y-97093601D02*
X138925399Y-97093601D01*
X129032000Y-96065000D02*
X130060601Y-97093601D01*
X140982601Y-97093601D02*
X149847399Y-97093601D01*
X149847399Y-97093601D02*
X150876000Y-96065000D01*
X139954000Y-96065000D02*
X140982601Y-97093601D01*
X160769399Y-97093601D02*
X161798000Y-96065000D01*
X151904601Y-97093601D02*
X160769399Y-97093601D01*
X150876000Y-96065000D02*
X151904601Y-97093601D01*
X171691399Y-97093601D02*
X172720000Y-96065000D01*
X162826601Y-97093601D02*
X171691399Y-97093601D01*
X161798000Y-96065000D02*
X162826601Y-97093601D01*
X106159399Y-104713601D02*
X107188000Y-103685000D01*
X97294601Y-104713601D02*
X106159399Y-104713601D01*
X96266000Y-103685000D02*
X97294601Y-104713601D01*
X108216601Y-104713601D02*
X117081399Y-104713601D01*
X117081399Y-104713601D02*
X118110000Y-103685000D01*
X107188000Y-103685000D02*
X108216601Y-104713601D01*
X128003399Y-104713601D02*
X129032000Y-103685000D01*
X119138601Y-104713601D02*
X128003399Y-104713601D01*
X118110000Y-103685000D02*
X119138601Y-104713601D01*
X138925399Y-104713601D02*
X139954000Y-103685000D01*
X130060601Y-104713601D02*
X138925399Y-104713601D01*
X129032000Y-103685000D02*
X130060601Y-104713601D01*
X149847399Y-104713601D02*
X150876000Y-103685000D01*
X140982601Y-104713601D02*
X149847399Y-104713601D01*
X139954000Y-103685000D02*
X140982601Y-104713601D01*
X160769399Y-104713601D02*
X161798000Y-103685000D01*
X151904601Y-104713601D02*
X160769399Y-104713601D01*
X150876000Y-103685000D02*
X151904601Y-104713601D01*
X171691399Y-104713601D02*
X172720000Y-103685000D01*
X162826601Y-104713601D02*
X171691399Y-104713601D01*
X161798000Y-103685000D02*
X162826601Y-104713601D01*
X106159399Y-99633601D02*
X107188000Y-98605000D01*
X97294601Y-99633601D02*
X106159399Y-99633601D01*
X96266000Y-98605000D02*
X97294601Y-99633601D01*
X117081399Y-99633601D02*
X118110000Y-98605000D01*
X108216601Y-99633601D02*
X117081399Y-99633601D01*
X107188000Y-98605000D02*
X108216601Y-99633601D01*
X128003399Y-99633601D02*
X129032000Y-98605000D01*
X119138601Y-99633601D02*
X128003399Y-99633601D01*
X118110000Y-98605000D02*
X119138601Y-99633601D01*
X138925399Y-99633601D02*
X139954000Y-98605000D01*
X130060601Y-99633601D02*
X138925399Y-99633601D01*
X129032000Y-98605000D02*
X130060601Y-99633601D01*
X149847399Y-99633601D02*
X150876000Y-98605000D01*
X140982601Y-99633601D02*
X149847399Y-99633601D01*
X139954000Y-98605000D02*
X140982601Y-99633601D01*
X160769399Y-99633601D02*
X161798000Y-98605000D01*
X151904601Y-99633601D02*
X160769399Y-99633601D01*
X150876000Y-98605000D02*
X151904601Y-99633601D01*
X171691399Y-99633601D02*
X172720000Y-98605000D01*
X162826601Y-99633601D02*
X171691399Y-99633601D01*
X161798000Y-98605000D02*
X162826601Y-99633601D01*
X98539399Y-87416399D02*
X99568000Y-88445000D01*
X89674601Y-87416399D02*
X98539399Y-87416399D01*
X88646000Y-88445000D02*
X89674601Y-87416399D01*
X109461399Y-87416399D02*
X110490000Y-88445000D01*
X100596601Y-87416399D02*
X109461399Y-87416399D01*
X99568000Y-88445000D02*
X100596601Y-87416399D01*
X111518601Y-87416399D02*
X120383399Y-87416399D01*
X120383399Y-87416399D02*
X121412000Y-88445000D01*
X110490000Y-88445000D02*
X111518601Y-87416399D01*
X131305399Y-87416399D02*
X132334000Y-88445000D01*
X122440601Y-87416399D02*
X131305399Y-87416399D01*
X121412000Y-88445000D02*
X122440601Y-87416399D01*
X142227399Y-87416399D02*
X143256000Y-88445000D01*
X133362601Y-87416399D02*
X142227399Y-87416399D01*
X132334000Y-88445000D02*
X133362601Y-87416399D01*
X153149399Y-87416399D02*
X154178000Y-88445000D01*
X144284601Y-87416399D02*
X153149399Y-87416399D01*
X143256000Y-88445000D02*
X144284601Y-87416399D01*
X164071399Y-87416399D02*
X165100000Y-88445000D01*
X155206601Y-87416399D02*
X164071399Y-87416399D01*
X154178000Y-88445000D02*
X155206601Y-87416399D01*
X106159399Y-92013601D02*
X107188000Y-90985000D01*
X97294601Y-92013601D02*
X106159399Y-92013601D01*
X96266000Y-90985000D02*
X97294601Y-92013601D01*
X117081399Y-92013601D02*
X118110000Y-90985000D01*
X108216601Y-92013601D02*
X117081399Y-92013601D01*
X107188000Y-90985000D02*
X108216601Y-92013601D01*
X128003399Y-92013601D02*
X129032000Y-90985000D01*
X119138601Y-92013601D02*
X128003399Y-92013601D01*
X118110000Y-90985000D02*
X119138601Y-92013601D01*
X138925399Y-92013601D02*
X139954000Y-90985000D01*
X130060601Y-92013601D02*
X138925399Y-92013601D01*
X129032000Y-90985000D02*
X130060601Y-92013601D01*
X140982601Y-92013601D02*
X149847399Y-92013601D01*
X149847399Y-92013601D02*
X150876000Y-90985000D01*
X139954000Y-90985000D02*
X140982601Y-92013601D01*
X160769399Y-92013601D02*
X161798000Y-90985000D01*
X151904601Y-92013601D02*
X160769399Y-92013601D01*
X150876000Y-90985000D02*
X151904601Y-92013601D01*
X171691399Y-92013601D02*
X172720000Y-90985000D01*
X162826601Y-92013601D02*
X171691399Y-92013601D01*
X161798000Y-90985000D02*
X162826601Y-92013601D01*
X98412399Y-84749399D02*
X99568000Y-85905000D01*
X89801601Y-84749399D02*
X98412399Y-84749399D01*
X88646000Y-85905000D02*
X89801601Y-84749399D01*
X109334399Y-84749399D02*
X110490000Y-85905000D01*
X100723601Y-84749399D02*
X109334399Y-84749399D01*
X99568000Y-85905000D02*
X100723601Y-84749399D01*
X120256399Y-84749399D02*
X121412000Y-85905000D01*
X111645601Y-84749399D02*
X120256399Y-84749399D01*
X110490000Y-85905000D02*
X111645601Y-84749399D01*
X131178399Y-84749399D02*
X132334000Y-85905000D01*
X122567601Y-84749399D02*
X131178399Y-84749399D01*
X121412000Y-85905000D02*
X122567601Y-84749399D01*
X142100399Y-84749399D02*
X143256000Y-85905000D01*
X133489601Y-84749399D02*
X142100399Y-84749399D01*
X132334000Y-85905000D02*
X133489601Y-84749399D01*
X153022399Y-84749399D02*
X154178000Y-85905000D01*
X144411601Y-84749399D02*
X153022399Y-84749399D01*
X143256000Y-85905000D02*
X144411601Y-84749399D01*
X155333601Y-84749399D02*
X163944399Y-84749399D01*
X163944399Y-84749399D02*
X165100000Y-85905000D01*
X154178000Y-85905000D02*
X155333601Y-84749399D01*
X85344000Y-96012000D02*
X87376000Y-98044000D01*
X87376000Y-98044000D02*
X87376000Y-119365290D01*
X87376000Y-119365290D02*
X90184710Y-122174000D01*
X107950000Y-122174000D02*
X111506000Y-125730000D01*
X90184710Y-122174000D02*
X107950000Y-122174000D01*
X108966000Y-125730000D02*
X105740211Y-122504211D01*
X89525223Y-122504211D02*
X86868000Y-119846988D01*
X105740211Y-122504211D02*
X89525223Y-122504211D01*
X86868000Y-100076000D02*
X85344000Y-98552000D01*
X86868000Y-119846988D02*
X86868000Y-100076000D01*
X106426000Y-125730000D02*
X103530422Y-122834422D01*
X89388446Y-122834422D02*
X86499601Y-119945577D01*
X103530422Y-122834422D02*
X89388446Y-122834422D01*
X86499601Y-102247601D02*
X85344000Y-101092000D01*
X86499601Y-119945577D02*
X86499601Y-102247601D01*
X103886000Y-125730000D02*
X101320633Y-123164633D01*
X101320633Y-123164633D02*
X89251669Y-123164633D01*
X85344000Y-119256964D02*
X85344000Y-111252000D01*
X89251669Y-123164633D02*
X85344000Y-119256964D01*
X101346000Y-125730000D02*
X99110844Y-123494844D01*
X84544001Y-109511999D02*
X85344000Y-108712000D01*
X99110844Y-123494844D02*
X89114892Y-123494844D01*
X84315399Y-109740601D02*
X84544001Y-109511999D01*
X84315399Y-118695351D02*
X84315399Y-109740601D01*
X89114892Y-123494844D02*
X84315399Y-118695351D01*
X85344000Y-106172000D02*
X83985188Y-107530812D01*
X96901055Y-123825055D02*
X98806000Y-125730000D01*
X83985188Y-118832128D02*
X88978115Y-123825055D01*
X88978115Y-123825055D02*
X96901055Y-123825055D01*
X83985188Y-107530812D02*
X83985188Y-118832128D01*
X106159399Y-89473601D02*
X107188000Y-88445000D01*
X97294601Y-89473601D02*
X106159399Y-89473601D01*
X96266000Y-88445000D02*
X97294601Y-89473601D01*
X117081399Y-89473601D02*
X118110000Y-88445000D01*
X108216601Y-89473601D02*
X117081399Y-89473601D01*
X107188000Y-88445000D02*
X108216601Y-89473601D01*
X128003399Y-89473601D02*
X129032000Y-88445000D01*
X119138601Y-89473601D02*
X128003399Y-89473601D01*
X118110000Y-88445000D02*
X119138601Y-89473601D01*
X138925399Y-89473601D02*
X139954000Y-88445000D01*
X130060601Y-89473601D02*
X138925399Y-89473601D01*
X129032000Y-88445000D02*
X130060601Y-89473601D01*
X149847399Y-89473601D02*
X150876000Y-88445000D01*
X140982601Y-89473601D02*
X149847399Y-89473601D01*
X139954000Y-88445000D02*
X140982601Y-89473601D01*
X151904601Y-89473601D02*
X160769399Y-89473601D01*
X160769399Y-89473601D02*
X161798000Y-88445000D01*
X150876000Y-88445000D02*
X151904601Y-89473601D01*
X171691399Y-89473601D02*
X172720000Y-88445000D01*
X162826601Y-89473601D02*
X171691399Y-89473601D01*
X161798000Y-88445000D02*
X162826601Y-89473601D01*
X106159399Y-102173601D02*
X107188000Y-101145000D01*
X97294601Y-102173601D02*
X106159399Y-102173601D01*
X96266000Y-101145000D02*
X97294601Y-102173601D01*
X117081399Y-102173601D02*
X118110000Y-101145000D01*
X108216601Y-102173601D02*
X117081399Y-102173601D01*
X107188000Y-101145000D02*
X108216601Y-102173601D01*
X119138601Y-102173601D02*
X128003399Y-102173601D01*
X128003399Y-102173601D02*
X129032000Y-101145000D01*
X118110000Y-101145000D02*
X119138601Y-102173601D01*
X130060601Y-102173601D02*
X138925399Y-102173601D01*
X138925399Y-102173601D02*
X139954000Y-101145000D01*
X129032000Y-101145000D02*
X130060601Y-102173601D01*
X149847399Y-102173601D02*
X150876000Y-101145000D01*
X140982601Y-102173601D02*
X149847399Y-102173601D01*
X139954000Y-101145000D02*
X140982601Y-102173601D01*
X160769399Y-102173601D02*
X161798000Y-101145000D01*
X151904601Y-102173601D02*
X160769399Y-102173601D01*
X150876000Y-101145000D02*
X151904601Y-102173601D01*
X171691399Y-102173601D02*
X172720000Y-101145000D01*
X162826601Y-102173601D02*
X171691399Y-102173601D01*
X161798000Y-101145000D02*
X162826601Y-102173601D01*
M02*
