G04 #@! TF.GenerationSoftware,KiCad,Pcbnew,(5.1.9-0-10_14)*
G04 #@! TF.CreationDate,2021-06-10T12:38:53+02:00*
G04 #@! TF.ProjectId,video_memory,76696465-6f5f-46d6-956d-6f72792e6b69,rev?*
G04 #@! TF.SameCoordinates,Original*
G04 #@! TF.FileFunction,Legend,Top*
G04 #@! TF.FilePolarity,Positive*
%FSLAX46Y46*%
G04 Gerber Fmt 4.6, Leading zero omitted, Abs format (unit mm)*
G04 Created by KiCad (PCBNEW (5.1.9-0-10_14)) date 2021-06-10 12:38:53*
%MOMM*%
%LPD*%
G01*
G04 APERTURE LIST*
%ADD10C,0.150000*%
%ADD11C,0.120000*%
%ADD12O,1.600000X1.600000*%
%ADD13R,1.600000X1.600000*%
%ADD14C,6.400000*%
%ADD15O,1.700000X1.700000*%
%ADD16R,1.700000X1.700000*%
G04 APERTURE END LIST*
D10*
X171235619Y-84995142D02*
X171235619Y-85661809D01*
X170235619Y-85233238D01*
X170235619Y-86566571D02*
X170235619Y-85995142D01*
X170235619Y-86280857D02*
X171235619Y-86280857D01*
X171092761Y-86185619D01*
X170997523Y-86090380D01*
X170949904Y-85995142D01*
X171140380Y-86947523D02*
X171188000Y-86995142D01*
X171235619Y-87090380D01*
X171235619Y-87328476D01*
X171188000Y-87423714D01*
X171140380Y-87471333D01*
X171045142Y-87518952D01*
X170949904Y-87518952D01*
X170807047Y-87471333D01*
X170235619Y-86899904D01*
X170235619Y-87518952D01*
X171235619Y-88423714D02*
X171235619Y-87947523D01*
X170759428Y-87899904D01*
X170807047Y-87947523D01*
X170854666Y-88042761D01*
X170854666Y-88280857D01*
X170807047Y-88376095D01*
X170759428Y-88423714D01*
X170664190Y-88471333D01*
X170426095Y-88471333D01*
X170330857Y-88423714D01*
X170283238Y-88376095D01*
X170235619Y-88280857D01*
X170235619Y-88042761D01*
X170283238Y-87947523D01*
X170330857Y-87899904D01*
X171235619Y-89328476D02*
X171235619Y-89138000D01*
X171188000Y-89042761D01*
X171140380Y-88995142D01*
X170997523Y-88899904D01*
X170807047Y-88852285D01*
X170426095Y-88852285D01*
X170330857Y-88899904D01*
X170283238Y-88947523D01*
X170235619Y-89042761D01*
X170235619Y-89233238D01*
X170283238Y-89328476D01*
X170330857Y-89376095D01*
X170426095Y-89423714D01*
X170664190Y-89423714D01*
X170759428Y-89376095D01*
X170807047Y-89328476D01*
X170854666Y-89233238D01*
X170854666Y-89042761D01*
X170807047Y-88947523D01*
X170759428Y-88899904D01*
X170664190Y-88852285D01*
X170283238Y-89804666D02*
X170235619Y-89947523D01*
X170235619Y-90185619D01*
X170283238Y-90280857D01*
X170330857Y-90328476D01*
X170426095Y-90376095D01*
X170521333Y-90376095D01*
X170616571Y-90328476D01*
X170664190Y-90280857D01*
X170711809Y-90185619D01*
X170759428Y-89995142D01*
X170807047Y-89899904D01*
X170854666Y-89852285D01*
X170949904Y-89804666D01*
X171045142Y-89804666D01*
X171140380Y-89852285D01*
X171188000Y-89899904D01*
X171235619Y-89995142D01*
X171235619Y-90233238D01*
X171188000Y-90376095D01*
X170521333Y-90757047D02*
X170521333Y-91233238D01*
X170235619Y-90661809D02*
X171235619Y-90995142D01*
X170235619Y-91328476D01*
X160313619Y-84995142D02*
X160313619Y-85661809D01*
X159313619Y-85233238D01*
X159313619Y-86566571D02*
X159313619Y-85995142D01*
X159313619Y-86280857D02*
X160313619Y-86280857D01*
X160170761Y-86185619D01*
X160075523Y-86090380D01*
X160027904Y-85995142D01*
X160218380Y-86947523D02*
X160266000Y-86995142D01*
X160313619Y-87090380D01*
X160313619Y-87328476D01*
X160266000Y-87423714D01*
X160218380Y-87471333D01*
X160123142Y-87518952D01*
X160027904Y-87518952D01*
X159885047Y-87471333D01*
X159313619Y-86899904D01*
X159313619Y-87518952D01*
X160313619Y-88423714D02*
X160313619Y-87947523D01*
X159837428Y-87899904D01*
X159885047Y-87947523D01*
X159932666Y-88042761D01*
X159932666Y-88280857D01*
X159885047Y-88376095D01*
X159837428Y-88423714D01*
X159742190Y-88471333D01*
X159504095Y-88471333D01*
X159408857Y-88423714D01*
X159361238Y-88376095D01*
X159313619Y-88280857D01*
X159313619Y-88042761D01*
X159361238Y-87947523D01*
X159408857Y-87899904D01*
X160313619Y-89328476D02*
X160313619Y-89138000D01*
X160266000Y-89042761D01*
X160218380Y-88995142D01*
X160075523Y-88899904D01*
X159885047Y-88852285D01*
X159504095Y-88852285D01*
X159408857Y-88899904D01*
X159361238Y-88947523D01*
X159313619Y-89042761D01*
X159313619Y-89233238D01*
X159361238Y-89328476D01*
X159408857Y-89376095D01*
X159504095Y-89423714D01*
X159742190Y-89423714D01*
X159837428Y-89376095D01*
X159885047Y-89328476D01*
X159932666Y-89233238D01*
X159932666Y-89042761D01*
X159885047Y-88947523D01*
X159837428Y-88899904D01*
X159742190Y-88852285D01*
X159361238Y-89804666D02*
X159313619Y-89947523D01*
X159313619Y-90185619D01*
X159361238Y-90280857D01*
X159408857Y-90328476D01*
X159504095Y-90376095D01*
X159599333Y-90376095D01*
X159694571Y-90328476D01*
X159742190Y-90280857D01*
X159789809Y-90185619D01*
X159837428Y-89995142D01*
X159885047Y-89899904D01*
X159932666Y-89852285D01*
X160027904Y-89804666D01*
X160123142Y-89804666D01*
X160218380Y-89852285D01*
X160266000Y-89899904D01*
X160313619Y-89995142D01*
X160313619Y-90233238D01*
X160266000Y-90376095D01*
X159599333Y-90757047D02*
X159599333Y-91233238D01*
X159313619Y-90661809D02*
X160313619Y-90995142D01*
X159313619Y-91328476D01*
X149391619Y-84995142D02*
X149391619Y-85661809D01*
X148391619Y-85233238D01*
X148391619Y-86566571D02*
X148391619Y-85995142D01*
X148391619Y-86280857D02*
X149391619Y-86280857D01*
X149248761Y-86185619D01*
X149153523Y-86090380D01*
X149105904Y-85995142D01*
X149296380Y-86947523D02*
X149344000Y-86995142D01*
X149391619Y-87090380D01*
X149391619Y-87328476D01*
X149344000Y-87423714D01*
X149296380Y-87471333D01*
X149201142Y-87518952D01*
X149105904Y-87518952D01*
X148963047Y-87471333D01*
X148391619Y-86899904D01*
X148391619Y-87518952D01*
X149391619Y-88423714D02*
X149391619Y-87947523D01*
X148915428Y-87899904D01*
X148963047Y-87947523D01*
X149010666Y-88042761D01*
X149010666Y-88280857D01*
X148963047Y-88376095D01*
X148915428Y-88423714D01*
X148820190Y-88471333D01*
X148582095Y-88471333D01*
X148486857Y-88423714D01*
X148439238Y-88376095D01*
X148391619Y-88280857D01*
X148391619Y-88042761D01*
X148439238Y-87947523D01*
X148486857Y-87899904D01*
X149391619Y-89328476D02*
X149391619Y-89138000D01*
X149344000Y-89042761D01*
X149296380Y-88995142D01*
X149153523Y-88899904D01*
X148963047Y-88852285D01*
X148582095Y-88852285D01*
X148486857Y-88899904D01*
X148439238Y-88947523D01*
X148391619Y-89042761D01*
X148391619Y-89233238D01*
X148439238Y-89328476D01*
X148486857Y-89376095D01*
X148582095Y-89423714D01*
X148820190Y-89423714D01*
X148915428Y-89376095D01*
X148963047Y-89328476D01*
X149010666Y-89233238D01*
X149010666Y-89042761D01*
X148963047Y-88947523D01*
X148915428Y-88899904D01*
X148820190Y-88852285D01*
X148439238Y-89804666D02*
X148391619Y-89947523D01*
X148391619Y-90185619D01*
X148439238Y-90280857D01*
X148486857Y-90328476D01*
X148582095Y-90376095D01*
X148677333Y-90376095D01*
X148772571Y-90328476D01*
X148820190Y-90280857D01*
X148867809Y-90185619D01*
X148915428Y-89995142D01*
X148963047Y-89899904D01*
X149010666Y-89852285D01*
X149105904Y-89804666D01*
X149201142Y-89804666D01*
X149296380Y-89852285D01*
X149344000Y-89899904D01*
X149391619Y-89995142D01*
X149391619Y-90233238D01*
X149344000Y-90376095D01*
X148677333Y-90757047D02*
X148677333Y-91233238D01*
X148391619Y-90661809D02*
X149391619Y-90995142D01*
X148391619Y-91328476D01*
X138469619Y-84995142D02*
X138469619Y-85661809D01*
X137469619Y-85233238D01*
X137469619Y-86566571D02*
X137469619Y-85995142D01*
X137469619Y-86280857D02*
X138469619Y-86280857D01*
X138326761Y-86185619D01*
X138231523Y-86090380D01*
X138183904Y-85995142D01*
X138374380Y-86947523D02*
X138422000Y-86995142D01*
X138469619Y-87090380D01*
X138469619Y-87328476D01*
X138422000Y-87423714D01*
X138374380Y-87471333D01*
X138279142Y-87518952D01*
X138183904Y-87518952D01*
X138041047Y-87471333D01*
X137469619Y-86899904D01*
X137469619Y-87518952D01*
X138469619Y-88423714D02*
X138469619Y-87947523D01*
X137993428Y-87899904D01*
X138041047Y-87947523D01*
X138088666Y-88042761D01*
X138088666Y-88280857D01*
X138041047Y-88376095D01*
X137993428Y-88423714D01*
X137898190Y-88471333D01*
X137660095Y-88471333D01*
X137564857Y-88423714D01*
X137517238Y-88376095D01*
X137469619Y-88280857D01*
X137469619Y-88042761D01*
X137517238Y-87947523D01*
X137564857Y-87899904D01*
X138469619Y-89328476D02*
X138469619Y-89138000D01*
X138422000Y-89042761D01*
X138374380Y-88995142D01*
X138231523Y-88899904D01*
X138041047Y-88852285D01*
X137660095Y-88852285D01*
X137564857Y-88899904D01*
X137517238Y-88947523D01*
X137469619Y-89042761D01*
X137469619Y-89233238D01*
X137517238Y-89328476D01*
X137564857Y-89376095D01*
X137660095Y-89423714D01*
X137898190Y-89423714D01*
X137993428Y-89376095D01*
X138041047Y-89328476D01*
X138088666Y-89233238D01*
X138088666Y-89042761D01*
X138041047Y-88947523D01*
X137993428Y-88899904D01*
X137898190Y-88852285D01*
X137517238Y-89804666D02*
X137469619Y-89947523D01*
X137469619Y-90185619D01*
X137517238Y-90280857D01*
X137564857Y-90328476D01*
X137660095Y-90376095D01*
X137755333Y-90376095D01*
X137850571Y-90328476D01*
X137898190Y-90280857D01*
X137945809Y-90185619D01*
X137993428Y-89995142D01*
X138041047Y-89899904D01*
X138088666Y-89852285D01*
X138183904Y-89804666D01*
X138279142Y-89804666D01*
X138374380Y-89852285D01*
X138422000Y-89899904D01*
X138469619Y-89995142D01*
X138469619Y-90233238D01*
X138422000Y-90376095D01*
X137755333Y-90757047D02*
X137755333Y-91233238D01*
X137469619Y-90661809D02*
X138469619Y-90995142D01*
X137469619Y-91328476D01*
X127547619Y-84995142D02*
X127547619Y-85661809D01*
X126547619Y-85233238D01*
X126547619Y-86566571D02*
X126547619Y-85995142D01*
X126547619Y-86280857D02*
X127547619Y-86280857D01*
X127404761Y-86185619D01*
X127309523Y-86090380D01*
X127261904Y-85995142D01*
X127452380Y-86947523D02*
X127500000Y-86995142D01*
X127547619Y-87090380D01*
X127547619Y-87328476D01*
X127500000Y-87423714D01*
X127452380Y-87471333D01*
X127357142Y-87518952D01*
X127261904Y-87518952D01*
X127119047Y-87471333D01*
X126547619Y-86899904D01*
X126547619Y-87518952D01*
X127547619Y-88423714D02*
X127547619Y-87947523D01*
X127071428Y-87899904D01*
X127119047Y-87947523D01*
X127166666Y-88042761D01*
X127166666Y-88280857D01*
X127119047Y-88376095D01*
X127071428Y-88423714D01*
X126976190Y-88471333D01*
X126738095Y-88471333D01*
X126642857Y-88423714D01*
X126595238Y-88376095D01*
X126547619Y-88280857D01*
X126547619Y-88042761D01*
X126595238Y-87947523D01*
X126642857Y-87899904D01*
X127547619Y-89328476D02*
X127547619Y-89138000D01*
X127500000Y-89042761D01*
X127452380Y-88995142D01*
X127309523Y-88899904D01*
X127119047Y-88852285D01*
X126738095Y-88852285D01*
X126642857Y-88899904D01*
X126595238Y-88947523D01*
X126547619Y-89042761D01*
X126547619Y-89233238D01*
X126595238Y-89328476D01*
X126642857Y-89376095D01*
X126738095Y-89423714D01*
X126976190Y-89423714D01*
X127071428Y-89376095D01*
X127119047Y-89328476D01*
X127166666Y-89233238D01*
X127166666Y-89042761D01*
X127119047Y-88947523D01*
X127071428Y-88899904D01*
X126976190Y-88852285D01*
X126595238Y-89804666D02*
X126547619Y-89947523D01*
X126547619Y-90185619D01*
X126595238Y-90280857D01*
X126642857Y-90328476D01*
X126738095Y-90376095D01*
X126833333Y-90376095D01*
X126928571Y-90328476D01*
X126976190Y-90280857D01*
X127023809Y-90185619D01*
X127071428Y-89995142D01*
X127119047Y-89899904D01*
X127166666Y-89852285D01*
X127261904Y-89804666D01*
X127357142Y-89804666D01*
X127452380Y-89852285D01*
X127500000Y-89899904D01*
X127547619Y-89995142D01*
X127547619Y-90233238D01*
X127500000Y-90376095D01*
X126833333Y-90757047D02*
X126833333Y-91233238D01*
X126547619Y-90661809D02*
X127547619Y-90995142D01*
X126547619Y-91328476D01*
X116625619Y-84995142D02*
X116625619Y-85661809D01*
X115625619Y-85233238D01*
X115625619Y-86566571D02*
X115625619Y-85995142D01*
X115625619Y-86280857D02*
X116625619Y-86280857D01*
X116482761Y-86185619D01*
X116387523Y-86090380D01*
X116339904Y-85995142D01*
X116530380Y-86947523D02*
X116578000Y-86995142D01*
X116625619Y-87090380D01*
X116625619Y-87328476D01*
X116578000Y-87423714D01*
X116530380Y-87471333D01*
X116435142Y-87518952D01*
X116339904Y-87518952D01*
X116197047Y-87471333D01*
X115625619Y-86899904D01*
X115625619Y-87518952D01*
X116625619Y-88423714D02*
X116625619Y-87947523D01*
X116149428Y-87899904D01*
X116197047Y-87947523D01*
X116244666Y-88042761D01*
X116244666Y-88280857D01*
X116197047Y-88376095D01*
X116149428Y-88423714D01*
X116054190Y-88471333D01*
X115816095Y-88471333D01*
X115720857Y-88423714D01*
X115673238Y-88376095D01*
X115625619Y-88280857D01*
X115625619Y-88042761D01*
X115673238Y-87947523D01*
X115720857Y-87899904D01*
X116625619Y-89328476D02*
X116625619Y-89138000D01*
X116578000Y-89042761D01*
X116530380Y-88995142D01*
X116387523Y-88899904D01*
X116197047Y-88852285D01*
X115816095Y-88852285D01*
X115720857Y-88899904D01*
X115673238Y-88947523D01*
X115625619Y-89042761D01*
X115625619Y-89233238D01*
X115673238Y-89328476D01*
X115720857Y-89376095D01*
X115816095Y-89423714D01*
X116054190Y-89423714D01*
X116149428Y-89376095D01*
X116197047Y-89328476D01*
X116244666Y-89233238D01*
X116244666Y-89042761D01*
X116197047Y-88947523D01*
X116149428Y-88899904D01*
X116054190Y-88852285D01*
X115673238Y-89804666D02*
X115625619Y-89947523D01*
X115625619Y-90185619D01*
X115673238Y-90280857D01*
X115720857Y-90328476D01*
X115816095Y-90376095D01*
X115911333Y-90376095D01*
X116006571Y-90328476D01*
X116054190Y-90280857D01*
X116101809Y-90185619D01*
X116149428Y-89995142D01*
X116197047Y-89899904D01*
X116244666Y-89852285D01*
X116339904Y-89804666D01*
X116435142Y-89804666D01*
X116530380Y-89852285D01*
X116578000Y-89899904D01*
X116625619Y-89995142D01*
X116625619Y-90233238D01*
X116578000Y-90376095D01*
X115911333Y-90757047D02*
X115911333Y-91233238D01*
X115625619Y-90661809D02*
X116625619Y-90995142D01*
X115625619Y-91328476D01*
X105703619Y-84995142D02*
X105703619Y-85661809D01*
X104703619Y-85233238D01*
X104703619Y-86566571D02*
X104703619Y-85995142D01*
X104703619Y-86280857D02*
X105703619Y-86280857D01*
X105560761Y-86185619D01*
X105465523Y-86090380D01*
X105417904Y-85995142D01*
X105608380Y-86947523D02*
X105656000Y-86995142D01*
X105703619Y-87090380D01*
X105703619Y-87328476D01*
X105656000Y-87423714D01*
X105608380Y-87471333D01*
X105513142Y-87518952D01*
X105417904Y-87518952D01*
X105275047Y-87471333D01*
X104703619Y-86899904D01*
X104703619Y-87518952D01*
X105703619Y-88423714D02*
X105703619Y-87947523D01*
X105227428Y-87899904D01*
X105275047Y-87947523D01*
X105322666Y-88042761D01*
X105322666Y-88280857D01*
X105275047Y-88376095D01*
X105227428Y-88423714D01*
X105132190Y-88471333D01*
X104894095Y-88471333D01*
X104798857Y-88423714D01*
X104751238Y-88376095D01*
X104703619Y-88280857D01*
X104703619Y-88042761D01*
X104751238Y-87947523D01*
X104798857Y-87899904D01*
X105703619Y-89328476D02*
X105703619Y-89138000D01*
X105656000Y-89042761D01*
X105608380Y-88995142D01*
X105465523Y-88899904D01*
X105275047Y-88852285D01*
X104894095Y-88852285D01*
X104798857Y-88899904D01*
X104751238Y-88947523D01*
X104703619Y-89042761D01*
X104703619Y-89233238D01*
X104751238Y-89328476D01*
X104798857Y-89376095D01*
X104894095Y-89423714D01*
X105132190Y-89423714D01*
X105227428Y-89376095D01*
X105275047Y-89328476D01*
X105322666Y-89233238D01*
X105322666Y-89042761D01*
X105275047Y-88947523D01*
X105227428Y-88899904D01*
X105132190Y-88852285D01*
X104751238Y-89804666D02*
X104703619Y-89947523D01*
X104703619Y-90185619D01*
X104751238Y-90280857D01*
X104798857Y-90328476D01*
X104894095Y-90376095D01*
X104989333Y-90376095D01*
X105084571Y-90328476D01*
X105132190Y-90280857D01*
X105179809Y-90185619D01*
X105227428Y-89995142D01*
X105275047Y-89899904D01*
X105322666Y-89852285D01*
X105417904Y-89804666D01*
X105513142Y-89804666D01*
X105608380Y-89852285D01*
X105656000Y-89899904D01*
X105703619Y-89995142D01*
X105703619Y-90233238D01*
X105656000Y-90376095D01*
X104989333Y-90757047D02*
X104989333Y-91233238D01*
X104703619Y-90661809D02*
X105703619Y-90995142D01*
X104703619Y-91328476D01*
X94781619Y-84995142D02*
X94781619Y-85661809D01*
X93781619Y-85233238D01*
X93781619Y-86566571D02*
X93781619Y-85995142D01*
X93781619Y-86280857D02*
X94781619Y-86280857D01*
X94638761Y-86185619D01*
X94543523Y-86090380D01*
X94495904Y-85995142D01*
X94686380Y-86947523D02*
X94734000Y-86995142D01*
X94781619Y-87090380D01*
X94781619Y-87328476D01*
X94734000Y-87423714D01*
X94686380Y-87471333D01*
X94591142Y-87518952D01*
X94495904Y-87518952D01*
X94353047Y-87471333D01*
X93781619Y-86899904D01*
X93781619Y-87518952D01*
X94781619Y-88423714D02*
X94781619Y-87947523D01*
X94305428Y-87899904D01*
X94353047Y-87947523D01*
X94400666Y-88042761D01*
X94400666Y-88280857D01*
X94353047Y-88376095D01*
X94305428Y-88423714D01*
X94210190Y-88471333D01*
X93972095Y-88471333D01*
X93876857Y-88423714D01*
X93829238Y-88376095D01*
X93781619Y-88280857D01*
X93781619Y-88042761D01*
X93829238Y-87947523D01*
X93876857Y-87899904D01*
X94781619Y-89328476D02*
X94781619Y-89138000D01*
X94734000Y-89042761D01*
X94686380Y-88995142D01*
X94543523Y-88899904D01*
X94353047Y-88852285D01*
X93972095Y-88852285D01*
X93876857Y-88899904D01*
X93829238Y-88947523D01*
X93781619Y-89042761D01*
X93781619Y-89233238D01*
X93829238Y-89328476D01*
X93876857Y-89376095D01*
X93972095Y-89423714D01*
X94210190Y-89423714D01*
X94305428Y-89376095D01*
X94353047Y-89328476D01*
X94400666Y-89233238D01*
X94400666Y-89042761D01*
X94353047Y-88947523D01*
X94305428Y-88899904D01*
X94210190Y-88852285D01*
X93829238Y-89804666D02*
X93781619Y-89947523D01*
X93781619Y-90185619D01*
X93829238Y-90280857D01*
X93876857Y-90328476D01*
X93972095Y-90376095D01*
X94067333Y-90376095D01*
X94162571Y-90328476D01*
X94210190Y-90280857D01*
X94257809Y-90185619D01*
X94305428Y-89995142D01*
X94353047Y-89899904D01*
X94400666Y-89852285D01*
X94495904Y-89804666D01*
X94591142Y-89804666D01*
X94686380Y-89852285D01*
X94734000Y-89899904D01*
X94781619Y-89995142D01*
X94781619Y-90233238D01*
X94734000Y-90376095D01*
X94067333Y-90757047D02*
X94067333Y-91233238D01*
X93781619Y-90661809D02*
X94781619Y-90995142D01*
X93781619Y-91328476D01*
X83859619Y-92400952D02*
X83859619Y-93067619D01*
X82859619Y-92639047D01*
X83526285Y-93877142D02*
X82859619Y-93877142D01*
X83907238Y-93639047D02*
X83192952Y-93400952D01*
X83192952Y-94020000D01*
X83145333Y-94353333D02*
X83145333Y-94829523D01*
X82859619Y-94258095D02*
X83859619Y-94591428D01*
X82859619Y-94924761D01*
X82954857Y-95829523D02*
X82907238Y-95781904D01*
X82859619Y-95639047D01*
X82859619Y-95543809D01*
X82907238Y-95400952D01*
X83002476Y-95305714D01*
X83097714Y-95258095D01*
X83288190Y-95210476D01*
X83431047Y-95210476D01*
X83621523Y-95258095D01*
X83716761Y-95305714D01*
X83812000Y-95400952D01*
X83859619Y-95543809D01*
X83859619Y-95639047D01*
X83812000Y-95781904D01*
X83764380Y-95829523D01*
X82859619Y-96781904D02*
X82859619Y-96210476D01*
X82859619Y-96496190D02*
X83859619Y-96496190D01*
X83716761Y-96400952D01*
X83621523Y-96305714D01*
X83573904Y-96210476D01*
X82859619Y-97734285D02*
X82859619Y-97162857D01*
X82859619Y-97448571D02*
X83859619Y-97448571D01*
X83716761Y-97353333D01*
X83621523Y-97258095D01*
X83573904Y-97162857D01*
X82859619Y-98686666D02*
X82859619Y-98115238D01*
X82859619Y-98400952D02*
X83859619Y-98400952D01*
X83716761Y-98305714D01*
X83621523Y-98210476D01*
X83573904Y-98115238D01*
X83859619Y-99020000D02*
X83859619Y-99639047D01*
X83478666Y-99305714D01*
X83478666Y-99448571D01*
X83431047Y-99543809D01*
X83383428Y-99591428D01*
X83288190Y-99639047D01*
X83050095Y-99639047D01*
X82954857Y-99591428D01*
X82907238Y-99543809D01*
X82859619Y-99448571D01*
X82859619Y-99162857D01*
X82907238Y-99067619D01*
X82954857Y-99020000D01*
X83431047Y-100210476D02*
X83478666Y-100115238D01*
X83526285Y-100067619D01*
X83621523Y-100020000D01*
X83669142Y-100020000D01*
X83764380Y-100067619D01*
X83812000Y-100115238D01*
X83859619Y-100210476D01*
X83859619Y-100400952D01*
X83812000Y-100496190D01*
X83764380Y-100543809D01*
X83669142Y-100591428D01*
X83621523Y-100591428D01*
X83526285Y-100543809D01*
X83478666Y-100496190D01*
X83431047Y-100400952D01*
X83431047Y-100210476D01*
X83383428Y-100115238D01*
X83335809Y-100067619D01*
X83240571Y-100020000D01*
X83050095Y-100020000D01*
X82954857Y-100067619D01*
X82907238Y-100115238D01*
X82859619Y-100210476D01*
X82859619Y-100400952D01*
X82907238Y-100496190D01*
X82954857Y-100543809D01*
X83050095Y-100591428D01*
X83240571Y-100591428D01*
X83335809Y-100543809D01*
X83383428Y-100496190D01*
X83431047Y-100400952D01*
X88098380Y-124015333D02*
X89098380Y-123682000D01*
X88098380Y-123348666D01*
X89003142Y-122443904D02*
X89050761Y-122491523D01*
X89098380Y-122634380D01*
X89098380Y-122729619D01*
X89050761Y-122872476D01*
X88955523Y-122967714D01*
X88860285Y-123015333D01*
X88669809Y-123062952D01*
X88526952Y-123062952D01*
X88336476Y-123015333D01*
X88241238Y-122967714D01*
X88146000Y-122872476D01*
X88098380Y-122729619D01*
X88098380Y-122634380D01*
X88146000Y-122491523D01*
X88193619Y-122443904D01*
X89003142Y-121443904D02*
X89050761Y-121491523D01*
X89098380Y-121634380D01*
X89098380Y-121729619D01*
X89050761Y-121872476D01*
X88955523Y-121967714D01*
X88860285Y-122015333D01*
X88669809Y-122062952D01*
X88526952Y-122062952D01*
X88336476Y-122015333D01*
X88241238Y-121967714D01*
X88146000Y-121872476D01*
X88098380Y-121729619D01*
X88098380Y-121634380D01*
X88146000Y-121491523D01*
X88193619Y-121443904D01*
X90686000Y-123443904D02*
X90638380Y-123539142D01*
X90638380Y-123682000D01*
X90686000Y-123824857D01*
X90781238Y-123920095D01*
X90876476Y-123967714D01*
X91066952Y-124015333D01*
X91209809Y-124015333D01*
X91400285Y-123967714D01*
X91495523Y-123920095D01*
X91590761Y-123824857D01*
X91638380Y-123682000D01*
X91638380Y-123586761D01*
X91590761Y-123443904D01*
X91543142Y-123396285D01*
X91209809Y-123396285D01*
X91209809Y-123586761D01*
X91638380Y-122967714D02*
X90638380Y-122967714D01*
X91638380Y-122396285D01*
X90638380Y-122396285D01*
X91638380Y-121920095D02*
X90638380Y-121920095D01*
X90638380Y-121682000D01*
X90686000Y-121539142D01*
X90781238Y-121443904D01*
X90876476Y-121396285D01*
X91066952Y-121348666D01*
X91209809Y-121348666D01*
X91400285Y-121396285D01*
X91495523Y-121443904D01*
X91590761Y-121539142D01*
X91638380Y-121682000D01*
X91638380Y-121920095D01*
X93065000Y-123912190D02*
X93065000Y-122864571D01*
X93432380Y-123483619D02*
X93432380Y-123293142D01*
X93480000Y-123197904D01*
X93575238Y-123102666D01*
X93765714Y-123055047D01*
X94099047Y-123055047D01*
X94289523Y-123102666D01*
X94384761Y-123197904D01*
X94432380Y-123293142D01*
X94432380Y-123483619D01*
X94384761Y-123578857D01*
X94289523Y-123674095D01*
X94099047Y-123721714D01*
X93765714Y-123721714D01*
X93575238Y-123674095D01*
X93480000Y-123578857D01*
X93432380Y-123483619D01*
X93065000Y-122864571D02*
X93065000Y-121959809D01*
X93908571Y-122626476D02*
X93908571Y-122293142D01*
X94432380Y-122150285D02*
X94432380Y-122626476D01*
X93432380Y-122626476D01*
X93432380Y-122150285D01*
X95605000Y-123959809D02*
X95605000Y-122816952D01*
X95972380Y-123816952D02*
X96972380Y-123578857D01*
X96258095Y-123388380D01*
X96972380Y-123197904D01*
X95972380Y-122959809D01*
X95605000Y-122816952D02*
X95605000Y-121912190D01*
X96448571Y-122578857D02*
X96448571Y-122245523D01*
X96972380Y-122102666D02*
X96972380Y-122578857D01*
X95972380Y-122578857D01*
X95972380Y-122102666D01*
X98306000Y-123404285D02*
X98258380Y-123499523D01*
X98258380Y-123642380D01*
X98306000Y-123785238D01*
X98401238Y-123880476D01*
X98496476Y-123928095D01*
X98686952Y-123975714D01*
X98829809Y-123975714D01*
X99020285Y-123928095D01*
X99115523Y-123880476D01*
X99210761Y-123785238D01*
X99258380Y-123642380D01*
X99258380Y-123547142D01*
X99210761Y-123404285D01*
X99163142Y-123356666D01*
X98829809Y-123356666D01*
X98829809Y-123547142D01*
X99258380Y-122404285D02*
X99258380Y-122975714D01*
X99258380Y-122690000D02*
X98258380Y-122690000D01*
X98401238Y-122785238D01*
X98496476Y-122880476D01*
X98544095Y-122975714D01*
X100431000Y-124086761D02*
X100431000Y-123086761D01*
X100846000Y-123324857D02*
X100798380Y-123420095D01*
X100798380Y-123562952D01*
X100846000Y-123705809D01*
X100941238Y-123801047D01*
X101036476Y-123848666D01*
X101226952Y-123896285D01*
X101369809Y-123896285D01*
X101560285Y-123848666D01*
X101655523Y-123801047D01*
X101750761Y-123705809D01*
X101798380Y-123562952D01*
X101798380Y-123467714D01*
X101750761Y-123324857D01*
X101703142Y-123277238D01*
X101369809Y-123277238D01*
X101369809Y-123467714D01*
X100431000Y-123086761D02*
X100431000Y-122134380D01*
X100893619Y-122896285D02*
X100846000Y-122848666D01*
X100798380Y-122753428D01*
X100798380Y-122515333D01*
X100846000Y-122420095D01*
X100893619Y-122372476D01*
X100988857Y-122324857D01*
X101084095Y-122324857D01*
X101226952Y-122372476D01*
X101798380Y-122943904D01*
X101798380Y-122324857D01*
X100431000Y-122134380D02*
X100431000Y-121277238D01*
X101512666Y-121943904D02*
X101512666Y-121467714D01*
X101798380Y-122039142D02*
X100798380Y-121705809D01*
X101798380Y-121372476D01*
X102971000Y-124158190D02*
X102971000Y-123158190D01*
X103386000Y-123396285D02*
X103338380Y-123491523D01*
X103338380Y-123634380D01*
X103386000Y-123777238D01*
X103481238Y-123872476D01*
X103576476Y-123920095D01*
X103766952Y-123967714D01*
X103909809Y-123967714D01*
X104100285Y-123920095D01*
X104195523Y-123872476D01*
X104290761Y-123777238D01*
X104338380Y-123634380D01*
X104338380Y-123539142D01*
X104290761Y-123396285D01*
X104243142Y-123348666D01*
X103909809Y-123348666D01*
X103909809Y-123539142D01*
X102971000Y-123158190D02*
X102971000Y-122205809D01*
X103433619Y-122967714D02*
X103386000Y-122920095D01*
X103338380Y-122824857D01*
X103338380Y-122586761D01*
X103386000Y-122491523D01*
X103433619Y-122443904D01*
X103528857Y-122396285D01*
X103624095Y-122396285D01*
X103766952Y-122443904D01*
X104338380Y-123015333D01*
X104338380Y-122396285D01*
X102971000Y-122205809D02*
X102971000Y-121205809D01*
X103814571Y-121634380D02*
X103862190Y-121491523D01*
X103909809Y-121443904D01*
X104005047Y-121396285D01*
X104147904Y-121396285D01*
X104243142Y-121443904D01*
X104290761Y-121491523D01*
X104338380Y-121586761D01*
X104338380Y-121967714D01*
X103338380Y-121967714D01*
X103338380Y-121634380D01*
X103386000Y-121539142D01*
X103433619Y-121491523D01*
X103528857Y-121443904D01*
X103624095Y-121443904D01*
X103719333Y-121491523D01*
X103766952Y-121539142D01*
X103814571Y-121634380D01*
X103814571Y-121967714D01*
X106592666Y-123872476D02*
X106592666Y-123396285D01*
X106878380Y-123967714D02*
X105878380Y-123634380D01*
X106878380Y-123301047D01*
X106878380Y-122443904D02*
X106878380Y-123015333D01*
X106878380Y-122729619D02*
X105878380Y-122729619D01*
X106021238Y-122824857D01*
X106116476Y-122920095D01*
X106164095Y-123015333D01*
X105878380Y-122110571D02*
X105878380Y-121443904D01*
X106878380Y-121872476D01*
X109132666Y-123872476D02*
X109132666Y-123396285D01*
X109418380Y-123967714D02*
X108418380Y-123634380D01*
X109418380Y-123301047D01*
X109418380Y-122443904D02*
X109418380Y-123015333D01*
X109418380Y-122729619D02*
X108418380Y-122729619D01*
X108561238Y-122824857D01*
X108656476Y-122920095D01*
X108704095Y-123015333D01*
X108418380Y-121586761D02*
X108418380Y-121777238D01*
X108466000Y-121872476D01*
X108513619Y-121920095D01*
X108656476Y-122015333D01*
X108846952Y-122062952D01*
X109227904Y-122062952D01*
X109323142Y-122015333D01*
X109370761Y-121967714D01*
X109418380Y-121872476D01*
X109418380Y-121682000D01*
X109370761Y-121586761D01*
X109323142Y-121539142D01*
X109227904Y-121491523D01*
X108989809Y-121491523D01*
X108894571Y-121539142D01*
X108846952Y-121586761D01*
X108799333Y-121682000D01*
X108799333Y-121872476D01*
X108846952Y-121967714D01*
X108894571Y-122015333D01*
X108989809Y-122062952D01*
X111672666Y-123872476D02*
X111672666Y-123396285D01*
X111958380Y-123967714D02*
X110958380Y-123634380D01*
X111958380Y-123301047D01*
X111958380Y-122443904D02*
X111958380Y-123015333D01*
X111958380Y-122729619D02*
X110958380Y-122729619D01*
X111101238Y-122824857D01*
X111196476Y-122920095D01*
X111244095Y-123015333D01*
X110958380Y-121539142D02*
X110958380Y-122015333D01*
X111434571Y-122062952D01*
X111386952Y-122015333D01*
X111339333Y-121920095D01*
X111339333Y-121682000D01*
X111386952Y-121586761D01*
X111434571Y-121539142D01*
X111529809Y-121491523D01*
X111767904Y-121491523D01*
X111863142Y-121539142D01*
X111910761Y-121586761D01*
X111958380Y-121682000D01*
X111958380Y-121920095D01*
X111910761Y-122015333D01*
X111863142Y-122062952D01*
X114212666Y-123872476D02*
X114212666Y-123396285D01*
X114498380Y-123967714D02*
X113498380Y-123634380D01*
X114498380Y-123301047D01*
X114498380Y-122443904D02*
X114498380Y-123015333D01*
X114498380Y-122729619D02*
X113498380Y-122729619D01*
X113641238Y-122824857D01*
X113736476Y-122920095D01*
X113784095Y-123015333D01*
X113831714Y-121586761D02*
X114498380Y-121586761D01*
X113450761Y-121824857D02*
X114165047Y-122062952D01*
X114165047Y-121443904D01*
X116752666Y-123872476D02*
X116752666Y-123396285D01*
X117038380Y-123967714D02*
X116038380Y-123634380D01*
X117038380Y-123301047D01*
X117038380Y-122443904D02*
X117038380Y-123015333D01*
X117038380Y-122729619D02*
X116038380Y-122729619D01*
X116181238Y-122824857D01*
X116276476Y-122920095D01*
X116324095Y-123015333D01*
X116038380Y-122110571D02*
X116038380Y-121491523D01*
X116419333Y-121824857D01*
X116419333Y-121682000D01*
X116466952Y-121586761D01*
X116514571Y-121539142D01*
X116609809Y-121491523D01*
X116847904Y-121491523D01*
X116943142Y-121539142D01*
X116990761Y-121586761D01*
X117038380Y-121682000D01*
X117038380Y-121967714D01*
X116990761Y-122062952D01*
X116943142Y-122110571D01*
X119292666Y-123872476D02*
X119292666Y-123396285D01*
X119578380Y-123967714D02*
X118578380Y-123634380D01*
X119578380Y-123301047D01*
X119578380Y-122443904D02*
X119578380Y-123015333D01*
X119578380Y-122729619D02*
X118578380Y-122729619D01*
X118721238Y-122824857D01*
X118816476Y-122920095D01*
X118864095Y-123015333D01*
X118673619Y-122062952D02*
X118626000Y-122015333D01*
X118578380Y-121920095D01*
X118578380Y-121682000D01*
X118626000Y-121586761D01*
X118673619Y-121539142D01*
X118768857Y-121491523D01*
X118864095Y-121491523D01*
X119006952Y-121539142D01*
X119578380Y-122110571D01*
X119578380Y-121491523D01*
X121578666Y-123872476D02*
X121578666Y-123396285D01*
X121864380Y-123967714D02*
X120864380Y-123634380D01*
X121864380Y-123301047D01*
X121864380Y-122443904D02*
X121864380Y-123015333D01*
X121864380Y-122729619D02*
X120864380Y-122729619D01*
X121007238Y-122824857D01*
X121102476Y-122920095D01*
X121150095Y-123015333D01*
X121864380Y-121491523D02*
X121864380Y-122062952D01*
X121864380Y-121777238D02*
X120864380Y-121777238D01*
X121007238Y-121872476D01*
X121102476Y-121967714D01*
X121150095Y-122062952D01*
X124372666Y-123872476D02*
X124372666Y-123396285D01*
X124658380Y-123967714D02*
X123658380Y-123634380D01*
X124658380Y-123301047D01*
X124658380Y-122443904D02*
X124658380Y-123015333D01*
X124658380Y-122729619D02*
X123658380Y-122729619D01*
X123801238Y-122824857D01*
X123896476Y-122920095D01*
X123944095Y-123015333D01*
X123658380Y-121824857D02*
X123658380Y-121729619D01*
X123706000Y-121634380D01*
X123753619Y-121586761D01*
X123848857Y-121539142D01*
X124039333Y-121491523D01*
X124277428Y-121491523D01*
X124467904Y-121539142D01*
X124563142Y-121586761D01*
X124610761Y-121634380D01*
X124658380Y-121729619D01*
X124658380Y-121824857D01*
X124610761Y-121920095D01*
X124563142Y-121967714D01*
X124467904Y-122015333D01*
X124277428Y-122062952D01*
X124039333Y-122062952D01*
X123848857Y-122015333D01*
X123753619Y-121967714D01*
X123706000Y-121920095D01*
X123658380Y-121824857D01*
X126912666Y-123904285D02*
X126912666Y-123428095D01*
X127198380Y-123999523D02*
X126198380Y-123666190D01*
X127198380Y-123332857D01*
X127198380Y-122951904D02*
X127198380Y-122761428D01*
X127150761Y-122666190D01*
X127103142Y-122618571D01*
X126960285Y-122523333D01*
X126769809Y-122475714D01*
X126388857Y-122475714D01*
X126293619Y-122523333D01*
X126246000Y-122570952D01*
X126198380Y-122666190D01*
X126198380Y-122856666D01*
X126246000Y-122951904D01*
X126293619Y-122999523D01*
X126388857Y-123047142D01*
X126626952Y-123047142D01*
X126722190Y-122999523D01*
X126769809Y-122951904D01*
X126817428Y-122856666D01*
X126817428Y-122666190D01*
X126769809Y-122570952D01*
X126722190Y-122523333D01*
X126626952Y-122475714D01*
X129452666Y-123904285D02*
X129452666Y-123428095D01*
X129738380Y-123999523D02*
X128738380Y-123666190D01*
X129738380Y-123332857D01*
X129166952Y-122856666D02*
X129119333Y-122951904D01*
X129071714Y-122999523D01*
X128976476Y-123047142D01*
X128928857Y-123047142D01*
X128833619Y-122999523D01*
X128786000Y-122951904D01*
X128738380Y-122856666D01*
X128738380Y-122666190D01*
X128786000Y-122570952D01*
X128833619Y-122523333D01*
X128928857Y-122475714D01*
X128976476Y-122475714D01*
X129071714Y-122523333D01*
X129119333Y-122570952D01*
X129166952Y-122666190D01*
X129166952Y-122856666D01*
X129214571Y-122951904D01*
X129262190Y-122999523D01*
X129357428Y-123047142D01*
X129547904Y-123047142D01*
X129643142Y-122999523D01*
X129690761Y-122951904D01*
X129738380Y-122856666D01*
X129738380Y-122666190D01*
X129690761Y-122570952D01*
X129643142Y-122523333D01*
X129547904Y-122475714D01*
X129357428Y-122475714D01*
X129262190Y-122523333D01*
X129214571Y-122570952D01*
X129166952Y-122666190D01*
X131992666Y-123904285D02*
X131992666Y-123428095D01*
X132278380Y-123999523D02*
X131278380Y-123666190D01*
X132278380Y-123332857D01*
X131278380Y-123094761D02*
X131278380Y-122428095D01*
X132278380Y-122856666D01*
X134532666Y-123904285D02*
X134532666Y-123428095D01*
X134818380Y-123999523D02*
X133818380Y-123666190D01*
X134818380Y-123332857D01*
X133818380Y-122570952D02*
X133818380Y-122761428D01*
X133866000Y-122856666D01*
X133913619Y-122904285D01*
X134056476Y-122999523D01*
X134246952Y-123047142D01*
X134627904Y-123047142D01*
X134723142Y-122999523D01*
X134770761Y-122951904D01*
X134818380Y-122856666D01*
X134818380Y-122666190D01*
X134770761Y-122570952D01*
X134723142Y-122523333D01*
X134627904Y-122475714D01*
X134389809Y-122475714D01*
X134294571Y-122523333D01*
X134246952Y-122570952D01*
X134199333Y-122666190D01*
X134199333Y-122856666D01*
X134246952Y-122951904D01*
X134294571Y-122999523D01*
X134389809Y-123047142D01*
X137072666Y-123904285D02*
X137072666Y-123428095D01*
X137358380Y-123999523D02*
X136358380Y-123666190D01*
X137358380Y-123332857D01*
X136358380Y-122523333D02*
X136358380Y-122999523D01*
X136834571Y-123047142D01*
X136786952Y-122999523D01*
X136739333Y-122904285D01*
X136739333Y-122666190D01*
X136786952Y-122570952D01*
X136834571Y-122523333D01*
X136929809Y-122475714D01*
X137167904Y-122475714D01*
X137263142Y-122523333D01*
X137310761Y-122570952D01*
X137358380Y-122666190D01*
X137358380Y-122904285D01*
X137310761Y-122999523D01*
X137263142Y-123047142D01*
X139612666Y-123904285D02*
X139612666Y-123428095D01*
X139898380Y-123999523D02*
X138898380Y-123666190D01*
X139898380Y-123332857D01*
X139231714Y-122570952D02*
X139898380Y-122570952D01*
X138850761Y-122809047D02*
X139565047Y-123047142D01*
X139565047Y-122428095D01*
X142152666Y-123904285D02*
X142152666Y-123428095D01*
X142438380Y-123999523D02*
X141438380Y-123666190D01*
X142438380Y-123332857D01*
X141438380Y-123094761D02*
X141438380Y-122475714D01*
X141819333Y-122809047D01*
X141819333Y-122666190D01*
X141866952Y-122570952D01*
X141914571Y-122523333D01*
X142009809Y-122475714D01*
X142247904Y-122475714D01*
X142343142Y-122523333D01*
X142390761Y-122570952D01*
X142438380Y-122666190D01*
X142438380Y-122951904D01*
X142390761Y-123047142D01*
X142343142Y-123094761D01*
X144692666Y-123904285D02*
X144692666Y-123428095D01*
X144978380Y-123999523D02*
X143978380Y-123666190D01*
X144978380Y-123332857D01*
X144073619Y-123047142D02*
X144026000Y-122999523D01*
X143978380Y-122904285D01*
X143978380Y-122666190D01*
X144026000Y-122570952D01*
X144073619Y-122523333D01*
X144168857Y-122475714D01*
X144264095Y-122475714D01*
X144406952Y-122523333D01*
X144978380Y-123094761D01*
X144978380Y-122475714D01*
X147232666Y-123904285D02*
X147232666Y-123428095D01*
X147518380Y-123999523D02*
X146518380Y-123666190D01*
X147518380Y-123332857D01*
X147518380Y-122475714D02*
X147518380Y-123047142D01*
X147518380Y-122761428D02*
X146518380Y-122761428D01*
X146661238Y-122856666D01*
X146756476Y-122951904D01*
X146804095Y-123047142D01*
X149772666Y-123904285D02*
X149772666Y-123428095D01*
X150058380Y-123999523D02*
X149058380Y-123666190D01*
X150058380Y-123332857D01*
X149058380Y-122809047D02*
X149058380Y-122713809D01*
X149106000Y-122618571D01*
X149153619Y-122570952D01*
X149248857Y-122523333D01*
X149439333Y-122475714D01*
X149677428Y-122475714D01*
X149867904Y-122523333D01*
X149963142Y-122570952D01*
X150010761Y-122618571D01*
X150058380Y-122713809D01*
X150058380Y-122809047D01*
X150010761Y-122904285D01*
X149963142Y-122951904D01*
X149867904Y-122999523D01*
X149677428Y-123047142D01*
X149439333Y-123047142D01*
X149248857Y-122999523D01*
X149153619Y-122951904D01*
X149106000Y-122904285D01*
X149058380Y-122809047D01*
X152693619Y-123285238D02*
X152646000Y-123380476D01*
X152550761Y-123475714D01*
X152407904Y-123618571D01*
X152360285Y-123713809D01*
X152360285Y-123809047D01*
X152598380Y-123761428D02*
X152550761Y-123856666D01*
X152455523Y-123951904D01*
X152265047Y-123999523D01*
X151931714Y-123999523D01*
X151741238Y-123951904D01*
X151646000Y-123856666D01*
X151598380Y-123761428D01*
X151598380Y-123570952D01*
X151646000Y-123475714D01*
X151741238Y-123380476D01*
X151931714Y-123332857D01*
X152265047Y-123332857D01*
X152455523Y-123380476D01*
X152550761Y-123475714D01*
X152598380Y-123570952D01*
X152598380Y-123761428D01*
X151598380Y-122999523D02*
X151598380Y-122332857D01*
X152598380Y-122761428D01*
X155233619Y-123285238D02*
X155186000Y-123380476D01*
X155090761Y-123475714D01*
X154947904Y-123618571D01*
X154900285Y-123713809D01*
X154900285Y-123809047D01*
X155138380Y-123761428D02*
X155090761Y-123856666D01*
X154995523Y-123951904D01*
X154805047Y-123999523D01*
X154471714Y-123999523D01*
X154281238Y-123951904D01*
X154186000Y-123856666D01*
X154138380Y-123761428D01*
X154138380Y-123570952D01*
X154186000Y-123475714D01*
X154281238Y-123380476D01*
X154471714Y-123332857D01*
X154805047Y-123332857D01*
X154995523Y-123380476D01*
X155090761Y-123475714D01*
X155138380Y-123570952D01*
X155138380Y-123761428D01*
X154138380Y-122475714D02*
X154138380Y-122666190D01*
X154186000Y-122761428D01*
X154233619Y-122809047D01*
X154376476Y-122904285D01*
X154566952Y-122951904D01*
X154947904Y-122951904D01*
X155043142Y-122904285D01*
X155090761Y-122856666D01*
X155138380Y-122761428D01*
X155138380Y-122570952D01*
X155090761Y-122475714D01*
X155043142Y-122428095D01*
X154947904Y-122380476D01*
X154709809Y-122380476D01*
X154614571Y-122428095D01*
X154566952Y-122475714D01*
X154519333Y-122570952D01*
X154519333Y-122761428D01*
X154566952Y-122856666D01*
X154614571Y-122904285D01*
X154709809Y-122951904D01*
X157773619Y-123285238D02*
X157726000Y-123380476D01*
X157630761Y-123475714D01*
X157487904Y-123618571D01*
X157440285Y-123713809D01*
X157440285Y-123809047D01*
X157678380Y-123761428D02*
X157630761Y-123856666D01*
X157535523Y-123951904D01*
X157345047Y-123999523D01*
X157011714Y-123999523D01*
X156821238Y-123951904D01*
X156726000Y-123856666D01*
X156678380Y-123761428D01*
X156678380Y-123570952D01*
X156726000Y-123475714D01*
X156821238Y-123380476D01*
X157011714Y-123332857D01*
X157345047Y-123332857D01*
X157535523Y-123380476D01*
X157630761Y-123475714D01*
X157678380Y-123570952D01*
X157678380Y-123761428D01*
X156678380Y-122428095D02*
X156678380Y-122904285D01*
X157154571Y-122951904D01*
X157106952Y-122904285D01*
X157059333Y-122809047D01*
X157059333Y-122570952D01*
X157106952Y-122475714D01*
X157154571Y-122428095D01*
X157249809Y-122380476D01*
X157487904Y-122380476D01*
X157583142Y-122428095D01*
X157630761Y-122475714D01*
X157678380Y-122570952D01*
X157678380Y-122809047D01*
X157630761Y-122904285D01*
X157583142Y-122951904D01*
X160313619Y-123285238D02*
X160266000Y-123380476D01*
X160170761Y-123475714D01*
X160027904Y-123618571D01*
X159980285Y-123713809D01*
X159980285Y-123809047D01*
X160218380Y-123761428D02*
X160170761Y-123856666D01*
X160075523Y-123951904D01*
X159885047Y-123999523D01*
X159551714Y-123999523D01*
X159361238Y-123951904D01*
X159266000Y-123856666D01*
X159218380Y-123761428D01*
X159218380Y-123570952D01*
X159266000Y-123475714D01*
X159361238Y-123380476D01*
X159551714Y-123332857D01*
X159885047Y-123332857D01*
X160075523Y-123380476D01*
X160170761Y-123475714D01*
X160218380Y-123570952D01*
X160218380Y-123761428D01*
X159551714Y-122475714D02*
X160218380Y-122475714D01*
X159170761Y-122713809D02*
X159885047Y-122951904D01*
X159885047Y-122332857D01*
X162853619Y-123285238D02*
X162806000Y-123380476D01*
X162710761Y-123475714D01*
X162567904Y-123618571D01*
X162520285Y-123713809D01*
X162520285Y-123809047D01*
X162758380Y-123761428D02*
X162710761Y-123856666D01*
X162615523Y-123951904D01*
X162425047Y-123999523D01*
X162091714Y-123999523D01*
X161901238Y-123951904D01*
X161806000Y-123856666D01*
X161758380Y-123761428D01*
X161758380Y-123570952D01*
X161806000Y-123475714D01*
X161901238Y-123380476D01*
X162091714Y-123332857D01*
X162425047Y-123332857D01*
X162615523Y-123380476D01*
X162710761Y-123475714D01*
X162758380Y-123570952D01*
X162758380Y-123761428D01*
X161758380Y-122999523D02*
X161758380Y-122380476D01*
X162139333Y-122713809D01*
X162139333Y-122570952D01*
X162186952Y-122475714D01*
X162234571Y-122428095D01*
X162329809Y-122380476D01*
X162567904Y-122380476D01*
X162663142Y-122428095D01*
X162710761Y-122475714D01*
X162758380Y-122570952D01*
X162758380Y-122856666D01*
X162710761Y-122951904D01*
X162663142Y-122999523D01*
X165393619Y-123285238D02*
X165346000Y-123380476D01*
X165250761Y-123475714D01*
X165107904Y-123618571D01*
X165060285Y-123713809D01*
X165060285Y-123809047D01*
X165298380Y-123761428D02*
X165250761Y-123856666D01*
X165155523Y-123951904D01*
X164965047Y-123999523D01*
X164631714Y-123999523D01*
X164441238Y-123951904D01*
X164346000Y-123856666D01*
X164298380Y-123761428D01*
X164298380Y-123570952D01*
X164346000Y-123475714D01*
X164441238Y-123380476D01*
X164631714Y-123332857D01*
X164965047Y-123332857D01*
X165155523Y-123380476D01*
X165250761Y-123475714D01*
X165298380Y-123570952D01*
X165298380Y-123761428D01*
X164393619Y-122951904D02*
X164346000Y-122904285D01*
X164298380Y-122809047D01*
X164298380Y-122570952D01*
X164346000Y-122475714D01*
X164393619Y-122428095D01*
X164488857Y-122380476D01*
X164584095Y-122380476D01*
X164726952Y-122428095D01*
X165298380Y-122999523D01*
X165298380Y-122380476D01*
X167933619Y-123285238D02*
X167886000Y-123380476D01*
X167790761Y-123475714D01*
X167647904Y-123618571D01*
X167600285Y-123713809D01*
X167600285Y-123809047D01*
X167838380Y-123761428D02*
X167790761Y-123856666D01*
X167695523Y-123951904D01*
X167505047Y-123999523D01*
X167171714Y-123999523D01*
X166981238Y-123951904D01*
X166886000Y-123856666D01*
X166838380Y-123761428D01*
X166838380Y-123570952D01*
X166886000Y-123475714D01*
X166981238Y-123380476D01*
X167171714Y-123332857D01*
X167505047Y-123332857D01*
X167695523Y-123380476D01*
X167790761Y-123475714D01*
X167838380Y-123570952D01*
X167838380Y-123761428D01*
X167838380Y-122380476D02*
X167838380Y-122951904D01*
X167838380Y-122666190D02*
X166838380Y-122666190D01*
X166981238Y-122761428D01*
X167076476Y-122856666D01*
X167124095Y-122951904D01*
X170473619Y-123285238D02*
X170426000Y-123380476D01*
X170330761Y-123475714D01*
X170187904Y-123618571D01*
X170140285Y-123713809D01*
X170140285Y-123809047D01*
X170378380Y-123761428D02*
X170330761Y-123856666D01*
X170235523Y-123951904D01*
X170045047Y-123999523D01*
X169711714Y-123999523D01*
X169521238Y-123951904D01*
X169426000Y-123856666D01*
X169378380Y-123761428D01*
X169378380Y-123570952D01*
X169426000Y-123475714D01*
X169521238Y-123380476D01*
X169711714Y-123332857D01*
X170045047Y-123332857D01*
X170235523Y-123380476D01*
X170330761Y-123475714D01*
X170378380Y-123570952D01*
X170378380Y-123761428D01*
X169378380Y-122713809D02*
X169378380Y-122618571D01*
X169426000Y-122523333D01*
X169473619Y-122475714D01*
X169568857Y-122428095D01*
X169759333Y-122380476D01*
X169997428Y-122380476D01*
X170187904Y-122428095D01*
X170283142Y-122475714D01*
X170330761Y-122523333D01*
X170378380Y-122618571D01*
X170378380Y-122713809D01*
X170330761Y-122809047D01*
X170283142Y-122856666D01*
X170187904Y-122904285D01*
X169997428Y-122951904D01*
X169759333Y-122951904D01*
X169568857Y-122904285D01*
X169473619Y-122856666D01*
X169426000Y-122809047D01*
X169378380Y-122713809D01*
D11*
X95106000Y-84575000D02*
X93456000Y-84575000D01*
X95106000Y-120255000D02*
X95106000Y-84575000D01*
X89806000Y-120255000D02*
X95106000Y-120255000D01*
X89806000Y-84575000D02*
X89806000Y-120255000D01*
X91456000Y-84575000D02*
X89806000Y-84575000D01*
X93456000Y-84575000D02*
G75*
G02*
X91456000Y-84575000I-1000000J0D01*
G01*
X84184000Y-92142000D02*
X82534000Y-92142000D01*
X84184000Y-112582000D02*
X84184000Y-92142000D01*
X78884000Y-112582000D02*
X84184000Y-112582000D01*
X78884000Y-92142000D02*
X78884000Y-112582000D01*
X80534000Y-92142000D02*
X78884000Y-92142000D01*
X82534000Y-92142000D02*
G75*
G02*
X80534000Y-92142000I-1000000J0D01*
G01*
X171560000Y-84575000D02*
X169910000Y-84575000D01*
X171560000Y-120255000D02*
X171560000Y-84575000D01*
X166260000Y-120255000D02*
X171560000Y-120255000D01*
X166260000Y-84575000D02*
X166260000Y-120255000D01*
X167910000Y-84575000D02*
X166260000Y-84575000D01*
X169910000Y-84575000D02*
G75*
G02*
X167910000Y-84575000I-1000000J0D01*
G01*
X160638000Y-84575000D02*
X158988000Y-84575000D01*
X160638000Y-120255000D02*
X160638000Y-84575000D01*
X155338000Y-120255000D02*
X160638000Y-120255000D01*
X155338000Y-84575000D02*
X155338000Y-120255000D01*
X156988000Y-84575000D02*
X155338000Y-84575000D01*
X158988000Y-84575000D02*
G75*
G02*
X156988000Y-84575000I-1000000J0D01*
G01*
X149716000Y-84575000D02*
X148066000Y-84575000D01*
X149716000Y-120255000D02*
X149716000Y-84575000D01*
X144416000Y-120255000D02*
X149716000Y-120255000D01*
X144416000Y-84575000D02*
X144416000Y-120255000D01*
X146066000Y-84575000D02*
X144416000Y-84575000D01*
X148066000Y-84575000D02*
G75*
G02*
X146066000Y-84575000I-1000000J0D01*
G01*
X138794000Y-84575000D02*
X137144000Y-84575000D01*
X138794000Y-120255000D02*
X138794000Y-84575000D01*
X133494000Y-120255000D02*
X138794000Y-120255000D01*
X133494000Y-84575000D02*
X133494000Y-120255000D01*
X135144000Y-84575000D02*
X133494000Y-84575000D01*
X137144000Y-84575000D02*
G75*
G02*
X135144000Y-84575000I-1000000J0D01*
G01*
X127872000Y-84575000D02*
X126222000Y-84575000D01*
X127872000Y-120255000D02*
X127872000Y-84575000D01*
X122572000Y-120255000D02*
X127872000Y-120255000D01*
X122572000Y-84575000D02*
X122572000Y-120255000D01*
X124222000Y-84575000D02*
X122572000Y-84575000D01*
X126222000Y-84575000D02*
G75*
G02*
X124222000Y-84575000I-1000000J0D01*
G01*
X116950000Y-84575000D02*
X115300000Y-84575000D01*
X116950000Y-120255000D02*
X116950000Y-84575000D01*
X111650000Y-120255000D02*
X116950000Y-120255000D01*
X111650000Y-84575000D02*
X111650000Y-120255000D01*
X113300000Y-84575000D02*
X111650000Y-84575000D01*
X115300000Y-84575000D02*
G75*
G02*
X113300000Y-84575000I-1000000J0D01*
G01*
X106028000Y-84575000D02*
X104378000Y-84575000D01*
X106028000Y-120255000D02*
X106028000Y-84575000D01*
X100728000Y-120255000D02*
X106028000Y-120255000D01*
X100728000Y-84575000D02*
X100728000Y-120255000D01*
X102378000Y-84575000D02*
X100728000Y-84575000D01*
X104378000Y-84575000D02*
G75*
G02*
X102378000Y-84575000I-1000000J0D01*
G01*
X87316000Y-125730000D02*
X87316000Y-124400000D01*
X87316000Y-124400000D02*
X88646000Y-124400000D01*
X89916000Y-124400000D02*
X171256000Y-124400000D01*
X171256000Y-127060000D02*
X171256000Y-124400000D01*
X89916000Y-127060000D02*
X171256000Y-127060000D01*
X89916000Y-127060000D02*
X89916000Y-124400000D01*
D10*
X87630095Y-83018380D02*
X87630095Y-83827904D01*
X87677714Y-83923142D01*
X87725333Y-83970761D01*
X87820571Y-84018380D01*
X88011047Y-84018380D01*
X88106285Y-83970761D01*
X88153904Y-83923142D01*
X88201523Y-83827904D01*
X88201523Y-83018380D01*
X89201523Y-84018380D02*
X88630095Y-84018380D01*
X88915809Y-84018380D02*
X88915809Y-83018380D01*
X88820571Y-83161238D01*
X88725333Y-83256476D01*
X88630095Y-83304095D01*
X76733495Y-90587580D02*
X76733495Y-91397104D01*
X76781114Y-91492342D01*
X76828733Y-91539961D01*
X76923971Y-91587580D01*
X77114447Y-91587580D01*
X77209685Y-91539961D01*
X77257304Y-91492342D01*
X77304923Y-91397104D01*
X77304923Y-90587580D01*
X77828733Y-91587580D02*
X78019209Y-91587580D01*
X78114447Y-91539961D01*
X78162066Y-91492342D01*
X78257304Y-91349485D01*
X78304923Y-91159009D01*
X78304923Y-90778057D01*
X78257304Y-90682819D01*
X78209685Y-90635200D01*
X78114447Y-90587580D01*
X77923971Y-90587580D01*
X77828733Y-90635200D01*
X77781114Y-90682819D01*
X77733495Y-90778057D01*
X77733495Y-91016152D01*
X77781114Y-91111390D01*
X77828733Y-91159009D01*
X77923971Y-91206628D01*
X78114447Y-91206628D01*
X78209685Y-91159009D01*
X78257304Y-91111390D01*
X78304923Y-91016152D01*
X164338095Y-83018380D02*
X164338095Y-83827904D01*
X164385714Y-83923142D01*
X164433333Y-83970761D01*
X164528571Y-84018380D01*
X164719047Y-84018380D01*
X164814285Y-83970761D01*
X164861904Y-83923142D01*
X164909523Y-83827904D01*
X164909523Y-83018380D01*
X165528571Y-83446952D02*
X165433333Y-83399333D01*
X165385714Y-83351714D01*
X165338095Y-83256476D01*
X165338095Y-83208857D01*
X165385714Y-83113619D01*
X165433333Y-83066000D01*
X165528571Y-83018380D01*
X165719047Y-83018380D01*
X165814285Y-83066000D01*
X165861904Y-83113619D01*
X165909523Y-83208857D01*
X165909523Y-83256476D01*
X165861904Y-83351714D01*
X165814285Y-83399333D01*
X165719047Y-83446952D01*
X165528571Y-83446952D01*
X165433333Y-83494571D01*
X165385714Y-83542190D01*
X165338095Y-83637428D01*
X165338095Y-83827904D01*
X165385714Y-83923142D01*
X165433333Y-83970761D01*
X165528571Y-84018380D01*
X165719047Y-84018380D01*
X165814285Y-83970761D01*
X165861904Y-83923142D01*
X165909523Y-83827904D01*
X165909523Y-83637428D01*
X165861904Y-83542190D01*
X165814285Y-83494571D01*
X165719047Y-83446952D01*
X153416095Y-83018380D02*
X153416095Y-83827904D01*
X153463714Y-83923142D01*
X153511333Y-83970761D01*
X153606571Y-84018380D01*
X153797047Y-84018380D01*
X153892285Y-83970761D01*
X153939904Y-83923142D01*
X153987523Y-83827904D01*
X153987523Y-83018380D01*
X154368476Y-83018380D02*
X155035142Y-83018380D01*
X154606571Y-84018380D01*
X142494095Y-83018380D02*
X142494095Y-83827904D01*
X142541714Y-83923142D01*
X142589333Y-83970761D01*
X142684571Y-84018380D01*
X142875047Y-84018380D01*
X142970285Y-83970761D01*
X143017904Y-83923142D01*
X143065523Y-83827904D01*
X143065523Y-83018380D01*
X143970285Y-83018380D02*
X143779809Y-83018380D01*
X143684571Y-83066000D01*
X143636952Y-83113619D01*
X143541714Y-83256476D01*
X143494095Y-83446952D01*
X143494095Y-83827904D01*
X143541714Y-83923142D01*
X143589333Y-83970761D01*
X143684571Y-84018380D01*
X143875047Y-84018380D01*
X143970285Y-83970761D01*
X144017904Y-83923142D01*
X144065523Y-83827904D01*
X144065523Y-83589809D01*
X144017904Y-83494571D01*
X143970285Y-83446952D01*
X143875047Y-83399333D01*
X143684571Y-83399333D01*
X143589333Y-83446952D01*
X143541714Y-83494571D01*
X143494095Y-83589809D01*
X131572095Y-83018380D02*
X131572095Y-83827904D01*
X131619714Y-83923142D01*
X131667333Y-83970761D01*
X131762571Y-84018380D01*
X131953047Y-84018380D01*
X132048285Y-83970761D01*
X132095904Y-83923142D01*
X132143523Y-83827904D01*
X132143523Y-83018380D01*
X133095904Y-83018380D02*
X132619714Y-83018380D01*
X132572095Y-83494571D01*
X132619714Y-83446952D01*
X132714952Y-83399333D01*
X132953047Y-83399333D01*
X133048285Y-83446952D01*
X133095904Y-83494571D01*
X133143523Y-83589809D01*
X133143523Y-83827904D01*
X133095904Y-83923142D01*
X133048285Y-83970761D01*
X132953047Y-84018380D01*
X132714952Y-84018380D01*
X132619714Y-83970761D01*
X132572095Y-83923142D01*
X120650095Y-83018380D02*
X120650095Y-83827904D01*
X120697714Y-83923142D01*
X120745333Y-83970761D01*
X120840571Y-84018380D01*
X121031047Y-84018380D01*
X121126285Y-83970761D01*
X121173904Y-83923142D01*
X121221523Y-83827904D01*
X121221523Y-83018380D01*
X122126285Y-83351714D02*
X122126285Y-84018380D01*
X121888190Y-82970761D02*
X121650095Y-83685047D01*
X122269142Y-83685047D01*
X109474095Y-83018380D02*
X109474095Y-83827904D01*
X109521714Y-83923142D01*
X109569333Y-83970761D01*
X109664571Y-84018380D01*
X109855047Y-84018380D01*
X109950285Y-83970761D01*
X109997904Y-83923142D01*
X110045523Y-83827904D01*
X110045523Y-83018380D01*
X110426476Y-83018380D02*
X111045523Y-83018380D01*
X110712190Y-83399333D01*
X110855047Y-83399333D01*
X110950285Y-83446952D01*
X110997904Y-83494571D01*
X111045523Y-83589809D01*
X111045523Y-83827904D01*
X110997904Y-83923142D01*
X110950285Y-83970761D01*
X110855047Y-84018380D01*
X110569333Y-84018380D01*
X110474095Y-83970761D01*
X110426476Y-83923142D01*
X98806095Y-83018380D02*
X98806095Y-83827904D01*
X98853714Y-83923142D01*
X98901333Y-83970761D01*
X98996571Y-84018380D01*
X99187047Y-84018380D01*
X99282285Y-83970761D01*
X99329904Y-83923142D01*
X99377523Y-83827904D01*
X99377523Y-83018380D01*
X99806095Y-83113619D02*
X99853714Y-83066000D01*
X99948952Y-83018380D01*
X100187047Y-83018380D01*
X100282285Y-83066000D01*
X100329904Y-83113619D01*
X100377523Y-83208857D01*
X100377523Y-83304095D01*
X100329904Y-83446952D01*
X99758476Y-84018380D01*
X100377523Y-84018380D01*
X85328380Y-126063333D02*
X86042666Y-126063333D01*
X86185523Y-126110952D01*
X86280761Y-126206190D01*
X86328380Y-126349047D01*
X86328380Y-126444285D01*
X86328380Y-125063333D02*
X86328380Y-125634761D01*
X86328380Y-125349047D02*
X85328380Y-125349047D01*
X85471238Y-125444285D01*
X85566476Y-125539523D01*
X85614095Y-125634761D01*
%LPC*%
D12*
X96266000Y-85905000D03*
X88646000Y-118925000D03*
X96266000Y-88445000D03*
X88646000Y-116385000D03*
X96266000Y-90985000D03*
X88646000Y-113845000D03*
X96266000Y-93525000D03*
X88646000Y-111305000D03*
X96266000Y-96065000D03*
X88646000Y-108765000D03*
X96266000Y-98605000D03*
X88646000Y-106225000D03*
X96266000Y-101145000D03*
X88646000Y-103685000D03*
X96266000Y-103685000D03*
X88646000Y-101145000D03*
X96266000Y-106225000D03*
X88646000Y-98605000D03*
X96266000Y-108765000D03*
X88646000Y-96065000D03*
X96266000Y-111305000D03*
X88646000Y-93525000D03*
X96266000Y-113845000D03*
X88646000Y-90985000D03*
X96266000Y-116385000D03*
X88646000Y-88445000D03*
X96266000Y-118925000D03*
D13*
X88646000Y-85905000D03*
D12*
X85344000Y-93472000D03*
X77724000Y-111252000D03*
X85344000Y-96012000D03*
X77724000Y-108712000D03*
X85344000Y-98552000D03*
X77724000Y-106172000D03*
X85344000Y-101092000D03*
X77724000Y-103632000D03*
X85344000Y-103632000D03*
X77724000Y-101092000D03*
X85344000Y-106172000D03*
X77724000Y-98552000D03*
X85344000Y-108712000D03*
X77724000Y-96012000D03*
X85344000Y-111252000D03*
D13*
X77724000Y-93472000D03*
D14*
X177546000Y-123444000D03*
X177546000Y-86360000D03*
X80010000Y-123444000D03*
X80010000Y-86360000D03*
D12*
X172720000Y-85905000D03*
X165100000Y-118925000D03*
X172720000Y-88445000D03*
X165100000Y-116385000D03*
X172720000Y-90985000D03*
X165100000Y-113845000D03*
X172720000Y-93525000D03*
X165100000Y-111305000D03*
X172720000Y-96065000D03*
X165100000Y-108765000D03*
X172720000Y-98605000D03*
X165100000Y-106225000D03*
X172720000Y-101145000D03*
X165100000Y-103685000D03*
X172720000Y-103685000D03*
X165100000Y-101145000D03*
X172720000Y-106225000D03*
X165100000Y-98605000D03*
X172720000Y-108765000D03*
X165100000Y-96065000D03*
X172720000Y-111305000D03*
X165100000Y-93525000D03*
X172720000Y-113845000D03*
X165100000Y-90985000D03*
X172720000Y-116385000D03*
X165100000Y-88445000D03*
X172720000Y-118925000D03*
D13*
X165100000Y-85905000D03*
D12*
X161798000Y-85905000D03*
X154178000Y-118925000D03*
X161798000Y-88445000D03*
X154178000Y-116385000D03*
X161798000Y-90985000D03*
X154178000Y-113845000D03*
X161798000Y-93525000D03*
X154178000Y-111305000D03*
X161798000Y-96065000D03*
X154178000Y-108765000D03*
X161798000Y-98605000D03*
X154178000Y-106225000D03*
X161798000Y-101145000D03*
X154178000Y-103685000D03*
X161798000Y-103685000D03*
X154178000Y-101145000D03*
X161798000Y-106225000D03*
X154178000Y-98605000D03*
X161798000Y-108765000D03*
X154178000Y-96065000D03*
X161798000Y-111305000D03*
X154178000Y-93525000D03*
X161798000Y-113845000D03*
X154178000Y-90985000D03*
X161798000Y-116385000D03*
X154178000Y-88445000D03*
X161798000Y-118925000D03*
D13*
X154178000Y-85905000D03*
D12*
X150876000Y-85905000D03*
X143256000Y-118925000D03*
X150876000Y-88445000D03*
X143256000Y-116385000D03*
X150876000Y-90985000D03*
X143256000Y-113845000D03*
X150876000Y-93525000D03*
X143256000Y-111305000D03*
X150876000Y-96065000D03*
X143256000Y-108765000D03*
X150876000Y-98605000D03*
X143256000Y-106225000D03*
X150876000Y-101145000D03*
X143256000Y-103685000D03*
X150876000Y-103685000D03*
X143256000Y-101145000D03*
X150876000Y-106225000D03*
X143256000Y-98605000D03*
X150876000Y-108765000D03*
X143256000Y-96065000D03*
X150876000Y-111305000D03*
X143256000Y-93525000D03*
X150876000Y-113845000D03*
X143256000Y-90985000D03*
X150876000Y-116385000D03*
X143256000Y-88445000D03*
X150876000Y-118925000D03*
D13*
X143256000Y-85905000D03*
D12*
X139954000Y-85905000D03*
X132334000Y-118925000D03*
X139954000Y-88445000D03*
X132334000Y-116385000D03*
X139954000Y-90985000D03*
X132334000Y-113845000D03*
X139954000Y-93525000D03*
X132334000Y-111305000D03*
X139954000Y-96065000D03*
X132334000Y-108765000D03*
X139954000Y-98605000D03*
X132334000Y-106225000D03*
X139954000Y-101145000D03*
X132334000Y-103685000D03*
X139954000Y-103685000D03*
X132334000Y-101145000D03*
X139954000Y-106225000D03*
X132334000Y-98605000D03*
X139954000Y-108765000D03*
X132334000Y-96065000D03*
X139954000Y-111305000D03*
X132334000Y-93525000D03*
X139954000Y-113845000D03*
X132334000Y-90985000D03*
X139954000Y-116385000D03*
X132334000Y-88445000D03*
X139954000Y-118925000D03*
D13*
X132334000Y-85905000D03*
D12*
X129032000Y-85905000D03*
X121412000Y-118925000D03*
X129032000Y-88445000D03*
X121412000Y-116385000D03*
X129032000Y-90985000D03*
X121412000Y-113845000D03*
X129032000Y-93525000D03*
X121412000Y-111305000D03*
X129032000Y-96065000D03*
X121412000Y-108765000D03*
X129032000Y-98605000D03*
X121412000Y-106225000D03*
X129032000Y-101145000D03*
X121412000Y-103685000D03*
X129032000Y-103685000D03*
X121412000Y-101145000D03*
X129032000Y-106225000D03*
X121412000Y-98605000D03*
X129032000Y-108765000D03*
X121412000Y-96065000D03*
X129032000Y-111305000D03*
X121412000Y-93525000D03*
X129032000Y-113845000D03*
X121412000Y-90985000D03*
X129032000Y-116385000D03*
X121412000Y-88445000D03*
X129032000Y-118925000D03*
D13*
X121412000Y-85905000D03*
D12*
X118110000Y-85905000D03*
X110490000Y-118925000D03*
X118110000Y-88445000D03*
X110490000Y-116385000D03*
X118110000Y-90985000D03*
X110490000Y-113845000D03*
X118110000Y-93525000D03*
X110490000Y-111305000D03*
X118110000Y-96065000D03*
X110490000Y-108765000D03*
X118110000Y-98605000D03*
X110490000Y-106225000D03*
X118110000Y-101145000D03*
X110490000Y-103685000D03*
X118110000Y-103685000D03*
X110490000Y-101145000D03*
X118110000Y-106225000D03*
X110490000Y-98605000D03*
X118110000Y-108765000D03*
X110490000Y-96065000D03*
X118110000Y-111305000D03*
X110490000Y-93525000D03*
X118110000Y-113845000D03*
X110490000Y-90985000D03*
X118110000Y-116385000D03*
X110490000Y-88445000D03*
X118110000Y-118925000D03*
D13*
X110490000Y-85905000D03*
D12*
X107188000Y-85905000D03*
X99568000Y-118925000D03*
X107188000Y-88445000D03*
X99568000Y-116385000D03*
X107188000Y-90985000D03*
X99568000Y-113845000D03*
X107188000Y-93525000D03*
X99568000Y-111305000D03*
X107188000Y-96065000D03*
X99568000Y-108765000D03*
X107188000Y-98605000D03*
X99568000Y-106225000D03*
X107188000Y-101145000D03*
X99568000Y-103685000D03*
X107188000Y-103685000D03*
X99568000Y-101145000D03*
X107188000Y-106225000D03*
X99568000Y-98605000D03*
X107188000Y-108765000D03*
X99568000Y-96065000D03*
X107188000Y-111305000D03*
X99568000Y-93525000D03*
X107188000Y-113845000D03*
X99568000Y-90985000D03*
X107188000Y-116385000D03*
X99568000Y-88445000D03*
X107188000Y-118925000D03*
D13*
X99568000Y-85905000D03*
D15*
X169926000Y-125730000D03*
X167386000Y-125730000D03*
X164846000Y-125730000D03*
X162306000Y-125730000D03*
X159766000Y-125730000D03*
X157226000Y-125730000D03*
X154686000Y-125730000D03*
X152146000Y-125730000D03*
X149606000Y-125730000D03*
X147066000Y-125730000D03*
X144526000Y-125730000D03*
X141986000Y-125730000D03*
X139446000Y-125730000D03*
X136906000Y-125730000D03*
X134366000Y-125730000D03*
X131826000Y-125730000D03*
X129286000Y-125730000D03*
X126746000Y-125730000D03*
X124206000Y-125730000D03*
X121666000Y-125730000D03*
X119126000Y-125730000D03*
X116586000Y-125730000D03*
X114046000Y-125730000D03*
X111506000Y-125730000D03*
X108966000Y-125730000D03*
X106426000Y-125730000D03*
X103886000Y-125730000D03*
X101346000Y-125730000D03*
X98806000Y-125730000D03*
X96266000Y-125730000D03*
X93726000Y-125730000D03*
X91186000Y-125730000D03*
D16*
X88646000Y-125730000D03*
M02*
