G04 #@! TF.GenerationSoftware,KiCad,Pcbnew,(5.1.9-0-10_14)*
G04 #@! TF.CreationDate,2021-06-10T12:36:41+02:00*
G04 #@! TF.ProjectId,Clock,436c6f63-6b2e-46b6-9963-61645f706362,rev?*
G04 #@! TF.SameCoordinates,Original*
G04 #@! TF.FileFunction,Soldermask,Bot*
G04 #@! TF.FilePolarity,Negative*
%FSLAX46Y46*%
G04 Gerber Fmt 4.6, Leading zero omitted, Abs format (unit mm)*
G04 Created by KiCad (PCBNEW (5.1.9-0-10_14)) date 2021-06-10 12:36:41*
%MOMM*%
%LPD*%
G01*
G04 APERTURE LIST*
%ADD10C,2.340000*%
%ADD11O,1.700000X1.700000*%
%ADD12R,1.700000X1.700000*%
%ADD13O,1.600000X1.600000*%
%ADD14R,1.600000X1.600000*%
%ADD15C,2.000000*%
%ADD16C,1.600000*%
%ADD17C,6.400000*%
%ADD18C,1.800000*%
%ADD19R,1.800000X1.800000*%
%ADD20C,1.200000*%
%ADD21R,1.200000X1.200000*%
%ADD22R,1.050000X1.500000*%
%ADD23O,1.050000X1.500000*%
G04 APERTURE END LIST*
D10*
X117260000Y-133650000D03*
X117260000Y-128650000D03*
X117260000Y-123650000D03*
D11*
X182575200Y-139369800D03*
X180035200Y-139369800D03*
X177495200Y-139369800D03*
X174955200Y-139369800D03*
X172415200Y-139369800D03*
X169875200Y-139369800D03*
D12*
X167335200Y-139369800D03*
D11*
X116150600Y-143599400D03*
X118690600Y-143599400D03*
D12*
X121230600Y-143599400D03*
X121083800Y-113976000D03*
D11*
X118543800Y-113976000D03*
X116003800Y-113976000D03*
D13*
X157429200Y-125044200D03*
X149809200Y-142824200D03*
X157429200Y-127584200D03*
X149809200Y-140284200D03*
X157429200Y-130124200D03*
X149809200Y-137744200D03*
X157429200Y-132664200D03*
X149809200Y-135204200D03*
X157429200Y-135204200D03*
X149809200Y-132664200D03*
X157429200Y-137744200D03*
X149809200Y-130124200D03*
X157429200Y-140284200D03*
X149809200Y-127584200D03*
X157429200Y-142824200D03*
D14*
X149809200Y-125044200D03*
D13*
X130911600Y-124891800D03*
X146151600Y-132511800D03*
X133451600Y-124891800D03*
X143611600Y-132511800D03*
X135991600Y-124891800D03*
X141071600Y-132511800D03*
X138531600Y-124891800D03*
X138531600Y-132511800D03*
X141071600Y-124891800D03*
X135991600Y-132511800D03*
X143611600Y-124891800D03*
X133451600Y-132511800D03*
X146151600Y-124891800D03*
D14*
X130911600Y-132511800D03*
D13*
X177038000Y-124688600D03*
X184658000Y-132308600D03*
X179578000Y-124688600D03*
X182118000Y-132308600D03*
X182118000Y-124688600D03*
X179578000Y-132308600D03*
X184658000Y-124688600D03*
D14*
X177038000Y-132308600D03*
D13*
X130937000Y-135839200D03*
X146177000Y-143459200D03*
X133477000Y-135839200D03*
X143637000Y-143459200D03*
X136017000Y-135839200D03*
X141097000Y-143459200D03*
X138557000Y-135839200D03*
X138557000Y-143459200D03*
X141097000Y-135839200D03*
X136017000Y-143459200D03*
X143637000Y-135839200D03*
X133477000Y-143459200D03*
X146177000Y-135839200D03*
D14*
X130937000Y-143459200D03*
D13*
X130911600Y-114401600D03*
X146151600Y-122021600D03*
X133451600Y-114401600D03*
X143611600Y-122021600D03*
X135991600Y-114401600D03*
X141071600Y-122021600D03*
X138531600Y-114401600D03*
X138531600Y-122021600D03*
X141071600Y-114401600D03*
X135991600Y-122021600D03*
X143611600Y-114401600D03*
X133451600Y-122021600D03*
X146151600Y-114401600D03*
D14*
X130911600Y-122021600D03*
D15*
X195018800Y-137058400D03*
X195018800Y-141558400D03*
X188518800Y-137058400D03*
X188518800Y-141558400D03*
X207515600Y-137083800D03*
X207515600Y-141583800D03*
X201015600Y-137083800D03*
X201015600Y-141583800D03*
D13*
X175082200Y-135610600D03*
D16*
X167462200Y-135610600D03*
D13*
X213360000Y-128600200D03*
D16*
X213360000Y-136220200D03*
D13*
X216966800Y-128625600D03*
D16*
X216966800Y-136245600D03*
D13*
X209981800Y-122021600D03*
D16*
X217601800Y-122021600D03*
D13*
X217627200Y-125476000D03*
D16*
X210007200Y-125476000D03*
D13*
X199466200Y-122123200D03*
D16*
X207086200Y-122123200D03*
D13*
X160528000Y-123139200D03*
D16*
X168148000Y-123139200D03*
D13*
X160477200Y-126974600D03*
D16*
X168097200Y-126974600D03*
D13*
X160502600Y-130606800D03*
D16*
X168122600Y-130606800D03*
D13*
X158267400Y-114604800D03*
D16*
X150647400Y-114604800D03*
D13*
X161163000Y-114554000D03*
D16*
X168783000Y-114554000D03*
D13*
X192481200Y-126060200D03*
D16*
X192481200Y-133680200D03*
D13*
X188595000Y-133705600D03*
D16*
X188595000Y-126085600D03*
D13*
X204393800Y-126212600D03*
D16*
X204393800Y-133832600D03*
D13*
X200914000Y-133807200D03*
D16*
X200914000Y-126187200D03*
D13*
X185242200Y-135610600D03*
D16*
X177622200Y-135610600D03*
D17*
X110354000Y-116205000D03*
X215061800Y-141325600D03*
X215087200Y-116255800D03*
X110354000Y-141401800D03*
D18*
X209575400Y-115925600D03*
D19*
X207035400Y-115925600D03*
D18*
X202463400Y-115925600D03*
D19*
X199923400Y-115925600D03*
D18*
X195351400Y-115925600D03*
D19*
X192811400Y-115925600D03*
D18*
X188239400Y-115925600D03*
D19*
X185699400Y-115925600D03*
D18*
X181127400Y-115925600D03*
D19*
X178587400Y-115925600D03*
D16*
X127518800Y-114808000D03*
X125018800Y-114808000D03*
X127417200Y-136296400D03*
X124917200Y-136296400D03*
X127620400Y-125349000D03*
X125120400Y-125349000D03*
X157607000Y-121143400D03*
X157607000Y-118643400D03*
X173467400Y-125095000D03*
X170967400Y-125095000D03*
D20*
X161830000Y-135458200D03*
D21*
X163830000Y-135458200D03*
D20*
X125279400Y-129590800D03*
D21*
X127279400Y-129590800D03*
D20*
X171482000Y-129387600D03*
D21*
X173482000Y-129387600D03*
D20*
X153212800Y-118294400D03*
D21*
X153212800Y-120294400D03*
D16*
X193214000Y-122428000D03*
X188214000Y-122428000D03*
D20*
X172865800Y-119303800D03*
D21*
X170865800Y-119303800D03*
D20*
X197789800Y-130276600D03*
D21*
X195789800Y-130276600D03*
D20*
X209619600Y-130352800D03*
D21*
X207619600Y-130352800D03*
D22*
X160782000Y-142316200D03*
D23*
X163322000Y-142316200D03*
X162052000Y-142316200D03*
M02*
