M48
; DRILL file {KiCad (5.1.9-0-10_14)} date Thursday, June 10, 2021 at 12:36:52 PM
; FORMAT={-:-/ absolute / metric / decimal}
; #@! TF.CreationDate,2021-06-10T12:36:52+02:00
; #@! TF.GenerationSoftware,Kicad,Pcbnew,(5.1.9-0-10_14)
; #@! TF.FileFunction,Plated,1,2,PTH
FMAT,2
METRIC
T1C0.400
T2C0.600
T3C0.750
T4C0.800
T5C0.900
T6C1.000
T7C1.100
T8C1.300
T9C3.200
%
G90
G05
T1
X121.31Y-117.221
X123.546Y-119.38
X132.258Y-117.246
X132.978Y-116.519
X135.001Y-119.634
X135.426Y-115.859
X135.865Y-130.658
X135.865Y-128.626
X137.287Y-137.668
X138.43Y-139.446
X140.751Y-137.693
X141.767Y-133.731
X142.748Y-137.287
X144.374Y-116.519
X144.896Y-125.511
X145.796Y-117.348
X147.421Y-128.804
X148.409Y-125.511
X148.504Y-128.212
X150.497Y-131.383
X151.003Y-126.365
X151.636Y-121.137
X152.146Y-130.793
X152.181Y-133.858
X153.162Y-126.873
X153.416Y-134.112
X153.924Y-138.938
X154.051Y-141.224
X154.196Y-125.101
X154.276Y-138.002
X155.067Y-124.61
X158.758Y-129.683
X159.004Y-138.176
X159.512Y-135.89
X160.191Y-133.369
X161.052Y-137.449
X162.231Y-134.319
X163.322Y-131.699
X163.83Y-119.507
X166.243Y-122.809
X170.688Y-122.809
X182.321Y-142.062
X182.321Y-144.602
T2
X125.279Y-129.591
X127.279Y-129.591
X153.213Y-118.294
X153.213Y-120.294
X161.83Y-135.458
X163.83Y-135.458
X170.866Y-119.304
X171.482Y-129.388
X172.866Y-119.304
X173.482Y-129.388
X195.79Y-130.277
X197.79Y-130.277
X207.62Y-130.353
X209.62Y-130.353
T3
X160.782Y-142.316
X162.052Y-142.316
X163.322Y-142.316
T4
X124.917Y-136.296
X125.019Y-114.808
X125.12Y-125.349
X127.417Y-136.296
X127.519Y-114.808
X127.62Y-125.349
X130.912Y-114.402
X130.912Y-122.022
X130.912Y-124.892
X130.912Y-132.512
X130.937Y-135.839
X130.937Y-143.459
X133.452Y-114.402
X133.452Y-122.022
X133.452Y-124.892
X133.452Y-132.512
X133.477Y-135.839
X133.477Y-143.459
X135.992Y-114.402
X135.992Y-122.022
X135.992Y-124.892
X135.992Y-132.512
X136.017Y-135.839
X136.017Y-143.459
X138.532Y-114.402
X138.532Y-122.022
X138.532Y-124.892
X138.532Y-132.512
X138.557Y-135.839
X138.557Y-143.459
X141.072Y-114.402
X141.072Y-122.022
X141.072Y-124.892
X141.072Y-132.512
X141.097Y-135.839
X141.097Y-143.459
X143.612Y-114.402
X143.612Y-122.022
X143.612Y-124.892
X143.612Y-132.512
X143.637Y-135.839
X143.637Y-143.459
X146.152Y-114.402
X146.152Y-122.022
X146.152Y-124.892
X146.152Y-132.512
X146.177Y-135.839
X146.177Y-143.459
X149.809Y-125.044
X149.809Y-127.584
X149.809Y-130.124
X149.809Y-132.664
X149.809Y-135.204
X149.809Y-137.744
X149.809Y-140.284
X149.809Y-142.824
X150.647Y-114.605
X157.429Y-125.044
X157.429Y-127.584
X157.429Y-130.124
X157.429Y-132.664
X157.429Y-135.204
X157.429Y-137.744
X157.429Y-140.284
X157.429Y-142.824
X157.607Y-118.643
X157.607Y-121.143
X158.267Y-114.605
X160.477Y-126.975
X160.503Y-130.607
X160.528Y-123.139
X161.163Y-114.554
X167.462Y-135.611
X168.097Y-126.975
X168.123Y-130.607
X168.148Y-123.139
X168.783Y-114.554
X170.967Y-125.095
X173.467Y-125.095
X175.082Y-135.611
X177.038Y-124.689
X177.038Y-132.309
X177.622Y-135.611
X179.578Y-124.689
X179.578Y-132.309
X182.118Y-124.689
X182.118Y-132.309
X184.658Y-124.689
X184.658Y-132.309
X185.242Y-135.611
X188.214Y-122.428
X188.595Y-126.086
X188.595Y-133.706
X192.481Y-126.06
X192.481Y-133.68
X193.214Y-122.428
X199.466Y-122.123
X200.914Y-126.187
X200.914Y-133.807
X204.394Y-126.213
X204.394Y-133.833
X207.086Y-122.123
X209.982Y-122.022
X210.007Y-125.476
X213.36Y-128.6
X213.36Y-136.22
X216.967Y-128.626
X216.967Y-136.246
X217.602Y-122.022
X217.627Y-125.476
T5
X178.587Y-115.926
X181.127Y-115.926
X185.699Y-115.926
X188.239Y-115.926
X192.811Y-115.926
X195.351Y-115.926
X199.923Y-115.926
X202.463Y-115.926
X207.035Y-115.926
X209.575Y-115.926
T6
X116.004Y-113.976
X116.151Y-143.599
X118.544Y-113.976
X118.691Y-143.599
X121.084Y-113.976
X121.231Y-143.599
X167.335Y-139.37
X169.875Y-139.37
X172.415Y-139.37
X174.955Y-139.37
X177.495Y-139.37
X180.035Y-139.37
X182.575Y-139.37
T7
X188.519Y-137.058
X188.519Y-141.558
X195.019Y-137.058
X195.019Y-141.558
X201.016Y-137.084
X201.016Y-141.584
X207.516Y-137.084
X207.516Y-141.584
T8
X117.26Y-123.65
X117.26Y-128.65
X117.26Y-133.65
T9
X110.354Y-116.205
X110.354Y-141.402
X215.062Y-141.326
X215.087Y-116.256
T0
M30
