%FSLAX45Y45*%
G04 Gerber Fmt 4.5, Leading zero omitted, Abs format (unit mm)*
G04 Created by KiCad (PCBNEW (5.1.9-0-10_14)) date 2021-06-10 12:36:53*
%MOMM*%
%LPD*%
G01*
G04 APERTURE LIST*
%TA.AperFunction,Profile*%
%ADD10C,0.100000*%
%TD*%
%ADD11C,0.200000*%
%ADD12C,0.300000*%
G04 APERTURE END LIST*
D10*
X21506180Y-14594840D02*
X11035400Y-14592300D01*
X21963380Y-11623040D02*
X21963380Y-14137640D01*
X11035400Y-11163300D02*
X21506180Y-11165840D01*
X10578200Y-14135100D02*
X10578200Y-11620500D01*
X10578200Y-11620500D02*
G75*
G02*
X11035400Y-11163300I457200J0D01*
G01*
X11035400Y-14592300D02*
G75*
G02*
X10578200Y-14135100I0J457200D01*
G01*
X21963380Y-14137640D02*
G75*
G02*
X21506180Y-14594840I-457200J0D01*
G01*
X21506180Y-11165840D02*
G75*
G02*
X21963380Y-11623040I0J-457200D01*
G01*
D11*
D12*
X10859628Y-15065554D02*
X10859628Y-14765554D01*
X10931057Y-14765554D01*
X10973914Y-14779840D01*
X11002486Y-14808411D01*
X11016771Y-14836983D01*
X11031057Y-14894126D01*
X11031057Y-14936983D01*
X11016771Y-14994126D01*
X11002486Y-15022697D01*
X10973914Y-15051269D01*
X10931057Y-15065554D01*
X10859628Y-15065554D01*
X11159628Y-15065554D02*
X11159628Y-14865554D01*
X11159628Y-14922697D02*
X11173914Y-14894126D01*
X11188200Y-14879840D01*
X11216771Y-14865554D01*
X11245343Y-14865554D01*
X11345343Y-15065554D02*
X11345343Y-14865554D01*
X11345343Y-14765554D02*
X11331057Y-14779840D01*
X11345343Y-14794126D01*
X11359628Y-14779840D01*
X11345343Y-14765554D01*
X11345343Y-14794126D01*
X11531057Y-15065554D02*
X11502486Y-15051269D01*
X11488200Y-15022697D01*
X11488200Y-14765554D01*
X11688200Y-15065554D02*
X11659628Y-15051269D01*
X11645343Y-15022697D01*
X11645343Y-14765554D01*
X12031057Y-15065554D02*
X12031057Y-14765554D01*
X12131057Y-14979840D01*
X12231057Y-14765554D01*
X12231057Y-15065554D01*
X12502486Y-15065554D02*
X12502486Y-14908411D01*
X12488200Y-14879840D01*
X12459628Y-14865554D01*
X12402486Y-14865554D01*
X12373914Y-14879840D01*
X12502486Y-15051269D02*
X12473914Y-15065554D01*
X12402486Y-15065554D01*
X12373914Y-15051269D01*
X12359628Y-15022697D01*
X12359628Y-14994126D01*
X12373914Y-14965554D01*
X12402486Y-14951269D01*
X12473914Y-14951269D01*
X12502486Y-14936983D01*
X12645343Y-14865554D02*
X12645343Y-15165554D01*
X12645343Y-14879840D02*
X12673914Y-14865554D01*
X12731057Y-14865554D01*
X12759628Y-14879840D01*
X12773914Y-14894126D01*
X12788200Y-14922697D01*
X12788200Y-15008411D01*
X12773914Y-15036983D01*
X12759628Y-15051269D01*
X12731057Y-15065554D01*
X12673914Y-15065554D01*
X12645343Y-15051269D01*
X12916771Y-15036983D02*
X12931057Y-15051269D01*
X12916771Y-15065554D01*
X12902486Y-15051269D01*
X12916771Y-15036983D01*
X12916771Y-15065554D01*
X12916771Y-14879840D02*
X12931057Y-14894126D01*
X12916771Y-14908411D01*
X12902486Y-14894126D01*
X12916771Y-14879840D01*
X12916771Y-14908411D01*
M02*
