M48
; DRILL file {KiCad (5.1.10-1-10_14)} date Friday, November 19, 2021 at 10:12:41 AM
; FORMAT={-:-/ absolute / metric / decimal}
; #@! TF.CreationDate,2021-11-19T10:12:41+01:00
; #@! TF.GenerationSoftware,Kicad,Pcbnew,(5.1.10-1-10_14)
; #@! TF.FileFunction,Plated,1,4,PTH
FMAT,2
METRIC
T1C0.350
T2C0.700
T3C0.750
T4C0.800
T5C0.900
T6C1.000
T7C1.100
T8C1.600
T9C2.700
%
G90
G05
T1
X39.37Y-99.06
X40.132Y-123.19
X40.386Y-140.462
X40.64Y-74.93
X40.64Y-109.22
X43.307Y-111.506
X43.688Y-130.937
X43.688Y-137.922
X43.815Y-70.485
X43.815Y-77.47
X43.815Y-85.09
X44.552Y-72.009
X45.593Y-142.875
X46.99Y-64.135
X46.99Y-86.614
X48.006Y-98.425
X48.895Y-94.488
X48.971Y-122.758
X48.997Y-97.384
X49.276Y-89.408
X49.657Y-105.918
X49.784Y-121.285
X49.911Y-113.919
X49.911Y-118.11
X50.038Y-80.264
X50.038Y-81.915
X50.165Y-104.724
X50.673Y-140.335
X51.054Y-149.606
X51.206Y-112.979
X51.206Y-137.033
X51.435Y-107.823
X51.435Y-110.49
X51.791Y-117.373
X51.791Y-134.645
X51.816Y-114.046
X51.943Y-144.653
X52.197Y-136.271
X52.426Y-109.855
X52.426Y-131.953
X52.451Y-95.758
X52.705Y-133.35
X52.815Y-107.721
X52.815Y-129.54
X54.077Y-98.196
X54.356Y-144.272
X54.381Y-103.226
X54.381Y-127.0
X54.483Y-134.239
X54.61Y-130.302
X55.093Y-105.918
X55.093Y-124.435
X55.118Y-98.044
X55.118Y-104.521
X55.118Y-128.397
X55.355Y-107.761
X55.355Y-121.53
X55.88Y-69.85
X55.88Y-80.01
X55.88Y-84.455
X56.439Y-110.744
X56.439Y-119.355
X56.515Y-73.66
X56.515Y-123.952
X56.769Y-106.68
X56.896Y-75.184
X57.099Y-116.84
X57.15Y-113.792
X57.15Y-144.145
X57.175Y-115.037
X57.277Y-120.777
X57.404Y-89.662
X57.912Y-129.032
X58.039Y-118.161
X58.09Y-111.76
X58.293Y-124.714
X58.776Y-109.22
X58.801Y-136.398
X58.826Y-120.625
X59.69Y-79.121
X60.96Y-63.5
X60.96Y-77.719
X61.087Y-141.224
X61.976Y-144.399
X62.281Y-141.3
X62.281Y-142.189
X62.357Y-101.346
X62.357Y-149.225
X62.738Y-91.948
X62.992Y-87.63
X62.992Y-97.536
X63.271Y-124.308
X63.271Y-126.721
X63.5Y-68.58
X63.5Y-82.55
X64.321Y-101.93
X64.325Y-104.75
X64.77Y-132.08
X64.77Y-134.341
X65.176Y-128.93
X65.278Y-133.223
X65.38Y-99.289
X65.892Y-99.97
X66.567Y-101.075
X66.666Y-80.4
X66.802Y-124.46
X66.802Y-121.666
X67.056Y-130.683
X67.056Y-138.43
X67.31Y-144.272
X67.437Y-119.253
X67.437Y-127.127
X68.072Y-116.586
X68.072Y-130.302
X68.453Y-114.3
X68.58Y-73.66
X68.58Y-82.55
X68.58Y-132.842
X69.469Y-109.22
X69.469Y-111.506
X69.85Y-88.9
X70.231Y-106.807
X71.247Y-96.139
X71.374Y-84.506
X72.009Y-94.627
X73.533Y-143.891
X73.533Y-149.352
X74.295Y-134.747
X74.93Y-86.36
X75.184Y-140.462
X75.489Y-81.991
X75.692Y-138.938
X75.921Y-127.178
X75.946Y-96.647
X76.073Y-75.717
X76.683Y-119.38
X76.881Y-120.477
X77.343Y-145.415
X77.399Y-118.435
X77.445Y-116.84
X77.78Y-115.895
X77.876Y-114.097
X77.902Y-78.562
X78.415Y-113.355
X78.613Y-98.425
X78.715Y-145.618
X80.01Y-90.805
X80.137Y-109.22
X80.264Y-111.887
X80.899Y-114.681
X81.026Y-106.68
X81.026Y-121.412
X81.026Y-139.7
X81.047Y-80.92
X81.28Y-86.995
X81.28Y-127.0
X81.534Y-143.002
X81.915Y-125.476
X82.042Y-134.239
X82.042Y-149.479
X82.169Y-122.919
X83.769Y-100.529
X84.074Y-104.394
X85.09Y-99.898
X85.344Y-96.52
X85.344Y-121.92
X85.471Y-139.065
X85.471Y-143.256
X85.852Y-114.681
X85.979Y-107.061
X86.995Y-65.405
X88.9Y-73.025
X88.9Y-98.171
X90.17Y-142.24
X90.17Y-143.383
X90.932Y-115.316
X90.932Y-141.478
X91.44Y-101.219
X91.44Y-144.145
X92.329Y-136.144
X93.218Y-79.629
X93.98Y-66.04
X94.615Y-73.025
X96.52Y-140.208
X97.155Y-142.875
X99.06Y-92.075
X100.076Y-149.606
X100.158Y-123.068
X100.33Y-79.121
X100.584Y-74.168
X100.635Y-127.0
X100.872Y-128.515
X100.965Y-65.405
X101.6Y-86.995
X101.981Y-96.139
X102.108Y-92.329
X102.362Y-143.383
X102.565Y-93.904
X102.692Y-78.511
X102.959Y-85.179
X102.972Y-113.843
X102.997Y-136.652
X103.581Y-116.51
X103.615Y-93.379
X104.216Y-101.448
X104.394Y-139.573
X104.572Y-119.075
X105.105Y-79.477
X105.283Y-121.26
X105.825Y-91.707
X106.172Y-89.789
X106.299Y-118.466
X106.68Y-142.875
X106.825Y-88.409
X107.061Y-119.355
X107.18Y-79.477
X107.442Y-140.462
X107.696Y-97.155
X108.585Y-76.835
X108.695Y-132.029
X109.106Y-130.865
X109.22Y-66.04
X109.22Y-101.6
X109.22Y-121.92
X109.22Y-124.46
X109.349Y-86.011
X109.474Y-91.44
X109.627Y-127.915
X109.855Y-86.995
X110.054Y-85.526
X110.236Y-72.136
X110.768Y-84.996
X111.912Y-65.43
X112.395Y-141.605
X112.471Y-85.42
X113.03Y-86.995
X113.411Y-96.52
X113.538Y-135.255
X113.665Y-130.048
X113.792Y-91.186
X113.868Y-83.49
X113.919Y-99.441
X114.046Y-112.903
X114.173Y-102.235
X114.173Y-117.348
X114.224Y-119.38
X114.3Y-88.9
X114.3Y-104.267
X114.3Y-106.934
X114.3Y-121.92
X114.427Y-138.684
X114.554Y-72.771
X114.656Y-124.104
X114.935Y-67.31
X114.935Y-75.184
X115.545Y-86.284
X116.561Y-84.201
X116.713Y-77.089
X116.967Y-149.479
X117.018Y-118.948
X118.085Y-83.642
X118.11Y-73.025
X118.745Y-95.885
X119.38Y-86.36
X119.442Y-82.7
X119.888Y-129.667
X120.269Y-91.694
X120.701Y-138.836
X121.285Y-139.827
X121.361Y-133.579
X121.629Y-82.238
X121.92Y-113.665
X122.047Y-73.533
X122.174Y-134.366
X122.428Y-117.221
X123.155Y-92.317
X123.155Y-121.422
X123.317Y-129.54
X123.368Y-74.93
X123.825Y-83.947
X123.825Y-90.805
X123.952Y-101.6
X124.079Y-98.933
X124.206Y-104.14
X124.206Y-109.093
X124.206Y-121.793
X124.333Y-113.284
X124.46Y-64.135
X125.146Y-114.63
X125.222Y-117.399
X125.984Y-95.631
X126.246Y-80.661
X126.365Y-91.44
X127.0Y-82.245
X127.635Y-132.842
X127.854Y-83.828
X128.343Y-82.27
X128.769Y-125.975
X129.046Y-108.15
X129.057Y-110.058
X129.159Y-149.479
X129.258Y-82.903
X129.311Y-111.235
X129.337Y-119.431
X129.813Y-101.786
X130.023Y-104.115
X130.175Y-112.522
X130.19Y-109.389
X130.302Y-136.906
X130.483Y-83.264
X130.683Y-86.614
X130.81Y-129.794
X130.924Y-102.904
X131.415Y-108.15
X131.445Y-83.185
X131.572Y-91.694
X131.572Y-124.968
X131.699Y-110.109
X131.699Y-111.887
X131.699Y-115.316
X131.699Y-126.746
X131.799Y-106.663
X131.801Y-81.229
X131.826Y-121.92
X131.953Y-88.646
X132.461Y-79.502
X132.486Y-114.249
X133.071Y-100.736
X133.172Y-103.429
X133.375Y-78.943
X133.398Y-128.287
X133.674Y-124.551
X133.72Y-121.86
X134.036Y-85.42
X134.366Y-78.41
X134.493Y-73.66
X134.493Y-100.838
X134.493Y-106.426
X134.493Y-135.763
X134.518Y-127.711
X134.62Y-81.915
X134.722Y-123.8
X134.874Y-97.79
X134.95Y-98.882
X135.001Y-86.487
X135.255Y-64.135
X135.255Y-83.185
X135.89Y-92.075
X136.55Y-101.6
X137.058Y-93.523
X137.414Y-115.189
X137.541Y-109.855
X139.065Y-129.921
X139.065Y-132.842
X139.827Y-140.589
X141.732Y-141.757
X142.113Y-73.533
X142.672Y-141.63
X142.791Y-119.677
X142.926Y-122.098
X142.926Y-142.748
X143.002Y-149.352
X143.302Y-117.048
X143.815Y-103.784
X144.043Y-97.993
X144.272Y-141.351
X144.526Y-101.346
X144.653Y-92.075
X144.907Y-89.027
X144.907Y-129.794
X145.034Y-118.855
X145.288Y-95.377
X145.796Y-118.364
X146.05Y-64.135
X146.558Y-73.533
X146.558Y-132.715
X149.225Y-89.027
X149.225Y-94.996
X149.352Y-101.854
X149.352Y-109.22
X149.479Y-111.76
X149.479Y-114.554
X149.733Y-97.892
X149.733Y-143.002
X150.566Y-91.962
X151.028Y-96.342
X151.13Y-82.55
X151.562Y-98.095
X151.595Y-101.143
X151.895Y-102.59
X152.169Y-105.317
X152.527Y-103.759
X152.629Y-106.858
X152.795Y-109.72
X153.095Y-112.014
X153.395Y-114.732
X153.543Y-88.9
X153.543Y-149.479
X153.67Y-86.106
X153.67Y-93.98
X154.305Y-111.1
X154.432Y-145.161
X154.94Y-141.097
X155.499Y-99.111
X155.981Y-144.043
X156.845Y-74.422
X157.15Y-144.297
X157.226Y-141.097
X158.115Y-63.5
X158.795Y-144.383
X159.309Y-111.76
X159.385Y-114.3
X159.495Y-106.655
X159.843Y-145.007
X159.893Y-119.507
X160.02Y-109.245
X160.274Y-122.047
X160.587Y-111.709
X160.663Y-145.542
X160.887Y-114.249
X161.214Y-146.355
X161.425Y-116.865
X161.933Y-119.863
X162.052Y-149.479
X162.336Y-146.039
X162.458Y-124.257
X163.474Y-82.88
X163.83Y-76.581
X163.885Y-120.595
X163.957Y-72.009
X164.084Y-100.838
X164.084Y-104.521
X164.338Y-91.186
X164.465Y-89.027
X164.465Y-94.361
X164.592Y-140.843
X164.973Y-122.047
X165.735Y-85.725
X165.777Y-79.908
X165.777Y-80.806
X166.167Y-103.657
X166.332Y-89.459
X167.14Y-107.67
X167.183Y-103.708
X167.538Y-131.547
X167.615Y-96.495
X168.275Y-91.821
X168.402Y-142.596
X168.659Y-123.609
X169.215Y-143.231
X169.545Y-64.135
X169.545Y-127.127
X169.647Y-125.324
X169.799Y-130.937
X169.852Y-128.872
X169.926Y-100.965
X169.926Y-141.732
X170.053Y-88.646
X170.18Y-74.295
X170.18Y-104.394
X170.586Y-95.783
X170.612Y-137.16
X170.765Y-129.719
X170.815Y-83.82
X171.247Y-128.219
X171.348Y-127.076
X171.425Y-124.079
X171.521Y-95.347
X172.72Y-85.725
X172.72Y-149.606
X173.714Y-120.655
X174.625Y-82.55
X174.752Y-140.462
X174.879Y-89.027
X174.879Y-114.173
X174.955Y-100.457
X175.006Y-106.553
X175.006Y-109.601
X175.006Y-111.633
X175.133Y-101.981
X175.133Y-104.394
X175.133Y-116.713
X175.514Y-120.142
X175.616Y-86.411
X175.616Y-98.527
X176.276Y-136.144
X176.403Y-127.635
X176.53Y-73.025
X176.555Y-115.316
X176.589Y-83.769
X177.114Y-98.07
X177.546Y-119.634
X177.673Y-68.529
X177.775Y-66.091
X177.8Y-64.135
X177.8Y-122.428
X177.927Y-148.59
X177.944Y-110.092
X178.384Y-81.28
X178.384Y-112.319
X178.537Y-76.454
X178.74Y-79.324
X178.943Y-96.52
X178.943Y-99.441
X178.943Y-113.919
X179.07Y-103.886
X179.324Y-69.342
X179.705Y-141.986
X179.832Y-120.777
X180.154Y-116.573
X180.34Y-117.856
X180.848Y-132.334
X180.914Y-102.828
X181.331Y-70.688
X181.356Y-110.744
X182.499Y-96.647
X183.134Y-120.015
X183.515Y-70.485
X183.896Y-125.984
X184.277Y-134.493
X184.658Y-97.917
X185.039Y-74.041
X185.039Y-81.026
X185.039Y-113.919
X185.293Y-91.44
X185.42Y-104.14
T2
X43.18Y-88.9
X43.18Y-99.06
X64.516Y-93.98
T3
X77.978Y-67.564
X79.248Y-67.564
X80.518Y-67.564
T4
X43.18Y-104.18
X43.18Y-106.68
X45.72Y-88.9
X45.72Y-91.44
X45.72Y-93.98
X45.72Y-96.52
X45.72Y-99.06
X45.72Y-101.6
X45.72Y-104.14
X45.72Y-106.68
X45.72Y-109.22
X45.72Y-111.76
X45.72Y-114.3
X45.72Y-116.84
X45.72Y-119.38
X45.72Y-121.92
X45.72Y-124.46
X45.72Y-127.0
X45.72Y-129.54
X45.72Y-132.08
X45.72Y-134.62
X45.72Y-137.16
X60.96Y-88.9
X60.96Y-91.44
X60.96Y-93.98
X60.96Y-96.52
X60.96Y-99.06
X60.96Y-101.6
X60.96Y-104.14
X60.96Y-106.68
X60.96Y-109.22
X60.96Y-111.76
X60.96Y-114.3
X60.96Y-116.84
X60.96Y-119.38
X60.96Y-121.92
X60.96Y-124.46
X60.96Y-127.0
X60.96Y-129.54
X60.96Y-132.08
X60.96Y-134.62
X60.96Y-137.16
X64.516Y-73.914
X64.516Y-76.454
X64.516Y-78.994
X64.516Y-81.534
X64.516Y-84.074
X64.516Y-86.614
X71.12Y-66.675
X71.12Y-69.175
X78.74Y-83.82
X81.28Y-83.82
X83.82Y-83.82
X85.725Y-68.58
X85.725Y-71.08
X86.36Y-83.82
X88.9Y-83.82
X90.805Y-68.58
X90.805Y-76.2
X91.44Y-83.82
X93.65Y-99.06
X93.65Y-101.56
X93.98Y-83.82
X96.52Y-83.82
X96.52Y-99.06
X96.52Y-101.6
X96.52Y-104.14
X96.52Y-106.68
X96.52Y-109.22
X96.52Y-111.76
X96.52Y-114.3
X96.52Y-116.84
X96.52Y-119.38
X96.52Y-121.92
X96.52Y-124.46
X96.52Y-127.0
X96.52Y-129.54
X96.52Y-132.08
X99.06Y-83.82
X101.6Y-83.82
X104.14Y-83.82
X106.045Y-68.58
X106.045Y-76.2
X106.68Y-83.82
X109.26Y-96.012
X111.76Y-96.012
X111.76Y-99.06
X111.76Y-101.6
X111.76Y-104.14
X111.76Y-106.68
X111.76Y-109.22
X111.76Y-111.76
X111.76Y-114.3
X111.76Y-116.84
X111.76Y-119.38
X111.76Y-121.92
X111.76Y-124.46
X111.76Y-127.0
X111.76Y-129.54
X111.76Y-132.08
X132.842Y-96.306
X132.842Y-98.806
X153.162Y-96.56
X153.162Y-99.06
X154.94Y-134.66
X154.94Y-137.16
X157.48Y-88.9
X157.48Y-91.44
X157.48Y-93.98
X157.48Y-96.52
X157.48Y-99.06
X157.48Y-101.6
X157.48Y-104.14
X157.48Y-106.68
X157.48Y-109.22
X157.48Y-111.76
X157.48Y-114.3
X157.48Y-116.84
X157.48Y-119.38
X157.48Y-121.92
X157.48Y-124.46
X157.48Y-127.0
X157.48Y-129.54
X157.48Y-132.08
X157.48Y-134.62
X157.48Y-137.16
X172.72Y-88.9
X172.72Y-91.44
X172.72Y-93.98
X172.72Y-96.52
X172.72Y-99.06
X172.72Y-101.6
X172.72Y-104.14
X172.72Y-106.68
X172.72Y-109.22
X172.72Y-111.76
X172.72Y-114.3
X172.72Y-116.84
X172.72Y-119.38
X172.72Y-121.92
X172.72Y-124.46
X172.72Y-127.0
X172.72Y-129.54
X172.72Y-132.08
X172.72Y-134.62
X172.72Y-137.16
T5
X44.45Y-79.375
X46.99Y-79.375
T6
X48.26Y-68.58
X48.26Y-147.32
X50.76Y-68.58
X50.8Y-147.32
X53.34Y-147.32
X55.88Y-147.32
X56.515Y-67.945
X58.42Y-147.32
X60.96Y-147.32
X61.595Y-67.945
X63.5Y-147.32
X66.04Y-147.32
X68.58Y-147.32
X71.12Y-147.32
X72.39Y-99.06
X72.39Y-101.6
X72.39Y-104.14
X72.39Y-106.68
X72.39Y-109.22
X72.39Y-111.76
X72.39Y-114.3
X72.39Y-116.84
X72.39Y-119.38
X72.39Y-121.92
X72.39Y-124.46
X72.39Y-127.0
X72.39Y-129.54
X72.39Y-132.08
X76.2Y-147.32
X78.74Y-147.32
X81.28Y-147.32
X83.82Y-147.32
X86.36Y-147.32
X87.63Y-99.06
X87.63Y-101.6
X87.63Y-104.14
X87.63Y-106.68
X87.63Y-109.22
X87.63Y-111.76
X87.63Y-114.3
X87.63Y-116.84
X87.63Y-119.38
X87.63Y-121.92
X87.63Y-124.46
X87.63Y-127.0
X87.63Y-129.54
X87.63Y-132.08
X88.9Y-147.32
X91.44Y-147.32
X93.98Y-147.32
X96.52Y-147.32
X99.06Y-147.32
X101.6Y-147.32
X104.14Y-147.32
X106.68Y-147.32
X109.22Y-147.32
X111.76Y-147.32
X114.3Y-147.32
X116.84Y-147.32
X119.38Y-66.04
X119.38Y-68.58
X119.38Y-99.06
X119.38Y-101.6
X119.38Y-104.14
X119.38Y-106.68
X119.38Y-109.22
X119.38Y-111.76
X119.38Y-114.3
X119.38Y-116.84
X119.38Y-119.38
X119.38Y-121.92
X119.38Y-124.46
X119.38Y-127.0
X119.38Y-147.32
X121.92Y-66.04
X121.92Y-68.58
X121.92Y-147.32
X124.46Y-66.04
X124.46Y-68.58
X124.46Y-147.32
X127.0Y-66.04
X127.0Y-68.58
X127.0Y-99.06
X127.0Y-101.6
X127.0Y-104.14
X127.0Y-106.68
X127.0Y-109.22
X127.0Y-111.76
X127.0Y-114.3
X127.0Y-116.84
X127.0Y-119.38
X127.0Y-121.92
X127.0Y-124.46
X127.0Y-127.0
X127.0Y-147.32
X129.54Y-66.04
X129.54Y-68.58
X129.54Y-147.32
X132.08Y-66.04
X132.08Y-68.58
X132.08Y-147.32
X134.62Y-66.04
X134.62Y-68.58
X134.62Y-147.32
X137.16Y-66.04
X137.16Y-68.58
X137.16Y-147.32
X139.7Y-66.04
X139.7Y-68.58
X139.7Y-99.06
X139.7Y-101.6
X139.7Y-104.14
X139.7Y-106.68
X139.7Y-109.22
X139.7Y-111.76
X139.7Y-114.3
X139.7Y-116.84
X139.7Y-119.38
X139.7Y-121.92
X139.7Y-124.46
X139.7Y-127.0
X139.7Y-147.32
X142.24Y-66.04
X142.24Y-68.58
X142.24Y-147.32
X144.78Y-66.04
X144.78Y-68.58
X144.78Y-147.32
X147.32Y-66.04
X147.32Y-68.58
X147.32Y-99.06
X147.32Y-101.6
X147.32Y-104.14
X147.32Y-106.68
X147.32Y-109.22
X147.32Y-111.76
X147.32Y-114.3
X147.32Y-116.84
X147.32Y-119.38
X147.32Y-121.92
X147.32Y-124.46
X147.32Y-127.0
X147.32Y-147.32
X149.86Y-66.04
X149.86Y-68.58
X149.86Y-147.32
X152.4Y-66.04
X152.4Y-68.58
X152.4Y-147.32
X154.94Y-66.04
X154.94Y-68.58
X154.94Y-147.32
X157.48Y-66.04
X157.48Y-68.58
X157.48Y-147.32
X160.02Y-66.04
X160.02Y-68.58
X160.02Y-147.32
X162.56Y-66.04
X162.56Y-68.58
X162.56Y-147.32
X165.1Y-66.04
X165.1Y-68.58
X165.1Y-147.32
X167.64Y-66.04
X167.64Y-68.58
X167.64Y-147.32
X170.18Y-147.32
X172.72Y-147.32
X175.26Y-147.32
X182.88Y-76.2
X182.88Y-78.74
X182.88Y-81.28
X182.88Y-83.82
X182.88Y-86.36
X182.88Y-88.9
X182.88Y-91.44
X182.88Y-93.98
X182.88Y-101.6
X182.88Y-104.14
X182.88Y-106.68
X182.88Y-109.22
X182.88Y-111.76
T7
X51.435Y-78.105
X51.435Y-82.605
X57.935Y-78.105
X57.935Y-82.605
X75.438Y-73.66
X75.438Y-78.486
X83.058Y-73.66
X83.058Y-78.486
T8
X41.58Y-72.06
T9
X41.91Y-66.04
X41.91Y-147.32
X182.88Y-66.04
X182.88Y-147.32
T0
M30
