%FSLAX45Y45*%
G04 Gerber Fmt 4.5, Leading zero omitted, Abs format (unit mm)*
G04 Created by KiCad (PCBNEW (5.1.10-1-10_14)) date 2021-11-19 10:12:41*
%MOMM*%
%LPD*%
G01*
G04 APERTURE LIST*
%TA.AperFunction,Profile*%
%ADD10C,0.120000*%
%TD*%
%ADD11C,0.200000*%
%ADD12C,0.300000*%
G04 APERTURE END LIST*
D10*
X3810000Y-6604000D02*
G75*
G02*
X4191000Y-6223000I381000J0D01*
G01*
X4191000Y-15113000D02*
G75*
G02*
X3810000Y-14732000I0J381000D01*
G01*
X18669000Y-14732000D02*
G75*
G02*
X18288000Y-15113000I-381000J0D01*
G01*
X18288000Y-6223000D02*
G75*
G02*
X18669000Y-6604000I0J-381000D01*
G01*
X4191000Y-15113000D02*
X18288000Y-15113000D01*
X3810000Y-6604000D02*
X3810000Y-14732000D01*
X18288000Y-6223000D02*
X4191000Y-6223000D01*
X18669000Y-14732000D02*
X18669000Y-6604000D01*
D11*
X3919500Y-9888500D02*
X3954500Y-9923500D01*
X3954500Y-9888500D02*
X3919500Y-9923500D01*
X3995700Y-12301500D02*
X4030700Y-12336500D01*
X4030700Y-12301500D02*
X3995700Y-12336500D01*
X4021100Y-14028700D02*
X4056100Y-14063700D01*
X4056100Y-14028700D02*
X4021100Y-14063700D01*
X4046500Y-7475500D02*
X4081500Y-7510500D01*
X4081500Y-7475500D02*
X4046500Y-7510500D01*
X4046500Y-10904500D02*
X4081500Y-10939500D01*
X4081500Y-10904500D02*
X4046500Y-10939500D01*
X4313200Y-11133100D02*
X4348200Y-11168100D01*
X4348200Y-11133100D02*
X4313200Y-11168100D01*
X4351300Y-13076200D02*
X4386300Y-13111200D01*
X4386300Y-13076200D02*
X4351300Y-13111200D01*
X4351300Y-13774700D02*
X4386300Y-13809700D01*
X4386300Y-13774700D02*
X4351300Y-13809700D01*
X4364000Y-7031000D02*
X4399000Y-7066000D01*
X4399000Y-7031000D02*
X4364000Y-7066000D01*
X4364000Y-7729500D02*
X4399000Y-7764500D01*
X4399000Y-7729500D02*
X4364000Y-7764500D01*
X4364000Y-8491500D02*
X4399000Y-8526500D01*
X4399000Y-8491500D02*
X4364000Y-8526500D01*
X4437660Y-7183400D02*
X4472660Y-7218400D01*
X4472660Y-7183400D02*
X4437660Y-7218400D01*
X4541800Y-14270000D02*
X4576800Y-14305000D01*
X4576800Y-14270000D02*
X4541800Y-14305000D01*
X4681500Y-6396000D02*
X4716500Y-6431000D01*
X4716500Y-6396000D02*
X4681500Y-6431000D01*
X4681500Y-8643900D02*
X4716500Y-8678900D01*
X4716500Y-8643900D02*
X4681500Y-8678900D01*
X4783100Y-9825000D02*
X4818100Y-9860000D01*
X4818100Y-9825000D02*
X4783100Y-9860000D01*
X4872000Y-9431300D02*
X4907000Y-9466300D01*
X4907000Y-9431300D02*
X4872000Y-9466300D01*
X4879620Y-12258320D02*
X4914620Y-12293320D01*
X4914620Y-12258320D02*
X4879620Y-12293320D01*
X4882160Y-9720860D02*
X4917160Y-9755860D01*
X4917160Y-9720860D02*
X4882160Y-9755860D01*
X4910100Y-8923300D02*
X4945100Y-8958300D01*
X4945100Y-8923300D02*
X4910100Y-8958300D01*
X4948200Y-10574300D02*
X4983200Y-10609300D01*
X4983200Y-10574300D02*
X4948200Y-10609300D01*
X4960900Y-12111000D02*
X4995900Y-12146000D01*
X4995900Y-12111000D02*
X4960900Y-12146000D01*
X4973600Y-11374400D02*
X5008600Y-11409400D01*
X5008600Y-11374400D02*
X4973600Y-11409400D01*
X4973600Y-11793500D02*
X5008600Y-11828500D01*
X5008600Y-11793500D02*
X4973600Y-11828500D01*
X4986300Y-8008900D02*
X5021300Y-8043900D01*
X5021300Y-8008900D02*
X4986300Y-8043900D01*
X4986300Y-8174000D02*
X5021300Y-8209000D01*
X5021300Y-8174000D02*
X4986300Y-8209000D01*
X4999000Y-10454920D02*
X5034000Y-10489920D01*
X5034000Y-10454920D02*
X4999000Y-10489920D01*
X5049800Y-14016000D02*
X5084800Y-14051000D01*
X5084800Y-14016000D02*
X5049800Y-14051000D01*
X5087900Y-14943100D02*
X5122900Y-14978100D01*
X5122900Y-14943100D02*
X5087900Y-14978100D01*
X5103140Y-11280420D02*
X5138140Y-11315420D01*
X5138140Y-11280420D02*
X5103140Y-11315420D01*
X5103140Y-13685800D02*
X5138140Y-13720800D01*
X5138140Y-13685800D02*
X5103140Y-13720800D01*
X5126000Y-10764800D02*
X5161000Y-10799800D01*
X5161000Y-10764800D02*
X5126000Y-10799800D01*
X5126000Y-11031500D02*
X5161000Y-11066500D01*
X5161000Y-11031500D02*
X5126000Y-11066500D01*
X5161560Y-11719840D02*
X5196560Y-11754840D01*
X5196560Y-11719840D02*
X5161560Y-11754840D01*
X5161560Y-13447040D02*
X5196560Y-13482040D01*
X5196560Y-13447040D02*
X5161560Y-13482040D01*
X5164100Y-11387100D02*
X5199100Y-11422100D01*
X5199100Y-11387100D02*
X5164100Y-11422100D01*
X5176800Y-14447800D02*
X5211800Y-14482800D01*
X5211800Y-14447800D02*
X5176800Y-14482800D01*
X5202200Y-13609600D02*
X5237200Y-13644600D01*
X5237200Y-13609600D02*
X5202200Y-13644600D01*
X5225060Y-10968000D02*
X5260060Y-11003000D01*
X5260060Y-10968000D02*
X5225060Y-11003000D01*
X5225060Y-13177800D02*
X5260060Y-13212800D01*
X5260060Y-13177800D02*
X5225060Y-13212800D01*
X5227600Y-9558300D02*
X5262600Y-9593300D01*
X5262600Y-9558300D02*
X5227600Y-9593300D01*
X5253000Y-13317500D02*
X5288000Y-13352500D01*
X5288000Y-13317500D02*
X5253000Y-13352500D01*
X5263999Y-10754640D02*
X5298999Y-10789640D01*
X5298999Y-10754640D02*
X5263999Y-10789640D01*
X5263999Y-12936500D02*
X5298999Y-12971500D01*
X5298999Y-12936500D02*
X5263999Y-12971500D01*
X5390160Y-9802140D02*
X5425160Y-9837140D01*
X5425160Y-9802140D02*
X5390160Y-9837140D01*
X5418100Y-14409700D02*
X5453100Y-14444700D01*
X5453100Y-14409700D02*
X5418100Y-14444700D01*
X5420640Y-10305060D02*
X5455640Y-10340060D01*
X5455640Y-10305060D02*
X5420640Y-10340060D01*
X5420640Y-12682500D02*
X5455640Y-12717500D01*
X5455640Y-12682500D02*
X5420640Y-12717500D01*
X5430800Y-13406400D02*
X5465800Y-13441400D01*
X5465800Y-13406400D02*
X5430800Y-13441400D01*
X5443500Y-13012700D02*
X5478500Y-13047700D01*
X5478500Y-13012700D02*
X5443500Y-13047700D01*
X5491760Y-10574300D02*
X5526760Y-10609300D01*
X5526760Y-10574300D02*
X5491760Y-10609300D01*
X5491760Y-12425960D02*
X5526760Y-12460960D01*
X5526760Y-12425960D02*
X5491760Y-12460960D01*
X5494300Y-9786900D02*
X5529300Y-9821900D01*
X5529300Y-9786900D02*
X5494300Y-9821900D01*
X5494300Y-10434600D02*
X5529300Y-10469600D01*
X5529300Y-10434600D02*
X5494300Y-10469600D01*
X5494300Y-12822200D02*
X5529300Y-12857200D01*
X5529300Y-12822200D02*
X5494300Y-12857200D01*
X5517999Y-10758608D02*
X5552999Y-10793608D01*
X5552999Y-10758608D02*
X5517999Y-10793608D01*
X5517999Y-12135465D02*
X5552999Y-12170465D01*
X5552999Y-12135465D02*
X5517999Y-12170465D01*
X5570500Y-6967500D02*
X5605500Y-7002500D01*
X5605500Y-6967500D02*
X5570500Y-7002500D01*
X5570500Y-7983500D02*
X5605500Y-8018500D01*
X5605500Y-7983500D02*
X5570500Y-8018500D01*
X5570500Y-8428000D02*
X5605500Y-8463000D01*
X5605500Y-8428000D02*
X5570500Y-8463000D01*
X5626380Y-11056900D02*
X5661380Y-11091900D01*
X5661380Y-11056900D02*
X5626380Y-11091900D01*
X5626380Y-11917960D02*
X5661380Y-11952960D01*
X5661380Y-11917960D02*
X5626380Y-11952960D01*
X5634000Y-7348500D02*
X5669000Y-7383500D01*
X5669000Y-7348500D02*
X5634000Y-7383500D01*
X5634000Y-12377700D02*
X5669000Y-12412700D01*
X5669000Y-12377700D02*
X5634000Y-12412700D01*
X5659400Y-10650500D02*
X5694400Y-10685500D01*
X5694400Y-10650500D02*
X5659400Y-10685500D01*
X5672100Y-7500900D02*
X5707100Y-7535900D01*
X5707100Y-7500900D02*
X5672100Y-7535900D01*
X5692420Y-11666500D02*
X5727420Y-11701500D01*
X5727420Y-11666500D02*
X5692420Y-11701500D01*
X5697500Y-11361700D02*
X5732500Y-11396700D01*
X5732500Y-11361700D02*
X5697500Y-11396700D01*
X5697500Y-14397000D02*
X5732500Y-14432000D01*
X5732500Y-14397000D02*
X5697500Y-14432000D01*
X5700040Y-11486160D02*
X5735040Y-11521160D01*
X5735040Y-11486160D02*
X5700040Y-11521160D01*
X5710200Y-12060200D02*
X5745200Y-12095200D01*
X5745200Y-12060200D02*
X5710200Y-12095200D01*
X5722900Y-8948700D02*
X5757900Y-8983700D01*
X5757900Y-8948700D02*
X5722900Y-8983700D01*
X5773700Y-12885700D02*
X5808700Y-12920700D01*
X5808700Y-12885700D02*
X5773700Y-12920700D01*
X5786400Y-11798580D02*
X5821400Y-11833580D01*
X5821400Y-11798580D02*
X5786400Y-11833580D01*
X5791480Y-11158500D02*
X5826480Y-11193500D01*
X5826480Y-11158500D02*
X5791480Y-11193500D01*
X5811800Y-12453900D02*
X5846800Y-12488900D01*
X5846800Y-12453900D02*
X5811800Y-12488900D01*
X5860060Y-10904500D02*
X5895060Y-10939500D01*
X5895060Y-10904500D02*
X5860060Y-10939500D01*
X5862600Y-13622300D02*
X5897600Y-13657300D01*
X5897600Y-13622300D02*
X5862600Y-13657300D01*
X5865140Y-12044960D02*
X5900140Y-12079960D01*
X5900140Y-12044960D02*
X5865140Y-12079960D01*
X5951500Y-7894600D02*
X5986500Y-7929600D01*
X5986500Y-7894600D02*
X5951500Y-7929600D01*
X6078500Y-6332500D02*
X6113500Y-6367500D01*
X6113500Y-6332500D02*
X6078500Y-6367500D01*
X6078500Y-7754354D02*
X6113500Y-7789354D01*
X6113500Y-7754354D02*
X6078500Y-7789354D01*
X6091200Y-14104900D02*
X6126200Y-14139900D01*
X6126200Y-14104900D02*
X6091200Y-14139900D01*
X6180100Y-14422400D02*
X6215100Y-14457400D01*
X6215100Y-14422400D02*
X6180100Y-14457400D01*
X6210580Y-14112520D02*
X6245580Y-14147520D01*
X6245580Y-14112520D02*
X6210580Y-14147520D01*
X6210580Y-14201420D02*
X6245580Y-14236420D01*
X6245580Y-14201420D02*
X6210580Y-14236420D01*
X6218200Y-10117100D02*
X6253200Y-10152100D01*
X6253200Y-10117100D02*
X6218200Y-10152100D01*
X6218200Y-14905000D02*
X6253200Y-14940000D01*
X6253200Y-14905000D02*
X6218200Y-14940000D01*
X6256300Y-9177300D02*
X6291300Y-9212300D01*
X6291300Y-9177300D02*
X6256300Y-9212300D01*
X6281698Y-8745502D02*
X6316698Y-8780502D01*
X6316698Y-8745502D02*
X6281698Y-8780502D01*
X6281700Y-9736100D02*
X6316700Y-9771100D01*
X6316700Y-9736100D02*
X6281700Y-9771100D01*
X6309640Y-12413260D02*
X6344640Y-12448260D01*
X6344640Y-12413260D02*
X6309640Y-12448260D01*
X6309640Y-12654560D02*
X6344640Y-12689560D01*
X6344640Y-12654560D02*
X6309640Y-12689560D01*
X6332500Y-6840500D02*
X6367500Y-6875500D01*
X6367500Y-6840500D02*
X6332500Y-6875500D01*
X6332500Y-8237500D02*
X6367500Y-8272500D01*
X6367500Y-8237500D02*
X6332500Y-8272500D01*
X6414619Y-10175520D02*
X6449619Y-10210520D01*
X6449619Y-10175520D02*
X6414619Y-10210520D01*
X6415002Y-10457460D02*
X6450002Y-10492460D01*
X6450002Y-10457460D02*
X6415002Y-10492460D01*
X6459500Y-13190505D02*
X6494500Y-13225505D01*
X6494500Y-13190505D02*
X6459500Y-13225505D01*
X6459508Y-13416560D02*
X6494508Y-13451560D01*
X6494508Y-13416560D02*
X6459508Y-13451560D01*
X6500140Y-12875540D02*
X6535140Y-12910540D01*
X6535140Y-12875540D02*
X6500140Y-12910540D01*
X6510300Y-13304800D02*
X6545300Y-13339800D01*
X6545300Y-13304800D02*
X6510300Y-13339800D01*
X6520460Y-9911360D02*
X6555460Y-9946360D01*
X6555460Y-9911360D02*
X6520460Y-9946360D01*
X6571740Y-9979460D02*
X6606740Y-10014460D01*
X6606740Y-9979460D02*
X6571740Y-10014460D01*
X6639184Y-10089999D02*
X6674184Y-10124999D01*
X6674184Y-10089999D02*
X6639184Y-10124999D01*
X6649100Y-8022500D02*
X6684100Y-8057500D01*
X6684100Y-8022500D02*
X6649100Y-8057500D01*
X6662700Y-12428500D02*
X6697700Y-12463500D01*
X6697700Y-12428500D02*
X6662700Y-12463500D01*
X6662700Y-12149100D02*
X6697700Y-12184100D01*
X6697700Y-12149100D02*
X6662700Y-12184100D01*
X6688100Y-13050800D02*
X6723100Y-13085800D01*
X6723100Y-13050800D02*
X6688100Y-13085800D01*
X6688100Y-13825500D02*
X6723100Y-13860500D01*
X6723100Y-13825500D02*
X6688100Y-13860500D01*
X6713500Y-14409700D02*
X6748500Y-14444700D01*
X6748500Y-14409700D02*
X6713500Y-14444700D01*
X6726200Y-11907800D02*
X6761200Y-11942800D01*
X6761200Y-11907800D02*
X6726200Y-11942800D01*
X6726200Y-12695200D02*
X6761200Y-12730200D01*
X6761200Y-12695200D02*
X6726200Y-12730200D01*
X6789700Y-11641101D02*
X6824700Y-11676101D01*
X6824700Y-11641101D02*
X6789700Y-11676101D01*
X6789700Y-13012700D02*
X6824700Y-13047700D01*
X6824700Y-13012700D02*
X6789700Y-13047700D01*
X6827800Y-11412500D02*
X6862800Y-11447500D01*
X6862800Y-11412500D02*
X6827800Y-11447500D01*
X6840500Y-7348500D02*
X6875500Y-7383500D01*
X6875500Y-7348500D02*
X6840500Y-7383500D01*
X6840500Y-8237500D02*
X6875500Y-8272500D01*
X6875500Y-8237500D02*
X6840500Y-8272500D01*
X6840500Y-13266700D02*
X6875500Y-13301700D01*
X6875500Y-13266700D02*
X6840500Y-13301700D01*
X6929400Y-10904500D02*
X6964400Y-10939500D01*
X6964400Y-10904500D02*
X6929400Y-10939500D01*
X6929400Y-11133100D02*
X6964400Y-11168100D01*
X6964400Y-11133100D02*
X6929400Y-11168100D01*
X6967500Y-8872500D02*
X7002500Y-8907500D01*
X7002500Y-8872500D02*
X6967500Y-8907500D01*
X7005600Y-10663200D02*
X7040600Y-10698200D01*
X7040600Y-10663200D02*
X7005600Y-10698200D01*
X7107200Y-9596400D02*
X7142200Y-9631400D01*
X7142200Y-9596400D02*
X7107200Y-9631400D01*
X7119900Y-8433080D02*
X7154900Y-8468080D01*
X7154900Y-8433080D02*
X7119900Y-8468080D01*
X7183400Y-9445222D02*
X7218400Y-9480222D01*
X7218400Y-9445222D02*
X7183400Y-9480222D01*
X7335800Y-14371600D02*
X7370800Y-14406600D01*
X7370800Y-14371600D02*
X7335800Y-14406600D01*
X7335800Y-14917700D02*
X7370800Y-14952700D01*
X7370800Y-14917700D02*
X7335800Y-14952700D01*
X7412000Y-13457200D02*
X7447000Y-13492200D01*
X7447000Y-13457200D02*
X7412000Y-13492200D01*
X7475500Y-8618500D02*
X7510500Y-8653500D01*
X7510500Y-8618500D02*
X7475500Y-8653500D01*
X7500900Y-14028700D02*
X7535900Y-14063700D01*
X7535900Y-14028700D02*
X7500900Y-14063700D01*
X7531380Y-8181620D02*
X7566380Y-8216620D01*
X7566380Y-8181620D02*
X7531380Y-8216620D01*
X7551700Y-13876300D02*
X7586700Y-13911300D01*
X7586700Y-13876300D02*
X7551700Y-13911300D01*
X7574560Y-12700280D02*
X7609560Y-12735280D01*
X7609560Y-12700280D02*
X7574560Y-12735280D01*
X7577100Y-9647200D02*
X7612100Y-9682200D01*
X7612100Y-9647200D02*
X7577100Y-9682200D01*
X7589800Y-7554240D02*
X7624800Y-7589240D01*
X7624800Y-7554240D02*
X7589800Y-7589240D01*
X7650760Y-11920500D02*
X7685760Y-11955500D01*
X7685760Y-11920500D02*
X7650760Y-11955500D01*
X7670601Y-12030199D02*
X7705601Y-12065199D01*
X7705601Y-12030199D02*
X7670601Y-12065199D01*
X7716800Y-14524000D02*
X7751800Y-14559000D01*
X7751800Y-14524000D02*
X7716800Y-14559000D01*
X7722401Y-11825999D02*
X7757401Y-11860999D01*
X7757401Y-11825999D02*
X7722401Y-11860999D01*
X7726960Y-11666500D02*
X7761960Y-11701500D01*
X7761960Y-11666500D02*
X7726960Y-11701500D01*
X7760501Y-11571999D02*
X7795501Y-11606999D01*
X7795501Y-11571999D02*
X7760501Y-11606999D01*
X7770140Y-11392180D02*
X7805140Y-11427180D01*
X7805140Y-11392180D02*
X7770140Y-11427180D01*
X7772680Y-7838720D02*
X7807680Y-7873720D01*
X7807680Y-7838720D02*
X7772680Y-7873720D01*
X7824001Y-11317999D02*
X7859001Y-11352999D01*
X7859001Y-11317999D02*
X7824001Y-11352999D01*
X7843800Y-9825000D02*
X7878800Y-9860000D01*
X7878800Y-9825000D02*
X7843800Y-9860000D01*
X7853960Y-14544320D02*
X7888960Y-14579320D01*
X7888960Y-14544320D02*
X7853960Y-14579320D01*
X7983500Y-9063000D02*
X8018500Y-9098000D01*
X8018500Y-9063000D02*
X7983500Y-9098000D01*
X7996200Y-10904500D02*
X8031200Y-10939500D01*
X8031200Y-10904500D02*
X7996200Y-10939500D01*
X8008900Y-11171200D02*
X8043900Y-11206200D01*
X8043900Y-11171200D02*
X8008900Y-11206200D01*
X8072400Y-11450600D02*
X8107400Y-11485600D01*
X8107400Y-11450600D02*
X8072400Y-11485600D01*
X8085100Y-10650500D02*
X8120100Y-10685500D01*
X8120100Y-10650500D02*
X8085100Y-10685500D01*
X8085100Y-12123700D02*
X8120100Y-12158700D01*
X8120100Y-12123700D02*
X8085100Y-12158700D01*
X8085100Y-13952500D02*
X8120100Y-13987500D01*
X8120100Y-13952500D02*
X8085100Y-13987500D01*
X8087161Y-8074461D02*
X8122161Y-8109461D01*
X8122161Y-8074461D02*
X8087161Y-8109461D01*
X8110500Y-8682000D02*
X8145500Y-8717000D01*
X8145500Y-8682000D02*
X8110500Y-8717000D01*
X8110500Y-12682500D02*
X8145500Y-12717500D01*
X8145500Y-12682500D02*
X8110500Y-12717500D01*
X8135900Y-14282700D02*
X8170900Y-14317700D01*
X8170900Y-14282700D02*
X8135900Y-14317700D01*
X8174000Y-12530100D02*
X8209000Y-12565100D01*
X8209000Y-12530100D02*
X8174000Y-12565100D01*
X8186700Y-13406400D02*
X8221700Y-13441400D01*
X8221700Y-13406400D02*
X8186700Y-13441400D01*
X8186700Y-14930400D02*
X8221700Y-14965400D01*
X8221700Y-14930400D02*
X8186700Y-14965400D01*
X8199400Y-12274399D02*
X8234400Y-12309399D01*
X8234400Y-12274399D02*
X8199400Y-12309399D01*
X8359432Y-10035380D02*
X8394432Y-10070380D01*
X8394432Y-10035380D02*
X8359432Y-10070380D01*
X8389900Y-10421900D02*
X8424900Y-10456900D01*
X8424900Y-10421900D02*
X8389900Y-10456900D01*
X8491498Y-9972320D02*
X8526498Y-10007320D01*
X8526498Y-9972320D02*
X8491498Y-10007320D01*
X8516900Y-9634500D02*
X8551900Y-9669500D01*
X8551900Y-9634500D02*
X8516900Y-9669500D01*
X8516900Y-12174500D02*
X8551900Y-12209500D01*
X8551900Y-12174500D02*
X8516900Y-12209500D01*
X8529600Y-13889000D02*
X8564600Y-13924000D01*
X8564600Y-13889000D02*
X8529600Y-13924000D01*
X8529600Y-14308100D02*
X8564600Y-14343100D01*
X8564600Y-14308100D02*
X8529600Y-14343100D01*
X8567700Y-11450600D02*
X8602700Y-11485600D01*
X8602700Y-11450600D02*
X8567700Y-11485600D01*
X8580400Y-10688600D02*
X8615400Y-10723600D01*
X8615400Y-10688600D02*
X8580400Y-10723600D01*
X8682000Y-6523000D02*
X8717000Y-6558000D01*
X8717000Y-6523000D02*
X8682000Y-6558000D01*
X8872500Y-7285000D02*
X8907500Y-7320000D01*
X8907500Y-7285000D02*
X8872500Y-7320000D01*
X8872500Y-9799600D02*
X8907500Y-9834600D01*
X8907500Y-9799600D02*
X8872500Y-9834600D01*
X8999500Y-14206500D02*
X9034500Y-14241500D01*
X9034500Y-14206500D02*
X8999500Y-14241500D01*
X8999500Y-14320800D02*
X9034500Y-14355800D01*
X9034500Y-14320800D02*
X8999500Y-14355800D01*
X9075700Y-11514100D02*
X9110700Y-11549100D01*
X9110700Y-11514100D02*
X9075700Y-11549100D01*
X9075700Y-14130302D02*
X9110700Y-14165302D01*
X9110700Y-14130302D02*
X9075700Y-14165302D01*
X9126500Y-10104400D02*
X9161500Y-10139400D01*
X9161500Y-10104400D02*
X9126500Y-10139400D01*
X9126500Y-14397000D02*
X9161500Y-14432000D01*
X9161500Y-14397000D02*
X9126500Y-14432000D01*
X9215400Y-13596900D02*
X9250400Y-13631900D01*
X9250400Y-13596900D02*
X9215400Y-13631900D01*
X9304300Y-7945400D02*
X9339300Y-7980400D01*
X9339300Y-7945400D02*
X9304300Y-7980400D01*
X9380500Y-6586500D02*
X9415500Y-6621500D01*
X9415500Y-6586500D02*
X9380500Y-6621500D01*
X9444000Y-7285000D02*
X9479000Y-7320000D01*
X9479000Y-7285000D02*
X9444000Y-7320000D01*
X9634500Y-14003300D02*
X9669500Y-14038300D01*
X9669500Y-14003300D02*
X9634500Y-14038300D01*
X9698000Y-14270000D02*
X9733000Y-14305000D01*
X9733000Y-14270000D02*
X9698000Y-14305000D01*
X9888500Y-9190000D02*
X9923500Y-9225000D01*
X9923500Y-9190000D02*
X9888500Y-9225000D01*
X9990100Y-14943100D02*
X10025100Y-14978100D01*
X10025100Y-14943100D02*
X9990100Y-14978100D01*
X9998266Y-12289346D02*
X10033266Y-12324346D01*
X10033266Y-12289346D02*
X9998266Y-12324346D01*
X10015500Y-7894600D02*
X10050500Y-7929600D01*
X10050500Y-7894600D02*
X10015500Y-7929600D01*
X10040900Y-7399300D02*
X10075900Y-7434300D01*
X10075900Y-7399300D02*
X10040900Y-7434300D01*
X10045980Y-12682500D02*
X10080980Y-12717500D01*
X10080980Y-12682500D02*
X10045980Y-12717500D01*
X10069740Y-12834000D02*
X10104740Y-12869000D01*
X10104740Y-12834000D02*
X10069740Y-12869000D01*
X10079000Y-6523000D02*
X10114000Y-6558000D01*
X10114000Y-6523000D02*
X10079000Y-6558000D01*
X10142500Y-8682000D02*
X10177500Y-8717000D01*
X10177500Y-8682000D02*
X10142500Y-8717000D01*
X10180600Y-9596400D02*
X10215600Y-9631400D01*
X10215600Y-9596400D02*
X10180600Y-9631400D01*
X10193300Y-9215400D02*
X10228300Y-9250400D01*
X10228300Y-9215400D02*
X10193300Y-9250400D01*
X10218700Y-14320800D02*
X10253700Y-14355800D01*
X10253700Y-14320800D02*
X10218700Y-14355800D01*
X10239020Y-9372880D02*
X10274020Y-9407880D01*
X10274020Y-9372880D02*
X10239020Y-9407880D01*
X10251720Y-7833640D02*
X10286720Y-7868640D01*
X10286720Y-7833640D02*
X10251720Y-7868640D01*
X10278390Y-8500390D02*
X10313390Y-8535390D01*
X10313390Y-8500390D02*
X10278390Y-8535390D01*
X10279660Y-11366780D02*
X10314660Y-11401780D01*
X10314660Y-11366780D02*
X10279660Y-11401780D01*
X10282200Y-13647700D02*
X10317200Y-13682700D01*
X10317200Y-13647700D02*
X10282200Y-13682700D01*
X10340620Y-11633480D02*
X10375620Y-11668480D01*
X10375620Y-11633480D02*
X10340620Y-11668480D01*
X10343999Y-9320379D02*
X10378999Y-9355379D01*
X10378999Y-9320379D02*
X10343999Y-9355379D01*
X10404120Y-10127260D02*
X10439120Y-10162260D01*
X10439120Y-10127260D02*
X10404120Y-10162260D01*
X10421900Y-13939800D02*
X10456900Y-13974800D01*
X10456900Y-13939800D02*
X10421900Y-13974800D01*
X10439680Y-11890020D02*
X10474680Y-11925020D01*
X10474680Y-11890020D02*
X10439680Y-11925020D01*
X10493020Y-7930160D02*
X10528020Y-7965160D01*
X10528020Y-7930160D02*
X10493020Y-7965160D01*
X10510800Y-12108460D02*
X10545800Y-12143460D01*
X10545800Y-12108460D02*
X10510800Y-12143460D01*
X10564979Y-9153206D02*
X10599979Y-9188206D01*
X10599979Y-9153206D02*
X10564979Y-9188206D01*
X10599700Y-8961400D02*
X10634700Y-8996400D01*
X10634700Y-8961400D02*
X10599700Y-8996400D01*
X10612400Y-11829060D02*
X10647400Y-11864060D01*
X10647400Y-11829060D02*
X10612400Y-11864060D01*
X10650500Y-14270000D02*
X10685500Y-14305000D01*
X10685500Y-14270000D02*
X10650500Y-14305000D01*
X10665022Y-8823401D02*
X10700022Y-8858401D01*
X10700022Y-8823401D02*
X10665022Y-8858401D01*
X10688600Y-11917960D02*
X10723600Y-11952960D01*
X10723600Y-11917960D02*
X10688600Y-11952960D01*
X10700499Y-7930160D02*
X10735499Y-7965160D01*
X10735499Y-7930160D02*
X10700499Y-7965160D01*
X10726700Y-14028700D02*
X10761700Y-14063700D01*
X10761700Y-14028700D02*
X10726700Y-14063700D01*
X10752100Y-9698000D02*
X10787100Y-9733000D01*
X10787100Y-9698000D02*
X10752100Y-9733000D01*
X10841000Y-7666000D02*
X10876000Y-7701000D01*
X10876000Y-7666000D02*
X10841000Y-7701000D01*
X10851999Y-13185420D02*
X10886999Y-13220420D01*
X10886999Y-13185420D02*
X10851999Y-13220420D01*
X10893118Y-13069001D02*
X10928118Y-13104001D01*
X10928118Y-13069001D02*
X10893118Y-13104001D01*
X10904500Y-6586500D02*
X10939500Y-6621500D01*
X10939500Y-6586500D02*
X10904500Y-6621500D01*
X10904500Y-10142500D02*
X10939500Y-10177500D01*
X10939500Y-10142500D02*
X10904500Y-10177500D01*
X10904500Y-12174500D02*
X10939500Y-12209500D01*
X10939500Y-12174500D02*
X10904500Y-12209500D01*
X10904500Y-12428500D02*
X10939500Y-12463500D01*
X10939500Y-12428500D02*
X10904500Y-12463500D01*
X10917368Y-8583570D02*
X10952368Y-8618570D01*
X10952368Y-8583570D02*
X10917368Y-8618570D01*
X10929900Y-9126500D02*
X10964900Y-9161500D01*
X10964900Y-9126500D02*
X10929900Y-9161500D01*
X10945198Y-12773998D02*
X10980198Y-12808998D01*
X10980198Y-12773998D02*
X10945198Y-12808998D01*
X10968000Y-8682000D02*
X11003000Y-8717000D01*
X11003000Y-8682000D02*
X10968000Y-8717000D01*
X10987875Y-8535125D02*
X11022875Y-8570125D01*
X11022875Y-8535125D02*
X10987875Y-8570125D01*
X11006100Y-7196100D02*
X11041100Y-7231100D01*
X11041100Y-7196100D02*
X11006100Y-7231100D01*
X11059276Y-8482092D02*
X11094276Y-8517092D01*
X11094276Y-8482092D02*
X11059276Y-8517092D01*
X11173740Y-6525540D02*
X11208740Y-6560540D01*
X11208740Y-6525540D02*
X11173740Y-6560540D01*
X11222000Y-14143000D02*
X11257000Y-14178000D01*
X11257000Y-14143000D02*
X11222000Y-14178000D01*
X11229620Y-8524520D02*
X11264620Y-8559520D01*
X11264620Y-8524520D02*
X11229620Y-8559520D01*
X11285500Y-8682000D02*
X11320500Y-8717000D01*
X11320500Y-8682000D02*
X11285500Y-8717000D01*
X11323600Y-9634500D02*
X11358600Y-9669500D01*
X11358600Y-9634500D02*
X11323600Y-9669500D01*
X11336300Y-13508000D02*
X11371300Y-13543000D01*
X11371300Y-13508000D02*
X11336300Y-13543000D01*
X11349000Y-12987300D02*
X11384000Y-13022300D01*
X11384000Y-12987300D02*
X11349000Y-13022300D01*
X11361700Y-9101100D02*
X11396700Y-9136100D01*
X11396700Y-9101100D02*
X11361700Y-9136100D01*
X11369320Y-8331480D02*
X11404320Y-8366480D01*
X11404320Y-8331480D02*
X11369320Y-8366480D01*
X11374400Y-9926600D02*
X11409400Y-9961600D01*
X11409400Y-9926600D02*
X11374400Y-9961600D01*
X11387100Y-11272800D02*
X11422100Y-11307800D01*
X11422100Y-11272800D02*
X11387100Y-11307800D01*
X11399800Y-10206000D02*
X11434800Y-10241000D01*
X11434800Y-10206000D02*
X11399800Y-10241000D01*
X11399800Y-11717300D02*
X11434800Y-11752300D01*
X11434800Y-11717300D02*
X11399800Y-11752300D01*
X11404880Y-11920500D02*
X11439880Y-11955500D01*
X11439880Y-11920500D02*
X11404880Y-11955500D01*
X11412500Y-8872500D02*
X11447500Y-8907500D01*
X11447500Y-8872500D02*
X11412500Y-8907500D01*
X11412500Y-10409200D02*
X11447500Y-10444200D01*
X11447500Y-10409200D02*
X11412500Y-10444200D01*
X11412500Y-10675900D02*
X11447500Y-10710900D01*
X11447500Y-10675900D02*
X11412500Y-10710900D01*
X11412500Y-12174500D02*
X11447500Y-12209500D01*
X11447500Y-12174500D02*
X11412500Y-12209500D01*
X11425200Y-13850900D02*
X11460200Y-13885900D01*
X11460200Y-13850900D02*
X11425200Y-13885900D01*
X11437900Y-7259600D02*
X11472900Y-7294600D01*
X11472900Y-7259600D02*
X11437900Y-7294600D01*
X11448060Y-12392940D02*
X11483060Y-12427940D01*
X11483060Y-12392940D02*
X11448060Y-12427940D01*
X11476000Y-6713500D02*
X11511000Y-6748500D01*
X11511000Y-6713500D02*
X11476000Y-6748500D01*
X11476000Y-7500900D02*
X11511000Y-7535900D01*
X11511000Y-7500900D02*
X11476000Y-7535900D01*
X11536960Y-8610880D02*
X11571960Y-8645880D01*
X11571960Y-8610880D02*
X11536960Y-8645880D01*
X11638560Y-8402600D02*
X11673560Y-8437600D01*
X11673560Y-8402600D02*
X11638560Y-8437600D01*
X11653800Y-7691400D02*
X11688800Y-7726400D01*
X11688800Y-7691400D02*
X11653800Y-7726400D01*
X11679200Y-14930400D02*
X11714200Y-14965400D01*
X11714200Y-14930400D02*
X11679200Y-14965400D01*
X11684280Y-11877320D02*
X11719280Y-11912320D01*
X11719280Y-11877320D02*
X11684280Y-11912320D01*
X11790960Y-8346720D02*
X11825960Y-8381720D01*
X11825960Y-8346720D02*
X11790960Y-8381720D01*
X11793500Y-7285000D02*
X11828500Y-7320000D01*
X11828500Y-7285000D02*
X11793500Y-7320000D01*
X11857000Y-9571000D02*
X11892000Y-9606000D01*
X11892000Y-9571000D02*
X11857000Y-9606000D01*
X11920500Y-8618500D02*
X11955500Y-8653500D01*
X11955500Y-8618500D02*
X11920500Y-8653500D01*
X11926710Y-8252519D02*
X11961710Y-8287519D01*
X11961710Y-8252519D02*
X11926710Y-8287519D01*
X11971300Y-12949200D02*
X12006300Y-12984200D01*
X12006300Y-12949200D02*
X11971300Y-12984200D01*
X12009400Y-9151900D02*
X12044400Y-9186900D01*
X12044400Y-9151900D02*
X12009400Y-9186900D01*
X12052580Y-13866140D02*
X12087580Y-13901140D01*
X12087580Y-13866140D02*
X12052580Y-13901140D01*
X12111000Y-13965200D02*
X12146000Y-14000200D01*
X12146000Y-13965200D02*
X12111000Y-14000200D01*
X12118620Y-13340360D02*
X12153620Y-13375360D01*
X12153620Y-13340360D02*
X12118620Y-13375360D01*
X12145376Y-8206277D02*
X12180376Y-8241277D01*
X12180376Y-8206277D02*
X12145376Y-8241277D01*
X12174500Y-11349000D02*
X12209500Y-11384000D01*
X12209500Y-11349000D02*
X12174500Y-11384000D01*
X12187200Y-7335800D02*
X12222200Y-7370800D01*
X12222200Y-7335800D02*
X12187200Y-7370800D01*
X12199900Y-13419100D02*
X12234900Y-13454100D01*
X12234900Y-13419100D02*
X12199900Y-13454100D01*
X12225300Y-11704600D02*
X12260300Y-11739600D01*
X12260300Y-11704600D02*
X12225300Y-11739600D01*
X12298004Y-9214178D02*
X12333004Y-9249178D01*
X12333004Y-9214178D02*
X12298004Y-9249178D01*
X12298004Y-12124656D02*
X12333004Y-12159656D01*
X12333004Y-12124656D02*
X12298004Y-12159656D01*
X12314200Y-12936500D02*
X12349200Y-12971500D01*
X12349200Y-12936500D02*
X12314200Y-12971500D01*
X12319280Y-7475500D02*
X12354280Y-7510500D01*
X12354280Y-7475500D02*
X12319280Y-7510500D01*
X12365000Y-8377200D02*
X12400000Y-8412200D01*
X12400000Y-8377200D02*
X12365000Y-8412200D01*
X12365000Y-9063000D02*
X12400000Y-9098000D01*
X12400000Y-9063000D02*
X12365000Y-9098000D01*
X12377700Y-10142500D02*
X12412700Y-10177500D01*
X12412700Y-10142500D02*
X12377700Y-10177500D01*
X12390400Y-9875800D02*
X12425400Y-9910800D01*
X12425400Y-9875800D02*
X12390400Y-9910800D01*
X12403100Y-10396500D02*
X12438100Y-10431500D01*
X12438100Y-10396500D02*
X12403100Y-10431500D01*
X12403100Y-10891800D02*
X12438100Y-10926800D01*
X12438100Y-10891800D02*
X12403100Y-10926800D01*
X12403100Y-12161800D02*
X12438100Y-12196800D01*
X12438100Y-12161800D02*
X12403100Y-12196800D01*
X12415800Y-11310900D02*
X12450800Y-11345900D01*
X12450800Y-11310900D02*
X12415800Y-11345900D01*
X12428500Y-6396000D02*
X12463500Y-6431000D01*
X12463500Y-6396000D02*
X12428500Y-6431000D01*
X12497080Y-11445520D02*
X12532080Y-11480520D01*
X12532080Y-11445520D02*
X12497080Y-11480520D01*
X12504700Y-11722380D02*
X12539700Y-11757380D01*
X12539700Y-11722380D02*
X12504700Y-11757380D01*
X12580900Y-9545600D02*
X12615900Y-9580600D01*
X12615900Y-9545600D02*
X12580900Y-9580600D01*
X12607140Y-8048564D02*
X12642140Y-8083564D01*
X12642140Y-8048564D02*
X12607140Y-8083564D01*
X12619000Y-9126500D02*
X12654000Y-9161500D01*
X12654000Y-9126500D02*
X12619000Y-9161500D01*
X12682500Y-8207020D02*
X12717500Y-8242020D01*
X12717500Y-8207020D02*
X12682500Y-8242020D01*
X12746000Y-13266700D02*
X12781000Y-13301700D01*
X12781000Y-13266700D02*
X12746000Y-13301700D01*
X12767886Y-8365339D02*
X12802886Y-8400339D01*
X12802886Y-8365339D02*
X12767886Y-8400339D01*
X12816756Y-8209499D02*
X12851756Y-8244499D01*
X12851756Y-8209499D02*
X12816756Y-8244499D01*
X12859400Y-12580000D02*
X12894400Y-12615000D01*
X12894400Y-12580000D02*
X12859400Y-12615000D01*
X12887120Y-10797502D02*
X12922120Y-10832502D01*
X12922120Y-10797502D02*
X12887120Y-10832502D01*
X12888240Y-10988320D02*
X12923240Y-11023320D01*
X12923240Y-10988320D02*
X12888240Y-11023320D01*
X12898400Y-14930400D02*
X12933400Y-14965400D01*
X12933400Y-14930400D02*
X12898400Y-14965400D01*
X12908266Y-8272766D02*
X12943266Y-8307766D01*
X12943266Y-8272766D02*
X12908266Y-8307766D01*
X12913640Y-11105999D02*
X12948640Y-11140999D01*
X12948640Y-11105999D02*
X12913640Y-11140999D01*
X12916180Y-11925580D02*
X12951180Y-11960580D01*
X12951180Y-11925580D02*
X12916180Y-11960580D01*
X12963798Y-10161119D02*
X12998798Y-10196119D01*
X12998798Y-10161119D02*
X12963798Y-10196119D01*
X12984760Y-10393960D02*
X13019760Y-10428960D01*
X13019760Y-10393960D02*
X12984760Y-10428960D01*
X13000000Y-11234700D02*
X13035000Y-11269700D01*
X13035000Y-11234700D02*
X13000000Y-11269700D01*
X13001474Y-10921420D02*
X13036474Y-10956420D01*
X13036474Y-10921420D02*
X13001474Y-10956420D01*
X13012700Y-13673100D02*
X13047700Y-13708100D01*
X13047700Y-13673100D02*
X13012700Y-13708100D01*
X13030762Y-8308926D02*
X13065762Y-8343926D01*
X13065762Y-8308926D02*
X13030762Y-8343926D01*
X13050800Y-8643900D02*
X13085800Y-8678900D01*
X13085800Y-8643900D02*
X13050800Y-8678900D01*
X13063500Y-12961900D02*
X13098500Y-12996900D01*
X13098500Y-12961900D02*
X13063500Y-12996900D01*
X13074909Y-10272879D02*
X13109909Y-10307879D01*
X13109909Y-10272879D02*
X13074909Y-10307879D01*
X13123961Y-10797502D02*
X13158961Y-10832502D01*
X13158961Y-10797502D02*
X13123961Y-10832502D01*
X13127000Y-8301000D02*
X13162000Y-8336000D01*
X13162000Y-8301000D02*
X13127000Y-8336000D01*
X13139700Y-9151900D02*
X13174700Y-9186900D01*
X13174700Y-9151900D02*
X13139700Y-9186900D01*
X13139700Y-12479300D02*
X13174700Y-12514300D01*
X13174700Y-12479300D02*
X13139700Y-12514300D01*
X13152400Y-10993400D02*
X13187400Y-11028400D01*
X13187400Y-10993400D02*
X13152400Y-11028400D01*
X13152400Y-11171200D02*
X13187400Y-11206200D01*
X13187400Y-11171200D02*
X13152400Y-11206200D01*
X13152400Y-11514100D02*
X13187400Y-11549100D01*
X13187400Y-11514100D02*
X13152400Y-11549100D01*
X13152400Y-12657100D02*
X13187400Y-12692100D01*
X13187400Y-12657100D02*
X13152400Y-12692100D01*
X13162390Y-10648799D02*
X13197390Y-10683799D01*
X13197390Y-10648799D02*
X13162390Y-10683799D01*
X13162560Y-8105420D02*
X13197560Y-8140420D01*
X13197560Y-8105420D02*
X13162560Y-8140420D01*
X13165100Y-12174500D02*
X13200100Y-12209500D01*
X13200100Y-12174500D02*
X13165100Y-12209500D01*
X13177800Y-8847100D02*
X13212800Y-8882100D01*
X13212800Y-8847100D02*
X13177800Y-8882100D01*
X13228600Y-7932700D02*
X13263600Y-7967700D01*
X13263600Y-7932700D02*
X13228600Y-7967700D01*
X13231140Y-11407420D02*
X13266140Y-11442420D01*
X13266140Y-11407420D02*
X13231140Y-11442420D01*
X13289560Y-10056140D02*
X13324560Y-10091140D01*
X13324560Y-10056140D02*
X13289560Y-10091140D01*
X13299720Y-10325380D02*
X13334720Y-10360380D01*
X13334720Y-10325380D02*
X13299720Y-10360380D01*
X13320040Y-7876820D02*
X13355040Y-7911820D01*
X13355040Y-7876820D02*
X13320040Y-7911820D01*
X13322273Y-12811201D02*
X13357273Y-12846201D01*
X13357273Y-12811201D02*
X13322273Y-12846201D01*
X13349891Y-12437632D02*
X13384891Y-12472632D01*
X13384891Y-12437632D02*
X13349891Y-12472632D01*
X13354486Y-12168498D02*
X13389486Y-12203498D01*
X13389486Y-12168498D02*
X13354486Y-12203498D01*
X13386080Y-8524520D02*
X13421080Y-8559520D01*
X13421080Y-8524520D02*
X13386080Y-8559520D01*
X13419100Y-7823480D02*
X13454100Y-7858480D01*
X13454100Y-7823480D02*
X13419100Y-7858480D01*
X13431800Y-7348500D02*
X13466800Y-7383500D01*
X13466800Y-7348500D02*
X13431800Y-7383500D01*
X13431800Y-10066300D02*
X13466800Y-10101300D01*
X13466800Y-10066300D02*
X13431800Y-10101300D01*
X13431800Y-10625100D02*
X13466800Y-10660100D01*
X13466800Y-10625100D02*
X13431800Y-10660100D01*
X13431800Y-13558800D02*
X13466800Y-13593800D01*
X13466800Y-13558800D02*
X13431800Y-13593800D01*
X13434340Y-12753620D02*
X13469340Y-12788620D01*
X13469340Y-12753620D02*
X13434340Y-12788620D01*
X13444500Y-8174000D02*
X13479500Y-8209000D01*
X13479500Y-8174000D02*
X13444500Y-8209000D01*
X13454660Y-12362460D02*
X13489660Y-12397460D01*
X13489660Y-12362460D02*
X13454660Y-12397460D01*
X13469900Y-9761500D02*
X13504900Y-9796500D01*
X13504900Y-9761500D02*
X13469900Y-9796500D01*
X13477520Y-9870720D02*
X13512520Y-9905720D01*
X13512520Y-9870720D02*
X13477520Y-9905720D01*
X13482600Y-8631200D02*
X13517600Y-8666200D01*
X13517600Y-8631200D02*
X13482600Y-8666200D01*
X13508000Y-6396000D02*
X13543000Y-6431000D01*
X13543000Y-6396000D02*
X13508000Y-6431000D01*
X13508000Y-8301000D02*
X13543000Y-8336000D01*
X13543000Y-8301000D02*
X13508000Y-8336000D01*
X13571500Y-9190000D02*
X13606500Y-9225000D01*
X13606500Y-9190000D02*
X13571500Y-9225000D01*
X13637540Y-10142500D02*
X13672540Y-10177500D01*
X13672540Y-10142500D02*
X13637540Y-10177500D01*
X13688340Y-9334780D02*
X13723340Y-9369780D01*
X13723340Y-9334780D02*
X13688340Y-9369780D01*
X13723900Y-11501400D02*
X13758900Y-11536400D01*
X13758900Y-11501400D02*
X13723900Y-11536400D01*
X13736600Y-10968000D02*
X13771600Y-11003000D01*
X13771600Y-10968000D02*
X13736600Y-11003000D01*
X13889000Y-12974600D02*
X13924000Y-13009600D01*
X13924000Y-12974600D02*
X13889000Y-13009600D01*
X13889000Y-13266700D02*
X13924000Y-13301700D01*
X13924000Y-13266700D02*
X13889000Y-13301700D01*
X13965200Y-14041400D02*
X14000200Y-14076400D01*
X14000200Y-14041400D02*
X13965200Y-14076400D01*
X14155700Y-14158240D02*
X14190700Y-14193240D01*
X14190700Y-14158240D02*
X14155700Y-14193240D01*
X14193800Y-7335800D02*
X14228800Y-7370800D01*
X14228800Y-7335800D02*
X14193800Y-7370800D01*
X14249680Y-14145540D02*
X14284680Y-14180540D01*
X14284680Y-14145540D02*
X14249680Y-14180540D01*
X14261628Y-11950228D02*
X14296628Y-11985228D01*
X14296628Y-11950228D02*
X14261628Y-11985228D01*
X14275080Y-12192280D02*
X14310080Y-12227280D01*
X14310080Y-12192280D02*
X14275080Y-12227280D01*
X14275080Y-14257300D02*
X14310080Y-14292300D01*
X14310080Y-14257300D02*
X14275080Y-14292300D01*
X14282700Y-14917700D02*
X14317700Y-14952700D01*
X14317700Y-14917700D02*
X14282700Y-14952700D01*
X14312701Y-11687299D02*
X14347701Y-11722299D01*
X14347701Y-11687299D02*
X14312701Y-11722299D01*
X14363980Y-10360940D02*
X14398980Y-10395940D01*
X14398980Y-10360940D02*
X14363980Y-10395940D01*
X14386840Y-9781820D02*
X14421840Y-9816820D01*
X14421840Y-9781820D02*
X14386840Y-9816820D01*
X14409700Y-14117600D02*
X14444700Y-14152600D01*
X14444700Y-14117600D02*
X14409700Y-14152600D01*
X14435100Y-10117100D02*
X14470100Y-10152100D01*
X14470100Y-10117100D02*
X14435100Y-10152100D01*
X14447800Y-9190000D02*
X14482800Y-9225000D01*
X14482800Y-9190000D02*
X14447800Y-9225000D01*
X14473200Y-8885200D02*
X14508200Y-8920200D01*
X14508200Y-8885200D02*
X14473200Y-8920200D01*
X14473200Y-12961900D02*
X14508200Y-12996900D01*
X14508200Y-12961900D02*
X14473200Y-12996900D01*
X14485900Y-11867999D02*
X14520900Y-11902999D01*
X14520900Y-11867999D02*
X14485900Y-11902999D01*
X14511300Y-9520200D02*
X14546300Y-9555200D01*
X14546300Y-9520200D02*
X14511300Y-9555200D01*
X14562100Y-11818900D02*
X14597100Y-11853900D01*
X14597100Y-11818900D02*
X14562100Y-11853900D01*
X14587500Y-6396000D02*
X14622500Y-6431000D01*
X14622500Y-6396000D02*
X14587500Y-6431000D01*
X14638300Y-7335800D02*
X14673300Y-7370800D01*
X14673300Y-7335800D02*
X14638300Y-7370800D01*
X14638300Y-13254000D02*
X14673300Y-13289000D01*
X14673300Y-13254000D02*
X14638300Y-13289000D01*
X14905000Y-8885200D02*
X14940000Y-8920200D01*
X14940000Y-8885200D02*
X14905000Y-8920200D01*
X14905000Y-9482100D02*
X14940000Y-9517100D01*
X14940000Y-9482100D02*
X14905000Y-9517100D01*
X14917700Y-10167900D02*
X14952700Y-10202900D01*
X14952700Y-10167900D02*
X14917700Y-10202900D01*
X14917700Y-10904500D02*
X14952700Y-10939500D01*
X14952700Y-10904500D02*
X14917700Y-10939500D01*
X14930400Y-11158500D02*
X14965400Y-11193500D01*
X14965400Y-11158500D02*
X14930400Y-11193500D01*
X14930400Y-11437900D02*
X14965400Y-11472900D01*
X14965400Y-11437900D02*
X14930400Y-11472900D01*
X14955800Y-9771660D02*
X14990800Y-9806660D01*
X14990800Y-9771660D02*
X14955800Y-9806660D01*
X14955800Y-14282700D02*
X14990800Y-14317700D01*
X14990800Y-14282700D02*
X14955800Y-14317700D01*
X15039065Y-9178726D02*
X15074065Y-9213726D01*
X15074065Y-9178726D02*
X15039065Y-9213726D01*
X15085340Y-9616720D02*
X15120340Y-9651720D01*
X15120340Y-9616720D02*
X15085340Y-9651720D01*
X15095500Y-8237500D02*
X15130500Y-8272500D01*
X15130500Y-8237500D02*
X15095500Y-8272500D01*
X15138680Y-9791980D02*
X15173680Y-9826980D01*
X15173680Y-9791980D02*
X15138680Y-9826980D01*
X15141963Y-10096780D02*
X15176963Y-10131780D01*
X15176963Y-10096780D02*
X15141963Y-10131780D01*
X15171964Y-10241499D02*
X15206964Y-10276499D01*
X15206964Y-10241499D02*
X15171964Y-10276499D01*
X15199418Y-10514179D02*
X15234418Y-10549179D01*
X15234418Y-10514179D02*
X15199418Y-10549179D01*
X15235200Y-10358400D02*
X15270200Y-10393400D01*
X15270200Y-10358400D02*
X15235200Y-10393400D01*
X15245360Y-10668280D02*
X15280360Y-10703280D01*
X15280360Y-10668280D02*
X15245360Y-10703280D01*
X15261968Y-10954499D02*
X15296968Y-10989499D01*
X15296968Y-10954499D02*
X15261968Y-10989499D01*
X15291969Y-11183900D02*
X15326969Y-11218900D01*
X15326969Y-11183900D02*
X15291969Y-11218900D01*
X15321970Y-11455680D02*
X15356970Y-11490680D01*
X15356970Y-11455680D02*
X15321970Y-11490680D01*
X15336800Y-8872500D02*
X15371800Y-8907500D01*
X15371800Y-8872500D02*
X15336800Y-8907500D01*
X15336800Y-14930400D02*
X15371800Y-14965400D01*
X15371800Y-14930400D02*
X15336800Y-14965400D01*
X15349500Y-8593100D02*
X15384500Y-8628100D01*
X15384500Y-8593100D02*
X15349500Y-8628100D01*
X15349500Y-9380500D02*
X15384500Y-9415500D01*
X15384500Y-9380500D02*
X15349500Y-9415500D01*
X15413000Y-11092460D02*
X15448000Y-11127460D01*
X15448000Y-11092460D02*
X15413000Y-11127460D01*
X15425700Y-14498600D02*
X15460700Y-14533600D01*
X15460700Y-14498600D02*
X15425700Y-14533600D01*
X15476500Y-14092200D02*
X15511500Y-14127200D01*
X15511500Y-14092200D02*
X15476500Y-14127200D01*
X15532380Y-9893580D02*
X15567380Y-9928580D01*
X15567380Y-9893580D02*
X15532380Y-9928580D01*
X15580640Y-14386840D02*
X15615640Y-14421840D01*
X15615640Y-14386840D02*
X15580640Y-14421840D01*
X15667000Y-7424700D02*
X15702000Y-7459700D01*
X15702000Y-7424700D02*
X15667000Y-7459700D01*
X15697480Y-14412240D02*
X15732480Y-14447240D01*
X15732480Y-14412240D02*
X15697480Y-14447240D01*
X15705100Y-14092200D02*
X15740100Y-14127200D01*
X15740100Y-14092200D02*
X15705100Y-14127200D01*
X15794000Y-6332500D02*
X15829000Y-6367500D01*
X15829000Y-6332500D02*
X15794000Y-6367500D01*
X15861991Y-14420768D02*
X15896991Y-14455768D01*
X15896991Y-14420768D02*
X15861991Y-14455768D01*
X15913380Y-11158500D02*
X15948380Y-11193500D01*
X15948380Y-11158500D02*
X15913380Y-11193500D01*
X15921000Y-11412500D02*
X15956000Y-11447500D01*
X15956000Y-11412500D02*
X15921000Y-11447500D01*
X15931999Y-10647960D02*
X15966999Y-10682960D01*
X15966999Y-10647960D02*
X15931999Y-10682960D01*
X15966806Y-14483155D02*
X16001806Y-14518155D01*
X16001806Y-14483155D02*
X15966806Y-14518155D01*
X15971800Y-11933200D02*
X16006800Y-11968200D01*
X16006800Y-11933200D02*
X15971800Y-11968200D01*
X15984500Y-10907040D02*
X16019500Y-10942040D01*
X16019500Y-10907040D02*
X15984500Y-10942040D01*
X16009900Y-12187200D02*
X16044900Y-12222200D01*
X16044900Y-12187200D02*
X16009900Y-12222200D01*
X16041219Y-11153420D02*
X16076219Y-11188420D01*
X16076219Y-11153420D02*
X16041219Y-11188420D01*
X16048839Y-14536694D02*
X16083839Y-14571694D01*
X16083839Y-14536694D02*
X16048839Y-14571694D01*
X16071220Y-11407420D02*
X16106220Y-11442420D01*
X16106220Y-11407420D02*
X16071220Y-11442420D01*
X16103880Y-14617980D02*
X16138880Y-14652980D01*
X16138880Y-14617980D02*
X16103880Y-14652980D01*
X16125039Y-11669040D02*
X16160039Y-11704040D01*
X16160039Y-11669040D02*
X16125039Y-11704040D01*
X16175839Y-11968760D02*
X16210839Y-12003760D01*
X16210839Y-11968760D02*
X16175839Y-12003760D01*
X16187700Y-14930400D02*
X16222700Y-14965400D01*
X16222700Y-14930400D02*
X16187700Y-14965400D01*
X16216081Y-14586446D02*
X16251081Y-14621446D01*
X16251081Y-14586446D02*
X16216081Y-14621446D01*
X16228340Y-12408180D02*
X16263340Y-12443180D01*
X16263340Y-12408180D02*
X16228340Y-12443180D01*
X16329940Y-8270520D02*
X16364940Y-8305520D01*
X16364940Y-8270520D02*
X16329940Y-8305520D01*
X16365500Y-7640600D02*
X16400500Y-7675600D01*
X16400500Y-7640600D02*
X16365500Y-7675600D01*
X16371001Y-12041999D02*
X16406001Y-12076999D01*
X16406001Y-12041999D02*
X16371001Y-12076999D01*
X16378200Y-7183400D02*
X16413200Y-7218400D01*
X16413200Y-7183400D02*
X16378200Y-7218400D01*
X16390900Y-10066300D02*
X16425900Y-10101300D01*
X16425900Y-10066300D02*
X16390900Y-10101300D01*
X16390900Y-10434600D02*
X16425900Y-10469600D01*
X16425900Y-10434600D02*
X16390900Y-10469600D01*
X16416300Y-9101100D02*
X16451300Y-9136100D01*
X16451300Y-9101100D02*
X16416300Y-9136100D01*
X16429000Y-8885200D02*
X16464000Y-8920200D01*
X16464000Y-8885200D02*
X16429000Y-8920200D01*
X16429000Y-9418600D02*
X16464000Y-9453600D01*
X16464000Y-9418600D02*
X16429000Y-9453600D01*
X16441700Y-14066800D02*
X16476700Y-14101800D01*
X16476700Y-14066800D02*
X16441700Y-14101800D01*
X16479800Y-12187200D02*
X16514800Y-12222200D01*
X16514800Y-12187200D02*
X16479800Y-12222200D01*
X16556000Y-8555000D02*
X16591000Y-8590000D01*
X16591000Y-8555000D02*
X16556000Y-8590000D01*
X16560241Y-7973340D02*
X16595241Y-8008340D01*
X16595241Y-7973340D02*
X16560241Y-8008340D01*
X16560241Y-8063148D02*
X16595241Y-8098148D01*
X16595241Y-8063148D02*
X16560241Y-8098148D01*
X16599180Y-10348240D02*
X16634180Y-10383240D01*
X16634180Y-10348240D02*
X16599180Y-10383240D01*
X16615738Y-8928380D02*
X16650738Y-8963380D01*
X16650738Y-8928380D02*
X16615738Y-8963380D01*
X16696460Y-10749499D02*
X16731460Y-10784499D01*
X16731460Y-10749499D02*
X16696460Y-10784499D01*
X16700780Y-10353320D02*
X16735780Y-10388320D01*
X16735780Y-10353320D02*
X16700780Y-10388320D01*
X16736340Y-13137160D02*
X16771340Y-13172160D01*
X16771340Y-13137160D02*
X16736340Y-13172160D01*
X16743960Y-9631960D02*
X16778960Y-9666960D01*
X16778960Y-9631960D02*
X16743960Y-9666960D01*
X16810000Y-9164600D02*
X16845000Y-9199600D01*
X16845000Y-9164600D02*
X16810000Y-9199600D01*
X16822700Y-14242060D02*
X16857700Y-14277060D01*
X16857700Y-14242060D02*
X16822700Y-14277060D01*
X16848407Y-12343361D02*
X16883407Y-12378361D01*
X16883407Y-12343361D02*
X16848407Y-12378361D01*
X16903980Y-14305560D02*
X16938980Y-14340560D01*
X16938980Y-14305560D02*
X16903980Y-14340560D01*
X16937000Y-6396000D02*
X16972000Y-6431000D01*
X16972000Y-6396000D02*
X16937000Y-6431000D01*
X16937000Y-12695200D02*
X16972000Y-12730200D01*
X16972000Y-12695200D02*
X16937000Y-12730200D01*
X16947160Y-12514860D02*
X16982160Y-12549860D01*
X16982160Y-12514860D02*
X16947160Y-12549860D01*
X16962400Y-13076200D02*
X16997400Y-13111200D01*
X16997400Y-13076200D02*
X16962400Y-13111200D01*
X16967670Y-12869683D02*
X17002670Y-12904683D01*
X17002670Y-12869683D02*
X16967670Y-12904683D01*
X16975100Y-10079000D02*
X17010100Y-10114000D01*
X17010100Y-10079000D02*
X16975100Y-10114000D01*
X16975100Y-14155700D02*
X17010100Y-14190700D01*
X17010100Y-14155700D02*
X16975100Y-14190700D01*
X16987800Y-8847100D02*
X17022800Y-8882100D01*
X17022800Y-8847100D02*
X16987800Y-8882100D01*
X17000500Y-7412000D02*
X17035500Y-7447000D01*
X17035500Y-7412000D02*
X17000500Y-7447000D01*
X17000500Y-10421900D02*
X17035500Y-10456900D01*
X17035500Y-10421900D02*
X17000500Y-10456900D01*
X17041140Y-9560840D02*
X17076140Y-9595840D01*
X17076140Y-9560840D02*
X17041140Y-9595840D01*
X17043680Y-13698500D02*
X17078680Y-13733500D01*
X17078680Y-13698500D02*
X17043680Y-13733500D01*
X17058973Y-12954407D02*
X17093973Y-12989407D01*
X17093973Y-12954407D02*
X17058973Y-12989407D01*
X17064000Y-8364500D02*
X17099000Y-8399500D01*
X17099000Y-8364500D02*
X17064000Y-8399500D01*
X17107180Y-12804420D02*
X17142180Y-12839420D01*
X17142180Y-12804420D02*
X17107180Y-12839420D01*
X17117340Y-12690120D02*
X17152340Y-12725120D01*
X17152340Y-12690120D02*
X17117340Y-12725120D01*
X17124960Y-12390400D02*
X17159960Y-12425400D01*
X17159960Y-12390400D02*
X17124960Y-12425400D01*
X17134641Y-9517181D02*
X17169641Y-9552181D01*
X17169641Y-9517181D02*
X17134641Y-9552181D01*
X17254500Y-8555000D02*
X17289500Y-8590000D01*
X17289500Y-8555000D02*
X17254500Y-8590000D01*
X17254500Y-14943100D02*
X17289500Y-14978100D01*
X17289500Y-14943100D02*
X17254500Y-14978100D01*
X17353924Y-12047975D02*
X17388924Y-12082975D01*
X17388924Y-12047975D02*
X17353924Y-12082975D01*
X17445000Y-8237500D02*
X17480000Y-8272500D01*
X17480000Y-8237500D02*
X17445000Y-8272500D01*
X17457700Y-14028700D02*
X17492700Y-14063700D01*
X17492700Y-14028700D02*
X17457700Y-14063700D01*
X17470400Y-8885200D02*
X17505400Y-8920200D01*
X17505400Y-8885200D02*
X17470400Y-8920200D01*
X17470400Y-11399800D02*
X17505400Y-11434800D01*
X17505400Y-11399800D02*
X17470400Y-11434800D01*
X17478020Y-10028200D02*
X17513020Y-10063200D01*
X17513020Y-10028200D02*
X17478020Y-10063200D01*
X17483100Y-10637800D02*
X17518100Y-10672800D01*
X17518100Y-10637800D02*
X17483100Y-10672800D01*
X17483100Y-10942600D02*
X17518100Y-10977600D01*
X17518100Y-10942600D02*
X17483100Y-10977600D01*
X17483100Y-11145800D02*
X17518100Y-11180800D01*
X17518100Y-11145800D02*
X17483100Y-11180800D01*
X17495800Y-10180600D02*
X17530800Y-10215600D01*
X17530800Y-10180600D02*
X17495800Y-10215600D01*
X17495800Y-10421900D02*
X17530800Y-10456900D01*
X17530800Y-10421900D02*
X17495800Y-10456900D01*
X17495800Y-11653800D02*
X17530800Y-11688800D01*
X17530800Y-11653800D02*
X17495800Y-11688800D01*
X17533900Y-11996700D02*
X17568900Y-12031700D01*
X17568900Y-11996700D02*
X17533900Y-12031700D01*
X17544060Y-8623580D02*
X17579060Y-8658580D01*
X17579060Y-8623580D02*
X17544060Y-8658580D01*
X17544060Y-9835160D02*
X17579060Y-9870160D01*
X17579060Y-9835160D02*
X17544060Y-9870160D01*
X17610100Y-13596900D02*
X17645100Y-13631900D01*
X17645100Y-13596900D02*
X17610100Y-13631900D01*
X17622800Y-12746000D02*
X17657800Y-12781000D01*
X17657800Y-12746000D02*
X17622800Y-12781000D01*
X17635500Y-7285000D02*
X17670500Y-7320000D01*
X17670500Y-7285000D02*
X17635500Y-7320000D01*
X17638040Y-11514100D02*
X17673040Y-11549100D01*
X17673040Y-11514100D02*
X17638040Y-11549100D01*
X17641419Y-8359420D02*
X17676419Y-8394420D01*
X17676419Y-8359420D02*
X17641419Y-8394420D01*
X17693920Y-9789501D02*
X17728920Y-9824501D01*
X17728920Y-9789501D02*
X17693920Y-9824501D01*
X17737100Y-11945900D02*
X17772100Y-11980900D01*
X17772100Y-11945900D02*
X17737100Y-11980900D01*
X17749800Y-6835420D02*
X17784800Y-6870420D01*
X17784800Y-6835420D02*
X17749800Y-6870420D01*
X17759960Y-6591580D02*
X17794960Y-6626580D01*
X17794960Y-6591580D02*
X17759960Y-6626580D01*
X17762500Y-6396000D02*
X17797500Y-6431000D01*
X17797500Y-6396000D02*
X17762500Y-6431000D01*
X17762500Y-12225300D02*
X17797500Y-12260300D01*
X17797500Y-12225300D02*
X17762500Y-12260300D01*
X17775200Y-14841500D02*
X17810200Y-14876500D01*
X17810200Y-14841500D02*
X17775200Y-14876500D01*
X17776900Y-10991700D02*
X17811900Y-11026700D01*
X17811900Y-10991700D02*
X17776900Y-11026700D01*
X17820920Y-8110500D02*
X17855920Y-8145500D01*
X17855920Y-8110500D02*
X17820920Y-8145500D01*
X17820920Y-11214380D02*
X17855920Y-11249380D01*
X17855920Y-11214380D02*
X17820920Y-11249380D01*
X17836160Y-7627900D02*
X17871160Y-7662900D01*
X17871160Y-7627900D02*
X17836160Y-7662900D01*
X17856480Y-7914920D02*
X17891480Y-7949920D01*
X17891480Y-7914920D02*
X17856480Y-7949920D01*
X17876800Y-9634500D02*
X17911800Y-9669500D01*
X17911800Y-9634500D02*
X17876800Y-9669500D01*
X17876800Y-9926600D02*
X17911800Y-9961600D01*
X17911800Y-9926600D02*
X17876800Y-9961600D01*
X17876800Y-11374400D02*
X17911800Y-11409400D01*
X17911800Y-11374400D02*
X17876800Y-11409400D01*
X17889500Y-10371100D02*
X17924500Y-10406100D01*
X17924500Y-10371100D02*
X17889500Y-10406100D01*
X17914900Y-6916700D02*
X17949900Y-6951700D01*
X17949900Y-6916700D02*
X17914900Y-6951700D01*
X17953000Y-14181100D02*
X17988000Y-14216100D01*
X17988000Y-14181100D02*
X17953000Y-14216100D01*
X17965700Y-12060200D02*
X18000700Y-12095200D01*
X18000700Y-12060200D02*
X17965700Y-12095200D01*
X17997881Y-11639830D02*
X18032881Y-11674830D01*
X18032881Y-11639830D02*
X17997881Y-11674830D01*
X18016500Y-11768100D02*
X18051500Y-11803100D01*
X18051500Y-11768100D02*
X18016500Y-11803100D01*
X18067300Y-13215900D02*
X18102300Y-13250900D01*
X18102300Y-13215900D02*
X18067300Y-13250900D01*
X18073855Y-10265303D02*
X18108855Y-10300303D01*
X18108855Y-10265303D02*
X18073855Y-10300303D01*
X18115560Y-7051320D02*
X18150560Y-7086320D01*
X18150560Y-7051320D02*
X18115560Y-7086320D01*
X18118100Y-11056900D02*
X18153100Y-11091900D01*
X18153100Y-11056900D02*
X18118100Y-11091900D01*
X18232400Y-9647200D02*
X18267400Y-9682200D01*
X18267400Y-9647200D02*
X18232400Y-9682200D01*
X18295900Y-11984000D02*
X18330900Y-12019000D01*
X18330900Y-11984000D02*
X18295900Y-12019000D01*
X18334000Y-7031000D02*
X18369000Y-7066000D01*
X18369000Y-7031000D02*
X18334000Y-7066000D01*
X18372100Y-12580900D02*
X18407100Y-12615900D01*
X18407100Y-12580900D02*
X18372100Y-12615900D01*
X18410200Y-13431800D02*
X18445200Y-13466800D01*
X18445200Y-13431800D02*
X18410200Y-13466800D01*
X18448300Y-9774200D02*
X18483300Y-9809200D01*
X18483300Y-9774200D02*
X18448300Y-9809200D01*
X18486400Y-7386600D02*
X18521400Y-7421600D01*
X18521400Y-7386600D02*
X18486400Y-7421600D01*
X18486400Y-8085100D02*
X18521400Y-8120100D01*
X18521400Y-8085100D02*
X18486400Y-8120100D01*
X18486400Y-11374400D02*
X18521400Y-11409400D01*
X18521400Y-11374400D02*
X18486400Y-11409400D01*
X18511800Y-9126500D02*
X18546800Y-9161500D01*
X18546800Y-9126500D02*
X18511800Y-9161500D01*
X18524500Y-10396500D02*
X18559500Y-10431500D01*
X18559500Y-10396500D02*
X18524500Y-10431500D01*
X4353000Y-8890000D02*
G75*
G03*
X4353000Y-8890000I-35000J0D01*
G01*
X4353000Y-9906000D02*
G75*
G03*
X4353000Y-9906000I-35000J0D01*
G01*
X6486600Y-9398000D02*
G75*
G03*
X6486600Y-9398000I-35000J0D01*
G01*
X7797800Y-6718900D02*
X7797800Y-6793900D01*
X7760300Y-6756400D02*
X7835300Y-6756400D01*
X7924800Y-6718900D02*
X7924800Y-6793900D01*
X7887300Y-6756400D02*
X7962300Y-6756400D01*
X8051800Y-6718900D02*
X8051800Y-6793900D01*
X8014300Y-6756400D02*
X8089300Y-6756400D01*
X4346285Y-10446285D02*
X4346285Y-10389716D01*
X4289716Y-10389716D01*
X4289716Y-10446285D01*
X4346285Y-10446285D01*
X4346285Y-10696285D02*
X4346285Y-10639716D01*
X4289716Y-10639716D01*
X4289716Y-10696285D01*
X4346285Y-10696285D01*
X4600285Y-8918285D02*
X4600285Y-8861716D01*
X4543716Y-8861716D01*
X4543716Y-8918285D01*
X4600285Y-8918285D01*
X4600285Y-9172285D02*
X4600285Y-9115716D01*
X4543716Y-9115716D01*
X4543716Y-9172285D01*
X4600285Y-9172285D01*
X4600285Y-9426285D02*
X4600285Y-9369716D01*
X4543716Y-9369716D01*
X4543716Y-9426285D01*
X4600285Y-9426285D01*
X4600285Y-9680285D02*
X4600285Y-9623716D01*
X4543716Y-9623716D01*
X4543716Y-9680285D01*
X4600285Y-9680285D01*
X4600285Y-9934285D02*
X4600285Y-9877716D01*
X4543716Y-9877716D01*
X4543716Y-9934285D01*
X4600285Y-9934285D01*
X4600285Y-10188285D02*
X4600285Y-10131716D01*
X4543716Y-10131716D01*
X4543716Y-10188285D01*
X4600285Y-10188285D01*
X4600285Y-10442285D02*
X4600285Y-10385716D01*
X4543716Y-10385716D01*
X4543716Y-10442285D01*
X4600285Y-10442285D01*
X4600285Y-10696285D02*
X4600285Y-10639716D01*
X4543716Y-10639716D01*
X4543716Y-10696285D01*
X4600285Y-10696285D01*
X4600285Y-10950285D02*
X4600285Y-10893716D01*
X4543716Y-10893716D01*
X4543716Y-10950285D01*
X4600285Y-10950285D01*
X4600285Y-11204284D02*
X4600285Y-11147716D01*
X4543716Y-11147716D01*
X4543716Y-11204284D01*
X4600285Y-11204284D01*
X4600285Y-11458284D02*
X4600285Y-11401715D01*
X4543716Y-11401715D01*
X4543716Y-11458284D01*
X4600285Y-11458284D01*
X4600285Y-11712284D02*
X4600285Y-11655715D01*
X4543716Y-11655715D01*
X4543716Y-11712284D01*
X4600285Y-11712284D01*
X4600285Y-11966284D02*
X4600285Y-11909715D01*
X4543716Y-11909715D01*
X4543716Y-11966284D01*
X4600285Y-11966284D01*
X4600285Y-12220284D02*
X4600285Y-12163715D01*
X4543716Y-12163715D01*
X4543716Y-12220284D01*
X4600285Y-12220284D01*
X4600285Y-12474284D02*
X4600285Y-12417715D01*
X4543716Y-12417715D01*
X4543716Y-12474284D01*
X4600285Y-12474284D01*
X4600285Y-12728284D02*
X4600285Y-12671715D01*
X4543716Y-12671715D01*
X4543716Y-12728284D01*
X4600285Y-12728284D01*
X4600285Y-12982284D02*
X4600285Y-12925715D01*
X4543716Y-12925715D01*
X4543716Y-12982284D01*
X4600285Y-12982284D01*
X4600285Y-13236284D02*
X4600285Y-13179715D01*
X4543716Y-13179715D01*
X4543716Y-13236284D01*
X4600285Y-13236284D01*
X4600285Y-13490284D02*
X4600285Y-13433715D01*
X4543716Y-13433715D01*
X4543716Y-13490284D01*
X4600285Y-13490284D01*
X4600285Y-13744284D02*
X4600285Y-13687715D01*
X4543716Y-13687715D01*
X4543716Y-13744284D01*
X4600285Y-13744284D01*
X6124284Y-8918285D02*
X6124284Y-8861716D01*
X6067715Y-8861716D01*
X6067715Y-8918285D01*
X6124284Y-8918285D01*
X6124284Y-9172285D02*
X6124284Y-9115716D01*
X6067715Y-9115716D01*
X6067715Y-9172285D01*
X6124284Y-9172285D01*
X6124284Y-9426285D02*
X6124284Y-9369716D01*
X6067715Y-9369716D01*
X6067715Y-9426285D01*
X6124284Y-9426285D01*
X6124284Y-9680285D02*
X6124284Y-9623716D01*
X6067715Y-9623716D01*
X6067715Y-9680285D01*
X6124284Y-9680285D01*
X6124284Y-9934285D02*
X6124284Y-9877716D01*
X6067715Y-9877716D01*
X6067715Y-9934285D01*
X6124284Y-9934285D01*
X6124284Y-10188285D02*
X6124284Y-10131716D01*
X6067715Y-10131716D01*
X6067715Y-10188285D01*
X6124284Y-10188285D01*
X6124284Y-10442285D02*
X6124284Y-10385716D01*
X6067715Y-10385716D01*
X6067715Y-10442285D01*
X6124284Y-10442285D01*
X6124284Y-10696285D02*
X6124284Y-10639716D01*
X6067715Y-10639716D01*
X6067715Y-10696285D01*
X6124284Y-10696285D01*
X6124284Y-10950285D02*
X6124284Y-10893716D01*
X6067715Y-10893716D01*
X6067715Y-10950285D01*
X6124284Y-10950285D01*
X6124284Y-11204284D02*
X6124284Y-11147716D01*
X6067715Y-11147716D01*
X6067715Y-11204284D01*
X6124284Y-11204284D01*
X6124284Y-11458284D02*
X6124284Y-11401715D01*
X6067715Y-11401715D01*
X6067715Y-11458284D01*
X6124284Y-11458284D01*
X6124284Y-11712284D02*
X6124284Y-11655715D01*
X6067715Y-11655715D01*
X6067715Y-11712284D01*
X6124284Y-11712284D01*
X6124284Y-11966284D02*
X6124284Y-11909715D01*
X6067715Y-11909715D01*
X6067715Y-11966284D01*
X6124284Y-11966284D01*
X6124284Y-12220284D02*
X6124284Y-12163715D01*
X6067715Y-12163715D01*
X6067715Y-12220284D01*
X6124284Y-12220284D01*
X6124284Y-12474284D02*
X6124284Y-12417715D01*
X6067715Y-12417715D01*
X6067715Y-12474284D01*
X6124284Y-12474284D01*
X6124284Y-12728284D02*
X6124284Y-12671715D01*
X6067715Y-12671715D01*
X6067715Y-12728284D01*
X6124284Y-12728284D01*
X6124284Y-12982284D02*
X6124284Y-12925715D01*
X6067715Y-12925715D01*
X6067715Y-12982284D01*
X6124284Y-12982284D01*
X6124284Y-13236284D02*
X6124284Y-13179715D01*
X6067715Y-13179715D01*
X6067715Y-13236284D01*
X6124284Y-13236284D01*
X6124284Y-13490284D02*
X6124284Y-13433715D01*
X6067715Y-13433715D01*
X6067715Y-13490284D01*
X6124284Y-13490284D01*
X6124284Y-13744284D02*
X6124284Y-13687715D01*
X6067715Y-13687715D01*
X6067715Y-13744284D01*
X6124284Y-13744284D01*
X6479884Y-7419684D02*
X6479884Y-7363115D01*
X6423315Y-7363115D01*
X6423315Y-7419684D01*
X6479884Y-7419684D01*
X6479884Y-7673684D02*
X6479884Y-7617115D01*
X6423315Y-7617115D01*
X6423315Y-7673684D01*
X6479884Y-7673684D01*
X6479884Y-7927684D02*
X6479884Y-7871115D01*
X6423315Y-7871115D01*
X6423315Y-7927684D01*
X6479884Y-7927684D01*
X6479884Y-8181684D02*
X6479884Y-8125115D01*
X6423315Y-8125115D01*
X6423315Y-8181684D01*
X6479884Y-8181684D01*
X6479884Y-8435685D02*
X6479884Y-8379115D01*
X6423315Y-8379115D01*
X6423315Y-8435685D01*
X6479884Y-8435685D01*
X6479884Y-8689685D02*
X6479884Y-8633116D01*
X6423315Y-8633116D01*
X6423315Y-8689685D01*
X6479884Y-8689685D01*
X7140284Y-6695784D02*
X7140284Y-6639215D01*
X7083715Y-6639215D01*
X7083715Y-6695784D01*
X7140284Y-6695784D01*
X7140284Y-6945784D02*
X7140284Y-6889215D01*
X7083715Y-6889215D01*
X7083715Y-6945784D01*
X7140284Y-6945784D01*
X7902284Y-8410285D02*
X7902284Y-8353715D01*
X7845715Y-8353715D01*
X7845715Y-8410285D01*
X7902284Y-8410285D01*
X8156284Y-8410285D02*
X8156284Y-8353715D01*
X8099715Y-8353715D01*
X8099715Y-8410285D01*
X8156284Y-8410285D01*
X8410285Y-8410285D02*
X8410285Y-8353715D01*
X8353715Y-8353715D01*
X8353715Y-8410285D01*
X8410285Y-8410285D01*
X8600785Y-6886284D02*
X8600785Y-6829715D01*
X8544216Y-6829715D01*
X8544216Y-6886284D01*
X8600785Y-6886284D01*
X8600785Y-7136284D02*
X8600785Y-7079715D01*
X8544216Y-7079715D01*
X8544216Y-7136284D01*
X8600785Y-7136284D01*
X8664285Y-8410285D02*
X8664285Y-8353715D01*
X8607716Y-8353715D01*
X8607716Y-8410285D01*
X8664285Y-8410285D01*
X8918285Y-8410285D02*
X8918285Y-8353715D01*
X8861716Y-8353715D01*
X8861716Y-8410285D01*
X8918285Y-8410285D01*
X9108785Y-6886284D02*
X9108785Y-6829715D01*
X9052216Y-6829715D01*
X9052216Y-6886284D01*
X9108785Y-6886284D01*
X9108785Y-7648284D02*
X9108785Y-7591715D01*
X9052216Y-7591715D01*
X9052216Y-7648284D01*
X9108785Y-7648284D01*
X9172285Y-8410285D02*
X9172285Y-8353715D01*
X9115716Y-8353715D01*
X9115716Y-8410285D01*
X9172285Y-8410285D01*
X9393265Y-9934285D02*
X9393265Y-9877716D01*
X9336696Y-9877716D01*
X9336696Y-9934285D01*
X9393265Y-9934285D01*
X9393265Y-10184285D02*
X9393265Y-10127716D01*
X9336696Y-10127716D01*
X9336696Y-10184285D01*
X9393265Y-10184285D01*
X9426285Y-8410285D02*
X9426285Y-8353715D01*
X9369716Y-8353715D01*
X9369716Y-8410285D01*
X9426285Y-8410285D01*
X9680285Y-8410285D02*
X9680285Y-8353715D01*
X9623716Y-8353715D01*
X9623716Y-8410285D01*
X9680285Y-8410285D01*
X9680285Y-9934285D02*
X9680285Y-9877716D01*
X9623716Y-9877716D01*
X9623716Y-9934285D01*
X9680285Y-9934285D01*
X9680285Y-10188285D02*
X9680285Y-10131716D01*
X9623716Y-10131716D01*
X9623716Y-10188285D01*
X9680285Y-10188285D01*
X9680285Y-10442285D02*
X9680285Y-10385716D01*
X9623716Y-10385716D01*
X9623716Y-10442285D01*
X9680285Y-10442285D01*
X9680285Y-10696285D02*
X9680285Y-10639716D01*
X9623716Y-10639716D01*
X9623716Y-10696285D01*
X9680285Y-10696285D01*
X9680285Y-10950285D02*
X9680285Y-10893716D01*
X9623716Y-10893716D01*
X9623716Y-10950285D01*
X9680285Y-10950285D01*
X9680285Y-11204284D02*
X9680285Y-11147716D01*
X9623716Y-11147716D01*
X9623716Y-11204284D01*
X9680285Y-11204284D01*
X9680285Y-11458284D02*
X9680285Y-11401715D01*
X9623716Y-11401715D01*
X9623716Y-11458284D01*
X9680285Y-11458284D01*
X9680285Y-11712284D02*
X9680285Y-11655715D01*
X9623716Y-11655715D01*
X9623716Y-11712284D01*
X9680285Y-11712284D01*
X9680285Y-11966284D02*
X9680285Y-11909715D01*
X9623716Y-11909715D01*
X9623716Y-11966284D01*
X9680285Y-11966284D01*
X9680285Y-12220284D02*
X9680285Y-12163715D01*
X9623716Y-12163715D01*
X9623716Y-12220284D01*
X9680285Y-12220284D01*
X9680285Y-12474284D02*
X9680285Y-12417715D01*
X9623716Y-12417715D01*
X9623716Y-12474284D01*
X9680285Y-12474284D01*
X9680285Y-12728284D02*
X9680285Y-12671715D01*
X9623716Y-12671715D01*
X9623716Y-12728284D01*
X9680285Y-12728284D01*
X9680285Y-12982284D02*
X9680285Y-12925715D01*
X9623716Y-12925715D01*
X9623716Y-12982284D01*
X9680285Y-12982284D01*
X9680285Y-13236284D02*
X9680285Y-13179715D01*
X9623716Y-13179715D01*
X9623716Y-13236284D01*
X9680285Y-13236284D01*
X9934285Y-8410285D02*
X9934285Y-8353715D01*
X9877716Y-8353715D01*
X9877716Y-8410285D01*
X9934285Y-8410285D01*
X10188285Y-8410285D02*
X10188285Y-8353715D01*
X10131716Y-8353715D01*
X10131716Y-8410285D01*
X10188285Y-8410285D01*
X10442285Y-8410285D02*
X10442285Y-8353715D01*
X10385716Y-8353715D01*
X10385716Y-8410285D01*
X10442285Y-8410285D01*
X10632785Y-6886284D02*
X10632785Y-6829715D01*
X10576216Y-6829715D01*
X10576216Y-6886284D01*
X10632785Y-6886284D01*
X10632785Y-7648284D02*
X10632785Y-7591715D01*
X10576216Y-7591715D01*
X10576216Y-7648284D01*
X10632785Y-7648284D01*
X10696285Y-8410285D02*
X10696285Y-8353715D01*
X10639716Y-8353715D01*
X10639716Y-8410285D01*
X10696285Y-8410285D01*
X10954285Y-9629485D02*
X10954285Y-9572916D01*
X10897716Y-9572916D01*
X10897716Y-9629485D01*
X10954285Y-9629485D01*
X11204284Y-9629485D02*
X11204284Y-9572916D01*
X11147716Y-9572916D01*
X11147716Y-9629485D01*
X11204284Y-9629485D01*
X11204284Y-9934285D02*
X11204284Y-9877716D01*
X11147716Y-9877716D01*
X11147716Y-9934285D01*
X11204284Y-9934285D01*
X11204284Y-10188285D02*
X11204284Y-10131716D01*
X11147716Y-10131716D01*
X11147716Y-10188285D01*
X11204284Y-10188285D01*
X11204284Y-10442285D02*
X11204284Y-10385716D01*
X11147716Y-10385716D01*
X11147716Y-10442285D01*
X11204284Y-10442285D01*
X11204284Y-10696285D02*
X11204284Y-10639716D01*
X11147716Y-10639716D01*
X11147716Y-10696285D01*
X11204284Y-10696285D01*
X11204284Y-10950285D02*
X11204284Y-10893716D01*
X11147716Y-10893716D01*
X11147716Y-10950285D01*
X11204284Y-10950285D01*
X11204284Y-11204284D02*
X11204284Y-11147716D01*
X11147716Y-11147716D01*
X11147716Y-11204284D01*
X11204284Y-11204284D01*
X11204284Y-11458284D02*
X11204284Y-11401715D01*
X11147716Y-11401715D01*
X11147716Y-11458284D01*
X11204284Y-11458284D01*
X11204284Y-11712284D02*
X11204284Y-11655715D01*
X11147716Y-11655715D01*
X11147716Y-11712284D01*
X11204284Y-11712284D01*
X11204284Y-11966284D02*
X11204284Y-11909715D01*
X11147716Y-11909715D01*
X11147716Y-11966284D01*
X11204284Y-11966284D01*
X11204284Y-12220284D02*
X11204284Y-12163715D01*
X11147716Y-12163715D01*
X11147716Y-12220284D01*
X11204284Y-12220284D01*
X11204284Y-12474284D02*
X11204284Y-12417715D01*
X11147716Y-12417715D01*
X11147716Y-12474284D01*
X11204284Y-12474284D01*
X11204284Y-12728284D02*
X11204284Y-12671715D01*
X11147716Y-12671715D01*
X11147716Y-12728284D01*
X11204284Y-12728284D01*
X11204284Y-12982284D02*
X11204284Y-12925715D01*
X11147716Y-12925715D01*
X11147716Y-12982284D01*
X11204284Y-12982284D01*
X11204284Y-13236284D02*
X11204284Y-13179715D01*
X11147716Y-13179715D01*
X11147716Y-13236284D01*
X11204284Y-13236284D01*
X13312484Y-9658885D02*
X13312484Y-9602316D01*
X13255915Y-9602316D01*
X13255915Y-9658885D01*
X13312484Y-9658885D01*
X13312484Y-9908885D02*
X13312484Y-9852316D01*
X13255915Y-9852316D01*
X13255915Y-9908885D01*
X13312484Y-9908885D01*
X15344484Y-9684285D02*
X15344484Y-9627716D01*
X15287915Y-9627716D01*
X15287915Y-9684285D01*
X15344484Y-9684285D01*
X15344484Y-9934285D02*
X15344484Y-9877716D01*
X15287915Y-9877716D01*
X15287915Y-9934285D01*
X15344484Y-9934285D01*
X15522284Y-13494284D02*
X15522284Y-13437715D01*
X15465715Y-13437715D01*
X15465715Y-13494284D01*
X15522284Y-13494284D01*
X15522284Y-13744284D02*
X15522284Y-13687715D01*
X15465715Y-13687715D01*
X15465715Y-13744284D01*
X15522284Y-13744284D01*
X15776284Y-8918285D02*
X15776284Y-8861716D01*
X15719715Y-8861716D01*
X15719715Y-8918285D01*
X15776284Y-8918285D01*
X15776284Y-9172285D02*
X15776284Y-9115716D01*
X15719715Y-9115716D01*
X15719715Y-9172285D01*
X15776284Y-9172285D01*
X15776284Y-9426285D02*
X15776284Y-9369716D01*
X15719715Y-9369716D01*
X15719715Y-9426285D01*
X15776284Y-9426285D01*
X15776284Y-9680285D02*
X15776284Y-9623716D01*
X15719715Y-9623716D01*
X15719715Y-9680285D01*
X15776284Y-9680285D01*
X15776284Y-9934285D02*
X15776284Y-9877716D01*
X15719715Y-9877716D01*
X15719715Y-9934285D01*
X15776284Y-9934285D01*
X15776284Y-10188285D02*
X15776284Y-10131716D01*
X15719715Y-10131716D01*
X15719715Y-10188285D01*
X15776284Y-10188285D01*
X15776284Y-10442285D02*
X15776284Y-10385716D01*
X15719715Y-10385716D01*
X15719715Y-10442285D01*
X15776284Y-10442285D01*
X15776284Y-10696285D02*
X15776284Y-10639716D01*
X15719715Y-10639716D01*
X15719715Y-10696285D01*
X15776284Y-10696285D01*
X15776284Y-10950285D02*
X15776284Y-10893716D01*
X15719715Y-10893716D01*
X15719715Y-10950285D01*
X15776284Y-10950285D01*
X15776284Y-11204284D02*
X15776284Y-11147716D01*
X15719715Y-11147716D01*
X15719715Y-11204284D01*
X15776284Y-11204284D01*
X15776284Y-11458284D02*
X15776284Y-11401715D01*
X15719715Y-11401715D01*
X15719715Y-11458284D01*
X15776284Y-11458284D01*
X15776284Y-11712284D02*
X15776284Y-11655715D01*
X15719715Y-11655715D01*
X15719715Y-11712284D01*
X15776284Y-11712284D01*
X15776284Y-11966284D02*
X15776284Y-11909715D01*
X15719715Y-11909715D01*
X15719715Y-11966284D01*
X15776284Y-11966284D01*
X15776284Y-12220284D02*
X15776284Y-12163715D01*
X15719715Y-12163715D01*
X15719715Y-12220284D01*
X15776284Y-12220284D01*
X15776284Y-12474284D02*
X15776284Y-12417715D01*
X15719715Y-12417715D01*
X15719715Y-12474284D01*
X15776284Y-12474284D01*
X15776284Y-12728284D02*
X15776284Y-12671715D01*
X15719715Y-12671715D01*
X15719715Y-12728284D01*
X15776284Y-12728284D01*
X15776284Y-12982284D02*
X15776284Y-12925715D01*
X15719715Y-12925715D01*
X15719715Y-12982284D01*
X15776284Y-12982284D01*
X15776284Y-13236284D02*
X15776284Y-13179715D01*
X15719715Y-13179715D01*
X15719715Y-13236284D01*
X15776284Y-13236284D01*
X15776284Y-13490284D02*
X15776284Y-13433715D01*
X15719715Y-13433715D01*
X15719715Y-13490284D01*
X15776284Y-13490284D01*
X15776284Y-13744284D02*
X15776284Y-13687715D01*
X15719715Y-13687715D01*
X15719715Y-13744284D01*
X15776284Y-13744284D01*
X17300285Y-8918285D02*
X17300285Y-8861716D01*
X17243716Y-8861716D01*
X17243716Y-8918285D01*
X17300285Y-8918285D01*
X17300285Y-9172285D02*
X17300285Y-9115716D01*
X17243716Y-9115716D01*
X17243716Y-9172285D01*
X17300285Y-9172285D01*
X17300285Y-9426285D02*
X17300285Y-9369716D01*
X17243716Y-9369716D01*
X17243716Y-9426285D01*
X17300285Y-9426285D01*
X17300285Y-9680285D02*
X17300285Y-9623716D01*
X17243716Y-9623716D01*
X17243716Y-9680285D01*
X17300285Y-9680285D01*
X17300285Y-9934285D02*
X17300285Y-9877716D01*
X17243716Y-9877716D01*
X17243716Y-9934285D01*
X17300285Y-9934285D01*
X17300285Y-10188285D02*
X17300285Y-10131716D01*
X17243716Y-10131716D01*
X17243716Y-10188285D01*
X17300285Y-10188285D01*
X17300285Y-10442285D02*
X17300285Y-10385716D01*
X17243716Y-10385716D01*
X17243716Y-10442285D01*
X17300285Y-10442285D01*
X17300285Y-10696285D02*
X17300285Y-10639716D01*
X17243716Y-10639716D01*
X17243716Y-10696285D01*
X17300285Y-10696285D01*
X17300285Y-10950285D02*
X17300285Y-10893716D01*
X17243716Y-10893716D01*
X17243716Y-10950285D01*
X17300285Y-10950285D01*
X17300285Y-11204284D02*
X17300285Y-11147716D01*
X17243716Y-11147716D01*
X17243716Y-11204284D01*
X17300285Y-11204284D01*
X17300285Y-11458284D02*
X17300285Y-11401715D01*
X17243716Y-11401715D01*
X17243716Y-11458284D01*
X17300285Y-11458284D01*
X17300285Y-11712284D02*
X17300285Y-11655715D01*
X17243716Y-11655715D01*
X17243716Y-11712284D01*
X17300285Y-11712284D01*
X17300285Y-11966284D02*
X17300285Y-11909715D01*
X17243716Y-11909715D01*
X17243716Y-11966284D01*
X17300285Y-11966284D01*
X17300285Y-12220284D02*
X17300285Y-12163715D01*
X17243716Y-12163715D01*
X17243716Y-12220284D01*
X17300285Y-12220284D01*
X17300285Y-12474284D02*
X17300285Y-12417715D01*
X17243716Y-12417715D01*
X17243716Y-12474284D01*
X17300285Y-12474284D01*
X17300285Y-12728284D02*
X17300285Y-12671715D01*
X17243716Y-12671715D01*
X17243716Y-12728284D01*
X17300285Y-12728284D01*
X17300285Y-12982284D02*
X17300285Y-12925715D01*
X17243716Y-12925715D01*
X17243716Y-12982284D01*
X17300285Y-12982284D01*
X17300285Y-13236284D02*
X17300285Y-13179715D01*
X17243716Y-13179715D01*
X17243716Y-13236284D01*
X17300285Y-13236284D01*
X17300285Y-13490284D02*
X17300285Y-13433715D01*
X17243716Y-13433715D01*
X17243716Y-13490284D01*
X17300285Y-13490284D01*
X17300285Y-13744284D02*
X17300285Y-13687715D01*
X17243716Y-13687715D01*
X17243716Y-13744284D01*
X17300285Y-13744284D01*
X4445000Y-7982500D02*
X4490000Y-7937500D01*
X4445000Y-7892500D01*
X4400000Y-7937500D01*
X4445000Y-7982500D01*
X4699000Y-7982500D02*
X4744000Y-7937500D01*
X4699000Y-7892500D01*
X4654000Y-7937500D01*
X4699000Y-7982500D01*
X4776000Y-6808000D02*
X4876000Y-6908000D01*
X4876000Y-6808000D02*
X4776000Y-6908000D01*
X4876000Y-6858000D02*
G75*
G03*
X4876000Y-6858000I-50000J0D01*
G01*
X4776000Y-14682000D02*
X4876000Y-14782000D01*
X4876000Y-14682000D02*
X4776000Y-14782000D01*
X4876000Y-14732000D02*
G75*
G03*
X4876000Y-14732000I-50000J0D01*
G01*
X5026000Y-6808000D02*
X5126000Y-6908000D01*
X5126000Y-6808000D02*
X5026000Y-6908000D01*
X5126000Y-6858000D02*
G75*
G03*
X5126000Y-6858000I-50000J0D01*
G01*
X5030000Y-14682000D02*
X5130000Y-14782000D01*
X5130000Y-14682000D02*
X5030000Y-14782000D01*
X5130000Y-14732000D02*
G75*
G03*
X5130000Y-14732000I-50000J0D01*
G01*
X5284000Y-14682000D02*
X5384000Y-14782000D01*
X5384000Y-14682000D02*
X5284000Y-14782000D01*
X5384000Y-14732000D02*
G75*
G03*
X5384000Y-14732000I-50000J0D01*
G01*
X5538000Y-14682000D02*
X5638000Y-14782000D01*
X5638000Y-14682000D02*
X5538000Y-14782000D01*
X5638000Y-14732000D02*
G75*
G03*
X5638000Y-14732000I-50000J0D01*
G01*
X5601500Y-6744500D02*
X5701500Y-6844500D01*
X5701500Y-6744500D02*
X5601500Y-6844500D01*
X5701500Y-6794500D02*
G75*
G03*
X5701500Y-6794500I-50000J0D01*
G01*
X5792000Y-14682000D02*
X5892000Y-14782000D01*
X5892000Y-14682000D02*
X5792000Y-14782000D01*
X5892000Y-14732000D02*
G75*
G03*
X5892000Y-14732000I-50000J0D01*
G01*
X6046000Y-14682000D02*
X6146000Y-14782000D01*
X6146000Y-14682000D02*
X6046000Y-14782000D01*
X6146000Y-14732000D02*
G75*
G03*
X6146000Y-14732000I-50000J0D01*
G01*
X6109500Y-6744500D02*
X6209500Y-6844500D01*
X6209500Y-6744500D02*
X6109500Y-6844500D01*
X6209500Y-6794500D02*
G75*
G03*
X6209500Y-6794500I-50000J0D01*
G01*
X6300000Y-14682000D02*
X6400000Y-14782000D01*
X6400000Y-14682000D02*
X6300000Y-14782000D01*
X6400000Y-14732000D02*
G75*
G03*
X6400000Y-14732000I-50000J0D01*
G01*
X6554000Y-14682000D02*
X6654000Y-14782000D01*
X6654000Y-14682000D02*
X6554000Y-14782000D01*
X6654000Y-14732000D02*
G75*
G03*
X6654000Y-14732000I-50000J0D01*
G01*
X6808000Y-14682000D02*
X6908000Y-14782000D01*
X6908000Y-14682000D02*
X6808000Y-14782000D01*
X6908000Y-14732000D02*
G75*
G03*
X6908000Y-14732000I-50000J0D01*
G01*
X7062000Y-14682000D02*
X7162000Y-14782000D01*
X7162000Y-14682000D02*
X7062000Y-14782000D01*
X7162000Y-14732000D02*
G75*
G03*
X7162000Y-14732000I-50000J0D01*
G01*
X7189000Y-9856000D02*
X7289000Y-9956000D01*
X7289000Y-9856000D02*
X7189000Y-9956000D01*
X7289000Y-9906000D02*
G75*
G03*
X7289000Y-9906000I-50000J0D01*
G01*
X7189000Y-10110000D02*
X7289000Y-10210000D01*
X7289000Y-10110000D02*
X7189000Y-10210000D01*
X7289000Y-10160000D02*
G75*
G03*
X7289000Y-10160000I-50000J0D01*
G01*
X7189000Y-10364000D02*
X7289000Y-10464000D01*
X7289000Y-10364000D02*
X7189000Y-10464000D01*
X7289000Y-10414000D02*
G75*
G03*
X7289000Y-10414000I-50000J0D01*
G01*
X7189000Y-10618000D02*
X7289000Y-10718000D01*
X7289000Y-10618000D02*
X7189000Y-10718000D01*
X7289000Y-10668000D02*
G75*
G03*
X7289000Y-10668000I-50000J0D01*
G01*
X7189000Y-10872000D02*
X7289000Y-10972000D01*
X7289000Y-10872000D02*
X7189000Y-10972000D01*
X7289000Y-10922000D02*
G75*
G03*
X7289000Y-10922000I-50000J0D01*
G01*
X7189000Y-11126000D02*
X7289000Y-11226000D01*
X7289000Y-11126000D02*
X7189000Y-11226000D01*
X7289000Y-11176000D02*
G75*
G03*
X7289000Y-11176000I-50000J0D01*
G01*
X7189000Y-11380000D02*
X7289000Y-11480000D01*
X7289000Y-11380000D02*
X7189000Y-11480000D01*
X7289000Y-11430000D02*
G75*
G03*
X7289000Y-11430000I-50000J0D01*
G01*
X7189000Y-11634000D02*
X7289000Y-11734000D01*
X7289000Y-11634000D02*
X7189000Y-11734000D01*
X7289000Y-11684000D02*
G75*
G03*
X7289000Y-11684000I-50000J0D01*
G01*
X7189000Y-11888000D02*
X7289000Y-11988000D01*
X7289000Y-11888000D02*
X7189000Y-11988000D01*
X7289000Y-11938000D02*
G75*
G03*
X7289000Y-11938000I-50000J0D01*
G01*
X7189000Y-12142000D02*
X7289000Y-12242000D01*
X7289000Y-12142000D02*
X7189000Y-12242000D01*
X7289000Y-12192000D02*
G75*
G03*
X7289000Y-12192000I-50000J0D01*
G01*
X7189000Y-12396000D02*
X7289000Y-12496000D01*
X7289000Y-12396000D02*
X7189000Y-12496000D01*
X7289000Y-12446000D02*
G75*
G03*
X7289000Y-12446000I-50000J0D01*
G01*
X7189000Y-12650000D02*
X7289000Y-12750000D01*
X7289000Y-12650000D02*
X7189000Y-12750000D01*
X7289000Y-12700000D02*
G75*
G03*
X7289000Y-12700000I-50000J0D01*
G01*
X7189000Y-12904000D02*
X7289000Y-13004000D01*
X7289000Y-12904000D02*
X7189000Y-13004000D01*
X7289000Y-12954000D02*
G75*
G03*
X7289000Y-12954000I-50000J0D01*
G01*
X7189000Y-13158000D02*
X7289000Y-13258000D01*
X7289000Y-13158000D02*
X7189000Y-13258000D01*
X7289000Y-13208000D02*
G75*
G03*
X7289000Y-13208000I-50000J0D01*
G01*
X7570000Y-14682000D02*
X7670000Y-14782000D01*
X7670000Y-14682000D02*
X7570000Y-14782000D01*
X7670000Y-14732000D02*
G75*
G03*
X7670000Y-14732000I-50000J0D01*
G01*
X7824000Y-14682000D02*
X7924000Y-14782000D01*
X7924000Y-14682000D02*
X7824000Y-14782000D01*
X7924000Y-14732000D02*
G75*
G03*
X7924000Y-14732000I-50000J0D01*
G01*
X8078000Y-14682000D02*
X8178000Y-14782000D01*
X8178000Y-14682000D02*
X8078000Y-14782000D01*
X8178000Y-14732000D02*
G75*
G03*
X8178000Y-14732000I-50000J0D01*
G01*
X8332000Y-14682000D02*
X8432000Y-14782000D01*
X8432000Y-14682000D02*
X8332000Y-14782000D01*
X8432000Y-14732000D02*
G75*
G03*
X8432000Y-14732000I-50000J0D01*
G01*
X8586000Y-14682000D02*
X8686000Y-14782000D01*
X8686000Y-14682000D02*
X8586000Y-14782000D01*
X8686000Y-14732000D02*
G75*
G03*
X8686000Y-14732000I-50000J0D01*
G01*
X8713000Y-9856000D02*
X8813000Y-9956000D01*
X8813000Y-9856000D02*
X8713000Y-9956000D01*
X8813000Y-9906000D02*
G75*
G03*
X8813000Y-9906000I-50000J0D01*
G01*
X8713000Y-10110000D02*
X8813000Y-10210000D01*
X8813000Y-10110000D02*
X8713000Y-10210000D01*
X8813000Y-10160000D02*
G75*
G03*
X8813000Y-10160000I-50000J0D01*
G01*
X8713000Y-10364000D02*
X8813000Y-10464000D01*
X8813000Y-10364000D02*
X8713000Y-10464000D01*
X8813000Y-10414000D02*
G75*
G03*
X8813000Y-10414000I-50000J0D01*
G01*
X8713000Y-10618000D02*
X8813000Y-10718000D01*
X8813000Y-10618000D02*
X8713000Y-10718000D01*
X8813000Y-10668000D02*
G75*
G03*
X8813000Y-10668000I-50000J0D01*
G01*
X8713000Y-10872000D02*
X8813000Y-10972000D01*
X8813000Y-10872000D02*
X8713000Y-10972000D01*
X8813000Y-10922000D02*
G75*
G03*
X8813000Y-10922000I-50000J0D01*
G01*
X8713000Y-11126000D02*
X8813000Y-11226000D01*
X8813000Y-11126000D02*
X8713000Y-11226000D01*
X8813000Y-11176000D02*
G75*
G03*
X8813000Y-11176000I-50000J0D01*
G01*
X8713000Y-11380000D02*
X8813000Y-11480000D01*
X8813000Y-11380000D02*
X8713000Y-11480000D01*
X8813000Y-11430000D02*
G75*
G03*
X8813000Y-11430000I-50000J0D01*
G01*
X8713000Y-11634000D02*
X8813000Y-11734000D01*
X8813000Y-11634000D02*
X8713000Y-11734000D01*
X8813000Y-11684000D02*
G75*
G03*
X8813000Y-11684000I-50000J0D01*
G01*
X8713000Y-11888000D02*
X8813000Y-11988000D01*
X8813000Y-11888000D02*
X8713000Y-11988000D01*
X8813000Y-11938000D02*
G75*
G03*
X8813000Y-11938000I-50000J0D01*
G01*
X8713000Y-12142000D02*
X8813000Y-12242000D01*
X8813000Y-12142000D02*
X8713000Y-12242000D01*
X8813000Y-12192000D02*
G75*
G03*
X8813000Y-12192000I-50000J0D01*
G01*
X8713000Y-12396000D02*
X8813000Y-12496000D01*
X8813000Y-12396000D02*
X8713000Y-12496000D01*
X8813000Y-12446000D02*
G75*
G03*
X8813000Y-12446000I-50000J0D01*
G01*
X8713000Y-12650000D02*
X8813000Y-12750000D01*
X8813000Y-12650000D02*
X8713000Y-12750000D01*
X8813000Y-12700000D02*
G75*
G03*
X8813000Y-12700000I-50000J0D01*
G01*
X8713000Y-12904000D02*
X8813000Y-13004000D01*
X8813000Y-12904000D02*
X8713000Y-13004000D01*
X8813000Y-12954000D02*
G75*
G03*
X8813000Y-12954000I-50000J0D01*
G01*
X8713000Y-13158000D02*
X8813000Y-13258000D01*
X8813000Y-13158000D02*
X8713000Y-13258000D01*
X8813000Y-13208000D02*
G75*
G03*
X8813000Y-13208000I-50000J0D01*
G01*
X8840000Y-14682000D02*
X8940000Y-14782000D01*
X8940000Y-14682000D02*
X8840000Y-14782000D01*
X8940000Y-14732000D02*
G75*
G03*
X8940000Y-14732000I-50000J0D01*
G01*
X9094000Y-14682000D02*
X9194000Y-14782000D01*
X9194000Y-14682000D02*
X9094000Y-14782000D01*
X9194000Y-14732000D02*
G75*
G03*
X9194000Y-14732000I-50000J0D01*
G01*
X9348000Y-14682000D02*
X9448000Y-14782000D01*
X9448000Y-14682000D02*
X9348000Y-14782000D01*
X9448000Y-14732000D02*
G75*
G03*
X9448000Y-14732000I-50000J0D01*
G01*
X9602000Y-14682000D02*
X9702000Y-14782000D01*
X9702000Y-14682000D02*
X9602000Y-14782000D01*
X9702000Y-14732000D02*
G75*
G03*
X9702000Y-14732000I-50000J0D01*
G01*
X9856000Y-14682000D02*
X9956000Y-14782000D01*
X9956000Y-14682000D02*
X9856000Y-14782000D01*
X9956000Y-14732000D02*
G75*
G03*
X9956000Y-14732000I-50000J0D01*
G01*
X10110000Y-14682000D02*
X10210000Y-14782000D01*
X10210000Y-14682000D02*
X10110000Y-14782000D01*
X10210000Y-14732000D02*
G75*
G03*
X10210000Y-14732000I-50000J0D01*
G01*
X10364000Y-14682000D02*
X10464000Y-14782000D01*
X10464000Y-14682000D02*
X10364000Y-14782000D01*
X10464000Y-14732000D02*
G75*
G03*
X10464000Y-14732000I-50000J0D01*
G01*
X10618000Y-14682000D02*
X10718000Y-14782000D01*
X10718000Y-14682000D02*
X10618000Y-14782000D01*
X10718000Y-14732000D02*
G75*
G03*
X10718000Y-14732000I-50000J0D01*
G01*
X10872000Y-14682000D02*
X10972000Y-14782000D01*
X10972000Y-14682000D02*
X10872000Y-14782000D01*
X10972000Y-14732000D02*
G75*
G03*
X10972000Y-14732000I-50000J0D01*
G01*
X11126000Y-14682000D02*
X11226000Y-14782000D01*
X11226000Y-14682000D02*
X11126000Y-14782000D01*
X11226000Y-14732000D02*
G75*
G03*
X11226000Y-14732000I-50000J0D01*
G01*
X11380000Y-14682000D02*
X11480000Y-14782000D01*
X11480000Y-14682000D02*
X11380000Y-14782000D01*
X11480000Y-14732000D02*
G75*
G03*
X11480000Y-14732000I-50000J0D01*
G01*
X11634000Y-14682000D02*
X11734000Y-14782000D01*
X11734000Y-14682000D02*
X11634000Y-14782000D01*
X11734000Y-14732000D02*
G75*
G03*
X11734000Y-14732000I-50000J0D01*
G01*
X11888000Y-6554000D02*
X11988000Y-6654000D01*
X11988000Y-6554000D02*
X11888000Y-6654000D01*
X11988000Y-6604000D02*
G75*
G03*
X11988000Y-6604000I-50000J0D01*
G01*
X11888000Y-6808000D02*
X11988000Y-6908000D01*
X11988000Y-6808000D02*
X11888000Y-6908000D01*
X11988000Y-6858000D02*
G75*
G03*
X11988000Y-6858000I-50000J0D01*
G01*
X11888000Y-9856000D02*
X11988000Y-9956000D01*
X11988000Y-9856000D02*
X11888000Y-9956000D01*
X11988000Y-9906000D02*
G75*
G03*
X11988000Y-9906000I-50000J0D01*
G01*
X11888000Y-10110000D02*
X11988000Y-10210000D01*
X11988000Y-10110000D02*
X11888000Y-10210000D01*
X11988000Y-10160000D02*
G75*
G03*
X11988000Y-10160000I-50000J0D01*
G01*
X11888000Y-10364000D02*
X11988000Y-10464000D01*
X11988000Y-10364000D02*
X11888000Y-10464000D01*
X11988000Y-10414000D02*
G75*
G03*
X11988000Y-10414000I-50000J0D01*
G01*
X11888000Y-10618000D02*
X11988000Y-10718000D01*
X11988000Y-10618000D02*
X11888000Y-10718000D01*
X11988000Y-10668000D02*
G75*
G03*
X11988000Y-10668000I-50000J0D01*
G01*
X11888000Y-10872000D02*
X11988000Y-10972000D01*
X11988000Y-10872000D02*
X11888000Y-10972000D01*
X11988000Y-10922000D02*
G75*
G03*
X11988000Y-10922000I-50000J0D01*
G01*
X11888000Y-11126000D02*
X11988000Y-11226000D01*
X11988000Y-11126000D02*
X11888000Y-11226000D01*
X11988000Y-11176000D02*
G75*
G03*
X11988000Y-11176000I-50000J0D01*
G01*
X11888000Y-11380000D02*
X11988000Y-11480000D01*
X11988000Y-11380000D02*
X11888000Y-11480000D01*
X11988000Y-11430000D02*
G75*
G03*
X11988000Y-11430000I-50000J0D01*
G01*
X11888000Y-11634000D02*
X11988000Y-11734000D01*
X11988000Y-11634000D02*
X11888000Y-11734000D01*
X11988000Y-11684000D02*
G75*
G03*
X11988000Y-11684000I-50000J0D01*
G01*
X11888000Y-11888000D02*
X11988000Y-11988000D01*
X11988000Y-11888000D02*
X11888000Y-11988000D01*
X11988000Y-11938000D02*
G75*
G03*
X11988000Y-11938000I-50000J0D01*
G01*
X11888000Y-12142000D02*
X11988000Y-12242000D01*
X11988000Y-12142000D02*
X11888000Y-12242000D01*
X11988000Y-12192000D02*
G75*
G03*
X11988000Y-12192000I-50000J0D01*
G01*
X11888000Y-12396000D02*
X11988000Y-12496000D01*
X11988000Y-12396000D02*
X11888000Y-12496000D01*
X11988000Y-12446000D02*
G75*
G03*
X11988000Y-12446000I-50000J0D01*
G01*
X11888000Y-12650000D02*
X11988000Y-12750000D01*
X11988000Y-12650000D02*
X11888000Y-12750000D01*
X11988000Y-12700000D02*
G75*
G03*
X11988000Y-12700000I-50000J0D01*
G01*
X11888000Y-14682000D02*
X11988000Y-14782000D01*
X11988000Y-14682000D02*
X11888000Y-14782000D01*
X11988000Y-14732000D02*
G75*
G03*
X11988000Y-14732000I-50000J0D01*
G01*
X12142000Y-6554000D02*
X12242000Y-6654000D01*
X12242000Y-6554000D02*
X12142000Y-6654000D01*
X12242000Y-6604000D02*
G75*
G03*
X12242000Y-6604000I-50000J0D01*
G01*
X12142000Y-6808000D02*
X12242000Y-6908000D01*
X12242000Y-6808000D02*
X12142000Y-6908000D01*
X12242000Y-6858000D02*
G75*
G03*
X12242000Y-6858000I-50000J0D01*
G01*
X12142000Y-14682000D02*
X12242000Y-14782000D01*
X12242000Y-14682000D02*
X12142000Y-14782000D01*
X12242000Y-14732000D02*
G75*
G03*
X12242000Y-14732000I-50000J0D01*
G01*
X12396000Y-6554000D02*
X12496000Y-6654000D01*
X12496000Y-6554000D02*
X12396000Y-6654000D01*
X12496000Y-6604000D02*
G75*
G03*
X12496000Y-6604000I-50000J0D01*
G01*
X12396000Y-6808000D02*
X12496000Y-6908000D01*
X12496000Y-6808000D02*
X12396000Y-6908000D01*
X12496000Y-6858000D02*
G75*
G03*
X12496000Y-6858000I-50000J0D01*
G01*
X12396000Y-14682000D02*
X12496000Y-14782000D01*
X12496000Y-14682000D02*
X12396000Y-14782000D01*
X12496000Y-14732000D02*
G75*
G03*
X12496000Y-14732000I-50000J0D01*
G01*
X12650000Y-6554000D02*
X12750000Y-6654000D01*
X12750000Y-6554000D02*
X12650000Y-6654000D01*
X12750000Y-6604000D02*
G75*
G03*
X12750000Y-6604000I-50000J0D01*
G01*
X12650000Y-6808000D02*
X12750000Y-6908000D01*
X12750000Y-6808000D02*
X12650000Y-6908000D01*
X12750000Y-6858000D02*
G75*
G03*
X12750000Y-6858000I-50000J0D01*
G01*
X12650000Y-9856000D02*
X12750000Y-9956000D01*
X12750000Y-9856000D02*
X12650000Y-9956000D01*
X12750000Y-9906000D02*
G75*
G03*
X12750000Y-9906000I-50000J0D01*
G01*
X12650000Y-10110000D02*
X12750000Y-10210000D01*
X12750000Y-10110000D02*
X12650000Y-10210000D01*
X12750000Y-10160000D02*
G75*
G03*
X12750000Y-10160000I-50000J0D01*
G01*
X12650000Y-10364000D02*
X12750000Y-10464000D01*
X12750000Y-10364000D02*
X12650000Y-10464000D01*
X12750000Y-10414000D02*
G75*
G03*
X12750000Y-10414000I-50000J0D01*
G01*
X12650000Y-10618000D02*
X12750000Y-10718000D01*
X12750000Y-10618000D02*
X12650000Y-10718000D01*
X12750000Y-10668000D02*
G75*
G03*
X12750000Y-10668000I-50000J0D01*
G01*
X12650000Y-10872000D02*
X12750000Y-10972000D01*
X12750000Y-10872000D02*
X12650000Y-10972000D01*
X12750000Y-10922000D02*
G75*
G03*
X12750000Y-10922000I-50000J0D01*
G01*
X12650000Y-11126000D02*
X12750000Y-11226000D01*
X12750000Y-11126000D02*
X12650000Y-11226000D01*
X12750000Y-11176000D02*
G75*
G03*
X12750000Y-11176000I-50000J0D01*
G01*
X12650000Y-11380000D02*
X12750000Y-11480000D01*
X12750000Y-11380000D02*
X12650000Y-11480000D01*
X12750000Y-11430000D02*
G75*
G03*
X12750000Y-11430000I-50000J0D01*
G01*
X12650000Y-11634000D02*
X12750000Y-11734000D01*
X12750000Y-11634000D02*
X12650000Y-11734000D01*
X12750000Y-11684000D02*
G75*
G03*
X12750000Y-11684000I-50000J0D01*
G01*
X12650000Y-11888000D02*
X12750000Y-11988000D01*
X12750000Y-11888000D02*
X12650000Y-11988000D01*
X12750000Y-11938000D02*
G75*
G03*
X12750000Y-11938000I-50000J0D01*
G01*
X12650000Y-12142000D02*
X12750000Y-12242000D01*
X12750000Y-12142000D02*
X12650000Y-12242000D01*
X12750000Y-12192000D02*
G75*
G03*
X12750000Y-12192000I-50000J0D01*
G01*
X12650000Y-12396000D02*
X12750000Y-12496000D01*
X12750000Y-12396000D02*
X12650000Y-12496000D01*
X12750000Y-12446000D02*
G75*
G03*
X12750000Y-12446000I-50000J0D01*
G01*
X12650000Y-12650000D02*
X12750000Y-12750000D01*
X12750000Y-12650000D02*
X12650000Y-12750000D01*
X12750000Y-12700000D02*
G75*
G03*
X12750000Y-12700000I-50000J0D01*
G01*
X12650000Y-14682000D02*
X12750000Y-14782000D01*
X12750000Y-14682000D02*
X12650000Y-14782000D01*
X12750000Y-14732000D02*
G75*
G03*
X12750000Y-14732000I-50000J0D01*
G01*
X12904000Y-6554000D02*
X13004000Y-6654000D01*
X13004000Y-6554000D02*
X12904000Y-6654000D01*
X13004000Y-6604000D02*
G75*
G03*
X13004000Y-6604000I-50000J0D01*
G01*
X12904000Y-6808000D02*
X13004000Y-6908000D01*
X13004000Y-6808000D02*
X12904000Y-6908000D01*
X13004000Y-6858000D02*
G75*
G03*
X13004000Y-6858000I-50000J0D01*
G01*
X12904000Y-14682000D02*
X13004000Y-14782000D01*
X13004000Y-14682000D02*
X12904000Y-14782000D01*
X13004000Y-14732000D02*
G75*
G03*
X13004000Y-14732000I-50000J0D01*
G01*
X13158000Y-6554000D02*
X13258000Y-6654000D01*
X13258000Y-6554000D02*
X13158000Y-6654000D01*
X13258000Y-6604000D02*
G75*
G03*
X13258000Y-6604000I-50000J0D01*
G01*
X13158000Y-6808000D02*
X13258000Y-6908000D01*
X13258000Y-6808000D02*
X13158000Y-6908000D01*
X13258000Y-6858000D02*
G75*
G03*
X13258000Y-6858000I-50000J0D01*
G01*
X13158000Y-14682000D02*
X13258000Y-14782000D01*
X13258000Y-14682000D02*
X13158000Y-14782000D01*
X13258000Y-14732000D02*
G75*
G03*
X13258000Y-14732000I-50000J0D01*
G01*
X13412000Y-6554000D02*
X13512000Y-6654000D01*
X13512000Y-6554000D02*
X13412000Y-6654000D01*
X13512000Y-6604000D02*
G75*
G03*
X13512000Y-6604000I-50000J0D01*
G01*
X13412000Y-6808000D02*
X13512000Y-6908000D01*
X13512000Y-6808000D02*
X13412000Y-6908000D01*
X13512000Y-6858000D02*
G75*
G03*
X13512000Y-6858000I-50000J0D01*
G01*
X13412000Y-14682000D02*
X13512000Y-14782000D01*
X13512000Y-14682000D02*
X13412000Y-14782000D01*
X13512000Y-14732000D02*
G75*
G03*
X13512000Y-14732000I-50000J0D01*
G01*
X13666000Y-6554000D02*
X13766000Y-6654000D01*
X13766000Y-6554000D02*
X13666000Y-6654000D01*
X13766000Y-6604000D02*
G75*
G03*
X13766000Y-6604000I-50000J0D01*
G01*
X13666000Y-6808000D02*
X13766000Y-6908000D01*
X13766000Y-6808000D02*
X13666000Y-6908000D01*
X13766000Y-6858000D02*
G75*
G03*
X13766000Y-6858000I-50000J0D01*
G01*
X13666000Y-14682000D02*
X13766000Y-14782000D01*
X13766000Y-14682000D02*
X13666000Y-14782000D01*
X13766000Y-14732000D02*
G75*
G03*
X13766000Y-14732000I-50000J0D01*
G01*
X13920000Y-6554000D02*
X14020000Y-6654000D01*
X14020000Y-6554000D02*
X13920000Y-6654000D01*
X14020000Y-6604000D02*
G75*
G03*
X14020000Y-6604000I-50000J0D01*
G01*
X13920000Y-6808000D02*
X14020000Y-6908000D01*
X14020000Y-6808000D02*
X13920000Y-6908000D01*
X14020000Y-6858000D02*
G75*
G03*
X14020000Y-6858000I-50000J0D01*
G01*
X13920000Y-9856000D02*
X14020000Y-9956000D01*
X14020000Y-9856000D02*
X13920000Y-9956000D01*
X14020000Y-9906000D02*
G75*
G03*
X14020000Y-9906000I-50000J0D01*
G01*
X13920000Y-10110000D02*
X14020000Y-10210000D01*
X14020000Y-10110000D02*
X13920000Y-10210000D01*
X14020000Y-10160000D02*
G75*
G03*
X14020000Y-10160000I-50000J0D01*
G01*
X13920000Y-10364000D02*
X14020000Y-10464000D01*
X14020000Y-10364000D02*
X13920000Y-10464000D01*
X14020000Y-10414000D02*
G75*
G03*
X14020000Y-10414000I-50000J0D01*
G01*
X13920000Y-10618000D02*
X14020000Y-10718000D01*
X14020000Y-10618000D02*
X13920000Y-10718000D01*
X14020000Y-10668000D02*
G75*
G03*
X14020000Y-10668000I-50000J0D01*
G01*
X13920000Y-10872000D02*
X14020000Y-10972000D01*
X14020000Y-10872000D02*
X13920000Y-10972000D01*
X14020000Y-10922000D02*
G75*
G03*
X14020000Y-10922000I-50000J0D01*
G01*
X13920000Y-11126000D02*
X14020000Y-11226000D01*
X14020000Y-11126000D02*
X13920000Y-11226000D01*
X14020000Y-11176000D02*
G75*
G03*
X14020000Y-11176000I-50000J0D01*
G01*
X13920000Y-11380000D02*
X14020000Y-11480000D01*
X14020000Y-11380000D02*
X13920000Y-11480000D01*
X14020000Y-11430000D02*
G75*
G03*
X14020000Y-11430000I-50000J0D01*
G01*
X13920000Y-11634000D02*
X14020000Y-11734000D01*
X14020000Y-11634000D02*
X13920000Y-11734000D01*
X14020000Y-11684000D02*
G75*
G03*
X14020000Y-11684000I-50000J0D01*
G01*
X13920000Y-11888000D02*
X14020000Y-11988000D01*
X14020000Y-11888000D02*
X13920000Y-11988000D01*
X14020000Y-11938000D02*
G75*
G03*
X14020000Y-11938000I-50000J0D01*
G01*
X13920000Y-12142000D02*
X14020000Y-12242000D01*
X14020000Y-12142000D02*
X13920000Y-12242000D01*
X14020000Y-12192000D02*
G75*
G03*
X14020000Y-12192000I-50000J0D01*
G01*
X13920000Y-12396000D02*
X14020000Y-12496000D01*
X14020000Y-12396000D02*
X13920000Y-12496000D01*
X14020000Y-12446000D02*
G75*
G03*
X14020000Y-12446000I-50000J0D01*
G01*
X13920000Y-12650000D02*
X14020000Y-12750000D01*
X14020000Y-12650000D02*
X13920000Y-12750000D01*
X14020000Y-12700000D02*
G75*
G03*
X14020000Y-12700000I-50000J0D01*
G01*
X13920000Y-14682000D02*
X14020000Y-14782000D01*
X14020000Y-14682000D02*
X13920000Y-14782000D01*
X14020000Y-14732000D02*
G75*
G03*
X14020000Y-14732000I-50000J0D01*
G01*
X14174000Y-6554000D02*
X14274000Y-6654000D01*
X14274000Y-6554000D02*
X14174000Y-6654000D01*
X14274000Y-6604000D02*
G75*
G03*
X14274000Y-6604000I-50000J0D01*
G01*
X14174000Y-6808000D02*
X14274000Y-6908000D01*
X14274000Y-6808000D02*
X14174000Y-6908000D01*
X14274000Y-6858000D02*
G75*
G03*
X14274000Y-6858000I-50000J0D01*
G01*
X14174000Y-14682000D02*
X14274000Y-14782000D01*
X14274000Y-14682000D02*
X14174000Y-14782000D01*
X14274000Y-14732000D02*
G75*
G03*
X14274000Y-14732000I-50000J0D01*
G01*
X14428000Y-6554000D02*
X14528000Y-6654000D01*
X14528000Y-6554000D02*
X14428000Y-6654000D01*
X14528000Y-6604000D02*
G75*
G03*
X14528000Y-6604000I-50000J0D01*
G01*
X14428000Y-6808000D02*
X14528000Y-6908000D01*
X14528000Y-6808000D02*
X14428000Y-6908000D01*
X14528000Y-6858000D02*
G75*
G03*
X14528000Y-6858000I-50000J0D01*
G01*
X14428000Y-14682000D02*
X14528000Y-14782000D01*
X14528000Y-14682000D02*
X14428000Y-14782000D01*
X14528000Y-14732000D02*
G75*
G03*
X14528000Y-14732000I-50000J0D01*
G01*
X14682000Y-6554000D02*
X14782000Y-6654000D01*
X14782000Y-6554000D02*
X14682000Y-6654000D01*
X14782000Y-6604000D02*
G75*
G03*
X14782000Y-6604000I-50000J0D01*
G01*
X14682000Y-6808000D02*
X14782000Y-6908000D01*
X14782000Y-6808000D02*
X14682000Y-6908000D01*
X14782000Y-6858000D02*
G75*
G03*
X14782000Y-6858000I-50000J0D01*
G01*
X14682000Y-9856000D02*
X14782000Y-9956000D01*
X14782000Y-9856000D02*
X14682000Y-9956000D01*
X14782000Y-9906000D02*
G75*
G03*
X14782000Y-9906000I-50000J0D01*
G01*
X14682000Y-10110000D02*
X14782000Y-10210000D01*
X14782000Y-10110000D02*
X14682000Y-10210000D01*
X14782000Y-10160000D02*
G75*
G03*
X14782000Y-10160000I-50000J0D01*
G01*
X14682000Y-10364000D02*
X14782000Y-10464000D01*
X14782000Y-10364000D02*
X14682000Y-10464000D01*
X14782000Y-10414000D02*
G75*
G03*
X14782000Y-10414000I-50000J0D01*
G01*
X14682000Y-10618000D02*
X14782000Y-10718000D01*
X14782000Y-10618000D02*
X14682000Y-10718000D01*
X14782000Y-10668000D02*
G75*
G03*
X14782000Y-10668000I-50000J0D01*
G01*
X14682000Y-10872000D02*
X14782000Y-10972000D01*
X14782000Y-10872000D02*
X14682000Y-10972000D01*
X14782000Y-10922000D02*
G75*
G03*
X14782000Y-10922000I-50000J0D01*
G01*
X14682000Y-11126000D02*
X14782000Y-11226000D01*
X14782000Y-11126000D02*
X14682000Y-11226000D01*
X14782000Y-11176000D02*
G75*
G03*
X14782000Y-11176000I-50000J0D01*
G01*
X14682000Y-11380000D02*
X14782000Y-11480000D01*
X14782000Y-11380000D02*
X14682000Y-11480000D01*
X14782000Y-11430000D02*
G75*
G03*
X14782000Y-11430000I-50000J0D01*
G01*
X14682000Y-11634000D02*
X14782000Y-11734000D01*
X14782000Y-11634000D02*
X14682000Y-11734000D01*
X14782000Y-11684000D02*
G75*
G03*
X14782000Y-11684000I-50000J0D01*
G01*
X14682000Y-11888000D02*
X14782000Y-11988000D01*
X14782000Y-11888000D02*
X14682000Y-11988000D01*
X14782000Y-11938000D02*
G75*
G03*
X14782000Y-11938000I-50000J0D01*
G01*
X14682000Y-12142000D02*
X14782000Y-12242000D01*
X14782000Y-12142000D02*
X14682000Y-12242000D01*
X14782000Y-12192000D02*
G75*
G03*
X14782000Y-12192000I-50000J0D01*
G01*
X14682000Y-12396000D02*
X14782000Y-12496000D01*
X14782000Y-12396000D02*
X14682000Y-12496000D01*
X14782000Y-12446000D02*
G75*
G03*
X14782000Y-12446000I-50000J0D01*
G01*
X14682000Y-12650000D02*
X14782000Y-12750000D01*
X14782000Y-12650000D02*
X14682000Y-12750000D01*
X14782000Y-12700000D02*
G75*
G03*
X14782000Y-12700000I-50000J0D01*
G01*
X14682000Y-14682000D02*
X14782000Y-14782000D01*
X14782000Y-14682000D02*
X14682000Y-14782000D01*
X14782000Y-14732000D02*
G75*
G03*
X14782000Y-14732000I-50000J0D01*
G01*
X14936000Y-6554000D02*
X15036000Y-6654000D01*
X15036000Y-6554000D02*
X14936000Y-6654000D01*
X15036000Y-6604000D02*
G75*
G03*
X15036000Y-6604000I-50000J0D01*
G01*
X14936000Y-6808000D02*
X15036000Y-6908000D01*
X15036000Y-6808000D02*
X14936000Y-6908000D01*
X15036000Y-6858000D02*
G75*
G03*
X15036000Y-6858000I-50000J0D01*
G01*
X14936000Y-14682000D02*
X15036000Y-14782000D01*
X15036000Y-14682000D02*
X14936000Y-14782000D01*
X15036000Y-14732000D02*
G75*
G03*
X15036000Y-14732000I-50000J0D01*
G01*
X15190000Y-6554000D02*
X15290000Y-6654000D01*
X15290000Y-6554000D02*
X15190000Y-6654000D01*
X15290000Y-6604000D02*
G75*
G03*
X15290000Y-6604000I-50000J0D01*
G01*
X15190000Y-6808000D02*
X15290000Y-6908000D01*
X15290000Y-6808000D02*
X15190000Y-6908000D01*
X15290000Y-6858000D02*
G75*
G03*
X15290000Y-6858000I-50000J0D01*
G01*
X15190000Y-14682000D02*
X15290000Y-14782000D01*
X15290000Y-14682000D02*
X15190000Y-14782000D01*
X15290000Y-14732000D02*
G75*
G03*
X15290000Y-14732000I-50000J0D01*
G01*
X15444000Y-6554000D02*
X15544000Y-6654000D01*
X15544000Y-6554000D02*
X15444000Y-6654000D01*
X15544000Y-6604000D02*
G75*
G03*
X15544000Y-6604000I-50000J0D01*
G01*
X15444000Y-6808000D02*
X15544000Y-6908000D01*
X15544000Y-6808000D02*
X15444000Y-6908000D01*
X15544000Y-6858000D02*
G75*
G03*
X15544000Y-6858000I-50000J0D01*
G01*
X15444000Y-14682000D02*
X15544000Y-14782000D01*
X15544000Y-14682000D02*
X15444000Y-14782000D01*
X15544000Y-14732000D02*
G75*
G03*
X15544000Y-14732000I-50000J0D01*
G01*
X15698000Y-6554000D02*
X15798000Y-6654000D01*
X15798000Y-6554000D02*
X15698000Y-6654000D01*
X15798000Y-6604000D02*
G75*
G03*
X15798000Y-6604000I-50000J0D01*
G01*
X15698000Y-6808000D02*
X15798000Y-6908000D01*
X15798000Y-6808000D02*
X15698000Y-6908000D01*
X15798000Y-6858000D02*
G75*
G03*
X15798000Y-6858000I-50000J0D01*
G01*
X15698000Y-14682000D02*
X15798000Y-14782000D01*
X15798000Y-14682000D02*
X15698000Y-14782000D01*
X15798000Y-14732000D02*
G75*
G03*
X15798000Y-14732000I-50000J0D01*
G01*
X15952000Y-6554000D02*
X16052000Y-6654000D01*
X16052000Y-6554000D02*
X15952000Y-6654000D01*
X16052000Y-6604000D02*
G75*
G03*
X16052000Y-6604000I-50000J0D01*
G01*
X15952000Y-6808000D02*
X16052000Y-6908000D01*
X16052000Y-6808000D02*
X15952000Y-6908000D01*
X16052000Y-6858000D02*
G75*
G03*
X16052000Y-6858000I-50000J0D01*
G01*
X15952000Y-14682000D02*
X16052000Y-14782000D01*
X16052000Y-14682000D02*
X15952000Y-14782000D01*
X16052000Y-14732000D02*
G75*
G03*
X16052000Y-14732000I-50000J0D01*
G01*
X16206000Y-6554000D02*
X16306000Y-6654000D01*
X16306000Y-6554000D02*
X16206000Y-6654000D01*
X16306000Y-6604000D02*
G75*
G03*
X16306000Y-6604000I-50000J0D01*
G01*
X16206000Y-6808000D02*
X16306000Y-6908000D01*
X16306000Y-6808000D02*
X16206000Y-6908000D01*
X16306000Y-6858000D02*
G75*
G03*
X16306000Y-6858000I-50000J0D01*
G01*
X16206000Y-14682000D02*
X16306000Y-14782000D01*
X16306000Y-14682000D02*
X16206000Y-14782000D01*
X16306000Y-14732000D02*
G75*
G03*
X16306000Y-14732000I-50000J0D01*
G01*
X16460000Y-6554000D02*
X16560000Y-6654000D01*
X16560000Y-6554000D02*
X16460000Y-6654000D01*
X16560000Y-6604000D02*
G75*
G03*
X16560000Y-6604000I-50000J0D01*
G01*
X16460000Y-6808000D02*
X16560000Y-6908000D01*
X16560000Y-6808000D02*
X16460000Y-6908000D01*
X16560000Y-6858000D02*
G75*
G03*
X16560000Y-6858000I-50000J0D01*
G01*
X16460000Y-14682000D02*
X16560000Y-14782000D01*
X16560000Y-14682000D02*
X16460000Y-14782000D01*
X16560000Y-14732000D02*
G75*
G03*
X16560000Y-14732000I-50000J0D01*
G01*
X16714000Y-6554000D02*
X16814000Y-6654000D01*
X16814000Y-6554000D02*
X16714000Y-6654000D01*
X16814000Y-6604000D02*
G75*
G03*
X16814000Y-6604000I-50000J0D01*
G01*
X16714000Y-6808000D02*
X16814000Y-6908000D01*
X16814000Y-6808000D02*
X16714000Y-6908000D01*
X16814000Y-6858000D02*
G75*
G03*
X16814000Y-6858000I-50000J0D01*
G01*
X16714000Y-14682000D02*
X16814000Y-14782000D01*
X16814000Y-14682000D02*
X16714000Y-14782000D01*
X16814000Y-14732000D02*
G75*
G03*
X16814000Y-14732000I-50000J0D01*
G01*
X16968000Y-14682000D02*
X17068000Y-14782000D01*
X17068000Y-14682000D02*
X16968000Y-14782000D01*
X17068000Y-14732000D02*
G75*
G03*
X17068000Y-14732000I-50000J0D01*
G01*
X17222000Y-14682000D02*
X17322000Y-14782000D01*
X17322000Y-14682000D02*
X17222000Y-14782000D01*
X17322000Y-14732000D02*
G75*
G03*
X17322000Y-14732000I-50000J0D01*
G01*
X17476000Y-14682000D02*
X17576000Y-14782000D01*
X17576000Y-14682000D02*
X17476000Y-14782000D01*
X17576000Y-14732000D02*
G75*
G03*
X17576000Y-14732000I-50000J0D01*
G01*
X18238000Y-7570000D02*
X18338000Y-7670000D01*
X18338000Y-7570000D02*
X18238000Y-7670000D01*
X18338000Y-7620000D02*
G75*
G03*
X18338000Y-7620000I-50000J0D01*
G01*
X18238000Y-7824000D02*
X18338000Y-7924000D01*
X18338000Y-7824000D02*
X18238000Y-7924000D01*
X18338000Y-7874000D02*
G75*
G03*
X18338000Y-7874000I-50000J0D01*
G01*
X18238000Y-8078000D02*
X18338000Y-8178000D01*
X18338000Y-8078000D02*
X18238000Y-8178000D01*
X18338000Y-8128000D02*
G75*
G03*
X18338000Y-8128000I-50000J0D01*
G01*
X18238000Y-8332000D02*
X18338000Y-8432000D01*
X18338000Y-8332000D02*
X18238000Y-8432000D01*
X18338000Y-8382000D02*
G75*
G03*
X18338000Y-8382000I-50000J0D01*
G01*
X18238000Y-8586000D02*
X18338000Y-8686000D01*
X18338000Y-8586000D02*
X18238000Y-8686000D01*
X18338000Y-8636000D02*
G75*
G03*
X18338000Y-8636000I-50000J0D01*
G01*
X18238000Y-8840000D02*
X18338000Y-8940000D01*
X18338000Y-8840000D02*
X18238000Y-8940000D01*
X18338000Y-8890000D02*
G75*
G03*
X18338000Y-8890000I-50000J0D01*
G01*
X18238000Y-9094000D02*
X18338000Y-9194000D01*
X18338000Y-9094000D02*
X18238000Y-9194000D01*
X18338000Y-9144000D02*
G75*
G03*
X18338000Y-9144000I-50000J0D01*
G01*
X18238000Y-9348000D02*
X18338000Y-9448000D01*
X18338000Y-9348000D02*
X18238000Y-9448000D01*
X18338000Y-9398000D02*
G75*
G03*
X18338000Y-9398000I-50000J0D01*
G01*
X18238000Y-10110000D02*
X18338000Y-10210000D01*
X18338000Y-10110000D02*
X18238000Y-10210000D01*
X18338000Y-10160000D02*
G75*
G03*
X18338000Y-10160000I-50000J0D01*
G01*
X18238000Y-10364000D02*
X18338000Y-10464000D01*
X18338000Y-10364000D02*
X18238000Y-10464000D01*
X18338000Y-10414000D02*
G75*
G03*
X18338000Y-10414000I-50000J0D01*
G01*
X18238000Y-10618000D02*
X18338000Y-10718000D01*
X18338000Y-10618000D02*
X18238000Y-10718000D01*
X18338000Y-10668000D02*
G75*
G03*
X18338000Y-10668000I-50000J0D01*
G01*
X18238000Y-10872000D02*
X18338000Y-10972000D01*
X18338000Y-10872000D02*
X18238000Y-10972000D01*
X18338000Y-10922000D02*
G75*
G03*
X18338000Y-10922000I-50000J0D01*
G01*
X18238000Y-11126000D02*
X18338000Y-11226000D01*
X18338000Y-11126000D02*
X18238000Y-11226000D01*
X18338000Y-11176000D02*
G75*
G03*
X18338000Y-11176000I-50000J0D01*
G01*
X5088500Y-7755500D02*
X5198500Y-7865500D01*
X5198500Y-7755500D02*
X5088500Y-7865500D01*
X5143500Y-7755500D02*
X5143500Y-7865500D01*
X5088500Y-7810500D02*
X5198500Y-7810500D01*
X5088500Y-8205500D02*
X5198500Y-8315500D01*
X5198500Y-8205500D02*
X5088500Y-8315500D01*
X5143500Y-8205500D02*
X5143500Y-8315500D01*
X5088500Y-8260500D02*
X5198500Y-8260500D01*
X5738500Y-7755500D02*
X5848500Y-7865500D01*
X5848500Y-7755500D02*
X5738500Y-7865500D01*
X5793500Y-7755500D02*
X5793500Y-7865500D01*
X5738500Y-7810500D02*
X5848500Y-7810500D01*
X5738500Y-8205500D02*
X5848500Y-8315500D01*
X5848500Y-8205500D02*
X5738500Y-8315500D01*
X5793500Y-8205500D02*
X5793500Y-8315500D01*
X5738500Y-8260500D02*
X5848500Y-8260500D01*
X7488800Y-7311000D02*
X7598800Y-7421000D01*
X7598800Y-7311000D02*
X7488800Y-7421000D01*
X7543800Y-7311000D02*
X7543800Y-7421000D01*
X7488800Y-7366000D02*
X7598800Y-7366000D01*
X7488800Y-7793600D02*
X7598800Y-7903600D01*
X7598800Y-7793600D02*
X7488800Y-7903600D01*
X7543800Y-7793600D02*
X7543800Y-7903600D01*
X7488800Y-7848600D02*
X7598800Y-7848600D01*
X8250800Y-7311000D02*
X8360800Y-7421000D01*
X8360800Y-7311000D02*
X8250800Y-7421000D01*
X8305800Y-7311000D02*
X8305800Y-7421000D01*
X8250800Y-7366000D02*
X8360800Y-7366000D01*
X8250800Y-7793600D02*
X8360800Y-7903600D01*
X8360800Y-7793600D02*
X8250800Y-7903600D01*
X8305800Y-7793600D02*
X8305800Y-7903600D01*
X8250800Y-7848600D02*
X8360800Y-7848600D01*
X4077980Y-7125980D02*
X4237980Y-7285980D01*
X4237980Y-7125980D02*
X4077980Y-7285980D01*
X4214549Y-7262549D02*
X4214549Y-7149411D01*
X4101411Y-7149411D01*
X4101411Y-7262549D01*
X4214549Y-7262549D01*
X4056000Y-6469000D02*
X4326000Y-6739000D01*
X4326000Y-6469000D02*
X4056000Y-6739000D01*
X4191000Y-6739000D02*
X4326000Y-6604000D01*
X4191000Y-6469000D01*
X4056000Y-6604000D01*
X4191000Y-6739000D01*
X4056000Y-14597000D02*
X4326000Y-14867000D01*
X4326000Y-14597000D02*
X4056000Y-14867000D01*
X4191000Y-14867000D02*
X4326000Y-14732000D01*
X4191000Y-14597000D01*
X4056000Y-14732000D01*
X4191000Y-14867000D01*
X18153000Y-6469000D02*
X18423000Y-6739000D01*
X18423000Y-6469000D02*
X18153000Y-6739000D01*
X18288000Y-6739000D02*
X18423000Y-6604000D01*
X18288000Y-6469000D01*
X18153000Y-6604000D01*
X18288000Y-6739000D01*
X18153000Y-14597000D02*
X18423000Y-14867000D01*
X18423000Y-14597000D02*
X18153000Y-14867000D01*
X18288000Y-14867000D02*
X18423000Y-14732000D01*
X18288000Y-14597000D01*
X18153000Y-14732000D01*
X18288000Y-14867000D01*
D12*
X4090428Y-15584714D02*
X4090428Y-15284714D01*
X4161857Y-15284714D01*
X4204714Y-15299000D01*
X4233286Y-15327571D01*
X4247571Y-15356143D01*
X4261857Y-15413286D01*
X4261857Y-15456143D01*
X4247571Y-15513286D01*
X4233286Y-15541857D01*
X4204714Y-15570429D01*
X4161857Y-15584714D01*
X4090428Y-15584714D01*
X4390428Y-15584714D02*
X4390428Y-15384714D01*
X4390428Y-15441857D02*
X4404714Y-15413286D01*
X4419000Y-15399000D01*
X4447571Y-15384714D01*
X4476143Y-15384714D01*
X4576143Y-15584714D02*
X4576143Y-15384714D01*
X4576143Y-15284714D02*
X4561857Y-15299000D01*
X4576143Y-15313286D01*
X4590428Y-15299000D01*
X4576143Y-15284714D01*
X4576143Y-15313286D01*
X4761857Y-15584714D02*
X4733286Y-15570429D01*
X4719000Y-15541857D01*
X4719000Y-15284714D01*
X4919000Y-15584714D02*
X4890428Y-15570429D01*
X4876143Y-15541857D01*
X4876143Y-15284714D01*
X5261857Y-15584714D02*
X5261857Y-15284714D01*
X5361857Y-15499000D01*
X5461857Y-15284714D01*
X5461857Y-15584714D01*
X5733286Y-15584714D02*
X5733286Y-15427571D01*
X5719000Y-15399000D01*
X5690428Y-15384714D01*
X5633286Y-15384714D01*
X5604714Y-15399000D01*
X5733286Y-15570429D02*
X5704714Y-15584714D01*
X5633286Y-15584714D01*
X5604714Y-15570429D01*
X5590428Y-15541857D01*
X5590428Y-15513286D01*
X5604714Y-15484714D01*
X5633286Y-15470429D01*
X5704714Y-15470429D01*
X5733286Y-15456143D01*
X5876143Y-15384714D02*
X5876143Y-15684714D01*
X5876143Y-15399000D02*
X5904714Y-15384714D01*
X5961857Y-15384714D01*
X5990428Y-15399000D01*
X6004714Y-15413286D01*
X6019000Y-15441857D01*
X6019000Y-15527571D01*
X6004714Y-15556143D01*
X5990428Y-15570429D01*
X5961857Y-15584714D01*
X5904714Y-15584714D01*
X5876143Y-15570429D01*
X6147571Y-15556143D02*
X6161857Y-15570429D01*
X6147571Y-15584714D01*
X6133286Y-15570429D01*
X6147571Y-15556143D01*
X6147571Y-15584714D01*
X6147571Y-15399000D02*
X6161857Y-15413286D01*
X6147571Y-15427571D01*
X6133286Y-15413286D01*
X6147571Y-15399000D01*
X6147571Y-15427571D01*
X3769000Y-16061500D02*
X3804000Y-16096500D01*
X3804000Y-16061500D02*
X3769000Y-16096500D01*
X4147571Y-15914714D02*
X4176143Y-15914714D01*
X4204714Y-15929000D01*
X4219000Y-15943286D01*
X4233286Y-15971857D01*
X4247571Y-16029000D01*
X4247571Y-16100429D01*
X4233286Y-16157571D01*
X4219000Y-16186143D01*
X4204714Y-16200429D01*
X4176143Y-16214714D01*
X4147571Y-16214714D01*
X4119000Y-16200429D01*
X4104714Y-16186143D01*
X4090428Y-16157571D01*
X4076143Y-16100429D01*
X4076143Y-16029000D01*
X4090428Y-15971857D01*
X4104714Y-15943286D01*
X4119000Y-15929000D01*
X4147571Y-15914714D01*
X4376143Y-16186143D02*
X4390428Y-16200429D01*
X4376143Y-16214714D01*
X4361857Y-16200429D01*
X4376143Y-16186143D01*
X4376143Y-16214714D01*
X4490428Y-15914714D02*
X4676143Y-15914714D01*
X4576143Y-16029000D01*
X4619000Y-16029000D01*
X4647571Y-16043286D01*
X4661857Y-16057571D01*
X4676143Y-16086143D01*
X4676143Y-16157571D01*
X4661857Y-16186143D01*
X4647571Y-16200429D01*
X4619000Y-16214714D01*
X4533286Y-16214714D01*
X4504714Y-16200429D01*
X4490428Y-16186143D01*
X4947571Y-15914714D02*
X4804714Y-15914714D01*
X4790428Y-16057571D01*
X4804714Y-16043286D01*
X4833286Y-16029000D01*
X4904714Y-16029000D01*
X4933286Y-16043286D01*
X4947571Y-16057571D01*
X4961857Y-16086143D01*
X4961857Y-16157571D01*
X4947571Y-16186143D01*
X4933286Y-16200429D01*
X4904714Y-16214714D01*
X4833286Y-16214714D01*
X4804714Y-16200429D01*
X4790428Y-16186143D01*
X5147571Y-15914714D02*
X5176143Y-15914714D01*
X5204714Y-15929000D01*
X5219000Y-15943286D01*
X5233286Y-15971857D01*
X5247571Y-16029000D01*
X5247571Y-16100429D01*
X5233286Y-16157571D01*
X5219000Y-16186143D01*
X5204714Y-16200429D01*
X5176143Y-16214714D01*
X5147571Y-16214714D01*
X5119000Y-16200429D01*
X5104714Y-16186143D01*
X5090428Y-16157571D01*
X5076143Y-16100429D01*
X5076143Y-16029000D01*
X5090428Y-15971857D01*
X5104714Y-15943286D01*
X5119000Y-15929000D01*
X5147571Y-15914714D01*
X5376143Y-16214714D02*
X5376143Y-16014714D01*
X5376143Y-16043286D02*
X5390428Y-16029000D01*
X5419000Y-16014714D01*
X5461857Y-16014714D01*
X5490428Y-16029000D01*
X5504714Y-16057571D01*
X5504714Y-16214714D01*
X5504714Y-16057571D02*
X5519000Y-16029000D01*
X5547571Y-16014714D01*
X5590428Y-16014714D01*
X5619000Y-16029000D01*
X5633286Y-16057571D01*
X5633286Y-16214714D01*
X5776143Y-16214714D02*
X5776143Y-16014714D01*
X5776143Y-16043286D02*
X5790428Y-16029000D01*
X5819000Y-16014714D01*
X5861857Y-16014714D01*
X5890428Y-16029000D01*
X5904714Y-16057571D01*
X5904714Y-16214714D01*
X5904714Y-16057571D02*
X5919000Y-16029000D01*
X5947571Y-16014714D01*
X5990428Y-16014714D01*
X6019000Y-16029000D01*
X6033286Y-16057571D01*
X6033286Y-16214714D01*
X6619000Y-15900429D02*
X6361857Y-16286143D01*
X7004714Y-15914714D02*
X7033286Y-15914714D01*
X7061857Y-15929000D01*
X7076143Y-15943286D01*
X7090428Y-15971857D01*
X7104714Y-16029000D01*
X7104714Y-16100429D01*
X7090428Y-16157571D01*
X7076143Y-16186143D01*
X7061857Y-16200429D01*
X7033286Y-16214714D01*
X7004714Y-16214714D01*
X6976143Y-16200429D01*
X6961857Y-16186143D01*
X6947571Y-16157571D01*
X6933286Y-16100429D01*
X6933286Y-16029000D01*
X6947571Y-15971857D01*
X6961857Y-15943286D01*
X6976143Y-15929000D01*
X7004714Y-15914714D01*
X7233286Y-16186143D02*
X7247571Y-16200429D01*
X7233286Y-16214714D01*
X7219000Y-16200429D01*
X7233286Y-16186143D01*
X7233286Y-16214714D01*
X7433286Y-15914714D02*
X7461857Y-15914714D01*
X7490428Y-15929000D01*
X7504714Y-15943286D01*
X7519000Y-15971857D01*
X7533286Y-16029000D01*
X7533286Y-16100429D01*
X7519000Y-16157571D01*
X7504714Y-16186143D01*
X7490428Y-16200429D01*
X7461857Y-16214714D01*
X7433286Y-16214714D01*
X7404714Y-16200429D01*
X7390428Y-16186143D01*
X7376143Y-16157571D01*
X7361857Y-16100429D01*
X7361857Y-16029000D01*
X7376143Y-15971857D01*
X7390428Y-15943286D01*
X7404714Y-15929000D01*
X7433286Y-15914714D01*
X7819000Y-16214714D02*
X7647571Y-16214714D01*
X7733286Y-16214714D02*
X7733286Y-15914714D01*
X7704714Y-15957571D01*
X7676143Y-15986143D01*
X7647571Y-16000429D01*
X7919000Y-15914714D02*
X8104714Y-15914714D01*
X8004714Y-16029000D01*
X8047571Y-16029000D01*
X8076143Y-16043286D01*
X8090428Y-16057571D01*
X8104714Y-16086143D01*
X8104714Y-16157571D01*
X8090428Y-16186143D01*
X8076143Y-16200429D01*
X8047571Y-16214714D01*
X7961857Y-16214714D01*
X7933286Y-16200429D01*
X7919000Y-16186143D01*
X8276143Y-16043286D02*
X8247571Y-16029000D01*
X8233286Y-16014714D01*
X8219000Y-15986143D01*
X8219000Y-15971857D01*
X8233286Y-15943286D01*
X8247571Y-15929000D01*
X8276143Y-15914714D01*
X8333286Y-15914714D01*
X8361857Y-15929000D01*
X8376143Y-15943286D01*
X8390428Y-15971857D01*
X8390428Y-15986143D01*
X8376143Y-16014714D01*
X8361857Y-16029000D01*
X8333286Y-16043286D01*
X8276143Y-16043286D01*
X8247571Y-16057571D01*
X8233286Y-16071857D01*
X8219000Y-16100429D01*
X8219000Y-16157571D01*
X8233286Y-16186143D01*
X8247571Y-16200429D01*
X8276143Y-16214714D01*
X8333286Y-16214714D01*
X8361857Y-16200429D01*
X8376143Y-16186143D01*
X8390428Y-16157571D01*
X8390428Y-16100429D01*
X8376143Y-16071857D01*
X8361857Y-16057571D01*
X8333286Y-16043286D01*
X8504714Y-15914714D02*
X8504714Y-15971857D01*
X8619000Y-15914714D02*
X8619000Y-15971857D01*
X9061857Y-16329000D02*
X9047571Y-16314714D01*
X9019000Y-16271857D01*
X9004714Y-16243286D01*
X8990428Y-16200429D01*
X8976143Y-16129000D01*
X8976143Y-16071857D01*
X8990428Y-16000429D01*
X9004714Y-15957571D01*
X9019000Y-15929000D01*
X9047571Y-15886143D01*
X9061857Y-15871857D01*
X9319000Y-15914714D02*
X9176143Y-15914714D01*
X9161857Y-16057571D01*
X9176143Y-16043286D01*
X9204714Y-16029000D01*
X9276143Y-16029000D01*
X9304714Y-16043286D01*
X9319000Y-16057571D01*
X9333286Y-16086143D01*
X9333286Y-16157571D01*
X9319000Y-16186143D01*
X9304714Y-16200429D01*
X9276143Y-16214714D01*
X9204714Y-16214714D01*
X9176143Y-16200429D01*
X9161857Y-16186143D01*
X9447571Y-15943286D02*
X9461857Y-15929000D01*
X9490428Y-15914714D01*
X9561857Y-15914714D01*
X9590428Y-15929000D01*
X9604714Y-15943286D01*
X9619000Y-15971857D01*
X9619000Y-16000429D01*
X9604714Y-16043286D01*
X9433286Y-16214714D01*
X9619000Y-16214714D01*
X9876143Y-15914714D02*
X9819000Y-15914714D01*
X9790428Y-15929000D01*
X9776143Y-15943286D01*
X9747571Y-15986143D01*
X9733286Y-16043286D01*
X9733286Y-16157571D01*
X9747571Y-16186143D01*
X9761857Y-16200429D01*
X9790428Y-16214714D01*
X9847571Y-16214714D01*
X9876143Y-16200429D01*
X9890428Y-16186143D01*
X9904714Y-16157571D01*
X9904714Y-16086143D01*
X9890428Y-16057571D01*
X9876143Y-16043286D01*
X9847571Y-16029000D01*
X9790428Y-16029000D01*
X9761857Y-16043286D01*
X9747571Y-16057571D01*
X9733286Y-16086143D01*
X10261857Y-16214714D02*
X10261857Y-15914714D01*
X10390428Y-16214714D02*
X10390428Y-16057571D01*
X10376143Y-16029000D01*
X10347571Y-16014714D01*
X10304714Y-16014714D01*
X10276143Y-16029000D01*
X10261857Y-16043286D01*
X10576143Y-16214714D02*
X10547571Y-16200429D01*
X10533286Y-16186143D01*
X10519000Y-16157571D01*
X10519000Y-16071857D01*
X10533286Y-16043286D01*
X10547571Y-16029000D01*
X10576143Y-16014714D01*
X10619000Y-16014714D01*
X10647571Y-16029000D01*
X10661857Y-16043286D01*
X10676143Y-16071857D01*
X10676143Y-16157571D01*
X10661857Y-16186143D01*
X10647571Y-16200429D01*
X10619000Y-16214714D01*
X10576143Y-16214714D01*
X10847571Y-16214714D02*
X10819000Y-16200429D01*
X10804714Y-16171857D01*
X10804714Y-15914714D01*
X11076143Y-16200429D02*
X11047571Y-16214714D01*
X10990428Y-16214714D01*
X10961857Y-16200429D01*
X10947571Y-16171857D01*
X10947571Y-16057571D01*
X10961857Y-16029000D01*
X10990428Y-16014714D01*
X11047571Y-16014714D01*
X11076143Y-16029000D01*
X11090428Y-16057571D01*
X11090428Y-16086143D01*
X10947571Y-16114714D01*
X11204714Y-16200429D02*
X11233286Y-16214714D01*
X11290428Y-16214714D01*
X11319000Y-16200429D01*
X11333286Y-16171857D01*
X11333286Y-16157571D01*
X11319000Y-16129000D01*
X11290428Y-16114714D01*
X11247571Y-16114714D01*
X11219000Y-16100429D01*
X11204714Y-16071857D01*
X11204714Y-16057571D01*
X11219000Y-16029000D01*
X11247571Y-16014714D01*
X11290428Y-16014714D01*
X11319000Y-16029000D01*
X11433286Y-16329000D02*
X11447571Y-16314714D01*
X11476143Y-16271857D01*
X11490428Y-16243286D01*
X11504714Y-16200429D01*
X11519000Y-16129000D01*
X11519000Y-16071857D01*
X11504714Y-16000429D01*
X11490428Y-15957571D01*
X11476143Y-15929000D01*
X11447571Y-15886143D01*
X11433286Y-15871857D01*
X3804000Y-16475000D02*
G75*
G03*
X3804000Y-16475000I-35000J0D01*
G01*
X4147571Y-16310714D02*
X4176143Y-16310714D01*
X4204714Y-16325000D01*
X4219000Y-16339286D01*
X4233286Y-16367857D01*
X4247571Y-16425000D01*
X4247571Y-16496429D01*
X4233286Y-16553571D01*
X4219000Y-16582143D01*
X4204714Y-16596429D01*
X4176143Y-16610714D01*
X4147571Y-16610714D01*
X4119000Y-16596429D01*
X4104714Y-16582143D01*
X4090428Y-16553571D01*
X4076143Y-16496429D01*
X4076143Y-16425000D01*
X4090428Y-16367857D01*
X4104714Y-16339286D01*
X4119000Y-16325000D01*
X4147571Y-16310714D01*
X4376143Y-16582143D02*
X4390428Y-16596429D01*
X4376143Y-16610714D01*
X4361857Y-16596429D01*
X4376143Y-16582143D01*
X4376143Y-16610714D01*
X4490428Y-16310714D02*
X4690428Y-16310714D01*
X4561857Y-16610714D01*
X4861857Y-16310714D02*
X4890428Y-16310714D01*
X4919000Y-16325000D01*
X4933286Y-16339286D01*
X4947571Y-16367857D01*
X4961857Y-16425000D01*
X4961857Y-16496429D01*
X4947571Y-16553571D01*
X4933286Y-16582143D01*
X4919000Y-16596429D01*
X4890428Y-16610714D01*
X4861857Y-16610714D01*
X4833286Y-16596429D01*
X4819000Y-16582143D01*
X4804714Y-16553571D01*
X4790428Y-16496429D01*
X4790428Y-16425000D01*
X4804714Y-16367857D01*
X4819000Y-16339286D01*
X4833286Y-16325000D01*
X4861857Y-16310714D01*
X5147571Y-16310714D02*
X5176143Y-16310714D01*
X5204714Y-16325000D01*
X5219000Y-16339286D01*
X5233286Y-16367857D01*
X5247571Y-16425000D01*
X5247571Y-16496429D01*
X5233286Y-16553571D01*
X5219000Y-16582143D01*
X5204714Y-16596429D01*
X5176143Y-16610714D01*
X5147571Y-16610714D01*
X5119000Y-16596429D01*
X5104714Y-16582143D01*
X5090428Y-16553571D01*
X5076143Y-16496429D01*
X5076143Y-16425000D01*
X5090428Y-16367857D01*
X5104714Y-16339286D01*
X5119000Y-16325000D01*
X5147571Y-16310714D01*
X5376143Y-16610714D02*
X5376143Y-16410714D01*
X5376143Y-16439286D02*
X5390428Y-16425000D01*
X5419000Y-16410714D01*
X5461857Y-16410714D01*
X5490428Y-16425000D01*
X5504714Y-16453571D01*
X5504714Y-16610714D01*
X5504714Y-16453571D02*
X5519000Y-16425000D01*
X5547571Y-16410714D01*
X5590428Y-16410714D01*
X5619000Y-16425000D01*
X5633286Y-16453571D01*
X5633286Y-16610714D01*
X5776143Y-16610714D02*
X5776143Y-16410714D01*
X5776143Y-16439286D02*
X5790428Y-16425000D01*
X5819000Y-16410714D01*
X5861857Y-16410714D01*
X5890428Y-16425000D01*
X5904714Y-16453571D01*
X5904714Y-16610714D01*
X5904714Y-16453571D02*
X5919000Y-16425000D01*
X5947571Y-16410714D01*
X5990428Y-16410714D01*
X6019000Y-16425000D01*
X6033286Y-16453571D01*
X6033286Y-16610714D01*
X6619000Y-16296429D02*
X6361857Y-16682143D01*
X7004714Y-16310714D02*
X7033286Y-16310714D01*
X7061857Y-16325000D01*
X7076143Y-16339286D01*
X7090428Y-16367857D01*
X7104714Y-16425000D01*
X7104714Y-16496429D01*
X7090428Y-16553571D01*
X7076143Y-16582143D01*
X7061857Y-16596429D01*
X7033286Y-16610714D01*
X7004714Y-16610714D01*
X6976143Y-16596429D01*
X6961857Y-16582143D01*
X6947571Y-16553571D01*
X6933286Y-16496429D01*
X6933286Y-16425000D01*
X6947571Y-16367857D01*
X6961857Y-16339286D01*
X6976143Y-16325000D01*
X7004714Y-16310714D01*
X7233286Y-16582143D02*
X7247571Y-16596429D01*
X7233286Y-16610714D01*
X7219000Y-16596429D01*
X7233286Y-16582143D01*
X7233286Y-16610714D01*
X7433286Y-16310714D02*
X7461857Y-16310714D01*
X7490428Y-16325000D01*
X7504714Y-16339286D01*
X7519000Y-16367857D01*
X7533286Y-16425000D01*
X7533286Y-16496429D01*
X7519000Y-16553571D01*
X7504714Y-16582143D01*
X7490428Y-16596429D01*
X7461857Y-16610714D01*
X7433286Y-16610714D01*
X7404714Y-16596429D01*
X7390428Y-16582143D01*
X7376143Y-16553571D01*
X7361857Y-16496429D01*
X7361857Y-16425000D01*
X7376143Y-16367857D01*
X7390428Y-16339286D01*
X7404714Y-16325000D01*
X7433286Y-16310714D01*
X7647571Y-16339286D02*
X7661857Y-16325000D01*
X7690428Y-16310714D01*
X7761857Y-16310714D01*
X7790428Y-16325000D01*
X7804714Y-16339286D01*
X7819000Y-16367857D01*
X7819000Y-16396429D01*
X7804714Y-16439286D01*
X7633286Y-16610714D01*
X7819000Y-16610714D01*
X7919000Y-16310714D02*
X8119000Y-16310714D01*
X7990428Y-16610714D01*
X8361857Y-16310714D02*
X8304714Y-16310714D01*
X8276143Y-16325000D01*
X8261857Y-16339286D01*
X8233286Y-16382143D01*
X8219000Y-16439286D01*
X8219000Y-16553571D01*
X8233286Y-16582143D01*
X8247571Y-16596429D01*
X8276143Y-16610714D01*
X8333286Y-16610714D01*
X8361857Y-16596429D01*
X8376143Y-16582143D01*
X8390428Y-16553571D01*
X8390428Y-16482143D01*
X8376143Y-16453571D01*
X8361857Y-16439286D01*
X8333286Y-16425000D01*
X8276143Y-16425000D01*
X8247571Y-16439286D01*
X8233286Y-16453571D01*
X8219000Y-16482143D01*
X8504714Y-16310714D02*
X8504714Y-16367857D01*
X8619000Y-16310714D02*
X8619000Y-16367857D01*
X9061857Y-16725000D02*
X9047571Y-16710714D01*
X9019000Y-16667857D01*
X9004714Y-16639286D01*
X8990428Y-16596429D01*
X8976143Y-16525000D01*
X8976143Y-16467857D01*
X8990428Y-16396429D01*
X9004714Y-16353571D01*
X9019000Y-16325000D01*
X9047571Y-16282143D01*
X9061857Y-16267857D01*
X9147571Y-16310714D02*
X9333286Y-16310714D01*
X9233286Y-16425000D01*
X9276143Y-16425000D01*
X9304714Y-16439286D01*
X9319000Y-16453571D01*
X9333286Y-16482143D01*
X9333286Y-16553571D01*
X9319000Y-16582143D01*
X9304714Y-16596429D01*
X9276143Y-16610714D01*
X9190428Y-16610714D01*
X9161857Y-16596429D01*
X9147571Y-16582143D01*
X9690428Y-16610714D02*
X9690428Y-16310714D01*
X9819000Y-16610714D02*
X9819000Y-16453571D01*
X9804714Y-16425000D01*
X9776143Y-16410714D01*
X9733286Y-16410714D01*
X9704714Y-16425000D01*
X9690428Y-16439286D01*
X10004714Y-16610714D02*
X9976143Y-16596429D01*
X9961857Y-16582143D01*
X9947571Y-16553571D01*
X9947571Y-16467857D01*
X9961857Y-16439286D01*
X9976143Y-16425000D01*
X10004714Y-16410714D01*
X10047571Y-16410714D01*
X10076143Y-16425000D01*
X10090428Y-16439286D01*
X10104714Y-16467857D01*
X10104714Y-16553571D01*
X10090428Y-16582143D01*
X10076143Y-16596429D01*
X10047571Y-16610714D01*
X10004714Y-16610714D01*
X10276143Y-16610714D02*
X10247571Y-16596429D01*
X10233286Y-16567857D01*
X10233286Y-16310714D01*
X10504714Y-16596429D02*
X10476143Y-16610714D01*
X10419000Y-16610714D01*
X10390428Y-16596429D01*
X10376143Y-16567857D01*
X10376143Y-16453571D01*
X10390428Y-16425000D01*
X10419000Y-16410714D01*
X10476143Y-16410714D01*
X10504714Y-16425000D01*
X10519000Y-16453571D01*
X10519000Y-16482143D01*
X10376143Y-16510714D01*
X10633286Y-16596429D02*
X10661857Y-16610714D01*
X10719000Y-16610714D01*
X10747571Y-16596429D01*
X10761857Y-16567857D01*
X10761857Y-16553571D01*
X10747571Y-16525000D01*
X10719000Y-16510714D01*
X10676143Y-16510714D01*
X10647571Y-16496429D01*
X10633286Y-16467857D01*
X10633286Y-16453571D01*
X10647571Y-16425000D01*
X10676143Y-16410714D01*
X10719000Y-16410714D01*
X10747571Y-16425000D01*
X10861857Y-16725000D02*
X10876143Y-16710714D01*
X10904714Y-16667857D01*
X10919000Y-16639286D01*
X10933286Y-16596429D01*
X10947571Y-16525000D01*
X10947571Y-16467857D01*
X10933286Y-16396429D01*
X10919000Y-16353571D01*
X10904714Y-16325000D01*
X10876143Y-16282143D01*
X10861857Y-16267857D01*
X3766500Y-16833500D02*
X3766500Y-16908500D01*
X3729000Y-16871000D02*
X3804000Y-16871000D01*
X4147571Y-16706714D02*
X4176143Y-16706714D01*
X4204714Y-16721000D01*
X4219000Y-16735286D01*
X4233286Y-16763857D01*
X4247571Y-16821000D01*
X4247571Y-16892429D01*
X4233286Y-16949572D01*
X4219000Y-16978143D01*
X4204714Y-16992429D01*
X4176143Y-17006714D01*
X4147571Y-17006714D01*
X4119000Y-16992429D01*
X4104714Y-16978143D01*
X4090428Y-16949572D01*
X4076143Y-16892429D01*
X4076143Y-16821000D01*
X4090428Y-16763857D01*
X4104714Y-16735286D01*
X4119000Y-16721000D01*
X4147571Y-16706714D01*
X4376143Y-16978143D02*
X4390428Y-16992429D01*
X4376143Y-17006714D01*
X4361857Y-16992429D01*
X4376143Y-16978143D01*
X4376143Y-17006714D01*
X4490428Y-16706714D02*
X4690428Y-16706714D01*
X4561857Y-17006714D01*
X4947571Y-16706714D02*
X4804714Y-16706714D01*
X4790428Y-16849572D01*
X4804714Y-16835286D01*
X4833286Y-16821000D01*
X4904714Y-16821000D01*
X4933286Y-16835286D01*
X4947571Y-16849572D01*
X4961857Y-16878143D01*
X4961857Y-16949572D01*
X4947571Y-16978143D01*
X4933286Y-16992429D01*
X4904714Y-17006714D01*
X4833286Y-17006714D01*
X4804714Y-16992429D01*
X4790428Y-16978143D01*
X5147571Y-16706714D02*
X5176143Y-16706714D01*
X5204714Y-16721000D01*
X5219000Y-16735286D01*
X5233286Y-16763857D01*
X5247571Y-16821000D01*
X5247571Y-16892429D01*
X5233286Y-16949572D01*
X5219000Y-16978143D01*
X5204714Y-16992429D01*
X5176143Y-17006714D01*
X5147571Y-17006714D01*
X5119000Y-16992429D01*
X5104714Y-16978143D01*
X5090428Y-16949572D01*
X5076143Y-16892429D01*
X5076143Y-16821000D01*
X5090428Y-16763857D01*
X5104714Y-16735286D01*
X5119000Y-16721000D01*
X5147571Y-16706714D01*
X5376143Y-17006714D02*
X5376143Y-16806714D01*
X5376143Y-16835286D02*
X5390428Y-16821000D01*
X5419000Y-16806714D01*
X5461857Y-16806714D01*
X5490428Y-16821000D01*
X5504714Y-16849572D01*
X5504714Y-17006714D01*
X5504714Y-16849572D02*
X5519000Y-16821000D01*
X5547571Y-16806714D01*
X5590428Y-16806714D01*
X5619000Y-16821000D01*
X5633286Y-16849572D01*
X5633286Y-17006714D01*
X5776143Y-17006714D02*
X5776143Y-16806714D01*
X5776143Y-16835286D02*
X5790428Y-16821000D01*
X5819000Y-16806714D01*
X5861857Y-16806714D01*
X5890428Y-16821000D01*
X5904714Y-16849572D01*
X5904714Y-17006714D01*
X5904714Y-16849572D02*
X5919000Y-16821000D01*
X5947571Y-16806714D01*
X5990428Y-16806714D01*
X6019000Y-16821000D01*
X6033286Y-16849572D01*
X6033286Y-17006714D01*
X6619000Y-16692429D02*
X6361857Y-17078143D01*
X7004714Y-16706714D02*
X7033286Y-16706714D01*
X7061857Y-16721000D01*
X7076143Y-16735286D01*
X7090428Y-16763857D01*
X7104714Y-16821000D01*
X7104714Y-16892429D01*
X7090428Y-16949572D01*
X7076143Y-16978143D01*
X7061857Y-16992429D01*
X7033286Y-17006714D01*
X7004714Y-17006714D01*
X6976143Y-16992429D01*
X6961857Y-16978143D01*
X6947571Y-16949572D01*
X6933286Y-16892429D01*
X6933286Y-16821000D01*
X6947571Y-16763857D01*
X6961857Y-16735286D01*
X6976143Y-16721000D01*
X7004714Y-16706714D01*
X7233286Y-16978143D02*
X7247571Y-16992429D01*
X7233286Y-17006714D01*
X7219000Y-16992429D01*
X7233286Y-16978143D01*
X7233286Y-17006714D01*
X7433286Y-16706714D02*
X7461857Y-16706714D01*
X7490428Y-16721000D01*
X7504714Y-16735286D01*
X7519000Y-16763857D01*
X7533286Y-16821000D01*
X7533286Y-16892429D01*
X7519000Y-16949572D01*
X7504714Y-16978143D01*
X7490428Y-16992429D01*
X7461857Y-17006714D01*
X7433286Y-17006714D01*
X7404714Y-16992429D01*
X7390428Y-16978143D01*
X7376143Y-16949572D01*
X7361857Y-16892429D01*
X7361857Y-16821000D01*
X7376143Y-16763857D01*
X7390428Y-16735286D01*
X7404714Y-16721000D01*
X7433286Y-16706714D01*
X7647571Y-16735286D02*
X7661857Y-16721000D01*
X7690428Y-16706714D01*
X7761857Y-16706714D01*
X7790428Y-16721000D01*
X7804714Y-16735286D01*
X7819000Y-16763857D01*
X7819000Y-16792429D01*
X7804714Y-16835286D01*
X7633286Y-17006714D01*
X7819000Y-17006714D01*
X7961857Y-17006714D02*
X8019000Y-17006714D01*
X8047571Y-16992429D01*
X8061857Y-16978143D01*
X8090428Y-16935286D01*
X8104714Y-16878143D01*
X8104714Y-16763857D01*
X8090428Y-16735286D01*
X8076143Y-16721000D01*
X8047571Y-16706714D01*
X7990428Y-16706714D01*
X7961857Y-16721000D01*
X7947571Y-16735286D01*
X7933286Y-16763857D01*
X7933286Y-16835286D01*
X7947571Y-16863857D01*
X7961857Y-16878143D01*
X7990428Y-16892429D01*
X8047571Y-16892429D01*
X8076143Y-16878143D01*
X8090428Y-16863857D01*
X8104714Y-16835286D01*
X8376143Y-16706714D02*
X8233286Y-16706714D01*
X8219000Y-16849572D01*
X8233286Y-16835286D01*
X8261857Y-16821000D01*
X8333286Y-16821000D01*
X8361857Y-16835286D01*
X8376143Y-16849572D01*
X8390428Y-16878143D01*
X8390428Y-16949572D01*
X8376143Y-16978143D01*
X8361857Y-16992429D01*
X8333286Y-17006714D01*
X8261857Y-17006714D01*
X8233286Y-16992429D01*
X8219000Y-16978143D01*
X8504714Y-16706714D02*
X8504714Y-16763857D01*
X8619000Y-16706714D02*
X8619000Y-16763857D01*
X9061857Y-17121000D02*
X9047571Y-17106714D01*
X9019000Y-17063857D01*
X9004714Y-17035286D01*
X8990428Y-16992429D01*
X8976143Y-16921000D01*
X8976143Y-16863857D01*
X8990428Y-16792429D01*
X9004714Y-16749571D01*
X9019000Y-16721000D01*
X9047571Y-16678143D01*
X9061857Y-16663857D01*
X9147571Y-16706714D02*
X9333286Y-16706714D01*
X9233286Y-16821000D01*
X9276143Y-16821000D01*
X9304714Y-16835286D01*
X9319000Y-16849572D01*
X9333286Y-16878143D01*
X9333286Y-16949572D01*
X9319000Y-16978143D01*
X9304714Y-16992429D01*
X9276143Y-17006714D01*
X9190428Y-17006714D01*
X9161857Y-16992429D01*
X9147571Y-16978143D01*
X9690428Y-17006714D02*
X9690428Y-16706714D01*
X9819000Y-17006714D02*
X9819000Y-16849572D01*
X9804714Y-16821000D01*
X9776143Y-16806714D01*
X9733286Y-16806714D01*
X9704714Y-16821000D01*
X9690428Y-16835286D01*
X10004714Y-17006714D02*
X9976143Y-16992429D01*
X9961857Y-16978143D01*
X9947571Y-16949572D01*
X9947571Y-16863857D01*
X9961857Y-16835286D01*
X9976143Y-16821000D01*
X10004714Y-16806714D01*
X10047571Y-16806714D01*
X10076143Y-16821000D01*
X10090428Y-16835286D01*
X10104714Y-16863857D01*
X10104714Y-16949572D01*
X10090428Y-16978143D01*
X10076143Y-16992429D01*
X10047571Y-17006714D01*
X10004714Y-17006714D01*
X10276143Y-17006714D02*
X10247571Y-16992429D01*
X10233286Y-16963857D01*
X10233286Y-16706714D01*
X10504714Y-16992429D02*
X10476143Y-17006714D01*
X10419000Y-17006714D01*
X10390428Y-16992429D01*
X10376143Y-16963857D01*
X10376143Y-16849572D01*
X10390428Y-16821000D01*
X10419000Y-16806714D01*
X10476143Y-16806714D01*
X10504714Y-16821000D01*
X10519000Y-16849572D01*
X10519000Y-16878143D01*
X10376143Y-16906714D01*
X10633286Y-16992429D02*
X10661857Y-17006714D01*
X10719000Y-17006714D01*
X10747571Y-16992429D01*
X10761857Y-16963857D01*
X10761857Y-16949572D01*
X10747571Y-16921000D01*
X10719000Y-16906714D01*
X10676143Y-16906714D01*
X10647571Y-16892429D01*
X10633286Y-16863857D01*
X10633286Y-16849572D01*
X10647571Y-16821000D01*
X10676143Y-16806714D01*
X10719000Y-16806714D01*
X10747571Y-16821000D01*
X10861857Y-17121000D02*
X10876143Y-17106714D01*
X10904714Y-17063857D01*
X10919000Y-17035286D01*
X10933286Y-16992429D01*
X10947571Y-16921000D01*
X10947571Y-16863857D01*
X10933286Y-16792429D01*
X10919000Y-16749571D01*
X10904714Y-16721000D01*
X10876143Y-16678143D01*
X10861857Y-16663857D01*
X3792284Y-17295285D02*
X3792284Y-17238716D01*
X3735715Y-17238716D01*
X3735715Y-17295285D01*
X3792284Y-17295285D01*
X4147571Y-17102714D02*
X4176143Y-17102714D01*
X4204714Y-17117000D01*
X4219000Y-17131286D01*
X4233286Y-17159857D01*
X4247571Y-17217000D01*
X4247571Y-17288429D01*
X4233286Y-17345572D01*
X4219000Y-17374143D01*
X4204714Y-17388429D01*
X4176143Y-17402714D01*
X4147571Y-17402714D01*
X4119000Y-17388429D01*
X4104714Y-17374143D01*
X4090428Y-17345572D01*
X4076143Y-17288429D01*
X4076143Y-17217000D01*
X4090428Y-17159857D01*
X4104714Y-17131286D01*
X4119000Y-17117000D01*
X4147571Y-17102714D01*
X4376143Y-17374143D02*
X4390428Y-17388429D01*
X4376143Y-17402714D01*
X4361857Y-17388429D01*
X4376143Y-17374143D01*
X4376143Y-17402714D01*
X4561857Y-17231286D02*
X4533286Y-17217000D01*
X4519000Y-17202714D01*
X4504714Y-17174143D01*
X4504714Y-17159857D01*
X4519000Y-17131286D01*
X4533286Y-17117000D01*
X4561857Y-17102714D01*
X4619000Y-17102714D01*
X4647571Y-17117000D01*
X4661857Y-17131286D01*
X4676143Y-17159857D01*
X4676143Y-17174143D01*
X4661857Y-17202714D01*
X4647571Y-17217000D01*
X4619000Y-17231286D01*
X4561857Y-17231286D01*
X4533286Y-17245572D01*
X4519000Y-17259857D01*
X4504714Y-17288429D01*
X4504714Y-17345572D01*
X4519000Y-17374143D01*
X4533286Y-17388429D01*
X4561857Y-17402714D01*
X4619000Y-17402714D01*
X4647571Y-17388429D01*
X4661857Y-17374143D01*
X4676143Y-17345572D01*
X4676143Y-17288429D01*
X4661857Y-17259857D01*
X4647571Y-17245572D01*
X4619000Y-17231286D01*
X4861857Y-17102714D02*
X4890428Y-17102714D01*
X4919000Y-17117000D01*
X4933286Y-17131286D01*
X4947571Y-17159857D01*
X4961857Y-17217000D01*
X4961857Y-17288429D01*
X4947571Y-17345572D01*
X4933286Y-17374143D01*
X4919000Y-17388429D01*
X4890428Y-17402714D01*
X4861857Y-17402714D01*
X4833286Y-17388429D01*
X4819000Y-17374143D01*
X4804714Y-17345572D01*
X4790428Y-17288429D01*
X4790428Y-17217000D01*
X4804714Y-17159857D01*
X4819000Y-17131286D01*
X4833286Y-17117000D01*
X4861857Y-17102714D01*
X5147571Y-17102714D02*
X5176143Y-17102714D01*
X5204714Y-17117000D01*
X5219000Y-17131286D01*
X5233286Y-17159857D01*
X5247571Y-17217000D01*
X5247571Y-17288429D01*
X5233286Y-17345572D01*
X5219000Y-17374143D01*
X5204714Y-17388429D01*
X5176143Y-17402714D01*
X5147571Y-17402714D01*
X5119000Y-17388429D01*
X5104714Y-17374143D01*
X5090428Y-17345572D01*
X5076143Y-17288429D01*
X5076143Y-17217000D01*
X5090428Y-17159857D01*
X5104714Y-17131286D01*
X5119000Y-17117000D01*
X5147571Y-17102714D01*
X5376143Y-17402714D02*
X5376143Y-17202714D01*
X5376143Y-17231286D02*
X5390428Y-17217000D01*
X5419000Y-17202714D01*
X5461857Y-17202714D01*
X5490428Y-17217000D01*
X5504714Y-17245572D01*
X5504714Y-17402714D01*
X5504714Y-17245572D02*
X5519000Y-17217000D01*
X5547571Y-17202714D01*
X5590428Y-17202714D01*
X5619000Y-17217000D01*
X5633286Y-17245572D01*
X5633286Y-17402714D01*
X5776143Y-17402714D02*
X5776143Y-17202714D01*
X5776143Y-17231286D02*
X5790428Y-17217000D01*
X5819000Y-17202714D01*
X5861857Y-17202714D01*
X5890428Y-17217000D01*
X5904714Y-17245572D01*
X5904714Y-17402714D01*
X5904714Y-17245572D02*
X5919000Y-17217000D01*
X5947571Y-17202714D01*
X5990428Y-17202714D01*
X6019000Y-17217000D01*
X6033286Y-17245572D01*
X6033286Y-17402714D01*
X6619000Y-17088429D02*
X6361857Y-17474143D01*
X7004714Y-17102714D02*
X7033286Y-17102714D01*
X7061857Y-17117000D01*
X7076143Y-17131286D01*
X7090428Y-17159857D01*
X7104714Y-17217000D01*
X7104714Y-17288429D01*
X7090428Y-17345572D01*
X7076143Y-17374143D01*
X7061857Y-17388429D01*
X7033286Y-17402714D01*
X7004714Y-17402714D01*
X6976143Y-17388429D01*
X6961857Y-17374143D01*
X6947571Y-17345572D01*
X6933286Y-17288429D01*
X6933286Y-17217000D01*
X6947571Y-17159857D01*
X6961857Y-17131286D01*
X6976143Y-17117000D01*
X7004714Y-17102714D01*
X7233286Y-17374143D02*
X7247571Y-17388429D01*
X7233286Y-17402714D01*
X7219000Y-17388429D01*
X7233286Y-17374143D01*
X7233286Y-17402714D01*
X7433286Y-17102714D02*
X7461857Y-17102714D01*
X7490428Y-17117000D01*
X7504714Y-17131286D01*
X7519000Y-17159857D01*
X7533286Y-17217000D01*
X7533286Y-17288429D01*
X7519000Y-17345572D01*
X7504714Y-17374143D01*
X7490428Y-17388429D01*
X7461857Y-17402714D01*
X7433286Y-17402714D01*
X7404714Y-17388429D01*
X7390428Y-17374143D01*
X7376143Y-17345572D01*
X7361857Y-17288429D01*
X7361857Y-17217000D01*
X7376143Y-17159857D01*
X7390428Y-17131286D01*
X7404714Y-17117000D01*
X7433286Y-17102714D01*
X7633286Y-17102714D02*
X7819000Y-17102714D01*
X7719000Y-17217000D01*
X7761857Y-17217000D01*
X7790428Y-17231286D01*
X7804714Y-17245572D01*
X7819000Y-17274143D01*
X7819000Y-17345572D01*
X7804714Y-17374143D01*
X7790428Y-17388429D01*
X7761857Y-17402714D01*
X7676143Y-17402714D01*
X7647571Y-17388429D01*
X7633286Y-17374143D01*
X8104714Y-17402714D02*
X7933286Y-17402714D01*
X8019000Y-17402714D02*
X8019000Y-17102714D01*
X7990428Y-17145572D01*
X7961857Y-17174143D01*
X7933286Y-17188429D01*
X8376143Y-17102714D02*
X8233286Y-17102714D01*
X8219000Y-17245572D01*
X8233286Y-17231286D01*
X8261857Y-17217000D01*
X8333286Y-17217000D01*
X8361857Y-17231286D01*
X8376143Y-17245572D01*
X8390428Y-17274143D01*
X8390428Y-17345572D01*
X8376143Y-17374143D01*
X8361857Y-17388429D01*
X8333286Y-17402714D01*
X8261857Y-17402714D01*
X8233286Y-17388429D01*
X8219000Y-17374143D01*
X8504714Y-17102714D02*
X8504714Y-17159857D01*
X8619000Y-17102714D02*
X8619000Y-17159857D01*
X9061857Y-17517000D02*
X9047571Y-17502714D01*
X9019000Y-17459857D01*
X9004714Y-17431286D01*
X8990428Y-17388429D01*
X8976143Y-17317000D01*
X8976143Y-17259857D01*
X8990428Y-17188429D01*
X9004714Y-17145572D01*
X9019000Y-17117000D01*
X9047571Y-17074143D01*
X9061857Y-17059857D01*
X9333286Y-17402714D02*
X9161857Y-17402714D01*
X9247571Y-17402714D02*
X9247571Y-17102714D01*
X9219000Y-17145572D01*
X9190428Y-17174143D01*
X9161857Y-17188429D01*
X9590428Y-17202714D02*
X9590428Y-17402714D01*
X9519000Y-17088429D02*
X9447571Y-17302714D01*
X9633286Y-17302714D01*
X9876143Y-17102714D02*
X9819000Y-17102714D01*
X9790428Y-17117000D01*
X9776143Y-17131286D01*
X9747571Y-17174143D01*
X9733286Y-17231286D01*
X9733286Y-17345572D01*
X9747571Y-17374143D01*
X9761857Y-17388429D01*
X9790428Y-17402714D01*
X9847571Y-17402714D01*
X9876143Y-17388429D01*
X9890428Y-17374143D01*
X9904714Y-17345572D01*
X9904714Y-17274143D01*
X9890428Y-17245572D01*
X9876143Y-17231286D01*
X9847571Y-17217000D01*
X9790428Y-17217000D01*
X9761857Y-17231286D01*
X9747571Y-17245572D01*
X9733286Y-17274143D01*
X10261857Y-17402714D02*
X10261857Y-17102714D01*
X10390428Y-17402714D02*
X10390428Y-17245572D01*
X10376143Y-17217000D01*
X10347571Y-17202714D01*
X10304714Y-17202714D01*
X10276143Y-17217000D01*
X10261857Y-17231286D01*
X10576143Y-17402714D02*
X10547571Y-17388429D01*
X10533286Y-17374143D01*
X10519000Y-17345572D01*
X10519000Y-17259857D01*
X10533286Y-17231286D01*
X10547571Y-17217000D01*
X10576143Y-17202714D01*
X10619000Y-17202714D01*
X10647571Y-17217000D01*
X10661857Y-17231286D01*
X10676143Y-17259857D01*
X10676143Y-17345572D01*
X10661857Y-17374143D01*
X10647571Y-17388429D01*
X10619000Y-17402714D01*
X10576143Y-17402714D01*
X10847571Y-17402714D02*
X10819000Y-17388429D01*
X10804714Y-17359857D01*
X10804714Y-17102714D01*
X11076143Y-17388429D02*
X11047571Y-17402714D01*
X10990428Y-17402714D01*
X10961857Y-17388429D01*
X10947571Y-17359857D01*
X10947571Y-17245572D01*
X10961857Y-17217000D01*
X10990428Y-17202714D01*
X11047571Y-17202714D01*
X11076143Y-17217000D01*
X11090428Y-17245572D01*
X11090428Y-17274143D01*
X10947571Y-17302714D01*
X11204714Y-17388429D02*
X11233286Y-17402714D01*
X11290428Y-17402714D01*
X11319000Y-17388429D01*
X11333286Y-17359857D01*
X11333286Y-17345572D01*
X11319000Y-17317000D01*
X11290428Y-17302714D01*
X11247571Y-17302714D01*
X11219000Y-17288429D01*
X11204714Y-17259857D01*
X11204714Y-17245572D01*
X11219000Y-17217000D01*
X11247571Y-17202714D01*
X11290428Y-17202714D01*
X11319000Y-17217000D01*
X11433286Y-17517000D02*
X11447571Y-17502714D01*
X11476143Y-17459857D01*
X11490428Y-17431286D01*
X11504714Y-17388429D01*
X11519000Y-17317000D01*
X11519000Y-17259857D01*
X11504714Y-17188429D01*
X11490428Y-17145572D01*
X11476143Y-17117000D01*
X11447571Y-17074143D01*
X11433286Y-17059857D01*
X3759000Y-17708000D02*
X3804000Y-17663000D01*
X3759000Y-17618000D01*
X3714000Y-17663000D01*
X3759000Y-17708000D01*
X4147571Y-17498714D02*
X4176143Y-17498714D01*
X4204714Y-17513000D01*
X4219000Y-17527286D01*
X4233286Y-17555857D01*
X4247571Y-17613000D01*
X4247571Y-17684429D01*
X4233286Y-17741572D01*
X4219000Y-17770143D01*
X4204714Y-17784429D01*
X4176143Y-17798714D01*
X4147571Y-17798714D01*
X4119000Y-17784429D01*
X4104714Y-17770143D01*
X4090428Y-17741572D01*
X4076143Y-17684429D01*
X4076143Y-17613000D01*
X4090428Y-17555857D01*
X4104714Y-17527286D01*
X4119000Y-17513000D01*
X4147571Y-17498714D01*
X4376143Y-17770143D02*
X4390428Y-17784429D01*
X4376143Y-17798714D01*
X4361857Y-17784429D01*
X4376143Y-17770143D01*
X4376143Y-17798714D01*
X4533286Y-17798714D02*
X4590428Y-17798714D01*
X4619000Y-17784429D01*
X4633286Y-17770143D01*
X4661857Y-17727286D01*
X4676143Y-17670143D01*
X4676143Y-17555857D01*
X4661857Y-17527286D01*
X4647571Y-17513000D01*
X4619000Y-17498714D01*
X4561857Y-17498714D01*
X4533286Y-17513000D01*
X4519000Y-17527286D01*
X4504714Y-17555857D01*
X4504714Y-17627286D01*
X4519000Y-17655857D01*
X4533286Y-17670143D01*
X4561857Y-17684429D01*
X4619000Y-17684429D01*
X4647571Y-17670143D01*
X4661857Y-17655857D01*
X4676143Y-17627286D01*
X4861857Y-17498714D02*
X4890428Y-17498714D01*
X4919000Y-17513000D01*
X4933286Y-17527286D01*
X4947571Y-17555857D01*
X4961857Y-17613000D01*
X4961857Y-17684429D01*
X4947571Y-17741572D01*
X4933286Y-17770143D01*
X4919000Y-17784429D01*
X4890428Y-17798714D01*
X4861857Y-17798714D01*
X4833286Y-17784429D01*
X4819000Y-17770143D01*
X4804714Y-17741572D01*
X4790428Y-17684429D01*
X4790428Y-17613000D01*
X4804714Y-17555857D01*
X4819000Y-17527286D01*
X4833286Y-17513000D01*
X4861857Y-17498714D01*
X5147571Y-17498714D02*
X5176143Y-17498714D01*
X5204714Y-17513000D01*
X5219000Y-17527286D01*
X5233286Y-17555857D01*
X5247571Y-17613000D01*
X5247571Y-17684429D01*
X5233286Y-17741572D01*
X5219000Y-17770143D01*
X5204714Y-17784429D01*
X5176143Y-17798714D01*
X5147571Y-17798714D01*
X5119000Y-17784429D01*
X5104714Y-17770143D01*
X5090428Y-17741572D01*
X5076143Y-17684429D01*
X5076143Y-17613000D01*
X5090428Y-17555857D01*
X5104714Y-17527286D01*
X5119000Y-17513000D01*
X5147571Y-17498714D01*
X5376143Y-17798714D02*
X5376143Y-17598714D01*
X5376143Y-17627286D02*
X5390428Y-17613000D01*
X5419000Y-17598714D01*
X5461857Y-17598714D01*
X5490428Y-17613000D01*
X5504714Y-17641572D01*
X5504714Y-17798714D01*
X5504714Y-17641572D02*
X5519000Y-17613000D01*
X5547571Y-17598714D01*
X5590428Y-17598714D01*
X5619000Y-17613000D01*
X5633286Y-17641572D01*
X5633286Y-17798714D01*
X5776143Y-17798714D02*
X5776143Y-17598714D01*
X5776143Y-17627286D02*
X5790428Y-17613000D01*
X5819000Y-17598714D01*
X5861857Y-17598714D01*
X5890428Y-17613000D01*
X5904714Y-17641572D01*
X5904714Y-17798714D01*
X5904714Y-17641572D02*
X5919000Y-17613000D01*
X5947571Y-17598714D01*
X5990428Y-17598714D01*
X6019000Y-17613000D01*
X6033286Y-17641572D01*
X6033286Y-17798714D01*
X6619000Y-17484429D02*
X6361857Y-17870143D01*
X7004714Y-17498714D02*
X7033286Y-17498714D01*
X7061857Y-17513000D01*
X7076143Y-17527286D01*
X7090428Y-17555857D01*
X7104714Y-17613000D01*
X7104714Y-17684429D01*
X7090428Y-17741572D01*
X7076143Y-17770143D01*
X7061857Y-17784429D01*
X7033286Y-17798714D01*
X7004714Y-17798714D01*
X6976143Y-17784429D01*
X6961857Y-17770143D01*
X6947571Y-17741572D01*
X6933286Y-17684429D01*
X6933286Y-17613000D01*
X6947571Y-17555857D01*
X6961857Y-17527286D01*
X6976143Y-17513000D01*
X7004714Y-17498714D01*
X7233286Y-17770143D02*
X7247571Y-17784429D01*
X7233286Y-17798714D01*
X7219000Y-17784429D01*
X7233286Y-17770143D01*
X7233286Y-17798714D01*
X7433286Y-17498714D02*
X7461857Y-17498714D01*
X7490428Y-17513000D01*
X7504714Y-17527286D01*
X7519000Y-17555857D01*
X7533286Y-17613000D01*
X7533286Y-17684429D01*
X7519000Y-17741572D01*
X7504714Y-17770143D01*
X7490428Y-17784429D01*
X7461857Y-17798714D01*
X7433286Y-17798714D01*
X7404714Y-17784429D01*
X7390428Y-17770143D01*
X7376143Y-17741572D01*
X7361857Y-17684429D01*
X7361857Y-17613000D01*
X7376143Y-17555857D01*
X7390428Y-17527286D01*
X7404714Y-17513000D01*
X7433286Y-17498714D01*
X7633286Y-17498714D02*
X7819000Y-17498714D01*
X7719000Y-17613000D01*
X7761857Y-17613000D01*
X7790428Y-17627286D01*
X7804714Y-17641572D01*
X7819000Y-17670143D01*
X7819000Y-17741572D01*
X7804714Y-17770143D01*
X7790428Y-17784429D01*
X7761857Y-17798714D01*
X7676143Y-17798714D01*
X7647571Y-17784429D01*
X7633286Y-17770143D01*
X8090428Y-17498714D02*
X7947571Y-17498714D01*
X7933286Y-17641572D01*
X7947571Y-17627286D01*
X7976143Y-17613000D01*
X8047571Y-17613000D01*
X8076143Y-17627286D01*
X8090428Y-17641572D01*
X8104714Y-17670143D01*
X8104714Y-17741572D01*
X8090428Y-17770143D01*
X8076143Y-17784429D01*
X8047571Y-17798714D01*
X7976143Y-17798714D01*
X7947571Y-17784429D01*
X7933286Y-17770143D01*
X8361857Y-17598714D02*
X8361857Y-17798714D01*
X8290428Y-17484429D02*
X8219000Y-17698714D01*
X8404714Y-17698714D01*
X8504714Y-17498714D02*
X8504714Y-17555857D01*
X8619000Y-17498714D02*
X8619000Y-17555857D01*
X9061857Y-17913000D02*
X9047571Y-17898714D01*
X9019000Y-17855857D01*
X9004714Y-17827286D01*
X8990428Y-17784429D01*
X8976143Y-17713000D01*
X8976143Y-17655857D01*
X8990428Y-17584429D01*
X9004714Y-17541572D01*
X9019000Y-17513000D01*
X9047571Y-17470143D01*
X9061857Y-17455857D01*
X9161857Y-17527286D02*
X9176143Y-17513000D01*
X9204714Y-17498714D01*
X9276143Y-17498714D01*
X9304714Y-17513000D01*
X9319000Y-17527286D01*
X9333286Y-17555857D01*
X9333286Y-17584429D01*
X9319000Y-17627286D01*
X9147571Y-17798714D01*
X9333286Y-17798714D01*
X9690428Y-17798714D02*
X9690428Y-17498714D01*
X9819000Y-17798714D02*
X9819000Y-17641572D01*
X9804714Y-17613000D01*
X9776143Y-17598714D01*
X9733286Y-17598714D01*
X9704714Y-17613000D01*
X9690428Y-17627286D01*
X10004714Y-17798714D02*
X9976143Y-17784429D01*
X9961857Y-17770143D01*
X9947571Y-17741572D01*
X9947571Y-17655857D01*
X9961857Y-17627286D01*
X9976143Y-17613000D01*
X10004714Y-17598714D01*
X10047571Y-17598714D01*
X10076143Y-17613000D01*
X10090428Y-17627286D01*
X10104714Y-17655857D01*
X10104714Y-17741572D01*
X10090428Y-17770143D01*
X10076143Y-17784429D01*
X10047571Y-17798714D01*
X10004714Y-17798714D01*
X10276143Y-17798714D02*
X10247571Y-17784429D01*
X10233286Y-17755857D01*
X10233286Y-17498714D01*
X10504714Y-17784429D02*
X10476143Y-17798714D01*
X10419000Y-17798714D01*
X10390428Y-17784429D01*
X10376143Y-17755857D01*
X10376143Y-17641572D01*
X10390428Y-17613000D01*
X10419000Y-17598714D01*
X10476143Y-17598714D01*
X10504714Y-17613000D01*
X10519000Y-17641572D01*
X10519000Y-17670143D01*
X10376143Y-17698714D01*
X10633286Y-17784429D02*
X10661857Y-17798714D01*
X10719000Y-17798714D01*
X10747571Y-17784429D01*
X10761857Y-17755857D01*
X10761857Y-17741572D01*
X10747571Y-17713000D01*
X10719000Y-17698714D01*
X10676143Y-17698714D01*
X10647571Y-17684429D01*
X10633286Y-17655857D01*
X10633286Y-17641572D01*
X10647571Y-17613000D01*
X10676143Y-17598714D01*
X10719000Y-17598714D01*
X10747571Y-17613000D01*
X10861857Y-17913000D02*
X10876143Y-17898714D01*
X10904714Y-17855857D01*
X10919000Y-17827286D01*
X10933286Y-17784429D01*
X10947571Y-17713000D01*
X10947571Y-17655857D01*
X10933286Y-17584429D01*
X10919000Y-17541572D01*
X10904714Y-17513000D01*
X10876143Y-17470143D01*
X10861857Y-17455857D01*
X3704000Y-18009000D02*
X3804000Y-18109000D01*
X3804000Y-18009000D02*
X3704000Y-18109000D01*
X3804000Y-18059000D02*
G75*
G03*
X3804000Y-18059000I-50000J0D01*
G01*
X4247571Y-18194714D02*
X4076143Y-18194714D01*
X4161857Y-18194714D02*
X4161857Y-17894714D01*
X4133286Y-17937572D01*
X4104714Y-17966143D01*
X4076143Y-17980429D01*
X4376143Y-18166143D02*
X4390428Y-18180429D01*
X4376143Y-18194714D01*
X4361857Y-18180429D01*
X4376143Y-18166143D01*
X4376143Y-18194714D01*
X4576143Y-17894714D02*
X4604714Y-17894714D01*
X4633286Y-17909000D01*
X4647571Y-17923286D01*
X4661857Y-17951857D01*
X4676143Y-18009000D01*
X4676143Y-18080429D01*
X4661857Y-18137572D01*
X4647571Y-18166143D01*
X4633286Y-18180429D01*
X4604714Y-18194714D01*
X4576143Y-18194714D01*
X4547571Y-18180429D01*
X4533286Y-18166143D01*
X4519000Y-18137572D01*
X4504714Y-18080429D01*
X4504714Y-18009000D01*
X4519000Y-17951857D01*
X4533286Y-17923286D01*
X4547571Y-17909000D01*
X4576143Y-17894714D01*
X4861857Y-17894714D02*
X4890428Y-17894714D01*
X4919000Y-17909000D01*
X4933286Y-17923286D01*
X4947571Y-17951857D01*
X4961857Y-18009000D01*
X4961857Y-18080429D01*
X4947571Y-18137572D01*
X4933286Y-18166143D01*
X4919000Y-18180429D01*
X4890428Y-18194714D01*
X4861857Y-18194714D01*
X4833286Y-18180429D01*
X4819000Y-18166143D01*
X4804714Y-18137572D01*
X4790428Y-18080429D01*
X4790428Y-18009000D01*
X4804714Y-17951857D01*
X4819000Y-17923286D01*
X4833286Y-17909000D01*
X4861857Y-17894714D01*
X5147571Y-17894714D02*
X5176143Y-17894714D01*
X5204714Y-17909000D01*
X5219000Y-17923286D01*
X5233286Y-17951857D01*
X5247571Y-18009000D01*
X5247571Y-18080429D01*
X5233286Y-18137572D01*
X5219000Y-18166143D01*
X5204714Y-18180429D01*
X5176143Y-18194714D01*
X5147571Y-18194714D01*
X5119000Y-18180429D01*
X5104714Y-18166143D01*
X5090428Y-18137572D01*
X5076143Y-18080429D01*
X5076143Y-18009000D01*
X5090428Y-17951857D01*
X5104714Y-17923286D01*
X5119000Y-17909000D01*
X5147571Y-17894714D01*
X5376143Y-18194714D02*
X5376143Y-17994714D01*
X5376143Y-18023286D02*
X5390428Y-18009000D01*
X5419000Y-17994714D01*
X5461857Y-17994714D01*
X5490428Y-18009000D01*
X5504714Y-18037572D01*
X5504714Y-18194714D01*
X5504714Y-18037572D02*
X5519000Y-18009000D01*
X5547571Y-17994714D01*
X5590428Y-17994714D01*
X5619000Y-18009000D01*
X5633286Y-18037572D01*
X5633286Y-18194714D01*
X5776143Y-18194714D02*
X5776143Y-17994714D01*
X5776143Y-18023286D02*
X5790428Y-18009000D01*
X5819000Y-17994714D01*
X5861857Y-17994714D01*
X5890428Y-18009000D01*
X5904714Y-18037572D01*
X5904714Y-18194714D01*
X5904714Y-18037572D02*
X5919000Y-18009000D01*
X5947571Y-17994714D01*
X5990428Y-17994714D01*
X6019000Y-18009000D01*
X6033286Y-18037572D01*
X6033286Y-18194714D01*
X6619000Y-17880429D02*
X6361857Y-18266143D01*
X7004714Y-17894714D02*
X7033286Y-17894714D01*
X7061857Y-17909000D01*
X7076143Y-17923286D01*
X7090428Y-17951857D01*
X7104714Y-18009000D01*
X7104714Y-18080429D01*
X7090428Y-18137572D01*
X7076143Y-18166143D01*
X7061857Y-18180429D01*
X7033286Y-18194714D01*
X7004714Y-18194714D01*
X6976143Y-18180429D01*
X6961857Y-18166143D01*
X6947571Y-18137572D01*
X6933286Y-18080429D01*
X6933286Y-18009000D01*
X6947571Y-17951857D01*
X6961857Y-17923286D01*
X6976143Y-17909000D01*
X7004714Y-17894714D01*
X7233286Y-18166143D02*
X7247571Y-18180429D01*
X7233286Y-18194714D01*
X7219000Y-18180429D01*
X7233286Y-18166143D01*
X7233286Y-18194714D01*
X7433286Y-17894714D02*
X7461857Y-17894714D01*
X7490428Y-17909000D01*
X7504714Y-17923286D01*
X7519000Y-17951857D01*
X7533286Y-18009000D01*
X7533286Y-18080429D01*
X7519000Y-18137572D01*
X7504714Y-18166143D01*
X7490428Y-18180429D01*
X7461857Y-18194714D01*
X7433286Y-18194714D01*
X7404714Y-18180429D01*
X7390428Y-18166143D01*
X7376143Y-18137572D01*
X7361857Y-18080429D01*
X7361857Y-18009000D01*
X7376143Y-17951857D01*
X7390428Y-17923286D01*
X7404714Y-17909000D01*
X7433286Y-17894714D01*
X7633286Y-17894714D02*
X7819000Y-17894714D01*
X7719000Y-18009000D01*
X7761857Y-18009000D01*
X7790428Y-18023286D01*
X7804714Y-18037572D01*
X7819000Y-18066143D01*
X7819000Y-18137572D01*
X7804714Y-18166143D01*
X7790428Y-18180429D01*
X7761857Y-18194714D01*
X7676143Y-18194714D01*
X7647571Y-18180429D01*
X7633286Y-18166143D01*
X7961857Y-18194714D02*
X8019000Y-18194714D01*
X8047571Y-18180429D01*
X8061857Y-18166143D01*
X8090428Y-18123286D01*
X8104714Y-18066143D01*
X8104714Y-17951857D01*
X8090428Y-17923286D01*
X8076143Y-17909000D01*
X8047571Y-17894714D01*
X7990428Y-17894714D01*
X7961857Y-17909000D01*
X7947571Y-17923286D01*
X7933286Y-17951857D01*
X7933286Y-18023286D01*
X7947571Y-18051857D01*
X7961857Y-18066143D01*
X7990428Y-18080429D01*
X8047571Y-18080429D01*
X8076143Y-18066143D01*
X8090428Y-18051857D01*
X8104714Y-18023286D01*
X8361857Y-17994714D02*
X8361857Y-18194714D01*
X8290428Y-17880429D02*
X8219000Y-18094714D01*
X8404714Y-18094714D01*
X8504714Y-17894714D02*
X8504714Y-17951857D01*
X8619000Y-17894714D02*
X8619000Y-17951857D01*
X9061857Y-18309000D02*
X9047571Y-18294714D01*
X9019000Y-18251857D01*
X9004714Y-18223286D01*
X8990428Y-18180429D01*
X8976143Y-18109000D01*
X8976143Y-18051857D01*
X8990428Y-17980429D01*
X9004714Y-17937572D01*
X9019000Y-17909000D01*
X9047571Y-17866143D01*
X9061857Y-17851857D01*
X9333286Y-18194714D02*
X9161857Y-18194714D01*
X9247571Y-18194714D02*
X9247571Y-17894714D01*
X9219000Y-17937572D01*
X9190428Y-17966143D01*
X9161857Y-17980429D01*
X9504714Y-18023286D02*
X9476143Y-18009000D01*
X9461857Y-17994714D01*
X9447571Y-17966143D01*
X9447571Y-17951857D01*
X9461857Y-17923286D01*
X9476143Y-17909000D01*
X9504714Y-17894714D01*
X9561857Y-17894714D01*
X9590428Y-17909000D01*
X9604714Y-17923286D01*
X9619000Y-17951857D01*
X9619000Y-17966143D01*
X9604714Y-17994714D01*
X9590428Y-18009000D01*
X9561857Y-18023286D01*
X9504714Y-18023286D01*
X9476143Y-18037572D01*
X9461857Y-18051857D01*
X9447571Y-18080429D01*
X9447571Y-18137572D01*
X9461857Y-18166143D01*
X9476143Y-18180429D01*
X9504714Y-18194714D01*
X9561857Y-18194714D01*
X9590428Y-18180429D01*
X9604714Y-18166143D01*
X9619000Y-18137572D01*
X9619000Y-18080429D01*
X9604714Y-18051857D01*
X9590428Y-18037572D01*
X9561857Y-18023286D01*
X9719000Y-17894714D02*
X9904714Y-17894714D01*
X9804714Y-18009000D01*
X9847571Y-18009000D01*
X9876143Y-18023286D01*
X9890428Y-18037572D01*
X9904714Y-18066143D01*
X9904714Y-18137572D01*
X9890428Y-18166143D01*
X9876143Y-18180429D01*
X9847571Y-18194714D01*
X9761857Y-18194714D01*
X9733286Y-18180429D01*
X9719000Y-18166143D01*
X10261857Y-18194714D02*
X10261857Y-17894714D01*
X10390428Y-18194714D02*
X10390428Y-18037572D01*
X10376143Y-18009000D01*
X10347571Y-17994714D01*
X10304714Y-17994714D01*
X10276143Y-18009000D01*
X10261857Y-18023286D01*
X10576143Y-18194714D02*
X10547571Y-18180429D01*
X10533286Y-18166143D01*
X10519000Y-18137572D01*
X10519000Y-18051857D01*
X10533286Y-18023286D01*
X10547571Y-18009000D01*
X10576143Y-17994714D01*
X10619000Y-17994714D01*
X10647571Y-18009000D01*
X10661857Y-18023286D01*
X10676143Y-18051857D01*
X10676143Y-18137572D01*
X10661857Y-18166143D01*
X10647571Y-18180429D01*
X10619000Y-18194714D01*
X10576143Y-18194714D01*
X10847571Y-18194714D02*
X10819000Y-18180429D01*
X10804714Y-18151857D01*
X10804714Y-17894714D01*
X11076143Y-18180429D02*
X11047571Y-18194714D01*
X10990428Y-18194714D01*
X10961857Y-18180429D01*
X10947571Y-18151857D01*
X10947571Y-18037572D01*
X10961857Y-18009000D01*
X10990428Y-17994714D01*
X11047571Y-17994714D01*
X11076143Y-18009000D01*
X11090428Y-18037572D01*
X11090428Y-18066143D01*
X10947571Y-18094714D01*
X11204714Y-18180429D02*
X11233286Y-18194714D01*
X11290428Y-18194714D01*
X11319000Y-18180429D01*
X11333286Y-18151857D01*
X11333286Y-18137572D01*
X11319000Y-18109000D01*
X11290428Y-18094714D01*
X11247571Y-18094714D01*
X11219000Y-18080429D01*
X11204714Y-18051857D01*
X11204714Y-18037572D01*
X11219000Y-18009000D01*
X11247571Y-17994714D01*
X11290428Y-17994714D01*
X11319000Y-18009000D01*
X11433286Y-18309000D02*
X11447571Y-18294714D01*
X11476143Y-18251857D01*
X11490428Y-18223286D01*
X11504714Y-18180429D01*
X11519000Y-18109000D01*
X11519000Y-18051857D01*
X11504714Y-17980429D01*
X11490428Y-17937572D01*
X11476143Y-17909000D01*
X11447571Y-17866143D01*
X11433286Y-17851857D01*
X3694000Y-18400000D02*
X3804000Y-18510000D01*
X3804000Y-18400000D02*
X3694000Y-18510000D01*
X3749000Y-18400000D02*
X3749000Y-18510000D01*
X3694000Y-18455000D02*
X3804000Y-18455000D01*
X4247571Y-18590714D02*
X4076143Y-18590714D01*
X4161857Y-18590714D02*
X4161857Y-18290714D01*
X4133286Y-18333572D01*
X4104714Y-18362143D01*
X4076143Y-18376429D01*
X4376143Y-18562143D02*
X4390428Y-18576429D01*
X4376143Y-18590714D01*
X4361857Y-18576429D01*
X4376143Y-18562143D01*
X4376143Y-18590714D01*
X4676143Y-18590714D02*
X4504714Y-18590714D01*
X4590428Y-18590714D02*
X4590428Y-18290714D01*
X4561857Y-18333572D01*
X4533286Y-18362143D01*
X4504714Y-18376429D01*
X4861857Y-18290714D02*
X4890428Y-18290714D01*
X4919000Y-18305000D01*
X4933286Y-18319286D01*
X4947571Y-18347857D01*
X4961857Y-18405000D01*
X4961857Y-18476429D01*
X4947571Y-18533572D01*
X4933286Y-18562143D01*
X4919000Y-18576429D01*
X4890428Y-18590714D01*
X4861857Y-18590714D01*
X4833286Y-18576429D01*
X4819000Y-18562143D01*
X4804714Y-18533572D01*
X4790428Y-18476429D01*
X4790428Y-18405000D01*
X4804714Y-18347857D01*
X4819000Y-18319286D01*
X4833286Y-18305000D01*
X4861857Y-18290714D01*
X5147571Y-18290714D02*
X5176143Y-18290714D01*
X5204714Y-18305000D01*
X5219000Y-18319286D01*
X5233286Y-18347857D01*
X5247571Y-18405000D01*
X5247571Y-18476429D01*
X5233286Y-18533572D01*
X5219000Y-18562143D01*
X5204714Y-18576429D01*
X5176143Y-18590714D01*
X5147571Y-18590714D01*
X5119000Y-18576429D01*
X5104714Y-18562143D01*
X5090428Y-18533572D01*
X5076143Y-18476429D01*
X5076143Y-18405000D01*
X5090428Y-18347857D01*
X5104714Y-18319286D01*
X5119000Y-18305000D01*
X5147571Y-18290714D01*
X5376143Y-18590714D02*
X5376143Y-18390714D01*
X5376143Y-18419286D02*
X5390428Y-18405000D01*
X5419000Y-18390714D01*
X5461857Y-18390714D01*
X5490428Y-18405000D01*
X5504714Y-18433572D01*
X5504714Y-18590714D01*
X5504714Y-18433572D02*
X5519000Y-18405000D01*
X5547571Y-18390714D01*
X5590428Y-18390714D01*
X5619000Y-18405000D01*
X5633286Y-18433572D01*
X5633286Y-18590714D01*
X5776143Y-18590714D02*
X5776143Y-18390714D01*
X5776143Y-18419286D02*
X5790428Y-18405000D01*
X5819000Y-18390714D01*
X5861857Y-18390714D01*
X5890428Y-18405000D01*
X5904714Y-18433572D01*
X5904714Y-18590714D01*
X5904714Y-18433572D02*
X5919000Y-18405000D01*
X5947571Y-18390714D01*
X5990428Y-18390714D01*
X6019000Y-18405000D01*
X6033286Y-18433572D01*
X6033286Y-18590714D01*
X6619000Y-18276429D02*
X6361857Y-18662143D01*
X7004714Y-18290714D02*
X7033286Y-18290714D01*
X7061857Y-18305000D01*
X7076143Y-18319286D01*
X7090428Y-18347857D01*
X7104714Y-18405000D01*
X7104714Y-18476429D01*
X7090428Y-18533572D01*
X7076143Y-18562143D01*
X7061857Y-18576429D01*
X7033286Y-18590714D01*
X7004714Y-18590714D01*
X6976143Y-18576429D01*
X6961857Y-18562143D01*
X6947571Y-18533572D01*
X6933286Y-18476429D01*
X6933286Y-18405000D01*
X6947571Y-18347857D01*
X6961857Y-18319286D01*
X6976143Y-18305000D01*
X7004714Y-18290714D01*
X7233286Y-18562143D02*
X7247571Y-18576429D01*
X7233286Y-18590714D01*
X7219000Y-18576429D01*
X7233286Y-18562143D01*
X7233286Y-18590714D01*
X7433286Y-18290714D02*
X7461857Y-18290714D01*
X7490428Y-18305000D01*
X7504714Y-18319286D01*
X7519000Y-18347857D01*
X7533286Y-18405000D01*
X7533286Y-18476429D01*
X7519000Y-18533572D01*
X7504714Y-18562143D01*
X7490428Y-18576429D01*
X7461857Y-18590714D01*
X7433286Y-18590714D01*
X7404714Y-18576429D01*
X7390428Y-18562143D01*
X7376143Y-18533572D01*
X7361857Y-18476429D01*
X7361857Y-18405000D01*
X7376143Y-18347857D01*
X7390428Y-18319286D01*
X7404714Y-18305000D01*
X7433286Y-18290714D01*
X7790428Y-18390714D02*
X7790428Y-18590714D01*
X7719000Y-18276429D02*
X7647571Y-18490714D01*
X7833286Y-18490714D01*
X7919000Y-18290714D02*
X8104714Y-18290714D01*
X8004714Y-18405000D01*
X8047571Y-18405000D01*
X8076143Y-18419286D01*
X8090428Y-18433572D01*
X8104714Y-18462143D01*
X8104714Y-18533572D01*
X8090428Y-18562143D01*
X8076143Y-18576429D01*
X8047571Y-18590714D01*
X7961857Y-18590714D01*
X7933286Y-18576429D01*
X7919000Y-18562143D01*
X8204714Y-18290714D02*
X8390428Y-18290714D01*
X8290428Y-18405000D01*
X8333286Y-18405000D01*
X8361857Y-18419286D01*
X8376143Y-18433572D01*
X8390428Y-18462143D01*
X8390428Y-18533572D01*
X8376143Y-18562143D01*
X8361857Y-18576429D01*
X8333286Y-18590714D01*
X8247571Y-18590714D01*
X8219000Y-18576429D01*
X8204714Y-18562143D01*
X8504714Y-18290714D02*
X8504714Y-18347857D01*
X8619000Y-18290714D02*
X8619000Y-18347857D01*
X9061857Y-18705000D02*
X9047571Y-18690714D01*
X9019000Y-18647857D01*
X9004714Y-18619286D01*
X8990428Y-18576429D01*
X8976143Y-18505000D01*
X8976143Y-18447857D01*
X8990428Y-18376429D01*
X9004714Y-18333572D01*
X9019000Y-18305000D01*
X9047571Y-18262143D01*
X9061857Y-18247857D01*
X9219000Y-18419286D02*
X9190428Y-18405000D01*
X9176143Y-18390714D01*
X9161857Y-18362143D01*
X9161857Y-18347857D01*
X9176143Y-18319286D01*
X9190428Y-18305000D01*
X9219000Y-18290714D01*
X9276143Y-18290714D01*
X9304714Y-18305000D01*
X9319000Y-18319286D01*
X9333286Y-18347857D01*
X9333286Y-18362143D01*
X9319000Y-18390714D01*
X9304714Y-18405000D01*
X9276143Y-18419286D01*
X9219000Y-18419286D01*
X9190428Y-18433572D01*
X9176143Y-18447857D01*
X9161857Y-18476429D01*
X9161857Y-18533572D01*
X9176143Y-18562143D01*
X9190428Y-18576429D01*
X9219000Y-18590714D01*
X9276143Y-18590714D01*
X9304714Y-18576429D01*
X9319000Y-18562143D01*
X9333286Y-18533572D01*
X9333286Y-18476429D01*
X9319000Y-18447857D01*
X9304714Y-18433572D01*
X9276143Y-18419286D01*
X9690428Y-18590714D02*
X9690428Y-18290714D01*
X9819000Y-18590714D02*
X9819000Y-18433572D01*
X9804714Y-18405000D01*
X9776143Y-18390714D01*
X9733286Y-18390714D01*
X9704714Y-18405000D01*
X9690428Y-18419286D01*
X10004714Y-18590714D02*
X9976143Y-18576429D01*
X9961857Y-18562143D01*
X9947571Y-18533572D01*
X9947571Y-18447857D01*
X9961857Y-18419286D01*
X9976143Y-18405000D01*
X10004714Y-18390714D01*
X10047571Y-18390714D01*
X10076143Y-18405000D01*
X10090428Y-18419286D01*
X10104714Y-18447857D01*
X10104714Y-18533572D01*
X10090428Y-18562143D01*
X10076143Y-18576429D01*
X10047571Y-18590714D01*
X10004714Y-18590714D01*
X10276143Y-18590714D02*
X10247571Y-18576429D01*
X10233286Y-18547857D01*
X10233286Y-18290714D01*
X10504714Y-18576429D02*
X10476143Y-18590714D01*
X10419000Y-18590714D01*
X10390428Y-18576429D01*
X10376143Y-18547857D01*
X10376143Y-18433572D01*
X10390428Y-18405000D01*
X10419000Y-18390714D01*
X10476143Y-18390714D01*
X10504714Y-18405000D01*
X10519000Y-18433572D01*
X10519000Y-18462143D01*
X10376143Y-18490714D01*
X10633286Y-18576429D02*
X10661857Y-18590714D01*
X10719000Y-18590714D01*
X10747571Y-18576429D01*
X10761857Y-18547857D01*
X10761857Y-18533572D01*
X10747571Y-18505000D01*
X10719000Y-18490714D01*
X10676143Y-18490714D01*
X10647571Y-18476429D01*
X10633286Y-18447857D01*
X10633286Y-18433572D01*
X10647571Y-18405000D01*
X10676143Y-18390714D01*
X10719000Y-18390714D01*
X10747571Y-18405000D01*
X10861857Y-18705000D02*
X10876143Y-18690714D01*
X10904714Y-18647857D01*
X10919000Y-18619286D01*
X10933286Y-18576429D01*
X10947571Y-18505000D01*
X10947571Y-18447857D01*
X10933286Y-18376429D01*
X10919000Y-18333572D01*
X10904714Y-18305000D01*
X10876143Y-18262143D01*
X10861857Y-18247857D01*
X3644000Y-18771000D02*
X3804000Y-18931000D01*
X3804000Y-18771000D02*
X3644000Y-18931000D01*
X3780569Y-18907569D02*
X3780569Y-18794431D01*
X3667431Y-18794431D01*
X3667431Y-18907569D01*
X3780569Y-18907569D01*
X4247571Y-18986714D02*
X4076143Y-18986714D01*
X4161857Y-18986714D02*
X4161857Y-18686714D01*
X4133286Y-18729572D01*
X4104714Y-18758143D01*
X4076143Y-18772429D01*
X4376143Y-18958143D02*
X4390428Y-18972429D01*
X4376143Y-18986714D01*
X4361857Y-18972429D01*
X4376143Y-18958143D01*
X4376143Y-18986714D01*
X4647571Y-18686714D02*
X4590428Y-18686714D01*
X4561857Y-18701000D01*
X4547571Y-18715286D01*
X4519000Y-18758143D01*
X4504714Y-18815286D01*
X4504714Y-18929572D01*
X4519000Y-18958143D01*
X4533286Y-18972429D01*
X4561857Y-18986714D01*
X4619000Y-18986714D01*
X4647571Y-18972429D01*
X4661857Y-18958143D01*
X4676143Y-18929572D01*
X4676143Y-18858143D01*
X4661857Y-18829572D01*
X4647571Y-18815286D01*
X4619000Y-18801000D01*
X4561857Y-18801000D01*
X4533286Y-18815286D01*
X4519000Y-18829572D01*
X4504714Y-18858143D01*
X4861857Y-18686714D02*
X4890428Y-18686714D01*
X4919000Y-18701000D01*
X4933286Y-18715286D01*
X4947571Y-18743857D01*
X4961857Y-18801000D01*
X4961857Y-18872429D01*
X4947571Y-18929572D01*
X4933286Y-18958143D01*
X4919000Y-18972429D01*
X4890428Y-18986714D01*
X4861857Y-18986714D01*
X4833286Y-18972429D01*
X4819000Y-18958143D01*
X4804714Y-18929572D01*
X4790428Y-18872429D01*
X4790428Y-18801000D01*
X4804714Y-18743857D01*
X4819000Y-18715286D01*
X4833286Y-18701000D01*
X4861857Y-18686714D01*
X5147571Y-18686714D02*
X5176143Y-18686714D01*
X5204714Y-18701000D01*
X5219000Y-18715286D01*
X5233286Y-18743857D01*
X5247571Y-18801000D01*
X5247571Y-18872429D01*
X5233286Y-18929572D01*
X5219000Y-18958143D01*
X5204714Y-18972429D01*
X5176143Y-18986714D01*
X5147571Y-18986714D01*
X5119000Y-18972429D01*
X5104714Y-18958143D01*
X5090428Y-18929572D01*
X5076143Y-18872429D01*
X5076143Y-18801000D01*
X5090428Y-18743857D01*
X5104714Y-18715286D01*
X5119000Y-18701000D01*
X5147571Y-18686714D01*
X5376143Y-18986714D02*
X5376143Y-18786714D01*
X5376143Y-18815286D02*
X5390428Y-18801000D01*
X5419000Y-18786714D01*
X5461857Y-18786714D01*
X5490428Y-18801000D01*
X5504714Y-18829572D01*
X5504714Y-18986714D01*
X5504714Y-18829572D02*
X5519000Y-18801000D01*
X5547571Y-18786714D01*
X5590428Y-18786714D01*
X5619000Y-18801000D01*
X5633286Y-18829572D01*
X5633286Y-18986714D01*
X5776143Y-18986714D02*
X5776143Y-18786714D01*
X5776143Y-18815286D02*
X5790428Y-18801000D01*
X5819000Y-18786714D01*
X5861857Y-18786714D01*
X5890428Y-18801000D01*
X5904714Y-18829572D01*
X5904714Y-18986714D01*
X5904714Y-18829572D02*
X5919000Y-18801000D01*
X5947571Y-18786714D01*
X5990428Y-18786714D01*
X6019000Y-18801000D01*
X6033286Y-18829572D01*
X6033286Y-18986714D01*
X6619000Y-18672429D02*
X6361857Y-19058143D01*
X7004714Y-18686714D02*
X7033286Y-18686714D01*
X7061857Y-18701000D01*
X7076143Y-18715286D01*
X7090428Y-18743857D01*
X7104714Y-18801000D01*
X7104714Y-18872429D01*
X7090428Y-18929572D01*
X7076143Y-18958143D01*
X7061857Y-18972429D01*
X7033286Y-18986714D01*
X7004714Y-18986714D01*
X6976143Y-18972429D01*
X6961857Y-18958143D01*
X6947571Y-18929572D01*
X6933286Y-18872429D01*
X6933286Y-18801000D01*
X6947571Y-18743857D01*
X6961857Y-18715286D01*
X6976143Y-18701000D01*
X7004714Y-18686714D01*
X7233286Y-18958143D02*
X7247571Y-18972429D01*
X7233286Y-18986714D01*
X7219000Y-18972429D01*
X7233286Y-18958143D01*
X7233286Y-18986714D01*
X7433286Y-18686714D02*
X7461857Y-18686714D01*
X7490428Y-18701000D01*
X7504714Y-18715286D01*
X7519000Y-18743857D01*
X7533286Y-18801000D01*
X7533286Y-18872429D01*
X7519000Y-18929572D01*
X7504714Y-18958143D01*
X7490428Y-18972429D01*
X7461857Y-18986714D01*
X7433286Y-18986714D01*
X7404714Y-18972429D01*
X7390428Y-18958143D01*
X7376143Y-18929572D01*
X7361857Y-18872429D01*
X7361857Y-18801000D01*
X7376143Y-18743857D01*
X7390428Y-18715286D01*
X7404714Y-18701000D01*
X7433286Y-18686714D01*
X7790428Y-18686714D02*
X7733286Y-18686714D01*
X7704714Y-18701000D01*
X7690428Y-18715286D01*
X7661857Y-18758143D01*
X7647571Y-18815286D01*
X7647571Y-18929572D01*
X7661857Y-18958143D01*
X7676143Y-18972429D01*
X7704714Y-18986714D01*
X7761857Y-18986714D01*
X7790428Y-18972429D01*
X7804714Y-18958143D01*
X7819000Y-18929572D01*
X7819000Y-18858143D01*
X7804714Y-18829572D01*
X7790428Y-18815286D01*
X7761857Y-18801000D01*
X7704714Y-18801000D01*
X7676143Y-18815286D01*
X7661857Y-18829572D01*
X7647571Y-18858143D01*
X7919000Y-18686714D02*
X8104714Y-18686714D01*
X8004714Y-18801000D01*
X8047571Y-18801000D01*
X8076143Y-18815286D01*
X8090428Y-18829572D01*
X8104714Y-18858143D01*
X8104714Y-18929572D01*
X8090428Y-18958143D01*
X8076143Y-18972429D01*
X8047571Y-18986714D01*
X7961857Y-18986714D01*
X7933286Y-18972429D01*
X7919000Y-18958143D01*
X8290428Y-18686714D02*
X8319000Y-18686714D01*
X8347571Y-18701000D01*
X8361857Y-18715286D01*
X8376143Y-18743857D01*
X8390428Y-18801000D01*
X8390428Y-18872429D01*
X8376143Y-18929572D01*
X8361857Y-18958143D01*
X8347571Y-18972429D01*
X8319000Y-18986714D01*
X8290428Y-18986714D01*
X8261857Y-18972429D01*
X8247571Y-18958143D01*
X8233286Y-18929572D01*
X8219000Y-18872429D01*
X8219000Y-18801000D01*
X8233286Y-18743857D01*
X8247571Y-18715286D01*
X8261857Y-18701000D01*
X8290428Y-18686714D01*
X8504714Y-18686714D02*
X8504714Y-18743857D01*
X8619000Y-18686714D02*
X8619000Y-18743857D01*
X9061857Y-19101000D02*
X9047571Y-19086714D01*
X9019000Y-19043857D01*
X9004714Y-19015286D01*
X8990428Y-18972429D01*
X8976143Y-18901000D01*
X8976143Y-18843857D01*
X8990428Y-18772429D01*
X9004714Y-18729572D01*
X9019000Y-18701000D01*
X9047571Y-18658143D01*
X9061857Y-18643857D01*
X9333286Y-18986714D02*
X9161857Y-18986714D01*
X9247571Y-18986714D02*
X9247571Y-18686714D01*
X9219000Y-18729572D01*
X9190428Y-18758143D01*
X9161857Y-18772429D01*
X9690428Y-18986714D02*
X9690428Y-18686714D01*
X9819000Y-18986714D02*
X9819000Y-18829572D01*
X9804714Y-18801000D01*
X9776143Y-18786714D01*
X9733286Y-18786714D01*
X9704714Y-18801000D01*
X9690428Y-18815286D01*
X10004714Y-18986714D02*
X9976143Y-18972429D01*
X9961857Y-18958143D01*
X9947571Y-18929572D01*
X9947571Y-18843857D01*
X9961857Y-18815286D01*
X9976143Y-18801000D01*
X10004714Y-18786714D01*
X10047571Y-18786714D01*
X10076143Y-18801000D01*
X10090428Y-18815286D01*
X10104714Y-18843857D01*
X10104714Y-18929572D01*
X10090428Y-18958143D01*
X10076143Y-18972429D01*
X10047571Y-18986714D01*
X10004714Y-18986714D01*
X10276143Y-18986714D02*
X10247571Y-18972429D01*
X10233286Y-18943857D01*
X10233286Y-18686714D01*
X10504714Y-18972429D02*
X10476143Y-18986714D01*
X10419000Y-18986714D01*
X10390428Y-18972429D01*
X10376143Y-18943857D01*
X10376143Y-18829572D01*
X10390428Y-18801000D01*
X10419000Y-18786714D01*
X10476143Y-18786714D01*
X10504714Y-18801000D01*
X10519000Y-18829572D01*
X10519000Y-18858143D01*
X10376143Y-18886714D01*
X10619000Y-19101000D02*
X10633286Y-19086714D01*
X10661857Y-19043857D01*
X10676143Y-19015286D01*
X10690428Y-18972429D01*
X10704714Y-18901000D01*
X10704714Y-18843857D01*
X10690428Y-18772429D01*
X10676143Y-18729572D01*
X10661857Y-18701000D01*
X10633286Y-18658143D01*
X10619000Y-18643857D01*
X3534000Y-19112000D02*
X3804000Y-19382000D01*
X3804000Y-19112000D02*
X3534000Y-19382000D01*
X3669000Y-19382000D02*
X3804000Y-19247000D01*
X3669000Y-19112000D01*
X3534000Y-19247000D01*
X3669000Y-19382000D01*
X4076143Y-19111286D02*
X4090428Y-19097000D01*
X4119000Y-19082714D01*
X4190428Y-19082714D01*
X4219000Y-19097000D01*
X4233286Y-19111286D01*
X4247571Y-19139857D01*
X4247571Y-19168429D01*
X4233286Y-19211286D01*
X4061857Y-19382714D01*
X4247571Y-19382714D01*
X4376143Y-19354143D02*
X4390428Y-19368429D01*
X4376143Y-19382714D01*
X4361857Y-19368429D01*
X4376143Y-19354143D01*
X4376143Y-19382714D01*
X4490428Y-19082714D02*
X4690428Y-19082714D01*
X4561857Y-19382714D01*
X4861857Y-19082714D02*
X4890428Y-19082714D01*
X4919000Y-19097000D01*
X4933286Y-19111286D01*
X4947571Y-19139857D01*
X4961857Y-19197000D01*
X4961857Y-19268429D01*
X4947571Y-19325572D01*
X4933286Y-19354143D01*
X4919000Y-19368429D01*
X4890428Y-19382714D01*
X4861857Y-19382714D01*
X4833286Y-19368429D01*
X4819000Y-19354143D01*
X4804714Y-19325572D01*
X4790428Y-19268429D01*
X4790428Y-19197000D01*
X4804714Y-19139857D01*
X4819000Y-19111286D01*
X4833286Y-19097000D01*
X4861857Y-19082714D01*
X5147571Y-19082714D02*
X5176143Y-19082714D01*
X5204714Y-19097000D01*
X5219000Y-19111286D01*
X5233286Y-19139857D01*
X5247571Y-19197000D01*
X5247571Y-19268429D01*
X5233286Y-19325572D01*
X5219000Y-19354143D01*
X5204714Y-19368429D01*
X5176143Y-19382714D01*
X5147571Y-19382714D01*
X5119000Y-19368429D01*
X5104714Y-19354143D01*
X5090428Y-19325572D01*
X5076143Y-19268429D01*
X5076143Y-19197000D01*
X5090428Y-19139857D01*
X5104714Y-19111286D01*
X5119000Y-19097000D01*
X5147571Y-19082714D01*
X5376143Y-19382714D02*
X5376143Y-19182714D01*
X5376143Y-19211286D02*
X5390428Y-19197000D01*
X5419000Y-19182714D01*
X5461857Y-19182714D01*
X5490428Y-19197000D01*
X5504714Y-19225572D01*
X5504714Y-19382714D01*
X5504714Y-19225572D02*
X5519000Y-19197000D01*
X5547571Y-19182714D01*
X5590428Y-19182714D01*
X5619000Y-19197000D01*
X5633286Y-19225572D01*
X5633286Y-19382714D01*
X5776143Y-19382714D02*
X5776143Y-19182714D01*
X5776143Y-19211286D02*
X5790428Y-19197000D01*
X5819000Y-19182714D01*
X5861857Y-19182714D01*
X5890428Y-19197000D01*
X5904714Y-19225572D01*
X5904714Y-19382714D01*
X5904714Y-19225572D02*
X5919000Y-19197000D01*
X5947571Y-19182714D01*
X5990428Y-19182714D01*
X6019000Y-19197000D01*
X6033286Y-19225572D01*
X6033286Y-19382714D01*
X6619000Y-19068429D02*
X6361857Y-19454143D01*
X7004714Y-19082714D02*
X7033286Y-19082714D01*
X7061857Y-19097000D01*
X7076143Y-19111286D01*
X7090428Y-19139857D01*
X7104714Y-19197000D01*
X7104714Y-19268429D01*
X7090428Y-19325572D01*
X7076143Y-19354143D01*
X7061857Y-19368429D01*
X7033286Y-19382714D01*
X7004714Y-19382714D01*
X6976143Y-19368429D01*
X6961857Y-19354143D01*
X6947571Y-19325572D01*
X6933286Y-19268429D01*
X6933286Y-19197000D01*
X6947571Y-19139857D01*
X6961857Y-19111286D01*
X6976143Y-19097000D01*
X7004714Y-19082714D01*
X7233286Y-19354143D02*
X7247571Y-19368429D01*
X7233286Y-19382714D01*
X7219000Y-19368429D01*
X7233286Y-19354143D01*
X7233286Y-19382714D01*
X7533286Y-19382714D02*
X7361857Y-19382714D01*
X7447571Y-19382714D02*
X7447571Y-19082714D01*
X7419000Y-19125572D01*
X7390428Y-19154143D01*
X7361857Y-19168429D01*
X7719000Y-19082714D02*
X7747571Y-19082714D01*
X7776143Y-19097000D01*
X7790428Y-19111286D01*
X7804714Y-19139857D01*
X7819000Y-19197000D01*
X7819000Y-19268429D01*
X7804714Y-19325572D01*
X7790428Y-19354143D01*
X7776143Y-19368429D01*
X7747571Y-19382714D01*
X7719000Y-19382714D01*
X7690428Y-19368429D01*
X7676143Y-19354143D01*
X7661857Y-19325572D01*
X7647571Y-19268429D01*
X7647571Y-19197000D01*
X7661857Y-19139857D01*
X7676143Y-19111286D01*
X7690428Y-19097000D01*
X7719000Y-19082714D01*
X8076143Y-19082714D02*
X8019000Y-19082714D01*
X7990428Y-19097000D01*
X7976143Y-19111286D01*
X7947571Y-19154143D01*
X7933286Y-19211286D01*
X7933286Y-19325572D01*
X7947571Y-19354143D01*
X7961857Y-19368429D01*
X7990428Y-19382714D01*
X8047571Y-19382714D01*
X8076143Y-19368429D01*
X8090428Y-19354143D01*
X8104714Y-19325572D01*
X8104714Y-19254143D01*
X8090428Y-19225572D01*
X8076143Y-19211286D01*
X8047571Y-19197000D01*
X7990428Y-19197000D01*
X7961857Y-19211286D01*
X7947571Y-19225572D01*
X7933286Y-19254143D01*
X8204714Y-19082714D02*
X8390428Y-19082714D01*
X8290428Y-19197000D01*
X8333286Y-19197000D01*
X8361857Y-19211286D01*
X8376143Y-19225572D01*
X8390428Y-19254143D01*
X8390428Y-19325572D01*
X8376143Y-19354143D01*
X8361857Y-19368429D01*
X8333286Y-19382714D01*
X8247571Y-19382714D01*
X8219000Y-19368429D01*
X8204714Y-19354143D01*
X8504714Y-19082714D02*
X8504714Y-19139857D01*
X8619000Y-19082714D02*
X8619000Y-19139857D01*
X9061857Y-19497000D02*
X9047571Y-19482714D01*
X9019000Y-19439857D01*
X9004714Y-19411286D01*
X8990428Y-19368429D01*
X8976143Y-19297000D01*
X8976143Y-19239857D01*
X8990428Y-19168429D01*
X9004714Y-19125572D01*
X9019000Y-19097000D01*
X9047571Y-19054143D01*
X9061857Y-19039857D01*
X9304714Y-19182714D02*
X9304714Y-19382714D01*
X9233286Y-19068429D02*
X9161857Y-19282714D01*
X9347571Y-19282714D01*
X9690428Y-19382714D02*
X9690428Y-19082714D01*
X9819000Y-19382714D02*
X9819000Y-19225572D01*
X9804714Y-19197000D01*
X9776143Y-19182714D01*
X9733286Y-19182714D01*
X9704714Y-19197000D01*
X9690428Y-19211286D01*
X10004714Y-19382714D02*
X9976143Y-19368429D01*
X9961857Y-19354143D01*
X9947571Y-19325572D01*
X9947571Y-19239857D01*
X9961857Y-19211286D01*
X9976143Y-19197000D01*
X10004714Y-19182714D01*
X10047571Y-19182714D01*
X10076143Y-19197000D01*
X10090428Y-19211286D01*
X10104714Y-19239857D01*
X10104714Y-19325572D01*
X10090428Y-19354143D01*
X10076143Y-19368429D01*
X10047571Y-19382714D01*
X10004714Y-19382714D01*
X10276143Y-19382714D02*
X10247571Y-19368429D01*
X10233286Y-19339857D01*
X10233286Y-19082714D01*
X10504714Y-19368429D02*
X10476143Y-19382714D01*
X10419000Y-19382714D01*
X10390428Y-19368429D01*
X10376143Y-19339857D01*
X10376143Y-19225572D01*
X10390428Y-19197000D01*
X10419000Y-19182714D01*
X10476143Y-19182714D01*
X10504714Y-19197000D01*
X10519000Y-19225572D01*
X10519000Y-19254143D01*
X10376143Y-19282714D01*
X10633286Y-19368429D02*
X10661857Y-19382714D01*
X10719000Y-19382714D01*
X10747571Y-19368429D01*
X10761857Y-19339857D01*
X10761857Y-19325572D01*
X10747571Y-19297000D01*
X10719000Y-19282714D01*
X10676143Y-19282714D01*
X10647571Y-19268429D01*
X10633286Y-19239857D01*
X10633286Y-19225572D01*
X10647571Y-19197000D01*
X10676143Y-19182714D01*
X10719000Y-19182714D01*
X10747571Y-19197000D01*
X10861857Y-19497000D02*
X10876143Y-19482714D01*
X10904714Y-19439857D01*
X10919000Y-19411286D01*
X10933286Y-19368429D01*
X10947571Y-19297000D01*
X10947571Y-19239857D01*
X10933286Y-19168429D01*
X10919000Y-19125572D01*
X10904714Y-19097000D01*
X10876143Y-19054143D01*
X10861857Y-19039857D01*
M02*
