G04 #@! TF.GenerationSoftware,KiCad,Pcbnew,(5.1.10-1-10_14)*
G04 #@! TF.CreationDate,2021-11-19T10:15:32+01:00*
G04 #@! TF.ProjectId,mainboard_v3,6d61696e-626f-4617-9264-5f76332e6b69,rev?*
G04 #@! TF.SameCoordinates,Original*
G04 #@! TF.FileFunction,Copper,L4,Bot*
G04 #@! TF.FilePolarity,Positive*
%FSLAX46Y46*%
G04 Gerber Fmt 4.6, Leading zero omitted, Abs format (unit mm)*
G04 Created by KiCad (PCBNEW (5.1.10-1-10_14)) date 2021-11-19 10:15:32*
%MOMM*%
%LPD*%
G01*
G04 APERTURE LIST*
G04 #@! TA.AperFunction,ComponentPad*
%ADD10O,2.200000X2.200000*%
G04 #@! TD*
G04 #@! TA.AperFunction,ComponentPad*
%ADD11R,2.200000X2.200000*%
G04 #@! TD*
G04 #@! TA.AperFunction,ComponentPad*
%ADD12O,1.700000X1.700000*%
G04 #@! TD*
G04 #@! TA.AperFunction,ComponentPad*
%ADD13R,1.700000X1.700000*%
G04 #@! TD*
G04 #@! TA.AperFunction,ComponentPad*
%ADD14O,1.600000X1.600000*%
G04 #@! TD*
G04 #@! TA.AperFunction,ComponentPad*
%ADD15R,1.600000X1.600000*%
G04 #@! TD*
G04 #@! TA.AperFunction,ComponentPad*
%ADD16O,2.000000X1.440000*%
G04 #@! TD*
G04 #@! TA.AperFunction,ComponentPad*
%ADD17R,2.000000X1.440000*%
G04 #@! TD*
G04 #@! TA.AperFunction,ComponentPad*
%ADD18C,1.500000*%
G04 #@! TD*
G04 #@! TA.AperFunction,ComponentPad*
%ADD19C,1.600000*%
G04 #@! TD*
G04 #@! TA.AperFunction,ComponentPad*
%ADD20C,1.800000*%
G04 #@! TD*
G04 #@! TA.AperFunction,ComponentPad*
%ADD21R,1.800000X1.800000*%
G04 #@! TD*
G04 #@! TA.AperFunction,ComponentPad*
%ADD22O,1.700000X2.000000*%
G04 #@! TD*
G04 #@! TA.AperFunction,ComponentPad*
%ADD23C,2.000000*%
G04 #@! TD*
G04 #@! TA.AperFunction,ComponentPad*
%ADD24C,1.700000*%
G04 #@! TD*
G04 #@! TA.AperFunction,ComponentPad*
%ADD25R,1.050000X1.500000*%
G04 #@! TD*
G04 #@! TA.AperFunction,ComponentPad*
%ADD26O,1.050000X1.500000*%
G04 #@! TD*
G04 #@! TA.AperFunction,ComponentPad*
%ADD27C,3.000000*%
G04 #@! TD*
G04 #@! TA.AperFunction,ComponentPad*
%ADD28C,4.700000*%
G04 #@! TD*
G04 #@! TA.AperFunction,ViaPad*
%ADD29C,0.600000*%
G04 #@! TD*
G04 #@! TA.AperFunction,Conductor*
%ADD30C,0.500000*%
G04 #@! TD*
G04 #@! TA.AperFunction,Conductor*
%ADD31C,0.150000*%
G04 #@! TD*
G04 APERTURE END LIST*
D10*
X75438000Y-73660000D03*
D11*
X83058000Y-73660000D03*
D10*
X75438000Y-78486000D03*
D11*
X83058000Y-78486000D03*
D12*
X182880000Y-111760000D03*
X182880000Y-109220000D03*
X182880000Y-106680000D03*
X182880000Y-104140000D03*
D13*
X182880000Y-101600000D03*
D14*
X106680000Y-83820000D03*
X104140000Y-83820000D03*
X101600000Y-83820000D03*
X99060000Y-83820000D03*
X96520000Y-83820000D03*
X93980000Y-83820000D03*
X91440000Y-83820000D03*
X88900000Y-83820000D03*
X86360000Y-83820000D03*
X83820000Y-83820000D03*
X81280000Y-83820000D03*
D15*
X78740000Y-83820000D03*
D14*
X64516000Y-73914000D03*
X64516000Y-76454000D03*
X64516000Y-78994000D03*
X64516000Y-81534000D03*
X64516000Y-84074000D03*
D15*
X64516000Y-86614000D03*
D16*
X127000000Y-127000000D03*
X119380000Y-127000000D03*
X127000000Y-124460000D03*
X119380000Y-124460000D03*
X127000000Y-121920000D03*
X119380000Y-121920000D03*
X127000000Y-119380000D03*
X119380000Y-119380000D03*
X127000000Y-116840000D03*
X119380000Y-116840000D03*
X127000000Y-114300000D03*
X119380000Y-114300000D03*
X127000000Y-111760000D03*
X119380000Y-111760000D03*
X127000000Y-109220000D03*
X119380000Y-109220000D03*
X127000000Y-106680000D03*
X119380000Y-106680000D03*
X127000000Y-104140000D03*
X119380000Y-104140000D03*
X127000000Y-101600000D03*
X119380000Y-101600000D03*
X127000000Y-99060000D03*
D17*
X119380000Y-99060000D03*
D18*
X64516000Y-93980000D03*
X43180000Y-88900000D03*
X43180000Y-99060000D03*
D14*
X111760000Y-99060000D03*
X96520000Y-132080000D03*
X111760000Y-101600000D03*
X96520000Y-129540000D03*
X111760000Y-104140000D03*
X96520000Y-127000000D03*
X111760000Y-106680000D03*
X96520000Y-124460000D03*
X111760000Y-109220000D03*
X96520000Y-121920000D03*
X111760000Y-111760000D03*
X96520000Y-119380000D03*
X111760000Y-114300000D03*
X96520000Y-116840000D03*
X111760000Y-116840000D03*
X96520000Y-114300000D03*
X111760000Y-119380000D03*
X96520000Y-111760000D03*
X111760000Y-121920000D03*
X96520000Y-109220000D03*
X111760000Y-124460000D03*
X96520000Y-106680000D03*
X111760000Y-127000000D03*
X96520000Y-104140000D03*
X111760000Y-129540000D03*
X96520000Y-101600000D03*
X111760000Y-132080000D03*
D15*
X96520000Y-99060000D03*
D19*
X71120000Y-69175000D03*
D15*
X71120000Y-66675000D03*
D20*
X44450000Y-79375000D03*
D21*
X46990000Y-79375000D03*
D22*
X50760000Y-68580000D03*
G04 #@! TA.AperFunction,ComponentPad*
G36*
G01*
X47410000Y-69330000D02*
X47410000Y-67830000D01*
G75*
G02*
X47660000Y-67580000I250000J0D01*
G01*
X48860000Y-67580000D01*
G75*
G02*
X49110000Y-67830000I0J-250000D01*
G01*
X49110000Y-69330000D01*
G75*
G02*
X48860000Y-69580000I-250000J0D01*
G01*
X47660000Y-69580000D01*
G75*
G02*
X47410000Y-69330000I0J250000D01*
G01*
G37*
G04 #@! TD.AperFunction*
D23*
X56515000Y-67945000D03*
X61595000Y-67945000D03*
D24*
X167640000Y-66040000D03*
X165100000Y-66040000D03*
X162560000Y-66040000D03*
X160020000Y-66040000D03*
X157480000Y-66040000D03*
X154940000Y-66040000D03*
X152400000Y-66040000D03*
X149860000Y-66040000D03*
X147320000Y-66040000D03*
X144780000Y-66040000D03*
X142240000Y-66040000D03*
X139700000Y-66040000D03*
X137160000Y-66040000D03*
X134620000Y-66040000D03*
X132080000Y-66040000D03*
X129540000Y-66040000D03*
X127000000Y-66040000D03*
X124460000Y-66040000D03*
X121920000Y-66040000D03*
X119380000Y-66040000D03*
X167640000Y-68580000D03*
X165100000Y-68580000D03*
X162560000Y-68580000D03*
X160020000Y-68580000D03*
X157480000Y-68580000D03*
X154940000Y-68580000D03*
X152400000Y-68580000D03*
X149860000Y-68580000D03*
X147320000Y-68580000D03*
X144780000Y-68580000D03*
X142240000Y-68580000D03*
X139700000Y-68580000D03*
X137160000Y-68580000D03*
X134620000Y-68580000D03*
X132080000Y-68580000D03*
X129540000Y-68580000D03*
X127000000Y-68580000D03*
X124460000Y-68580000D03*
X121920000Y-68580000D03*
G04 #@! TA.AperFunction,ComponentPad*
G36*
G01*
X119980000Y-69430000D02*
X118780000Y-69430000D01*
G75*
G02*
X118530000Y-69180000I0J250000D01*
G01*
X118530000Y-67980000D01*
G75*
G02*
X118780000Y-67730000I250000J0D01*
G01*
X119980000Y-67730000D01*
G75*
G02*
X120230000Y-67980000I0J-250000D01*
G01*
X120230000Y-69180000D01*
G75*
G02*
X119980000Y-69430000I-250000J0D01*
G01*
G37*
G04 #@! TD.AperFunction*
D14*
X60960000Y-88900000D03*
X45720000Y-137160000D03*
X60960000Y-91440000D03*
X45720000Y-134620000D03*
X60960000Y-93980000D03*
X45720000Y-132080000D03*
X60960000Y-96520000D03*
X45720000Y-129540000D03*
X60960000Y-99060000D03*
X45720000Y-127000000D03*
X60960000Y-101600000D03*
X45720000Y-124460000D03*
X60960000Y-104140000D03*
X45720000Y-121920000D03*
X60960000Y-106680000D03*
X45720000Y-119380000D03*
X60960000Y-109220000D03*
X45720000Y-116840000D03*
X60960000Y-111760000D03*
X45720000Y-114300000D03*
X60960000Y-114300000D03*
X45720000Y-111760000D03*
X60960000Y-116840000D03*
X45720000Y-109220000D03*
X60960000Y-119380000D03*
X45720000Y-106680000D03*
X60960000Y-121920000D03*
X45720000Y-104140000D03*
X60960000Y-124460000D03*
X45720000Y-101600000D03*
X60960000Y-127000000D03*
X45720000Y-99060000D03*
X60960000Y-129540000D03*
X45720000Y-96520000D03*
X60960000Y-132080000D03*
X45720000Y-93980000D03*
X60960000Y-134620000D03*
X45720000Y-91440000D03*
X60960000Y-137160000D03*
D15*
X45720000Y-88900000D03*
D23*
X57935000Y-78105000D03*
X57935000Y-82605000D03*
X51435000Y-78105000D03*
X51435000Y-82605000D03*
D16*
X87630000Y-132080000D03*
X72390000Y-132080000D03*
X87630000Y-129540000D03*
X72390000Y-129540000D03*
X87630000Y-127000000D03*
X72390000Y-127000000D03*
X87630000Y-124460000D03*
X72390000Y-124460000D03*
X87630000Y-121920000D03*
X72390000Y-121920000D03*
X87630000Y-119380000D03*
X72390000Y-119380000D03*
X87630000Y-116840000D03*
X72390000Y-116840000D03*
X87630000Y-114300000D03*
X72390000Y-114300000D03*
X87630000Y-111760000D03*
X72390000Y-111760000D03*
X87630000Y-109220000D03*
X72390000Y-109220000D03*
X87630000Y-106680000D03*
X72390000Y-106680000D03*
X87630000Y-104140000D03*
X72390000Y-104140000D03*
X87630000Y-101600000D03*
X72390000Y-101600000D03*
X87630000Y-99060000D03*
D17*
X72390000Y-99060000D03*
D19*
X43180000Y-104180000D03*
X43180000Y-106680000D03*
X106045000Y-76200000D03*
X106045000Y-68580000D03*
X90805000Y-68580000D03*
D15*
X90805000Y-76200000D03*
D14*
X172720000Y-88900000D03*
X157480000Y-137160000D03*
X172720000Y-91440000D03*
X157480000Y-134620000D03*
X172720000Y-93980000D03*
X157480000Y-132080000D03*
X172720000Y-96520000D03*
X157480000Y-129540000D03*
X172720000Y-99060000D03*
X157480000Y-127000000D03*
X172720000Y-101600000D03*
X157480000Y-124460000D03*
X172720000Y-104140000D03*
X157480000Y-121920000D03*
X172720000Y-106680000D03*
X157480000Y-119380000D03*
X172720000Y-109220000D03*
X157480000Y-116840000D03*
X172720000Y-111760000D03*
X157480000Y-114300000D03*
X172720000Y-114300000D03*
X157480000Y-111760000D03*
X172720000Y-116840000D03*
X157480000Y-109220000D03*
X172720000Y-119380000D03*
X157480000Y-106680000D03*
X172720000Y-121920000D03*
X157480000Y-104140000D03*
X172720000Y-124460000D03*
X157480000Y-101600000D03*
X172720000Y-127000000D03*
X157480000Y-99060000D03*
X172720000Y-129540000D03*
X157480000Y-96520000D03*
X172720000Y-132080000D03*
X157480000Y-93980000D03*
X172720000Y-134620000D03*
X157480000Y-91440000D03*
X172720000Y-137160000D03*
D15*
X157480000Y-88900000D03*
D16*
X147320000Y-127000000D03*
X139700000Y-127000000D03*
X147320000Y-124460000D03*
X139700000Y-124460000D03*
X147320000Y-121920000D03*
X139700000Y-121920000D03*
X147320000Y-119380000D03*
X139700000Y-119380000D03*
X147320000Y-116840000D03*
X139700000Y-116840000D03*
X147320000Y-114300000D03*
X139700000Y-114300000D03*
X147320000Y-111760000D03*
X139700000Y-111760000D03*
X147320000Y-109220000D03*
X139700000Y-109220000D03*
X147320000Y-106680000D03*
X139700000Y-106680000D03*
X147320000Y-104140000D03*
X139700000Y-104140000D03*
X147320000Y-101600000D03*
X139700000Y-101600000D03*
X147320000Y-99060000D03*
D17*
X139700000Y-99060000D03*
D25*
X77978000Y-67564000D03*
D26*
X80518000Y-67564000D03*
X79248000Y-67564000D03*
D27*
X41579800Y-72059800D03*
D12*
X175260000Y-147320000D03*
X172720000Y-147320000D03*
X170180000Y-147320000D03*
X167640000Y-147320000D03*
X165100000Y-147320000D03*
X162560000Y-147320000D03*
X160020000Y-147320000D03*
X157480000Y-147320000D03*
X154940000Y-147320000D03*
X152400000Y-147320000D03*
X149860000Y-147320000D03*
X147320000Y-147320000D03*
X144780000Y-147320000D03*
X142240000Y-147320000D03*
X139700000Y-147320000D03*
X137160000Y-147320000D03*
X134620000Y-147320000D03*
X132080000Y-147320000D03*
X129540000Y-147320000D03*
X127000000Y-147320000D03*
X124460000Y-147320000D03*
X121920000Y-147320000D03*
X119380000Y-147320000D03*
X116840000Y-147320000D03*
X114300000Y-147320000D03*
X111760000Y-147320000D03*
X109220000Y-147320000D03*
X106680000Y-147320000D03*
X104140000Y-147320000D03*
X101600000Y-147320000D03*
X99060000Y-147320000D03*
X96520000Y-147320000D03*
X93980000Y-147320000D03*
X91440000Y-147320000D03*
X88900000Y-147320000D03*
X86360000Y-147320000D03*
X83820000Y-147320000D03*
X81280000Y-147320000D03*
X78740000Y-147320000D03*
D13*
X76200000Y-147320000D03*
D12*
X71120000Y-147320000D03*
X68580000Y-147320000D03*
X66040000Y-147320000D03*
X63500000Y-147320000D03*
X60960000Y-147320000D03*
X58420000Y-147320000D03*
X55880000Y-147320000D03*
X53340000Y-147320000D03*
X50800000Y-147320000D03*
D13*
X48260000Y-147320000D03*
D12*
X182880000Y-93980000D03*
X182880000Y-91440000D03*
X182880000Y-88900000D03*
X182880000Y-86360000D03*
X182880000Y-83820000D03*
X182880000Y-81280000D03*
X182880000Y-78740000D03*
D13*
X182880000Y-76200000D03*
D28*
X182880000Y-147320000D03*
X41910000Y-147320000D03*
X182880000Y-66040000D03*
X41910000Y-66040000D03*
D19*
X154940000Y-134660000D03*
X154940000Y-137160000D03*
X153162000Y-96560000D03*
X153162000Y-99060000D03*
X132842000Y-96306000D03*
X132842000Y-98806000D03*
X109260000Y-96012000D03*
X111760000Y-96012000D03*
X93649800Y-101560000D03*
X93649800Y-99060000D03*
X85725000Y-71080000D03*
X85725000Y-68580000D03*
D29*
X46990000Y-64135000D03*
X43815000Y-70485000D03*
X60960000Y-63500000D03*
X86995000Y-65405000D03*
X100965000Y-65405000D03*
X109220000Y-66040000D03*
X114935000Y-67310000D03*
X124460000Y-64135000D03*
X135255000Y-64135000D03*
X146050000Y-64135000D03*
X158115000Y-63500000D03*
X169545000Y-64135000D03*
X177800000Y-64135000D03*
X183515000Y-70485000D03*
X176530000Y-73025000D03*
X170180000Y-74295000D03*
X170815000Y-83820000D03*
X174625000Y-82550000D03*
X172720000Y-85725000D03*
X165735000Y-85725000D03*
X151130000Y-82550000D03*
X135255000Y-83185000D03*
X134620000Y-81915000D03*
X131445000Y-83185000D03*
X123825000Y-83947000D03*
X118110000Y-73025000D03*
X109855000Y-86995000D03*
X113868200Y-83489800D03*
X113030000Y-86995000D03*
X101600000Y-86995000D03*
X99060000Y-92075000D03*
X81280000Y-86995000D03*
X80010000Y-90805000D03*
X74930000Y-86360000D03*
X77901800Y-78562200D03*
X88900000Y-73025000D03*
X93980000Y-66040000D03*
X94615000Y-73025000D03*
X68580000Y-73660000D03*
X68580000Y-82550000D03*
X63500000Y-82550000D03*
X69850000Y-88900000D03*
X55880000Y-84455000D03*
X55880000Y-80010000D03*
X56515000Y-73660000D03*
X43815000Y-77470000D03*
X43815000Y-85090000D03*
X40640000Y-74930000D03*
X39370000Y-99060000D03*
X40640000Y-109220000D03*
X55880000Y-69850000D03*
X63500000Y-68580000D03*
X108585000Y-76835000D03*
X119380000Y-86360000D03*
X114300000Y-88900000D03*
X126365000Y-91440000D03*
X123825000Y-90805000D03*
X135890000Y-92075000D03*
X134493000Y-100838000D03*
X134493000Y-106426000D03*
X131699000Y-110109000D03*
X130175000Y-112522000D03*
X131699000Y-115316000D03*
X137541000Y-109855000D03*
X137414000Y-115189000D03*
X131826000Y-121920000D03*
X131572000Y-124968000D03*
X131699000Y-126746000D03*
X117017800Y-118948200D03*
X114173000Y-117348000D03*
X114046000Y-112903000D03*
X114300000Y-106934000D03*
X114300000Y-104267000D03*
X114173000Y-102235000D03*
X113919000Y-99441000D03*
X113411000Y-96520000D03*
X118745000Y-95885000D03*
X120269000Y-91694000D03*
X113792000Y-91186000D03*
X109474000Y-91440000D03*
X107696000Y-97155000D03*
X102108000Y-92329000D03*
X106172000Y-89789000D03*
X101981000Y-96139000D03*
X144526000Y-101346000D03*
X152527000Y-103759000D03*
X149479000Y-114554000D03*
X149479000Y-111760000D03*
X149352000Y-109220000D03*
X149352000Y-101854000D03*
X149733000Y-97891600D03*
X149225000Y-94996000D03*
X145288000Y-95377000D03*
X144653000Y-92075000D03*
X144907000Y-89027000D03*
X149225000Y-89027000D03*
X153543000Y-88900000D03*
X153670000Y-93980000D03*
X164465000Y-94361000D03*
X164338000Y-91186000D03*
X164465000Y-89027000D03*
X164084000Y-100838000D03*
X169926000Y-100965000D03*
X164084000Y-104521000D03*
X170180000Y-104394000D03*
X159893000Y-119507000D03*
X160274000Y-122047000D03*
X164973000Y-122047000D03*
X159385000Y-114300000D03*
X159308800Y-111760000D03*
X175006000Y-109601000D03*
X175006000Y-106553000D03*
X175133000Y-101981000D03*
X175133000Y-104394000D03*
X175006000Y-111633000D03*
X174879000Y-114173000D03*
X175133000Y-116713000D03*
X175514000Y-120142000D03*
X177546000Y-119634000D03*
X180340000Y-117856000D03*
X178943000Y-113919000D03*
X179832000Y-120777000D03*
X177800000Y-122428000D03*
X183134000Y-120015000D03*
X185039000Y-113919000D03*
X185420000Y-104140000D03*
X184658000Y-97917000D03*
X182499000Y-96647000D03*
X178943000Y-96520000D03*
X178943000Y-99441000D03*
X179070000Y-103886000D03*
X185293000Y-91440000D03*
X185039000Y-81026000D03*
X185039000Y-74041000D03*
X170053000Y-88646000D03*
X168275000Y-91821000D03*
X179324000Y-69342000D03*
X142113000Y-73533000D03*
X134493000Y-73660000D03*
X122047000Y-73533000D03*
X116713000Y-77089000D03*
X114935000Y-75184000D03*
X110236000Y-72136000D03*
X114554000Y-72771000D03*
X100584000Y-74168000D03*
X100330000Y-79121000D03*
X93218000Y-79629000D03*
X118084600Y-83642200D03*
X135001000Y-86487000D03*
X130683000Y-86614000D03*
X131953000Y-88646000D03*
X131572000Y-91694000D03*
X125984000Y-95631000D03*
X176403000Y-127635000D03*
X176276000Y-136144000D03*
X179705000Y-141986000D03*
X184277000Y-134493000D03*
X183896000Y-125984000D03*
X180848000Y-132334000D03*
X177927000Y-148590000D03*
X174752000Y-140462000D03*
X164592000Y-140843000D03*
X169926000Y-141732000D03*
X157226000Y-141097000D03*
X154940000Y-141097000D03*
X154432000Y-145161000D03*
X149733000Y-143002000D03*
X144272000Y-141351000D03*
X139827000Y-140589000D03*
X121285000Y-139827000D03*
X122174000Y-134366000D03*
X123317000Y-129540000D03*
X130810000Y-129794000D03*
X144907000Y-129794000D03*
X139065000Y-129921000D03*
X139065000Y-132842000D03*
X146558000Y-132715000D03*
X127635000Y-132842000D03*
X130302000Y-136906000D03*
X134493000Y-135763000D03*
X124333000Y-113284000D03*
X124206000Y-109093000D03*
X123952000Y-101600000D03*
X124206000Y-104140000D03*
X124079000Y-98933000D03*
X121920000Y-113665000D03*
X122428000Y-117221000D03*
X124206000Y-121793000D03*
X119888000Y-129667000D03*
X113665000Y-130048000D03*
X113538000Y-135255000D03*
X112395000Y-141605000D03*
X114427000Y-138684000D03*
X102997000Y-136652000D03*
X104394000Y-139573000D03*
X102362000Y-143383000D03*
X106680000Y-142875000D03*
X97155000Y-142875000D03*
X91440000Y-144145000D03*
X92329000Y-136144000D03*
X96520000Y-140208000D03*
X85471000Y-143256000D03*
X81534000Y-143002000D03*
X81026000Y-139700000D03*
X82042000Y-134239000D03*
X85471000Y-139065000D03*
X74295000Y-134747000D03*
X85344000Y-121920000D03*
X90170000Y-143383000D03*
X75692000Y-138938000D03*
X77343000Y-145415000D03*
X169545000Y-127127000D03*
X169799000Y-130937000D03*
X67056000Y-138430000D03*
X65278000Y-133223000D03*
X67056000Y-130683000D03*
X63271400Y-126720600D03*
X76682600Y-119380000D03*
X77876400Y-114096800D03*
X75920600Y-127177800D03*
X77444600Y-116840000D03*
X62357000Y-101346000D03*
X63271400Y-124307600D03*
X58293000Y-124714000D03*
X57277000Y-120777000D03*
X56515000Y-123952000D03*
X55118000Y-128397000D03*
X54610000Y-130302000D03*
X52705000Y-133350000D03*
X52197000Y-136271000D03*
X49784000Y-121285000D03*
X49911000Y-118110000D03*
X49911000Y-113919000D03*
X51816000Y-114046000D03*
X51435000Y-110490000D03*
X51435000Y-107823000D03*
X49657000Y-105918000D03*
X55118000Y-104521000D03*
X56769000Y-106680000D03*
X57150000Y-113792000D03*
X73533000Y-143891000D03*
X67310000Y-144272000D03*
X61976000Y-144399000D03*
X61087000Y-141224000D03*
X57150000Y-144145000D03*
X54356000Y-144272000D03*
X51943000Y-144653000D03*
X45593000Y-142875000D03*
X43688000Y-137922000D03*
X51054000Y-149606000D03*
X62357000Y-149225000D03*
X73533000Y-149352000D03*
X82042000Y-149479000D03*
X100076000Y-149606000D03*
X116967000Y-149479000D03*
X129159000Y-149479000D03*
X143002000Y-149352000D03*
X153543000Y-149479000D03*
X162052000Y-149479000D03*
X172720000Y-149606000D03*
X58801000Y-136398000D03*
X54483000Y-134239000D03*
X57912000Y-129032000D03*
X40386000Y-140462000D03*
X40132000Y-123190000D03*
X43307000Y-111506000D03*
X43688000Y-130937000D03*
X78613000Y-98425000D03*
X85344000Y-96520000D03*
X88900000Y-98171000D03*
X75946000Y-96647000D03*
X71247000Y-96139000D03*
X62738000Y-91948000D03*
X62992000Y-97536000D03*
X55118000Y-98044000D03*
X48006000Y-98425000D03*
X57404000Y-89662000D03*
X48895000Y-94488000D03*
X49276000Y-89408000D03*
X50038000Y-81915000D03*
X59690000Y-79121000D03*
X52451000Y-95758000D03*
X107061000Y-119354600D03*
X80137000Y-109220000D03*
X80264000Y-111887000D03*
X85852000Y-114681000D03*
X80899000Y-114681000D03*
X81026000Y-121412000D03*
X81280000Y-127000000D03*
X81026000Y-106680000D03*
X85979000Y-107061000D03*
X163957000Y-72009000D03*
X163830000Y-76581000D03*
X156845000Y-74422000D03*
X146558000Y-73533000D03*
X134874000Y-97790000D03*
X154305000Y-111099600D03*
X153670000Y-86106000D03*
X170611800Y-137160000D03*
X71374000Y-84505800D03*
X111912400Y-65430400D03*
X112471200Y-85420200D03*
X72009000Y-94627220D03*
X134035800Y-85420198D03*
X155498800Y-99110800D03*
X44551598Y-72009000D03*
X54076600Y-98196400D03*
X123155038Y-121421562D03*
X123155038Y-92316779D03*
X128768999Y-125974999D03*
X125145800Y-114630200D03*
X62280800Y-142189200D03*
X90932000Y-115316000D03*
X90932000Y-141478024D03*
X127853856Y-83828390D03*
X62280800Y-141300200D03*
X109220000Y-101600000D03*
X107442000Y-140462000D03*
X104216200Y-101447600D03*
X102958900Y-85178900D03*
X128342563Y-82269989D03*
X83769316Y-100528795D03*
X66566843Y-101074990D03*
X114655600Y-124104400D03*
X110767758Y-84995919D03*
X114300000Y-121920000D03*
X110053747Y-85526253D03*
X114223802Y-119380000D03*
X109348678Y-86010699D03*
X120700800Y-138836400D03*
X142925800Y-142748000D03*
X142925800Y-122097800D03*
X142671800Y-141630400D03*
X142791278Y-119677278D03*
X141732000Y-141757400D03*
X143302011Y-117047989D03*
X167538400Y-131546600D03*
X167139600Y-107669989D03*
X173714235Y-120654755D03*
X163885012Y-120594988D03*
X109220000Y-121920000D03*
X171424600Y-124079000D03*
X162458400Y-124256800D03*
X66802000Y-121666000D03*
X66801996Y-124460000D03*
X109220000Y-124460000D03*
X171348400Y-127076200D03*
X161933390Y-119862600D03*
X67437000Y-127127000D03*
X67437000Y-119253000D03*
X109626977Y-127914977D03*
X161425390Y-116865400D03*
X68072000Y-116586008D03*
X68072000Y-130301998D03*
X171246800Y-128219200D03*
X109106179Y-130865012D03*
X160887200Y-114249200D03*
X68452996Y-114300000D03*
X68580000Y-132842000D03*
X170764734Y-129719069D03*
X108694990Y-132029200D03*
X169851696Y-128871826D03*
X160587190Y-111709200D03*
X69469000Y-111506000D03*
X100872401Y-128514999D03*
X169646600Y-125323600D03*
X160020000Y-109245400D03*
X69469000Y-109220000D03*
X100634800Y-127000000D03*
X168659069Y-123608609D03*
X159494990Y-106654600D03*
X70231000Y-106807000D03*
X100157660Y-123068460D03*
X133397726Y-128287010D03*
X134721600Y-123799600D03*
X134950200Y-98882200D03*
X134518402Y-127711200D03*
X144043400Y-97993200D03*
X65379598Y-99288600D03*
X65176398Y-128930400D03*
X133172200Y-103428800D03*
X133673907Y-124551321D03*
X143814800Y-103784400D03*
X64770000Y-132080054D03*
X64325021Y-104749600D03*
X133070600Y-100736400D03*
X133719859Y-121859978D03*
X64770084Y-134340600D03*
X64321190Y-101930200D03*
X51206400Y-137033000D03*
X51206400Y-112979200D03*
X129336800Y-119430800D03*
X129311400Y-111234990D03*
X51790600Y-134645400D03*
X51790600Y-117373400D03*
X52425600Y-131953000D03*
X52425600Y-109855000D03*
X132486400Y-114249200D03*
X131414614Y-108150020D03*
X131699000Y-111887000D03*
X52814990Y-129540000D03*
X52814990Y-107721400D03*
X131798902Y-106662992D03*
X54381400Y-127000000D03*
X54381400Y-103225600D03*
X130924093Y-102903790D03*
X130189738Y-109389204D03*
X55092600Y-124434600D03*
X55092600Y-105918000D03*
X130022600Y-104114600D03*
X55354990Y-121529646D03*
X55354990Y-107761079D03*
X129046199Y-108150020D03*
X56438800Y-119354600D03*
X56438800Y-110744000D03*
X129812981Y-101786190D03*
X136550400Y-101600000D03*
X129057398Y-110058200D03*
X57099200Y-116840000D03*
X57175400Y-115036598D03*
X137058400Y-93522800D03*
X170586400Y-95783400D03*
X78415010Y-113354990D03*
X102971600Y-113842800D03*
X102565200Y-93903800D03*
X171521411Y-95346811D03*
X77780010Y-115894990D03*
X103581200Y-116509800D03*
X134366000Y-78409800D03*
X103614990Y-93378790D03*
X102692200Y-78511400D03*
X58089800Y-111760000D03*
X58039000Y-118160800D03*
X105105200Y-79476600D03*
X167614600Y-96494600D03*
X77399010Y-118434990D03*
X104571800Y-119075200D03*
X133375400Y-78943200D03*
X165777410Y-79908400D03*
X58775600Y-109220000D03*
X58826400Y-120624600D03*
X76881009Y-120476991D03*
X105283000Y-121259600D03*
X132461000Y-79501998D03*
X107179991Y-79476600D03*
X105824790Y-91707058D03*
X167182800Y-103708200D03*
X60960000Y-77718539D03*
X165777410Y-80806484D03*
X76072998Y-75717402D03*
X50673000Y-140335000D03*
X50165000Y-104724200D03*
X75184000Y-140462000D03*
X131800600Y-81229200D03*
X50038000Y-80264004D03*
X78714600Y-145618200D03*
X90170000Y-142240000D03*
X91440000Y-101219000D03*
X130482621Y-83264256D03*
X145034000Y-118854990D03*
X145796000Y-118364000D03*
X65892403Y-99969599D03*
X85089982Y-99898200D03*
X129257661Y-82902661D03*
X119442105Y-82700186D03*
X62991980Y-87630020D03*
X75488800Y-81991200D03*
X115544600Y-86283800D03*
X121361200Y-133578600D03*
X84074000Y-104394000D03*
X127000000Y-82245200D03*
X121628762Y-82237770D03*
X48996600Y-97383600D03*
X48971200Y-122758200D03*
X81915000Y-125476000D03*
X82169000Y-122918990D03*
X181330600Y-70688200D03*
X166166800Y-103657400D03*
X166332379Y-89458800D03*
X174879000Y-89027000D03*
X174955200Y-100457000D03*
X175615600Y-86410800D03*
X175615600Y-98526600D03*
X178536600Y-76454000D03*
X177114200Y-98070011D03*
X177673000Y-68529200D03*
X180153810Y-116573300D03*
X177774600Y-66090800D03*
X181356000Y-110744000D03*
X180913546Y-102828030D03*
X158794914Y-144382677D03*
X159843063Y-145006546D03*
X160663390Y-145541944D03*
X161213800Y-146354800D03*
X162335814Y-146039464D03*
X157149800Y-144297400D03*
X155981400Y-144043400D03*
X153394698Y-114731800D03*
X153094687Y-112014000D03*
X169214800Y-143230600D03*
X168402000Y-142595600D03*
X152794676Y-109719991D03*
X152628600Y-106857800D03*
X152169178Y-105316790D03*
X151894643Y-102589989D03*
X151594632Y-101142800D03*
X151561800Y-98094800D03*
X151028400Y-96342200D03*
X150565648Y-91962262D03*
X46990000Y-86614000D03*
X56896000Y-75184000D03*
X123367800Y-74929998D03*
X126246399Y-80660639D03*
X66665999Y-80400001D03*
X81046611Y-80919611D03*
X176589190Y-83769200D03*
X176555400Y-115316000D03*
X178384200Y-81280000D03*
X178384200Y-112318800D03*
X178739800Y-79324200D03*
X177944002Y-110091998D03*
X106299000Y-118465600D03*
X125222000Y-117398800D03*
X163474400Y-82880200D03*
X116560598Y-84201000D03*
X106825223Y-88409010D03*
D30*
X170611800Y-131648200D02*
X172720000Y-129540000D01*
X170611800Y-137160000D02*
X170611800Y-131648200D01*
X41529000Y-105029000D02*
X43180000Y-106680000D01*
X71297800Y-84429600D02*
X71374000Y-84505800D01*
X45980002Y-147320000D02*
X48260000Y-147320000D01*
X41529000Y-142868998D02*
X45980002Y-147320000D01*
X41529000Y-105029000D02*
X41529000Y-142868998D01*
X155498800Y-87934800D02*
X153670000Y-86106000D01*
X153739999Y-134131199D02*
X155498800Y-132372398D01*
X155498800Y-132372398D02*
X155498800Y-87934800D01*
X153739999Y-135959999D02*
X153739999Y-134131199D01*
X154940000Y-137160000D02*
X153739999Y-135959999D01*
X71374000Y-93992220D02*
X72009000Y-94627220D01*
X41910000Y-79375000D02*
X41529000Y-79756000D01*
X44450000Y-79375000D02*
X41910000Y-79375000D01*
X41529000Y-79756000D02*
X41529000Y-105029000D01*
X71374000Y-89662000D02*
X71374000Y-93992220D01*
X111760000Y-99060000D02*
X111760000Y-96012000D01*
X134112000Y-97536000D02*
X134112000Y-85496398D01*
X134112000Y-85496398D02*
X134035800Y-85420198D01*
X132842000Y-98806000D02*
X134112000Y-97536000D01*
X112771199Y-85120201D02*
X112471200Y-85420200D01*
X111912400Y-65430400D02*
X112771199Y-66289199D01*
X112771199Y-66289199D02*
X112771199Y-85120201D01*
X71120000Y-66675000D02*
X69919999Y-67875001D01*
X69919999Y-69919999D02*
X71374000Y-71374000D01*
X69919999Y-67875001D02*
X69919999Y-69919999D01*
X71374000Y-84505800D02*
X71374000Y-71374000D01*
X41529000Y-79756000D02*
X41529000Y-75031598D01*
X41529000Y-75031598D02*
X44251599Y-72308999D01*
X63315999Y-77793999D02*
X64516000Y-78994000D01*
X63315999Y-75114001D02*
X63315999Y-77793999D01*
X64516000Y-73914000D02*
X63315999Y-75114001D01*
X44251599Y-72308999D02*
X44551598Y-72009000D01*
X71374000Y-84505800D02*
X71374000Y-89662000D01*
D31*
X53340000Y-98933000D02*
X54076600Y-98196400D01*
X53340000Y-147320000D02*
X53340000Y-98933000D01*
X123155038Y-92316779D02*
X123155038Y-121421562D01*
X128768999Y-123688999D02*
X128768999Y-125974999D01*
X127000000Y-121920000D02*
X128768999Y-123688999D01*
X121920000Y-68580000D02*
X121920000Y-69782081D01*
X122766598Y-70628679D02*
X122766598Y-91928339D01*
X122855039Y-92016780D02*
X123155038Y-92316779D01*
X121920000Y-69782081D02*
X122766598Y-70628679D01*
X122766598Y-91928339D02*
X122855039Y-92016780D01*
X125145800Y-105994200D02*
X127000000Y-104140000D01*
X125145800Y-114630200D02*
X125145800Y-105994200D01*
X60960000Y-143510000D02*
X62280800Y-142189200D01*
X60960000Y-147320000D02*
X60960000Y-143510000D01*
X90932000Y-115316000D02*
X90932000Y-141478024D01*
X127000000Y-103270000D02*
X129295001Y-100974999D01*
X127429592Y-83828390D02*
X127853856Y-83828390D01*
X124460000Y-66040000D02*
X125535001Y-67115001D01*
X127000000Y-104140000D02*
X127000000Y-103270000D01*
X129295001Y-100974999D02*
X129295001Y-85269535D01*
X129295001Y-85269535D02*
X127853856Y-83828390D01*
X125535001Y-81933799D02*
X127429592Y-83828390D01*
X125535001Y-67115001D02*
X125535001Y-81933799D01*
X58420000Y-145161000D02*
X62280800Y-141300200D01*
X58420000Y-147320000D02*
X58420000Y-145161000D01*
X107696000Y-140208000D02*
X107442000Y-140462000D01*
X109220000Y-101600000D02*
X107696000Y-103124000D01*
X124760010Y-82213610D02*
X124760010Y-68580000D01*
X124744999Y-94677799D02*
X124744999Y-85867999D01*
X125850000Y-101600000D02*
X124858001Y-100608001D01*
X125535001Y-85077997D02*
X125535001Y-82988601D01*
X125535001Y-82988601D02*
X124760010Y-82213610D01*
X124858001Y-94790801D02*
X124744999Y-94677799D01*
X127000000Y-101600000D02*
X125850000Y-101600000D01*
X124744999Y-85867999D02*
X125535001Y-85077997D01*
X124858001Y-100608001D02*
X124858001Y-94790801D01*
X104140000Y-101371400D02*
X104216200Y-101447600D01*
X107696000Y-103124000D02*
X107696000Y-140208000D01*
X104140000Y-86360000D02*
X104140000Y-86690200D01*
X102958900Y-85178900D02*
X104140000Y-86360000D01*
X104140000Y-86690200D02*
X104140000Y-101371400D01*
X83820000Y-100478111D02*
X83769316Y-100528795D01*
X71120000Y-147320000D02*
X66149998Y-142349998D01*
X66149998Y-101491835D02*
X66566843Y-101074990D01*
X66149998Y-142349998D02*
X66149998Y-101491835D01*
X129540000Y-66040000D02*
X128375012Y-67204988D01*
X128375012Y-82237540D02*
X128342563Y-82269989D01*
X128375012Y-67204988D02*
X128375012Y-82237540D01*
X83820000Y-86360000D02*
X83820000Y-86563200D01*
X81280000Y-83820000D02*
X83820000Y-86360000D01*
X83820000Y-86563200D02*
X83820000Y-100478111D01*
X124460000Y-147320000D02*
X122478800Y-145338800D01*
X122478800Y-145338800D02*
X119253000Y-145338800D01*
X119253000Y-145338800D02*
X118364000Y-144449800D01*
X118154990Y-125685010D02*
X119380000Y-124460000D01*
X118364000Y-144449800D02*
X118440200Y-144373600D01*
X118154990Y-127391435D02*
X118154990Y-125685010D01*
X118440200Y-127676645D02*
X118154990Y-127391435D01*
X118440200Y-144373600D02*
X118440200Y-127676645D01*
X111882628Y-86110789D02*
X110767758Y-84995919D01*
X115585820Y-87965663D02*
X113730946Y-86110789D01*
X115585820Y-123174180D02*
X115585820Y-87965663D01*
X114655600Y-124104400D02*
X115585820Y-123174180D01*
X113730946Y-86110789D02*
X111882628Y-86110789D01*
X117983000Y-125432721D02*
X117983000Y-123317000D01*
X117983000Y-144594678D02*
X117983000Y-127643724D01*
X117983000Y-123317000D02*
X119380000Y-121920000D01*
X120289609Y-145689609D02*
X119077931Y-145689609D01*
X117854979Y-125560742D02*
X117983000Y-125432721D01*
X117983000Y-127643724D02*
X117854979Y-127515703D01*
X117854979Y-127515703D02*
X117854979Y-125560742D01*
X121920000Y-147320000D02*
X120289609Y-145689609D01*
X119077931Y-145689609D02*
X117983000Y-144594678D01*
X115285809Y-120934191D02*
X115285809Y-90758315D01*
X114300000Y-121920000D02*
X115285809Y-120934191D01*
X115285809Y-90758315D02*
X110053747Y-85526253D01*
X117682989Y-121897332D02*
X117708389Y-121871932D01*
X117708389Y-119901611D02*
X118230000Y-119380000D01*
X119380000Y-147320000D02*
X117554968Y-145494968D01*
X117554968Y-145494968D02*
X117554968Y-125436474D01*
X117554968Y-125436474D02*
X117682989Y-125308453D01*
X117682989Y-125308453D02*
X117682989Y-121897332D01*
X117708389Y-121871932D02*
X117708389Y-119901611D01*
X118230000Y-119380000D02*
X119380000Y-119380000D01*
X109772942Y-86010699D02*
X109348678Y-86010699D01*
X114223802Y-119380000D02*
X114858800Y-118745002D01*
X114858800Y-118745002D02*
X114858800Y-91096557D01*
X114858800Y-91096557D02*
X109772942Y-86010699D01*
X120700800Y-118160800D02*
X119380000Y-116840000D01*
X120700800Y-138836400D02*
X120700800Y-118160800D01*
X142925800Y-142748000D02*
X143225799Y-142448001D01*
X143225799Y-141432797D02*
X142925800Y-141132798D01*
X143225799Y-142448001D02*
X143225799Y-141432797D01*
X142925800Y-141132798D02*
X142925800Y-122097800D01*
X142371801Y-120096755D02*
X142371801Y-141330401D01*
X142371801Y-141330401D02*
X142671800Y-141630400D01*
X142791278Y-119677278D02*
X142371801Y-120096755D01*
X141732000Y-141757400D02*
X141732000Y-119959554D01*
X141732000Y-119959554D02*
X143302011Y-118389543D01*
X143302011Y-118389543D02*
X143302011Y-117047989D01*
X167238401Y-108193054D02*
X167139600Y-108094253D01*
X167139600Y-108094253D02*
X167139600Y-107669989D01*
X167238401Y-131246601D02*
X167238401Y-108193054D01*
X167538400Y-131546600D02*
X167238401Y-131246601D01*
X174014234Y-120954754D02*
X173714235Y-120654755D01*
X172720000Y-124460000D02*
X174014234Y-123165766D01*
X174014234Y-123165766D02*
X174014234Y-120954754D01*
X162560000Y-119269976D02*
X163885012Y-120594988D01*
X109220000Y-147320000D02*
X110545012Y-145994988D01*
X110545012Y-145994988D02*
X110545012Y-123245012D01*
X110545012Y-123245012D02*
X109220000Y-121920000D01*
X163635001Y-70197399D02*
X162560000Y-71272400D01*
X163635001Y-67115001D02*
X163635001Y-70197399D01*
X162560000Y-66040000D02*
X163635001Y-67115001D01*
X162560000Y-71272400D02*
X162560000Y-119269976D01*
X171424600Y-123215400D02*
X171424600Y-124079000D01*
X172720000Y-121920000D02*
X171424600Y-123215400D01*
X161095001Y-86774601D02*
X162259989Y-87939589D01*
X162458400Y-119592654D02*
X162458400Y-124256800D01*
X162259989Y-87939589D02*
X162259989Y-119394244D01*
X162259989Y-119394244D02*
X162458400Y-119592654D01*
X66802000Y-121666000D02*
X66802000Y-124459996D01*
X66802000Y-124459996D02*
X66801996Y-124460000D01*
X106680000Y-147320000D02*
X107529999Y-146470001D01*
X107529999Y-146470001D02*
X108505557Y-146470001D01*
X110245001Y-128073957D02*
X110245001Y-125485001D01*
X110058200Y-128260758D02*
X110245001Y-128073957D01*
X110245001Y-125485001D02*
X109220000Y-124460000D01*
X110058200Y-144917358D02*
X110058200Y-128260758D01*
X108505557Y-146470001D02*
X110058200Y-144917358D01*
X161095001Y-70044999D02*
X162560000Y-68580000D01*
X161095001Y-86774601D02*
X161095001Y-70044999D01*
X172720000Y-119380000D02*
X170899598Y-121200402D01*
X171348400Y-124779804D02*
X171348400Y-127076200D01*
X170899598Y-121200402D02*
X170899598Y-124331002D01*
X170899598Y-124331002D02*
X171348400Y-124779804D01*
X161950400Y-88366600D02*
X161950400Y-119845590D01*
X160020000Y-86436200D02*
X161950400Y-88366600D01*
X161950400Y-119845590D02*
X161933390Y-119862600D01*
X67437000Y-127127000D02*
X67437000Y-119253000D01*
X104140000Y-147320000D02*
X106100591Y-145359409D01*
X108767593Y-145359409D02*
X109631189Y-144495813D01*
X109631189Y-144495813D02*
X109631189Y-127919189D01*
X106100591Y-145359409D02*
X108767593Y-145359409D01*
X109631189Y-127919189D02*
X109626977Y-127914977D01*
X161095001Y-69613199D02*
X160020000Y-70688200D01*
X161095001Y-67115001D02*
X161095001Y-69613199D01*
X160020000Y-66040000D02*
X161095001Y-67115001D01*
X160020000Y-70688200D02*
X160020000Y-86436200D01*
X161493200Y-88333678D02*
X161493200Y-116797590D01*
X161493200Y-116797590D02*
X161425390Y-116865400D01*
X158555001Y-85395479D02*
X161493200Y-88333678D01*
X68072000Y-116586008D02*
X68072000Y-130301998D01*
X170823398Y-124679080D02*
X170823398Y-127795798D01*
X170823398Y-127795798D02*
X171246800Y-128219200D01*
X170599587Y-124455270D02*
X170823398Y-124679080D01*
X170599587Y-118960413D02*
X170599587Y-124455270D01*
X172720000Y-116840000D02*
X170599587Y-118960413D01*
X109220000Y-130978833D02*
X109106179Y-130865012D01*
X109220000Y-144482724D02*
X109220000Y-130978833D01*
X108694124Y-145008600D02*
X109220000Y-144482724D01*
X103911400Y-145008600D02*
X108694124Y-145008600D01*
X101600000Y-147320000D02*
X103911400Y-145008600D01*
X158555001Y-70044999D02*
X160020000Y-68580000D01*
X158555001Y-85395479D02*
X158555001Y-70044999D01*
X161187199Y-88451956D02*
X161187199Y-113949201D01*
X158254990Y-85034312D02*
X158254990Y-85519747D01*
X158254990Y-85519747D02*
X161187199Y-88451956D01*
X157480000Y-84259322D02*
X158254990Y-85034312D01*
X161187199Y-113949201D02*
X160887200Y-114249200D01*
X68452996Y-114300000D02*
X69007005Y-114854009D01*
X69007005Y-114854009D02*
X69007005Y-132414995D01*
X69007005Y-132414995D02*
X68580000Y-132842000D01*
X170299576Y-124579538D02*
X170523387Y-124803349D01*
X170764734Y-129294805D02*
X170764734Y-129719069D01*
X170523387Y-124803349D02*
X170523387Y-129053458D01*
X172720000Y-114300000D02*
X170299576Y-116720424D01*
X170299576Y-116720424D02*
X170299576Y-124579538D01*
X170523387Y-129053458D02*
X170764734Y-129294805D01*
X101676200Y-144703800D02*
X108574646Y-144703800D01*
X99060000Y-147320000D02*
X101676200Y-144703800D01*
X108694990Y-144583456D02*
X108694990Y-132029200D01*
X108574646Y-144703800D02*
X108694990Y-144583456D01*
X158555001Y-67115001D02*
X158555001Y-69460799D01*
X158555001Y-69460799D02*
X157480000Y-70535800D01*
X157480000Y-66040000D02*
X158555001Y-67115001D01*
X157480000Y-70535800D02*
X157480000Y-84259322D01*
X169999565Y-124703806D02*
X170179034Y-124883274D01*
X170179034Y-124883274D02*
X170179034Y-128544488D01*
X172720000Y-111760000D02*
X169999565Y-114480435D01*
X169999565Y-114480435D02*
X169999565Y-124703806D01*
X170179034Y-128544488D02*
X169851696Y-128871826D01*
X157954979Y-85158579D02*
X157954979Y-85644015D01*
X156015001Y-83218601D02*
X157954979Y-85158579D01*
X157954979Y-85644015D02*
X160587190Y-88276226D01*
X160587190Y-88276226D02*
X160587190Y-111709200D01*
X69469000Y-126619000D02*
X72390000Y-129540000D01*
X69469000Y-111506000D02*
X69469000Y-126619000D01*
X100574999Y-144527480D02*
X100574999Y-128812401D01*
X97972589Y-145867411D02*
X99235068Y-145867411D01*
X96520000Y-147320000D02*
X97972589Y-145867411D01*
X99235068Y-145867411D02*
X100574999Y-144527480D01*
X100574999Y-128812401D02*
X100872401Y-128514999D01*
X156015001Y-70044999D02*
X157480000Y-68580000D01*
X156015001Y-83218601D02*
X156015001Y-70044999D01*
X172720000Y-109220000D02*
X171694999Y-110245001D01*
X171694999Y-110245001D02*
X171694999Y-110346601D01*
X169646600Y-112395000D02*
X169646600Y-125323600D01*
X171694999Y-110346601D02*
X169646600Y-112395000D01*
X160020000Y-88133315D02*
X160020000Y-109245400D01*
X154940000Y-83053316D02*
X160020000Y-88133315D01*
X70022999Y-124632999D02*
X72390000Y-127000000D01*
X70022999Y-109773999D02*
X70022999Y-124632999D01*
X69469000Y-109220000D02*
X70022999Y-109773999D01*
X100274411Y-144193068D02*
X100274411Y-127360389D01*
X93980000Y-147320000D02*
X95732600Y-145567400D01*
X100274411Y-127360389D02*
X100634800Y-127000000D01*
X95732600Y-145567400D02*
X98900079Y-145567400D01*
X98900079Y-145567400D02*
X100274411Y-144193068D01*
X156015001Y-69206799D02*
X154940000Y-70281800D01*
X156015001Y-67115001D02*
X156015001Y-69206799D01*
X154940000Y-66040000D02*
X156015001Y-67115001D01*
X154940000Y-70281800D02*
X154940000Y-83053316D01*
X168816098Y-123451580D02*
X168659069Y-123608609D01*
X168816098Y-110583902D02*
X168816098Y-123451580D01*
X172720000Y-106680000D02*
X168816098Y-110583902D01*
X159494990Y-88909988D02*
X159494990Y-106654600D01*
X153475001Y-82889999D02*
X159494990Y-88909988D01*
X70530999Y-122600999D02*
X72390000Y-124460000D01*
X70530999Y-107106999D02*
X70530999Y-122600999D01*
X70231000Y-106807000D02*
X70530999Y-107106999D01*
X99974400Y-144068800D02*
X99974400Y-123251720D01*
X98806000Y-145237200D02*
X99974400Y-144068800D01*
X91440000Y-147320000D02*
X93522800Y-145237200D01*
X93522800Y-145237200D02*
X98806000Y-145237200D01*
X99974400Y-123251720D02*
X100157660Y-123068460D01*
X153475001Y-70044999D02*
X154940000Y-68580000D01*
X153475001Y-82889999D02*
X153475001Y-70044999D01*
X148545010Y-92348590D02*
X148545010Y-123234990D01*
X148545010Y-123234990D02*
X147320000Y-124460000D01*
X152400000Y-88493600D02*
X148545010Y-92348590D01*
X133397726Y-128287010D02*
X133397726Y-126786727D01*
X134721600Y-125462853D02*
X134721600Y-123799600D01*
X133397726Y-126786727D02*
X134721600Y-125462853D01*
X153475001Y-67115001D02*
X153475001Y-69536999D01*
X152400000Y-66040000D02*
X153475001Y-67115001D01*
X153475001Y-69536999D02*
X152400000Y-70612000D01*
X152400000Y-70612000D02*
X152400000Y-88493600D01*
X150935001Y-79997997D02*
X143814800Y-87118198D01*
X143814800Y-97764600D02*
X144043400Y-97993200D01*
X143814800Y-87118198D02*
X143814800Y-97764600D01*
X135250199Y-126979403D02*
X134518402Y-127711200D01*
X135250199Y-99182199D02*
X135250199Y-126979403D01*
X134950200Y-98882200D02*
X135250199Y-99182199D01*
X150935001Y-70044999D02*
X152400000Y-68580000D01*
X150935001Y-79997997D02*
X150935001Y-70044999D01*
X64850022Y-99818176D02*
X64850022Y-128604024D01*
X64850022Y-128604024D02*
X65176398Y-128930400D01*
X65379598Y-99288600D02*
X64850022Y-99818176D01*
X133089408Y-123966822D02*
X133673907Y-124551321D01*
X133089408Y-122680167D02*
X133089408Y-123966822D01*
X133172200Y-122597375D02*
X133089408Y-122680167D01*
X133172200Y-103428800D02*
X133172200Y-122597375D01*
X143514789Y-103484389D02*
X143814800Y-103784400D01*
X143514789Y-86993930D02*
X143514789Y-103484389D01*
X149860000Y-80648719D02*
X143514789Y-86993930D01*
X150935001Y-69435399D02*
X149860000Y-70510400D01*
X150935001Y-67115001D02*
X150935001Y-69435399D01*
X149860000Y-66040000D02*
X150935001Y-67115001D01*
X149860000Y-70510400D02*
X149860000Y-80648719D01*
X64770000Y-129351802D02*
X64546189Y-129127991D01*
X64546189Y-104970768D02*
X64325021Y-104749600D01*
X64770000Y-132080054D02*
X64770000Y-129351802D01*
X64546189Y-129127991D02*
X64546189Y-104970768D01*
X133070600Y-100736400D02*
X133719859Y-101385659D01*
X133719859Y-101385659D02*
X133719859Y-121859978D01*
X64198988Y-105404400D02*
X63800011Y-105005423D01*
X64770084Y-134340600D02*
X64198988Y-133769504D01*
X64198988Y-133769504D02*
X64198988Y-105404400D01*
X63800011Y-105005423D02*
X63800011Y-102451379D01*
X63800011Y-102451379D02*
X64321190Y-101930200D01*
X148395001Y-70044999D02*
X148395001Y-81388442D01*
X142777010Y-116795988D02*
X142777010Y-118490265D01*
X149860000Y-68580000D02*
X148395001Y-70044999D01*
X141431989Y-119835286D02*
X141431989Y-120188011D01*
X148395001Y-81388442D02*
X142951200Y-86832243D01*
X142777010Y-118490265D02*
X141431989Y-119835286D01*
X142951200Y-116621798D02*
X142777010Y-116795988D01*
X142951200Y-86832243D02*
X142951200Y-116621798D01*
X141431989Y-120188011D02*
X139700000Y-121920000D01*
X51206400Y-137033000D02*
X51206400Y-112979200D01*
X129336800Y-111260390D02*
X129311400Y-111234990D01*
X129336800Y-119430800D02*
X129336800Y-111260390D01*
X142574989Y-86784175D02*
X142574989Y-116505011D01*
X147320000Y-82039164D02*
X142574989Y-86784175D01*
X142574989Y-116505011D02*
X139700000Y-119380000D01*
X148395001Y-67115001D02*
X148395001Y-69282999D01*
X148395001Y-69282999D02*
X147320000Y-70358000D01*
X147320000Y-70358000D02*
X147320000Y-82039164D01*
X147320000Y-66040000D02*
X148395001Y-67115001D01*
X51790600Y-134645400D02*
X51790600Y-117373400D01*
X142274978Y-115415022D02*
X140850000Y-116840000D01*
X145855001Y-83079884D02*
X142274978Y-86659907D01*
X140850000Y-116840000D02*
X139700000Y-116840000D01*
X142274978Y-86659907D02*
X142274978Y-115415022D01*
X145855001Y-70044999D02*
X147320000Y-68580000D01*
X145855001Y-83079884D02*
X145855001Y-70044999D01*
X52125601Y-131653001D02*
X52125601Y-129452387D01*
X52425600Y-131953000D02*
X52125601Y-131653001D01*
X52125601Y-129452387D02*
X52425600Y-129152388D01*
X52425600Y-129152388D02*
X52425600Y-109855000D01*
X132486400Y-114249200D02*
X132486400Y-109221806D01*
X132486400Y-109221806D02*
X131414614Y-108150020D01*
X144780000Y-83730606D02*
X141974967Y-86535639D01*
X140850000Y-114300000D02*
X139700000Y-114300000D01*
X141974967Y-113175033D02*
X140850000Y-114300000D01*
X141974967Y-86535639D02*
X141974967Y-113175033D01*
X144780000Y-66040000D02*
X145855001Y-67115001D01*
X145855001Y-69232199D02*
X144780000Y-70307200D01*
X144780000Y-70307200D02*
X144780000Y-83730606D01*
X145855001Y-67115001D02*
X145855001Y-69232199D01*
X53039989Y-107946399D02*
X52814990Y-107721400D01*
X52814990Y-129540000D02*
X53039989Y-129315001D01*
X53039989Y-129315001D02*
X53039989Y-107946399D01*
X131699000Y-111887000D02*
X130889612Y-111077612D01*
X130889612Y-111077612D02*
X130889612Y-107852772D01*
X130889612Y-107852772D02*
X131798902Y-106943482D01*
X131798902Y-106943482D02*
X131798902Y-106662992D01*
X141674956Y-86411371D02*
X143930001Y-84156326D01*
X139700000Y-111760000D02*
X140850000Y-111760000D01*
X140850000Y-111760000D02*
X141674956Y-110935044D01*
X141674956Y-110935044D02*
X141674956Y-86411371D01*
X143930001Y-84156326D02*
X143930001Y-69429999D01*
X143930001Y-69429999D02*
X144780000Y-68580000D01*
X54381400Y-127000000D02*
X54381400Y-103225600D01*
X130924093Y-107394012D02*
X130189738Y-108128367D01*
X130924093Y-102903790D02*
X130924093Y-107394012D01*
X130189738Y-108128367D02*
X130189738Y-109389204D01*
X140850000Y-109220000D02*
X139700000Y-109220000D01*
X141374945Y-108695055D02*
X140850000Y-109220000D01*
X143315001Y-67115001D02*
X143315001Y-69686489D01*
X143315001Y-69686489D02*
X141374945Y-71626545D01*
X142240000Y-66040000D02*
X143315001Y-67115001D01*
X141374945Y-71626545D02*
X141374945Y-108695055D01*
X54792601Y-124134601D02*
X54792601Y-106217999D01*
X54792601Y-106217999D02*
X55092600Y-105918000D01*
X55092600Y-124434600D02*
X54792601Y-124134601D01*
X140925010Y-105454990D02*
X139700000Y-106680000D01*
X140925010Y-69894990D02*
X142240000Y-68580000D01*
X140925010Y-105454990D02*
X140925010Y-69894990D01*
X55354990Y-121529646D02*
X55354990Y-107761079D01*
X130022600Y-107173619D02*
X129046199Y-108150020D01*
X130022600Y-104114600D02*
X130022600Y-107173619D01*
X138474999Y-98159999D02*
X138474999Y-102914999D01*
X139700000Y-96934998D02*
X138474999Y-98159999D01*
X138474999Y-102914999D02*
X139700000Y-104140000D01*
X140775001Y-67115001D02*
X140775001Y-69536999D01*
X139700000Y-66040000D02*
X140775001Y-67115001D01*
X140775001Y-69536999D02*
X139801600Y-70510400D01*
X139801600Y-70510400D02*
X139700000Y-70510400D01*
X139700000Y-70510400D02*
X139700000Y-96934998D01*
X56438800Y-119354600D02*
X56438800Y-110744000D01*
X136550400Y-98323400D02*
X136550400Y-101600000D01*
X138235001Y-96638799D02*
X136550400Y-98323400D01*
X129812981Y-101786190D02*
X128521198Y-103077973D01*
X128521198Y-103077973D02*
X128521198Y-109522000D01*
X128521198Y-109522000D02*
X129057398Y-110058200D01*
X138235001Y-70044999D02*
X139700000Y-68580000D01*
X138235001Y-96638799D02*
X138235001Y-70044999D01*
X57099200Y-116840000D02*
X57099200Y-115112798D01*
X57099200Y-115112798D02*
X57175400Y-115036598D01*
X137160000Y-93421200D02*
X137058400Y-93522800D01*
X170586400Y-99466400D02*
X170586400Y-95783400D01*
X172720000Y-101600000D02*
X170586400Y-99466400D01*
X87096600Y-144805400D02*
X88900000Y-146608800D01*
X78460600Y-142976600D02*
X80289400Y-144805400D01*
X88900000Y-146608800D02*
X88900000Y-147320000D01*
X78460600Y-113400580D02*
X78460600Y-142976600D01*
X80289400Y-144805400D02*
X87096600Y-144805400D01*
X78460600Y-113400580D02*
X78415010Y-113354990D01*
X138235001Y-69587799D02*
X137160000Y-70662800D01*
X138235001Y-67115001D02*
X138235001Y-69587799D01*
X137160000Y-66040000D02*
X138235001Y-67115001D01*
X137160000Y-70662800D02*
X137160000Y-93421200D01*
X102971600Y-113842800D02*
X102971600Y-94310200D01*
X102971600Y-94310200D02*
X102565200Y-93903800D01*
X172720000Y-99060000D02*
X171521411Y-97861411D01*
X171521411Y-97861411D02*
X171521411Y-95346811D01*
X80314800Y-145313400D02*
X78105000Y-143103600D01*
X78105000Y-143103600D02*
X78105000Y-116219980D01*
X84353400Y-145313400D02*
X80314800Y-145313400D01*
X78105000Y-116219980D02*
X77780010Y-115894990D01*
X86360000Y-147320000D02*
X84353400Y-145313400D01*
X136859990Y-68880010D02*
X136859990Y-68580000D01*
X135695001Y-77080799D02*
X135695001Y-70044999D01*
X134366000Y-78409800D02*
X135695001Y-77080799D01*
X135695001Y-70044999D02*
X136859990Y-68880010D01*
X103581200Y-93412580D02*
X103614990Y-93378790D01*
X103581200Y-116509800D02*
X103581200Y-93412580D01*
X102692200Y-92456000D02*
X103614990Y-93378790D01*
X102692200Y-78511400D02*
X100482400Y-80721200D01*
X100482400Y-89865200D02*
X102692200Y-92075000D01*
X100482400Y-80721200D02*
X100482400Y-89865200D01*
X102692200Y-92075000D02*
X102692200Y-92456000D01*
X58089800Y-118110000D02*
X58039000Y-118160800D01*
X58089800Y-111760000D02*
X58089800Y-118110000D01*
X82219800Y-145719800D02*
X80187800Y-145719800D01*
X77749400Y-118785380D02*
X77399010Y-118434990D01*
X83820000Y-147320000D02*
X82219800Y-145719800D01*
X77749400Y-143281400D02*
X77749400Y-118785380D01*
X80187800Y-145719800D02*
X77749400Y-143281400D01*
X135695001Y-69409999D02*
X133375400Y-71729600D01*
X135695001Y-67115001D02*
X135695001Y-69409999D01*
X133375400Y-71729600D02*
X133375400Y-78943200D01*
X134620000Y-66040000D02*
X135695001Y-67115001D01*
X105105200Y-79476600D02*
X105308400Y-79679800D01*
X105308400Y-91446444D02*
X104871799Y-91883045D01*
X105308400Y-79679800D02*
X105308400Y-91446444D01*
X104871799Y-91883045D02*
X104871799Y-118775201D01*
X104871799Y-118775201D02*
X104571800Y-119075200D01*
X167614600Y-81745590D02*
X165777410Y-79908400D01*
X167614600Y-96494600D02*
X167614600Y-81745590D01*
X58775600Y-120573800D02*
X58826400Y-120624600D01*
X58775600Y-109220000D02*
X58775600Y-120573800D01*
X77425010Y-121020992D02*
X76881009Y-120476991D01*
X81280000Y-147320000D02*
X77425010Y-143465010D01*
X77425010Y-143465010D02*
X77425010Y-121020992D01*
X132461000Y-70739000D02*
X134620000Y-68580000D01*
X132461000Y-79501998D02*
X132461000Y-70739000D01*
X105283000Y-92248848D02*
X105824790Y-91707058D01*
X105646999Y-81009592D02*
X105646999Y-91529267D01*
X105283000Y-121259600D02*
X105283000Y-92248848D01*
X107179991Y-79476600D02*
X105646999Y-81009592D01*
X105646999Y-91529267D02*
X105824790Y-91707058D01*
X60960000Y-77718539D02*
X60960000Y-88900000D01*
X166857389Y-103382789D02*
X166857389Y-81886463D01*
X167182800Y-103708200D02*
X166857389Y-103382789D01*
X166857389Y-81886463D02*
X165777410Y-80806484D01*
X77927200Y-67614800D02*
X77978000Y-67564000D01*
X77927200Y-73863200D02*
X77927200Y-67614800D01*
X76072998Y-75717402D02*
X77927200Y-73863200D01*
X76072998Y-74294998D02*
X75438000Y-73660000D01*
X76072998Y-75717402D02*
X76072998Y-74294998D01*
X50673000Y-105232200D02*
X50165000Y-104724200D01*
X50673000Y-140335000D02*
X50673000Y-105232200D01*
X76200000Y-141478000D02*
X75184000Y-140462000D01*
X76200000Y-147320000D02*
X76200000Y-141478000D01*
X131800600Y-70061481D02*
X131800600Y-81229200D01*
X132080000Y-68580000D02*
X132080000Y-69782081D01*
X132080000Y-69782081D02*
X131800600Y-70061481D01*
X50165000Y-104724200D02*
X50165000Y-83148002D01*
X49484019Y-82467021D02*
X49484019Y-80817985D01*
X50165000Y-83148002D02*
X49484019Y-82467021D01*
X49484019Y-80817985D02*
X50038000Y-80264004D01*
X78740000Y-145643600D02*
X78714600Y-145618200D01*
X78740000Y-147320000D02*
X78740000Y-145643600D01*
X90170000Y-141208996D02*
X89870001Y-141508995D01*
X90170000Y-102489000D02*
X90170000Y-141208996D01*
X89870001Y-141940001D02*
X90170000Y-142240000D01*
X89870001Y-141508995D02*
X89870001Y-141940001D01*
X90170000Y-102489000D02*
X91440000Y-101219000D01*
X91440000Y-101219000D02*
X92465001Y-100193999D01*
X130739039Y-83007838D02*
X130482621Y-83264256D01*
X130739039Y-67380961D02*
X130739039Y-83007838D01*
X132080000Y-66040000D02*
X130739039Y-67380961D01*
X88646000Y-84074000D02*
X88900000Y-83820000D01*
X88900000Y-83820000D02*
X92465001Y-87385001D01*
X92465001Y-87385001D02*
X92465001Y-87639001D01*
X92465001Y-100193999D02*
X92465001Y-87639001D01*
X147320000Y-101600000D02*
X146170000Y-101600000D01*
X145034000Y-102736000D02*
X145034000Y-118854990D01*
X146170000Y-101600000D02*
X145034000Y-102736000D01*
X145796000Y-104514000D02*
X145796000Y-118364000D01*
X146170000Y-104140000D02*
X145796000Y-104514000D01*
X147320000Y-104140000D02*
X146170000Y-104140000D01*
X65849987Y-100436279D02*
X65892403Y-100393863D01*
X65892403Y-100393863D02*
X65892403Y-99969599D01*
X65849987Y-144589987D02*
X65849987Y-100436279D01*
X68580000Y-147320000D02*
X65849987Y-144589987D01*
X129540000Y-82620322D02*
X129257661Y-82902661D01*
X129540000Y-68580000D02*
X129540000Y-82620322D01*
X120905021Y-107694979D02*
X120905021Y-84163102D01*
X119380000Y-109220000D02*
X120905021Y-107694979D01*
X120905021Y-84163102D02*
X119442105Y-82700186D01*
X88061800Y-85521800D02*
X89923522Y-85521800D01*
X86360000Y-83820000D02*
X88061800Y-85521800D01*
X91139989Y-86738267D02*
X91139989Y-93848193D01*
X89923522Y-85521800D02*
X91139989Y-86738267D01*
X91139989Y-93848193D02*
X85089982Y-99898200D01*
X64516000Y-81534000D02*
X63754000Y-81534000D01*
X62991980Y-84081018D02*
X62991980Y-87630020D01*
X64516000Y-82556998D02*
X62991980Y-84081018D01*
X64516000Y-81534000D02*
X64516000Y-82556998D01*
X75488800Y-78536800D02*
X75438000Y-78486000D01*
X75488800Y-81991200D02*
X75488800Y-78536800D01*
X118230000Y-111760000D02*
X116052600Y-109582600D01*
X119380000Y-111760000D02*
X118230000Y-111760000D01*
X116052600Y-86791800D02*
X115544600Y-86283800D01*
X116052600Y-109582600D02*
X116052600Y-86791800D01*
X121361200Y-116281200D02*
X119380000Y-114300000D01*
X121361200Y-133578600D02*
X121361200Y-116281200D01*
X84328000Y-104140000D02*
X84074000Y-104394000D01*
X84328000Y-85852000D02*
X84328000Y-104140000D01*
X128075001Y-69655001D02*
X127000000Y-68580000D01*
X128075001Y-81170199D02*
X128075001Y-69655001D01*
X127000000Y-82245200D02*
X128075001Y-81170199D01*
X62674987Y-134716870D02*
X62674987Y-105854987D01*
X63453989Y-135495872D02*
X62674987Y-134716870D01*
X62674987Y-105854987D02*
X60960000Y-104140000D01*
X63500000Y-147320000D02*
X63500000Y-143680279D01*
X63453989Y-143634268D02*
X63453989Y-135495872D01*
X63500000Y-143680279D02*
X63453989Y-143634268D01*
X120530000Y-114300000D02*
X122624444Y-112205556D01*
X122624444Y-112205556D02*
X122624444Y-92210464D01*
X121928761Y-91514781D02*
X121928761Y-82537769D01*
X119380000Y-114300000D02*
X120530000Y-114300000D01*
X121928761Y-82537769D02*
X121628762Y-82237770D01*
X122624444Y-92210464D02*
X121928761Y-91514781D01*
X84328000Y-84328000D02*
X83820000Y-83820000D01*
X84328000Y-85852000D02*
X84328000Y-84328000D01*
X48996600Y-122732800D02*
X48971200Y-122758200D01*
X48996600Y-97383600D02*
X48996600Y-122732800D01*
X81915000Y-123172990D02*
X82169000Y-122918990D01*
X81915000Y-125476000D02*
X81915000Y-123172990D01*
X181330600Y-89890600D02*
X182880000Y-91440000D01*
X181330600Y-70688200D02*
X181330600Y-89890600D01*
X166166800Y-103657400D02*
X166166800Y-89624379D01*
X166166800Y-89624379D02*
X166332379Y-89458800D01*
X174879000Y-100380800D02*
X174955200Y-100457000D01*
X174879000Y-89027000D02*
X174879000Y-100380800D01*
X175615600Y-98526600D02*
X175615600Y-86410800D01*
X178536600Y-76454000D02*
X177114200Y-77876400D01*
X177114200Y-77876400D02*
X177114200Y-98070011D01*
X180088534Y-116083760D02*
X180153810Y-116149036D01*
X180088534Y-70944734D02*
X180088534Y-116083760D01*
X177673000Y-68529200D02*
X180088534Y-70944734D01*
X180153810Y-116149036D02*
X180153810Y-116573300D01*
X177774600Y-66090800D02*
X180388545Y-68704745D01*
X180388545Y-68704745D02*
X180388545Y-109776545D01*
X180388545Y-109776545D02*
X181356000Y-110744000D01*
X181149861Y-95710139D02*
X181149861Y-102591715D01*
X182880000Y-93980000D02*
X181149861Y-95710139D01*
X181149861Y-102591715D02*
X180913546Y-102828030D01*
X158519947Y-144107710D02*
X158794914Y-144382677D01*
X157480000Y-134620000D02*
X158519947Y-135659947D01*
X158519947Y-135659947D02*
X158519947Y-144107710D01*
X158819958Y-143559177D02*
X159843063Y-144582282D01*
X157480000Y-132080000D02*
X158819958Y-133419958D01*
X158819958Y-133419958D02*
X158819958Y-143559177D01*
X159843063Y-144582282D02*
X159843063Y-145006546D01*
X159119969Y-131179969D02*
X159119969Y-143434909D01*
X159119969Y-143434909D02*
X160663390Y-144978330D01*
X160663390Y-144978330D02*
X160663390Y-145541944D01*
X157480000Y-129540000D02*
X159119969Y-131179969D01*
X159419980Y-143310642D02*
X161213800Y-145104462D01*
X161213800Y-145104462D02*
X161213800Y-146354800D01*
X157480000Y-127000000D02*
X159419980Y-128939980D01*
X159419980Y-128939980D02*
X159419980Y-143310642D01*
X159719991Y-126699991D02*
X159719991Y-143126269D01*
X157480000Y-124460000D02*
X159719991Y-126699991D01*
X159719991Y-143126269D02*
X162335814Y-145742092D01*
X162335814Y-145742092D02*
X162335814Y-146039464D01*
X162533736Y-145515736D02*
X160045400Y-143027400D01*
X163409999Y-146345072D02*
X162580663Y-145515736D01*
X160045400Y-124485400D02*
X157480000Y-121920000D01*
X163409999Y-146470001D02*
X163409999Y-146345072D01*
X162560000Y-147320000D02*
X163409999Y-146470001D01*
X162580663Y-145515736D02*
X162533736Y-145515736D01*
X160045400Y-143027400D02*
X160045400Y-124485400D01*
X157480000Y-119380000D02*
X156302020Y-120557980D01*
X156302020Y-120557980D02*
X156302020Y-143449620D01*
X156302020Y-143449620D02*
X157149800Y-144297400D01*
X155981400Y-144043400D02*
X155981400Y-139108278D01*
X156002009Y-139087669D02*
X156002009Y-118317991D01*
X155981400Y-139108278D02*
X156002009Y-139087669D01*
X156002009Y-118317991D02*
X157480000Y-116840000D01*
X153245632Y-145625632D02*
X153245632Y-114880866D01*
X153245632Y-114880866D02*
X153394698Y-114731800D01*
X154940000Y-147320000D02*
X153245632Y-145625632D01*
X152400000Y-139634158D02*
X152869688Y-139164470D01*
X152869688Y-139164470D02*
X152869688Y-112238999D01*
X152400000Y-147320000D02*
X152400000Y-139634158D01*
X152869688Y-112238999D02*
X153094687Y-112014000D01*
X172720000Y-91440000D02*
X168514551Y-95645449D01*
X168514551Y-95645449D02*
X168514551Y-122967691D01*
X168134068Y-123852176D02*
X168965601Y-124683709D01*
X168134068Y-123348174D02*
X168134068Y-123852176D01*
X168965601Y-124683709D02*
X168965601Y-142981401D01*
X168514551Y-122967691D02*
X168134068Y-123348174D01*
X168965601Y-142981401D02*
X169214800Y-143230600D01*
X168402000Y-124544386D02*
X167834057Y-123976444D01*
X168139602Y-96746602D02*
X168139602Y-93480398D01*
X168402000Y-142595600D02*
X168402000Y-124544386D01*
X167834057Y-123976444D02*
X167834057Y-123223906D01*
X167834057Y-123223906D02*
X168102001Y-122955962D01*
X168102001Y-122955962D02*
X168102001Y-96784203D01*
X168139602Y-93480398D02*
X172720000Y-88900000D01*
X168102001Y-96784203D02*
X168139602Y-96746602D01*
X144780000Y-147320000D02*
X145629999Y-146470001D01*
X145629999Y-146470001D02*
X145629999Y-145979880D01*
X152569677Y-139040202D02*
X152569677Y-109944990D01*
X145629999Y-145979880D02*
X152569677Y-139040202D01*
X152569677Y-109944990D02*
X152794676Y-109719991D01*
X152269666Y-138915934D02*
X152269666Y-107216734D01*
X142240000Y-147320000D02*
X143637000Y-145923000D01*
X145262600Y-145923000D02*
X152269666Y-138915934D01*
X143637000Y-145923000D02*
X145262600Y-145923000D01*
X152269666Y-107216734D02*
X152628600Y-106857800D01*
X151969655Y-138555545D02*
X151969655Y-105516313D01*
X139700000Y-147320000D02*
X141528800Y-145491200D01*
X151969655Y-105516313D02*
X152169178Y-105316790D01*
X141528800Y-145491200D02*
X145034000Y-145491200D01*
X145034000Y-145491200D02*
X151969655Y-138555545D01*
X137160000Y-147320000D02*
X139471400Y-145008600D01*
X151669644Y-138144356D02*
X151669644Y-105746350D01*
X151644177Y-102840455D02*
X151894643Y-102589989D01*
X144805400Y-145008600D02*
X151669644Y-138144356D01*
X151669644Y-105746350D02*
X151644177Y-105720883D01*
X151644177Y-105720883D02*
X151644177Y-102840455D01*
X139471400Y-145008600D02*
X144805400Y-145008600D01*
X151369633Y-105870618D02*
X151344166Y-105845151D01*
X151344166Y-101817530D02*
X151594632Y-101567064D01*
X144373600Y-144653000D02*
X151369633Y-137656967D01*
X137287000Y-144653000D02*
X144373600Y-144653000D01*
X151344166Y-105845151D02*
X151344166Y-101817530D01*
X134620000Y-147320000D02*
X137287000Y-144653000D01*
X151594632Y-101567064D02*
X151594632Y-101142800D01*
X151369633Y-137656967D02*
X151369633Y-105870618D01*
X144145000Y-144195800D02*
X151069622Y-137271178D01*
X132080000Y-147320000D02*
X135204200Y-144195800D01*
X151069622Y-137271178D02*
X151069622Y-105994886D01*
X151044155Y-98612445D02*
X151561800Y-98094800D01*
X151069622Y-105994886D02*
X151044155Y-105969419D01*
X135204200Y-144195800D02*
X144145000Y-144195800D01*
X151044155Y-105969419D02*
X151044155Y-98612445D01*
X150728401Y-96642199D02*
X151028400Y-96342200D01*
X150769611Y-106119154D02*
X150728401Y-106077944D01*
X148545010Y-139135390D02*
X150769611Y-136910789D01*
X150769611Y-136910789D02*
X150769611Y-106119154D01*
X148545010Y-139186190D02*
X148545010Y-139135390D01*
X143967200Y-143764000D02*
X148545010Y-139186190D01*
X133096000Y-143764000D02*
X143967200Y-143764000D01*
X150728401Y-106077944D02*
X150728401Y-96642199D01*
X129540000Y-147320000D02*
X133096000Y-143764000D01*
X130987800Y-143332200D02*
X143789400Y-143332200D01*
X150265649Y-92262261D02*
X150565648Y-91962262D01*
X143789400Y-143332200D02*
X150265649Y-136855951D01*
X127000000Y-147320000D02*
X130987800Y-143332200D01*
X150265649Y-136855951D02*
X150265649Y-92262261D01*
X46990000Y-79375000D02*
X46990000Y-86614000D01*
X56405001Y-75674999D02*
X56896000Y-75184000D01*
X56405001Y-84707001D02*
X56405001Y-75674999D01*
X55880000Y-85232002D02*
X56405001Y-84707001D01*
X55880000Y-147320000D02*
X55880000Y-85232002D01*
X121920000Y-66040000D02*
X123367800Y-67487800D01*
X123367800Y-67487800D02*
X123367800Y-74929998D01*
X125924999Y-67115001D02*
X125924999Y-70154120D01*
X127000000Y-66040000D02*
X125924999Y-67115001D01*
X125924999Y-70154120D02*
X126246399Y-70475520D01*
X126246399Y-70475520D02*
X126246399Y-80660639D01*
X66040000Y-147320000D02*
X66040000Y-145796000D01*
X66040000Y-145796000D02*
X63754000Y-143510000D01*
X63754000Y-127015002D02*
X63796401Y-126972601D01*
X63754000Y-143510000D02*
X63754000Y-127015002D01*
X63796401Y-126972601D02*
X63796401Y-107992401D01*
X63796401Y-107992401D02*
X63500000Y-107696000D01*
X63500000Y-107696000D02*
X63500000Y-98044000D01*
X66665999Y-94878001D02*
X66665999Y-80400001D01*
X63500000Y-98044000D02*
X66665999Y-94878001D01*
X83058000Y-78486000D02*
X83058000Y-78908222D01*
X83058000Y-78908222D02*
X81046611Y-80919611D01*
D30*
X48260000Y-68981002D02*
X48260000Y-67945000D01*
D31*
X176555400Y-83802990D02*
X176589190Y-83769200D01*
X176555400Y-115316000D02*
X176555400Y-83802990D01*
X178384200Y-81280000D02*
X178384200Y-109755194D01*
X178384200Y-109755194D02*
X178469003Y-109839997D01*
X178469003Y-109839997D02*
X178469003Y-110343999D01*
X178469003Y-110343999D02*
X178384200Y-110428802D01*
X178384200Y-110428802D02*
X178384200Y-112318800D01*
X177719011Y-80344989D02*
X177719011Y-96754207D01*
X177719011Y-96754207D02*
X177944002Y-96979198D01*
X178739800Y-79324200D02*
X177719011Y-80344989D01*
X177944002Y-96979198D02*
X177944002Y-110091998D01*
X107705001Y-89017999D02*
X106349800Y-90373200D01*
X106349800Y-118414800D02*
X106299000Y-118465600D01*
X106349800Y-90373200D02*
X106349800Y-118414800D01*
X125222000Y-125222000D02*
X127000000Y-127000000D01*
X125222000Y-117398800D02*
X125222000Y-125222000D01*
X106045000Y-69977000D02*
X107705001Y-71637001D01*
X107705001Y-71637001D02*
X107705001Y-89017999D01*
X106045000Y-68580000D02*
X106045000Y-69977000D01*
X165252400Y-81102200D02*
X165252400Y-68732400D01*
X163474400Y-82880200D02*
X165252400Y-81102200D01*
X165252400Y-68732400D02*
X165100000Y-68580000D01*
X119380000Y-106680000D02*
X116560598Y-103860598D01*
X116560598Y-103860598D02*
X116560598Y-84201000D01*
X106680000Y-88263787D02*
X106825223Y-88409010D01*
X106680000Y-83820000D02*
X106680000Y-88263787D01*
M02*
