G04 #@! TF.GenerationSoftware,KiCad,Pcbnew,(5.1.10-1-10_14)*
G04 #@! TF.CreationDate,2021-11-19T10:15:32+01:00*
G04 #@! TF.ProjectId,mainboard_v3,6d61696e-626f-4617-9264-5f76332e6b69,rev?*
G04 #@! TF.SameCoordinates,Original*
G04 #@! TF.FileFunction,Legend,Top*
G04 #@! TF.FilePolarity,Positive*
%FSLAX46Y46*%
G04 Gerber Fmt 4.6, Leading zero omitted, Abs format (unit mm)*
G04 Created by KiCad (PCBNEW (5.1.10-1-10_14)) date 2021-11-19 10:15:32*
%MOMM*%
%LPD*%
G01*
G04 APERTURE LIST*
%ADD10C,0.150000*%
%ADD11C,0.120000*%
%ADD12O,2.200000X2.200000*%
%ADD13R,2.200000X2.200000*%
%ADD14O,1.700000X1.700000*%
%ADD15R,1.700000X1.700000*%
%ADD16O,1.600000X1.600000*%
%ADD17R,1.600000X1.600000*%
%ADD18O,2.000000X1.440000*%
%ADD19R,2.000000X1.440000*%
%ADD20C,1.500000*%
%ADD21C,1.600000*%
%ADD22C,1.800000*%
%ADD23R,1.800000X1.800000*%
%ADD24O,1.700000X2.000000*%
%ADD25C,2.000000*%
%ADD26C,1.700000*%
%ADD27R,1.050000X1.500000*%
%ADD28O,1.050000X1.500000*%
%ADD29C,3.000000*%
%ADD30C,4.700000*%
G04 APERTURE END LIST*
D10*
X93424952Y-70572380D02*
X93424952Y-71286666D01*
X93377333Y-71429523D01*
X93282095Y-71524761D01*
X93139238Y-71572380D01*
X93044000Y-71572380D01*
X94377333Y-71572380D02*
X93901142Y-71572380D01*
X93901142Y-70572380D01*
X95282095Y-71477142D02*
X95234476Y-71524761D01*
X95091619Y-71572380D01*
X94996380Y-71572380D01*
X94853523Y-71524761D01*
X94758285Y-71429523D01*
X94710666Y-71334285D01*
X94663047Y-71143809D01*
X94663047Y-71000952D01*
X94710666Y-70810476D01*
X94758285Y-70715238D01*
X94853523Y-70620000D01*
X94996380Y-70572380D01*
X95091619Y-70572380D01*
X95234476Y-70620000D01*
X95282095Y-70667619D01*
X95996380Y-70572380D02*
X95996380Y-71286666D01*
X95948761Y-71429523D01*
X95853523Y-71524761D01*
X95710666Y-71572380D01*
X95615428Y-71572380D01*
X96948761Y-71572380D02*
X96472571Y-71572380D01*
X96472571Y-70572380D01*
X97853523Y-71477142D02*
X97805904Y-71524761D01*
X97663047Y-71572380D01*
X97567809Y-71572380D01*
X97424952Y-71524761D01*
X97329714Y-71429523D01*
X97282095Y-71334285D01*
X97234476Y-71143809D01*
X97234476Y-71000952D01*
X97282095Y-70810476D01*
X97329714Y-70715238D01*
X97424952Y-70620000D01*
X97567809Y-70572380D01*
X97663047Y-70572380D01*
X97805904Y-70620000D01*
X97853523Y-70667619D01*
X98567809Y-70572380D02*
X98567809Y-71286666D01*
X98520190Y-71429523D01*
X98424952Y-71524761D01*
X98282095Y-71572380D01*
X98186857Y-71572380D01*
X99520190Y-71572380D02*
X99044000Y-71572380D01*
X99044000Y-70572380D01*
X100424952Y-71477142D02*
X100377333Y-71524761D01*
X100234476Y-71572380D01*
X100139238Y-71572380D01*
X99996380Y-71524761D01*
X99901142Y-71429523D01*
X99853523Y-71334285D01*
X99805904Y-71143809D01*
X99805904Y-71000952D01*
X99853523Y-70810476D01*
X99901142Y-70715238D01*
X99996380Y-70620000D01*
X100139238Y-70572380D01*
X100234476Y-70572380D01*
X100377333Y-70620000D01*
X100424952Y-70667619D01*
X101139238Y-70572380D02*
X101139238Y-71286666D01*
X101091619Y-71429523D01*
X100996380Y-71524761D01*
X100853523Y-71572380D01*
X100758285Y-71572380D01*
X102091619Y-71572380D02*
X101615428Y-71572380D01*
X101615428Y-70572380D01*
X102996380Y-71477142D02*
X102948761Y-71524761D01*
X102805904Y-71572380D01*
X102710666Y-71572380D01*
X102567809Y-71524761D01*
X102472571Y-71429523D01*
X102424952Y-71334285D01*
X102377333Y-71143809D01*
X102377333Y-71000952D01*
X102424952Y-70810476D01*
X102472571Y-70715238D01*
X102567809Y-70620000D01*
X102710666Y-70572380D01*
X102805904Y-70572380D01*
X102948761Y-70620000D01*
X102996380Y-70667619D01*
X123545000Y-78388500D02*
X123545000Y-77388500D01*
X124912380Y-77578976D02*
X124436190Y-77912309D01*
X124912380Y-78150404D02*
X123912380Y-78150404D01*
X123912380Y-77769452D01*
X123960000Y-77674214D01*
X124007619Y-77626595D01*
X124102857Y-77578976D01*
X124245714Y-77578976D01*
X124340952Y-77626595D01*
X124388571Y-77674214D01*
X124436190Y-77769452D01*
X124436190Y-78150404D01*
X123545000Y-77388500D02*
X123545000Y-76483738D01*
X124388571Y-77150404D02*
X124388571Y-76817071D01*
X124912380Y-76674214D02*
X124912380Y-77150404D01*
X123912380Y-77150404D01*
X123912380Y-76674214D01*
X123545000Y-76483738D02*
X123545000Y-75626595D01*
X124626666Y-76293261D02*
X124626666Y-75817071D01*
X124912380Y-76388500D02*
X123912380Y-76055166D01*
X124912380Y-75721833D01*
X123545000Y-75626595D02*
X123545000Y-74626595D01*
X124912380Y-75388500D02*
X123912380Y-75388500D01*
X123912380Y-75150404D01*
X123960000Y-75007547D01*
X124055238Y-74912309D01*
X124150476Y-74864690D01*
X124340952Y-74817071D01*
X124483809Y-74817071D01*
X124674285Y-74864690D01*
X124769523Y-74912309D01*
X124864761Y-75007547D01*
X124912380Y-75150404D01*
X124912380Y-75388500D01*
X131419000Y-78388500D02*
X131419000Y-77388500D01*
X132786380Y-77578976D02*
X132310190Y-77912309D01*
X132786380Y-78150404D02*
X131786380Y-78150404D01*
X131786380Y-77769452D01*
X131834000Y-77674214D01*
X131881619Y-77626595D01*
X131976857Y-77578976D01*
X132119714Y-77578976D01*
X132214952Y-77626595D01*
X132262571Y-77674214D01*
X132310190Y-77769452D01*
X132310190Y-78150404D01*
X131419000Y-77388500D02*
X131419000Y-76340880D01*
X131786380Y-76959928D02*
X131786380Y-76769452D01*
X131834000Y-76674214D01*
X131929238Y-76578976D01*
X132119714Y-76531357D01*
X132453047Y-76531357D01*
X132643523Y-76578976D01*
X132738761Y-76674214D01*
X132786380Y-76769452D01*
X132786380Y-76959928D01*
X132738761Y-77055166D01*
X132643523Y-77150404D01*
X132453047Y-77198023D01*
X132119714Y-77198023D01*
X131929238Y-77150404D01*
X131834000Y-77055166D01*
X131786380Y-76959928D01*
X131419000Y-76340880D02*
X131419000Y-75198023D01*
X132786380Y-76102785D02*
X131786380Y-76102785D01*
X132500666Y-75769452D01*
X131786380Y-75436119D01*
X132786380Y-75436119D01*
X131419000Y-75198023D02*
X131419000Y-74055166D01*
X131786380Y-75055166D02*
X132786380Y-74817071D01*
X132072095Y-74626595D01*
X132786380Y-74436119D01*
X131786380Y-74198023D01*
X46358561Y-63536580D02*
X45882371Y-63536580D01*
X45834752Y-64012771D01*
X45882371Y-63965152D01*
X45977609Y-63917533D01*
X46215704Y-63917533D01*
X46310942Y-63965152D01*
X46358561Y-64012771D01*
X46406180Y-64108009D01*
X46406180Y-64346104D01*
X46358561Y-64441342D01*
X46310942Y-64488961D01*
X46215704Y-64536580D01*
X45977609Y-64536580D01*
X45882371Y-64488961D01*
X45834752Y-64441342D01*
X46691895Y-63536580D02*
X47025228Y-64536580D01*
X47358561Y-63536580D01*
X48929990Y-63536580D02*
X48453800Y-63536580D01*
X48406180Y-64012771D01*
X48453800Y-63965152D01*
X48549038Y-63917533D01*
X48787133Y-63917533D01*
X48882371Y-63965152D01*
X48929990Y-64012771D01*
X48977609Y-64108009D01*
X48977609Y-64346104D01*
X48929990Y-64441342D01*
X48882371Y-64488961D01*
X48787133Y-64536580D01*
X48549038Y-64536580D01*
X48453800Y-64488961D01*
X48406180Y-64441342D01*
X49596657Y-63536580D02*
X49691895Y-63536580D01*
X49787133Y-63584200D01*
X49834752Y-63631819D01*
X49882371Y-63727057D01*
X49929990Y-63917533D01*
X49929990Y-64155628D01*
X49882371Y-64346104D01*
X49834752Y-64441342D01*
X49787133Y-64488961D01*
X49691895Y-64536580D01*
X49596657Y-64536580D01*
X49501419Y-64488961D01*
X49453800Y-64441342D01*
X49406180Y-64346104D01*
X49358561Y-64155628D01*
X49358561Y-63917533D01*
X49406180Y-63727057D01*
X49453800Y-63631819D01*
X49501419Y-63584200D01*
X49596657Y-63536580D01*
X50549038Y-63536580D02*
X50644276Y-63536580D01*
X50739514Y-63584200D01*
X50787133Y-63631819D01*
X50834752Y-63727057D01*
X50882371Y-63917533D01*
X50882371Y-64155628D01*
X50834752Y-64346104D01*
X50787133Y-64441342D01*
X50739514Y-64488961D01*
X50644276Y-64536580D01*
X50549038Y-64536580D01*
X50453800Y-64488961D01*
X50406180Y-64441342D01*
X50358561Y-64346104D01*
X50310942Y-64155628D01*
X50310942Y-63917533D01*
X50358561Y-63727057D01*
X50406180Y-63631819D01*
X50453800Y-63584200D01*
X50549038Y-63536580D01*
X51310942Y-64536580D02*
X51310942Y-63869914D01*
X51310942Y-63965152D02*
X51358561Y-63917533D01*
X51453800Y-63869914D01*
X51596657Y-63869914D01*
X51691895Y-63917533D01*
X51739514Y-64012771D01*
X51739514Y-64536580D01*
X51739514Y-64012771D02*
X51787133Y-63917533D01*
X51882371Y-63869914D01*
X52025228Y-63869914D01*
X52120466Y-63917533D01*
X52168085Y-64012771D01*
X52168085Y-64536580D01*
X52596657Y-64250866D02*
X53072847Y-64250866D01*
X52501419Y-64536580D02*
X52834752Y-63536580D01*
X53168085Y-64536580D01*
D11*
X168021000Y-78994000D02*
X119126000Y-78994000D01*
D10*
X167219380Y-78150404D02*
X168028904Y-78150404D01*
X168124142Y-78102785D01*
X168171761Y-78055166D01*
X168219380Y-77959928D01*
X168219380Y-77769452D01*
X168171761Y-77674214D01*
X168124142Y-77626595D01*
X168028904Y-77578976D01*
X167219380Y-77578976D01*
X167219380Y-76674214D02*
X167219380Y-76864690D01*
X167267000Y-76959928D01*
X167314619Y-77007547D01*
X167457476Y-77102785D01*
X167647952Y-77150404D01*
X168028904Y-77150404D01*
X168124142Y-77102785D01*
X168171761Y-77055166D01*
X168219380Y-76959928D01*
X168219380Y-76769452D01*
X168171761Y-76674214D01*
X168124142Y-76626595D01*
X168028904Y-76578976D01*
X167790809Y-76578976D01*
X167695571Y-76626595D01*
X167647952Y-76674214D01*
X167600333Y-76769452D01*
X167600333Y-76959928D01*
X167647952Y-77055166D01*
X167695571Y-77102785D01*
X167790809Y-77150404D01*
X167171761Y-75436119D02*
X168457476Y-76293261D01*
X168219380Y-74578976D02*
X168219380Y-75150404D01*
X168219380Y-74864690D02*
X167219380Y-74864690D01*
X167362238Y-74959928D01*
X167457476Y-75055166D01*
X167505095Y-75150404D01*
X167219380Y-74245642D02*
X167219380Y-73578976D01*
X168219380Y-74007547D01*
X164679380Y-78150404D02*
X165488904Y-78150404D01*
X165584142Y-78102785D01*
X165631761Y-78055166D01*
X165679380Y-77959928D01*
X165679380Y-77769452D01*
X165631761Y-77674214D01*
X165584142Y-77626595D01*
X165488904Y-77578976D01*
X164679380Y-77578976D01*
X164679380Y-76674214D02*
X164679380Y-76864690D01*
X164727000Y-76959928D01*
X164774619Y-77007547D01*
X164917476Y-77102785D01*
X165107952Y-77150404D01*
X165488904Y-77150404D01*
X165584142Y-77102785D01*
X165631761Y-77055166D01*
X165679380Y-76959928D01*
X165679380Y-76769452D01*
X165631761Y-76674214D01*
X165584142Y-76626595D01*
X165488904Y-76578976D01*
X165250809Y-76578976D01*
X165155571Y-76626595D01*
X165107952Y-76674214D01*
X165060333Y-76769452D01*
X165060333Y-76959928D01*
X165107952Y-77055166D01*
X165155571Y-77102785D01*
X165250809Y-77150404D01*
X164631761Y-75436119D02*
X165917476Y-76293261D01*
X164679380Y-75198023D02*
X164679380Y-74578976D01*
X165060333Y-74912309D01*
X165060333Y-74769452D01*
X165107952Y-74674214D01*
X165155571Y-74626595D01*
X165250809Y-74578976D01*
X165488904Y-74578976D01*
X165584142Y-74626595D01*
X165631761Y-74674214D01*
X165679380Y-74769452D01*
X165679380Y-75055166D01*
X165631761Y-75150404D01*
X165584142Y-75198023D01*
X164806380Y-84885214D02*
X164806380Y-84694738D01*
X164854000Y-84599500D01*
X164949238Y-84504261D01*
X165139714Y-84456642D01*
X165473047Y-84456642D01*
X165663523Y-84504261D01*
X165758761Y-84599500D01*
X165806380Y-84694738D01*
X165806380Y-84885214D01*
X165758761Y-84980452D01*
X165663523Y-85075690D01*
X165473047Y-85123309D01*
X165139714Y-85123309D01*
X164949238Y-85075690D01*
X164854000Y-84980452D01*
X164806380Y-84885214D01*
X165758761Y-84075690D02*
X165806380Y-83932833D01*
X165806380Y-83694738D01*
X165758761Y-83599500D01*
X165711142Y-83551880D01*
X165615904Y-83504261D01*
X165520666Y-83504261D01*
X165425428Y-83551880D01*
X165377809Y-83599500D01*
X165330190Y-83694738D01*
X165282571Y-83885214D01*
X165234952Y-83980452D01*
X165187333Y-84028071D01*
X165092095Y-84075690D01*
X164996857Y-84075690D01*
X164901619Y-84028071D01*
X164854000Y-83980452D01*
X164806380Y-83885214D01*
X164806380Y-83647119D01*
X164854000Y-83504261D01*
X165711142Y-82504261D02*
X165758761Y-82551880D01*
X165806380Y-82694738D01*
X165806380Y-82789976D01*
X165758761Y-82932833D01*
X165663523Y-83028071D01*
X165568285Y-83075690D01*
X165377809Y-83123309D01*
X165234952Y-83123309D01*
X165044476Y-83075690D01*
X164949238Y-83028071D01*
X164854000Y-82932833D01*
X164806380Y-82789976D01*
X164806380Y-82694738D01*
X164854000Y-82551880D01*
X164901619Y-82504261D01*
X165901619Y-82313785D02*
X165901619Y-81551880D01*
X165282571Y-81313785D02*
X165282571Y-80980452D01*
X165806380Y-80837595D02*
X165806380Y-81313785D01*
X164806380Y-81313785D01*
X164806380Y-80837595D01*
X165806380Y-80409023D02*
X164806380Y-80409023D01*
X165806380Y-79837595D01*
X164806380Y-79837595D01*
X163393380Y-81313785D02*
X162393380Y-81313785D01*
X162393380Y-81075690D01*
X162441000Y-80932833D01*
X162536238Y-80837595D01*
X162631476Y-80789976D01*
X162821952Y-80742357D01*
X162964809Y-80742357D01*
X163155285Y-80789976D01*
X163250523Y-80837595D01*
X163345761Y-80932833D01*
X163393380Y-81075690D01*
X163393380Y-81313785D01*
X162393380Y-79885214D02*
X162393380Y-80075690D01*
X162441000Y-80170928D01*
X162488619Y-80218547D01*
X162631476Y-80313785D01*
X162821952Y-80361404D01*
X163202904Y-80361404D01*
X163298142Y-80313785D01*
X163345761Y-80266166D01*
X163393380Y-80170928D01*
X163393380Y-79980452D01*
X163345761Y-79885214D01*
X163298142Y-79837595D01*
X163202904Y-79789976D01*
X162964809Y-79789976D01*
X162869571Y-79837595D01*
X162821952Y-79885214D01*
X162774333Y-79980452D01*
X162774333Y-80170928D01*
X162821952Y-80266166D01*
X162869571Y-80313785D01*
X162964809Y-80361404D01*
X160853380Y-81313785D02*
X159853380Y-81313785D01*
X159853380Y-81075690D01*
X159901000Y-80932833D01*
X159996238Y-80837595D01*
X160091476Y-80789976D01*
X160281952Y-80742357D01*
X160424809Y-80742357D01*
X160615285Y-80789976D01*
X160710523Y-80837595D01*
X160805761Y-80932833D01*
X160853380Y-81075690D01*
X160853380Y-81313785D01*
X160186714Y-79885214D02*
X160853380Y-79885214D01*
X159805761Y-80123309D02*
X160520047Y-80361404D01*
X160520047Y-79742357D01*
X158313380Y-81313785D02*
X157313380Y-81313785D01*
X157313380Y-81075690D01*
X157361000Y-80932833D01*
X157456238Y-80837595D01*
X157551476Y-80789976D01*
X157741952Y-80742357D01*
X157884809Y-80742357D01*
X158075285Y-80789976D01*
X158170523Y-80837595D01*
X158265761Y-80932833D01*
X158313380Y-81075690D01*
X158313380Y-81313785D01*
X157408619Y-80361404D02*
X157361000Y-80313785D01*
X157313380Y-80218547D01*
X157313380Y-79980452D01*
X157361000Y-79885214D01*
X157408619Y-79837595D01*
X157503857Y-79789976D01*
X157599095Y-79789976D01*
X157741952Y-79837595D01*
X158313380Y-80409023D01*
X158313380Y-79789976D01*
X155773380Y-81313785D02*
X154773380Y-81313785D01*
X154773380Y-81075690D01*
X154821000Y-80932833D01*
X154916238Y-80837595D01*
X155011476Y-80789976D01*
X155201952Y-80742357D01*
X155344809Y-80742357D01*
X155535285Y-80789976D01*
X155630523Y-80837595D01*
X155725761Y-80932833D01*
X155773380Y-81075690D01*
X155773380Y-81313785D01*
X154773380Y-80123309D02*
X154773380Y-80028071D01*
X154821000Y-79932833D01*
X154868619Y-79885214D01*
X154963857Y-79837595D01*
X155154333Y-79789976D01*
X155392428Y-79789976D01*
X155582904Y-79837595D01*
X155678142Y-79885214D01*
X155725761Y-79932833D01*
X155773380Y-80028071D01*
X155773380Y-80123309D01*
X155725761Y-80218547D01*
X155678142Y-80266166D01*
X155582904Y-80313785D01*
X155392428Y-80361404D01*
X155154333Y-80361404D01*
X154963857Y-80313785D01*
X154868619Y-80266166D01*
X154821000Y-80218547D01*
X154773380Y-80123309D01*
X152947666Y-82170928D02*
X152947666Y-81694738D01*
X153233380Y-82266166D02*
X152233380Y-81932833D01*
X153233380Y-81599500D01*
X153233380Y-80742357D02*
X153233380Y-81313785D01*
X153233380Y-81028071D02*
X152233380Y-81028071D01*
X152376238Y-81123309D01*
X152471476Y-81218547D01*
X152519095Y-81313785D01*
X152566714Y-79885214D02*
X153233380Y-79885214D01*
X152185761Y-80123309D02*
X152900047Y-80361404D01*
X152900047Y-79742357D01*
X150407666Y-82170928D02*
X150407666Y-81694738D01*
X150693380Y-82266166D02*
X149693380Y-81932833D01*
X150693380Y-81599500D01*
X150693380Y-80742357D02*
X150693380Y-81313785D01*
X150693380Y-81028071D02*
X149693380Y-81028071D01*
X149836238Y-81123309D01*
X149931476Y-81218547D01*
X149979095Y-81313785D01*
X149788619Y-80361404D02*
X149741000Y-80313785D01*
X149693380Y-80218547D01*
X149693380Y-79980452D01*
X149741000Y-79885214D01*
X149788619Y-79837595D01*
X149883857Y-79789976D01*
X149979095Y-79789976D01*
X150121952Y-79837595D01*
X150693380Y-80409023D01*
X150693380Y-79789976D01*
X147867666Y-82170928D02*
X147867666Y-81694738D01*
X148153380Y-82266166D02*
X147153380Y-81932833D01*
X148153380Y-81599500D01*
X148153380Y-80742357D02*
X148153380Y-81313785D01*
X148153380Y-81028071D02*
X147153380Y-81028071D01*
X147296238Y-81123309D01*
X147391476Y-81218547D01*
X147439095Y-81313785D01*
X147153380Y-80123309D02*
X147153380Y-80028071D01*
X147201000Y-79932833D01*
X147248619Y-79885214D01*
X147343857Y-79837595D01*
X147534333Y-79789976D01*
X147772428Y-79789976D01*
X147962904Y-79837595D01*
X148058142Y-79885214D01*
X148105761Y-79932833D01*
X148153380Y-80028071D01*
X148153380Y-80123309D01*
X148105761Y-80218547D01*
X148058142Y-80266166D01*
X147962904Y-80313785D01*
X147772428Y-80361404D01*
X147534333Y-80361404D01*
X147343857Y-80313785D01*
X147248619Y-80266166D01*
X147201000Y-80218547D01*
X147153380Y-80123309D01*
X145327666Y-81218547D02*
X145327666Y-80742357D01*
X145613380Y-81313785D02*
X144613380Y-80980452D01*
X145613380Y-80647119D01*
X145041952Y-80170928D02*
X144994333Y-80266166D01*
X144946714Y-80313785D01*
X144851476Y-80361404D01*
X144803857Y-80361404D01*
X144708619Y-80313785D01*
X144661000Y-80266166D01*
X144613380Y-80170928D01*
X144613380Y-79980452D01*
X144661000Y-79885214D01*
X144708619Y-79837595D01*
X144803857Y-79789976D01*
X144851476Y-79789976D01*
X144946714Y-79837595D01*
X144994333Y-79885214D01*
X145041952Y-79980452D01*
X145041952Y-80170928D01*
X145089571Y-80266166D01*
X145137190Y-80313785D01*
X145232428Y-80361404D01*
X145422904Y-80361404D01*
X145518142Y-80313785D01*
X145565761Y-80266166D01*
X145613380Y-80170928D01*
X145613380Y-79980452D01*
X145565761Y-79885214D01*
X145518142Y-79837595D01*
X145422904Y-79789976D01*
X145232428Y-79789976D01*
X145137190Y-79837595D01*
X145089571Y-79885214D01*
X145041952Y-79980452D01*
X142787666Y-81218547D02*
X142787666Y-80742357D01*
X143073380Y-81313785D02*
X142073380Y-80980452D01*
X143073380Y-80647119D01*
X142073380Y-79885214D02*
X142073380Y-80075690D01*
X142121000Y-80170928D01*
X142168619Y-80218547D01*
X142311476Y-80313785D01*
X142501952Y-80361404D01*
X142882904Y-80361404D01*
X142978142Y-80313785D01*
X143025761Y-80266166D01*
X143073380Y-80170928D01*
X143073380Y-79980452D01*
X143025761Y-79885214D01*
X142978142Y-79837595D01*
X142882904Y-79789976D01*
X142644809Y-79789976D01*
X142549571Y-79837595D01*
X142501952Y-79885214D01*
X142454333Y-79980452D01*
X142454333Y-80170928D01*
X142501952Y-80266166D01*
X142549571Y-80313785D01*
X142644809Y-80361404D01*
X140247666Y-81218547D02*
X140247666Y-80742357D01*
X140533380Y-81313785D02*
X139533380Y-80980452D01*
X140533380Y-80647119D01*
X139866714Y-79885214D02*
X140533380Y-79885214D01*
X139485761Y-80123309D02*
X140200047Y-80361404D01*
X140200047Y-79742357D01*
X137707666Y-81218547D02*
X137707666Y-80742357D01*
X137993380Y-81313785D02*
X136993380Y-80980452D01*
X137993380Y-80647119D01*
X137088619Y-80361404D02*
X137041000Y-80313785D01*
X136993380Y-80218547D01*
X136993380Y-79980452D01*
X137041000Y-79885214D01*
X137088619Y-79837595D01*
X137183857Y-79789976D01*
X137279095Y-79789976D01*
X137421952Y-79837595D01*
X137993380Y-80409023D01*
X137993380Y-79789976D01*
X135167666Y-81218547D02*
X135167666Y-80742357D01*
X135453380Y-81313785D02*
X134453380Y-80980452D01*
X135453380Y-80647119D01*
X134453380Y-80123309D02*
X134453380Y-80028071D01*
X134501000Y-79932833D01*
X134548619Y-79885214D01*
X134643857Y-79837595D01*
X134834333Y-79789976D01*
X135072428Y-79789976D01*
X135262904Y-79837595D01*
X135358142Y-79885214D01*
X135405761Y-79932833D01*
X135453380Y-80028071D01*
X135453380Y-80123309D01*
X135405761Y-80218547D01*
X135358142Y-80266166D01*
X135262904Y-80313785D01*
X135072428Y-80361404D01*
X134834333Y-80361404D01*
X134643857Y-80313785D01*
X134548619Y-80266166D01*
X134501000Y-80218547D01*
X134453380Y-80123309D01*
X128752000Y-78388500D02*
X128752000Y-77340880D01*
X130119380Y-78150404D02*
X129119380Y-78150404D01*
X130119380Y-77578976D01*
X129119380Y-77578976D01*
X128752000Y-77340880D02*
X128752000Y-76198023D01*
X130119380Y-77102785D02*
X129119380Y-77102785D01*
X129833666Y-76769452D01*
X129119380Y-76436119D01*
X130119380Y-76436119D01*
X128752000Y-76198023D02*
X128752000Y-75721833D01*
X130119380Y-75959928D02*
X129119380Y-75959928D01*
X127579380Y-77578976D02*
X127103190Y-77912309D01*
X127579380Y-78150404D02*
X126579380Y-78150404D01*
X126579380Y-77769452D01*
X126627000Y-77674214D01*
X126674619Y-77626595D01*
X126769857Y-77578976D01*
X126912714Y-77578976D01*
X127007952Y-77626595D01*
X127055571Y-77674214D01*
X127103190Y-77769452D01*
X127103190Y-78150404D01*
X127579380Y-77150404D02*
X126579380Y-77150404D01*
X126579380Y-76912309D01*
X126627000Y-76769452D01*
X126722238Y-76674214D01*
X126817476Y-76626595D01*
X127007952Y-76578976D01*
X127150809Y-76578976D01*
X127341285Y-76626595D01*
X127436523Y-76674214D01*
X127531761Y-76769452D01*
X127579380Y-76912309D01*
X127579380Y-77150404D01*
X127103190Y-75959928D02*
X127579380Y-75959928D01*
X126579380Y-76293261D02*
X127103190Y-75959928D01*
X126579380Y-75626595D01*
X123545000Y-84139214D02*
X123545000Y-82996357D01*
X123912380Y-83996357D02*
X124912380Y-83758261D01*
X124198095Y-83567785D01*
X124912380Y-83377309D01*
X123912380Y-83139214D01*
X123545000Y-82996357D02*
X123545000Y-81996357D01*
X124912380Y-82186833D02*
X124436190Y-82520166D01*
X124912380Y-82758261D02*
X123912380Y-82758261D01*
X123912380Y-82377309D01*
X123960000Y-82282071D01*
X124007619Y-82234452D01*
X124102857Y-82186833D01*
X124245714Y-82186833D01*
X124340952Y-82234452D01*
X124388571Y-82282071D01*
X124436190Y-82377309D01*
X124436190Y-82758261D01*
X123545000Y-81996357D02*
X123545000Y-81520166D01*
X124912380Y-81758261D02*
X123912380Y-81758261D01*
X123545000Y-81520166D02*
X123545000Y-80758261D01*
X123912380Y-81424928D02*
X123912380Y-80853500D01*
X124912380Y-81139214D02*
X123912380Y-81139214D01*
X123545000Y-80758261D02*
X123545000Y-79853500D01*
X124388571Y-80520166D02*
X124388571Y-80186833D01*
X124912380Y-80043976D02*
X124912380Y-80520166D01*
X123912380Y-80520166D01*
X123912380Y-80043976D01*
X121132000Y-78388500D02*
X121132000Y-77388500D01*
X122499380Y-77578976D02*
X122023190Y-77912309D01*
X122499380Y-78150404D02*
X121499380Y-78150404D01*
X121499380Y-77769452D01*
X121547000Y-77674214D01*
X121594619Y-77626595D01*
X121689857Y-77578976D01*
X121832714Y-77578976D01*
X121927952Y-77626595D01*
X121975571Y-77674214D01*
X122023190Y-77769452D01*
X122023190Y-78150404D01*
X121132000Y-77388500D02*
X121132000Y-76436119D01*
X122451761Y-77198023D02*
X122499380Y-77055166D01*
X122499380Y-76817071D01*
X122451761Y-76721833D01*
X122404142Y-76674214D01*
X122308904Y-76626595D01*
X122213666Y-76626595D01*
X122118428Y-76674214D01*
X122070809Y-76721833D01*
X122023190Y-76817071D01*
X121975571Y-77007547D01*
X121927952Y-77102785D01*
X121880333Y-77150404D01*
X121785095Y-77198023D01*
X121689857Y-77198023D01*
X121594619Y-77150404D01*
X121547000Y-77102785D01*
X121499380Y-77007547D01*
X121499380Y-76769452D01*
X121547000Y-76626595D01*
X121132000Y-76436119D02*
X121132000Y-75674214D01*
X121499380Y-76340880D02*
X121499380Y-75769452D01*
X122499380Y-76055166D02*
X121499380Y-76055166D01*
X119007000Y-77626595D02*
X118959380Y-77721833D01*
X118959380Y-77864690D01*
X119007000Y-78007547D01*
X119102238Y-78102785D01*
X119197476Y-78150404D01*
X119387952Y-78198023D01*
X119530809Y-78198023D01*
X119721285Y-78150404D01*
X119816523Y-78102785D01*
X119911761Y-78007547D01*
X119959380Y-77864690D01*
X119959380Y-77769452D01*
X119911761Y-77626595D01*
X119864142Y-77578976D01*
X119530809Y-77578976D01*
X119530809Y-77769452D01*
X119959380Y-77150404D02*
X118959380Y-77150404D01*
X119959380Y-76578976D01*
X118959380Y-76578976D01*
X119959380Y-76102785D02*
X118959380Y-76102785D01*
X118959380Y-75864690D01*
X119007000Y-75721833D01*
X119102238Y-75626595D01*
X119197476Y-75578976D01*
X119387952Y-75531357D01*
X119530809Y-75531357D01*
X119721285Y-75578976D01*
X119816523Y-75626595D01*
X119911761Y-75721833D01*
X119959380Y-75864690D01*
X119959380Y-76102785D01*
X167219380Y-84440785D02*
X168028904Y-84440785D01*
X168124142Y-84393166D01*
X168171761Y-84345547D01*
X168219380Y-84250309D01*
X168219380Y-84059833D01*
X168171761Y-83964595D01*
X168124142Y-83916976D01*
X168028904Y-83869357D01*
X167219380Y-83869357D01*
X167219380Y-82964595D02*
X167219380Y-83155071D01*
X167267000Y-83250309D01*
X167314619Y-83297928D01*
X167457476Y-83393166D01*
X167647952Y-83440785D01*
X168028904Y-83440785D01*
X168124142Y-83393166D01*
X168171761Y-83345547D01*
X168219380Y-83250309D01*
X168219380Y-83059833D01*
X168171761Y-82964595D01*
X168124142Y-82916976D01*
X168028904Y-82869357D01*
X167790809Y-82869357D01*
X167695571Y-82916976D01*
X167647952Y-82964595D01*
X167600333Y-83059833D01*
X167600333Y-83250309D01*
X167647952Y-83345547D01*
X167695571Y-83393166D01*
X167790809Y-83440785D01*
X167171761Y-81726500D02*
X168457476Y-82583642D01*
X168219380Y-80869357D02*
X168219380Y-81440785D01*
X168219380Y-81155071D02*
X167219380Y-81155071D01*
X167362238Y-81250309D01*
X167457476Y-81345547D01*
X167505095Y-81440785D01*
X167219380Y-80012214D02*
X167219380Y-80202690D01*
X167267000Y-80297928D01*
X167314619Y-80345547D01*
X167457476Y-80440785D01*
X167647952Y-80488404D01*
X168028904Y-80488404D01*
X168124142Y-80440785D01*
X168171761Y-80393166D01*
X168219380Y-80297928D01*
X168219380Y-80107452D01*
X168171761Y-80012214D01*
X168124142Y-79964595D01*
X168028904Y-79916976D01*
X167790809Y-79916976D01*
X167695571Y-79964595D01*
X167647952Y-80012214D01*
X167600333Y-80107452D01*
X167600333Y-80297928D01*
X167647952Y-80393166D01*
X167695571Y-80440785D01*
X167790809Y-80488404D01*
X163393380Y-78150404D02*
X162393380Y-78150404D01*
X162393380Y-77912309D01*
X162441000Y-77769452D01*
X162536238Y-77674214D01*
X162631476Y-77626595D01*
X162821952Y-77578976D01*
X162964809Y-77578976D01*
X163155285Y-77626595D01*
X163250523Y-77674214D01*
X163345761Y-77769452D01*
X163393380Y-77912309D01*
X163393380Y-78150404D01*
X162393380Y-77245642D02*
X162393380Y-76578976D01*
X163393380Y-77007547D01*
X160853380Y-78150404D02*
X159853380Y-78150404D01*
X159853380Y-77912309D01*
X159901000Y-77769452D01*
X159996238Y-77674214D01*
X160091476Y-77626595D01*
X160281952Y-77578976D01*
X160424809Y-77578976D01*
X160615285Y-77626595D01*
X160710523Y-77674214D01*
X160805761Y-77769452D01*
X160853380Y-77912309D01*
X160853380Y-78150404D01*
X159853380Y-76674214D02*
X159853380Y-77150404D01*
X160329571Y-77198023D01*
X160281952Y-77150404D01*
X160234333Y-77055166D01*
X160234333Y-76817071D01*
X160281952Y-76721833D01*
X160329571Y-76674214D01*
X160424809Y-76626595D01*
X160662904Y-76626595D01*
X160758142Y-76674214D01*
X160805761Y-76721833D01*
X160853380Y-76817071D01*
X160853380Y-77055166D01*
X160805761Y-77150404D01*
X160758142Y-77198023D01*
X158313380Y-78150404D02*
X157313380Y-78150404D01*
X157313380Y-77912309D01*
X157361000Y-77769452D01*
X157456238Y-77674214D01*
X157551476Y-77626595D01*
X157741952Y-77578976D01*
X157884809Y-77578976D01*
X158075285Y-77626595D01*
X158170523Y-77674214D01*
X158265761Y-77769452D01*
X158313380Y-77912309D01*
X158313380Y-78150404D01*
X157313380Y-77245642D02*
X157313380Y-76626595D01*
X157694333Y-76959928D01*
X157694333Y-76817071D01*
X157741952Y-76721833D01*
X157789571Y-76674214D01*
X157884809Y-76626595D01*
X158122904Y-76626595D01*
X158218142Y-76674214D01*
X158265761Y-76721833D01*
X158313380Y-76817071D01*
X158313380Y-77102785D01*
X158265761Y-77198023D01*
X158218142Y-77245642D01*
X155773380Y-78150404D02*
X154773380Y-78150404D01*
X154773380Y-77912309D01*
X154821000Y-77769452D01*
X154916238Y-77674214D01*
X155011476Y-77626595D01*
X155201952Y-77578976D01*
X155344809Y-77578976D01*
X155535285Y-77626595D01*
X155630523Y-77674214D01*
X155725761Y-77769452D01*
X155773380Y-77912309D01*
X155773380Y-78150404D01*
X155773380Y-76626595D02*
X155773380Y-77198023D01*
X155773380Y-76912309D02*
X154773380Y-76912309D01*
X154916238Y-77007547D01*
X155011476Y-77102785D01*
X155059095Y-77198023D01*
X152947666Y-78198023D02*
X152947666Y-77721833D01*
X153233380Y-78293261D02*
X152233380Y-77959928D01*
X153233380Y-77626595D01*
X153233380Y-76769452D02*
X153233380Y-77340880D01*
X153233380Y-77055166D02*
X152233380Y-77055166D01*
X152376238Y-77150404D01*
X152471476Y-77245642D01*
X152519095Y-77340880D01*
X152233380Y-75864690D02*
X152233380Y-76340880D01*
X152709571Y-76388500D01*
X152661952Y-76340880D01*
X152614333Y-76245642D01*
X152614333Y-76007547D01*
X152661952Y-75912309D01*
X152709571Y-75864690D01*
X152804809Y-75817071D01*
X153042904Y-75817071D01*
X153138142Y-75864690D01*
X153185761Y-75912309D01*
X153233380Y-76007547D01*
X153233380Y-76245642D01*
X153185761Y-76340880D01*
X153138142Y-76388500D01*
X150407666Y-78198023D02*
X150407666Y-77721833D01*
X150693380Y-78293261D02*
X149693380Y-77959928D01*
X150693380Y-77626595D01*
X150693380Y-76769452D02*
X150693380Y-77340880D01*
X150693380Y-77055166D02*
X149693380Y-77055166D01*
X149836238Y-77150404D01*
X149931476Y-77245642D01*
X149979095Y-77340880D01*
X149693380Y-76436119D02*
X149693380Y-75817071D01*
X150074333Y-76150404D01*
X150074333Y-76007547D01*
X150121952Y-75912309D01*
X150169571Y-75864690D01*
X150264809Y-75817071D01*
X150502904Y-75817071D01*
X150598142Y-75864690D01*
X150645761Y-75912309D01*
X150693380Y-76007547D01*
X150693380Y-76293261D01*
X150645761Y-76388500D01*
X150598142Y-76436119D01*
X147867666Y-78198023D02*
X147867666Y-77721833D01*
X148153380Y-78293261D02*
X147153380Y-77959928D01*
X148153380Y-77626595D01*
X148153380Y-76769452D02*
X148153380Y-77340880D01*
X148153380Y-77055166D02*
X147153380Y-77055166D01*
X147296238Y-77150404D01*
X147391476Y-77245642D01*
X147439095Y-77340880D01*
X148153380Y-75817071D02*
X148153380Y-76388500D01*
X148153380Y-76102785D02*
X147153380Y-76102785D01*
X147296238Y-76198023D01*
X147391476Y-76293261D01*
X147439095Y-76388500D01*
X145327666Y-78198023D02*
X145327666Y-77721833D01*
X145613380Y-78293261D02*
X144613380Y-77959928D01*
X145613380Y-77626595D01*
X145613380Y-77245642D02*
X145613380Y-77055166D01*
X145565761Y-76959928D01*
X145518142Y-76912309D01*
X145375285Y-76817071D01*
X145184809Y-76769452D01*
X144803857Y-76769452D01*
X144708619Y-76817071D01*
X144661000Y-76864690D01*
X144613380Y-76959928D01*
X144613380Y-77150404D01*
X144661000Y-77245642D01*
X144708619Y-77293261D01*
X144803857Y-77340880D01*
X145041952Y-77340880D01*
X145137190Y-77293261D01*
X145184809Y-77245642D01*
X145232428Y-77150404D01*
X145232428Y-76959928D01*
X145184809Y-76864690D01*
X145137190Y-76817071D01*
X145041952Y-76769452D01*
X142787666Y-78198023D02*
X142787666Y-77721833D01*
X143073380Y-78293261D02*
X142073380Y-77959928D01*
X143073380Y-77626595D01*
X142073380Y-77388500D02*
X142073380Y-76721833D01*
X143073380Y-77150404D01*
X140247666Y-78198023D02*
X140247666Y-77721833D01*
X140533380Y-78293261D02*
X139533380Y-77959928D01*
X140533380Y-77626595D01*
X139533380Y-76817071D02*
X139533380Y-77293261D01*
X140009571Y-77340880D01*
X139961952Y-77293261D01*
X139914333Y-77198023D01*
X139914333Y-76959928D01*
X139961952Y-76864690D01*
X140009571Y-76817071D01*
X140104809Y-76769452D01*
X140342904Y-76769452D01*
X140438142Y-76817071D01*
X140485761Y-76864690D01*
X140533380Y-76959928D01*
X140533380Y-77198023D01*
X140485761Y-77293261D01*
X140438142Y-77340880D01*
X137707666Y-78198023D02*
X137707666Y-77721833D01*
X137993380Y-78293261D02*
X136993380Y-77959928D01*
X137993380Y-77626595D01*
X136993380Y-77388500D02*
X136993380Y-76769452D01*
X137374333Y-77102785D01*
X137374333Y-76959928D01*
X137421952Y-76864690D01*
X137469571Y-76817071D01*
X137564809Y-76769452D01*
X137802904Y-76769452D01*
X137898142Y-76817071D01*
X137945761Y-76864690D01*
X137993380Y-76959928D01*
X137993380Y-77245642D01*
X137945761Y-77340880D01*
X137898142Y-77388500D01*
X135167666Y-78198023D02*
X135167666Y-77721833D01*
X135453380Y-78293261D02*
X134453380Y-77959928D01*
X135453380Y-77626595D01*
X135453380Y-76769452D02*
X135453380Y-77340880D01*
X135453380Y-77055166D02*
X134453380Y-77055166D01*
X134596238Y-77150404D01*
X134691476Y-77245642D01*
X134739095Y-77340880D01*
X132611761Y-83393166D02*
X132659380Y-83250309D01*
X132659380Y-83012214D01*
X132611761Y-82916976D01*
X132564142Y-82869357D01*
X132468904Y-82821738D01*
X132373666Y-82821738D01*
X132278428Y-82869357D01*
X132230809Y-82916976D01*
X132183190Y-83012214D01*
X132135571Y-83202690D01*
X132087952Y-83297928D01*
X132040333Y-83345547D01*
X131945095Y-83393166D01*
X131849857Y-83393166D01*
X131754619Y-83345547D01*
X131707000Y-83297928D01*
X131659380Y-83202690D01*
X131659380Y-82964595D01*
X131707000Y-82821738D01*
X132183190Y-82202690D02*
X132659380Y-82202690D01*
X131659380Y-82536023D02*
X132183190Y-82202690D01*
X131659380Y-81869357D01*
X132659380Y-81536023D02*
X131659380Y-81536023D01*
X132659380Y-80964595D01*
X131659380Y-80964595D01*
X132564142Y-79916976D02*
X132611761Y-79964595D01*
X132659380Y-80107452D01*
X132659380Y-80202690D01*
X132611761Y-80345547D01*
X132516523Y-80440785D01*
X132421285Y-80488404D01*
X132230809Y-80536023D01*
X132087952Y-80536023D01*
X131897476Y-80488404D01*
X131802238Y-80440785D01*
X131707000Y-80345547D01*
X131659380Y-80202690D01*
X131659380Y-80107452D01*
X131707000Y-79964595D01*
X131754619Y-79916976D01*
X129595571Y-81059833D02*
X129643190Y-80916976D01*
X129690809Y-80869357D01*
X129786047Y-80821738D01*
X129928904Y-80821738D01*
X130024142Y-80869357D01*
X130071761Y-80916976D01*
X130119380Y-81012214D01*
X130119380Y-81393166D01*
X129119380Y-81393166D01*
X129119380Y-81059833D01*
X129167000Y-80964595D01*
X129214619Y-80916976D01*
X129309857Y-80869357D01*
X129405095Y-80869357D01*
X129500333Y-80916976D01*
X129547952Y-80964595D01*
X129595571Y-81059833D01*
X129595571Y-81393166D01*
X129595571Y-80393166D02*
X129595571Y-80059833D01*
X130119380Y-79916976D02*
X130119380Y-80393166D01*
X129119380Y-80393166D01*
X129119380Y-79916976D01*
X127452380Y-81059833D02*
X126976190Y-81393166D01*
X127452380Y-81631261D02*
X126452380Y-81631261D01*
X126452380Y-81250309D01*
X126500000Y-81155071D01*
X126547619Y-81107452D01*
X126642857Y-81059833D01*
X126785714Y-81059833D01*
X126880952Y-81107452D01*
X126928571Y-81155071D01*
X126976190Y-81250309D01*
X126976190Y-81631261D01*
X126085000Y-80869357D02*
X126085000Y-79726500D01*
X126452380Y-80726500D02*
X127452380Y-80488404D01*
X126738095Y-80297928D01*
X127452380Y-80107452D01*
X126452380Y-79869357D01*
X122404142Y-81726500D02*
X122451761Y-81774119D01*
X122499380Y-81916976D01*
X122499380Y-82012214D01*
X122451761Y-82155071D01*
X122356523Y-82250309D01*
X122261285Y-82297928D01*
X122070809Y-82345547D01*
X121927952Y-82345547D01*
X121737476Y-82297928D01*
X121642238Y-82250309D01*
X121547000Y-82155071D01*
X121499380Y-82012214D01*
X121499380Y-81916976D01*
X121547000Y-81774119D01*
X121594619Y-81726500D01*
X122499380Y-80821738D02*
X122499380Y-81297928D01*
X121499380Y-81297928D01*
X122499380Y-80488404D02*
X121499380Y-80488404D01*
X122499380Y-79916976D02*
X121927952Y-80345547D01*
X121499380Y-79916976D02*
X122070809Y-80488404D01*
X118959380Y-82488404D02*
X119959380Y-82155071D01*
X118959380Y-81821738D01*
X119864142Y-80916976D02*
X119911761Y-80964595D01*
X119959380Y-81107452D01*
X119959380Y-81202690D01*
X119911761Y-81345547D01*
X119816523Y-81440785D01*
X119721285Y-81488404D01*
X119530809Y-81536023D01*
X119387952Y-81536023D01*
X119197476Y-81488404D01*
X119102238Y-81440785D01*
X119007000Y-81345547D01*
X118959380Y-81202690D01*
X118959380Y-81107452D01*
X119007000Y-80964595D01*
X119054619Y-80916976D01*
X119864142Y-79916976D02*
X119911761Y-79964595D01*
X119959380Y-80107452D01*
X119959380Y-80202690D01*
X119911761Y-80345547D01*
X119816523Y-80440785D01*
X119721285Y-80488404D01*
X119530809Y-80536023D01*
X119387952Y-80536023D01*
X119197476Y-80488404D01*
X119102238Y-80440785D01*
X119007000Y-80345547D01*
X118959380Y-80202690D01*
X118959380Y-80107452D01*
X119007000Y-79964595D01*
X119054619Y-79916976D01*
X76605142Y-70810380D02*
X76605142Y-69810380D01*
X76843238Y-69810380D01*
X76986095Y-69858000D01*
X77081333Y-69953238D01*
X77128952Y-70048476D01*
X77176571Y-70238952D01*
X77176571Y-70381809D01*
X77128952Y-70572285D01*
X77081333Y-70667523D01*
X76986095Y-70762761D01*
X76843238Y-70810380D01*
X76605142Y-70810380D01*
X77557523Y-70762761D02*
X77700380Y-70810380D01*
X77938476Y-70810380D01*
X78033714Y-70762761D01*
X78081333Y-70715142D01*
X78128952Y-70619904D01*
X78128952Y-70524666D01*
X78081333Y-70429428D01*
X78033714Y-70381809D01*
X77938476Y-70334190D01*
X77748000Y-70286571D01*
X77652761Y-70238952D01*
X77605142Y-70191333D01*
X77557523Y-70096095D01*
X77557523Y-70000857D01*
X77605142Y-69905619D01*
X77652761Y-69858000D01*
X77748000Y-69810380D01*
X77986095Y-69810380D01*
X78128952Y-69858000D01*
X79081333Y-70810380D02*
X78509904Y-70810380D01*
X78795619Y-70810380D02*
X78795619Y-69810380D01*
X78700380Y-69953238D01*
X78605142Y-70048476D01*
X78509904Y-70096095D01*
X79652761Y-70238952D02*
X79557523Y-70191333D01*
X79509904Y-70143714D01*
X79462285Y-70048476D01*
X79462285Y-70000857D01*
X79509904Y-69905619D01*
X79557523Y-69858000D01*
X79652761Y-69810380D01*
X79843238Y-69810380D01*
X79938476Y-69858000D01*
X79986095Y-69905619D01*
X80033714Y-70000857D01*
X80033714Y-70048476D01*
X79986095Y-70143714D01*
X79938476Y-70191333D01*
X79843238Y-70238952D01*
X79652761Y-70238952D01*
X79557523Y-70286571D01*
X79509904Y-70334190D01*
X79462285Y-70429428D01*
X79462285Y-70619904D01*
X79509904Y-70715142D01*
X79557523Y-70762761D01*
X79652761Y-70810380D01*
X79843238Y-70810380D01*
X79938476Y-70762761D01*
X79986095Y-70715142D01*
X80033714Y-70619904D01*
X80033714Y-70429428D01*
X79986095Y-70334190D01*
X79938476Y-70286571D01*
X79843238Y-70238952D01*
X80986095Y-70810380D02*
X80414666Y-70810380D01*
X80700380Y-70810380D02*
X80700380Y-69810380D01*
X80605142Y-69953238D01*
X80509904Y-70048476D01*
X80414666Y-70096095D01*
X81319428Y-69810380D02*
X81938476Y-69810380D01*
X81605142Y-70191333D01*
X81748000Y-70191333D01*
X81843238Y-70238952D01*
X81890857Y-70286571D01*
X81938476Y-70381809D01*
X81938476Y-70619904D01*
X81890857Y-70715142D01*
X81843238Y-70762761D01*
X81748000Y-70810380D01*
X81462285Y-70810380D01*
X81367047Y-70762761D01*
X81319428Y-70715142D01*
X161790476Y-139152380D02*
X162028571Y-140152380D01*
X162219047Y-139438095D01*
X162409523Y-140152380D01*
X162647619Y-139152380D01*
X163457142Y-139152380D02*
X163266666Y-139152380D01*
X163171428Y-139200000D01*
X163123809Y-139247619D01*
X163028571Y-139390476D01*
X162980952Y-139580952D01*
X162980952Y-139961904D01*
X163028571Y-140057142D01*
X163076190Y-140104761D01*
X163171428Y-140152380D01*
X163361904Y-140152380D01*
X163457142Y-140104761D01*
X163504761Y-140057142D01*
X163552380Y-139961904D01*
X163552380Y-139723809D01*
X163504761Y-139628571D01*
X163457142Y-139580952D01*
X163361904Y-139533333D01*
X163171428Y-139533333D01*
X163076190Y-139580952D01*
X163028571Y-139628571D01*
X162980952Y-139723809D01*
X164457142Y-139152380D02*
X163980952Y-139152380D01*
X163933333Y-139628571D01*
X163980952Y-139580952D01*
X164076190Y-139533333D01*
X164314285Y-139533333D01*
X164409523Y-139580952D01*
X164457142Y-139628571D01*
X164504761Y-139723809D01*
X164504761Y-139961904D01*
X164457142Y-140057142D01*
X164409523Y-140104761D01*
X164314285Y-140152380D01*
X164076190Y-140152380D01*
X163980952Y-140104761D01*
X163933333Y-140057142D01*
X165504761Y-140057142D02*
X165457142Y-140104761D01*
X165314285Y-140152380D01*
X165219047Y-140152380D01*
X165076190Y-140104761D01*
X164980952Y-140009523D01*
X164933333Y-139914285D01*
X164885714Y-139723809D01*
X164885714Y-139580952D01*
X164933333Y-139390476D01*
X164980952Y-139295238D01*
X165076190Y-139200000D01*
X165219047Y-139152380D01*
X165314285Y-139152380D01*
X165457142Y-139200000D01*
X165504761Y-139247619D01*
X165885714Y-139247619D02*
X165933333Y-139200000D01*
X166028571Y-139152380D01*
X166266666Y-139152380D01*
X166361904Y-139200000D01*
X166409523Y-139247619D01*
X166457142Y-139342857D01*
X166457142Y-139438095D01*
X166409523Y-139580952D01*
X165838095Y-140152380D01*
X166457142Y-140152380D01*
X166838095Y-139247619D02*
X166885714Y-139200000D01*
X166980952Y-139152380D01*
X167219047Y-139152380D01*
X167314285Y-139200000D01*
X167361904Y-139247619D01*
X167409523Y-139342857D01*
X167409523Y-139438095D01*
X167361904Y-139580952D01*
X166790476Y-140152380D01*
X167409523Y-140152380D01*
X167790476Y-140104761D02*
X167933333Y-140152380D01*
X168171428Y-140152380D01*
X168266666Y-140104761D01*
X168314285Y-140057142D01*
X168361904Y-139961904D01*
X168361904Y-139866666D01*
X168314285Y-139771428D01*
X168266666Y-139723809D01*
X168171428Y-139676190D01*
X167980952Y-139628571D01*
X167885714Y-139580952D01*
X167838095Y-139533333D01*
X167790476Y-139438095D01*
X167790476Y-139342857D01*
X167838095Y-139247619D01*
X167885714Y-139200000D01*
X167980952Y-139152380D01*
X168219047Y-139152380D01*
X168361904Y-139200000D01*
X81129523Y-139882619D02*
X81177142Y-139835000D01*
X81272380Y-139787380D01*
X81510476Y-139787380D01*
X81605714Y-139835000D01*
X81653333Y-139882619D01*
X81700952Y-139977857D01*
X81700952Y-140073095D01*
X81653333Y-140215952D01*
X81081904Y-140787380D01*
X81700952Y-140787380D01*
X82272380Y-140215952D02*
X82177142Y-140168333D01*
X82129523Y-140120714D01*
X82081904Y-140025476D01*
X82081904Y-139977857D01*
X82129523Y-139882619D01*
X82177142Y-139835000D01*
X82272380Y-139787380D01*
X82462857Y-139787380D01*
X82558095Y-139835000D01*
X82605714Y-139882619D01*
X82653333Y-139977857D01*
X82653333Y-140025476D01*
X82605714Y-140120714D01*
X82558095Y-140168333D01*
X82462857Y-140215952D01*
X82272380Y-140215952D01*
X82177142Y-140263571D01*
X82129523Y-140311190D01*
X82081904Y-140406428D01*
X82081904Y-140596904D01*
X82129523Y-140692142D01*
X82177142Y-140739761D01*
X82272380Y-140787380D01*
X82462857Y-140787380D01*
X82558095Y-140739761D01*
X82605714Y-140692142D01*
X82653333Y-140596904D01*
X82653333Y-140406428D01*
X82605714Y-140311190D01*
X82558095Y-140263571D01*
X82462857Y-140215952D01*
X83653333Y-140692142D02*
X83605714Y-140739761D01*
X83462857Y-140787380D01*
X83367619Y-140787380D01*
X83224761Y-140739761D01*
X83129523Y-140644523D01*
X83081904Y-140549285D01*
X83034285Y-140358809D01*
X83034285Y-140215952D01*
X83081904Y-140025476D01*
X83129523Y-139930238D01*
X83224761Y-139835000D01*
X83367619Y-139787380D01*
X83462857Y-139787380D01*
X83605714Y-139835000D01*
X83653333Y-139882619D01*
X84034285Y-139882619D02*
X84081904Y-139835000D01*
X84177142Y-139787380D01*
X84415238Y-139787380D01*
X84510476Y-139835000D01*
X84558095Y-139882619D01*
X84605714Y-139977857D01*
X84605714Y-140073095D01*
X84558095Y-140215952D01*
X83986666Y-140787380D01*
X84605714Y-140787380D01*
X85510476Y-139787380D02*
X85034285Y-139787380D01*
X84986666Y-140263571D01*
X85034285Y-140215952D01*
X85129523Y-140168333D01*
X85367619Y-140168333D01*
X85462857Y-140215952D01*
X85510476Y-140263571D01*
X85558095Y-140358809D01*
X85558095Y-140596904D01*
X85510476Y-140692142D01*
X85462857Y-140739761D01*
X85367619Y-140787380D01*
X85129523Y-140787380D01*
X85034285Y-140739761D01*
X84986666Y-140692142D01*
X86415238Y-139787380D02*
X86224761Y-139787380D01*
X86129523Y-139835000D01*
X86081904Y-139882619D01*
X85986666Y-140025476D01*
X85939047Y-140215952D01*
X85939047Y-140596904D01*
X85986666Y-140692142D01*
X86034285Y-140739761D01*
X86129523Y-140787380D01*
X86320000Y-140787380D01*
X86415238Y-140739761D01*
X86462857Y-140692142D01*
X86510476Y-140596904D01*
X86510476Y-140358809D01*
X86462857Y-140263571D01*
X86415238Y-140215952D01*
X86320000Y-140168333D01*
X86129523Y-140168333D01*
X86034285Y-140215952D01*
X85986666Y-140263571D01*
X85939047Y-140358809D01*
X102425714Y-134072380D02*
X102235238Y-134072380D01*
X102140000Y-134120000D01*
X102092380Y-134167619D01*
X101997142Y-134310476D01*
X101949523Y-134500952D01*
X101949523Y-134881904D01*
X101997142Y-134977142D01*
X102044761Y-135024761D01*
X102140000Y-135072380D01*
X102330476Y-135072380D01*
X102425714Y-135024761D01*
X102473333Y-134977142D01*
X102520952Y-134881904D01*
X102520952Y-134643809D01*
X102473333Y-134548571D01*
X102425714Y-134500952D01*
X102330476Y-134453333D01*
X102140000Y-134453333D01*
X102044761Y-134500952D01*
X101997142Y-134548571D01*
X101949523Y-134643809D01*
X102901904Y-134167619D02*
X102949523Y-134120000D01*
X103044761Y-134072380D01*
X103282857Y-134072380D01*
X103378095Y-134120000D01*
X103425714Y-134167619D01*
X103473333Y-134262857D01*
X103473333Y-134358095D01*
X103425714Y-134500952D01*
X102854285Y-135072380D01*
X103473333Y-135072380D01*
X103854285Y-134167619D02*
X103901904Y-134120000D01*
X103997142Y-134072380D01*
X104235238Y-134072380D01*
X104330476Y-134120000D01*
X104378095Y-134167619D01*
X104425714Y-134262857D01*
X104425714Y-134358095D01*
X104378095Y-134500952D01*
X103806666Y-135072380D01*
X104425714Y-135072380D01*
X105330476Y-134072380D02*
X104854285Y-134072380D01*
X104806666Y-134548571D01*
X104854285Y-134500952D01*
X104949523Y-134453333D01*
X105187619Y-134453333D01*
X105282857Y-134500952D01*
X105330476Y-134548571D01*
X105378095Y-134643809D01*
X105378095Y-134881904D01*
X105330476Y-134977142D01*
X105282857Y-135024761D01*
X105187619Y-135072380D01*
X104949523Y-135072380D01*
X104854285Y-135024761D01*
X104806666Y-134977142D01*
X106235238Y-134072380D02*
X106044761Y-134072380D01*
X105949523Y-134120000D01*
X105901904Y-134167619D01*
X105806666Y-134310476D01*
X105759047Y-134500952D01*
X105759047Y-134881904D01*
X105806666Y-134977142D01*
X105854285Y-135024761D01*
X105949523Y-135072380D01*
X106140000Y-135072380D01*
X106235238Y-135024761D01*
X106282857Y-134977142D01*
X106330476Y-134881904D01*
X106330476Y-134643809D01*
X106282857Y-134548571D01*
X106235238Y-134500952D01*
X106140000Y-134453333D01*
X105949523Y-134453333D01*
X105854285Y-134500952D01*
X105806666Y-134548571D01*
X105759047Y-134643809D01*
X136177976Y-136056666D02*
X136654166Y-136056666D01*
X136082738Y-136342380D02*
X136416071Y-135342380D01*
X136749404Y-136342380D01*
X136939880Y-135342380D02*
X137511309Y-135342380D01*
X137225595Y-136342380D02*
X137225595Y-135342380D01*
X138177976Y-135818571D02*
X137844642Y-135818571D01*
X137844642Y-136342380D02*
X137844642Y-135342380D01*
X138320833Y-135342380D01*
X138654166Y-135437619D02*
X138701785Y-135390000D01*
X138797023Y-135342380D01*
X139035119Y-135342380D01*
X139130357Y-135390000D01*
X139177976Y-135437619D01*
X139225595Y-135532857D01*
X139225595Y-135628095D01*
X139177976Y-135770952D01*
X138606547Y-136342380D01*
X139225595Y-136342380D01*
X139606547Y-135437619D02*
X139654166Y-135390000D01*
X139749404Y-135342380D01*
X139987500Y-135342380D01*
X140082738Y-135390000D01*
X140130357Y-135437619D01*
X140177976Y-135532857D01*
X140177976Y-135628095D01*
X140130357Y-135770952D01*
X139558928Y-136342380D01*
X140177976Y-136342380D01*
X140463690Y-135342380D02*
X140797023Y-136342380D01*
X141130357Y-135342380D01*
X141987500Y-136342380D02*
X141416071Y-136342380D01*
X141701785Y-136342380D02*
X141701785Y-135342380D01*
X141606547Y-135485238D01*
X141511309Y-135580476D01*
X141416071Y-135628095D01*
X142606547Y-135342380D02*
X142701785Y-135342380D01*
X142797023Y-135390000D01*
X142844642Y-135437619D01*
X142892261Y-135532857D01*
X142939880Y-135723333D01*
X142939880Y-135961428D01*
X142892261Y-136151904D01*
X142844642Y-136247142D01*
X142797023Y-136294761D01*
X142701785Y-136342380D01*
X142606547Y-136342380D01*
X142511309Y-136294761D01*
X142463690Y-136247142D01*
X142416071Y-136151904D01*
X142368452Y-135961428D01*
X142368452Y-135723333D01*
X142416071Y-135532857D01*
X142463690Y-135437619D01*
X142511309Y-135390000D01*
X142606547Y-135342380D01*
X143939880Y-136247142D02*
X143892261Y-136294761D01*
X143749404Y-136342380D01*
X143654166Y-136342380D01*
X143511309Y-136294761D01*
X143416071Y-136199523D01*
X143368452Y-136104285D01*
X143320833Y-135913809D01*
X143320833Y-135770952D01*
X143368452Y-135580476D01*
X143416071Y-135485238D01*
X143511309Y-135390000D01*
X143654166Y-135342380D01*
X143749404Y-135342380D01*
X143892261Y-135390000D01*
X143939880Y-135437619D01*
X115857976Y-136056666D02*
X116334166Y-136056666D01*
X115762738Y-136342380D02*
X116096071Y-135342380D01*
X116429404Y-136342380D01*
X116619880Y-135342380D02*
X117191309Y-135342380D01*
X116905595Y-136342380D02*
X116905595Y-135342380D01*
X117857976Y-135818571D02*
X117524642Y-135818571D01*
X117524642Y-136342380D02*
X117524642Y-135342380D01*
X118000833Y-135342380D01*
X118334166Y-135437619D02*
X118381785Y-135390000D01*
X118477023Y-135342380D01*
X118715119Y-135342380D01*
X118810357Y-135390000D01*
X118857976Y-135437619D01*
X118905595Y-135532857D01*
X118905595Y-135628095D01*
X118857976Y-135770952D01*
X118286547Y-136342380D01*
X118905595Y-136342380D01*
X119286547Y-135437619D02*
X119334166Y-135390000D01*
X119429404Y-135342380D01*
X119667500Y-135342380D01*
X119762738Y-135390000D01*
X119810357Y-135437619D01*
X119857976Y-135532857D01*
X119857976Y-135628095D01*
X119810357Y-135770952D01*
X119238928Y-136342380D01*
X119857976Y-136342380D01*
X120143690Y-135342380D02*
X120477023Y-136342380D01*
X120810357Y-135342380D01*
X121667500Y-136342380D02*
X121096071Y-136342380D01*
X121381785Y-136342380D02*
X121381785Y-135342380D01*
X121286547Y-135485238D01*
X121191309Y-135580476D01*
X121096071Y-135628095D01*
X122286547Y-135342380D02*
X122381785Y-135342380D01*
X122477023Y-135390000D01*
X122524642Y-135437619D01*
X122572261Y-135532857D01*
X122619880Y-135723333D01*
X122619880Y-135961428D01*
X122572261Y-136151904D01*
X122524642Y-136247142D01*
X122477023Y-136294761D01*
X122381785Y-136342380D01*
X122286547Y-136342380D01*
X122191309Y-136294761D01*
X122143690Y-136247142D01*
X122096071Y-136151904D01*
X122048452Y-135961428D01*
X122048452Y-135723333D01*
X122096071Y-135532857D01*
X122143690Y-135437619D01*
X122191309Y-135390000D01*
X122286547Y-135342380D01*
X123619880Y-136247142D02*
X123572261Y-136294761D01*
X123429404Y-136342380D01*
X123334166Y-136342380D01*
X123191309Y-136294761D01*
X123096071Y-136199523D01*
X123048452Y-136104285D01*
X123000833Y-135913809D01*
X123000833Y-135770952D01*
X123048452Y-135580476D01*
X123096071Y-135485238D01*
X123191309Y-135390000D01*
X123334166Y-135342380D01*
X123429404Y-135342380D01*
X123572261Y-135390000D01*
X123619880Y-135437619D01*
X50030476Y-139152380D02*
X50268571Y-140152380D01*
X50459047Y-139438095D01*
X50649523Y-140152380D01*
X50887619Y-139152380D01*
X51697142Y-139152380D02*
X51506666Y-139152380D01*
X51411428Y-139200000D01*
X51363809Y-139247619D01*
X51268571Y-139390476D01*
X51220952Y-139580952D01*
X51220952Y-139961904D01*
X51268571Y-140057142D01*
X51316190Y-140104761D01*
X51411428Y-140152380D01*
X51601904Y-140152380D01*
X51697142Y-140104761D01*
X51744761Y-140057142D01*
X51792380Y-139961904D01*
X51792380Y-139723809D01*
X51744761Y-139628571D01*
X51697142Y-139580952D01*
X51601904Y-139533333D01*
X51411428Y-139533333D01*
X51316190Y-139580952D01*
X51268571Y-139628571D01*
X51220952Y-139723809D01*
X52697142Y-139152380D02*
X52220952Y-139152380D01*
X52173333Y-139628571D01*
X52220952Y-139580952D01*
X52316190Y-139533333D01*
X52554285Y-139533333D01*
X52649523Y-139580952D01*
X52697142Y-139628571D01*
X52744761Y-139723809D01*
X52744761Y-139961904D01*
X52697142Y-140057142D01*
X52649523Y-140104761D01*
X52554285Y-140152380D01*
X52316190Y-140152380D01*
X52220952Y-140104761D01*
X52173333Y-140057142D01*
X53744761Y-140057142D02*
X53697142Y-140104761D01*
X53554285Y-140152380D01*
X53459047Y-140152380D01*
X53316190Y-140104761D01*
X53220952Y-140009523D01*
X53173333Y-139914285D01*
X53125714Y-139723809D01*
X53125714Y-139580952D01*
X53173333Y-139390476D01*
X53220952Y-139295238D01*
X53316190Y-139200000D01*
X53459047Y-139152380D01*
X53554285Y-139152380D01*
X53697142Y-139200000D01*
X53744761Y-139247619D01*
X54363809Y-139152380D02*
X54459047Y-139152380D01*
X54554285Y-139200000D01*
X54601904Y-139247619D01*
X54649523Y-139342857D01*
X54697142Y-139533333D01*
X54697142Y-139771428D01*
X54649523Y-139961904D01*
X54601904Y-140057142D01*
X54554285Y-140104761D01*
X54459047Y-140152380D01*
X54363809Y-140152380D01*
X54268571Y-140104761D01*
X54220952Y-140057142D01*
X54173333Y-139961904D01*
X54125714Y-139771428D01*
X54125714Y-139533333D01*
X54173333Y-139342857D01*
X54220952Y-139247619D01*
X54268571Y-139200000D01*
X54363809Y-139152380D01*
X55078095Y-139247619D02*
X55125714Y-139200000D01*
X55220952Y-139152380D01*
X55459047Y-139152380D01*
X55554285Y-139200000D01*
X55601904Y-139247619D01*
X55649523Y-139342857D01*
X55649523Y-139438095D01*
X55601904Y-139580952D01*
X55030476Y-140152380D01*
X55649523Y-140152380D01*
X56030476Y-140104761D02*
X56173333Y-140152380D01*
X56411428Y-140152380D01*
X56506666Y-140104761D01*
X56554285Y-140057142D01*
X56601904Y-139961904D01*
X56601904Y-139866666D01*
X56554285Y-139771428D01*
X56506666Y-139723809D01*
X56411428Y-139676190D01*
X56220952Y-139628571D01*
X56125714Y-139580952D01*
X56078095Y-139533333D01*
X56030476Y-139438095D01*
X56030476Y-139342857D01*
X56078095Y-139247619D01*
X56125714Y-139200000D01*
X56220952Y-139152380D01*
X56459047Y-139152380D01*
X56601904Y-139200000D01*
X127712500Y-135390000D02*
X127617261Y-135342380D01*
X127474404Y-135342380D01*
X127331547Y-135390000D01*
X127236309Y-135485238D01*
X127188690Y-135580476D01*
X127141071Y-135770952D01*
X127141071Y-135913809D01*
X127188690Y-136104285D01*
X127236309Y-136199523D01*
X127331547Y-136294761D01*
X127474404Y-136342380D01*
X127569642Y-136342380D01*
X127712500Y-136294761D01*
X127760119Y-136247142D01*
X127760119Y-135913809D01*
X127569642Y-135913809D01*
X128664880Y-136342380D02*
X128188690Y-136342380D01*
X128188690Y-135342380D01*
X128998214Y-135342380D02*
X128998214Y-136151904D01*
X129045833Y-136247142D01*
X129093452Y-136294761D01*
X129188690Y-136342380D01*
X129379166Y-136342380D01*
X129474404Y-136294761D01*
X129522023Y-136247142D01*
X129569642Y-136151904D01*
X129569642Y-135342380D01*
X130045833Y-135818571D02*
X130379166Y-135818571D01*
X130522023Y-136342380D02*
X130045833Y-136342380D01*
X130045833Y-135342380D01*
X130522023Y-135342380D01*
X147365833Y-136056666D02*
X147842023Y-136056666D01*
X147270595Y-136342380D02*
X147603928Y-135342380D01*
X147937261Y-136342380D01*
X148270595Y-136342380D02*
X148270595Y-135342380D01*
X148508690Y-135342380D01*
X148651547Y-135390000D01*
X148746785Y-135485238D01*
X148794404Y-135580476D01*
X148842023Y-135770952D01*
X148842023Y-135913809D01*
X148794404Y-136104285D01*
X148746785Y-136199523D01*
X148651547Y-136294761D01*
X148508690Y-136342380D01*
X148270595Y-136342380D01*
X149270595Y-136342380D02*
X149270595Y-135342380D01*
X149508690Y-135342380D01*
X149651547Y-135390000D01*
X149746785Y-135485238D01*
X149794404Y-135580476D01*
X149842023Y-135770952D01*
X149842023Y-135913809D01*
X149794404Y-136104285D01*
X149746785Y-136199523D01*
X149651547Y-136294761D01*
X149508690Y-136342380D01*
X149270595Y-136342380D01*
X150842023Y-136342380D02*
X150508690Y-135866190D01*
X150270595Y-136342380D02*
X150270595Y-135342380D01*
X150651547Y-135342380D01*
X150746785Y-135390000D01*
X150794404Y-135437619D01*
X150842023Y-135532857D01*
X150842023Y-135675714D01*
X150794404Y-135770952D01*
X150746785Y-135818571D01*
X150651547Y-135866190D01*
X150270595Y-135866190D01*
X47712380Y-145222261D02*
X48712380Y-144888928D01*
X47712380Y-144555595D01*
X48617142Y-143650833D02*
X48664761Y-143698452D01*
X48712380Y-143841309D01*
X48712380Y-143936547D01*
X48664761Y-144079404D01*
X48569523Y-144174642D01*
X48474285Y-144222261D01*
X48283809Y-144269880D01*
X48140952Y-144269880D01*
X47950476Y-144222261D01*
X47855238Y-144174642D01*
X47760000Y-144079404D01*
X47712380Y-143936547D01*
X47712380Y-143841309D01*
X47760000Y-143698452D01*
X47807619Y-143650833D01*
X48617142Y-142650833D02*
X48664761Y-142698452D01*
X48712380Y-142841309D01*
X48712380Y-142936547D01*
X48664761Y-143079404D01*
X48569523Y-143174642D01*
X48474285Y-143222261D01*
X48283809Y-143269880D01*
X48140952Y-143269880D01*
X47950476Y-143222261D01*
X47855238Y-143174642D01*
X47760000Y-143079404D01*
X47712380Y-142936547D01*
X47712380Y-142841309D01*
X47760000Y-142698452D01*
X47807619Y-142650833D01*
X50300000Y-144555595D02*
X50252380Y-144650833D01*
X50252380Y-144793690D01*
X50300000Y-144936547D01*
X50395238Y-145031785D01*
X50490476Y-145079404D01*
X50680952Y-145127023D01*
X50823809Y-145127023D01*
X51014285Y-145079404D01*
X51109523Y-145031785D01*
X51204761Y-144936547D01*
X51252380Y-144793690D01*
X51252380Y-144698452D01*
X51204761Y-144555595D01*
X51157142Y-144507976D01*
X50823809Y-144507976D01*
X50823809Y-144698452D01*
X51252380Y-144079404D02*
X50252380Y-144079404D01*
X51252380Y-143507976D01*
X50252380Y-143507976D01*
X51252380Y-143031785D02*
X50252380Y-143031785D01*
X50252380Y-142793690D01*
X50300000Y-142650833D01*
X50395238Y-142555595D01*
X50490476Y-142507976D01*
X50680952Y-142460357D01*
X50823809Y-142460357D01*
X51014285Y-142507976D01*
X51109523Y-142555595D01*
X51204761Y-142650833D01*
X51252380Y-142793690D01*
X51252380Y-143031785D01*
X53697142Y-144507976D02*
X53744761Y-144555595D01*
X53792380Y-144698452D01*
X53792380Y-144793690D01*
X53744761Y-144936547D01*
X53649523Y-145031785D01*
X53554285Y-145079404D01*
X53363809Y-145127023D01*
X53220952Y-145127023D01*
X53030476Y-145079404D01*
X52935238Y-145031785D01*
X52840000Y-144936547D01*
X52792380Y-144793690D01*
X52792380Y-144698452D01*
X52840000Y-144555595D01*
X52887619Y-144507976D01*
X53792380Y-143603214D02*
X53792380Y-144079404D01*
X52792380Y-144079404D01*
X53792380Y-143269880D02*
X52792380Y-143269880D01*
X53792380Y-142698452D02*
X53220952Y-143127023D01*
X52792380Y-142698452D02*
X53363809Y-143269880D01*
X54965000Y-145317500D02*
X54965000Y-144317500D01*
X56332380Y-144507976D02*
X55856190Y-144841309D01*
X56332380Y-145079404D02*
X55332380Y-145079404D01*
X55332380Y-144698452D01*
X55380000Y-144603214D01*
X55427619Y-144555595D01*
X55522857Y-144507976D01*
X55665714Y-144507976D01*
X55760952Y-144555595D01*
X55808571Y-144603214D01*
X55856190Y-144698452D01*
X55856190Y-145079404D01*
X54965000Y-144317500D02*
X54965000Y-143365119D01*
X56284761Y-144127023D02*
X56332380Y-143984166D01*
X56332380Y-143746071D01*
X56284761Y-143650833D01*
X56237142Y-143603214D01*
X56141904Y-143555595D01*
X56046666Y-143555595D01*
X55951428Y-143603214D01*
X55903809Y-143650833D01*
X55856190Y-143746071D01*
X55808571Y-143936547D01*
X55760952Y-144031785D01*
X55713333Y-144079404D01*
X55618095Y-144127023D01*
X55522857Y-144127023D01*
X55427619Y-144079404D01*
X55380000Y-144031785D01*
X55332380Y-143936547D01*
X55332380Y-143698452D01*
X55380000Y-143555595D01*
X54965000Y-143365119D02*
X54965000Y-142603214D01*
X55332380Y-143269880D02*
X55332380Y-142698452D01*
X56332380Y-142984166D02*
X55332380Y-142984166D01*
X57505000Y-145317500D02*
X57505000Y-144174642D01*
X57872380Y-145174642D02*
X58872380Y-144936547D01*
X58158095Y-144746071D01*
X58872380Y-144555595D01*
X57872380Y-144317500D01*
X57505000Y-144174642D02*
X57505000Y-143174642D01*
X58872380Y-143365119D02*
X58396190Y-143698452D01*
X58872380Y-143936547D02*
X57872380Y-143936547D01*
X57872380Y-143555595D01*
X57920000Y-143460357D01*
X57967619Y-143412738D01*
X58062857Y-143365119D01*
X58205714Y-143365119D01*
X58300952Y-143412738D01*
X58348571Y-143460357D01*
X58396190Y-143555595D01*
X58396190Y-143936547D01*
X57505000Y-143174642D02*
X57505000Y-142698452D01*
X58872380Y-142936547D02*
X57872380Y-142936547D01*
X57505000Y-142698452D02*
X57505000Y-141936547D01*
X57872380Y-142603214D02*
X57872380Y-142031785D01*
X58872380Y-142317500D02*
X57872380Y-142317500D01*
X57505000Y-141936547D02*
X57505000Y-141031785D01*
X58348571Y-141698452D02*
X58348571Y-141365119D01*
X58872380Y-141222261D02*
X58872380Y-141698452D01*
X57872380Y-141698452D01*
X57872380Y-141222261D01*
X60045000Y-145317500D02*
X60045000Y-144317500D01*
X61412380Y-144507976D02*
X60936190Y-144841309D01*
X61412380Y-145079404D02*
X60412380Y-145079404D01*
X60412380Y-144698452D01*
X60460000Y-144603214D01*
X60507619Y-144555595D01*
X60602857Y-144507976D01*
X60745714Y-144507976D01*
X60840952Y-144555595D01*
X60888571Y-144603214D01*
X60936190Y-144698452D01*
X60936190Y-145079404D01*
X60045000Y-144317500D02*
X60045000Y-143412738D01*
X60888571Y-144079404D02*
X60888571Y-143746071D01*
X61412380Y-143603214D02*
X61412380Y-144079404D01*
X60412380Y-144079404D01*
X60412380Y-143603214D01*
X60045000Y-143412738D02*
X60045000Y-142555595D01*
X61126666Y-143222261D02*
X61126666Y-142746071D01*
X61412380Y-143317500D02*
X60412380Y-142984166D01*
X61412380Y-142650833D01*
X60045000Y-142555595D02*
X60045000Y-141555595D01*
X61412380Y-142317500D02*
X60412380Y-142317500D01*
X60412380Y-142079404D01*
X60460000Y-141936547D01*
X60555238Y-141841309D01*
X60650476Y-141793690D01*
X60840952Y-141746071D01*
X60983809Y-141746071D01*
X61174285Y-141793690D01*
X61269523Y-141841309D01*
X61364761Y-141936547D01*
X61412380Y-142079404D01*
X61412380Y-142317500D01*
X63952380Y-144507976D02*
X63476190Y-144841309D01*
X63952380Y-145079404D02*
X62952380Y-145079404D01*
X62952380Y-144698452D01*
X63000000Y-144603214D01*
X63047619Y-144555595D01*
X63142857Y-144507976D01*
X63285714Y-144507976D01*
X63380952Y-144555595D01*
X63428571Y-144603214D01*
X63476190Y-144698452D01*
X63476190Y-145079404D01*
X62585000Y-144317500D02*
X62585000Y-143174642D01*
X62952380Y-144174642D02*
X63952380Y-143936547D01*
X63238095Y-143746071D01*
X63952380Y-143555595D01*
X62952380Y-143317500D01*
X66492380Y-144507976D02*
X66016190Y-144841309D01*
X66492380Y-145079404D02*
X65492380Y-145079404D01*
X65492380Y-144698452D01*
X65540000Y-144603214D01*
X65587619Y-144555595D01*
X65682857Y-144507976D01*
X65825714Y-144507976D01*
X65920952Y-144555595D01*
X65968571Y-144603214D01*
X66016190Y-144698452D01*
X66016190Y-145079404D01*
X66492380Y-144079404D02*
X65492380Y-144079404D01*
X65492380Y-143841309D01*
X65540000Y-143698452D01*
X65635238Y-143603214D01*
X65730476Y-143555595D01*
X65920952Y-143507976D01*
X66063809Y-143507976D01*
X66254285Y-143555595D01*
X66349523Y-143603214D01*
X66444761Y-143698452D01*
X66492380Y-143841309D01*
X66492380Y-144079404D01*
X66016190Y-142888928D02*
X66492380Y-142888928D01*
X65492380Y-143222261D02*
X66016190Y-142888928D01*
X65492380Y-142555595D01*
X68508571Y-144746071D02*
X68556190Y-144603214D01*
X68603809Y-144555595D01*
X68699047Y-144507976D01*
X68841904Y-144507976D01*
X68937142Y-144555595D01*
X68984761Y-144603214D01*
X69032380Y-144698452D01*
X69032380Y-145079404D01*
X68032380Y-145079404D01*
X68032380Y-144746071D01*
X68080000Y-144650833D01*
X68127619Y-144603214D01*
X68222857Y-144555595D01*
X68318095Y-144555595D01*
X68413333Y-144603214D01*
X68460952Y-144650833D01*
X68508571Y-144746071D01*
X68508571Y-145079404D01*
X68508571Y-144079404D02*
X68508571Y-143746071D01*
X69032380Y-143603214D02*
X69032380Y-144079404D01*
X68032380Y-144079404D01*
X68032380Y-143603214D01*
X70205000Y-145317500D02*
X70205000Y-144269880D01*
X71572380Y-145079404D02*
X70572380Y-145079404D01*
X71572380Y-144507976D01*
X70572380Y-144507976D01*
X70205000Y-144269880D02*
X70205000Y-143127023D01*
X71572380Y-144031785D02*
X70572380Y-144031785D01*
X71286666Y-143698452D01*
X70572380Y-143365119D01*
X71572380Y-143365119D01*
X70205000Y-143127023D02*
X70205000Y-142650833D01*
X71572380Y-142888928D02*
X70572380Y-142888928D01*
X76604761Y-145127023D02*
X76652380Y-144984166D01*
X76652380Y-144746071D01*
X76604761Y-144650833D01*
X76557142Y-144603214D01*
X76461904Y-144555595D01*
X76366666Y-144555595D01*
X76271428Y-144603214D01*
X76223809Y-144650833D01*
X76176190Y-144746071D01*
X76128571Y-144936547D01*
X76080952Y-145031785D01*
X76033333Y-145079404D01*
X75938095Y-145127023D01*
X75842857Y-145127023D01*
X75747619Y-145079404D01*
X75700000Y-145031785D01*
X75652380Y-144936547D01*
X75652380Y-144698452D01*
X75700000Y-144555595D01*
X76176190Y-143936547D02*
X76652380Y-143936547D01*
X75652380Y-144269880D02*
X76176190Y-143936547D01*
X75652380Y-143603214D01*
X76652380Y-143269880D02*
X75652380Y-143269880D01*
X76652380Y-142698452D01*
X75652380Y-142698452D01*
X76557142Y-141650833D02*
X76604761Y-141698452D01*
X76652380Y-141841309D01*
X76652380Y-141936547D01*
X76604761Y-142079404D01*
X76509523Y-142174642D01*
X76414285Y-142222261D01*
X76223809Y-142269880D01*
X76080952Y-142269880D01*
X75890476Y-142222261D01*
X75795238Y-142174642D01*
X75700000Y-142079404D01*
X75652380Y-141936547D01*
X75652380Y-141841309D01*
X75700000Y-141698452D01*
X75747619Y-141650833D01*
X77825000Y-145317500D02*
X77825000Y-144317500D01*
X79192380Y-144507976D02*
X78716190Y-144841309D01*
X79192380Y-145079404D02*
X78192380Y-145079404D01*
X78192380Y-144698452D01*
X78240000Y-144603214D01*
X78287619Y-144555595D01*
X78382857Y-144507976D01*
X78525714Y-144507976D01*
X78620952Y-144555595D01*
X78668571Y-144603214D01*
X78716190Y-144698452D01*
X78716190Y-145079404D01*
X77825000Y-144317500D02*
X77825000Y-143269880D01*
X78192380Y-143888928D02*
X78192380Y-143698452D01*
X78240000Y-143603214D01*
X78335238Y-143507976D01*
X78525714Y-143460357D01*
X78859047Y-143460357D01*
X79049523Y-143507976D01*
X79144761Y-143603214D01*
X79192380Y-143698452D01*
X79192380Y-143888928D01*
X79144761Y-143984166D01*
X79049523Y-144079404D01*
X78859047Y-144127023D01*
X78525714Y-144127023D01*
X78335238Y-144079404D01*
X78240000Y-143984166D01*
X78192380Y-143888928D01*
X77825000Y-143269880D02*
X77825000Y-142127023D01*
X79192380Y-143031785D02*
X78192380Y-143031785D01*
X78906666Y-142698452D01*
X78192380Y-142365119D01*
X79192380Y-142365119D01*
X77825000Y-142127023D02*
X77825000Y-140984166D01*
X78192380Y-141984166D02*
X79192380Y-141746071D01*
X78478095Y-141555595D01*
X79192380Y-141365119D01*
X78192380Y-141127023D01*
X81446666Y-145127023D02*
X81446666Y-144650833D01*
X81732380Y-145222261D02*
X80732380Y-144888928D01*
X81732380Y-144555595D01*
X80732380Y-144031785D02*
X80732380Y-143936547D01*
X80780000Y-143841309D01*
X80827619Y-143793690D01*
X80922857Y-143746071D01*
X81113333Y-143698452D01*
X81351428Y-143698452D01*
X81541904Y-143746071D01*
X81637142Y-143793690D01*
X81684761Y-143841309D01*
X81732380Y-143936547D01*
X81732380Y-144031785D01*
X81684761Y-144127023D01*
X81637142Y-144174642D01*
X81541904Y-144222261D01*
X81351428Y-144269880D01*
X81113333Y-144269880D01*
X80922857Y-144222261D01*
X80827619Y-144174642D01*
X80780000Y-144127023D01*
X80732380Y-144031785D01*
X83986666Y-145127023D02*
X83986666Y-144650833D01*
X84272380Y-145222261D02*
X83272380Y-144888928D01*
X84272380Y-144555595D01*
X84272380Y-143698452D02*
X84272380Y-144269880D01*
X84272380Y-143984166D02*
X83272380Y-143984166D01*
X83415238Y-144079404D01*
X83510476Y-144174642D01*
X83558095Y-144269880D01*
X86526666Y-145127023D02*
X86526666Y-144650833D01*
X86812380Y-145222261D02*
X85812380Y-144888928D01*
X86812380Y-144555595D01*
X85907619Y-144269880D02*
X85860000Y-144222261D01*
X85812380Y-144127023D01*
X85812380Y-143888928D01*
X85860000Y-143793690D01*
X85907619Y-143746071D01*
X86002857Y-143698452D01*
X86098095Y-143698452D01*
X86240952Y-143746071D01*
X86812380Y-144317500D01*
X86812380Y-143698452D01*
X89066666Y-145127023D02*
X89066666Y-144650833D01*
X89352380Y-145222261D02*
X88352380Y-144888928D01*
X89352380Y-144555595D01*
X88352380Y-144317500D02*
X88352380Y-143698452D01*
X88733333Y-144031785D01*
X88733333Y-143888928D01*
X88780952Y-143793690D01*
X88828571Y-143746071D01*
X88923809Y-143698452D01*
X89161904Y-143698452D01*
X89257142Y-143746071D01*
X89304761Y-143793690D01*
X89352380Y-143888928D01*
X89352380Y-144174642D01*
X89304761Y-144269880D01*
X89257142Y-144317500D01*
X91892380Y-145079404D02*
X90892380Y-145079404D01*
X90892380Y-144841309D01*
X90940000Y-144698452D01*
X91035238Y-144603214D01*
X91130476Y-144555595D01*
X91320952Y-144507976D01*
X91463809Y-144507976D01*
X91654285Y-144555595D01*
X91749523Y-144603214D01*
X91844761Y-144698452D01*
X91892380Y-144841309D01*
X91892380Y-145079404D01*
X90892380Y-143888928D02*
X90892380Y-143793690D01*
X90940000Y-143698452D01*
X90987619Y-143650833D01*
X91082857Y-143603214D01*
X91273333Y-143555595D01*
X91511428Y-143555595D01*
X91701904Y-143603214D01*
X91797142Y-143650833D01*
X91844761Y-143698452D01*
X91892380Y-143793690D01*
X91892380Y-143888928D01*
X91844761Y-143984166D01*
X91797142Y-144031785D01*
X91701904Y-144079404D01*
X91511428Y-144127023D01*
X91273333Y-144127023D01*
X91082857Y-144079404D01*
X90987619Y-144031785D01*
X90940000Y-143984166D01*
X90892380Y-143888928D01*
X94432380Y-145079404D02*
X93432380Y-145079404D01*
X93432380Y-144841309D01*
X93480000Y-144698452D01*
X93575238Y-144603214D01*
X93670476Y-144555595D01*
X93860952Y-144507976D01*
X94003809Y-144507976D01*
X94194285Y-144555595D01*
X94289523Y-144603214D01*
X94384761Y-144698452D01*
X94432380Y-144841309D01*
X94432380Y-145079404D01*
X94432380Y-143555595D02*
X94432380Y-144127023D01*
X94432380Y-143841309D02*
X93432380Y-143841309D01*
X93575238Y-143936547D01*
X93670476Y-144031785D01*
X93718095Y-144127023D01*
X96972380Y-145079404D02*
X95972380Y-145079404D01*
X95972380Y-144841309D01*
X96020000Y-144698452D01*
X96115238Y-144603214D01*
X96210476Y-144555595D01*
X96400952Y-144507976D01*
X96543809Y-144507976D01*
X96734285Y-144555595D01*
X96829523Y-144603214D01*
X96924761Y-144698452D01*
X96972380Y-144841309D01*
X96972380Y-145079404D01*
X96067619Y-144127023D02*
X96020000Y-144079404D01*
X95972380Y-143984166D01*
X95972380Y-143746071D01*
X96020000Y-143650833D01*
X96067619Y-143603214D01*
X96162857Y-143555595D01*
X96258095Y-143555595D01*
X96400952Y-143603214D01*
X96972380Y-144174642D01*
X96972380Y-143555595D01*
X99512380Y-145079404D02*
X98512380Y-145079404D01*
X98512380Y-144841309D01*
X98560000Y-144698452D01*
X98655238Y-144603214D01*
X98750476Y-144555595D01*
X98940952Y-144507976D01*
X99083809Y-144507976D01*
X99274285Y-144555595D01*
X99369523Y-144603214D01*
X99464761Y-144698452D01*
X99512380Y-144841309D01*
X99512380Y-145079404D01*
X98512380Y-144174642D02*
X98512380Y-143555595D01*
X98893333Y-143888928D01*
X98893333Y-143746071D01*
X98940952Y-143650833D01*
X98988571Y-143603214D01*
X99083809Y-143555595D01*
X99321904Y-143555595D01*
X99417142Y-143603214D01*
X99464761Y-143650833D01*
X99512380Y-143746071D01*
X99512380Y-144031785D01*
X99464761Y-144127023D01*
X99417142Y-144174642D01*
X102052380Y-145079404D02*
X101052380Y-145079404D01*
X101052380Y-144841309D01*
X101100000Y-144698452D01*
X101195238Y-144603214D01*
X101290476Y-144555595D01*
X101480952Y-144507976D01*
X101623809Y-144507976D01*
X101814285Y-144555595D01*
X101909523Y-144603214D01*
X102004761Y-144698452D01*
X102052380Y-144841309D01*
X102052380Y-145079404D01*
X101385714Y-143650833D02*
X102052380Y-143650833D01*
X101004761Y-143888928D02*
X101719047Y-144127023D01*
X101719047Y-143507976D01*
X104592380Y-145079404D02*
X103592380Y-145079404D01*
X103592380Y-144841309D01*
X103640000Y-144698452D01*
X103735238Y-144603214D01*
X103830476Y-144555595D01*
X104020952Y-144507976D01*
X104163809Y-144507976D01*
X104354285Y-144555595D01*
X104449523Y-144603214D01*
X104544761Y-144698452D01*
X104592380Y-144841309D01*
X104592380Y-145079404D01*
X103592380Y-143603214D02*
X103592380Y-144079404D01*
X104068571Y-144127023D01*
X104020952Y-144079404D01*
X103973333Y-143984166D01*
X103973333Y-143746071D01*
X104020952Y-143650833D01*
X104068571Y-143603214D01*
X104163809Y-143555595D01*
X104401904Y-143555595D01*
X104497142Y-143603214D01*
X104544761Y-143650833D01*
X104592380Y-143746071D01*
X104592380Y-143984166D01*
X104544761Y-144079404D01*
X104497142Y-144127023D01*
X107132380Y-145079404D02*
X106132380Y-145079404D01*
X106132380Y-144841309D01*
X106180000Y-144698452D01*
X106275238Y-144603214D01*
X106370476Y-144555595D01*
X106560952Y-144507976D01*
X106703809Y-144507976D01*
X106894285Y-144555595D01*
X106989523Y-144603214D01*
X107084761Y-144698452D01*
X107132380Y-144841309D01*
X107132380Y-145079404D01*
X106132380Y-143650833D02*
X106132380Y-143841309D01*
X106180000Y-143936547D01*
X106227619Y-143984166D01*
X106370476Y-144079404D01*
X106560952Y-144127023D01*
X106941904Y-144127023D01*
X107037142Y-144079404D01*
X107084761Y-144031785D01*
X107132380Y-143936547D01*
X107132380Y-143746071D01*
X107084761Y-143650833D01*
X107037142Y-143603214D01*
X106941904Y-143555595D01*
X106703809Y-143555595D01*
X106608571Y-143603214D01*
X106560952Y-143650833D01*
X106513333Y-143746071D01*
X106513333Y-143936547D01*
X106560952Y-144031785D01*
X106608571Y-144079404D01*
X106703809Y-144127023D01*
X109672380Y-145079404D02*
X108672380Y-145079404D01*
X108672380Y-144841309D01*
X108720000Y-144698452D01*
X108815238Y-144603214D01*
X108910476Y-144555595D01*
X109100952Y-144507976D01*
X109243809Y-144507976D01*
X109434285Y-144555595D01*
X109529523Y-144603214D01*
X109624761Y-144698452D01*
X109672380Y-144841309D01*
X109672380Y-145079404D01*
X108672380Y-144174642D02*
X108672380Y-143507976D01*
X109672380Y-143936547D01*
X110845000Y-145317500D02*
X110845000Y-144841309D01*
X112212380Y-145079404D02*
X111212380Y-145079404D01*
X110845000Y-144841309D02*
X110845000Y-143793690D01*
X111212380Y-144412738D02*
X111212380Y-144222261D01*
X111260000Y-144127023D01*
X111355238Y-144031785D01*
X111545714Y-143984166D01*
X111879047Y-143984166D01*
X112069523Y-144031785D01*
X112164761Y-144127023D01*
X112212380Y-144222261D01*
X112212380Y-144412738D01*
X112164761Y-144507976D01*
X112069523Y-144603214D01*
X111879047Y-144650833D01*
X111545714Y-144650833D01*
X111355238Y-144603214D01*
X111260000Y-144507976D01*
X111212380Y-144412738D01*
X110845000Y-143793690D02*
X110845000Y-142841309D01*
X111307619Y-143603214D02*
X111260000Y-143555595D01*
X111212380Y-143460357D01*
X111212380Y-143222261D01*
X111260000Y-143127023D01*
X111307619Y-143079404D01*
X111402857Y-143031785D01*
X111498095Y-143031785D01*
X111640952Y-143079404D01*
X112212380Y-143650833D01*
X112212380Y-143031785D01*
X113385000Y-145317500D02*
X113385000Y-144841309D01*
X114752380Y-145079404D02*
X113752380Y-145079404D01*
X113385000Y-144841309D02*
X113385000Y-143793690D01*
X113752380Y-144412738D02*
X113752380Y-144222261D01*
X113800000Y-144127023D01*
X113895238Y-144031785D01*
X114085714Y-143984166D01*
X114419047Y-143984166D01*
X114609523Y-144031785D01*
X114704761Y-144127023D01*
X114752380Y-144222261D01*
X114752380Y-144412738D01*
X114704761Y-144507976D01*
X114609523Y-144603214D01*
X114419047Y-144650833D01*
X114085714Y-144650833D01*
X113895238Y-144603214D01*
X113800000Y-144507976D01*
X113752380Y-144412738D01*
X113385000Y-143793690D02*
X113385000Y-142841309D01*
X113752380Y-143650833D02*
X113752380Y-143031785D01*
X114133333Y-143365119D01*
X114133333Y-143222261D01*
X114180952Y-143127023D01*
X114228571Y-143079404D01*
X114323809Y-143031785D01*
X114561904Y-143031785D01*
X114657142Y-143079404D01*
X114704761Y-143127023D01*
X114752380Y-143222261D01*
X114752380Y-143507976D01*
X114704761Y-143603214D01*
X114657142Y-143650833D01*
X115925000Y-145317500D02*
X115925000Y-144841309D01*
X117292380Y-145079404D02*
X116292380Y-145079404D01*
X115925000Y-144841309D02*
X115925000Y-143793690D01*
X116292380Y-144412738D02*
X116292380Y-144222261D01*
X116340000Y-144127023D01*
X116435238Y-144031785D01*
X116625714Y-143984166D01*
X116959047Y-143984166D01*
X117149523Y-144031785D01*
X117244761Y-144127023D01*
X117292380Y-144222261D01*
X117292380Y-144412738D01*
X117244761Y-144507976D01*
X117149523Y-144603214D01*
X116959047Y-144650833D01*
X116625714Y-144650833D01*
X116435238Y-144603214D01*
X116340000Y-144507976D01*
X116292380Y-144412738D01*
X115925000Y-143793690D02*
X115925000Y-142841309D01*
X116625714Y-143127023D02*
X117292380Y-143127023D01*
X116244761Y-143365119D02*
X116959047Y-143603214D01*
X116959047Y-142984166D01*
X118465000Y-145317500D02*
X118465000Y-144841309D01*
X119832380Y-145079404D02*
X118832380Y-145079404D01*
X118465000Y-144841309D02*
X118465000Y-143841309D01*
X119832380Y-144031785D02*
X119356190Y-144365119D01*
X119832380Y-144603214D02*
X118832380Y-144603214D01*
X118832380Y-144222261D01*
X118880000Y-144127023D01*
X118927619Y-144079404D01*
X119022857Y-144031785D01*
X119165714Y-144031785D01*
X119260952Y-144079404D01*
X119308571Y-144127023D01*
X119356190Y-144222261D01*
X119356190Y-144603214D01*
X118465000Y-143841309D02*
X118465000Y-142793690D01*
X119927619Y-142936547D02*
X119880000Y-143031785D01*
X119784761Y-143127023D01*
X119641904Y-143269880D01*
X119594285Y-143365119D01*
X119594285Y-143460357D01*
X119832380Y-143412738D02*
X119784761Y-143507976D01*
X119689523Y-143603214D01*
X119499047Y-143650833D01*
X119165714Y-143650833D01*
X118975238Y-143603214D01*
X118880000Y-143507976D01*
X118832380Y-143412738D01*
X118832380Y-143222261D01*
X118880000Y-143127023D01*
X118975238Y-143031785D01*
X119165714Y-142984166D01*
X119499047Y-142984166D01*
X119689523Y-143031785D01*
X119784761Y-143127023D01*
X119832380Y-143222261D01*
X119832380Y-143412738D01*
X118465000Y-142793690D02*
X118465000Y-141841309D01*
X118927619Y-142603214D02*
X118880000Y-142555595D01*
X118832380Y-142460357D01*
X118832380Y-142222261D01*
X118880000Y-142127023D01*
X118927619Y-142079404D01*
X119022857Y-142031785D01*
X119118095Y-142031785D01*
X119260952Y-142079404D01*
X119832380Y-142650833D01*
X119832380Y-142031785D01*
X121005000Y-145317500D02*
X121005000Y-144841309D01*
X122372380Y-145079404D02*
X121372380Y-145079404D01*
X121005000Y-144841309D02*
X121005000Y-143841309D01*
X122372380Y-144031785D02*
X121896190Y-144365119D01*
X122372380Y-144603214D02*
X121372380Y-144603214D01*
X121372380Y-144222261D01*
X121420000Y-144127023D01*
X121467619Y-144079404D01*
X121562857Y-144031785D01*
X121705714Y-144031785D01*
X121800952Y-144079404D01*
X121848571Y-144127023D01*
X121896190Y-144222261D01*
X121896190Y-144603214D01*
X121005000Y-143841309D02*
X121005000Y-142793690D01*
X122467619Y-142936547D02*
X122420000Y-143031785D01*
X122324761Y-143127023D01*
X122181904Y-143269880D01*
X122134285Y-143365119D01*
X122134285Y-143460357D01*
X122372380Y-143412738D02*
X122324761Y-143507976D01*
X122229523Y-143603214D01*
X122039047Y-143650833D01*
X121705714Y-143650833D01*
X121515238Y-143603214D01*
X121420000Y-143507976D01*
X121372380Y-143412738D01*
X121372380Y-143222261D01*
X121420000Y-143127023D01*
X121515238Y-143031785D01*
X121705714Y-142984166D01*
X122039047Y-142984166D01*
X122229523Y-143031785D01*
X122324761Y-143127023D01*
X122372380Y-143222261D01*
X122372380Y-143412738D01*
X121005000Y-142793690D02*
X121005000Y-141841309D01*
X121372380Y-142650833D02*
X121372380Y-142031785D01*
X121753333Y-142365119D01*
X121753333Y-142222261D01*
X121800952Y-142127023D01*
X121848571Y-142079404D01*
X121943809Y-142031785D01*
X122181904Y-142031785D01*
X122277142Y-142079404D01*
X122324761Y-142127023D01*
X122372380Y-142222261D01*
X122372380Y-142507976D01*
X122324761Y-142603214D01*
X122277142Y-142650833D01*
X123545000Y-145317500D02*
X123545000Y-144841309D01*
X124912380Y-145079404D02*
X123912380Y-145079404D01*
X123545000Y-144841309D02*
X123545000Y-143841309D01*
X124912380Y-144031785D02*
X124436190Y-144365119D01*
X124912380Y-144603214D02*
X123912380Y-144603214D01*
X123912380Y-144222261D01*
X123960000Y-144127023D01*
X124007619Y-144079404D01*
X124102857Y-144031785D01*
X124245714Y-144031785D01*
X124340952Y-144079404D01*
X124388571Y-144127023D01*
X124436190Y-144222261D01*
X124436190Y-144603214D01*
X123545000Y-143841309D02*
X123545000Y-142793690D01*
X125007619Y-142936547D02*
X124960000Y-143031785D01*
X124864761Y-143127023D01*
X124721904Y-143269880D01*
X124674285Y-143365119D01*
X124674285Y-143460357D01*
X124912380Y-143412738D02*
X124864761Y-143507976D01*
X124769523Y-143603214D01*
X124579047Y-143650833D01*
X124245714Y-143650833D01*
X124055238Y-143603214D01*
X123960000Y-143507976D01*
X123912380Y-143412738D01*
X123912380Y-143222261D01*
X123960000Y-143127023D01*
X124055238Y-143031785D01*
X124245714Y-142984166D01*
X124579047Y-142984166D01*
X124769523Y-143031785D01*
X124864761Y-143127023D01*
X124912380Y-143222261D01*
X124912380Y-143412738D01*
X123545000Y-142793690D02*
X123545000Y-141841309D01*
X124245714Y-142127023D02*
X124912380Y-142127023D01*
X123864761Y-142365119D02*
X124579047Y-142603214D01*
X124579047Y-141984166D01*
X127452380Y-145079404D02*
X126452380Y-145079404D01*
X126452380Y-144698452D01*
X126500000Y-144603214D01*
X126547619Y-144555595D01*
X126642857Y-144507976D01*
X126785714Y-144507976D01*
X126880952Y-144555595D01*
X126928571Y-144603214D01*
X126976190Y-144698452D01*
X126976190Y-145079404D01*
X127166666Y-144127023D02*
X127166666Y-143650833D01*
X127452380Y-144222261D02*
X126452380Y-143888928D01*
X127452380Y-143555595D01*
X126452380Y-143031785D02*
X126452380Y-142936547D01*
X126500000Y-142841309D01*
X126547619Y-142793690D01*
X126642857Y-142746071D01*
X126833333Y-142698452D01*
X127071428Y-142698452D01*
X127261904Y-142746071D01*
X127357142Y-142793690D01*
X127404761Y-142841309D01*
X127452380Y-142936547D01*
X127452380Y-143031785D01*
X127404761Y-143127023D01*
X127357142Y-143174642D01*
X127261904Y-143222261D01*
X127071428Y-143269880D01*
X126833333Y-143269880D01*
X126642857Y-143222261D01*
X126547619Y-143174642D01*
X126500000Y-143127023D01*
X126452380Y-143031785D01*
X129992380Y-145079404D02*
X128992380Y-145079404D01*
X128992380Y-144698452D01*
X129040000Y-144603214D01*
X129087619Y-144555595D01*
X129182857Y-144507976D01*
X129325714Y-144507976D01*
X129420952Y-144555595D01*
X129468571Y-144603214D01*
X129516190Y-144698452D01*
X129516190Y-145079404D01*
X129706666Y-144127023D02*
X129706666Y-143650833D01*
X129992380Y-144222261D02*
X128992380Y-143888928D01*
X129992380Y-143555595D01*
X129992380Y-142698452D02*
X129992380Y-143269880D01*
X129992380Y-142984166D02*
X128992380Y-142984166D01*
X129135238Y-143079404D01*
X129230476Y-143174642D01*
X129278095Y-143269880D01*
X132532380Y-145079404D02*
X131532380Y-145079404D01*
X131532380Y-144698452D01*
X131580000Y-144603214D01*
X131627619Y-144555595D01*
X131722857Y-144507976D01*
X131865714Y-144507976D01*
X131960952Y-144555595D01*
X132008571Y-144603214D01*
X132056190Y-144698452D01*
X132056190Y-145079404D01*
X132246666Y-144127023D02*
X132246666Y-143650833D01*
X132532380Y-144222261D02*
X131532380Y-143888928D01*
X132532380Y-143555595D01*
X131627619Y-143269880D02*
X131580000Y-143222261D01*
X131532380Y-143127023D01*
X131532380Y-142888928D01*
X131580000Y-142793690D01*
X131627619Y-142746071D01*
X131722857Y-142698452D01*
X131818095Y-142698452D01*
X131960952Y-142746071D01*
X132532380Y-143317500D01*
X132532380Y-142698452D01*
X135072380Y-145079404D02*
X134072380Y-145079404D01*
X134072380Y-144698452D01*
X134120000Y-144603214D01*
X134167619Y-144555595D01*
X134262857Y-144507976D01*
X134405714Y-144507976D01*
X134500952Y-144555595D01*
X134548571Y-144603214D01*
X134596190Y-144698452D01*
X134596190Y-145079404D01*
X134786666Y-144127023D02*
X134786666Y-143650833D01*
X135072380Y-144222261D02*
X134072380Y-143888928D01*
X135072380Y-143555595D01*
X134072380Y-143317500D02*
X134072380Y-142698452D01*
X134453333Y-143031785D01*
X134453333Y-142888928D01*
X134500952Y-142793690D01*
X134548571Y-142746071D01*
X134643809Y-142698452D01*
X134881904Y-142698452D01*
X134977142Y-142746071D01*
X135024761Y-142793690D01*
X135072380Y-142888928D01*
X135072380Y-143174642D01*
X135024761Y-143269880D01*
X134977142Y-143317500D01*
X137612380Y-145079404D02*
X136612380Y-145079404D01*
X136612380Y-144698452D01*
X136660000Y-144603214D01*
X136707619Y-144555595D01*
X136802857Y-144507976D01*
X136945714Y-144507976D01*
X137040952Y-144555595D01*
X137088571Y-144603214D01*
X137136190Y-144698452D01*
X137136190Y-145079404D01*
X137326666Y-144127023D02*
X137326666Y-143650833D01*
X137612380Y-144222261D02*
X136612380Y-143888928D01*
X137612380Y-143555595D01*
X136945714Y-142793690D02*
X137612380Y-142793690D01*
X136564761Y-143031785D02*
X137279047Y-143269880D01*
X137279047Y-142650833D01*
X140152380Y-145079404D02*
X139152380Y-145079404D01*
X139152380Y-144698452D01*
X139200000Y-144603214D01*
X139247619Y-144555595D01*
X139342857Y-144507976D01*
X139485714Y-144507976D01*
X139580952Y-144555595D01*
X139628571Y-144603214D01*
X139676190Y-144698452D01*
X139676190Y-145079404D01*
X139866666Y-144127023D02*
X139866666Y-143650833D01*
X140152380Y-144222261D02*
X139152380Y-143888928D01*
X140152380Y-143555595D01*
X139152380Y-142746071D02*
X139152380Y-143222261D01*
X139628571Y-143269880D01*
X139580952Y-143222261D01*
X139533333Y-143127023D01*
X139533333Y-142888928D01*
X139580952Y-142793690D01*
X139628571Y-142746071D01*
X139723809Y-142698452D01*
X139961904Y-142698452D01*
X140057142Y-142746071D01*
X140104761Y-142793690D01*
X140152380Y-142888928D01*
X140152380Y-143127023D01*
X140104761Y-143222261D01*
X140057142Y-143269880D01*
X142692380Y-145079404D02*
X141692380Y-145079404D01*
X141692380Y-144698452D01*
X141740000Y-144603214D01*
X141787619Y-144555595D01*
X141882857Y-144507976D01*
X142025714Y-144507976D01*
X142120952Y-144555595D01*
X142168571Y-144603214D01*
X142216190Y-144698452D01*
X142216190Y-145079404D01*
X142406666Y-144127023D02*
X142406666Y-143650833D01*
X142692380Y-144222261D02*
X141692380Y-143888928D01*
X142692380Y-143555595D01*
X141692380Y-142793690D02*
X141692380Y-142984166D01*
X141740000Y-143079404D01*
X141787619Y-143127023D01*
X141930476Y-143222261D01*
X142120952Y-143269880D01*
X142501904Y-143269880D01*
X142597142Y-143222261D01*
X142644761Y-143174642D01*
X142692380Y-143079404D01*
X142692380Y-142888928D01*
X142644761Y-142793690D01*
X142597142Y-142746071D01*
X142501904Y-142698452D01*
X142263809Y-142698452D01*
X142168571Y-142746071D01*
X142120952Y-142793690D01*
X142073333Y-142888928D01*
X142073333Y-143079404D01*
X142120952Y-143174642D01*
X142168571Y-143222261D01*
X142263809Y-143269880D01*
X145232380Y-145079404D02*
X144232380Y-145079404D01*
X144232380Y-144698452D01*
X144280000Y-144603214D01*
X144327619Y-144555595D01*
X144422857Y-144507976D01*
X144565714Y-144507976D01*
X144660952Y-144555595D01*
X144708571Y-144603214D01*
X144756190Y-144698452D01*
X144756190Y-145079404D01*
X144946666Y-144127023D02*
X144946666Y-143650833D01*
X145232380Y-144222261D02*
X144232380Y-143888928D01*
X145232380Y-143555595D01*
X144232380Y-143317500D02*
X144232380Y-142650833D01*
X145232380Y-143079404D01*
X147677142Y-144507976D02*
X147724761Y-144555595D01*
X147772380Y-144698452D01*
X147772380Y-144793690D01*
X147724761Y-144936547D01*
X147629523Y-145031785D01*
X147534285Y-145079404D01*
X147343809Y-145127023D01*
X147200952Y-145127023D01*
X147010476Y-145079404D01*
X146915238Y-145031785D01*
X146820000Y-144936547D01*
X146772380Y-144793690D01*
X146772380Y-144698452D01*
X146820000Y-144555595D01*
X146867619Y-144507976D01*
X147486666Y-144127023D02*
X147486666Y-143650833D01*
X147772380Y-144222261D02*
X146772380Y-143888928D01*
X147772380Y-143555595D01*
X147772380Y-142698452D02*
X147772380Y-143269880D01*
X147772380Y-142984166D02*
X146772380Y-142984166D01*
X146915238Y-143079404D01*
X147010476Y-143174642D01*
X147058095Y-143269880D01*
X150217142Y-144507976D02*
X150264761Y-144555595D01*
X150312380Y-144698452D01*
X150312380Y-144793690D01*
X150264761Y-144936547D01*
X150169523Y-145031785D01*
X150074285Y-145079404D01*
X149883809Y-145127023D01*
X149740952Y-145127023D01*
X149550476Y-145079404D01*
X149455238Y-145031785D01*
X149360000Y-144936547D01*
X149312380Y-144793690D01*
X149312380Y-144698452D01*
X149360000Y-144555595D01*
X149407619Y-144507976D01*
X150026666Y-144127023D02*
X150026666Y-143650833D01*
X150312380Y-144222261D02*
X149312380Y-143888928D01*
X150312380Y-143555595D01*
X149407619Y-143269880D02*
X149360000Y-143222261D01*
X149312380Y-143127023D01*
X149312380Y-142888928D01*
X149360000Y-142793690D01*
X149407619Y-142746071D01*
X149502857Y-142698452D01*
X149598095Y-142698452D01*
X149740952Y-142746071D01*
X150312380Y-143317500D01*
X150312380Y-142698452D01*
X152852380Y-145079404D02*
X151852380Y-145079404D01*
X151852380Y-144698452D01*
X151900000Y-144603214D01*
X151947619Y-144555595D01*
X152042857Y-144507976D01*
X152185714Y-144507976D01*
X152280952Y-144555595D01*
X152328571Y-144603214D01*
X152376190Y-144698452D01*
X152376190Y-145079404D01*
X152328571Y-143746071D02*
X152376190Y-143603214D01*
X152423809Y-143555595D01*
X152519047Y-143507976D01*
X152661904Y-143507976D01*
X152757142Y-143555595D01*
X152804761Y-143603214D01*
X152852380Y-143698452D01*
X152852380Y-144079404D01*
X151852380Y-144079404D01*
X151852380Y-143746071D01*
X151900000Y-143650833D01*
X151947619Y-143603214D01*
X152042857Y-143555595D01*
X152138095Y-143555595D01*
X152233333Y-143603214D01*
X152280952Y-143650833D01*
X152328571Y-143746071D01*
X152328571Y-144079404D01*
X151852380Y-142888928D02*
X151852380Y-142793690D01*
X151900000Y-142698452D01*
X151947619Y-142650833D01*
X152042857Y-142603214D01*
X152233333Y-142555595D01*
X152471428Y-142555595D01*
X152661904Y-142603214D01*
X152757142Y-142650833D01*
X152804761Y-142698452D01*
X152852380Y-142793690D01*
X152852380Y-142888928D01*
X152804761Y-142984166D01*
X152757142Y-143031785D01*
X152661904Y-143079404D01*
X152471428Y-143127023D01*
X152233333Y-143127023D01*
X152042857Y-143079404D01*
X151947619Y-143031785D01*
X151900000Y-142984166D01*
X151852380Y-142888928D01*
X155392380Y-145079404D02*
X154392380Y-145079404D01*
X154392380Y-144698452D01*
X154440000Y-144603214D01*
X154487619Y-144555595D01*
X154582857Y-144507976D01*
X154725714Y-144507976D01*
X154820952Y-144555595D01*
X154868571Y-144603214D01*
X154916190Y-144698452D01*
X154916190Y-145079404D01*
X154868571Y-143746071D02*
X154916190Y-143603214D01*
X154963809Y-143555595D01*
X155059047Y-143507976D01*
X155201904Y-143507976D01*
X155297142Y-143555595D01*
X155344761Y-143603214D01*
X155392380Y-143698452D01*
X155392380Y-144079404D01*
X154392380Y-144079404D01*
X154392380Y-143746071D01*
X154440000Y-143650833D01*
X154487619Y-143603214D01*
X154582857Y-143555595D01*
X154678095Y-143555595D01*
X154773333Y-143603214D01*
X154820952Y-143650833D01*
X154868571Y-143746071D01*
X154868571Y-144079404D01*
X155392380Y-142555595D02*
X155392380Y-143127023D01*
X155392380Y-142841309D02*
X154392380Y-142841309D01*
X154535238Y-142936547D01*
X154630476Y-143031785D01*
X154678095Y-143127023D01*
X157932380Y-145079404D02*
X156932380Y-145079404D01*
X156932380Y-144698452D01*
X156980000Y-144603214D01*
X157027619Y-144555595D01*
X157122857Y-144507976D01*
X157265714Y-144507976D01*
X157360952Y-144555595D01*
X157408571Y-144603214D01*
X157456190Y-144698452D01*
X157456190Y-145079404D01*
X157408571Y-143746071D02*
X157456190Y-143603214D01*
X157503809Y-143555595D01*
X157599047Y-143507976D01*
X157741904Y-143507976D01*
X157837142Y-143555595D01*
X157884761Y-143603214D01*
X157932380Y-143698452D01*
X157932380Y-144079404D01*
X156932380Y-144079404D01*
X156932380Y-143746071D01*
X156980000Y-143650833D01*
X157027619Y-143603214D01*
X157122857Y-143555595D01*
X157218095Y-143555595D01*
X157313333Y-143603214D01*
X157360952Y-143650833D01*
X157408571Y-143746071D01*
X157408571Y-144079404D01*
X157027619Y-143127023D02*
X156980000Y-143079404D01*
X156932380Y-142984166D01*
X156932380Y-142746071D01*
X156980000Y-142650833D01*
X157027619Y-142603214D01*
X157122857Y-142555595D01*
X157218095Y-142555595D01*
X157360952Y-142603214D01*
X157932380Y-143174642D01*
X157932380Y-142555595D01*
X160472380Y-145079404D02*
X159472380Y-145079404D01*
X159472380Y-144698452D01*
X159520000Y-144603214D01*
X159567619Y-144555595D01*
X159662857Y-144507976D01*
X159805714Y-144507976D01*
X159900952Y-144555595D01*
X159948571Y-144603214D01*
X159996190Y-144698452D01*
X159996190Y-145079404D01*
X159948571Y-143746071D02*
X159996190Y-143603214D01*
X160043809Y-143555595D01*
X160139047Y-143507976D01*
X160281904Y-143507976D01*
X160377142Y-143555595D01*
X160424761Y-143603214D01*
X160472380Y-143698452D01*
X160472380Y-144079404D01*
X159472380Y-144079404D01*
X159472380Y-143746071D01*
X159520000Y-143650833D01*
X159567619Y-143603214D01*
X159662857Y-143555595D01*
X159758095Y-143555595D01*
X159853333Y-143603214D01*
X159900952Y-143650833D01*
X159948571Y-143746071D01*
X159948571Y-144079404D01*
X159472380Y-143174642D02*
X159472380Y-142555595D01*
X159853333Y-142888928D01*
X159853333Y-142746071D01*
X159900952Y-142650833D01*
X159948571Y-142603214D01*
X160043809Y-142555595D01*
X160281904Y-142555595D01*
X160377142Y-142603214D01*
X160424761Y-142650833D01*
X160472380Y-142746071D01*
X160472380Y-143031785D01*
X160424761Y-143127023D01*
X160377142Y-143174642D01*
X163012380Y-145079404D02*
X162012380Y-145079404D01*
X162012380Y-144698452D01*
X162060000Y-144603214D01*
X162107619Y-144555595D01*
X162202857Y-144507976D01*
X162345714Y-144507976D01*
X162440952Y-144555595D01*
X162488571Y-144603214D01*
X162536190Y-144698452D01*
X162536190Y-145079404D01*
X162488571Y-143746071D02*
X162536190Y-143603214D01*
X162583809Y-143555595D01*
X162679047Y-143507976D01*
X162821904Y-143507976D01*
X162917142Y-143555595D01*
X162964761Y-143603214D01*
X163012380Y-143698452D01*
X163012380Y-144079404D01*
X162012380Y-144079404D01*
X162012380Y-143746071D01*
X162060000Y-143650833D01*
X162107619Y-143603214D01*
X162202857Y-143555595D01*
X162298095Y-143555595D01*
X162393333Y-143603214D01*
X162440952Y-143650833D01*
X162488571Y-143746071D01*
X162488571Y-144079404D01*
X162345714Y-142650833D02*
X163012380Y-142650833D01*
X161964761Y-142888928D02*
X162679047Y-143127023D01*
X162679047Y-142507976D01*
X165552380Y-145079404D02*
X164552380Y-145079404D01*
X164552380Y-144698452D01*
X164600000Y-144603214D01*
X164647619Y-144555595D01*
X164742857Y-144507976D01*
X164885714Y-144507976D01*
X164980952Y-144555595D01*
X165028571Y-144603214D01*
X165076190Y-144698452D01*
X165076190Y-145079404D01*
X165028571Y-143746071D02*
X165076190Y-143603214D01*
X165123809Y-143555595D01*
X165219047Y-143507976D01*
X165361904Y-143507976D01*
X165457142Y-143555595D01*
X165504761Y-143603214D01*
X165552380Y-143698452D01*
X165552380Y-144079404D01*
X164552380Y-144079404D01*
X164552380Y-143746071D01*
X164600000Y-143650833D01*
X164647619Y-143603214D01*
X164742857Y-143555595D01*
X164838095Y-143555595D01*
X164933333Y-143603214D01*
X164980952Y-143650833D01*
X165028571Y-143746071D01*
X165028571Y-144079404D01*
X164552380Y-142603214D02*
X164552380Y-143079404D01*
X165028571Y-143127023D01*
X164980952Y-143079404D01*
X164933333Y-142984166D01*
X164933333Y-142746071D01*
X164980952Y-142650833D01*
X165028571Y-142603214D01*
X165123809Y-142555595D01*
X165361904Y-142555595D01*
X165457142Y-142603214D01*
X165504761Y-142650833D01*
X165552380Y-142746071D01*
X165552380Y-142984166D01*
X165504761Y-143079404D01*
X165457142Y-143127023D01*
X168092380Y-145079404D02*
X167092380Y-145079404D01*
X167092380Y-144698452D01*
X167140000Y-144603214D01*
X167187619Y-144555595D01*
X167282857Y-144507976D01*
X167425714Y-144507976D01*
X167520952Y-144555595D01*
X167568571Y-144603214D01*
X167616190Y-144698452D01*
X167616190Y-145079404D01*
X167568571Y-143746071D02*
X167616190Y-143603214D01*
X167663809Y-143555595D01*
X167759047Y-143507976D01*
X167901904Y-143507976D01*
X167997142Y-143555595D01*
X168044761Y-143603214D01*
X168092380Y-143698452D01*
X168092380Y-144079404D01*
X167092380Y-144079404D01*
X167092380Y-143746071D01*
X167140000Y-143650833D01*
X167187619Y-143603214D01*
X167282857Y-143555595D01*
X167378095Y-143555595D01*
X167473333Y-143603214D01*
X167520952Y-143650833D01*
X167568571Y-143746071D01*
X167568571Y-144079404D01*
X167092380Y-142650833D02*
X167092380Y-142841309D01*
X167140000Y-142936547D01*
X167187619Y-142984166D01*
X167330476Y-143079404D01*
X167520952Y-143127023D01*
X167901904Y-143127023D01*
X167997142Y-143079404D01*
X168044761Y-143031785D01*
X168092380Y-142936547D01*
X168092380Y-142746071D01*
X168044761Y-142650833D01*
X167997142Y-142603214D01*
X167901904Y-142555595D01*
X167663809Y-142555595D01*
X167568571Y-142603214D01*
X167520952Y-142650833D01*
X167473333Y-142746071D01*
X167473333Y-142936547D01*
X167520952Y-143031785D01*
X167568571Y-143079404D01*
X167663809Y-143127023D01*
X170632380Y-145079404D02*
X169632380Y-145079404D01*
X169632380Y-144698452D01*
X169680000Y-144603214D01*
X169727619Y-144555595D01*
X169822857Y-144507976D01*
X169965714Y-144507976D01*
X170060952Y-144555595D01*
X170108571Y-144603214D01*
X170156190Y-144698452D01*
X170156190Y-145079404D01*
X170108571Y-143746071D02*
X170156190Y-143603214D01*
X170203809Y-143555595D01*
X170299047Y-143507976D01*
X170441904Y-143507976D01*
X170537142Y-143555595D01*
X170584761Y-143603214D01*
X170632380Y-143698452D01*
X170632380Y-144079404D01*
X169632380Y-144079404D01*
X169632380Y-143746071D01*
X169680000Y-143650833D01*
X169727619Y-143603214D01*
X169822857Y-143555595D01*
X169918095Y-143555595D01*
X170013333Y-143603214D01*
X170060952Y-143650833D01*
X170108571Y-143746071D01*
X170108571Y-144079404D01*
X169632380Y-143174642D02*
X169632380Y-142507976D01*
X170632380Y-142936547D01*
X173077142Y-144507976D02*
X173124761Y-144555595D01*
X173172380Y-144698452D01*
X173172380Y-144793690D01*
X173124761Y-144936547D01*
X173029523Y-145031785D01*
X172934285Y-145079404D01*
X172743809Y-145127023D01*
X172600952Y-145127023D01*
X172410476Y-145079404D01*
X172315238Y-145031785D01*
X172220000Y-144936547D01*
X172172380Y-144793690D01*
X172172380Y-144698452D01*
X172220000Y-144555595D01*
X172267619Y-144507976D01*
X172648571Y-143746071D02*
X172696190Y-143603214D01*
X172743809Y-143555595D01*
X172839047Y-143507976D01*
X172981904Y-143507976D01*
X173077142Y-143555595D01*
X173124761Y-143603214D01*
X173172380Y-143698452D01*
X173172380Y-144079404D01*
X172172380Y-144079404D01*
X172172380Y-143746071D01*
X172220000Y-143650833D01*
X172267619Y-143603214D01*
X172362857Y-143555595D01*
X172458095Y-143555595D01*
X172553333Y-143603214D01*
X172600952Y-143650833D01*
X172648571Y-143746071D01*
X172648571Y-144079404D01*
X173172380Y-142555595D02*
X173172380Y-143127023D01*
X173172380Y-142841309D02*
X172172380Y-142841309D01*
X172315238Y-142936547D01*
X172410476Y-143031785D01*
X172458095Y-143127023D01*
X175617142Y-144507976D02*
X175664761Y-144555595D01*
X175712380Y-144698452D01*
X175712380Y-144793690D01*
X175664761Y-144936547D01*
X175569523Y-145031785D01*
X175474285Y-145079404D01*
X175283809Y-145127023D01*
X175140952Y-145127023D01*
X174950476Y-145079404D01*
X174855238Y-145031785D01*
X174760000Y-144936547D01*
X174712380Y-144793690D01*
X174712380Y-144698452D01*
X174760000Y-144555595D01*
X174807619Y-144507976D01*
X175188571Y-143746071D02*
X175236190Y-143603214D01*
X175283809Y-143555595D01*
X175379047Y-143507976D01*
X175521904Y-143507976D01*
X175617142Y-143555595D01*
X175664761Y-143603214D01*
X175712380Y-143698452D01*
X175712380Y-144079404D01*
X174712380Y-144079404D01*
X174712380Y-143746071D01*
X174760000Y-143650833D01*
X174807619Y-143603214D01*
X174902857Y-143555595D01*
X174998095Y-143555595D01*
X175093333Y-143603214D01*
X175140952Y-143650833D01*
X175188571Y-143746071D01*
X175188571Y-144079404D01*
X174807619Y-143127023D02*
X174760000Y-143079404D01*
X174712380Y-142984166D01*
X174712380Y-142746071D01*
X174760000Y-142650833D01*
X174807619Y-142603214D01*
X174902857Y-142555595D01*
X174998095Y-142555595D01*
X175140952Y-142603214D01*
X175712380Y-143174642D01*
X175712380Y-142555595D01*
X176230595Y-108799380D02*
X176230595Y-109608904D01*
X176278214Y-109704142D01*
X176325833Y-109751761D01*
X176421071Y-109799380D01*
X176611547Y-109799380D01*
X176706785Y-109751761D01*
X176754404Y-109704142D01*
X176802023Y-109608904D01*
X176802023Y-108799380D01*
X177706785Y-108799380D02*
X177516309Y-108799380D01*
X177421071Y-108847000D01*
X177373452Y-108894619D01*
X177278214Y-109037476D01*
X177230595Y-109227952D01*
X177230595Y-109608904D01*
X177278214Y-109704142D01*
X177325833Y-109751761D01*
X177421071Y-109799380D01*
X177611547Y-109799380D01*
X177706785Y-109751761D01*
X177754404Y-109704142D01*
X177802023Y-109608904D01*
X177802023Y-109370809D01*
X177754404Y-109275571D01*
X177706785Y-109227952D01*
X177611547Y-109180333D01*
X177421071Y-109180333D01*
X177325833Y-109227952D01*
X177278214Y-109275571D01*
X177230595Y-109370809D01*
X178944880Y-108751761D02*
X178087738Y-110037476D01*
X179802023Y-109799380D02*
X179230595Y-109799380D01*
X179516309Y-109799380D02*
X179516309Y-108799380D01*
X179421071Y-108942238D01*
X179325833Y-109037476D01*
X179230595Y-109085095D01*
X180135357Y-108799380D02*
X180802023Y-108799380D01*
X180373452Y-109799380D01*
X176230595Y-111339380D02*
X176230595Y-112148904D01*
X176278214Y-112244142D01*
X176325833Y-112291761D01*
X176421071Y-112339380D01*
X176611547Y-112339380D01*
X176706785Y-112291761D01*
X176754404Y-112244142D01*
X176802023Y-112148904D01*
X176802023Y-111339380D01*
X177706785Y-111339380D02*
X177516309Y-111339380D01*
X177421071Y-111387000D01*
X177373452Y-111434619D01*
X177278214Y-111577476D01*
X177230595Y-111767952D01*
X177230595Y-112148904D01*
X177278214Y-112244142D01*
X177325833Y-112291761D01*
X177421071Y-112339380D01*
X177611547Y-112339380D01*
X177706785Y-112291761D01*
X177754404Y-112244142D01*
X177802023Y-112148904D01*
X177802023Y-111910809D01*
X177754404Y-111815571D01*
X177706785Y-111767952D01*
X177611547Y-111720333D01*
X177421071Y-111720333D01*
X177325833Y-111767952D01*
X177278214Y-111815571D01*
X177230595Y-111910809D01*
X178944880Y-111291761D02*
X178087738Y-112577476D01*
X179802023Y-112339380D02*
X179230595Y-112339380D01*
X179516309Y-112339380D02*
X179516309Y-111339380D01*
X179421071Y-111482238D01*
X179325833Y-111577476D01*
X179230595Y-111625095D01*
X180659166Y-111339380D02*
X180468690Y-111339380D01*
X180373452Y-111387000D01*
X180325833Y-111434619D01*
X180230595Y-111577476D01*
X180182976Y-111767952D01*
X180182976Y-112148904D01*
X180230595Y-112244142D01*
X180278214Y-112291761D01*
X180373452Y-112339380D01*
X180563928Y-112339380D01*
X180659166Y-112291761D01*
X180706785Y-112244142D01*
X180754404Y-112148904D01*
X180754404Y-111910809D01*
X180706785Y-111815571D01*
X180659166Y-111767952D01*
X180563928Y-111720333D01*
X180373452Y-111720333D01*
X180278214Y-111767952D01*
X180230595Y-111815571D01*
X180182976Y-111910809D01*
X176230595Y-106259380D02*
X176230595Y-107068904D01*
X176278214Y-107164142D01*
X176325833Y-107211761D01*
X176421071Y-107259380D01*
X176611547Y-107259380D01*
X176706785Y-107211761D01*
X176754404Y-107164142D01*
X176802023Y-107068904D01*
X176802023Y-106259380D01*
X177706785Y-106259380D02*
X177516309Y-106259380D01*
X177421071Y-106307000D01*
X177373452Y-106354619D01*
X177278214Y-106497476D01*
X177230595Y-106687952D01*
X177230595Y-107068904D01*
X177278214Y-107164142D01*
X177325833Y-107211761D01*
X177421071Y-107259380D01*
X177611547Y-107259380D01*
X177706785Y-107211761D01*
X177754404Y-107164142D01*
X177802023Y-107068904D01*
X177802023Y-106830809D01*
X177754404Y-106735571D01*
X177706785Y-106687952D01*
X177611547Y-106640333D01*
X177421071Y-106640333D01*
X177325833Y-106687952D01*
X177278214Y-106735571D01*
X177230595Y-106830809D01*
X178944880Y-106211761D02*
X178087738Y-107497476D01*
X179802023Y-107259380D02*
X179230595Y-107259380D01*
X179516309Y-107259380D02*
X179516309Y-106259380D01*
X179421071Y-106402238D01*
X179325833Y-106497476D01*
X179230595Y-106545095D01*
X180373452Y-106687952D02*
X180278214Y-106640333D01*
X180230595Y-106592714D01*
X180182976Y-106497476D01*
X180182976Y-106449857D01*
X180230595Y-106354619D01*
X180278214Y-106307000D01*
X180373452Y-106259380D01*
X180563928Y-106259380D01*
X180659166Y-106307000D01*
X180706785Y-106354619D01*
X180754404Y-106449857D01*
X180754404Y-106497476D01*
X180706785Y-106592714D01*
X180659166Y-106640333D01*
X180563928Y-106687952D01*
X180373452Y-106687952D01*
X180278214Y-106735571D01*
X180230595Y-106783190D01*
X180182976Y-106878428D01*
X180182976Y-107068904D01*
X180230595Y-107164142D01*
X180278214Y-107211761D01*
X180373452Y-107259380D01*
X180563928Y-107259380D01*
X180659166Y-107211761D01*
X180706785Y-107164142D01*
X180754404Y-107068904D01*
X180754404Y-106878428D01*
X180706785Y-106783190D01*
X180659166Y-106735571D01*
X180563928Y-106687952D01*
X176230595Y-103719380D02*
X176230595Y-104528904D01*
X176278214Y-104624142D01*
X176325833Y-104671761D01*
X176421071Y-104719380D01*
X176611547Y-104719380D01*
X176706785Y-104671761D01*
X176754404Y-104624142D01*
X176802023Y-104528904D01*
X176802023Y-103719380D01*
X177706785Y-103719380D02*
X177516309Y-103719380D01*
X177421071Y-103767000D01*
X177373452Y-103814619D01*
X177278214Y-103957476D01*
X177230595Y-104147952D01*
X177230595Y-104528904D01*
X177278214Y-104624142D01*
X177325833Y-104671761D01*
X177421071Y-104719380D01*
X177611547Y-104719380D01*
X177706785Y-104671761D01*
X177754404Y-104624142D01*
X177802023Y-104528904D01*
X177802023Y-104290809D01*
X177754404Y-104195571D01*
X177706785Y-104147952D01*
X177611547Y-104100333D01*
X177421071Y-104100333D01*
X177325833Y-104147952D01*
X177278214Y-104195571D01*
X177230595Y-104290809D01*
X178944880Y-103671761D02*
X178087738Y-104957476D01*
X179802023Y-104719380D02*
X179230595Y-104719380D01*
X179516309Y-104719380D02*
X179516309Y-103719380D01*
X179421071Y-103862238D01*
X179325833Y-103957476D01*
X179230595Y-104005095D01*
X180278214Y-104719380D02*
X180468690Y-104719380D01*
X180563928Y-104671761D01*
X180611547Y-104624142D01*
X180706785Y-104481285D01*
X180754404Y-104290809D01*
X180754404Y-103909857D01*
X180706785Y-103814619D01*
X180659166Y-103767000D01*
X180563928Y-103719380D01*
X180373452Y-103719380D01*
X180278214Y-103767000D01*
X180230595Y-103814619D01*
X180182976Y-103909857D01*
X180182976Y-104147952D01*
X180230595Y-104243190D01*
X180278214Y-104290809D01*
X180373452Y-104338428D01*
X180563928Y-104338428D01*
X180659166Y-104290809D01*
X180706785Y-104243190D01*
X180754404Y-104147952D01*
X176230595Y-101179380D02*
X176230595Y-101988904D01*
X176278214Y-102084142D01*
X176325833Y-102131761D01*
X176421071Y-102179380D01*
X176611547Y-102179380D01*
X176706785Y-102131761D01*
X176754404Y-102084142D01*
X176802023Y-101988904D01*
X176802023Y-101179380D01*
X177706785Y-101179380D02*
X177516309Y-101179380D01*
X177421071Y-101227000D01*
X177373452Y-101274619D01*
X177278214Y-101417476D01*
X177230595Y-101607952D01*
X177230595Y-101988904D01*
X177278214Y-102084142D01*
X177325833Y-102131761D01*
X177421071Y-102179380D01*
X177611547Y-102179380D01*
X177706785Y-102131761D01*
X177754404Y-102084142D01*
X177802023Y-101988904D01*
X177802023Y-101750809D01*
X177754404Y-101655571D01*
X177706785Y-101607952D01*
X177611547Y-101560333D01*
X177421071Y-101560333D01*
X177325833Y-101607952D01*
X177278214Y-101655571D01*
X177230595Y-101750809D01*
X178944880Y-101131761D02*
X178087738Y-102417476D01*
X179230595Y-101274619D02*
X179278214Y-101227000D01*
X179373452Y-101179380D01*
X179611547Y-101179380D01*
X179706785Y-101227000D01*
X179754404Y-101274619D01*
X179802023Y-101369857D01*
X179802023Y-101465095D01*
X179754404Y-101607952D01*
X179182976Y-102179380D01*
X179802023Y-102179380D01*
X180421071Y-101179380D02*
X180516309Y-101179380D01*
X180611547Y-101227000D01*
X180659166Y-101274619D01*
X180706785Y-101369857D01*
X180754404Y-101560333D01*
X180754404Y-101798428D01*
X180706785Y-101988904D01*
X180659166Y-102084142D01*
X180611547Y-102131761D01*
X180516309Y-102179380D01*
X180421071Y-102179380D01*
X180325833Y-102131761D01*
X180278214Y-102084142D01*
X180230595Y-101988904D01*
X180182976Y-101798428D01*
X180182976Y-101560333D01*
X180230595Y-101369857D01*
X180278214Y-101274619D01*
X180325833Y-101227000D01*
X180421071Y-101179380D01*
X176230595Y-93432380D02*
X176230595Y-94241904D01*
X176278214Y-94337142D01*
X176325833Y-94384761D01*
X176421071Y-94432380D01*
X176611547Y-94432380D01*
X176706785Y-94384761D01*
X176754404Y-94337142D01*
X176802023Y-94241904D01*
X176802023Y-93432380D01*
X177706785Y-93432380D02*
X177516309Y-93432380D01*
X177421071Y-93480000D01*
X177373452Y-93527619D01*
X177278214Y-93670476D01*
X177230595Y-93860952D01*
X177230595Y-94241904D01*
X177278214Y-94337142D01*
X177325833Y-94384761D01*
X177421071Y-94432380D01*
X177611547Y-94432380D01*
X177706785Y-94384761D01*
X177754404Y-94337142D01*
X177802023Y-94241904D01*
X177802023Y-94003809D01*
X177754404Y-93908571D01*
X177706785Y-93860952D01*
X177611547Y-93813333D01*
X177421071Y-93813333D01*
X177325833Y-93860952D01*
X177278214Y-93908571D01*
X177230595Y-94003809D01*
X178944880Y-93384761D02*
X178087738Y-94670476D01*
X179230595Y-93527619D02*
X179278214Y-93480000D01*
X179373452Y-93432380D01*
X179611547Y-93432380D01*
X179706785Y-93480000D01*
X179754404Y-93527619D01*
X179802023Y-93622857D01*
X179802023Y-93718095D01*
X179754404Y-93860952D01*
X179182976Y-94432380D01*
X179802023Y-94432380D01*
X180754404Y-94432380D02*
X180182976Y-94432380D01*
X180468690Y-94432380D02*
X180468690Y-93432380D01*
X180373452Y-93575238D01*
X180278214Y-93670476D01*
X180182976Y-93718095D01*
X176230595Y-90892380D02*
X176230595Y-91701904D01*
X176278214Y-91797142D01*
X176325833Y-91844761D01*
X176421071Y-91892380D01*
X176611547Y-91892380D01*
X176706785Y-91844761D01*
X176754404Y-91797142D01*
X176802023Y-91701904D01*
X176802023Y-90892380D01*
X177706785Y-90892380D02*
X177516309Y-90892380D01*
X177421071Y-90940000D01*
X177373452Y-90987619D01*
X177278214Y-91130476D01*
X177230595Y-91320952D01*
X177230595Y-91701904D01*
X177278214Y-91797142D01*
X177325833Y-91844761D01*
X177421071Y-91892380D01*
X177611547Y-91892380D01*
X177706785Y-91844761D01*
X177754404Y-91797142D01*
X177802023Y-91701904D01*
X177802023Y-91463809D01*
X177754404Y-91368571D01*
X177706785Y-91320952D01*
X177611547Y-91273333D01*
X177421071Y-91273333D01*
X177325833Y-91320952D01*
X177278214Y-91368571D01*
X177230595Y-91463809D01*
X178944880Y-90844761D02*
X178087738Y-92130476D01*
X179182976Y-90892380D02*
X179802023Y-90892380D01*
X179468690Y-91273333D01*
X179611547Y-91273333D01*
X179706785Y-91320952D01*
X179754404Y-91368571D01*
X179802023Y-91463809D01*
X179802023Y-91701904D01*
X179754404Y-91797142D01*
X179706785Y-91844761D01*
X179611547Y-91892380D01*
X179325833Y-91892380D01*
X179230595Y-91844761D01*
X179182976Y-91797142D01*
X176230595Y-88352380D02*
X176230595Y-89161904D01*
X176278214Y-89257142D01*
X176325833Y-89304761D01*
X176421071Y-89352380D01*
X176611547Y-89352380D01*
X176706785Y-89304761D01*
X176754404Y-89257142D01*
X176802023Y-89161904D01*
X176802023Y-88352380D01*
X177706785Y-88352380D02*
X177516309Y-88352380D01*
X177421071Y-88400000D01*
X177373452Y-88447619D01*
X177278214Y-88590476D01*
X177230595Y-88780952D01*
X177230595Y-89161904D01*
X177278214Y-89257142D01*
X177325833Y-89304761D01*
X177421071Y-89352380D01*
X177611547Y-89352380D01*
X177706785Y-89304761D01*
X177754404Y-89257142D01*
X177802023Y-89161904D01*
X177802023Y-88923809D01*
X177754404Y-88828571D01*
X177706785Y-88780952D01*
X177611547Y-88733333D01*
X177421071Y-88733333D01*
X177325833Y-88780952D01*
X177278214Y-88828571D01*
X177230595Y-88923809D01*
X178944880Y-88304761D02*
X178087738Y-89590476D01*
X179230595Y-88447619D02*
X179278214Y-88400000D01*
X179373452Y-88352380D01*
X179611547Y-88352380D01*
X179706785Y-88400000D01*
X179754404Y-88447619D01*
X179802023Y-88542857D01*
X179802023Y-88638095D01*
X179754404Y-88780952D01*
X179182976Y-89352380D01*
X179802023Y-89352380D01*
X176230595Y-85812380D02*
X176230595Y-86621904D01*
X176278214Y-86717142D01*
X176325833Y-86764761D01*
X176421071Y-86812380D01*
X176611547Y-86812380D01*
X176706785Y-86764761D01*
X176754404Y-86717142D01*
X176802023Y-86621904D01*
X176802023Y-85812380D01*
X177706785Y-85812380D02*
X177516309Y-85812380D01*
X177421071Y-85860000D01*
X177373452Y-85907619D01*
X177278214Y-86050476D01*
X177230595Y-86240952D01*
X177230595Y-86621904D01*
X177278214Y-86717142D01*
X177325833Y-86764761D01*
X177421071Y-86812380D01*
X177611547Y-86812380D01*
X177706785Y-86764761D01*
X177754404Y-86717142D01*
X177802023Y-86621904D01*
X177802023Y-86383809D01*
X177754404Y-86288571D01*
X177706785Y-86240952D01*
X177611547Y-86193333D01*
X177421071Y-86193333D01*
X177325833Y-86240952D01*
X177278214Y-86288571D01*
X177230595Y-86383809D01*
X178944880Y-85764761D02*
X178087738Y-87050476D01*
X179802023Y-86812380D02*
X179230595Y-86812380D01*
X179516309Y-86812380D02*
X179516309Y-85812380D01*
X179421071Y-85955238D01*
X179325833Y-86050476D01*
X179230595Y-86098095D01*
X176230595Y-83272380D02*
X176230595Y-84081904D01*
X176278214Y-84177142D01*
X176325833Y-84224761D01*
X176421071Y-84272380D01*
X176611547Y-84272380D01*
X176706785Y-84224761D01*
X176754404Y-84177142D01*
X176802023Y-84081904D01*
X176802023Y-83272380D01*
X177754404Y-83272380D02*
X177278214Y-83272380D01*
X177230595Y-83748571D01*
X177278214Y-83700952D01*
X177373452Y-83653333D01*
X177611547Y-83653333D01*
X177706785Y-83700952D01*
X177754404Y-83748571D01*
X177802023Y-83843809D01*
X177802023Y-84081904D01*
X177754404Y-84177142D01*
X177706785Y-84224761D01*
X177611547Y-84272380D01*
X177373452Y-84272380D01*
X177278214Y-84224761D01*
X177230595Y-84177142D01*
X178944880Y-83224761D02*
X178087738Y-84510476D01*
X179802023Y-84272380D02*
X179230595Y-84272380D01*
X179516309Y-84272380D02*
X179516309Y-83272380D01*
X179421071Y-83415238D01*
X179325833Y-83510476D01*
X179230595Y-83558095D01*
X180373452Y-83700952D02*
X180278214Y-83653333D01*
X180230595Y-83605714D01*
X180182976Y-83510476D01*
X180182976Y-83462857D01*
X180230595Y-83367619D01*
X180278214Y-83320000D01*
X180373452Y-83272380D01*
X180563928Y-83272380D01*
X180659166Y-83320000D01*
X180706785Y-83367619D01*
X180754404Y-83462857D01*
X180754404Y-83510476D01*
X180706785Y-83605714D01*
X180659166Y-83653333D01*
X180563928Y-83700952D01*
X180373452Y-83700952D01*
X180278214Y-83748571D01*
X180230595Y-83796190D01*
X180182976Y-83891428D01*
X180182976Y-84081904D01*
X180230595Y-84177142D01*
X180278214Y-84224761D01*
X180373452Y-84272380D01*
X180563928Y-84272380D01*
X180659166Y-84224761D01*
X180706785Y-84177142D01*
X180754404Y-84081904D01*
X180754404Y-83891428D01*
X180706785Y-83796190D01*
X180659166Y-83748571D01*
X180563928Y-83700952D01*
X176230595Y-80732380D02*
X176230595Y-81541904D01*
X176278214Y-81637142D01*
X176325833Y-81684761D01*
X176421071Y-81732380D01*
X176611547Y-81732380D01*
X176706785Y-81684761D01*
X176754404Y-81637142D01*
X176802023Y-81541904D01*
X176802023Y-80732380D01*
X177754404Y-80732380D02*
X177278214Y-80732380D01*
X177230595Y-81208571D01*
X177278214Y-81160952D01*
X177373452Y-81113333D01*
X177611547Y-81113333D01*
X177706785Y-81160952D01*
X177754404Y-81208571D01*
X177802023Y-81303809D01*
X177802023Y-81541904D01*
X177754404Y-81637142D01*
X177706785Y-81684761D01*
X177611547Y-81732380D01*
X177373452Y-81732380D01*
X177278214Y-81684761D01*
X177230595Y-81637142D01*
X178944880Y-80684761D02*
X178087738Y-81970476D01*
X179802023Y-81732380D02*
X179230595Y-81732380D01*
X179516309Y-81732380D02*
X179516309Y-80732380D01*
X179421071Y-80875238D01*
X179325833Y-80970476D01*
X179230595Y-81018095D01*
X180278214Y-81732380D02*
X180468690Y-81732380D01*
X180563928Y-81684761D01*
X180611547Y-81637142D01*
X180706785Y-81494285D01*
X180754404Y-81303809D01*
X180754404Y-80922857D01*
X180706785Y-80827619D01*
X180659166Y-80780000D01*
X180563928Y-80732380D01*
X180373452Y-80732380D01*
X180278214Y-80780000D01*
X180230595Y-80827619D01*
X180182976Y-80922857D01*
X180182976Y-81160952D01*
X180230595Y-81256190D01*
X180278214Y-81303809D01*
X180373452Y-81351428D01*
X180563928Y-81351428D01*
X180659166Y-81303809D01*
X180706785Y-81256190D01*
X180754404Y-81160952D01*
X176230595Y-78192380D02*
X176230595Y-79001904D01*
X176278214Y-79097142D01*
X176325833Y-79144761D01*
X176421071Y-79192380D01*
X176611547Y-79192380D01*
X176706785Y-79144761D01*
X176754404Y-79097142D01*
X176802023Y-79001904D01*
X176802023Y-78192380D01*
X177754404Y-78192380D02*
X177278214Y-78192380D01*
X177230595Y-78668571D01*
X177278214Y-78620952D01*
X177373452Y-78573333D01*
X177611547Y-78573333D01*
X177706785Y-78620952D01*
X177754404Y-78668571D01*
X177802023Y-78763809D01*
X177802023Y-79001904D01*
X177754404Y-79097142D01*
X177706785Y-79144761D01*
X177611547Y-79192380D01*
X177373452Y-79192380D01*
X177278214Y-79144761D01*
X177230595Y-79097142D01*
X178944880Y-78144761D02*
X178087738Y-79430476D01*
X179230595Y-78287619D02*
X179278214Y-78240000D01*
X179373452Y-78192380D01*
X179611547Y-78192380D01*
X179706785Y-78240000D01*
X179754404Y-78287619D01*
X179802023Y-78382857D01*
X179802023Y-78478095D01*
X179754404Y-78620952D01*
X179182976Y-79192380D01*
X179802023Y-79192380D01*
X180421071Y-78192380D02*
X180516309Y-78192380D01*
X180611547Y-78240000D01*
X180659166Y-78287619D01*
X180706785Y-78382857D01*
X180754404Y-78573333D01*
X180754404Y-78811428D01*
X180706785Y-79001904D01*
X180659166Y-79097142D01*
X180611547Y-79144761D01*
X180516309Y-79192380D01*
X180421071Y-79192380D01*
X180325833Y-79144761D01*
X180278214Y-79097142D01*
X180230595Y-79001904D01*
X180182976Y-78811428D01*
X180182976Y-78573333D01*
X180230595Y-78382857D01*
X180278214Y-78287619D01*
X180325833Y-78240000D01*
X180421071Y-78192380D01*
X176230595Y-75652380D02*
X176230595Y-76461904D01*
X176278214Y-76557142D01*
X176325833Y-76604761D01*
X176421071Y-76652380D01*
X176611547Y-76652380D01*
X176706785Y-76604761D01*
X176754404Y-76557142D01*
X176802023Y-76461904D01*
X176802023Y-75652380D01*
X177754404Y-75652380D02*
X177278214Y-75652380D01*
X177230595Y-76128571D01*
X177278214Y-76080952D01*
X177373452Y-76033333D01*
X177611547Y-76033333D01*
X177706785Y-76080952D01*
X177754404Y-76128571D01*
X177802023Y-76223809D01*
X177802023Y-76461904D01*
X177754404Y-76557142D01*
X177706785Y-76604761D01*
X177611547Y-76652380D01*
X177373452Y-76652380D01*
X177278214Y-76604761D01*
X177230595Y-76557142D01*
X178944880Y-75604761D02*
X178087738Y-76890476D01*
X179802023Y-76652380D02*
X179230595Y-76652380D01*
X179516309Y-76652380D02*
X179516309Y-75652380D01*
X179421071Y-75795238D01*
X179325833Y-75890476D01*
X179230595Y-75938095D01*
X50300000Y-74138214D02*
X50252380Y-74233452D01*
X50252380Y-74376309D01*
X50300000Y-74519166D01*
X50395238Y-74614404D01*
X50490476Y-74662023D01*
X50680952Y-74709642D01*
X50823809Y-74709642D01*
X51014285Y-74662023D01*
X51109523Y-74614404D01*
X51204761Y-74519166D01*
X51252380Y-74376309D01*
X51252380Y-74281071D01*
X51204761Y-74138214D01*
X51157142Y-74090595D01*
X50823809Y-74090595D01*
X50823809Y-74281071D01*
X51252380Y-73662023D02*
X50252380Y-73662023D01*
X51252380Y-73090595D01*
X50252380Y-73090595D01*
X51252380Y-72614404D02*
X50252380Y-72614404D01*
X50252380Y-72376309D01*
X50300000Y-72233452D01*
X50395238Y-72138214D01*
X50490476Y-72090595D01*
X50680952Y-72042976D01*
X50823809Y-72042976D01*
X51014285Y-72090595D01*
X51109523Y-72138214D01*
X51204761Y-72233452D01*
X51252380Y-72376309D01*
X51252380Y-72614404D01*
X47712380Y-74614404D02*
X48712380Y-74281071D01*
X47712380Y-73947738D01*
X48617142Y-73042976D02*
X48664761Y-73090595D01*
X48712380Y-73233452D01*
X48712380Y-73328690D01*
X48664761Y-73471547D01*
X48569523Y-73566785D01*
X48474285Y-73614404D01*
X48283809Y-73662023D01*
X48140952Y-73662023D01*
X47950476Y-73614404D01*
X47855238Y-73566785D01*
X47760000Y-73471547D01*
X47712380Y-73328690D01*
X47712380Y-73233452D01*
X47760000Y-73090595D01*
X47807619Y-73042976D01*
X48617142Y-72042976D02*
X48664761Y-72090595D01*
X48712380Y-72233452D01*
X48712380Y-72328690D01*
X48664761Y-72471547D01*
X48569523Y-72566785D01*
X48474285Y-72614404D01*
X48283809Y-72662023D01*
X48140952Y-72662023D01*
X47950476Y-72614404D01*
X47855238Y-72566785D01*
X47760000Y-72471547D01*
X47712380Y-72328690D01*
X47712380Y-72233452D01*
X47760000Y-72090595D01*
X47807619Y-72042976D01*
D11*
X81968000Y-75000000D02*
X81968000Y-75130000D01*
X81968000Y-75130000D02*
X76528000Y-75130000D01*
X76528000Y-75130000D02*
X76528000Y-75000000D01*
X81968000Y-72320000D02*
X81968000Y-72190000D01*
X81968000Y-72190000D02*
X76528000Y-72190000D01*
X76528000Y-72190000D02*
X76528000Y-72320000D01*
X81068000Y-75130000D02*
X81068000Y-72190000D01*
X80948000Y-75130000D02*
X80948000Y-72190000D01*
X81188000Y-75130000D02*
X81188000Y-72190000D01*
X81968000Y-79826000D02*
X81968000Y-79956000D01*
X81968000Y-79956000D02*
X76528000Y-79956000D01*
X76528000Y-79956000D02*
X76528000Y-79826000D01*
X81968000Y-77146000D02*
X81968000Y-77016000D01*
X81968000Y-77016000D02*
X76528000Y-77016000D01*
X76528000Y-77016000D02*
X76528000Y-77146000D01*
X81068000Y-79956000D02*
X81068000Y-77016000D01*
X80948000Y-79956000D02*
X80948000Y-77016000D01*
X81188000Y-79956000D02*
X81188000Y-77016000D01*
X181550000Y-102870000D02*
X184210000Y-102870000D01*
X181550000Y-102870000D02*
X181550000Y-113090000D01*
X181550000Y-113090000D02*
X184210000Y-113090000D01*
X184210000Y-102870000D02*
X184210000Y-113090000D01*
X184210000Y-100270000D02*
X184210000Y-101600000D01*
X182880000Y-100270000D02*
X184210000Y-100270000D01*
X77300000Y-82420000D02*
X77300000Y-85220000D01*
X77300000Y-85220000D02*
X108120000Y-85220000D01*
X108120000Y-85220000D02*
X108120000Y-82420000D01*
X108120000Y-82420000D02*
X77300000Y-82420000D01*
X80010000Y-82420000D02*
X80010000Y-85220000D01*
X63116000Y-88054000D02*
X65916000Y-88054000D01*
X65916000Y-88054000D02*
X65916000Y-72474000D01*
X65916000Y-72474000D02*
X63116000Y-72474000D01*
X63116000Y-72474000D02*
X63116000Y-88054000D01*
X63116000Y-85344000D02*
X65916000Y-85344000D01*
X118730000Y-92710000D02*
G75*
G03*
X118730000Y-92710000I-2550000J0D01*
G01*
X117080000Y-92710000D02*
G75*
G03*
X117080000Y-92710000I-900000J0D01*
G01*
X115490000Y-95160000D02*
X115490000Y-134100000D01*
X115490000Y-134100000D02*
X130890000Y-134100000D01*
X130890000Y-134100000D02*
X130890000Y-88400000D01*
X130890000Y-88400000D02*
X115490000Y-88400000D01*
X115490000Y-88400000D02*
X115490000Y-90260000D01*
X117730000Y-88400000D02*
X117730000Y-90660000D01*
X114430000Y-100330000D02*
X114430000Y-97790000D01*
X65466000Y-93980000D02*
G75*
G03*
X65466000Y-93980000I-950000J0D01*
G01*
X44130000Y-88900000D02*
G75*
G03*
X44130000Y-88900000I-950000J0D01*
G01*
X44130000Y-99060000D02*
G75*
G03*
X44130000Y-99060000I-950000J0D01*
G01*
X110600000Y-97730000D02*
X105140000Y-97730000D01*
X110600000Y-133410000D02*
X110600000Y-97730000D01*
X97680000Y-133410000D02*
X110600000Y-133410000D01*
X97680000Y-97730000D02*
X97680000Y-133410000D01*
X103140000Y-97730000D02*
X97680000Y-97730000D01*
X105140000Y-97730000D02*
G75*
G02*
X103140000Y-97730000I-1000000J0D01*
G01*
X73274000Y-64739759D02*
X72644000Y-64739759D01*
X72959000Y-64424759D02*
X72959000Y-65054759D01*
X71522000Y-71166000D02*
X70718000Y-71166000D01*
X71753000Y-71126000D02*
X70487000Y-71126000D01*
X71922000Y-71086000D02*
X70318000Y-71086000D01*
X72060000Y-71046000D02*
X70180000Y-71046000D01*
X72179000Y-71006000D02*
X70061000Y-71006000D01*
X72285000Y-70966000D02*
X69955000Y-70966000D01*
X72382000Y-70926000D02*
X69858000Y-70926000D01*
X72470000Y-70886000D02*
X69770000Y-70886000D01*
X72552000Y-70846000D02*
X69688000Y-70846000D01*
X72629000Y-70806000D02*
X69611000Y-70806000D01*
X72701000Y-70766000D02*
X69539000Y-70766000D01*
X72770000Y-70726000D02*
X69470000Y-70726000D01*
X72834000Y-70686000D02*
X69406000Y-70686000D01*
X72896000Y-70646000D02*
X69344000Y-70646000D01*
X72954000Y-70606000D02*
X69286000Y-70606000D01*
X73010000Y-70566000D02*
X69230000Y-70566000D01*
X73064000Y-70526000D02*
X69176000Y-70526000D01*
X73115000Y-70486000D02*
X69125000Y-70486000D01*
X73164000Y-70446000D02*
X69076000Y-70446000D01*
X73212000Y-70406000D02*
X69028000Y-70406000D01*
X73257000Y-70366000D02*
X68983000Y-70366000D01*
X73302000Y-70326000D02*
X68938000Y-70326000D01*
X73344000Y-70286000D02*
X68896000Y-70286000D01*
X73385000Y-70246000D02*
X68855000Y-70246000D01*
X70080000Y-70206000D02*
X68815000Y-70206000D01*
X73425000Y-70206000D02*
X72160000Y-70206000D01*
X70080000Y-70166000D02*
X68777000Y-70166000D01*
X73463000Y-70166000D02*
X72160000Y-70166000D01*
X70080000Y-70126000D02*
X68740000Y-70126000D01*
X73500000Y-70126000D02*
X72160000Y-70126000D01*
X70080000Y-70086000D02*
X68704000Y-70086000D01*
X73536000Y-70086000D02*
X72160000Y-70086000D01*
X70080000Y-70046000D02*
X68670000Y-70046000D01*
X73570000Y-70046000D02*
X72160000Y-70046000D01*
X70080000Y-70006000D02*
X68636000Y-70006000D01*
X73604000Y-70006000D02*
X72160000Y-70006000D01*
X70080000Y-69966000D02*
X68604000Y-69966000D01*
X73636000Y-69966000D02*
X72160000Y-69966000D01*
X70080000Y-69926000D02*
X68572000Y-69926000D01*
X73668000Y-69926000D02*
X72160000Y-69926000D01*
X70080000Y-69886000D02*
X68542000Y-69886000D01*
X73698000Y-69886000D02*
X72160000Y-69886000D01*
X70080000Y-69846000D02*
X68513000Y-69846000D01*
X73727000Y-69846000D02*
X72160000Y-69846000D01*
X70080000Y-69806000D02*
X68484000Y-69806000D01*
X73756000Y-69806000D02*
X72160000Y-69806000D01*
X70080000Y-69766000D02*
X68456000Y-69766000D01*
X73784000Y-69766000D02*
X72160000Y-69766000D01*
X70080000Y-69726000D02*
X68430000Y-69726000D01*
X73810000Y-69726000D02*
X72160000Y-69726000D01*
X70080000Y-69686000D02*
X68404000Y-69686000D01*
X73836000Y-69686000D02*
X72160000Y-69686000D01*
X70080000Y-69646000D02*
X68378000Y-69646000D01*
X73862000Y-69646000D02*
X72160000Y-69646000D01*
X70080000Y-69606000D02*
X68354000Y-69606000D01*
X73886000Y-69606000D02*
X72160000Y-69606000D01*
X70080000Y-69566000D02*
X68330000Y-69566000D01*
X73910000Y-69566000D02*
X72160000Y-69566000D01*
X70080000Y-69526000D02*
X68308000Y-69526000D01*
X73932000Y-69526000D02*
X72160000Y-69526000D01*
X70080000Y-69486000D02*
X68286000Y-69486000D01*
X73954000Y-69486000D02*
X72160000Y-69486000D01*
X70080000Y-69446000D02*
X68264000Y-69446000D01*
X73976000Y-69446000D02*
X72160000Y-69446000D01*
X70080000Y-69406000D02*
X68244000Y-69406000D01*
X73996000Y-69406000D02*
X72160000Y-69406000D01*
X70080000Y-69366000D02*
X68224000Y-69366000D01*
X74016000Y-69366000D02*
X72160000Y-69366000D01*
X70080000Y-69326000D02*
X68204000Y-69326000D01*
X74036000Y-69326000D02*
X72160000Y-69326000D01*
X70080000Y-69286000D02*
X68186000Y-69286000D01*
X74054000Y-69286000D02*
X72160000Y-69286000D01*
X70080000Y-69246000D02*
X68168000Y-69246000D01*
X74072000Y-69246000D02*
X72160000Y-69246000D01*
X70080000Y-69206000D02*
X68150000Y-69206000D01*
X74090000Y-69206000D02*
X72160000Y-69206000D01*
X70080000Y-69166000D02*
X68134000Y-69166000D01*
X74106000Y-69166000D02*
X72160000Y-69166000D01*
X70080000Y-69126000D02*
X68118000Y-69126000D01*
X74122000Y-69126000D02*
X72160000Y-69126000D01*
X70080000Y-69086000D02*
X68102000Y-69086000D01*
X74138000Y-69086000D02*
X72160000Y-69086000D01*
X70080000Y-69046000D02*
X68087000Y-69046000D01*
X74153000Y-69046000D02*
X72160000Y-69046000D01*
X70080000Y-69006000D02*
X68073000Y-69006000D01*
X74167000Y-69006000D02*
X72160000Y-69006000D01*
X70080000Y-68966000D02*
X68059000Y-68966000D01*
X74181000Y-68966000D02*
X72160000Y-68966000D01*
X70080000Y-68926000D02*
X68046000Y-68926000D01*
X74194000Y-68926000D02*
X72160000Y-68926000D01*
X70080000Y-68886000D02*
X68034000Y-68886000D01*
X74206000Y-68886000D02*
X72160000Y-68886000D01*
X70080000Y-68846000D02*
X68022000Y-68846000D01*
X74218000Y-68846000D02*
X72160000Y-68846000D01*
X70080000Y-68806000D02*
X68010000Y-68806000D01*
X74230000Y-68806000D02*
X72160000Y-68806000D01*
X70080000Y-68766000D02*
X67999000Y-68766000D01*
X74241000Y-68766000D02*
X72160000Y-68766000D01*
X70080000Y-68726000D02*
X67989000Y-68726000D01*
X74251000Y-68726000D02*
X72160000Y-68726000D01*
X70080000Y-68686000D02*
X67979000Y-68686000D01*
X74261000Y-68686000D02*
X72160000Y-68686000D01*
X70080000Y-68646000D02*
X67970000Y-68646000D01*
X74270000Y-68646000D02*
X72160000Y-68646000D01*
X70080000Y-68605000D02*
X67961000Y-68605000D01*
X74279000Y-68605000D02*
X72160000Y-68605000D01*
X70080000Y-68565000D02*
X67953000Y-68565000D01*
X74287000Y-68565000D02*
X72160000Y-68565000D01*
X70080000Y-68525000D02*
X67945000Y-68525000D01*
X74295000Y-68525000D02*
X72160000Y-68525000D01*
X70080000Y-68485000D02*
X67938000Y-68485000D01*
X74302000Y-68485000D02*
X72160000Y-68485000D01*
X70080000Y-68445000D02*
X67931000Y-68445000D01*
X74309000Y-68445000D02*
X72160000Y-68445000D01*
X70080000Y-68405000D02*
X67925000Y-68405000D01*
X74315000Y-68405000D02*
X72160000Y-68405000D01*
X70080000Y-68365000D02*
X67919000Y-68365000D01*
X74321000Y-68365000D02*
X72160000Y-68365000D01*
X70080000Y-68325000D02*
X67914000Y-68325000D01*
X74326000Y-68325000D02*
X72160000Y-68325000D01*
X70080000Y-68285000D02*
X67909000Y-68285000D01*
X74331000Y-68285000D02*
X72160000Y-68285000D01*
X70080000Y-68245000D02*
X67905000Y-68245000D01*
X74335000Y-68245000D02*
X72160000Y-68245000D01*
X70080000Y-68205000D02*
X67902000Y-68205000D01*
X74338000Y-68205000D02*
X72160000Y-68205000D01*
X70080000Y-68165000D02*
X67898000Y-68165000D01*
X74342000Y-68165000D02*
X72160000Y-68165000D01*
X74344000Y-68125000D02*
X67896000Y-68125000D01*
X74347000Y-68085000D02*
X67893000Y-68085000D01*
X74348000Y-68045000D02*
X67892000Y-68045000D01*
X74350000Y-68005000D02*
X67890000Y-68005000D01*
X74350000Y-67965000D02*
X67890000Y-67965000D01*
X74350000Y-67925000D02*
X67890000Y-67925000D01*
X74390000Y-67925000D02*
G75*
G03*
X74390000Y-67925000I-3270000J0D01*
G01*
X47280000Y-80611000D02*
X47280000Y-80455000D01*
X47280000Y-78295000D02*
X47280000Y-78139000D01*
X44678870Y-78295163D02*
G75*
G02*
X46760961Y-78295000I1041130J-1079837D01*
G01*
X44678870Y-80454837D02*
G75*
G03*
X46760961Y-80455000I1041130J1079837D01*
G01*
X44047665Y-78296392D02*
G75*
G02*
X47280000Y-78139484I1672335J-1078608D01*
G01*
X44047665Y-80453608D02*
G75*
G03*
X47280000Y-80610516I1672335J1078608D01*
G01*
X45350000Y-71190000D02*
X47850000Y-71190000D01*
X45350000Y-68690000D02*
X45350000Y-71190000D01*
X52370000Y-69390000D02*
X52370000Y-70890000D01*
X53370000Y-69390000D02*
X52370000Y-69390000D01*
X46650000Y-69390000D02*
X46650000Y-70890000D01*
X45650000Y-69390000D02*
X46650000Y-69390000D01*
X52870000Y-68580000D02*
X53370000Y-68580000D01*
X52870000Y-67370000D02*
X52870000Y-68580000D01*
X46150000Y-67370000D02*
X52870000Y-67370000D01*
X46150000Y-68580000D02*
X46150000Y-67370000D01*
X45650000Y-68580000D02*
X46150000Y-68580000D01*
X53370000Y-66870000D02*
X45650000Y-66870000D01*
X53370000Y-70890000D02*
X53370000Y-66870000D01*
X45650000Y-70890000D02*
X53370000Y-70890000D01*
X45650000Y-66870000D02*
X45650000Y-70890000D01*
X63415000Y-67945000D02*
G75*
G03*
X63415000Y-67945000I-4360000J0D01*
G01*
X114170000Y-71870000D02*
X114170000Y-62750000D01*
X114170000Y-62750000D02*
X172850000Y-62750000D01*
X172850000Y-62750000D02*
X172850000Y-71870000D01*
X172850000Y-71870000D02*
X114170000Y-71870000D01*
X141460000Y-71870000D02*
X141460000Y-70560000D01*
X141460000Y-70560000D02*
X115470000Y-70560000D01*
X115470000Y-70560000D02*
X115470000Y-64060000D01*
X115470000Y-64060000D02*
X171550000Y-64060000D01*
X171550000Y-64060000D02*
X171550000Y-70560000D01*
X171550000Y-70560000D02*
X145560000Y-70560000D01*
X145560000Y-70560000D02*
X145560000Y-70560000D01*
X145560000Y-70560000D02*
X145560000Y-71870000D01*
X119380000Y-72260000D02*
X118880000Y-73260000D01*
X118880000Y-73260000D02*
X119880000Y-73260000D01*
X119880000Y-73260000D02*
X119380000Y-72260000D01*
X52340000Y-87570000D02*
X46880000Y-87570000D01*
X46880000Y-87570000D02*
X46880000Y-138490000D01*
X46880000Y-138490000D02*
X59800000Y-138490000D01*
X59800000Y-138490000D02*
X59800000Y-87570000D01*
X59800000Y-87570000D02*
X54340000Y-87570000D01*
X54340000Y-87570000D02*
G75*
G02*
X52340000Y-87570000I-1000000J0D01*
G01*
X52435000Y-83605000D02*
X56935000Y-83605000D01*
X51185000Y-79605000D02*
X51185000Y-81105000D01*
X56935000Y-77105000D02*
X52435000Y-77105000D01*
X58185000Y-81105000D02*
X58185000Y-79605000D01*
X71740000Y-92710000D02*
G75*
G03*
X71740000Y-92710000I-2550000J0D01*
G01*
X70090000Y-92710000D02*
G75*
G03*
X70090000Y-92710000I-900000J0D01*
G01*
X68460000Y-95160000D02*
X68460000Y-139000000D01*
X68460000Y-139000000D02*
X91560000Y-139000000D01*
X91560000Y-139000000D02*
X91560000Y-88400000D01*
X91560000Y-88400000D02*
X68460000Y-88400000D01*
X68460000Y-88400000D02*
X68460000Y-90260000D01*
X70740000Y-88400000D02*
X70740000Y-90660000D01*
X67440000Y-100330000D02*
X67440000Y-97790000D01*
X42260000Y-106059000D02*
X42260000Y-104801000D01*
X44100000Y-106059000D02*
X44100000Y-104801000D01*
X87975000Y-66690000D02*
X87975000Y-78840000D01*
X108125000Y-65940000D02*
X88725000Y-65940000D01*
X108875000Y-78090000D02*
X108875000Y-66690000D01*
X87975000Y-78840000D02*
X108125000Y-78840000D01*
X88725000Y-65940000D02*
G75*
G03*
X87975000Y-66690000I0J-750000D01*
G01*
X108875000Y-66690000D02*
G75*
G03*
X108125000Y-65940000I-750000J0D01*
G01*
X108125000Y-78840000D02*
G75*
G03*
X108875000Y-78090000I0J750000D01*
G01*
X164100000Y-87570000D02*
X158640000Y-87570000D01*
X158640000Y-87570000D02*
X158640000Y-138490000D01*
X158640000Y-138490000D02*
X171560000Y-138490000D01*
X171560000Y-138490000D02*
X171560000Y-87570000D01*
X171560000Y-87570000D02*
X166100000Y-87570000D01*
X166100000Y-87570000D02*
G75*
G02*
X164100000Y-87570000I-1000000J0D01*
G01*
X139050000Y-92710000D02*
G75*
G03*
X139050000Y-92710000I-2550000J0D01*
G01*
X137400000Y-92710000D02*
G75*
G03*
X137400000Y-92710000I-900000J0D01*
G01*
X135810000Y-95160000D02*
X135810000Y-134100000D01*
X135810000Y-134100000D02*
X151210000Y-134100000D01*
X151210000Y-134100000D02*
X151210000Y-88400000D01*
X151210000Y-88400000D02*
X135810000Y-88400000D01*
X135810000Y-88400000D02*
X135810000Y-90260000D01*
X138050000Y-88400000D02*
X138050000Y-90660000D01*
X134750000Y-100330000D02*
X134750000Y-97790000D01*
X77448000Y-69414000D02*
X81048000Y-69414000D01*
X81086478Y-69402478D02*
G75*
G03*
X79248000Y-64964000I-1838478J1838478D01*
G01*
X77409522Y-69402478D02*
G75*
G02*
X79248000Y-64964000I1838478J1838478D01*
G01*
X43279800Y-72059800D02*
G75*
G03*
X43279800Y-72059800I-1700000J0D01*
G01*
X176590000Y-148650000D02*
X176590000Y-145990000D01*
X77470000Y-148650000D02*
X176590000Y-148650000D01*
X77470000Y-145990000D02*
X176590000Y-145990000D01*
X77470000Y-148650000D02*
X77470000Y-145990000D01*
X76200000Y-148650000D02*
X74870000Y-148650000D01*
X74870000Y-148650000D02*
X74870000Y-147320000D01*
X72450000Y-148650000D02*
X72450000Y-145990000D01*
X49530000Y-148650000D02*
X72450000Y-148650000D01*
X49530000Y-145990000D02*
X72450000Y-145990000D01*
X49530000Y-148650000D02*
X49530000Y-145990000D01*
X48260000Y-148650000D02*
X46930000Y-148650000D01*
X46930000Y-148650000D02*
X46930000Y-147320000D01*
X181550000Y-77470000D02*
X184210000Y-77470000D01*
X181550000Y-77470000D02*
X181550000Y-95310000D01*
X181550000Y-95310000D02*
X184210000Y-95310000D01*
X184210000Y-77470000D02*
X184210000Y-95310000D01*
X184210000Y-74870000D02*
X184210000Y-76200000D01*
X182880000Y-74870000D02*
X184210000Y-74870000D01*
X154020000Y-136539000D02*
X154020000Y-135281000D01*
X155860000Y-136539000D02*
X155860000Y-135281000D01*
X152242000Y-98439000D02*
X152242000Y-97181000D01*
X154082000Y-98439000D02*
X154082000Y-97181000D01*
X131922000Y-98185000D02*
X131922000Y-96927000D01*
X133762000Y-98185000D02*
X133762000Y-96927000D01*
X111139000Y-96932000D02*
X109881000Y-96932000D01*
X111139000Y-95092000D02*
X109881000Y-95092000D01*
X94569800Y-99681000D02*
X94569800Y-100939000D01*
X92729800Y-99681000D02*
X92729800Y-100939000D01*
X86645000Y-69201000D02*
X86645000Y-70459000D01*
X84805000Y-69201000D02*
X84805000Y-70459000D01*
D10*
X72159904Y-74112380D02*
X72159904Y-73112380D01*
X72398000Y-73112380D01*
X72540857Y-73160000D01*
X72636095Y-73255238D01*
X72683714Y-73350476D01*
X72731333Y-73540952D01*
X72731333Y-73683809D01*
X72683714Y-73874285D01*
X72636095Y-73969523D01*
X72540857Y-74064761D01*
X72398000Y-74112380D01*
X72159904Y-74112380D01*
X73064666Y-73112380D02*
X73683714Y-73112380D01*
X73350380Y-73493333D01*
X73493238Y-73493333D01*
X73588476Y-73540952D01*
X73636095Y-73588571D01*
X73683714Y-73683809D01*
X73683714Y-73921904D01*
X73636095Y-74017142D01*
X73588476Y-74064761D01*
X73493238Y-74112380D01*
X73207523Y-74112380D01*
X73112285Y-74064761D01*
X73064666Y-74017142D01*
X82796095Y-76212380D02*
X82796095Y-75212380D01*
X83367523Y-76212380D02*
X82938952Y-75640952D01*
X83367523Y-75212380D02*
X82796095Y-75783809D01*
X72210704Y-78963780D02*
X72210704Y-77963780D01*
X72448800Y-77963780D01*
X72591657Y-78011400D01*
X72686895Y-78106638D01*
X72734514Y-78201876D01*
X72782133Y-78392352D01*
X72782133Y-78535209D01*
X72734514Y-78725685D01*
X72686895Y-78820923D01*
X72591657Y-78916161D01*
X72448800Y-78963780D01*
X72210704Y-78963780D01*
X73163085Y-78059019D02*
X73210704Y-78011400D01*
X73305942Y-77963780D01*
X73544038Y-77963780D01*
X73639276Y-78011400D01*
X73686895Y-78059019D01*
X73734514Y-78154257D01*
X73734514Y-78249495D01*
X73686895Y-78392352D01*
X73115466Y-78963780D01*
X73734514Y-78963780D01*
X82796095Y-81038380D02*
X82796095Y-80038380D01*
X83367523Y-81038380D02*
X82938952Y-80466952D01*
X83367523Y-80038380D02*
X82796095Y-80609809D01*
X182546666Y-98282380D02*
X182546666Y-98996666D01*
X182499047Y-99139523D01*
X182403809Y-99234761D01*
X182260952Y-99282380D01*
X182165714Y-99282380D01*
X183451428Y-98615714D02*
X183451428Y-99282380D01*
X183213333Y-98234761D02*
X182975238Y-98949047D01*
X183594285Y-98949047D01*
X93289523Y-81872380D02*
X92956190Y-81396190D01*
X92718095Y-81872380D02*
X92718095Y-80872380D01*
X93099047Y-80872380D01*
X93194285Y-80920000D01*
X93241904Y-80967619D01*
X93289523Y-81062857D01*
X93289523Y-81205714D01*
X93241904Y-81300952D01*
X93194285Y-81348571D01*
X93099047Y-81396190D01*
X92718095Y-81396190D01*
X93718095Y-81872380D02*
X93718095Y-80872380D01*
X94289523Y-81872380D01*
X94289523Y-80872380D01*
X95289523Y-81872380D02*
X94718095Y-81872380D01*
X95003809Y-81872380D02*
X95003809Y-80872380D01*
X94908571Y-81015238D01*
X94813333Y-81110476D01*
X94718095Y-81158095D01*
X62568380Y-79684476D02*
X62092190Y-80017809D01*
X62568380Y-80255904D02*
X61568380Y-80255904D01*
X61568380Y-79874952D01*
X61616000Y-79779714D01*
X61663619Y-79732095D01*
X61758857Y-79684476D01*
X61901714Y-79684476D01*
X61996952Y-79732095D01*
X62044571Y-79779714D01*
X62092190Y-79874952D01*
X62092190Y-80255904D01*
X62568380Y-79255904D02*
X61568380Y-79255904D01*
X62568380Y-78684476D01*
X61568380Y-78684476D01*
X61663619Y-78255904D02*
X61616000Y-78208285D01*
X61568380Y-78113047D01*
X61568380Y-77874952D01*
X61616000Y-77779714D01*
X61663619Y-77732095D01*
X61758857Y-77684476D01*
X61854095Y-77684476D01*
X61996952Y-77732095D01*
X62568380Y-78303523D01*
X62568380Y-77684476D01*
X115443095Y-87082380D02*
X115443095Y-87891904D01*
X115490714Y-87987142D01*
X115538333Y-88034761D01*
X115633571Y-88082380D01*
X115824047Y-88082380D01*
X115919285Y-88034761D01*
X115966904Y-87987142D01*
X116014523Y-87891904D01*
X116014523Y-87082380D01*
X116919285Y-87082380D02*
X116728809Y-87082380D01*
X116633571Y-87130000D01*
X116585952Y-87177619D01*
X116490714Y-87320476D01*
X116443095Y-87510952D01*
X116443095Y-87891904D01*
X116490714Y-87987142D01*
X116538333Y-88034761D01*
X116633571Y-88082380D01*
X116824047Y-88082380D01*
X116919285Y-88034761D01*
X116966904Y-87987142D01*
X117014523Y-87891904D01*
X117014523Y-87653809D01*
X116966904Y-87558571D01*
X116919285Y-87510952D01*
X116824047Y-87463333D01*
X116633571Y-87463333D01*
X116538333Y-87510952D01*
X116490714Y-87558571D01*
X116443095Y-87653809D01*
X63516000Y-95351000D02*
X64468380Y-95351000D01*
X63706476Y-96670761D02*
X63849333Y-96718380D01*
X64087428Y-96718380D01*
X64182666Y-96670761D01*
X64230285Y-96623142D01*
X64277904Y-96527904D01*
X64277904Y-96432666D01*
X64230285Y-96337428D01*
X64182666Y-96289809D01*
X64087428Y-96242190D01*
X63896952Y-96194571D01*
X63801714Y-96146952D01*
X63754095Y-96099333D01*
X63706476Y-96004095D01*
X63706476Y-95908857D01*
X63754095Y-95813619D01*
X63801714Y-95766000D01*
X63896952Y-95718380D01*
X64135047Y-95718380D01*
X64277904Y-95766000D01*
X64468380Y-95351000D02*
X65516000Y-95351000D01*
X64896952Y-95718380D02*
X65087428Y-95718380D01*
X65182666Y-95766000D01*
X65277904Y-95861238D01*
X65325523Y-96051714D01*
X65325523Y-96385047D01*
X65277904Y-96575523D01*
X65182666Y-96670761D01*
X65087428Y-96718380D01*
X64896952Y-96718380D01*
X64801714Y-96670761D01*
X64706476Y-96575523D01*
X64658857Y-96385047D01*
X64658857Y-96051714D01*
X64706476Y-95861238D01*
X64801714Y-95766000D01*
X64896952Y-95718380D01*
X42251428Y-90271000D02*
X43108571Y-90271000D01*
X42346666Y-90638380D02*
X42680000Y-91638380D01*
X43013333Y-90638380D01*
X43108571Y-90271000D02*
X44108571Y-90271000D01*
X43346666Y-91638380D02*
X43346666Y-90638380D01*
X43727619Y-90638380D01*
X43822857Y-90686000D01*
X43870476Y-90733619D01*
X43918095Y-90828857D01*
X43918095Y-90971714D01*
X43870476Y-91066952D01*
X43822857Y-91114571D01*
X43727619Y-91162190D01*
X43346666Y-91162190D01*
X42203809Y-100431000D02*
X43346666Y-100431000D01*
X42441904Y-101798380D02*
X42441904Y-100798380D01*
X42775238Y-101512666D01*
X43108571Y-100798380D01*
X43108571Y-101798380D01*
X43346666Y-100431000D02*
X44156190Y-100431000D01*
X44060952Y-101798380D02*
X43584761Y-101798380D01*
X43584761Y-100798380D01*
X103378095Y-96182380D02*
X103378095Y-96991904D01*
X103425714Y-97087142D01*
X103473333Y-97134761D01*
X103568571Y-97182380D01*
X103759047Y-97182380D01*
X103854285Y-97134761D01*
X103901904Y-97087142D01*
X103949523Y-96991904D01*
X103949523Y-96182380D01*
X104378095Y-96277619D02*
X104425714Y-96230000D01*
X104520952Y-96182380D01*
X104759047Y-96182380D01*
X104854285Y-96230000D01*
X104901904Y-96277619D01*
X104949523Y-96372857D01*
X104949523Y-96468095D01*
X104901904Y-96610952D01*
X104330476Y-97182380D01*
X104949523Y-97182380D01*
X70953333Y-72112142D02*
X70905714Y-72159761D01*
X70762857Y-72207380D01*
X70667619Y-72207380D01*
X70524761Y-72159761D01*
X70429523Y-72064523D01*
X70381904Y-71969285D01*
X70334285Y-71778809D01*
X70334285Y-71635952D01*
X70381904Y-71445476D01*
X70429523Y-71350238D01*
X70524761Y-71255000D01*
X70667619Y-71207380D01*
X70762857Y-71207380D01*
X70905714Y-71255000D01*
X70953333Y-71302619D01*
X71905714Y-72207380D02*
X71334285Y-72207380D01*
X71620000Y-72207380D02*
X71620000Y-71207380D01*
X71524761Y-71350238D01*
X71429523Y-71445476D01*
X71334285Y-71493095D01*
X44981904Y-76652380D02*
X44981904Y-75652380D01*
X45220000Y-75652380D01*
X45362857Y-75700000D01*
X45458095Y-75795238D01*
X45505714Y-75890476D01*
X45553333Y-76080952D01*
X45553333Y-76223809D01*
X45505714Y-76414285D01*
X45458095Y-76509523D01*
X45362857Y-76604761D01*
X45220000Y-76652380D01*
X44981904Y-76652380D01*
X46505714Y-76652380D02*
X45934285Y-76652380D01*
X46220000Y-76652380D02*
X46220000Y-75652380D01*
X46124761Y-75795238D01*
X46029523Y-75890476D01*
X45934285Y-75938095D01*
X43410476Y-83002380D02*
X43410476Y-82002380D01*
X43791428Y-82002380D01*
X43886666Y-82050000D01*
X43934285Y-82097619D01*
X43981904Y-82192857D01*
X43981904Y-82335714D01*
X43934285Y-82430952D01*
X43886666Y-82478571D01*
X43791428Y-82526190D01*
X43410476Y-82526190D01*
X44600952Y-82002380D02*
X44791428Y-82002380D01*
X44886666Y-82050000D01*
X44981904Y-82145238D01*
X45029523Y-82335714D01*
X45029523Y-82669047D01*
X44981904Y-82859523D01*
X44886666Y-82954761D01*
X44791428Y-83002380D01*
X44600952Y-83002380D01*
X44505714Y-82954761D01*
X44410476Y-82859523D01*
X44362857Y-82669047D01*
X44362857Y-82335714D01*
X44410476Y-82145238D01*
X44505714Y-82050000D01*
X44600952Y-82002380D01*
X45362857Y-82002380D02*
X45600952Y-83002380D01*
X45791428Y-82288095D01*
X45981904Y-83002380D01*
X46220000Y-82002380D01*
X46600952Y-82478571D02*
X46934285Y-82478571D01*
X47077142Y-83002380D02*
X46600952Y-83002380D01*
X46600952Y-82002380D01*
X47077142Y-82002380D01*
X48077142Y-83002380D02*
X47743809Y-82526190D01*
X47505714Y-83002380D02*
X47505714Y-82002380D01*
X47886666Y-82002380D01*
X47981904Y-82050000D01*
X48029523Y-82097619D01*
X48077142Y-82192857D01*
X48077142Y-82335714D01*
X48029523Y-82430952D01*
X47981904Y-82478571D01*
X47886666Y-82526190D01*
X47505714Y-82526190D01*
X49176666Y-65232380D02*
X49176666Y-65946666D01*
X49129047Y-66089523D01*
X49033809Y-66184761D01*
X48890952Y-66232380D01*
X48795714Y-66232380D01*
X50176666Y-66232380D02*
X49605238Y-66232380D01*
X49890952Y-66232380D02*
X49890952Y-65232380D01*
X49795714Y-65375238D01*
X49700476Y-65470476D01*
X49605238Y-65518095D01*
X58721666Y-72873571D02*
X58388333Y-72873571D01*
X58388333Y-73397380D02*
X58388333Y-72397380D01*
X58864523Y-72397380D01*
X59769285Y-73397380D02*
X59197857Y-73397380D01*
X59483571Y-73397380D02*
X59483571Y-72397380D01*
X59388333Y-72540238D01*
X59293095Y-72635476D01*
X59197857Y-72683095D01*
X171624666Y-72350380D02*
X171624666Y-73064666D01*
X171577047Y-73207523D01*
X171481809Y-73302761D01*
X171338952Y-73350380D01*
X171243714Y-73350380D01*
X172005619Y-72350380D02*
X172672285Y-72350380D01*
X172243714Y-73350380D01*
X58293095Y-85812380D02*
X58293095Y-86621904D01*
X58340714Y-86717142D01*
X58388333Y-86764761D01*
X58483571Y-86812380D01*
X58674047Y-86812380D01*
X58769285Y-86764761D01*
X58816904Y-86717142D01*
X58864523Y-86621904D01*
X58864523Y-85812380D01*
X59864523Y-86812380D02*
X59293095Y-86812380D01*
X59578809Y-86812380D02*
X59578809Y-85812380D01*
X59483571Y-85955238D01*
X59388333Y-86050476D01*
X59293095Y-86098095D01*
X53351666Y-75969761D02*
X53494523Y-76017380D01*
X53732619Y-76017380D01*
X53827857Y-75969761D01*
X53875476Y-75922142D01*
X53923095Y-75826904D01*
X53923095Y-75731666D01*
X53875476Y-75636428D01*
X53827857Y-75588809D01*
X53732619Y-75541190D01*
X53542142Y-75493571D01*
X53446904Y-75445952D01*
X53399285Y-75398333D01*
X53351666Y-75303095D01*
X53351666Y-75207857D01*
X53399285Y-75112619D01*
X53446904Y-75065000D01*
X53542142Y-75017380D01*
X53780238Y-75017380D01*
X53923095Y-75065000D01*
X54256428Y-75017380D02*
X54494523Y-76017380D01*
X54685000Y-75303095D01*
X54875476Y-76017380D01*
X55113571Y-75017380D01*
X56018333Y-76017380D02*
X55446904Y-76017380D01*
X55732619Y-76017380D02*
X55732619Y-75017380D01*
X55637380Y-75160238D01*
X55542142Y-75255476D01*
X55446904Y-75303095D01*
X53157619Y-85542380D02*
X52824285Y-85066190D01*
X52586190Y-85542380D02*
X52586190Y-84542380D01*
X52967142Y-84542380D01*
X53062380Y-84590000D01*
X53110000Y-84637619D01*
X53157619Y-84732857D01*
X53157619Y-84875714D01*
X53110000Y-84970952D01*
X53062380Y-85018571D01*
X52967142Y-85066190D01*
X52586190Y-85066190D01*
X53586190Y-85018571D02*
X53919523Y-85018571D01*
X54062380Y-85542380D02*
X53586190Y-85542380D01*
X53586190Y-84542380D01*
X54062380Y-84542380D01*
X54443333Y-85494761D02*
X54586190Y-85542380D01*
X54824285Y-85542380D01*
X54919523Y-85494761D01*
X54967142Y-85447142D01*
X55014761Y-85351904D01*
X55014761Y-85256666D01*
X54967142Y-85161428D01*
X54919523Y-85113809D01*
X54824285Y-85066190D01*
X54633809Y-85018571D01*
X54538571Y-84970952D01*
X54490952Y-84923333D01*
X54443333Y-84828095D01*
X54443333Y-84732857D01*
X54490952Y-84637619D01*
X54538571Y-84590000D01*
X54633809Y-84542380D01*
X54871904Y-84542380D01*
X55014761Y-84590000D01*
X55443333Y-85018571D02*
X55776666Y-85018571D01*
X55919523Y-85542380D02*
X55443333Y-85542380D01*
X55443333Y-84542380D01*
X55919523Y-84542380D01*
X56205238Y-84542380D02*
X56776666Y-84542380D01*
X56490952Y-85542380D02*
X56490952Y-84542380D01*
X89408095Y-86952380D02*
X89408095Y-87761904D01*
X89455714Y-87857142D01*
X89503333Y-87904761D01*
X89598571Y-87952380D01*
X89789047Y-87952380D01*
X89884285Y-87904761D01*
X89931904Y-87857142D01*
X89979523Y-87761904D01*
X89979523Y-86952380D01*
X90360476Y-86952380D02*
X90979523Y-86952380D01*
X90646190Y-87333333D01*
X90789047Y-87333333D01*
X90884285Y-87380952D01*
X90931904Y-87428571D01*
X90979523Y-87523809D01*
X90979523Y-87761904D01*
X90931904Y-87857142D01*
X90884285Y-87904761D01*
X90789047Y-87952380D01*
X90503333Y-87952380D01*
X90408095Y-87904761D01*
X90360476Y-87857142D01*
X43013333Y-108942142D02*
X42965714Y-108989761D01*
X42822857Y-109037380D01*
X42727619Y-109037380D01*
X42584761Y-108989761D01*
X42489523Y-108894523D01*
X42441904Y-108799285D01*
X42394285Y-108608809D01*
X42394285Y-108465952D01*
X42441904Y-108275476D01*
X42489523Y-108180238D01*
X42584761Y-108085000D01*
X42727619Y-108037380D01*
X42822857Y-108037380D01*
X42965714Y-108085000D01*
X43013333Y-108132619D01*
X43346666Y-108037380D02*
X43965714Y-108037380D01*
X43632380Y-108418333D01*
X43775238Y-108418333D01*
X43870476Y-108465952D01*
X43918095Y-108513571D01*
X43965714Y-108608809D01*
X43965714Y-108846904D01*
X43918095Y-108942142D01*
X43870476Y-108989761D01*
X43775238Y-109037380D01*
X43489523Y-109037380D01*
X43394285Y-108989761D01*
X43346666Y-108942142D01*
X97615476Y-79462380D02*
X98282142Y-80462380D01*
X98282142Y-79462380D02*
X97615476Y-80462380D01*
X99186904Y-80462380D02*
X98615476Y-80462380D01*
X98901190Y-80462380D02*
X98901190Y-79462380D01*
X98805952Y-79605238D01*
X98710714Y-79700476D01*
X98615476Y-79748095D01*
X158623095Y-86022380D02*
X158623095Y-86831904D01*
X158670714Y-86927142D01*
X158718333Y-86974761D01*
X158813571Y-87022380D01*
X159004047Y-87022380D01*
X159099285Y-86974761D01*
X159146904Y-86927142D01*
X159194523Y-86831904D01*
X159194523Y-86022380D01*
X159575476Y-86022380D02*
X160242142Y-86022380D01*
X159813571Y-87022380D01*
X135763095Y-87082380D02*
X135763095Y-87891904D01*
X135810714Y-87987142D01*
X135858333Y-88034761D01*
X135953571Y-88082380D01*
X136144047Y-88082380D01*
X136239285Y-88034761D01*
X136286904Y-87987142D01*
X136334523Y-87891904D01*
X136334523Y-87082380D01*
X137286904Y-87082380D02*
X136810714Y-87082380D01*
X136763095Y-87558571D01*
X136810714Y-87510952D01*
X136905952Y-87463333D01*
X137144047Y-87463333D01*
X137239285Y-87510952D01*
X137286904Y-87558571D01*
X137334523Y-87653809D01*
X137334523Y-87891904D01*
X137286904Y-87987142D01*
X137239285Y-88034761D01*
X137144047Y-88082380D01*
X136905952Y-88082380D01*
X136810714Y-88034761D01*
X136763095Y-87987142D01*
X78486095Y-63206380D02*
X78486095Y-64015904D01*
X78533714Y-64111142D01*
X78581333Y-64158761D01*
X78676571Y-64206380D01*
X78867047Y-64206380D01*
X78962285Y-64158761D01*
X79009904Y-64111142D01*
X79057523Y-64015904D01*
X79057523Y-63206380D01*
X79962285Y-63539714D02*
X79962285Y-64206380D01*
X79724190Y-63158761D02*
X79486095Y-63873047D01*
X80105142Y-63873047D01*
X40817895Y-74734800D02*
X40722657Y-74687180D01*
X40579800Y-74687180D01*
X40436942Y-74734800D01*
X40341704Y-74830038D01*
X40294085Y-74925276D01*
X40246466Y-75115752D01*
X40246466Y-75258609D01*
X40294085Y-75449085D01*
X40341704Y-75544323D01*
X40436942Y-75639561D01*
X40579800Y-75687180D01*
X40675038Y-75687180D01*
X40817895Y-75639561D01*
X40865514Y-75591942D01*
X40865514Y-75258609D01*
X40675038Y-75258609D01*
X41294085Y-75687180D02*
X41294085Y-74687180D01*
X41865514Y-75687180D01*
X41865514Y-74687180D01*
X42341704Y-75687180D02*
X42341704Y-74687180D01*
X42579800Y-74687180D01*
X42722657Y-74734800D01*
X42817895Y-74830038D01*
X42865514Y-74925276D01*
X42913133Y-75115752D01*
X42913133Y-75258609D01*
X42865514Y-75449085D01*
X42817895Y-75544323D01*
X42722657Y-75639561D01*
X42579800Y-75687180D01*
X42341704Y-75687180D01*
X75866666Y-149312380D02*
X75866666Y-150026666D01*
X75819047Y-150169523D01*
X75723809Y-150264761D01*
X75580952Y-150312380D01*
X75485714Y-150312380D01*
X76771428Y-149312380D02*
X76580952Y-149312380D01*
X76485714Y-149360000D01*
X76438095Y-149407619D01*
X76342857Y-149550476D01*
X76295238Y-149740952D01*
X76295238Y-150121904D01*
X76342857Y-150217142D01*
X76390476Y-150264761D01*
X76485714Y-150312380D01*
X76676190Y-150312380D01*
X76771428Y-150264761D01*
X76819047Y-150217142D01*
X76866666Y-150121904D01*
X76866666Y-149883809D01*
X76819047Y-149788571D01*
X76771428Y-149740952D01*
X76676190Y-149693333D01*
X76485714Y-149693333D01*
X76390476Y-149740952D01*
X76342857Y-149788571D01*
X76295238Y-149883809D01*
X47926666Y-149312380D02*
X47926666Y-150026666D01*
X47879047Y-150169523D01*
X47783809Y-150264761D01*
X47640952Y-150312380D01*
X47545714Y-150312380D01*
X48879047Y-149312380D02*
X48402857Y-149312380D01*
X48355238Y-149788571D01*
X48402857Y-149740952D01*
X48498095Y-149693333D01*
X48736190Y-149693333D01*
X48831428Y-149740952D01*
X48879047Y-149788571D01*
X48926666Y-149883809D01*
X48926666Y-150121904D01*
X48879047Y-150217142D01*
X48831428Y-150264761D01*
X48736190Y-150312380D01*
X48498095Y-150312380D01*
X48402857Y-150264761D01*
X48355238Y-150217142D01*
X182546666Y-72882380D02*
X182546666Y-73596666D01*
X182499047Y-73739523D01*
X182403809Y-73834761D01*
X182260952Y-73882380D01*
X182165714Y-73882380D01*
X182927619Y-72882380D02*
X183546666Y-72882380D01*
X183213333Y-73263333D01*
X183356190Y-73263333D01*
X183451428Y-73310952D01*
X183499047Y-73358571D01*
X183546666Y-73453809D01*
X183546666Y-73691904D01*
X183499047Y-73787142D01*
X183451428Y-73834761D01*
X183356190Y-73882380D01*
X183070476Y-73882380D01*
X182975238Y-73834761D01*
X182927619Y-73787142D01*
X154773333Y-133072142D02*
X154725714Y-133119761D01*
X154582857Y-133167380D01*
X154487619Y-133167380D01*
X154344761Y-133119761D01*
X154249523Y-133024523D01*
X154201904Y-132929285D01*
X154154285Y-132738809D01*
X154154285Y-132595952D01*
X154201904Y-132405476D01*
X154249523Y-132310238D01*
X154344761Y-132215000D01*
X154487619Y-132167380D01*
X154582857Y-132167380D01*
X154725714Y-132215000D01*
X154773333Y-132262619D01*
X155344761Y-132595952D02*
X155249523Y-132548333D01*
X155201904Y-132500714D01*
X155154285Y-132405476D01*
X155154285Y-132357857D01*
X155201904Y-132262619D01*
X155249523Y-132215000D01*
X155344761Y-132167380D01*
X155535238Y-132167380D01*
X155630476Y-132215000D01*
X155678095Y-132262619D01*
X155725714Y-132357857D01*
X155725714Y-132405476D01*
X155678095Y-132500714D01*
X155630476Y-132548333D01*
X155535238Y-132595952D01*
X155344761Y-132595952D01*
X155249523Y-132643571D01*
X155201904Y-132691190D01*
X155154285Y-132786428D01*
X155154285Y-132976904D01*
X155201904Y-133072142D01*
X155249523Y-133119761D01*
X155344761Y-133167380D01*
X155535238Y-133167380D01*
X155630476Y-133119761D01*
X155678095Y-133072142D01*
X155725714Y-132976904D01*
X155725714Y-132786428D01*
X155678095Y-132691190D01*
X155630476Y-132643571D01*
X155535238Y-132595952D01*
X153020733Y-95022942D02*
X152973114Y-95070561D01*
X152830257Y-95118180D01*
X152735019Y-95118180D01*
X152592161Y-95070561D01*
X152496923Y-94975323D01*
X152449304Y-94880085D01*
X152401685Y-94689609D01*
X152401685Y-94546752D01*
X152449304Y-94356276D01*
X152496923Y-94261038D01*
X152592161Y-94165800D01*
X152735019Y-94118180D01*
X152830257Y-94118180D01*
X152973114Y-94165800D01*
X153020733Y-94213419D01*
X153354066Y-94118180D02*
X154020733Y-94118180D01*
X153592161Y-95118180D01*
X132649933Y-94845142D02*
X132602314Y-94892761D01*
X132459457Y-94940380D01*
X132364219Y-94940380D01*
X132221361Y-94892761D01*
X132126123Y-94797523D01*
X132078504Y-94702285D01*
X132030885Y-94511809D01*
X132030885Y-94368952D01*
X132078504Y-94178476D01*
X132126123Y-94083238D01*
X132221361Y-93988000D01*
X132364219Y-93940380D01*
X132459457Y-93940380D01*
X132602314Y-93988000D01*
X132649933Y-94035619D01*
X133507076Y-93940380D02*
X133316600Y-93940380D01*
X133221361Y-93988000D01*
X133173742Y-94035619D01*
X133078504Y-94178476D01*
X133030885Y-94368952D01*
X133030885Y-94749904D01*
X133078504Y-94845142D01*
X133126123Y-94892761D01*
X133221361Y-94940380D01*
X133411838Y-94940380D01*
X133507076Y-94892761D01*
X133554695Y-94845142D01*
X133602314Y-94749904D01*
X133602314Y-94511809D01*
X133554695Y-94416571D01*
X133507076Y-94368952D01*
X133411838Y-94321333D01*
X133221361Y-94321333D01*
X133126123Y-94368952D01*
X133078504Y-94416571D01*
X133030885Y-94511809D01*
X109053333Y-93829142D02*
X109005714Y-93876761D01*
X108862857Y-93924380D01*
X108767619Y-93924380D01*
X108624761Y-93876761D01*
X108529523Y-93781523D01*
X108481904Y-93686285D01*
X108434285Y-93495809D01*
X108434285Y-93352952D01*
X108481904Y-93162476D01*
X108529523Y-93067238D01*
X108624761Y-92972000D01*
X108767619Y-92924380D01*
X108862857Y-92924380D01*
X109005714Y-92972000D01*
X109053333Y-93019619D01*
X109958095Y-92924380D02*
X109481904Y-92924380D01*
X109434285Y-93400571D01*
X109481904Y-93352952D01*
X109577142Y-93305333D01*
X109815238Y-93305333D01*
X109910476Y-93352952D01*
X109958095Y-93400571D01*
X110005714Y-93495809D01*
X110005714Y-93733904D01*
X109958095Y-93829142D01*
X109910476Y-93876761D01*
X109815238Y-93924380D01*
X109577142Y-93924380D01*
X109481904Y-93876761D01*
X109434285Y-93829142D01*
X93483133Y-97512142D02*
X93435514Y-97559761D01*
X93292657Y-97607380D01*
X93197419Y-97607380D01*
X93054561Y-97559761D01*
X92959323Y-97464523D01*
X92911704Y-97369285D01*
X92864085Y-97178809D01*
X92864085Y-97035952D01*
X92911704Y-96845476D01*
X92959323Y-96750238D01*
X93054561Y-96655000D01*
X93197419Y-96607380D01*
X93292657Y-96607380D01*
X93435514Y-96655000D01*
X93483133Y-96702619D01*
X94340276Y-96940714D02*
X94340276Y-97607380D01*
X94102180Y-96559761D02*
X93864085Y-97274047D01*
X94483133Y-97274047D01*
X85558333Y-73382142D02*
X85510714Y-73429761D01*
X85367857Y-73477380D01*
X85272619Y-73477380D01*
X85129761Y-73429761D01*
X85034523Y-73334523D01*
X84986904Y-73239285D01*
X84939285Y-73048809D01*
X84939285Y-72905952D01*
X84986904Y-72715476D01*
X85034523Y-72620238D01*
X85129761Y-72525000D01*
X85272619Y-72477380D01*
X85367857Y-72477380D01*
X85510714Y-72525000D01*
X85558333Y-72572619D01*
X85939285Y-72572619D02*
X85986904Y-72525000D01*
X86082142Y-72477380D01*
X86320238Y-72477380D01*
X86415476Y-72525000D01*
X86463095Y-72572619D01*
X86510714Y-72667857D01*
X86510714Y-72763095D01*
X86463095Y-72905952D01*
X85891666Y-73477380D01*
X86510714Y-73477380D01*
%LPC*%
D12*
X75438000Y-73660000D03*
D13*
X83058000Y-73660000D03*
D12*
X75438000Y-78486000D03*
D13*
X83058000Y-78486000D03*
D14*
X182880000Y-111760000D03*
X182880000Y-109220000D03*
X182880000Y-106680000D03*
X182880000Y-104140000D03*
D15*
X182880000Y-101600000D03*
D16*
X106680000Y-83820000D03*
X104140000Y-83820000D03*
X101600000Y-83820000D03*
X99060000Y-83820000D03*
X96520000Y-83820000D03*
X93980000Y-83820000D03*
X91440000Y-83820000D03*
X88900000Y-83820000D03*
X86360000Y-83820000D03*
X83820000Y-83820000D03*
X81280000Y-83820000D03*
D17*
X78740000Y-83820000D03*
D16*
X64516000Y-73914000D03*
X64516000Y-76454000D03*
X64516000Y-78994000D03*
X64516000Y-81534000D03*
X64516000Y-84074000D03*
D17*
X64516000Y-86614000D03*
D18*
X127000000Y-127000000D03*
X119380000Y-127000000D03*
X127000000Y-124460000D03*
X119380000Y-124460000D03*
X127000000Y-121920000D03*
X119380000Y-121920000D03*
X127000000Y-119380000D03*
X119380000Y-119380000D03*
X127000000Y-116840000D03*
X119380000Y-116840000D03*
X127000000Y-114300000D03*
X119380000Y-114300000D03*
X127000000Y-111760000D03*
X119380000Y-111760000D03*
X127000000Y-109220000D03*
X119380000Y-109220000D03*
X127000000Y-106680000D03*
X119380000Y-106680000D03*
X127000000Y-104140000D03*
X119380000Y-104140000D03*
X127000000Y-101600000D03*
X119380000Y-101600000D03*
X127000000Y-99060000D03*
D19*
X119380000Y-99060000D03*
D20*
X64516000Y-93980000D03*
X43180000Y-88900000D03*
X43180000Y-99060000D03*
D16*
X111760000Y-99060000D03*
X96520000Y-132080000D03*
X111760000Y-101600000D03*
X96520000Y-129540000D03*
X111760000Y-104140000D03*
X96520000Y-127000000D03*
X111760000Y-106680000D03*
X96520000Y-124460000D03*
X111760000Y-109220000D03*
X96520000Y-121920000D03*
X111760000Y-111760000D03*
X96520000Y-119380000D03*
X111760000Y-114300000D03*
X96520000Y-116840000D03*
X111760000Y-116840000D03*
X96520000Y-114300000D03*
X111760000Y-119380000D03*
X96520000Y-111760000D03*
X111760000Y-121920000D03*
X96520000Y-109220000D03*
X111760000Y-124460000D03*
X96520000Y-106680000D03*
X111760000Y-127000000D03*
X96520000Y-104140000D03*
X111760000Y-129540000D03*
X96520000Y-101600000D03*
X111760000Y-132080000D03*
D17*
X96520000Y-99060000D03*
D21*
X71120000Y-69175000D03*
D17*
X71120000Y-66675000D03*
D22*
X44450000Y-79375000D03*
D23*
X46990000Y-79375000D03*
D24*
X50760000Y-68580000D03*
G36*
G01*
X47410000Y-69330000D02*
X47410000Y-67830000D01*
G75*
G02*
X47660000Y-67580000I250000J0D01*
G01*
X48860000Y-67580000D01*
G75*
G02*
X49110000Y-67830000I0J-250000D01*
G01*
X49110000Y-69330000D01*
G75*
G02*
X48860000Y-69580000I-250000J0D01*
G01*
X47660000Y-69580000D01*
G75*
G02*
X47410000Y-69330000I0J250000D01*
G01*
G37*
D25*
X56515000Y-67945000D03*
X61595000Y-67945000D03*
D26*
X167640000Y-66040000D03*
X165100000Y-66040000D03*
X162560000Y-66040000D03*
X160020000Y-66040000D03*
X157480000Y-66040000D03*
X154940000Y-66040000D03*
X152400000Y-66040000D03*
X149860000Y-66040000D03*
X147320000Y-66040000D03*
X144780000Y-66040000D03*
X142240000Y-66040000D03*
X139700000Y-66040000D03*
X137160000Y-66040000D03*
X134620000Y-66040000D03*
X132080000Y-66040000D03*
X129540000Y-66040000D03*
X127000000Y-66040000D03*
X124460000Y-66040000D03*
X121920000Y-66040000D03*
X119380000Y-66040000D03*
X167640000Y-68580000D03*
X165100000Y-68580000D03*
X162560000Y-68580000D03*
X160020000Y-68580000D03*
X157480000Y-68580000D03*
X154940000Y-68580000D03*
X152400000Y-68580000D03*
X149860000Y-68580000D03*
X147320000Y-68580000D03*
X144780000Y-68580000D03*
X142240000Y-68580000D03*
X139700000Y-68580000D03*
X137160000Y-68580000D03*
X134620000Y-68580000D03*
X132080000Y-68580000D03*
X129540000Y-68580000D03*
X127000000Y-68580000D03*
X124460000Y-68580000D03*
X121920000Y-68580000D03*
G36*
G01*
X119980000Y-69430000D02*
X118780000Y-69430000D01*
G75*
G02*
X118530000Y-69180000I0J250000D01*
G01*
X118530000Y-67980000D01*
G75*
G02*
X118780000Y-67730000I250000J0D01*
G01*
X119980000Y-67730000D01*
G75*
G02*
X120230000Y-67980000I0J-250000D01*
G01*
X120230000Y-69180000D01*
G75*
G02*
X119980000Y-69430000I-250000J0D01*
G01*
G37*
D16*
X60960000Y-88900000D03*
X45720000Y-137160000D03*
X60960000Y-91440000D03*
X45720000Y-134620000D03*
X60960000Y-93980000D03*
X45720000Y-132080000D03*
X60960000Y-96520000D03*
X45720000Y-129540000D03*
X60960000Y-99060000D03*
X45720000Y-127000000D03*
X60960000Y-101600000D03*
X45720000Y-124460000D03*
X60960000Y-104140000D03*
X45720000Y-121920000D03*
X60960000Y-106680000D03*
X45720000Y-119380000D03*
X60960000Y-109220000D03*
X45720000Y-116840000D03*
X60960000Y-111760000D03*
X45720000Y-114300000D03*
X60960000Y-114300000D03*
X45720000Y-111760000D03*
X60960000Y-116840000D03*
X45720000Y-109220000D03*
X60960000Y-119380000D03*
X45720000Y-106680000D03*
X60960000Y-121920000D03*
X45720000Y-104140000D03*
X60960000Y-124460000D03*
X45720000Y-101600000D03*
X60960000Y-127000000D03*
X45720000Y-99060000D03*
X60960000Y-129540000D03*
X45720000Y-96520000D03*
X60960000Y-132080000D03*
X45720000Y-93980000D03*
X60960000Y-134620000D03*
X45720000Y-91440000D03*
X60960000Y-137160000D03*
D17*
X45720000Y-88900000D03*
D25*
X57935000Y-78105000D03*
X57935000Y-82605000D03*
X51435000Y-78105000D03*
X51435000Y-82605000D03*
D18*
X87630000Y-132080000D03*
X72390000Y-132080000D03*
X87630000Y-129540000D03*
X72390000Y-129540000D03*
X87630000Y-127000000D03*
X72390000Y-127000000D03*
X87630000Y-124460000D03*
X72390000Y-124460000D03*
X87630000Y-121920000D03*
X72390000Y-121920000D03*
X87630000Y-119380000D03*
X72390000Y-119380000D03*
X87630000Y-116840000D03*
X72390000Y-116840000D03*
X87630000Y-114300000D03*
X72390000Y-114300000D03*
X87630000Y-111760000D03*
X72390000Y-111760000D03*
X87630000Y-109220000D03*
X72390000Y-109220000D03*
X87630000Y-106680000D03*
X72390000Y-106680000D03*
X87630000Y-104140000D03*
X72390000Y-104140000D03*
X87630000Y-101600000D03*
X72390000Y-101600000D03*
X87630000Y-99060000D03*
D19*
X72390000Y-99060000D03*
D21*
X43180000Y-104180000D03*
X43180000Y-106680000D03*
X106045000Y-76200000D03*
X106045000Y-68580000D03*
X90805000Y-68580000D03*
D17*
X90805000Y-76200000D03*
D16*
X172720000Y-88900000D03*
X157480000Y-137160000D03*
X172720000Y-91440000D03*
X157480000Y-134620000D03*
X172720000Y-93980000D03*
X157480000Y-132080000D03*
X172720000Y-96520000D03*
X157480000Y-129540000D03*
X172720000Y-99060000D03*
X157480000Y-127000000D03*
X172720000Y-101600000D03*
X157480000Y-124460000D03*
X172720000Y-104140000D03*
X157480000Y-121920000D03*
X172720000Y-106680000D03*
X157480000Y-119380000D03*
X172720000Y-109220000D03*
X157480000Y-116840000D03*
X172720000Y-111760000D03*
X157480000Y-114300000D03*
X172720000Y-114300000D03*
X157480000Y-111760000D03*
X172720000Y-116840000D03*
X157480000Y-109220000D03*
X172720000Y-119380000D03*
X157480000Y-106680000D03*
X172720000Y-121920000D03*
X157480000Y-104140000D03*
X172720000Y-124460000D03*
X157480000Y-101600000D03*
X172720000Y-127000000D03*
X157480000Y-99060000D03*
X172720000Y-129540000D03*
X157480000Y-96520000D03*
X172720000Y-132080000D03*
X157480000Y-93980000D03*
X172720000Y-134620000D03*
X157480000Y-91440000D03*
X172720000Y-137160000D03*
D17*
X157480000Y-88900000D03*
D18*
X147320000Y-127000000D03*
X139700000Y-127000000D03*
X147320000Y-124460000D03*
X139700000Y-124460000D03*
X147320000Y-121920000D03*
X139700000Y-121920000D03*
X147320000Y-119380000D03*
X139700000Y-119380000D03*
X147320000Y-116840000D03*
X139700000Y-116840000D03*
X147320000Y-114300000D03*
X139700000Y-114300000D03*
X147320000Y-111760000D03*
X139700000Y-111760000D03*
X147320000Y-109220000D03*
X139700000Y-109220000D03*
X147320000Y-106680000D03*
X139700000Y-106680000D03*
X147320000Y-104140000D03*
X139700000Y-104140000D03*
X147320000Y-101600000D03*
X139700000Y-101600000D03*
X147320000Y-99060000D03*
D19*
X139700000Y-99060000D03*
D27*
X77978000Y-67564000D03*
D28*
X80518000Y-67564000D03*
X79248000Y-67564000D03*
D29*
X41579800Y-72059800D03*
D14*
X175260000Y-147320000D03*
X172720000Y-147320000D03*
X170180000Y-147320000D03*
X167640000Y-147320000D03*
X165100000Y-147320000D03*
X162560000Y-147320000D03*
X160020000Y-147320000D03*
X157480000Y-147320000D03*
X154940000Y-147320000D03*
X152400000Y-147320000D03*
X149860000Y-147320000D03*
X147320000Y-147320000D03*
X144780000Y-147320000D03*
X142240000Y-147320000D03*
X139700000Y-147320000D03*
X137160000Y-147320000D03*
X134620000Y-147320000D03*
X132080000Y-147320000D03*
X129540000Y-147320000D03*
X127000000Y-147320000D03*
X124460000Y-147320000D03*
X121920000Y-147320000D03*
X119380000Y-147320000D03*
X116840000Y-147320000D03*
X114300000Y-147320000D03*
X111760000Y-147320000D03*
X109220000Y-147320000D03*
X106680000Y-147320000D03*
X104140000Y-147320000D03*
X101600000Y-147320000D03*
X99060000Y-147320000D03*
X96520000Y-147320000D03*
X93980000Y-147320000D03*
X91440000Y-147320000D03*
X88900000Y-147320000D03*
X86360000Y-147320000D03*
X83820000Y-147320000D03*
X81280000Y-147320000D03*
X78740000Y-147320000D03*
D15*
X76200000Y-147320000D03*
D14*
X71120000Y-147320000D03*
X68580000Y-147320000D03*
X66040000Y-147320000D03*
X63500000Y-147320000D03*
X60960000Y-147320000D03*
X58420000Y-147320000D03*
X55880000Y-147320000D03*
X53340000Y-147320000D03*
X50800000Y-147320000D03*
D15*
X48260000Y-147320000D03*
D14*
X182880000Y-93980000D03*
X182880000Y-91440000D03*
X182880000Y-88900000D03*
X182880000Y-86360000D03*
X182880000Y-83820000D03*
X182880000Y-81280000D03*
X182880000Y-78740000D03*
D15*
X182880000Y-76200000D03*
D30*
X182880000Y-147320000D03*
X41910000Y-147320000D03*
X182880000Y-66040000D03*
X41910000Y-66040000D03*
D21*
X154940000Y-134660000D03*
X154940000Y-137160000D03*
X153162000Y-96560000D03*
X153162000Y-99060000D03*
X132842000Y-96306000D03*
X132842000Y-98806000D03*
X109260000Y-96012000D03*
X111760000Y-96012000D03*
X93649800Y-101560000D03*
X93649800Y-99060000D03*
X85725000Y-71080000D03*
X85725000Y-68580000D03*
M02*
