%TF.GenerationSoftware,KiCad,Pcbnew,(5.1.9-0-10_14)*%
%TF.CreationDate,2021-04-28T18:12:29+02:00*%
%TF.ProjectId,mainboard,6d61696e-626f-4617-9264-2e6b69636164,rev?*%
%TF.SameCoordinates,Original*%
%TF.FileFunction,Copper,L1,Top*%
%TF.FilePolarity,Positive*%
%FSLAX46Y46*%
G04 Gerber Fmt 4.6, Leading zero omitted, Abs format (unit mm)*
G04 Created by KiCad (PCBNEW (5.1.9-0-10_14)) date 2021-04-28 18:12:29*
%MOMM*%
%LPD*%
G01*
G04 APERTURE LIST*
%TA.AperFunction,ComponentPad*%
%ADD10O,1.600000X1.600000*%
%TD*%
%TA.AperFunction,ComponentPad*%
%ADD11R,1.600000X1.600000*%
%TD*%
%TA.AperFunction,ComponentPad*%
%ADD12O,1.700000X1.700000*%
%TD*%
%TA.AperFunction,ComponentPad*%
%ADD13R,1.700000X1.700000*%
%TD*%
%TA.AperFunction,ComponentPad*%
%ADD14C,1.600000*%
%TD*%
%TA.AperFunction,ComponentPad*%
%ADD15O,1.440000X2.000000*%
%TD*%
%TA.AperFunction,ComponentPad*%
%ADD16R,1.440000X2.000000*%
%TD*%
%TA.AperFunction,ComponentPad*%
%ADD17C,1.200000*%
%TD*%
%TA.AperFunction,ComponentPad*%
%ADD18R,1.200000X1.200000*%
%TD*%
%TA.AperFunction,ComponentPad*%
%ADD19C,2.000000*%
%TD*%
%TA.AperFunction,ViaPad*%
%ADD20C,0.800000*%
%TD*%
%TA.AperFunction,ViaPad*%
%ADD21C,0.600000*%
%TD*%
%TA.AperFunction,Conductor*%
%ADD22C,0.250000*%
%TD*%
%TA.AperFunction,Conductor*%
%ADD23C,0.140000*%
%TD*%
G04 APERTURE END LIST*
D10*
%TO.P,U5,16*%
%TO.N,VCC*%
X202438000Y94488000D03*
%TO.P,U5,8*%
%TO.N,GND*%
X220218000Y86868000D03*
%TO.P,U5,15*%
%TO.N,VCC*%
X204978000Y94488000D03*
%TO.P,U5,7*%
%TO.N,/a12*%
X217678000Y86868000D03*
%TO.P,U5,14*%
%TO.N,VCC*%
X207518000Y94488000D03*
%TO.P,U5,6*%
%TO.N,/a11*%
X215138000Y86868000D03*
%TO.P,U5,13*%
%TO.N,/a14*%
X210058000Y94488000D03*
%TO.P,U5,5*%
%TO.N,/a10*%
X212598000Y86868000D03*
%TO.P,U5,12*%
%TO.N,/a13*%
X212598000Y94488000D03*
%TO.P,U5,4*%
%TO.N,/a9*%
X210058000Y86868000D03*
%TO.P,U5,11*%
%TO.N,VCC*%
X215138000Y94488000D03*
%TO.P,U5,3*%
%TO.N,/a8*%
X207518000Y86868000D03*
%TO.P,U5,10*%
%TO.N,VCC*%
X217678000Y94488000D03*
%TO.P,U5,2*%
%TO.N,/a7*%
X204978000Y86868000D03*
%TO.P,U5,9*%
%TO.N,Net-(U3-Pad10)*%
X220218000Y94488000D03*
D11*
%TO.P,U5,1*%
%TO.N,/a6*%
X202438000Y86868000D03*
%TD*%
D10*
%TO.P,U3,14*%
%TO.N,VCC*%
X226695000Y94615000D03*
%TO.P,U3,7*%
%TO.N,GND*%
X241935000Y86995000D03*
%TO.P,U3,13*%
%TO.N,PHI1*%
X229235000Y94615000D03*
%TO.P,U3,6*%
%TO.N,RAM_CSB*%
X239395000Y86995000D03*
%TO.P,U3,12*%
%TO.N,BE*%
X231775000Y94615000D03*
%TO.P,U3,5*%
%TO.N,Net-(U3-Pad11)*%
X236855000Y86995000D03*
%TO.P,U3,11*%
X234315000Y94615000D03*
%TO.P,U3,4*%
%TO.N,ROM_CSB*%
X234315000Y86995000D03*
%TO.P,U3,10*%
%TO.N,Net-(U3-Pad10)*%
X236855000Y94615000D03*
%TO.P,U3,3*%
%TO.N,ROM_CSB*%
X231775000Y86995000D03*
%TO.P,U3,9*%
%TO.N,Net-(U3-Pad10)*%
X239395000Y94615000D03*
%TO.P,U3,2*%
%TO.N,/a15*%
X229235000Y86995000D03*
%TO.P,U3,8*%
%TO.N,RAM_OEB*%
X241935000Y94615000D03*
D11*
%TO.P,U3,1*%
%TO.N,/a15*%
X226695000Y86995000D03*
%TD*%
D12*
%TO.P,J1,20*%
%TO.N,/d7*%
X287020000Y76200000D03*
%TO.P,J1,19*%
%TO.N,/a3*%
X284480000Y76200000D03*
%TO.P,J1,18*%
%TO.N,/d6*%
X287020000Y78740000D03*
%TO.P,J1,17*%
%TO.N,/a2*%
X284480000Y78740000D03*
%TO.P,J1,16*%
%TO.N,/d5*%
X287020000Y81280000D03*
%TO.P,J1,15*%
%TO.N,/a1*%
X284480000Y81280000D03*
%TO.P,J1,14*%
%TO.N,/d4*%
X287020000Y83820000D03*
%TO.P,J1,13*%
%TO.N,/a0*%
X284480000Y83820000D03*
%TO.P,J1,12*%
%TO.N,/d3*%
X287020000Y86360000D03*
%TO.P,J1,11*%
%TO.N,N/C*%
X284480000Y86360000D03*
%TO.P,J1,10*%
%TO.N,/d2*%
X287020000Y88900000D03*
%TO.P,J1,9*%
%TO.N,IRQ1*%
X284480000Y88900000D03*
%TO.P,J1,8*%
%TO.N,/d1*%
X287020000Y91440000D03*
%TO.P,J1,7*%
%TO.N,PHI2*%
X284480000Y91440000D03*
%TO.P,J1,6*%
%TO.N,/d0*%
X287020000Y93980000D03*
%TO.P,J1,5*%
%TO.N,RES*%
X284480000Y93980000D03*
%TO.P,J1,4*%
%TO.N,RW*%
X287020000Y96520000D03*
%TO.P,J1,3*%
%TO.N,IO1*%
X284480000Y96520000D03*
%TO.P,J1,2*%
%TO.N,GND*%
X287020000Y99060000D03*
D13*
%TO.P,J1,1*%
%TO.N,VCC*%
X284480000Y99060000D03*
%TD*%
D10*
%TO.P,R5,2*%
%TO.N,VCC*%
X196215000Y95250000D03*
D14*
%TO.P,R5,1*%
%TO.N,RW*%
X196215000Y102870000D03*
%TD*%
D12*
%TO.P,J2,20*%
%TO.N,/d7*%
X295910000Y76200000D03*
%TO.P,J2,19*%
%TO.N,/a3*%
X293370000Y76200000D03*
%TO.P,J2,18*%
%TO.N,/d6*%
X295910000Y78740000D03*
%TO.P,J2,17*%
%TO.N,/a2*%
X293370000Y78740000D03*
%TO.P,J2,16*%
%TO.N,/d5*%
X295910000Y81280000D03*
%TO.P,J2,15*%
%TO.N,/a1*%
X293370000Y81280000D03*
%TO.P,J2,14*%
%TO.N,/d4*%
X295910000Y83820000D03*
%TO.P,J2,13*%
%TO.N,/a0*%
X293370000Y83820000D03*
%TO.P,J2,12*%
%TO.N,/d3*%
X295910000Y86360000D03*
%TO.P,J2,11*%
%TO.N,N/C*%
X293370000Y86360000D03*
%TO.P,J2,10*%
%TO.N,/d2*%
X295910000Y88900000D03*
%TO.P,J2,9*%
%TO.N,IRQ2*%
X293370000Y88900000D03*
%TO.P,J2,8*%
%TO.N,/d1*%
X295910000Y91440000D03*
%TO.P,J2,7*%
%TO.N,PHI2*%
X293370000Y91440000D03*
%TO.P,J2,6*%
%TO.N,/d0*%
X295910000Y93980000D03*
%TO.P,J2,5*%
%TO.N,RES*%
X293370000Y93980000D03*
%TO.P,J2,4*%
%TO.N,RW*%
X295910000Y96520000D03*
%TO.P,J2,3*%
%TO.N,IO2*%
X293370000Y96520000D03*
%TO.P,J2,2*%
%TO.N,GND*%
X295910000Y99060000D03*
D13*
%TO.P,J2,1*%
%TO.N,VCC*%
X293370000Y99060000D03*
%TD*%
D10*
%TO.P,D5,2*%
%TO.N,IRQ*%
X273050000Y82550000D03*
D11*
%TO.P,D5,1*%
%TO.N,IRQ4*%
X280670000Y82550000D03*
%TD*%
D10*
%TO.P,R8,2*%
%TO.N,ROM_WEB*%
X257810000Y107315000D03*
D14*
%TO.P,R8,1*%
%TO.N,VCC*%
X257810000Y114935000D03*
%TD*%
D10*
%TO.P,R7,2*%
%TO.N,GND*%
X261620000Y114935000D03*
D14*
%TO.P,R7,1*%
%TO.N,ROM_OEB*%
X261620000Y107315000D03*
%TD*%
D10*
%TO.P,R6,2*%
%TO.N,VCC*%
X192405000Y95250000D03*
D14*
%TO.P,R6,1*%
%TO.N,BE*%
X192405000Y102870000D03*
%TD*%
D10*
%TO.P,R4,2*%
%TO.N,VCC*%
X184785000Y95250000D03*
D14*
%TO.P,R4,1*%
%TO.N,IRQ*%
X184785000Y102870000D03*
%TD*%
D12*
%TO.P,J6,38*%
%TO.N,/d7*%
X278130000Y76200000D03*
%TO.P,J6,37*%
%TO.N,/a15*%
X278130000Y78740000D03*
%TO.P,J6,36*%
%TO.N,/d6*%
X275590000Y76200000D03*
%TO.P,J6,35*%
%TO.N,/a14*%
X275590000Y78740000D03*
%TO.P,J6,34*%
%TO.N,/d5*%
X273050000Y76200000D03*
%TO.P,J6,33*%
%TO.N,/a13*%
X273050000Y78740000D03*
%TO.P,J6,32*%
%TO.N,/d4*%
X270510000Y76200000D03*
%TO.P,J6,31*%
%TO.N,/a12*%
X270510000Y78740000D03*
%TO.P,J6,30*%
%TO.N,/d3*%
X267970000Y76200000D03*
%TO.P,J6,29*%
%TO.N,/a11*%
X267970000Y78740000D03*
%TO.P,J6,28*%
%TO.N,/d2*%
X265430000Y76200000D03*
%TO.P,J6,27*%
%TO.N,/a10*%
X265430000Y78740000D03*
%TO.P,J6,26*%
%TO.N,/d1*%
X262890000Y76200000D03*
%TO.P,J6,25*%
%TO.N,/a9*%
X262890000Y78740000D03*
%TO.P,J6,24*%
%TO.N,/d0*%
X260350000Y76200000D03*
%TO.P,J6,23*%
%TO.N,/a8*%
X260350000Y78740000D03*
%TO.P,J6,22*%
%TO.N,ROM_OEB*%
X257810000Y76200000D03*
%TO.P,J6,21*%
%TO.N,/a7*%
X257810000Y78740000D03*
%TO.P,J6,20*%
%TO.N,ROM_WEB*%
X255270000Y76200000D03*
%TO.P,J6,19*%
%TO.N,/a6*%
X255270000Y78740000D03*
%TO.P,J6,18*%
%TO.N,IRQ5*%
X252730000Y76200000D03*
%TO.P,J6,17*%
%TO.N,/a5*%
X252730000Y78740000D03*
%TO.P,J6,16*%
%TO.N,NMI*%
X250190000Y76200000D03*
%TO.P,J6,15*%
%TO.N,/a4*%
X250190000Y78740000D03*
%TO.P,J6,14*%
%TO.N,RDY*%
X247650000Y76200000D03*
%TO.P,J6,13*%
%TO.N,/a3*%
X247650000Y78740000D03*
%TO.P,J6,12*%
%TO.N,BE*%
X245110000Y76200000D03*
%TO.P,J6,11*%
%TO.N,/a2*%
X245110000Y78740000D03*
%TO.P,J6,10*%
%TO.N,SYNC*%
X242570000Y76200000D03*
%TO.P,J6,9*%
%TO.N,/a1*%
X242570000Y78740000D03*
%TO.P,J6,8*%
%TO.N,RW*%
X240030000Y76200000D03*
%TO.P,J6,7*%
%TO.N,/a0*%
X240030000Y78740000D03*
%TO.P,J6,6*%
%TO.N,PHI2*%
X237490000Y76200000D03*
%TO.P,J6,5*%
%TO.N,PHI1*%
X237490000Y78740000D03*
%TO.P,J6,4*%
%TO.N,CLK*%
X234950000Y76200000D03*
%TO.P,J6,3*%
%TO.N,RES*%
X234950000Y78740000D03*
%TO.P,J6,2*%
%TO.N,GND*%
X232410000Y76200000D03*
D13*
%TO.P,J6,1*%
%TO.N,VCC*%
X232410000Y78740000D03*
%TD*%
D10*
%TO.P,D6,2*%
%TO.N,IRQ*%
X270510000Y82550000D03*
D11*
%TO.P,D6,1*%
%TO.N,IRQ5*%
X262890000Y82550000D03*
%TD*%
D10*
%TO.P,D4,2*%
%TO.N,IRQ*%
X273050000Y85725000D03*
D11*
%TO.P,D4,1*%
%TO.N,IRQ3*%
X280670000Y85725000D03*
%TD*%
D10*
%TO.P,D3,2*%
%TO.N,IRQ*%
X273050000Y88900000D03*
D11*
%TO.P,D3,1*%
%TO.N,IRQ2*%
X280670000Y88900000D03*
%TD*%
D10*
%TO.P,D2,2*%
%TO.N,IRQ*%
X273050000Y92075000D03*
D11*
%TO.P,D2,1*%
%TO.N,IRQ1*%
X280670000Y92075000D03*
%TD*%
D14*
%TO.P,C5,2*%
%TO.N,GND*%
X199390000Y92115000D03*
%TO.P,C5,1*%
%TO.N,VCC*%
X199390000Y94615000D03*
%TD*%
D12*
%TO.P,J3,20*%
%TO.N,/d7*%
X304800000Y76200000D03*
%TO.P,J3,19*%
%TO.N,/a3*%
X302260000Y76200000D03*
%TO.P,J3,18*%
%TO.N,/d6*%
X304800000Y78740000D03*
%TO.P,J3,17*%
%TO.N,/a2*%
X302260000Y78740000D03*
%TO.P,J3,16*%
%TO.N,/d5*%
X304800000Y81280000D03*
%TO.P,J3,15*%
%TO.N,/a1*%
X302260000Y81280000D03*
%TO.P,J3,14*%
%TO.N,/d4*%
X304800000Y83820000D03*
%TO.P,J3,13*%
%TO.N,/a0*%
X302260000Y83820000D03*
%TO.P,J3,12*%
%TO.N,/d3*%
X304800000Y86360000D03*
%TO.P,J3,11*%
%TO.N,N/C*%
X302260000Y86360000D03*
%TO.P,J3,10*%
%TO.N,/d2*%
X304800000Y88900000D03*
%TO.P,J3,9*%
%TO.N,IRQ3*%
X302260000Y88900000D03*
%TO.P,J3,8*%
%TO.N,/d1*%
X304800000Y91440000D03*
%TO.P,J3,7*%
%TO.N,PHI2*%
X302260000Y91440000D03*
%TO.P,J3,6*%
%TO.N,/d0*%
X304800000Y93980000D03*
%TO.P,J3,5*%
%TO.N,RES*%
X302260000Y93980000D03*
%TO.P,J3,4*%
%TO.N,RW*%
X304800000Y96520000D03*
%TO.P,J3,3*%
%TO.N,IO3*%
X302260000Y96520000D03*
%TO.P,J3,2*%
%TO.N,GND*%
X304800000Y99060000D03*
D13*
%TO.P,J3,1*%
%TO.N,VCC*%
X302260000Y99060000D03*
%TD*%
D15*
%TO.P,U7,15*%
%TO.N,/d3*%
X308610000Y121285000D03*
%TO.P,U7,14*%
%TO.N,GND*%
X308610000Y106045000D03*
%TO.P,U7,16*%
%TO.N,/d4*%
X306070000Y121285000D03*
%TO.P,U7,13*%
%TO.N,/d2*%
X306070000Y106045000D03*
%TO.P,U7,17*%
%TO.N,/d5*%
X303530000Y121285000D03*
%TO.P,U7,12*%
%TO.N,/d1*%
X303530000Y106045000D03*
%TO.P,U7,18*%
%TO.N,/d6*%
X300990000Y121285000D03*
%TO.P,U7,11*%
%TO.N,/d0*%
X300990000Y106045000D03*
%TO.P,U7,19*%
%TO.N,/d7*%
X298450000Y121285000D03*
%TO.P,U7,10*%
%TO.N,/a0*%
X298450000Y106045000D03*
%TO.P,U7,20*%
%TO.N,ROM_CSB*%
X295910000Y121285000D03*
%TO.P,U7,9*%
%TO.N,/a1*%
X295910000Y106045000D03*
%TO.P,U7,21*%
%TO.N,/a10*%
X293370000Y121285000D03*
%TO.P,U7,8*%
%TO.N,/a2*%
X293370000Y106045000D03*
%TO.P,U7,22*%
%TO.N,ROM_OEB*%
X290830000Y121285000D03*
%TO.P,U7,7*%
%TO.N,/a3*%
X290830000Y106045000D03*
%TO.P,U7,23*%
%TO.N,/a11*%
X288290000Y121285000D03*
%TO.P,U7,6*%
%TO.N,/a4*%
X288290000Y106045000D03*
%TO.P,U7,24*%
%TO.N,/a9*%
X285750000Y121285000D03*
%TO.P,U7,5*%
%TO.N,/a5*%
X285750000Y106045000D03*
%TO.P,U7,25*%
%TO.N,/a8*%
X283210000Y121285000D03*
%TO.P,U7,4*%
%TO.N,/a6*%
X283210000Y106045000D03*
%TO.P,U7,26*%
%TO.N,/a13*%
X280670000Y121285000D03*
%TO.P,U7,3*%
%TO.N,/a7*%
X280670000Y106045000D03*
%TO.P,U7,27*%
%TO.N,ROM_WEB*%
X278130000Y121285000D03*
%TO.P,U7,2*%
%TO.N,/a12*%
X278130000Y106045000D03*
%TO.P,U7,28*%
%TO.N,VCC*%
X275590000Y121285000D03*
D16*
%TO.P,U7,1*%
%TO.N,/a14*%
X275590000Y106045000D03*
%TD*%
D10*
%TO.P,U6,28*%
%TO.N,VCC*%
X220980000Y121285000D03*
%TO.P,U6,14*%
%TO.N,GND*%
X254000000Y106045000D03*
%TO.P,U6,27*%
%TO.N,RW*%
X223520000Y121285000D03*
%TO.P,U6,13*%
%TO.N,/d2*%
X251460000Y106045000D03*
%TO.P,U6,26*%
%TO.N,/a13*%
X226060000Y121285000D03*
%TO.P,U6,12*%
%TO.N,/d1*%
X248920000Y106045000D03*
%TO.P,U6,25*%
%TO.N,/a8*%
X228600000Y121285000D03*
%TO.P,U6,11*%
%TO.N,/d0*%
X246380000Y106045000D03*
%TO.P,U6,24*%
%TO.N,/a9*%
X231140000Y121285000D03*
%TO.P,U6,10*%
%TO.N,/a0*%
X243840000Y106045000D03*
%TO.P,U6,23*%
%TO.N,/a11*%
X233680000Y121285000D03*
%TO.P,U6,9*%
%TO.N,/a1*%
X241300000Y106045000D03*
%TO.P,U6,22*%
%TO.N,RAM_OEB*%
X236220000Y121285000D03*
%TO.P,U6,8*%
%TO.N,/a2*%
X238760000Y106045000D03*
%TO.P,U6,21*%
%TO.N,/a10*%
X238760000Y121285000D03*
%TO.P,U6,7*%
%TO.N,/a3*%
X236220000Y106045000D03*
%TO.P,U6,20*%
%TO.N,RAM_CSB*%
X241300000Y121285000D03*
%TO.P,U6,6*%
%TO.N,/a4*%
X233680000Y106045000D03*
%TO.P,U6,19*%
%TO.N,/d7*%
X243840000Y121285000D03*
%TO.P,U6,5*%
%TO.N,/a5*%
X231140000Y106045000D03*
%TO.P,U6,18*%
%TO.N,/d6*%
X246380000Y121285000D03*
%TO.P,U6,4*%
%TO.N,/a6*%
X228600000Y106045000D03*
%TO.P,U6,17*%
%TO.N,/d5*%
X248920000Y121285000D03*
%TO.P,U6,3*%
%TO.N,/a7*%
X226060000Y106045000D03*
%TO.P,U6,16*%
%TO.N,/d4*%
X251460000Y121285000D03*
%TO.P,U6,2*%
%TO.N,/a12*%
X223520000Y106045000D03*
%TO.P,U6,15*%
%TO.N,/d3*%
X254000000Y121285000D03*
D11*
%TO.P,U6,1*%
%TO.N,/a14*%
X220980000Y106045000D03*
%TD*%
D10*
%TO.P,R3,2*%
%TO.N,VCC*%
X188595000Y95250000D03*
D14*
%TO.P,R3,1*%
%TO.N,NMI*%
X188595000Y102870000D03*
%TD*%
D12*
%TO.P,J5,2*%
%TO.N,GND*%
X160020000Y97790000D03*
D13*
%TO.P,J5,1*%
%TO.N,Net-(D1-Pad2)*%
X160020000Y100330000D03*
%TD*%
D10*
%TO.P,D1,2*%
%TO.N,Net-(D1-Pad2)*%
X163830000Y100330000D03*
D11*
%TO.P,D1,1*%
%TO.N,VCC*%
X171450000Y100330000D03*
%TD*%
D17*
%TO.P,C8,2*%
%TO.N,GND*%
X167640000Y94520000D03*
D18*
%TO.P,C8,1*%
%TO.N,VCC*%
X167640000Y96520000D03*
%TD*%
D14*
%TO.P,C7,2*%
%TO.N,GND*%
X248920000Y92115000D03*
%TO.P,C7,1*%
%TO.N,VCC*%
X248920000Y94615000D03*
%TD*%
%TO.P,C6,2*%
%TO.N,GND*%
X223520000Y92075000D03*
%TO.P,C6,1*%
%TO.N,VCC*%
X223520000Y94575000D03*
%TD*%
%TO.P,C4,2*%
%TO.N,GND*%
X262890000Y117515000D03*
%TO.P,C4,1*%
%TO.N,VCC*%
X262890000Y120015000D03*
%TD*%
%TO.P,C3,2*%
%TO.N,GND*%
X217805000Y118745000D03*
%TO.P,C3,1*%
%TO.N,VCC*%
X217805000Y121245000D03*
%TD*%
%TO.P,C2,2*%
%TO.N,GND*%
X175300000Y102870000D03*
%TO.P,C2,1*%
%TO.N,VCC*%
X177800000Y102870000D03*
%TD*%
%TO.P,C1,1*%
%TO.N,GND*%
X157480000Y78740000D03*
%TO.P,C1,2*%
%TO.N,RES*%
X157480000Y81240000D03*
%TD*%
%TO.P,R1,1*%
%TO.N,RDY*%
X180975000Y102870000D03*
D10*
%TO.P,R1,2*%
%TO.N,VCC*%
X180975000Y95250000D03*
%TD*%
%TO.P,R2,2*%
%TO.N,VCC*%
X160655000Y86360000D03*
D14*
%TO.P,R2,1*%
%TO.N,RES*%
X168275000Y86360000D03*
%TD*%
D19*
%TO.P,SW1,2*%
%TO.N,GND*%
X161290000Y78050000D03*
%TO.P,SW1,1*%
%TO.N,RES*%
X161290000Y82550000D03*
%TO.P,SW1,2*%
%TO.N,GND*%
X167790000Y78050000D03*
%TO.P,SW1,1*%
%TO.N,RES*%
X167790000Y82550000D03*
%TD*%
D11*
%TO.P,U1,1*%
%TO.N,N/C*%
X160020000Y106045000D03*
D10*
%TO.P,U1,21*%
%TO.N,GND*%
X208280000Y121285000D03*
%TO.P,U1,2*%
%TO.N,RDY*%
X162560000Y106045000D03*
%TO.P,U1,22*%
%TO.N,/a12*%
X205740000Y121285000D03*
%TO.P,U1,3*%
%TO.N,PHI1*%
X165100000Y106045000D03*
%TO.P,U1,23*%
%TO.N,/a13*%
X203200000Y121285000D03*
%TO.P,U1,4*%
%TO.N,IRQ*%
X167640000Y106045000D03*
%TO.P,U1,24*%
%TO.N,/a14*%
X200660000Y121285000D03*
%TO.P,U1,5*%
%TO.N,N/C*%
X170180000Y106045000D03*
%TO.P,U1,25*%
%TO.N,/a15*%
X198120000Y121285000D03*
%TO.P,U1,6*%
%TO.N,NMI*%
X172720000Y106045000D03*
%TO.P,U1,26*%
%TO.N,/d7*%
X195580000Y121285000D03*
%TO.P,U1,7*%
%TO.N,SYNC*%
X175260000Y106045000D03*
%TO.P,U1,27*%
%TO.N,/d6*%
X193040000Y121285000D03*
%TO.P,U1,8*%
%TO.N,VCC*%
X177800000Y106045000D03*
%TO.P,U1,28*%
%TO.N,/d5*%
X190500000Y121285000D03*
%TO.P,U1,9*%
%TO.N,/a0*%
X180340000Y106045000D03*
%TO.P,U1,29*%
%TO.N,/d4*%
X187960000Y121285000D03*
%TO.P,U1,10*%
%TO.N,/a1*%
X182880000Y106045000D03*
%TO.P,U1,30*%
%TO.N,/d3*%
X185420000Y121285000D03*
%TO.P,U1,11*%
%TO.N,/a2*%
X185420000Y106045000D03*
%TO.P,U1,31*%
%TO.N,/d2*%
X182880000Y121285000D03*
%TO.P,U1,12*%
%TO.N,/a3*%
X187960000Y106045000D03*
%TO.P,U1,32*%
%TO.N,/d1*%
X180340000Y121285000D03*
%TO.P,U1,13*%
%TO.N,/a4*%
X190500000Y106045000D03*
%TO.P,U1,33*%
%TO.N,/d0*%
X177800000Y121285000D03*
%TO.P,U1,14*%
%TO.N,/a5*%
X193040000Y106045000D03*
%TO.P,U1,34*%
%TO.N,RW*%
X175260000Y121285000D03*
%TO.P,U1,15*%
%TO.N,/a6*%
X195580000Y106045000D03*
%TO.P,U1,35*%
%TO.N,N/C*%
X172720000Y121285000D03*
%TO.P,U1,16*%
%TO.N,/a7*%
X198120000Y106045000D03*
%TO.P,U1,36*%
%TO.N,BE*%
X170180000Y121285000D03*
%TO.P,U1,17*%
%TO.N,/a8*%
X200660000Y106045000D03*
%TO.P,U1,37*%
%TO.N,CLK*%
X167640000Y121285000D03*
%TO.P,U1,18*%
%TO.N,/a9*%
X203200000Y106045000D03*
%TO.P,U1,38*%
%TO.N,N/C*%
X165100000Y121285000D03*
%TO.P,U1,19*%
%TO.N,/a10*%
X205740000Y106045000D03*
%TO.P,U1,39*%
%TO.N,PHI2*%
X162560000Y121285000D03*
%TO.P,U1,20*%
%TO.N,/a11*%
X208280000Y106045000D03*
%TO.P,U1,40*%
%TO.N,RES*%
X160020000Y121285000D03*
%TD*%
D11*
%TO.P,U4,1*%
%TO.N,/a4*%
X252095000Y86995000D03*
D10*
%TO.P,U4,9*%
%TO.N,IO3*%
X269875000Y94615000D03*
%TO.P,U4,2*%
%TO.N,/a5*%
X254635000Y86995000D03*
%TO.P,U4,10*%
%TO.N,IO2*%
X267335000Y94615000D03*
%TO.P,U4,3*%
%TO.N,/a6*%
X257175000Y86995000D03*
%TO.P,U4,11*%
%TO.N,IO1*%
X264795000Y94615000D03*
%TO.P,U4,4*%
%TO.N,Net-(U3-Pad10)*%
X259715000Y86995000D03*
%TO.P,U4,12*%
%TO.N,N/C*%
X262255000Y94615000D03*
%TO.P,U4,5*%
%TO.N,GND*%
X262255000Y86995000D03*
%TO.P,U4,13*%
%TO.N,N/C*%
X259715000Y94615000D03*
%TO.P,U4,6*%
%TO.N,ROM_CSB*%
X264795000Y86995000D03*
%TO.P,U4,14*%
%TO.N,N/C*%
X257175000Y94615000D03*
%TO.P,U4,7*%
%TO.N,IO4*%
X267335000Y86995000D03*
%TO.P,U4,15*%
%TO.N,N/C*%
X254635000Y94615000D03*
%TO.P,U4,8*%
%TO.N,GND*%
X269875000Y86995000D03*
%TO.P,U4,16*%
%TO.N,VCC*%
X252095000Y94615000D03*
%TD*%
D13*
%TO.P,J4,1*%
%TO.N,VCC*%
X311150000Y99060000D03*
D12*
%TO.P,J4,2*%
%TO.N,GND*%
X313690000Y99060000D03*
%TO.P,J4,3*%
%TO.N,IO4*%
X311150000Y96520000D03*
%TO.P,J4,4*%
%TO.N,RW*%
X313690000Y96520000D03*
%TO.P,J4,5*%
%TO.N,RES*%
X311150000Y93980000D03*
%TO.P,J4,6*%
%TO.N,/d0*%
X313690000Y93980000D03*
%TO.P,J4,7*%
%TO.N,PHI2*%
X311150000Y91440000D03*
%TO.P,J4,8*%
%TO.N,/d1*%
X313690000Y91440000D03*
%TO.P,J4,9*%
%TO.N,IRQ4*%
X311150000Y88900000D03*
%TO.P,J4,10*%
%TO.N,/d2*%
X313690000Y88900000D03*
%TO.P,J4,11*%
%TO.N,N/C*%
X311150000Y86360000D03*
%TO.P,J4,12*%
%TO.N,/d3*%
X313690000Y86360000D03*
%TO.P,J4,13*%
%TO.N,/a0*%
X311150000Y83820000D03*
%TO.P,J4,14*%
%TO.N,/d4*%
X313690000Y83820000D03*
%TO.P,J4,15*%
%TO.N,/a1*%
X311150000Y81280000D03*
%TO.P,J4,16*%
%TO.N,/d5*%
X313690000Y81280000D03*
%TO.P,J4,17*%
%TO.N,/a2*%
X311150000Y78740000D03*
%TO.P,J4,18*%
%TO.N,/d6*%
X313690000Y78740000D03*
%TO.P,J4,19*%
%TO.N,/a3*%
X311150000Y76200000D03*
%TO.P,J4,20*%
%TO.N,/d7*%
X313690000Y76200000D03*
%TD*%
D13*
%TO.P,J8,1*%
%TO.N,N/C*%
X186055000Y92075000D03*
D12*
%TO.P,J8,2*%
%TO.N,Net-(J8-Pad2)*%
X188595000Y92075000D03*
%TO.P,J8,3*%
%TO.N,CLK*%
X191135000Y92075000D03*
%TD*%
D11*
%TO.P,X1,1*%
%TO.N,N/C*%
X177165000Y79375000D03*
D14*
%TO.P,X1,14*%
%TO.N,VCC*%
X177165000Y86995000D03*
%TO.P,X1,8*%
%TO.N,Net-(J8-Pad2)*%
X192405000Y86995000D03*
%TO.P,X1,7*%
%TO.N,GND*%
X192405000Y79375000D03*
%TD*%
D20*
%TO.N,RES*%
X281417154Y79262846D03*
%TO.N,IRQ*%
X240030000Y90170000D03*
X267335000Y84455000D03*
D21*
%TO.N,NMI*%
X228600000Y76708000D03*
D20*
%TO.N,/a12*%
X214630000Y118200000D03*
D21*
X223266000Y102362000D03*
D20*
%TO.N,/a13*%
X222250000Y117565000D03*
D21*
X221742000Y103632000D03*
D20*
%TO.N,/a14*%
X206633641Y116855339D03*
%TO.N,/a8*%
X207645000Y116750000D03*
%TO.N,/a9*%
X208403836Y116098716D03*
%TO.N,/a10*%
X209005000Y115025000D03*
%TO.N,/a11*%
X210185000Y115570000D03*
%TO.N,GND*%
X262255000Y89535000D03*
X233680000Y81280000D03*
X241300000Y84455000D03*
%TO.N,ROM_OEB*%
X265430000Y85090000D03*
X271145000Y113030000D03*
%TO.N,ROM_WEB*%
X255905000Y83820000D03*
%TO.N,RDY*%
X225425000Y74295000D03*
%TO.N,PHI1*%
X215900000Y105590001D03*
%TD*%
D22*
%TO.N,RES*%
X158790000Y82550000D02*
X157480000Y81240000D01*
X161290000Y82550000D02*
X158790000Y82550000D01*
X168275000Y83035000D02*
X167790000Y82550000D01*
X168275000Y86360000D02*
X168275000Y83035000D01*
X157480000Y83860000D02*
X158790000Y82550000D01*
X157480000Y118745000D02*
X157480000Y83860000D01*
X160020000Y121285000D02*
X157480000Y118745000D01*
X281417154Y77748152D02*
X281417154Y79262846D01*
X278694001Y75024999D02*
X281417154Y77748152D01*
X244545999Y75024999D02*
X278694001Y75024999D01*
X243934999Y75635999D02*
X244545999Y75024999D01*
X243934999Y76738591D02*
X243934999Y75635999D01*
X243294992Y77378598D02*
X243934999Y76738591D01*
X236311402Y77378598D02*
X243294992Y77378598D01*
X234950000Y78740000D02*
X236311402Y77378598D01*
%TO.N,CLK*%
X234950000Y76200000D02*
X233774999Y75024999D01*
D23*
X200354799Y93125001D02*
X192185001Y93125001D01*
X192185001Y93125001D02*
X191135000Y92075000D01*
X200400001Y93079799D02*
X200354799Y93125001D01*
X200400001Y85095999D02*
X200400001Y93079799D01*
X210471001Y75024999D02*
X200400001Y85095999D01*
X233774999Y75024999D02*
X210471001Y75024999D01*
D22*
%TO.N,IRQ*%
X273050000Y92075000D02*
X273050000Y82550000D01*
X273050000Y82550000D02*
X270510000Y82550000D01*
X183209990Y104445010D02*
X184785000Y102870000D01*
X169239990Y104445010D02*
X183209990Y104445010D01*
X167640000Y106045000D02*
X169239990Y104445010D01*
X269240000Y82550000D02*
X270510000Y82550000D01*
X267335000Y84455000D02*
X269240000Y82550000D01*
%TO.N,IO1*%
X265669998Y94615000D02*
X264795000Y94615000D01*
X267574998Y96520000D02*
X265669998Y94615000D01*
X284480000Y96520000D02*
X267574998Y96520000D01*
%TO.N,RW*%
X222354999Y120119999D02*
X223520000Y121285000D01*
X213888591Y120119999D02*
X222354999Y120119999D01*
X213888591Y120119999D02*
X211598589Y122410001D01*
X211598589Y122410001D02*
X207791409Y122410001D01*
X175895000Y121920000D02*
X175260000Y121285000D01*
X176385001Y122410001D02*
X175260000Y121285000D01*
X211598589Y122410001D02*
X176385001Y122410001D01*
X189959999Y104919999D02*
X189085001Y105794997D01*
X189085001Y107459999D02*
X175260000Y121285000D01*
X194165001Y104919999D02*
X189959999Y104919999D01*
X189085001Y105794997D02*
X189085001Y107459999D01*
X196215000Y102870000D02*
X194165001Y104919999D01*
%TO.N,NMI*%
X186545001Y104919999D02*
X188595000Y102870000D01*
X173845001Y104919999D02*
X186545001Y104919999D01*
X172720000Y106045000D02*
X173845001Y104919999D01*
%TO.N,IO3*%
X298450000Y92710000D02*
X302260000Y96520000D01*
X283304999Y93415999D02*
X284010998Y92710000D01*
X284010998Y92710000D02*
X298450000Y92710000D01*
X282105998Y94615000D02*
X269875000Y94615000D01*
X284010998Y92710000D02*
X282105998Y94615000D01*
%TO.N,IO2*%
X283915999Y95344999D02*
X292194999Y95344999D01*
X292194999Y95344999D02*
X293370000Y96520000D01*
X270415001Y95740001D02*
X268460001Y95740001D01*
X268460001Y95740001D02*
X267335000Y94615000D01*
X270810003Y95344999D02*
X270415001Y95740001D01*
X283915999Y95344999D02*
X270810003Y95344999D01*
%TO.N,IO4*%
X299345997Y90264999D02*
X301885997Y92804999D01*
X283915999Y90264999D02*
X299345997Y90264999D01*
X301885997Y92804999D02*
X307434999Y92804999D01*
X307434999Y92804999D02*
X311150000Y96520000D01*
X283915999Y90264999D02*
X283304999Y90875999D01*
X267335000Y88025002D02*
X267335000Y86995000D01*
X281730001Y93200001D02*
X272509999Y93200001D01*
X272509999Y93200001D02*
X267335000Y88025002D01*
X281795001Y93135001D02*
X281730001Y93200001D01*
X281795001Y92385997D02*
X281795001Y93135001D01*
X283915999Y90264999D02*
X281795001Y92385997D01*
%TO.N,/a12*%
X214630000Y118200000D02*
X215900705Y116929295D01*
X215900705Y113664295D02*
X223520000Y106045000D01*
X215900705Y116929295D02*
X215900705Y113664295D01*
X223450685Y106045000D02*
X223520000Y106045000D01*
%TO.N,/a13*%
X222250000Y117475000D02*
X222250000Y117565000D01*
D23*
X224530001Y115284999D02*
X222250000Y117565000D01*
X224530001Y105560199D02*
X224530001Y115284999D01*
X222601802Y103632000D02*
X224530001Y105560199D01*
X221742000Y103632000D02*
X222601802Y103632000D01*
D22*
%TO.N,/a14*%
X207253303Y117475001D02*
X206633641Y116855339D01*
X209549999Y117475001D02*
X207253303Y117475001D01*
X220980000Y106045000D02*
X209549999Y117475001D01*
%TO.N,/a15*%
X224060001Y93200001D02*
X226695000Y90565002D01*
X226695000Y90565002D02*
X226695000Y86995000D01*
D23*
X222509999Y95059801D02*
X222509999Y94090199D01*
X224810011Y115907791D02*
X224810011Y97359813D01*
X222542801Y118175001D02*
X224810011Y115907791D01*
X221957199Y118175001D02*
X222542801Y118175001D01*
X223400197Y93200001D02*
X224060001Y93200001D01*
X221054397Y117272199D02*
X221957199Y118175001D01*
X224810011Y97359813D02*
X222509999Y95059801D01*
X216460603Y117272199D02*
X221054397Y117272199D01*
X214522813Y119209989D02*
X216460603Y117272199D01*
X222509999Y94090199D02*
X223400197Y93200001D01*
X200195011Y119209989D02*
X214522813Y119209989D01*
X198120000Y121285000D02*
X200195011Y119209989D01*
D22*
%TO.N,/a8*%
X200660000Y109765000D02*
X200660000Y106045000D01*
X207645000Y116750000D02*
X200660000Y109765000D01*
%TO.N,/a9*%
X203200000Y110894880D02*
X203200000Y106045000D01*
X208403836Y116098716D02*
X203200000Y110894880D01*
%TO.N,/a10*%
X205740000Y112627113D02*
X205740000Y106045000D01*
X208137887Y115025000D02*
X205740000Y112627113D01*
X209005000Y115025000D02*
X208137887Y115025000D01*
%TO.N,/a11*%
X210185000Y115570000D02*
X210185000Y114935000D01*
X208280000Y113030000D02*
X208280000Y106045000D01*
X210185000Y114935000D02*
X208280000Y113030000D01*
%TO.N,Net-(D1-Pad2)*%
X163830000Y100330000D02*
X160020000Y100330000D01*
%TO.N,Net-(J8-Pad2)*%
X188595000Y90805000D02*
X192405000Y86995000D01*
X188595000Y92075000D02*
X188595000Y90805000D01*
%TO.N,GND*%
X160600000Y78740000D02*
X161290000Y78050000D01*
X157480000Y78740000D02*
X160600000Y78740000D01*
X164370000Y97790000D02*
X167640000Y94520000D01*
X160020000Y97790000D02*
X164370000Y97790000D01*
X165100000Y81860000D02*
X161290000Y78050000D01*
X241300000Y118745000D02*
X254000000Y106045000D01*
X217805000Y118745000D02*
X241300000Y118745000D01*
X210020001Y119544999D02*
X208280000Y121285000D01*
X217005001Y119544999D02*
X210020001Y119544999D01*
X217805000Y118745000D02*
X217005001Y119544999D01*
X165100000Y91980000D02*
X167640000Y94520000D01*
X165100000Y81860000D02*
X165100000Y91980000D01*
X165100000Y80740000D02*
X167790000Y78050000D01*
X165100000Y81860000D02*
X165100000Y80740000D01*
X309245000Y103505000D02*
X313690000Y99060000D01*
X309245000Y103505000D02*
X308610000Y104140000D01*
X308610000Y106045000D02*
X308610000Y104140000D01*
X254000000Y107315000D02*
X261620000Y114935000D01*
X254000000Y106045000D02*
X254000000Y107315000D01*
X261620000Y116245000D02*
X262890000Y117515000D01*
X261620000Y114935000D02*
X261620000Y116245000D01*
X222885000Y92075000D02*
X223520000Y92075000D01*
X192405000Y79375000D02*
X198080000Y79375000D01*
X198264999Y81810001D02*
X198264999Y90989999D01*
X198264999Y90989999D02*
X199390000Y92115000D01*
X232410000Y76200000D02*
X223520000Y85090000D01*
X233585001Y81185001D02*
X233680000Y81280000D01*
X233585001Y77375001D02*
X233585001Y81185001D01*
X232410000Y76200000D02*
X233585001Y77375001D01*
X241935000Y85090000D02*
X241935000Y86995000D01*
X241300000Y84455000D02*
X241935000Y85090000D01*
X250969999Y103014999D02*
X254000000Y106045000D01*
X250969999Y94164999D02*
X250969999Y103014999D01*
X248920000Y92115000D02*
X250969999Y94164999D01*
D23*
X220218000Y86868000D02*
X223520000Y86868000D01*
D22*
X223520000Y86868000D02*
X223520000Y92075000D01*
X223520000Y85090000D02*
X223520000Y86868000D01*
D23*
X198080000Y81625002D02*
X198264999Y81810001D01*
X198080000Y79375000D02*
X198080000Y81625002D01*
D22*
%TO.N,VCC*%
X168910000Y97790000D02*
X167640000Y96520000D01*
X171450000Y97790000D02*
X168910000Y97790000D01*
X264160000Y121285000D02*
X262890000Y120015000D01*
X275590000Y121285000D02*
X264160000Y121285000D01*
X260350000Y122555000D02*
X262890000Y120015000D01*
X222250000Y122555000D02*
X260350000Y122555000D01*
X222250000Y122555000D02*
X220980000Y121285000D01*
X217845000Y121285000D02*
X217805000Y121245000D01*
X220980000Y121285000D02*
X217845000Y121285000D01*
X171450000Y97790000D02*
X171450000Y100330000D01*
X282164990Y101375010D02*
X284480000Y99060000D01*
X262890000Y120015000D02*
X257810000Y114935000D01*
X276915010Y122610010D02*
X275590000Y121285000D01*
X278562857Y122610010D02*
X276915010Y122610010D01*
X279175010Y121997857D02*
X278562857Y122610010D01*
X279175010Y119347837D02*
X279175010Y121997857D01*
X282164990Y116357857D02*
X279175010Y119347837D01*
X282164990Y101375010D02*
X282164990Y116357857D01*
X226655000Y94575000D02*
X226695000Y94615000D01*
X223520000Y94575000D02*
X226655000Y94575000D01*
X228109999Y83040001D02*
X232410000Y78740000D01*
X228109999Y93200001D02*
X228109999Y83040001D01*
X226695000Y94615000D02*
X228109999Y93200001D01*
X196850000Y94615000D02*
X196215000Y95250000D01*
X199390000Y94615000D02*
X196850000Y94615000D01*
X196215000Y95250000D02*
X192405000Y95250000D01*
X192405000Y95250000D02*
X188595000Y95250000D01*
X188595000Y95250000D02*
X184785000Y95250000D01*
X184785000Y95250000D02*
X180975000Y95250000D01*
X173990000Y95250000D02*
X171450000Y97790000D01*
X173990000Y90170000D02*
X177165000Y86995000D01*
X173990000Y95250000D02*
X173990000Y90170000D01*
X177800000Y102870000D02*
X177800000Y95250000D01*
X177800000Y95250000D02*
X173990000Y95250000D01*
X180975000Y95250000D02*
X177800000Y95250000D01*
X247794999Y95740001D02*
X248920000Y94615000D01*
X227820001Y95740001D02*
X247794999Y95740001D01*
X226695000Y94615000D02*
X227820001Y95740001D01*
D23*
X202311000Y94615000D02*
X202438000Y94488000D01*
X199390000Y94615000D02*
X202311000Y94615000D01*
X202438000Y94488000D02*
X204978000Y94488000D01*
X204978000Y94488000D02*
X207518000Y94488000D01*
X214127999Y93477999D02*
X215138000Y94488000D01*
X208528001Y93477999D02*
X214127999Y93477999D01*
X207518000Y94488000D02*
X208528001Y93477999D01*
X215138000Y94488000D02*
X217678000Y94488000D01*
D22*
%TO.N,IRQ1*%
X281305000Y92075000D02*
X280670000Y92075000D01*
X284480000Y88900000D02*
X281305000Y92075000D01*
%TO.N,IRQ2*%
X281845001Y87724999D02*
X280670000Y88900000D01*
X292194999Y87724999D02*
X281845001Y87724999D01*
X293370000Y88900000D02*
X292194999Y87724999D01*
%TO.N,IRQ3*%
X281210001Y85184999D02*
X280670000Y85725000D01*
X298544999Y85184999D02*
X281210001Y85184999D01*
X302260000Y88900000D02*
X298544999Y85184999D01*
%TO.N,IRQ4*%
X296546410Y82550000D02*
X280670000Y82550000D01*
X301721409Y87724999D02*
X296546410Y82550000D01*
X309974999Y87724999D02*
X301721409Y87724999D01*
X311150000Y88900000D02*
X309974999Y87724999D01*
%TO.N,IRQ5*%
X259880998Y82550000D02*
X262890000Y82550000D01*
X256634999Y79304001D02*
X259880998Y82550000D01*
X256634999Y77564999D02*
X256634999Y79304001D01*
X254094999Y77564999D02*
X256634999Y77564999D01*
X252730000Y76200000D02*
X254094999Y77564999D01*
%TO.N,ROM_OEB*%
X263380001Y105554999D02*
X261620000Y107315000D01*
X264864315Y85090000D02*
X263380001Y86574314D01*
X263380001Y86574314D02*
X263380001Y105554999D01*
X265430000Y85090000D02*
X264864315Y85090000D01*
X265430000Y107315000D02*
X271145000Y113030000D01*
X261620000Y107315000D02*
X265430000Y107315000D01*
%TO.N,ROM_WEB*%
X258300001Y106824999D02*
X257810000Y107315000D01*
X258300001Y86215001D02*
X258300001Y106824999D01*
X255905000Y83820000D02*
X258300001Y86215001D01*
X265285001Y108440001D02*
X278130000Y121285000D01*
X258935001Y108440001D02*
X265285001Y108440001D01*
X257810000Y107315000D02*
X258935001Y108440001D01*
%TO.N,RDY*%
X179849999Y103995001D02*
X180975000Y102870000D01*
X164609999Y103995001D02*
X179849999Y103995001D01*
X162560000Y106045000D02*
X164609999Y103995001D01*
%TO.N,BE*%
X235440001Y90949999D02*
X231775000Y94615000D01*
X235440001Y86744997D02*
X235440001Y90949999D01*
X237179003Y85869999D02*
X236314999Y85869999D01*
X243745001Y79304001D02*
X237179003Y85869999D01*
X243745001Y77564999D02*
X243745001Y79304001D01*
X236314999Y85869999D02*
X235440001Y86744997D01*
X245110000Y76200000D02*
X243745001Y77564999D01*
X186545001Y106585001D02*
X177560002Y115570000D01*
X188106409Y103995001D02*
X186545001Y105556409D01*
X186545001Y105556409D02*
X186545001Y106585001D01*
X191279999Y103995001D02*
X188106409Y103995001D01*
X192405000Y102870000D02*
X191279999Y103995001D01*
X175895000Y115570000D02*
X170180000Y121285000D01*
X177560002Y115570000D02*
X175895000Y115570000D01*
%TO.N,PHI1*%
X233189999Y90660001D02*
X229235000Y94615000D01*
X233189999Y83040001D02*
X233189999Y90660001D01*
X237490000Y78740000D02*
X233189999Y83040001D01*
%TD*%
M02*
