%TF.GenerationSoftware,KiCad,Pcbnew,(5.1.9-0-10_14)*%
%TF.CreationDate,2021-04-28T18:12:29+02:00*%
%TF.ProjectId,mainboard,6d61696e-626f-4617-9264-2e6b69636164,rev?*%
%TF.SameCoordinates,Original*%
%TF.FileFunction,Legend,Top*%
%TF.FilePolarity,Positive*%
%FSLAX46Y46*%
G04 Gerber Fmt 4.6, Leading zero omitted, Abs format (unit mm)*
G04 Created by KiCad (PCBNEW (5.1.9-0-10_14)) date 2021-04-28 18:12:29*
%MOMM*%
%LPD*%
G01*
G04 APERTURE LIST*
%ADD10C,0.150000*%
%ADD11C,0.120000*%
%ADD12O,1.600000X1.600000*%
%ADD13R,1.600000X1.600000*%
%ADD14O,1.700000X1.700000*%
%ADD15R,1.700000X1.700000*%
%ADD16C,1.600000*%
%ADD17O,1.440000X2.000000*%
%ADD18R,1.440000X2.000000*%
%ADD19C,1.200000*%
%ADD20R,1.200000X1.200000*%
%ADD21C,2.000000*%
G04 APERTURE END LIST*
D10*
X203710166Y83032619D02*
X203519690Y83032619D01*
X203424452Y82985000D01*
X203376833Y82937380D01*
X203281595Y82794523D01*
X203233976Y82604047D01*
X203233976Y82223095D01*
X203281595Y82127857D01*
X203329214Y82080238D01*
X203424452Y82032619D01*
X203614928Y82032619D01*
X203710166Y82080238D01*
X203757785Y82127857D01*
X203805404Y82223095D01*
X203805404Y82461190D01*
X203757785Y82556428D01*
X203710166Y82604047D01*
X203614928Y82651666D01*
X203424452Y82651666D01*
X203329214Y82604047D01*
X203281595Y82556428D01*
X203233976Y82461190D01*
X204710166Y83032619D02*
X204233976Y83032619D01*
X204186357Y82556428D01*
X204233976Y82604047D01*
X204329214Y82651666D01*
X204567309Y82651666D01*
X204662547Y82604047D01*
X204710166Y82556428D01*
X204757785Y82461190D01*
X204757785Y82223095D01*
X204710166Y82127857D01*
X204662547Y82080238D01*
X204567309Y82032619D01*
X204329214Y82032619D01*
X204233976Y82080238D01*
X204186357Y82127857D01*
X205376833Y83032619D02*
X205472071Y83032619D01*
X205567309Y82985000D01*
X205614928Y82937380D01*
X205662547Y82842142D01*
X205710166Y82651666D01*
X205710166Y82413571D01*
X205662547Y82223095D01*
X205614928Y82127857D01*
X205567309Y82080238D01*
X205472071Y82032619D01*
X205376833Y82032619D01*
X205281595Y82080238D01*
X205233976Y82127857D01*
X205186357Y82223095D01*
X205138738Y82413571D01*
X205138738Y82651666D01*
X205186357Y82842142D01*
X205233976Y82937380D01*
X205281595Y82985000D01*
X205376833Y83032619D01*
X206091119Y82937380D02*
X206138738Y82985000D01*
X206233976Y83032619D01*
X206472071Y83032619D01*
X206567309Y82985000D01*
X206614928Y82937380D01*
X206662547Y82842142D01*
X206662547Y82746904D01*
X206614928Y82604047D01*
X206043500Y82032619D01*
X206662547Y82032619D01*
X207853023Y82032619D02*
X207853023Y82699285D01*
X207853023Y82604047D02*
X207900642Y82651666D01*
X207995880Y82699285D01*
X208138738Y82699285D01*
X208233976Y82651666D01*
X208281595Y82556428D01*
X208281595Y82032619D01*
X208281595Y82556428D02*
X208329214Y82651666D01*
X208424452Y82699285D01*
X208567309Y82699285D01*
X208662547Y82651666D01*
X208710166Y82556428D01*
X208710166Y82032619D01*
X209329214Y82032619D02*
X209233976Y82080238D01*
X209186357Y82127857D01*
X209138738Y82223095D01*
X209138738Y82508809D01*
X209186357Y82604047D01*
X209233976Y82651666D01*
X209329214Y82699285D01*
X209472071Y82699285D01*
X209567309Y82651666D01*
X209614928Y82604047D01*
X209662547Y82508809D01*
X209662547Y82223095D01*
X209614928Y82127857D01*
X209567309Y82080238D01*
X209472071Y82032619D01*
X209329214Y82032619D01*
X209948261Y82699285D02*
X210329214Y82699285D01*
X210091119Y83032619D02*
X210091119Y82175476D01*
X210138738Y82080238D01*
X210233976Y82032619D01*
X210329214Y82032619D01*
X210662547Y82032619D02*
X210662547Y83032619D01*
X211091119Y82032619D02*
X211091119Y82556428D01*
X211043500Y82651666D01*
X210948261Y82699285D01*
X210805404Y82699285D01*
X210710166Y82651666D01*
X210662547Y82604047D01*
X211948261Y82080238D02*
X211853023Y82032619D01*
X211662547Y82032619D01*
X211567309Y82080238D01*
X211519690Y82175476D01*
X211519690Y82556428D01*
X211567309Y82651666D01*
X211662547Y82699285D01*
X211853023Y82699285D01*
X211948261Y82651666D01*
X211995880Y82556428D01*
X211995880Y82461190D01*
X211519690Y82365952D01*
X212424452Y82032619D02*
X212424452Y82699285D01*
X212424452Y82508809D02*
X212472071Y82604047D01*
X212519690Y82651666D01*
X212614928Y82699285D01*
X212710166Y82699285D01*
X213043500Y82032619D02*
X213043500Y83032619D01*
X213043500Y82651666D02*
X213138738Y82699285D01*
X213329214Y82699285D01*
X213424452Y82651666D01*
X213472071Y82604047D01*
X213519690Y82508809D01*
X213519690Y82223095D01*
X213472071Y82127857D01*
X213424452Y82080238D01*
X213329214Y82032619D01*
X213138738Y82032619D01*
X213043500Y82080238D01*
X214091119Y82032619D02*
X213995880Y82080238D01*
X213948261Y82127857D01*
X213900642Y82223095D01*
X213900642Y82508809D01*
X213948261Y82604047D01*
X213995880Y82651666D01*
X214091119Y82699285D01*
X214233976Y82699285D01*
X214329214Y82651666D01*
X214376833Y82604047D01*
X214424452Y82508809D01*
X214424452Y82223095D01*
X214376833Y82127857D01*
X214329214Y82080238D01*
X214233976Y82032619D01*
X214091119Y82032619D01*
X215281595Y82032619D02*
X215281595Y82556428D01*
X215233976Y82651666D01*
X215138738Y82699285D01*
X214948261Y82699285D01*
X214853023Y82651666D01*
X215281595Y82080238D02*
X215186357Y82032619D01*
X214948261Y82032619D01*
X214853023Y82080238D01*
X214805404Y82175476D01*
X214805404Y82270714D01*
X214853023Y82365952D01*
X214948261Y82413571D01*
X215186357Y82413571D01*
X215281595Y82461190D01*
X215757785Y82032619D02*
X215757785Y82699285D01*
X215757785Y82508809D02*
X215805404Y82604047D01*
X215853023Y82651666D01*
X215948261Y82699285D01*
X216043500Y82699285D01*
X216805404Y82032619D02*
X216805404Y83032619D01*
X216805404Y82080238D02*
X216710166Y82032619D01*
X216519690Y82032619D01*
X216424452Y82080238D01*
X216376833Y82127857D01*
X216329214Y82223095D01*
X216329214Y82508809D01*
X216376833Y82604047D01*
X216424452Y82651666D01*
X216519690Y82699285D01*
X216710166Y82699285D01*
X216805404Y82651666D01*
X217948261Y82699285D02*
X218186357Y82032619D01*
X218424452Y82699285D01*
X218995880Y83032619D02*
X219091119Y83032619D01*
X219186357Y82985000D01*
X219233976Y82937380D01*
X219281595Y82842142D01*
X219329214Y82651666D01*
X219329214Y82413571D01*
X219281595Y82223095D01*
X219233976Y82127857D01*
X219186357Y82080238D01*
X219091119Y82032619D01*
X218995880Y82032619D01*
X218900642Y82080238D01*
X218853023Y82127857D01*
X218805404Y82223095D01*
X218757785Y82413571D01*
X218757785Y82651666D01*
X218805404Y82842142D01*
X218853023Y82937380D01*
X218900642Y82985000D01*
X218995880Y83032619D01*
X220281595Y82032619D02*
X219710166Y82032619D01*
X219995880Y82032619D02*
X219995880Y83032619D01*
X219900642Y82889761D01*
X219805404Y82794523D01*
X219710166Y82746904D01*
X203233976Y81287380D02*
X203281595Y81335000D01*
X203376833Y81382619D01*
X203614928Y81382619D01*
X203710166Y81335000D01*
X203757785Y81287380D01*
X203805404Y81192142D01*
X203805404Y81096904D01*
X203757785Y80954047D01*
X203186357Y80382619D01*
X203805404Y80382619D01*
X204424452Y81382619D02*
X204519690Y81382619D01*
X204614928Y81335000D01*
X204662547Y81287380D01*
X204710166Y81192142D01*
X204757785Y81001666D01*
X204757785Y80763571D01*
X204710166Y80573095D01*
X204662547Y80477857D01*
X204614928Y80430238D01*
X204519690Y80382619D01*
X204424452Y80382619D01*
X204329214Y80430238D01*
X204281595Y80477857D01*
X204233976Y80573095D01*
X204186357Y80763571D01*
X204186357Y81001666D01*
X204233976Y81192142D01*
X204281595Y81287380D01*
X204329214Y81335000D01*
X204424452Y81382619D01*
X205138738Y81287380D02*
X205186357Y81335000D01*
X205281595Y81382619D01*
X205519690Y81382619D01*
X205614928Y81335000D01*
X205662547Y81287380D01*
X205710166Y81192142D01*
X205710166Y81096904D01*
X205662547Y80954047D01*
X205091119Y80382619D01*
X205710166Y80382619D01*
X206662547Y80382619D02*
X206091119Y80382619D01*
X206376833Y80382619D02*
X206376833Y81382619D01*
X206281595Y81239761D01*
X206186357Y81144523D01*
X206091119Y81096904D01*
X207091119Y80763571D02*
X207853023Y80763571D01*
X208519690Y81382619D02*
X208614928Y81382619D01*
X208710166Y81335000D01*
X208757785Y81287380D01*
X208805404Y81192142D01*
X208853023Y81001666D01*
X208853023Y80763571D01*
X208805404Y80573095D01*
X208757785Y80477857D01*
X208710166Y80430238D01*
X208614928Y80382619D01*
X208519690Y80382619D01*
X208424452Y80430238D01*
X208376833Y80477857D01*
X208329214Y80573095D01*
X208281595Y80763571D01*
X208281595Y81001666D01*
X208329214Y81192142D01*
X208376833Y81287380D01*
X208424452Y81335000D01*
X208519690Y81382619D01*
X209710166Y81049285D02*
X209710166Y80382619D01*
X209472071Y81430238D02*
X209233976Y80715952D01*
X209853023Y80715952D01*
X210233976Y80763571D02*
X210995880Y80763571D01*
X211424452Y81287380D02*
X211472071Y81335000D01*
X211567309Y81382619D01*
X211805404Y81382619D01*
X211900642Y81335000D01*
X211948261Y81287380D01*
X211995880Y81192142D01*
X211995880Y81096904D01*
X211948261Y80954047D01*
X211376833Y80382619D01*
X211995880Y80382619D01*
X212567309Y80954047D02*
X212472071Y81001666D01*
X212424452Y81049285D01*
X212376833Y81144523D01*
X212376833Y81192142D01*
X212424452Y81287380D01*
X212472071Y81335000D01*
X212567309Y81382619D01*
X212757785Y81382619D01*
X212853023Y81335000D01*
X212900642Y81287380D01*
X212948261Y81192142D01*
X212948261Y81144523D01*
X212900642Y81049285D01*
X212853023Y81001666D01*
X212757785Y80954047D01*
X212567309Y80954047D01*
X212472071Y80906428D01*
X212424452Y80858809D01*
X212376833Y80763571D01*
X212376833Y80573095D01*
X212424452Y80477857D01*
X212472071Y80430238D01*
X212567309Y80382619D01*
X212757785Y80382619D01*
X212853023Y80430238D01*
X212900642Y80477857D01*
X212948261Y80573095D01*
X212948261Y80763571D01*
X212900642Y80858809D01*
X212853023Y80906428D01*
X212757785Y80954047D01*
X203233976Y79018333D02*
X203710166Y79018333D01*
X203138738Y78732619D02*
X203472071Y79732619D01*
X203805404Y78732619D01*
X204567309Y78732619D02*
X204567309Y79732619D01*
X204567309Y78780238D02*
X204472071Y78732619D01*
X204281595Y78732619D01*
X204186357Y78780238D01*
X204138738Y78827857D01*
X204091119Y78923095D01*
X204091119Y79208809D01*
X204138738Y79304047D01*
X204186357Y79351666D01*
X204281595Y79399285D01*
X204472071Y79399285D01*
X204567309Y79351666D01*
X205043500Y78732619D02*
X205043500Y79399285D01*
X205043500Y79208809D02*
X205091119Y79304047D01*
X205138738Y79351666D01*
X205233976Y79399285D01*
X205329214Y79399285D01*
X205662547Y78732619D02*
X205662547Y79399285D01*
X205662547Y79732619D02*
X205614928Y79685000D01*
X205662547Y79637380D01*
X205710166Y79685000D01*
X205662547Y79732619D01*
X205662547Y79637380D01*
X206519690Y78780238D02*
X206424452Y78732619D01*
X206233976Y78732619D01*
X206138738Y78780238D01*
X206091119Y78875476D01*
X206091119Y79256428D01*
X206138738Y79351666D01*
X206233976Y79399285D01*
X206424452Y79399285D01*
X206519690Y79351666D01*
X206567309Y79256428D01*
X206567309Y79161190D01*
X206091119Y79065952D01*
X206995880Y79399285D02*
X206995880Y78732619D01*
X206995880Y79304047D02*
X207043500Y79351666D01*
X207138738Y79399285D01*
X207281595Y79399285D01*
X207376833Y79351666D01*
X207424452Y79256428D01*
X207424452Y78732619D01*
X208662547Y78732619D02*
X208662547Y79732619D01*
X209233976Y78732619D02*
X208805404Y79304047D01*
X209233976Y79732619D02*
X208662547Y79161190D01*
X209805404Y78732619D02*
X209710166Y78780238D01*
X209662547Y78827857D01*
X209614928Y78923095D01*
X209614928Y79208809D01*
X209662547Y79304047D01*
X209710166Y79351666D01*
X209805404Y79399285D01*
X209948261Y79399285D01*
X210043500Y79351666D01*
X210091119Y79304047D01*
X210138738Y79208809D01*
X210138738Y78923095D01*
X210091119Y78827857D01*
X210043500Y78780238D01*
X209948261Y78732619D01*
X209805404Y78732619D01*
X210567309Y78732619D02*
X210567309Y79732619D01*
X210995880Y78732619D02*
X210995880Y79256428D01*
X210948261Y79351666D01*
X210853023Y79399285D01*
X210710166Y79399285D01*
X210614928Y79351666D01*
X210567309Y79304047D01*
X211614928Y78732619D02*
X211519690Y78780238D01*
X211472071Y78875476D01*
X211472071Y79732619D01*
X211995880Y78732619D02*
X211995880Y79732619D01*
X211995880Y79351666D02*
X212091119Y79399285D01*
X212281595Y79399285D01*
X212376833Y79351666D01*
X212424452Y79304047D01*
X212472071Y79208809D01*
X212472071Y78923095D01*
X212424452Y78827857D01*
X212376833Y78780238D01*
X212281595Y78732619D01*
X212091119Y78732619D01*
X211995880Y78780238D01*
X213281595Y78780238D02*
X213186357Y78732619D01*
X212995880Y78732619D01*
X212900642Y78780238D01*
X212853023Y78875476D01*
X212853023Y79256428D01*
X212900642Y79351666D01*
X212995880Y79399285D01*
X213186357Y79399285D01*
X213281595Y79351666D01*
X213329214Y79256428D01*
X213329214Y79161190D01*
X212853023Y79065952D01*
X214186357Y78780238D02*
X214091119Y78732619D01*
X213900642Y78732619D01*
X213805404Y78780238D01*
X213757785Y78827857D01*
X213710166Y78923095D01*
X213710166Y79208809D01*
X213757785Y79304047D01*
X213805404Y79351666D01*
X213900642Y79399285D01*
X214091119Y79399285D01*
X214186357Y79351666D01*
X214614928Y78732619D02*
X214614928Y79732619D01*
X214710166Y79113571D02*
X214995880Y78732619D01*
X214995880Y79399285D02*
X214614928Y79018333D01*
X215805404Y78780238D02*
X215710166Y78732619D01*
X215519690Y78732619D01*
X215424452Y78780238D01*
X215376833Y78875476D01*
X215376833Y79256428D01*
X215424452Y79351666D01*
X215519690Y79399285D01*
X215710166Y79399285D01*
X215805404Y79351666D01*
X215853023Y79256428D01*
X215853023Y79161190D01*
X215376833Y79065952D01*
X216281595Y78732619D02*
X216281595Y79399285D01*
X216281595Y79208809D02*
X216329214Y79304047D01*
X216376833Y79351666D01*
X216472071Y79399285D01*
X216567309Y79399285D01*
X203281595Y77082619D02*
X203281595Y78082619D01*
X203757785Y77749285D02*
X203757785Y77082619D01*
X203757785Y77654047D02*
X203805404Y77701666D01*
X203900642Y77749285D01*
X204043500Y77749285D01*
X204138738Y77701666D01*
X204186357Y77606428D01*
X204186357Y77082619D01*
X204614928Y77130238D02*
X204710166Y77082619D01*
X204900642Y77082619D01*
X204995880Y77130238D01*
X205043500Y77225476D01*
X205043500Y77273095D01*
X204995880Y77368333D01*
X204900642Y77415952D01*
X204757785Y77415952D01*
X204662547Y77463571D01*
X204614928Y77558809D01*
X204614928Y77606428D01*
X204662547Y77701666D01*
X204757785Y77749285D01*
X204900642Y77749285D01*
X204995880Y77701666D01*
X205472071Y77749285D02*
X205472071Y76749285D01*
X205472071Y77701666D02*
X205567309Y77749285D01*
X205757785Y77749285D01*
X205853023Y77701666D01*
X205900642Y77654047D01*
X205948261Y77558809D01*
X205948261Y77273095D01*
X205900642Y77177857D01*
X205853023Y77130238D01*
X205757785Y77082619D01*
X205567309Y77082619D01*
X205472071Y77130238D01*
X206376833Y77082619D02*
X206376833Y77749285D01*
X206376833Y78082619D02*
X206329214Y78035000D01*
X206376833Y77987380D01*
X206424452Y78035000D01*
X206376833Y78082619D01*
X206376833Y77987380D01*
X206853023Y77082619D02*
X206853023Y77749285D01*
X206853023Y77558809D02*
X206900642Y77654047D01*
X206948261Y77701666D01*
X207043500Y77749285D01*
X207138738Y77749285D01*
X207853023Y77130238D02*
X207757785Y77082619D01*
X207567309Y77082619D01*
X207472071Y77130238D01*
X207424452Y77225476D01*
X207424452Y77606428D01*
X207472071Y77701666D01*
X207567309Y77749285D01*
X207757785Y77749285D01*
X207853023Y77701666D01*
X207900642Y77606428D01*
X207900642Y77511190D01*
X207424452Y77415952D01*
X208757785Y77082619D02*
X208757785Y78082619D01*
X208757785Y77130238D02*
X208662547Y77082619D01*
X208472071Y77082619D01*
X208376833Y77130238D01*
X208329214Y77177857D01*
X208281595Y77273095D01*
X208281595Y77558809D01*
X208329214Y77654047D01*
X208376833Y77701666D01*
X208472071Y77749285D01*
X208662547Y77749285D01*
X208757785Y77701666D01*
X209995880Y77082619D02*
X209995880Y78082619D01*
X209995880Y77701666D02*
X210091119Y77749285D01*
X210281595Y77749285D01*
X210376833Y77701666D01*
X210424452Y77654047D01*
X210472071Y77558809D01*
X210472071Y77273095D01*
X210424452Y77177857D01*
X210376833Y77130238D01*
X210281595Y77082619D01*
X210091119Y77082619D01*
X209995880Y77130238D01*
X210805404Y77749285D02*
X211043500Y77082619D01*
X211281595Y77749285D02*
X211043500Y77082619D01*
X210948261Y76844523D01*
X210900642Y76796904D01*
X210805404Y76749285D01*
X212757785Y77606428D02*
X212900642Y77558809D01*
X212948261Y77511190D01*
X212995880Y77415952D01*
X212995880Y77273095D01*
X212948261Y77177857D01*
X212900642Y77130238D01*
X212805404Y77082619D01*
X212424452Y77082619D01*
X212424452Y78082619D01*
X212757785Y78082619D01*
X212853023Y78035000D01*
X212900642Y77987380D01*
X212948261Y77892142D01*
X212948261Y77796904D01*
X212900642Y77701666D01*
X212853023Y77654047D01*
X212757785Y77606428D01*
X212424452Y77606428D01*
X213805404Y77130238D02*
X213710166Y77082619D01*
X213519690Y77082619D01*
X213424452Y77130238D01*
X213376833Y77225476D01*
X213376833Y77606428D01*
X213424452Y77701666D01*
X213519690Y77749285D01*
X213710166Y77749285D01*
X213805404Y77701666D01*
X213853023Y77606428D01*
X213853023Y77511190D01*
X213376833Y77415952D01*
X214281595Y77749285D02*
X214281595Y77082619D01*
X214281595Y77654047D02*
X214329214Y77701666D01*
X214424452Y77749285D01*
X214567309Y77749285D01*
X214662547Y77701666D01*
X214710166Y77606428D01*
X214710166Y77082619D01*
X215948261Y77606428D02*
X216281595Y77606428D01*
X216424452Y77082619D02*
X215948261Y77082619D01*
X215948261Y78082619D01*
X216424452Y78082619D01*
X217281595Y77082619D02*
X217281595Y77606428D01*
X217233976Y77701666D01*
X217138738Y77749285D01*
X216948261Y77749285D01*
X216853023Y77701666D01*
X217281595Y77130238D02*
X217186357Y77082619D01*
X216948261Y77082619D01*
X216853023Y77130238D01*
X216805404Y77225476D01*
X216805404Y77320714D01*
X216853023Y77415952D01*
X216948261Y77463571D01*
X217186357Y77463571D01*
X217281595Y77511190D01*
X217614928Y77749285D02*
X217995880Y77749285D01*
X217757785Y78082619D02*
X217757785Y77225476D01*
X217805404Y77130238D01*
X217900642Y77082619D01*
X217995880Y77082619D01*
X218710166Y77130238D02*
X218614928Y77082619D01*
X218424452Y77082619D01*
X218329214Y77130238D01*
X218281595Y77225476D01*
X218281595Y77606428D01*
X218329214Y77701666D01*
X218424452Y77749285D01*
X218614928Y77749285D01*
X218710166Y77701666D01*
X218757785Y77606428D01*
X218757785Y77511190D01*
X218281595Y77415952D01*
X219186357Y77082619D02*
X219186357Y77749285D01*
X219186357Y77558809D02*
X219233976Y77654047D01*
X219281595Y77701666D01*
X219376833Y77749285D01*
X219472071Y77749285D01*
D11*
%TO.C,U5*%
X201108000Y91678000D02*
G75*
G02*
X201108000Y89678000I0J-1000000D01*
G01*
X201108000Y89678000D02*
X201108000Y88028000D01*
X201108000Y88028000D02*
X221548000Y88028000D01*
X221548000Y88028000D02*
X221548000Y93328000D01*
X221548000Y93328000D02*
X201108000Y93328000D01*
X201108000Y93328000D02*
X201108000Y91678000D01*
%TO.C,U3*%
X225365000Y93455000D02*
X225365000Y91805000D01*
X243265000Y93455000D02*
X225365000Y93455000D01*
X243265000Y88155000D02*
X243265000Y93455000D01*
X225365000Y88155000D02*
X243265000Y88155000D01*
X225365000Y89805000D02*
X225365000Y88155000D01*
X225365000Y91805000D02*
G75*
G02*
X225365000Y89805000I0J-1000000D01*
G01*
%TO.C,J1*%
X283150000Y100390000D02*
X284480000Y100390000D01*
X283150000Y99060000D02*
X283150000Y100390000D01*
X285750000Y100390000D02*
X288350000Y100390000D01*
X285750000Y97790000D02*
X285750000Y100390000D01*
X283150000Y97790000D02*
X285750000Y97790000D01*
X288350000Y100390000D02*
X288350000Y74870000D01*
X283150000Y97790000D02*
X283150000Y74870000D01*
X283150000Y74870000D02*
X288350000Y74870000D01*
%TO.C,R5*%
X194845000Y95790000D02*
X195175000Y95790000D01*
X194845000Y102330000D02*
X194845000Y95790000D01*
X195175000Y102330000D02*
X194845000Y102330000D01*
X197585000Y95790000D02*
X197255000Y95790000D01*
X197585000Y102330000D02*
X197585000Y95790000D01*
X197255000Y102330000D02*
X197585000Y102330000D01*
%TO.C,J2*%
X292040000Y100390000D02*
X293370000Y100390000D01*
X292040000Y99060000D02*
X292040000Y100390000D01*
X294640000Y100390000D02*
X297240000Y100390000D01*
X294640000Y97790000D02*
X294640000Y100390000D01*
X292040000Y97790000D02*
X294640000Y97790000D01*
X297240000Y100390000D02*
X297240000Y74870000D01*
X292040000Y97790000D02*
X292040000Y74870000D01*
X292040000Y74870000D02*
X297240000Y74870000D01*
%TO.C,D5*%
X278380000Y81430000D02*
X278380000Y83670000D01*
X278140000Y81430000D02*
X278140000Y83670000D01*
X278260000Y81430000D02*
X278260000Y83670000D01*
X274090000Y82550000D02*
X274740000Y82550000D01*
X279630000Y82550000D02*
X278980000Y82550000D01*
X274740000Y81430000D02*
X278980000Y81430000D01*
X274740000Y83670000D02*
X274740000Y81430000D01*
X278980000Y83670000D02*
X274740000Y83670000D01*
X278980000Y81430000D02*
X278980000Y83670000D01*
%TO.C,R8*%
X256440000Y107855000D02*
X256770000Y107855000D01*
X256440000Y114395000D02*
X256440000Y107855000D01*
X256770000Y114395000D02*
X256440000Y114395000D01*
X259180000Y107855000D02*
X258850000Y107855000D01*
X259180000Y114395000D02*
X259180000Y107855000D01*
X258850000Y114395000D02*
X259180000Y114395000D01*
%TO.C,R7*%
X262990000Y114395000D02*
X262660000Y114395000D01*
X262990000Y107855000D02*
X262990000Y114395000D01*
X262660000Y107855000D02*
X262990000Y107855000D01*
X260250000Y114395000D02*
X260580000Y114395000D01*
X260250000Y107855000D02*
X260250000Y114395000D01*
X260580000Y107855000D02*
X260250000Y107855000D01*
%TO.C,R6*%
X191035000Y95790000D02*
X191365000Y95790000D01*
X191035000Y102330000D02*
X191035000Y95790000D01*
X191365000Y102330000D02*
X191035000Y102330000D01*
X193775000Y95790000D02*
X193445000Y95790000D01*
X193775000Y102330000D02*
X193775000Y95790000D01*
X193445000Y102330000D02*
X193775000Y102330000D01*
%TO.C,R4*%
X183415000Y95790000D02*
X183745000Y95790000D01*
X183415000Y102330000D02*
X183415000Y95790000D01*
X183745000Y102330000D02*
X183415000Y102330000D01*
X186155000Y95790000D02*
X185825000Y95790000D01*
X186155000Y102330000D02*
X186155000Y95790000D01*
X185825000Y102330000D02*
X186155000Y102330000D01*
%TO.C,J6*%
X231080000Y78740000D02*
X231080000Y80070000D01*
X231080000Y80070000D02*
X232410000Y80070000D01*
X231080000Y77470000D02*
X233680000Y77470000D01*
X233680000Y77470000D02*
X233680000Y80070000D01*
X233680000Y80070000D02*
X279460000Y80070000D01*
X279460000Y74870000D02*
X279460000Y80070000D01*
X231080000Y74870000D02*
X279460000Y74870000D01*
X231080000Y74870000D02*
X231080000Y77470000D01*
%TO.C,D6*%
X265180000Y83670000D02*
X265180000Y81430000D01*
X265420000Y83670000D02*
X265420000Y81430000D01*
X265300000Y83670000D02*
X265300000Y81430000D01*
X269470000Y82550000D02*
X268820000Y82550000D01*
X263930000Y82550000D02*
X264580000Y82550000D01*
X268820000Y83670000D02*
X264580000Y83670000D01*
X268820000Y81430000D02*
X268820000Y83670000D01*
X264580000Y81430000D02*
X268820000Y81430000D01*
X264580000Y83670000D02*
X264580000Y81430000D01*
%TO.C,D4*%
X278380000Y84605000D02*
X278380000Y86845000D01*
X278140000Y84605000D02*
X278140000Y86845000D01*
X278260000Y84605000D02*
X278260000Y86845000D01*
X274090000Y85725000D02*
X274740000Y85725000D01*
X279630000Y85725000D02*
X278980000Y85725000D01*
X274740000Y84605000D02*
X278980000Y84605000D01*
X274740000Y86845000D02*
X274740000Y84605000D01*
X278980000Y86845000D02*
X274740000Y86845000D01*
X278980000Y84605000D02*
X278980000Y86845000D01*
%TO.C,D3*%
X278380000Y87780000D02*
X278380000Y90020000D01*
X278140000Y87780000D02*
X278140000Y90020000D01*
X278260000Y87780000D02*
X278260000Y90020000D01*
X274090000Y88900000D02*
X274740000Y88900000D01*
X279630000Y88900000D02*
X278980000Y88900000D01*
X274740000Y87780000D02*
X278980000Y87780000D01*
X274740000Y90020000D02*
X274740000Y87780000D01*
X278980000Y90020000D02*
X274740000Y90020000D01*
X278980000Y87780000D02*
X278980000Y90020000D01*
%TO.C,D2*%
X278380000Y90955000D02*
X278380000Y93195000D01*
X278140000Y90955000D02*
X278140000Y93195000D01*
X278260000Y90955000D02*
X278260000Y93195000D01*
X274090000Y92075000D02*
X274740000Y92075000D01*
X279630000Y92075000D02*
X278980000Y92075000D01*
X274740000Y90955000D02*
X278980000Y90955000D01*
X274740000Y93195000D02*
X274740000Y90955000D01*
X278980000Y93195000D02*
X274740000Y93195000D01*
X278980000Y90955000D02*
X278980000Y93195000D01*
%TO.C,C5*%
X200310000Y93994000D02*
X200310000Y92736000D01*
X198470000Y93994000D02*
X198470000Y92736000D01*
%TO.C,J3*%
X300930000Y100390000D02*
X302260000Y100390000D01*
X300930000Y99060000D02*
X300930000Y100390000D01*
X303530000Y100390000D02*
X306130000Y100390000D01*
X303530000Y97790000D02*
X303530000Y100390000D01*
X300930000Y97790000D02*
X303530000Y97790000D01*
X306130000Y100390000D02*
X306130000Y74870000D01*
X300930000Y97790000D02*
X300930000Y74870000D01*
X300930000Y74870000D02*
X306130000Y74870000D01*
%TO.C,U7*%
X271790000Y102845000D02*
G75*
G03*
X271790000Y102845000I-2550000J0D01*
G01*
X270140000Y102845000D02*
G75*
G03*
X270140000Y102845000I-900000J0D01*
G01*
X271690000Y102115000D02*
X315530000Y102115000D01*
X315530000Y102115000D02*
X315530000Y125215000D01*
X315530000Y125215000D02*
X264930000Y125215000D01*
X264930000Y125215000D02*
X264930000Y102115000D01*
X264930000Y102115000D02*
X266790000Y102115000D01*
X264930000Y104395000D02*
X267190000Y104395000D01*
X276860000Y101095000D02*
X274320000Y101095000D01*
%TO.C,U6*%
X219650000Y112665000D02*
X219650000Y107205000D01*
X219650000Y107205000D02*
X255330000Y107205000D01*
X255330000Y107205000D02*
X255330000Y120125000D01*
X255330000Y120125000D02*
X219650000Y120125000D01*
X219650000Y120125000D02*
X219650000Y114665000D01*
X219650000Y114665000D02*
G75*
G02*
X219650000Y112665000I0J-1000000D01*
G01*
%TO.C,R3*%
X189635000Y102330000D02*
X189965000Y102330000D01*
X189965000Y102330000D02*
X189965000Y95790000D01*
X189965000Y95790000D02*
X189635000Y95790000D01*
X187555000Y102330000D02*
X187225000Y102330000D01*
X187225000Y102330000D02*
X187225000Y95790000D01*
X187225000Y95790000D02*
X187555000Y95790000D01*
%TO.C,J5*%
X158690000Y99060000D02*
X161350000Y99060000D01*
X158690000Y99060000D02*
X158690000Y96460000D01*
X158690000Y96460000D02*
X161350000Y96460000D01*
X161350000Y99060000D02*
X161350000Y96460000D01*
X161350000Y101660000D02*
X161350000Y100330000D01*
X160020000Y101660000D02*
X161350000Y101660000D01*
%TO.C,D1*%
X169760000Y99210000D02*
X169760000Y101450000D01*
X169760000Y101450000D02*
X165520000Y101450000D01*
X165520000Y101450000D02*
X165520000Y99210000D01*
X165520000Y99210000D02*
X169760000Y99210000D01*
X170410000Y100330000D02*
X169760000Y100330000D01*
X164870000Y100330000D02*
X165520000Y100330000D01*
X169040000Y99210000D02*
X169040000Y101450000D01*
X168920000Y99210000D02*
X168920000Y101450000D01*
X169160000Y99210000D02*
X169160000Y101450000D01*
%TO.C,C8*%
X169760000Y95520000D02*
G75*
G03*
X169760000Y95520000I-2120000J0D01*
G01*
X169720000Y95520000D02*
X165560000Y95520000D01*
X169720000Y95480000D02*
X165560000Y95480000D01*
X169719000Y95440000D02*
X165561000Y95440000D01*
X169717000Y95400000D02*
X165563000Y95400000D01*
X169714000Y95360000D02*
X165566000Y95360000D01*
X169711000Y95320000D02*
X168480000Y95320000D01*
X166800000Y95320000D02*
X165569000Y95320000D01*
X169707000Y95280000D02*
X168480000Y95280000D01*
X166800000Y95280000D02*
X165573000Y95280000D01*
X169702000Y95240000D02*
X168480000Y95240000D01*
X166800000Y95240000D02*
X165578000Y95240000D01*
X169696000Y95200000D02*
X168480000Y95200000D01*
X166800000Y95200000D02*
X165584000Y95200000D01*
X169690000Y95160000D02*
X168480000Y95160000D01*
X166800000Y95160000D02*
X165590000Y95160000D01*
X169682000Y95120000D02*
X168480000Y95120000D01*
X166800000Y95120000D02*
X165598000Y95120000D01*
X169674000Y95080000D02*
X168480000Y95080000D01*
X166800000Y95080000D02*
X165606000Y95080000D01*
X169665000Y95040000D02*
X168480000Y95040000D01*
X166800000Y95040000D02*
X165615000Y95040000D01*
X169656000Y95000000D02*
X168480000Y95000000D01*
X166800000Y95000000D02*
X165624000Y95000000D01*
X169645000Y94960000D02*
X168480000Y94960000D01*
X166800000Y94960000D02*
X165635000Y94960000D01*
X169634000Y94920000D02*
X168480000Y94920000D01*
X166800000Y94920000D02*
X165646000Y94920000D01*
X169622000Y94880000D02*
X168480000Y94880000D01*
X166800000Y94880000D02*
X165658000Y94880000D01*
X169608000Y94840000D02*
X168480000Y94840000D01*
X166800000Y94840000D02*
X165672000Y94840000D01*
X169594000Y94799000D02*
X168480000Y94799000D01*
X166800000Y94799000D02*
X165686000Y94799000D01*
X169580000Y94759000D02*
X168480000Y94759000D01*
X166800000Y94759000D02*
X165700000Y94759000D01*
X169564000Y94719000D02*
X168480000Y94719000D01*
X166800000Y94719000D02*
X165716000Y94719000D01*
X169547000Y94679000D02*
X168480000Y94679000D01*
X166800000Y94679000D02*
X165733000Y94679000D01*
X169529000Y94639000D02*
X168480000Y94639000D01*
X166800000Y94639000D02*
X165751000Y94639000D01*
X169510000Y94599000D02*
X168480000Y94599000D01*
X166800000Y94599000D02*
X165770000Y94599000D01*
X169491000Y94559000D02*
X168480000Y94559000D01*
X166800000Y94559000D02*
X165789000Y94559000D01*
X169470000Y94519000D02*
X168480000Y94519000D01*
X166800000Y94519000D02*
X165810000Y94519000D01*
X169448000Y94479000D02*
X168480000Y94479000D01*
X166800000Y94479000D02*
X165832000Y94479000D01*
X169425000Y94439000D02*
X168480000Y94439000D01*
X166800000Y94439000D02*
X165855000Y94439000D01*
X169400000Y94399000D02*
X168480000Y94399000D01*
X166800000Y94399000D02*
X165880000Y94399000D01*
X169375000Y94359000D02*
X168480000Y94359000D01*
X166800000Y94359000D02*
X165905000Y94359000D01*
X169348000Y94319000D02*
X168480000Y94319000D01*
X166800000Y94319000D02*
X165932000Y94319000D01*
X169320000Y94279000D02*
X168480000Y94279000D01*
X166800000Y94279000D02*
X165960000Y94279000D01*
X169290000Y94239000D02*
X168480000Y94239000D01*
X166800000Y94239000D02*
X165990000Y94239000D01*
X169259000Y94199000D02*
X168480000Y94199000D01*
X166800000Y94199000D02*
X166021000Y94199000D01*
X169227000Y94159000D02*
X168480000Y94159000D01*
X166800000Y94159000D02*
X166053000Y94159000D01*
X169192000Y94119000D02*
X168480000Y94119000D01*
X166800000Y94119000D02*
X166088000Y94119000D01*
X169156000Y94079000D02*
X168480000Y94079000D01*
X166800000Y94079000D02*
X166124000Y94079000D01*
X169118000Y94039000D02*
X168480000Y94039000D01*
X166800000Y94039000D02*
X166162000Y94039000D01*
X169078000Y93999000D02*
X168480000Y93999000D01*
X166800000Y93999000D02*
X166202000Y93999000D01*
X169036000Y93959000D02*
X168480000Y93959000D01*
X166800000Y93959000D02*
X166244000Y93959000D01*
X168991000Y93919000D02*
X168480000Y93919000D01*
X166800000Y93919000D02*
X166289000Y93919000D01*
X168944000Y93879000D02*
X168480000Y93879000D01*
X166800000Y93879000D02*
X166336000Y93879000D01*
X168894000Y93839000D02*
X168480000Y93839000D01*
X166800000Y93839000D02*
X166386000Y93839000D01*
X168840000Y93799000D02*
X168480000Y93799000D01*
X166800000Y93799000D02*
X166440000Y93799000D01*
X168782000Y93759000D02*
X168480000Y93759000D01*
X166800000Y93759000D02*
X166498000Y93759000D01*
X168720000Y93719000D02*
X168480000Y93719000D01*
X166800000Y93719000D02*
X166560000Y93719000D01*
X168653000Y93679000D02*
X166627000Y93679000D01*
X168580000Y93639000D02*
X166700000Y93639000D01*
X168499000Y93599000D02*
X166781000Y93599000D01*
X168408000Y93559000D02*
X166872000Y93559000D01*
X168304000Y93519000D02*
X166976000Y93519000D01*
X168177000Y93479000D02*
X167103000Y93479000D01*
X168010000Y93439000D02*
X167270000Y93439000D01*
X168835000Y97789801D02*
X168835000Y97389801D01*
X169035000Y97589801D02*
X168635000Y97589801D01*
%TO.C,C7*%
X249840000Y93994000D02*
X249840000Y92736000D01*
X248000000Y93994000D02*
X248000000Y92736000D01*
%TO.C,C6*%
X224440000Y93954000D02*
X224440000Y92696000D01*
X222600000Y93954000D02*
X222600000Y92696000D01*
%TO.C,C4*%
X263810000Y119394000D02*
X263810000Y118136000D01*
X261970000Y119394000D02*
X261970000Y118136000D01*
%TO.C,C3*%
X218725000Y120624000D02*
X218725000Y119366000D01*
X216885000Y120624000D02*
X216885000Y119366000D01*
%TO.C,C2*%
X177179000Y101950000D02*
X175921000Y101950000D01*
X177179000Y103790000D02*
X175921000Y103790000D01*
%TO.C,C1*%
X158400000Y79361000D02*
X158400000Y80619000D01*
X156560000Y79361000D02*
X156560000Y80619000D01*
%TO.C,R1*%
X179605000Y95790000D02*
X179935000Y95790000D01*
X179605000Y102330000D02*
X179605000Y95790000D01*
X179935000Y102330000D02*
X179605000Y102330000D01*
X182345000Y95790000D02*
X182015000Y95790000D01*
X182345000Y102330000D02*
X182345000Y95790000D01*
X182015000Y102330000D02*
X182345000Y102330000D01*
%TO.C,R2*%
X167735000Y85320000D02*
X167735000Y84990000D01*
X167735000Y84990000D02*
X161195000Y84990000D01*
X161195000Y84990000D02*
X161195000Y85320000D01*
X167735000Y87400000D02*
X167735000Y87730000D01*
X167735000Y87730000D02*
X161195000Y87730000D01*
X161195000Y87730000D02*
X161195000Y87400000D01*
%TO.C,SW1*%
X168040000Y79550000D02*
X168040000Y81050000D01*
X166790000Y83550000D02*
X162290000Y83550000D01*
X161040000Y81050000D02*
X161040000Y79550000D01*
X162290000Y77050000D02*
X166790000Y77050000D01*
%TO.C,U1*%
X158690000Y120125000D02*
X158690000Y114665000D01*
X209610000Y120125000D02*
X158690000Y120125000D01*
X209610000Y107205000D02*
X209610000Y120125000D01*
X158690000Y107205000D02*
X209610000Y107205000D01*
X158690000Y112665000D02*
X158690000Y107205000D01*
X158690000Y114665000D02*
G75*
G02*
X158690000Y112665000I0J-1000000D01*
G01*
%TO.C,U4*%
X250765000Y93455000D02*
X250765000Y91805000D01*
X271205000Y93455000D02*
X250765000Y93455000D01*
X271205000Y88155000D02*
X271205000Y93455000D01*
X250765000Y88155000D02*
X271205000Y88155000D01*
X250765000Y89805000D02*
X250765000Y88155000D01*
X250765000Y91805000D02*
G75*
G02*
X250765000Y89805000I0J-1000000D01*
G01*
%TO.C,J4*%
X309820000Y74870000D02*
X315020000Y74870000D01*
X309820000Y97790000D02*
X309820000Y74870000D01*
X315020000Y100390000D02*
X315020000Y74870000D01*
X309820000Y97790000D02*
X312420000Y97790000D01*
X312420000Y97790000D02*
X312420000Y100390000D01*
X312420000Y100390000D02*
X315020000Y100390000D01*
X309820000Y99060000D02*
X309820000Y100390000D01*
X309820000Y100390000D02*
X311150000Y100390000D01*
%TO.C,J8*%
X187325000Y90745000D02*
X187325000Y93405000D01*
X187325000Y90745000D02*
X192465000Y90745000D01*
X192465000Y90745000D02*
X192465000Y93405000D01*
X187325000Y93405000D02*
X192465000Y93405000D01*
X184725000Y93405000D02*
X186055000Y93405000D01*
X184725000Y92075000D02*
X184725000Y93405000D01*
%TO.C,X1*%
X174335000Y88885000D02*
X174335000Y76735000D01*
X194485000Y89635000D02*
X175085000Y89635000D01*
X195235000Y77485000D02*
X195235000Y88885000D01*
X174335000Y76735000D02*
X194485000Y76735000D01*
X194485000Y76735000D02*
G75*
G03*
X195235000Y77485000I0J750000D01*
G01*
X195235000Y88885000D02*
G75*
G03*
X194485000Y89635000I-750000J0D01*
G01*
X175085000Y89635000D02*
G75*
G03*
X174335000Y88885000I0J-750000D01*
G01*
%TO.C,U5*%
D10*
X199560380Y89916095D02*
X200369904Y89916095D01*
X200465142Y89963714D01*
X200512761Y90011333D01*
X200560380Y90106571D01*
X200560380Y90297047D01*
X200512761Y90392285D01*
X200465142Y90439904D01*
X200369904Y90487523D01*
X199560380Y90487523D01*
X199560380Y91439904D02*
X199560380Y90963714D01*
X200036571Y90916095D01*
X199988952Y90963714D01*
X199941333Y91058952D01*
X199941333Y91297047D01*
X199988952Y91392285D01*
X200036571Y91439904D01*
X200131809Y91487523D01*
X200369904Y91487523D01*
X200465142Y91439904D01*
X200512761Y91392285D01*
X200560380Y91297047D01*
X200560380Y91058952D01*
X200512761Y90963714D01*
X200465142Y90916095D01*
%TO.C,U3*%
X223817380Y88773095D02*
X224626904Y88773095D01*
X224722142Y88820714D01*
X224769761Y88868333D01*
X224817380Y88963571D01*
X224817380Y89154047D01*
X224769761Y89249285D01*
X224722142Y89296904D01*
X224626904Y89344523D01*
X223817380Y89344523D01*
X223817380Y89725476D02*
X223817380Y90344523D01*
X224198333Y90011190D01*
X224198333Y90154047D01*
X224245952Y90249285D01*
X224293571Y90296904D01*
X224388809Y90344523D01*
X224626904Y90344523D01*
X224722142Y90296904D01*
X224769761Y90249285D01*
X224817380Y90154047D01*
X224817380Y89868333D01*
X224769761Y89773095D01*
X224722142Y89725476D01*
%TO.C,J1*%
X280971666Y75477619D02*
X280971666Y74763333D01*
X280924047Y74620476D01*
X280828809Y74525238D01*
X280685952Y74477619D01*
X280590714Y74477619D01*
X281971666Y74477619D02*
X281400238Y74477619D01*
X281685952Y74477619D02*
X281685952Y75477619D01*
X281590714Y75334761D01*
X281495476Y75239523D01*
X281400238Y75191904D01*
%TO.C,R5*%
X199037380Y98893333D02*
X198561190Y98560000D01*
X199037380Y98321904D02*
X198037380Y98321904D01*
X198037380Y98702857D01*
X198085000Y98798095D01*
X198132619Y98845714D01*
X198227857Y98893333D01*
X198370714Y98893333D01*
X198465952Y98845714D01*
X198513571Y98798095D01*
X198561190Y98702857D01*
X198561190Y98321904D01*
X198037380Y99798095D02*
X198037380Y99321904D01*
X198513571Y99274285D01*
X198465952Y99321904D01*
X198418333Y99417142D01*
X198418333Y99655238D01*
X198465952Y99750476D01*
X198513571Y99798095D01*
X198608809Y99845714D01*
X198846904Y99845714D01*
X198942142Y99798095D01*
X198989761Y99750476D01*
X199037380Y99655238D01*
X199037380Y99417142D01*
X198989761Y99321904D01*
X198942142Y99274285D01*
%TO.C,J2*%
X289861666Y75477619D02*
X289861666Y74763333D01*
X289814047Y74620476D01*
X289718809Y74525238D01*
X289575952Y74477619D01*
X289480714Y74477619D01*
X290290238Y75382380D02*
X290337857Y75430000D01*
X290433095Y75477619D01*
X290671190Y75477619D01*
X290766428Y75430000D01*
X290814047Y75382380D01*
X290861666Y75287142D01*
X290861666Y75191904D01*
X290814047Y75049047D01*
X290242619Y74477619D01*
X290861666Y74477619D01*
%TO.C,D5*%
X276121904Y79977619D02*
X276121904Y80977619D01*
X276360000Y80977619D01*
X276502857Y80930000D01*
X276598095Y80834761D01*
X276645714Y80739523D01*
X276693333Y80549047D01*
X276693333Y80406190D01*
X276645714Y80215714D01*
X276598095Y80120476D01*
X276502857Y80025238D01*
X276360000Y79977619D01*
X276121904Y79977619D01*
X277598095Y80977619D02*
X277121904Y80977619D01*
X277074285Y80501428D01*
X277121904Y80549047D01*
X277217142Y80596666D01*
X277455238Y80596666D01*
X277550476Y80549047D01*
X277598095Y80501428D01*
X277645714Y80406190D01*
X277645714Y80168095D01*
X277598095Y80072857D01*
X277550476Y80025238D01*
X277455238Y79977619D01*
X277217142Y79977619D01*
X277121904Y80025238D01*
X277074285Y80072857D01*
X280408095Y80297619D02*
X280408095Y81297619D01*
X280979523Y80297619D02*
X280550952Y80869047D01*
X280979523Y81297619D02*
X280408095Y80726190D01*
%TO.C,R8*%
X260632380Y110958333D02*
X260156190Y110625000D01*
X260632380Y110386904D02*
X259632380Y110386904D01*
X259632380Y110767857D01*
X259680000Y110863095D01*
X259727619Y110910714D01*
X259822857Y110958333D01*
X259965714Y110958333D01*
X260060952Y110910714D01*
X260108571Y110863095D01*
X260156190Y110767857D01*
X260156190Y110386904D01*
X260060952Y111529761D02*
X260013333Y111434523D01*
X259965714Y111386904D01*
X259870476Y111339285D01*
X259822857Y111339285D01*
X259727619Y111386904D01*
X259680000Y111434523D01*
X259632380Y111529761D01*
X259632380Y111720238D01*
X259680000Y111815476D01*
X259727619Y111863095D01*
X259822857Y111910714D01*
X259870476Y111910714D01*
X259965714Y111863095D01*
X260013333Y111815476D01*
X260060952Y111720238D01*
X260060952Y111529761D01*
X260108571Y111434523D01*
X260156190Y111386904D01*
X260251428Y111339285D01*
X260441904Y111339285D01*
X260537142Y111386904D01*
X260584761Y111434523D01*
X260632380Y111529761D01*
X260632380Y111720238D01*
X260584761Y111815476D01*
X260537142Y111863095D01*
X260441904Y111910714D01*
X260251428Y111910714D01*
X260156190Y111863095D01*
X260108571Y111815476D01*
X260060952Y111720238D01*
%TO.C,R7*%
X259702380Y110958333D02*
X259226190Y110625000D01*
X259702380Y110386904D02*
X258702380Y110386904D01*
X258702380Y110767857D01*
X258750000Y110863095D01*
X258797619Y110910714D01*
X258892857Y110958333D01*
X259035714Y110958333D01*
X259130952Y110910714D01*
X259178571Y110863095D01*
X259226190Y110767857D01*
X259226190Y110386904D01*
X258702380Y111291666D02*
X258702380Y111958333D01*
X259702380Y111529761D01*
%TO.C,R6*%
X195227380Y98893333D02*
X194751190Y98560000D01*
X195227380Y98321904D02*
X194227380Y98321904D01*
X194227380Y98702857D01*
X194275000Y98798095D01*
X194322619Y98845714D01*
X194417857Y98893333D01*
X194560714Y98893333D01*
X194655952Y98845714D01*
X194703571Y98798095D01*
X194751190Y98702857D01*
X194751190Y98321904D01*
X194227380Y99750476D02*
X194227380Y99560000D01*
X194275000Y99464761D01*
X194322619Y99417142D01*
X194465476Y99321904D01*
X194655952Y99274285D01*
X195036904Y99274285D01*
X195132142Y99321904D01*
X195179761Y99369523D01*
X195227380Y99464761D01*
X195227380Y99655238D01*
X195179761Y99750476D01*
X195132142Y99798095D01*
X195036904Y99845714D01*
X194798809Y99845714D01*
X194703571Y99798095D01*
X194655952Y99750476D01*
X194608333Y99655238D01*
X194608333Y99464761D01*
X194655952Y99369523D01*
X194703571Y99321904D01*
X194798809Y99274285D01*
%TO.C,R4*%
X187607380Y98893333D02*
X187131190Y98560000D01*
X187607380Y98321904D02*
X186607380Y98321904D01*
X186607380Y98702857D01*
X186655000Y98798095D01*
X186702619Y98845714D01*
X186797857Y98893333D01*
X186940714Y98893333D01*
X187035952Y98845714D01*
X187083571Y98798095D01*
X187131190Y98702857D01*
X187131190Y98321904D01*
X186940714Y99750476D02*
X187607380Y99750476D01*
X186559761Y99512380D02*
X187274047Y99274285D01*
X187274047Y99893333D01*
%TO.C,J6*%
X229092380Y77136666D02*
X229806666Y77136666D01*
X229949523Y77089047D01*
X230044761Y76993809D01*
X230092380Y76850952D01*
X230092380Y76755714D01*
X229092380Y78041428D02*
X229092380Y77850952D01*
X229140000Y77755714D01*
X229187619Y77708095D01*
X229330476Y77612857D01*
X229520952Y77565238D01*
X229901904Y77565238D01*
X229997142Y77612857D01*
X230044761Y77660476D01*
X230092380Y77755714D01*
X230092380Y77946190D01*
X230044761Y78041428D01*
X229997142Y78089047D01*
X229901904Y78136666D01*
X229663809Y78136666D01*
X229568571Y78089047D01*
X229520952Y78041428D01*
X229473333Y77946190D01*
X229473333Y77755714D01*
X229520952Y77660476D01*
X229568571Y77612857D01*
X229663809Y77565238D01*
%TO.C,D6*%
X265961904Y84217619D02*
X265961904Y85217619D01*
X266200000Y85217619D01*
X266342857Y85170000D01*
X266438095Y85074761D01*
X266485714Y84979523D01*
X266533333Y84789047D01*
X266533333Y84646190D01*
X266485714Y84455714D01*
X266438095Y84360476D01*
X266342857Y84265238D01*
X266200000Y84217619D01*
X265961904Y84217619D01*
X267390476Y85217619D02*
X267200000Y85217619D01*
X267104761Y85170000D01*
X267057142Y85122380D01*
X266961904Y84979523D01*
X266914285Y84789047D01*
X266914285Y84408095D01*
X266961904Y84312857D01*
X267009523Y84265238D01*
X267104761Y84217619D01*
X267295238Y84217619D01*
X267390476Y84265238D01*
X267438095Y84312857D01*
X267485714Y84408095D01*
X267485714Y84646190D01*
X267438095Y84741428D01*
X267390476Y84789047D01*
X267295238Y84836666D01*
X267104761Y84836666D01*
X267009523Y84789047D01*
X266961904Y84741428D01*
X266914285Y84646190D01*
X262628095Y83897619D02*
X262628095Y84897619D01*
X263199523Y83897619D02*
X262770952Y84469047D01*
X263199523Y84897619D02*
X262628095Y84326190D01*
%TO.C,D4*%
X276121904Y83152619D02*
X276121904Y84152619D01*
X276360000Y84152619D01*
X276502857Y84105000D01*
X276598095Y84009761D01*
X276645714Y83914523D01*
X276693333Y83724047D01*
X276693333Y83581190D01*
X276645714Y83390714D01*
X276598095Y83295476D01*
X276502857Y83200238D01*
X276360000Y83152619D01*
X276121904Y83152619D01*
X277550476Y83819285D02*
X277550476Y83152619D01*
X277312380Y84200238D02*
X277074285Y83485952D01*
X277693333Y83485952D01*
X280408095Y83472619D02*
X280408095Y84472619D01*
X280979523Y83472619D02*
X280550952Y84044047D01*
X280979523Y84472619D02*
X280408095Y83901190D01*
%TO.C,D3*%
X276121904Y86327619D02*
X276121904Y87327619D01*
X276360000Y87327619D01*
X276502857Y87280000D01*
X276598095Y87184761D01*
X276645714Y87089523D01*
X276693333Y86899047D01*
X276693333Y86756190D01*
X276645714Y86565714D01*
X276598095Y86470476D01*
X276502857Y86375238D01*
X276360000Y86327619D01*
X276121904Y86327619D01*
X277026666Y87327619D02*
X277645714Y87327619D01*
X277312380Y86946666D01*
X277455238Y86946666D01*
X277550476Y86899047D01*
X277598095Y86851428D01*
X277645714Y86756190D01*
X277645714Y86518095D01*
X277598095Y86422857D01*
X277550476Y86375238D01*
X277455238Y86327619D01*
X277169523Y86327619D01*
X277074285Y86375238D01*
X277026666Y86422857D01*
X280408095Y86647619D02*
X280408095Y87647619D01*
X280979523Y86647619D02*
X280550952Y87219047D01*
X280979523Y87647619D02*
X280408095Y87076190D01*
%TO.C,D2*%
X276121904Y89502619D02*
X276121904Y90502619D01*
X276360000Y90502619D01*
X276502857Y90455000D01*
X276598095Y90359761D01*
X276645714Y90264523D01*
X276693333Y90074047D01*
X276693333Y89931190D01*
X276645714Y89740714D01*
X276598095Y89645476D01*
X276502857Y89550238D01*
X276360000Y89502619D01*
X276121904Y89502619D01*
X277074285Y90407380D02*
X277121904Y90455000D01*
X277217142Y90502619D01*
X277455238Y90502619D01*
X277550476Y90455000D01*
X277598095Y90407380D01*
X277645714Y90312142D01*
X277645714Y90216904D01*
X277598095Y90074047D01*
X277026666Y89502619D01*
X277645714Y89502619D01*
X280408095Y89822619D02*
X280408095Y90822619D01*
X280979523Y89822619D02*
X280550952Y90394047D01*
X280979523Y90822619D02*
X280408095Y90251190D01*
%TO.C,C5*%
X201797142Y93198333D02*
X201844761Y93150714D01*
X201892380Y93007857D01*
X201892380Y92912619D01*
X201844761Y92769761D01*
X201749523Y92674523D01*
X201654285Y92626904D01*
X201463809Y92579285D01*
X201320952Y92579285D01*
X201130476Y92626904D01*
X201035238Y92674523D01*
X200940000Y92769761D01*
X200892380Y92912619D01*
X200892380Y93007857D01*
X200940000Y93150714D01*
X200987619Y93198333D01*
X200892380Y94103095D02*
X200892380Y93626904D01*
X201368571Y93579285D01*
X201320952Y93626904D01*
X201273333Y93722142D01*
X201273333Y93960238D01*
X201320952Y94055476D01*
X201368571Y94103095D01*
X201463809Y94150714D01*
X201701904Y94150714D01*
X201797142Y94103095D01*
X201844761Y94055476D01*
X201892380Y93960238D01*
X201892380Y93722142D01*
X201844761Y93626904D01*
X201797142Y93579285D01*
%TO.C,J3*%
X298751666Y75477619D02*
X298751666Y74763333D01*
X298704047Y74620476D01*
X298608809Y74525238D01*
X298465952Y74477619D01*
X298370714Y74477619D01*
X299132619Y75477619D02*
X299751666Y75477619D01*
X299418333Y75096666D01*
X299561190Y75096666D01*
X299656428Y75049047D01*
X299704047Y75001428D01*
X299751666Y74906190D01*
X299751666Y74668095D01*
X299704047Y74572857D01*
X299656428Y74525238D01*
X299561190Y74477619D01*
X299275476Y74477619D01*
X299180238Y74525238D01*
X299132619Y74572857D01*
%TO.C,U7*%
X263482380Y112903095D02*
X264291904Y112903095D01*
X264387142Y112950714D01*
X264434761Y112998333D01*
X264482380Y113093571D01*
X264482380Y113284047D01*
X264434761Y113379285D01*
X264387142Y113426904D01*
X264291904Y113474523D01*
X263482380Y113474523D01*
X263482380Y113855476D02*
X263482380Y114522142D01*
X264482380Y114093571D01*
%TO.C,U6*%
X218102380Y112903095D02*
X218911904Y112903095D01*
X219007142Y112950714D01*
X219054761Y112998333D01*
X219102380Y113093571D01*
X219102380Y113284047D01*
X219054761Y113379285D01*
X219007142Y113426904D01*
X218911904Y113474523D01*
X218102380Y113474523D01*
X218102380Y114379285D02*
X218102380Y114188809D01*
X218150000Y114093571D01*
X218197619Y114045952D01*
X218340476Y113950714D01*
X218530952Y113903095D01*
X218911904Y113903095D01*
X219007142Y113950714D01*
X219054761Y113998333D01*
X219102380Y114093571D01*
X219102380Y114284047D01*
X219054761Y114379285D01*
X219007142Y114426904D01*
X218911904Y114474523D01*
X218673809Y114474523D01*
X218578571Y114426904D01*
X218530952Y114379285D01*
X218483333Y114284047D01*
X218483333Y114093571D01*
X218530952Y113998333D01*
X218578571Y113950714D01*
X218673809Y113903095D01*
%TO.C,R3*%
X189047380Y98893333D02*
X188571190Y98560000D01*
X189047380Y98321904D02*
X188047380Y98321904D01*
X188047380Y98702857D01*
X188095000Y98798095D01*
X188142619Y98845714D01*
X188237857Y98893333D01*
X188380714Y98893333D01*
X188475952Y98845714D01*
X188523571Y98798095D01*
X188571190Y98702857D01*
X188571190Y98321904D01*
X188047380Y99226666D02*
X188047380Y99845714D01*
X188428333Y99512380D01*
X188428333Y99655238D01*
X188475952Y99750476D01*
X188523571Y99798095D01*
X188618809Y99845714D01*
X188856904Y99845714D01*
X188952142Y99798095D01*
X188999761Y99750476D01*
X189047380Y99655238D01*
X189047380Y99369523D01*
X188999761Y99274285D01*
X188952142Y99226666D01*
%TO.C,J5*%
X159686666Y103647619D02*
X159686666Y102933333D01*
X159639047Y102790476D01*
X159543809Y102695238D01*
X159400952Y102647619D01*
X159305714Y102647619D01*
X160639047Y103647619D02*
X160162857Y103647619D01*
X160115238Y103171428D01*
X160162857Y103219047D01*
X160258095Y103266666D01*
X160496190Y103266666D01*
X160591428Y103219047D01*
X160639047Y103171428D01*
X160686666Y103076190D01*
X160686666Y102838095D01*
X160639047Y102742857D01*
X160591428Y102695238D01*
X160496190Y102647619D01*
X160258095Y102647619D01*
X160162857Y102695238D01*
X160115238Y102742857D01*
%TO.C,D1*%
X166901904Y97757619D02*
X166901904Y98757619D01*
X167140000Y98757619D01*
X167282857Y98710000D01*
X167378095Y98614761D01*
X167425714Y98519523D01*
X167473333Y98329047D01*
X167473333Y98186190D01*
X167425714Y97995714D01*
X167378095Y97900476D01*
X167282857Y97805238D01*
X167140000Y97757619D01*
X166901904Y97757619D01*
X168425714Y97757619D02*
X167854285Y97757619D01*
X168140000Y97757619D02*
X168140000Y98757619D01*
X168044761Y98614761D01*
X167949523Y98519523D01*
X167854285Y98471904D01*
X171188095Y98077619D02*
X171188095Y99077619D01*
X171759523Y98077619D02*
X171330952Y98649047D01*
X171759523Y99077619D02*
X171188095Y98506190D01*
%TO.C,C8*%
X171247142Y95353333D02*
X171294761Y95305714D01*
X171342380Y95162857D01*
X171342380Y95067619D01*
X171294761Y94924761D01*
X171199523Y94829523D01*
X171104285Y94781904D01*
X170913809Y94734285D01*
X170770952Y94734285D01*
X170580476Y94781904D01*
X170485238Y94829523D01*
X170390000Y94924761D01*
X170342380Y95067619D01*
X170342380Y95162857D01*
X170390000Y95305714D01*
X170437619Y95353333D01*
X170770952Y95924761D02*
X170723333Y95829523D01*
X170675714Y95781904D01*
X170580476Y95734285D01*
X170532857Y95734285D01*
X170437619Y95781904D01*
X170390000Y95829523D01*
X170342380Y95924761D01*
X170342380Y96115238D01*
X170390000Y96210476D01*
X170437619Y96258095D01*
X170532857Y96305714D01*
X170580476Y96305714D01*
X170675714Y96258095D01*
X170723333Y96210476D01*
X170770952Y96115238D01*
X170770952Y95924761D01*
X170818571Y95829523D01*
X170866190Y95781904D01*
X170961428Y95734285D01*
X171151904Y95734285D01*
X171247142Y95781904D01*
X171294761Y95829523D01*
X171342380Y95924761D01*
X171342380Y96115238D01*
X171294761Y96210476D01*
X171247142Y96258095D01*
X171151904Y96305714D01*
X170961428Y96305714D01*
X170866190Y96258095D01*
X170818571Y96210476D01*
X170770952Y96115238D01*
%TO.C,C7*%
X251327142Y93198333D02*
X251374761Y93150714D01*
X251422380Y93007857D01*
X251422380Y92912619D01*
X251374761Y92769761D01*
X251279523Y92674523D01*
X251184285Y92626904D01*
X250993809Y92579285D01*
X250850952Y92579285D01*
X250660476Y92626904D01*
X250565238Y92674523D01*
X250470000Y92769761D01*
X250422380Y92912619D01*
X250422380Y93007857D01*
X250470000Y93150714D01*
X250517619Y93198333D01*
X250422380Y93531666D02*
X250422380Y94198333D01*
X251422380Y93769761D01*
%TO.C,C6*%
X225927142Y93158333D02*
X225974761Y93110714D01*
X226022380Y92967857D01*
X226022380Y92872619D01*
X225974761Y92729761D01*
X225879523Y92634523D01*
X225784285Y92586904D01*
X225593809Y92539285D01*
X225450952Y92539285D01*
X225260476Y92586904D01*
X225165238Y92634523D01*
X225070000Y92729761D01*
X225022380Y92872619D01*
X225022380Y92967857D01*
X225070000Y93110714D01*
X225117619Y93158333D01*
X225022380Y94015476D02*
X225022380Y93825000D01*
X225070000Y93729761D01*
X225117619Y93682142D01*
X225260476Y93586904D01*
X225450952Y93539285D01*
X225831904Y93539285D01*
X225927142Y93586904D01*
X225974761Y93634523D01*
X226022380Y93729761D01*
X226022380Y93920238D01*
X225974761Y94015476D01*
X225927142Y94063095D01*
X225831904Y94110714D01*
X225593809Y94110714D01*
X225498571Y94063095D01*
X225450952Y94015476D01*
X225403333Y93920238D01*
X225403333Y93729761D01*
X225450952Y93634523D01*
X225498571Y93586904D01*
X225593809Y93539285D01*
%TO.C,C4*%
X261342142Y118598333D02*
X261389761Y118550714D01*
X261437380Y118407857D01*
X261437380Y118312619D01*
X261389761Y118169761D01*
X261294523Y118074523D01*
X261199285Y118026904D01*
X261008809Y117979285D01*
X260865952Y117979285D01*
X260675476Y118026904D01*
X260580238Y118074523D01*
X260485000Y118169761D01*
X260437380Y118312619D01*
X260437380Y118407857D01*
X260485000Y118550714D01*
X260532619Y118598333D01*
X260770714Y119455476D02*
X261437380Y119455476D01*
X260389761Y119217380D02*
X261104047Y118979285D01*
X261104047Y119598333D01*
%TO.C,C3*%
X216257142Y119828333D02*
X216304761Y119780714D01*
X216352380Y119637857D01*
X216352380Y119542619D01*
X216304761Y119399761D01*
X216209523Y119304523D01*
X216114285Y119256904D01*
X215923809Y119209285D01*
X215780952Y119209285D01*
X215590476Y119256904D01*
X215495238Y119304523D01*
X215400000Y119399761D01*
X215352380Y119542619D01*
X215352380Y119637857D01*
X215400000Y119780714D01*
X215447619Y119828333D01*
X215352380Y120161666D02*
X215352380Y120780714D01*
X215733333Y120447380D01*
X215733333Y120590238D01*
X215780952Y120685476D01*
X215828571Y120733095D01*
X215923809Y120780714D01*
X216161904Y120780714D01*
X216257142Y120733095D01*
X216304761Y120685476D01*
X216352380Y120590238D01*
X216352380Y120304523D01*
X216304761Y120209285D01*
X216257142Y120161666D01*
%TO.C,C2*%
X176383333Y100462857D02*
X176335714Y100415238D01*
X176192857Y100367619D01*
X176097619Y100367619D01*
X175954761Y100415238D01*
X175859523Y100510476D01*
X175811904Y100605714D01*
X175764285Y100796190D01*
X175764285Y100939047D01*
X175811904Y101129523D01*
X175859523Y101224761D01*
X175954761Y101320000D01*
X176097619Y101367619D01*
X176192857Y101367619D01*
X176335714Y101320000D01*
X176383333Y101272380D01*
X176764285Y101272380D02*
X176811904Y101320000D01*
X176907142Y101367619D01*
X177145238Y101367619D01*
X177240476Y101320000D01*
X177288095Y101272380D01*
X177335714Y101177142D01*
X177335714Y101081904D01*
X177288095Y100939047D01*
X176716666Y100367619D01*
X177335714Y100367619D01*
%TO.C,C1*%
X155787142Y79823333D02*
X155834761Y79775714D01*
X155882380Y79632857D01*
X155882380Y79537619D01*
X155834761Y79394761D01*
X155739523Y79299523D01*
X155644285Y79251904D01*
X155453809Y79204285D01*
X155310952Y79204285D01*
X155120476Y79251904D01*
X155025238Y79299523D01*
X154930000Y79394761D01*
X154882380Y79537619D01*
X154882380Y79632857D01*
X154930000Y79775714D01*
X154977619Y79823333D01*
X155882380Y80775714D02*
X155882380Y80204285D01*
X155882380Y80490000D02*
X154882380Y80490000D01*
X155025238Y80394761D01*
X155120476Y80299523D01*
X155168095Y80204285D01*
%TO.C,R1*%
X181427380Y98893333D02*
X180951190Y98560000D01*
X181427380Y98321904D02*
X180427380Y98321904D01*
X180427380Y98702857D01*
X180475000Y98798095D01*
X180522619Y98845714D01*
X180617857Y98893333D01*
X180760714Y98893333D01*
X180855952Y98845714D01*
X180903571Y98798095D01*
X180951190Y98702857D01*
X180951190Y98321904D01*
X181427380Y99845714D02*
X181427380Y99274285D01*
X181427380Y99560000D02*
X180427380Y99560000D01*
X180570238Y99464761D01*
X180665476Y99369523D01*
X180713095Y99274285D01*
%TO.C,R2*%
X164298333Y88447619D02*
X163965000Y88923809D01*
X163726904Y88447619D02*
X163726904Y89447619D01*
X164107857Y89447619D01*
X164203095Y89400000D01*
X164250714Y89352380D01*
X164298333Y89257142D01*
X164298333Y89114285D01*
X164250714Y89019047D01*
X164203095Y88971428D01*
X164107857Y88923809D01*
X163726904Y88923809D01*
X164679285Y89352380D02*
X164726904Y89400000D01*
X164822142Y89447619D01*
X165060238Y89447619D01*
X165155476Y89400000D01*
X165203095Y89352380D01*
X165250714Y89257142D01*
X165250714Y89161904D01*
X165203095Y89019047D01*
X164631666Y88447619D01*
X165250714Y88447619D01*
%TO.C,SW1*%
X170584761Y79311666D02*
X170632380Y79454523D01*
X170632380Y79692619D01*
X170584761Y79787857D01*
X170537142Y79835476D01*
X170441904Y79883095D01*
X170346666Y79883095D01*
X170251428Y79835476D01*
X170203809Y79787857D01*
X170156190Y79692619D01*
X170108571Y79502142D01*
X170060952Y79406904D01*
X170013333Y79359285D01*
X169918095Y79311666D01*
X169822857Y79311666D01*
X169727619Y79359285D01*
X169680000Y79406904D01*
X169632380Y79502142D01*
X169632380Y79740238D01*
X169680000Y79883095D01*
X169632380Y80216428D02*
X170632380Y80454523D01*
X169918095Y80645000D01*
X170632380Y80835476D01*
X169632380Y81073571D01*
X170632380Y81978333D02*
X170632380Y81406904D01*
X170632380Y81692619D02*
X169632380Y81692619D01*
X169775238Y81597380D01*
X169870476Y81502142D01*
X169918095Y81406904D01*
%TO.C,U1*%
X157142380Y112903095D02*
X157951904Y112903095D01*
X158047142Y112950714D01*
X158094761Y112998333D01*
X158142380Y113093571D01*
X158142380Y113284047D01*
X158094761Y113379285D01*
X158047142Y113426904D01*
X157951904Y113474523D01*
X157142380Y113474523D01*
X158142380Y114474523D02*
X158142380Y113903095D01*
X158142380Y114188809D02*
X157142380Y114188809D01*
X157285238Y114093571D01*
X157380476Y113998333D01*
X157428095Y113903095D01*
%TO.C,U4*%
X249217380Y88773095D02*
X250026904Y88773095D01*
X250122142Y88820714D01*
X250169761Y88868333D01*
X250217380Y88963571D01*
X250217380Y89154047D01*
X250169761Y89249285D01*
X250122142Y89296904D01*
X250026904Y89344523D01*
X249217380Y89344523D01*
X249550714Y90249285D02*
X250217380Y90249285D01*
X249169761Y90011190D02*
X249884047Y89773095D01*
X249884047Y90392142D01*
%TO.C,J4*%
X307641666Y75477619D02*
X307641666Y74763333D01*
X307594047Y74620476D01*
X307498809Y74525238D01*
X307355952Y74477619D01*
X307260714Y74477619D01*
X308546428Y75144285D02*
X308546428Y74477619D01*
X308308333Y75525238D02*
X308070238Y74810952D01*
X308689285Y74810952D01*
%TO.C,J8*%
X182737380Y91741666D02*
X183451666Y91741666D01*
X183594523Y91694047D01*
X183689761Y91598809D01*
X183737380Y91455952D01*
X183737380Y91360714D01*
X183165952Y92360714D02*
X183118333Y92265476D01*
X183070714Y92217857D01*
X182975476Y92170238D01*
X182927857Y92170238D01*
X182832619Y92217857D01*
X182785000Y92265476D01*
X182737380Y92360714D01*
X182737380Y92551190D01*
X182785000Y92646428D01*
X182832619Y92694047D01*
X182927857Y92741666D01*
X182975476Y92741666D01*
X183070714Y92694047D01*
X183118333Y92646428D01*
X183165952Y92551190D01*
X183165952Y92360714D01*
X183213571Y92265476D01*
X183261190Y92217857D01*
X183356428Y92170238D01*
X183546904Y92170238D01*
X183642142Y92217857D01*
X183689761Y92265476D01*
X183737380Y92360714D01*
X183737380Y92551190D01*
X183689761Y92646428D01*
X183642142Y92694047D01*
X183546904Y92741666D01*
X183356428Y92741666D01*
X183261190Y92694047D01*
X183213571Y92646428D01*
X183165952Y92551190D01*
%TO.C,X1*%
X183975476Y91182619D02*
X184642142Y90182619D01*
X184642142Y91182619D02*
X183975476Y90182619D01*
X185546904Y90182619D02*
X184975476Y90182619D01*
X185261190Y90182619D02*
X185261190Y91182619D01*
X185165952Y91039761D01*
X185070714Y90944523D01*
X184975476Y90896904D01*
%TD*%
%LPC*%
D12*
%TO.C,U5*%
X202438000Y94488000D03*
X220218000Y86868000D03*
X204978000Y94488000D03*
X217678000Y86868000D03*
X207518000Y94488000D03*
X215138000Y86868000D03*
X210058000Y94488000D03*
X212598000Y86868000D03*
X212598000Y94488000D03*
X210058000Y86868000D03*
X215138000Y94488000D03*
X207518000Y86868000D03*
X217678000Y94488000D03*
X204978000Y86868000D03*
X220218000Y94488000D03*
D13*
X202438000Y86868000D03*
%TD*%
D12*
%TO.C,U3*%
X226695000Y94615000D03*
X241935000Y86995000D03*
X229235000Y94615000D03*
X239395000Y86995000D03*
X231775000Y94615000D03*
X236855000Y86995000D03*
X234315000Y94615000D03*
X234315000Y86995000D03*
X236855000Y94615000D03*
X231775000Y86995000D03*
X239395000Y94615000D03*
X229235000Y86995000D03*
X241935000Y94615000D03*
D13*
X226695000Y86995000D03*
%TD*%
D14*
%TO.C,J1*%
X287020000Y76200000D03*
X284480000Y76200000D03*
X287020000Y78740000D03*
X284480000Y78740000D03*
X287020000Y81280000D03*
X284480000Y81280000D03*
X287020000Y83820000D03*
X284480000Y83820000D03*
X287020000Y86360000D03*
X284480000Y86360000D03*
X287020000Y88900000D03*
X284480000Y88900000D03*
X287020000Y91440000D03*
X284480000Y91440000D03*
X287020000Y93980000D03*
X284480000Y93980000D03*
X287020000Y96520000D03*
X284480000Y96520000D03*
X287020000Y99060000D03*
D15*
X284480000Y99060000D03*
%TD*%
D12*
%TO.C,R5*%
X196215000Y95250000D03*
D16*
X196215000Y102870000D03*
%TD*%
D14*
%TO.C,J2*%
X295910000Y76200000D03*
X293370000Y76200000D03*
X295910000Y78740000D03*
X293370000Y78740000D03*
X295910000Y81280000D03*
X293370000Y81280000D03*
X295910000Y83820000D03*
X293370000Y83820000D03*
X295910000Y86360000D03*
X293370000Y86360000D03*
X295910000Y88900000D03*
X293370000Y88900000D03*
X295910000Y91440000D03*
X293370000Y91440000D03*
X295910000Y93980000D03*
X293370000Y93980000D03*
X295910000Y96520000D03*
X293370000Y96520000D03*
X295910000Y99060000D03*
D15*
X293370000Y99060000D03*
%TD*%
D12*
%TO.C,D5*%
X273050000Y82550000D03*
D13*
X280670000Y82550000D03*
%TD*%
D12*
%TO.C,R8*%
X257810000Y107315000D03*
D16*
X257810000Y114935000D03*
%TD*%
D12*
%TO.C,R7*%
X261620000Y114935000D03*
D16*
X261620000Y107315000D03*
%TD*%
D12*
%TO.C,R6*%
X192405000Y95250000D03*
D16*
X192405000Y102870000D03*
%TD*%
D12*
%TO.C,R4*%
X184785000Y95250000D03*
D16*
X184785000Y102870000D03*
%TD*%
D14*
%TO.C,J6*%
X278130000Y76200000D03*
X278130000Y78740000D03*
X275590000Y76200000D03*
X275590000Y78740000D03*
X273050000Y76200000D03*
X273050000Y78740000D03*
X270510000Y76200000D03*
X270510000Y78740000D03*
X267970000Y76200000D03*
X267970000Y78740000D03*
X265430000Y76200000D03*
X265430000Y78740000D03*
X262890000Y76200000D03*
X262890000Y78740000D03*
X260350000Y76200000D03*
X260350000Y78740000D03*
X257810000Y76200000D03*
X257810000Y78740000D03*
X255270000Y76200000D03*
X255270000Y78740000D03*
X252730000Y76200000D03*
X252730000Y78740000D03*
X250190000Y76200000D03*
X250190000Y78740000D03*
X247650000Y76200000D03*
X247650000Y78740000D03*
X245110000Y76200000D03*
X245110000Y78740000D03*
X242570000Y76200000D03*
X242570000Y78740000D03*
X240030000Y76200000D03*
X240030000Y78740000D03*
X237490000Y76200000D03*
X237490000Y78740000D03*
X234950000Y76200000D03*
X234950000Y78740000D03*
X232410000Y76200000D03*
D15*
X232410000Y78740000D03*
%TD*%
D12*
%TO.C,D6*%
X270510000Y82550000D03*
D13*
X262890000Y82550000D03*
%TD*%
D12*
%TO.C,D4*%
X273050000Y85725000D03*
D13*
X280670000Y85725000D03*
%TD*%
D12*
%TO.C,D3*%
X273050000Y88900000D03*
D13*
X280670000Y88900000D03*
%TD*%
D12*
%TO.C,D2*%
X273050000Y92075000D03*
D13*
X280670000Y92075000D03*
%TD*%
D16*
%TO.C,C5*%
X199390000Y92115000D03*
X199390000Y94615000D03*
%TD*%
D14*
%TO.C,J3*%
X304800000Y76200000D03*
X302260000Y76200000D03*
X304800000Y78740000D03*
X302260000Y78740000D03*
X304800000Y81280000D03*
X302260000Y81280000D03*
X304800000Y83820000D03*
X302260000Y83820000D03*
X304800000Y86360000D03*
X302260000Y86360000D03*
X304800000Y88900000D03*
X302260000Y88900000D03*
X304800000Y91440000D03*
X302260000Y91440000D03*
X304800000Y93980000D03*
X302260000Y93980000D03*
X304800000Y96520000D03*
X302260000Y96520000D03*
X304800000Y99060000D03*
D15*
X302260000Y99060000D03*
%TD*%
D17*
%TO.C,U7*%
X308610000Y121285000D03*
X308610000Y106045000D03*
X306070000Y121285000D03*
X306070000Y106045000D03*
X303530000Y121285000D03*
X303530000Y106045000D03*
X300990000Y121285000D03*
X300990000Y106045000D03*
X298450000Y121285000D03*
X298450000Y106045000D03*
X295910000Y121285000D03*
X295910000Y106045000D03*
X293370000Y121285000D03*
X293370000Y106045000D03*
X290830000Y121285000D03*
X290830000Y106045000D03*
X288290000Y121285000D03*
X288290000Y106045000D03*
X285750000Y121285000D03*
X285750000Y106045000D03*
X283210000Y121285000D03*
X283210000Y106045000D03*
X280670000Y121285000D03*
X280670000Y106045000D03*
X278130000Y121285000D03*
X278130000Y106045000D03*
X275590000Y121285000D03*
D18*
X275590000Y106045000D03*
%TD*%
D12*
%TO.C,U6*%
X220980000Y121285000D03*
X254000000Y106045000D03*
X223520000Y121285000D03*
X251460000Y106045000D03*
X226060000Y121285000D03*
X248920000Y106045000D03*
X228600000Y121285000D03*
X246380000Y106045000D03*
X231140000Y121285000D03*
X243840000Y106045000D03*
X233680000Y121285000D03*
X241300000Y106045000D03*
X236220000Y121285000D03*
X238760000Y106045000D03*
X238760000Y121285000D03*
X236220000Y106045000D03*
X241300000Y121285000D03*
X233680000Y106045000D03*
X243840000Y121285000D03*
X231140000Y106045000D03*
X246380000Y121285000D03*
X228600000Y106045000D03*
X248920000Y121285000D03*
X226060000Y106045000D03*
X251460000Y121285000D03*
X223520000Y106045000D03*
X254000000Y121285000D03*
D13*
X220980000Y106045000D03*
%TD*%
D12*
%TO.C,R3*%
X188595000Y95250000D03*
D16*
X188595000Y102870000D03*
%TD*%
D14*
%TO.C,J5*%
X160020000Y97790000D03*
D15*
X160020000Y100330000D03*
%TD*%
D12*
%TO.C,D1*%
X163830000Y100330000D03*
D13*
X171450000Y100330000D03*
%TD*%
D19*
%TO.C,C8*%
X167640000Y94520000D03*
D20*
X167640000Y96520000D03*
%TD*%
D16*
%TO.C,C7*%
X248920000Y92115000D03*
X248920000Y94615000D03*
%TD*%
%TO.C,C6*%
X223520000Y92075000D03*
X223520000Y94575000D03*
%TD*%
%TO.C,C4*%
X262890000Y117515000D03*
X262890000Y120015000D03*
%TD*%
%TO.C,C3*%
X217805000Y118745000D03*
X217805000Y121245000D03*
%TD*%
%TO.C,C2*%
X175300000Y102870000D03*
X177800000Y102870000D03*
%TD*%
%TO.C,C1*%
X157480000Y78740000D03*
X157480000Y81240000D03*
%TD*%
%TO.C,R1*%
X180975000Y102870000D03*
D12*
X180975000Y95250000D03*
%TD*%
%TO.C,R2*%
X160655000Y86360000D03*
D16*
X168275000Y86360000D03*
%TD*%
D21*
%TO.C,SW1*%
X161290000Y78050000D03*
X161290000Y82550000D03*
X167790000Y78050000D03*
X167790000Y82550000D03*
%TD*%
D13*
%TO.C,U1*%
X160020000Y106045000D03*
D12*
X208280000Y121285000D03*
X162560000Y106045000D03*
X205740000Y121285000D03*
X165100000Y106045000D03*
X203200000Y121285000D03*
X167640000Y106045000D03*
X200660000Y121285000D03*
X170180000Y106045000D03*
X198120000Y121285000D03*
X172720000Y106045000D03*
X195580000Y121285000D03*
X175260000Y106045000D03*
X193040000Y121285000D03*
X177800000Y106045000D03*
X190500000Y121285000D03*
X180340000Y106045000D03*
X187960000Y121285000D03*
X182880000Y106045000D03*
X185420000Y121285000D03*
X185420000Y106045000D03*
X182880000Y121285000D03*
X187960000Y106045000D03*
X180340000Y121285000D03*
X190500000Y106045000D03*
X177800000Y121285000D03*
X193040000Y106045000D03*
X175260000Y121285000D03*
X195580000Y106045000D03*
X172720000Y121285000D03*
X198120000Y106045000D03*
X170180000Y121285000D03*
X200660000Y106045000D03*
X167640000Y121285000D03*
X203200000Y106045000D03*
X165100000Y121285000D03*
X205740000Y106045000D03*
X162560000Y121285000D03*
X208280000Y106045000D03*
X160020000Y121285000D03*
%TD*%
D13*
%TO.C,U4*%
X252095000Y86995000D03*
D12*
X269875000Y94615000D03*
X254635000Y86995000D03*
X267335000Y94615000D03*
X257175000Y86995000D03*
X264795000Y94615000D03*
X259715000Y86995000D03*
X262255000Y94615000D03*
X262255000Y86995000D03*
X259715000Y94615000D03*
X264795000Y86995000D03*
X257175000Y94615000D03*
X267335000Y86995000D03*
X254635000Y94615000D03*
X269875000Y86995000D03*
X252095000Y94615000D03*
%TD*%
D15*
%TO.C,J4*%
X311150000Y99060000D03*
D14*
X313690000Y99060000D03*
X311150000Y96520000D03*
X313690000Y96520000D03*
X311150000Y93980000D03*
X313690000Y93980000D03*
X311150000Y91440000D03*
X313690000Y91440000D03*
X311150000Y88900000D03*
X313690000Y88900000D03*
X311150000Y86360000D03*
X313690000Y86360000D03*
X311150000Y83820000D03*
X313690000Y83820000D03*
X311150000Y81280000D03*
X313690000Y81280000D03*
X311150000Y78740000D03*
X313690000Y78740000D03*
X311150000Y76200000D03*
X313690000Y76200000D03*
%TD*%
D15*
%TO.C,J8*%
X186055000Y92075000D03*
D14*
X188595000Y92075000D03*
X191135000Y92075000D03*
%TD*%
D13*
%TO.C,X1*%
X177165000Y79375000D03*
D16*
X177165000Y86995000D03*
X192405000Y86995000D03*
X192405000Y79375000D03*
%TD*%
M02*
