M48
; DRILL file {KiCad (5.1.9-0-10_14)} date Wednesday, April 28, 2021 at 06:13:38 PM
; FORMAT={-:-/ absolute / metric / decimal}
; #@! TF.CreationDate,2021-04-28T18:13:38+02:00
; #@! TF.GenerationSoftware,Kicad,Pcbnew,(5.1.9-0-10_14)
; #@! TF.FileFunction,Plated,1,4,PTH
FMAT,2
METRIC
T1C0.300
T2C0.400
T3C0.600
T4C0.800
T5C1.000
T6C1.100
%
G90
G05
T1
X221.742Y103.632
X223.266Y102.362
X228.6Y76.708
T2
X206.634Y116.855
X207.645Y116.75
X208.404Y116.099
X209.005Y115.025
X210.185Y115.57
X214.63Y118.2
X215.9Y105.59
X222.25Y117.565
X225.425Y74.295
X233.68Y81.28
X240.03Y90.17
X241.3Y84.455
X255.905Y83.82
X262.255Y89.535
X265.43Y85.09
X267.335Y84.455
X271.145Y113.03
X281.417Y79.263
T3
X167.64Y96.52
X167.64Y94.52
T4
X157.48Y81.24
X157.48Y78.74
X160.02Y121.285
X160.02Y106.045
X160.655Y86.36
X162.56Y121.285
X162.56Y106.045
X163.83Y100.33
X165.1Y121.285
X165.1Y106.045
X167.64Y121.285
X167.64Y106.045
X168.275Y86.36
X170.18Y121.285
X170.18Y106.045
X171.45Y100.33
X172.72Y121.285
X172.72Y106.045
X175.26Y121.285
X175.26Y106.045
X175.3Y102.87
X177.165Y86.995
X177.165Y79.375
X177.8Y121.285
X177.8Y106.045
X177.8Y102.87
X180.34Y121.285
X180.34Y106.045
X180.975Y102.87
X180.975Y95.25
X182.88Y121.285
X182.88Y106.045
X184.785Y102.87
X184.785Y95.25
X185.42Y121.285
X185.42Y106.045
X187.96Y121.285
X187.96Y106.045
X188.595Y102.87
X188.595Y95.25
X190.5Y121.285
X190.5Y106.045
X192.405Y102.87
X192.405Y95.25
X192.405Y86.995
X192.405Y79.375
X193.04Y121.285
X193.04Y106.045
X195.58Y121.285
X195.58Y106.045
X196.215Y102.87
X196.215Y95.25
X198.12Y121.285
X198.12Y106.045
X199.39Y94.615
X199.39Y92.115
X200.66Y121.285
X200.66Y106.045
X202.438Y94.488
X202.438Y86.868
X203.2Y121.285
X203.2Y106.045
X204.978Y94.488
X204.978Y86.868
X205.74Y121.285
X205.74Y106.045
X207.518Y94.488
X207.518Y86.868
X208.28Y121.285
X208.28Y106.045
X210.058Y94.488
X210.058Y86.868
X212.598Y94.488
X212.598Y86.868
X215.138Y94.488
X215.138Y86.868
X217.678Y94.488
X217.678Y86.868
X217.805Y121.245
X217.805Y118.745
X220.218Y94.488
X220.218Y86.868
X220.98Y121.285
X220.98Y106.045
X223.52Y121.285
X223.52Y106.045
X223.52Y94.575
X223.52Y92.075
X226.06Y121.285
X226.06Y106.045
X226.695Y94.615
X226.695Y86.995
X228.6Y121.285
X228.6Y106.045
X229.235Y94.615
X229.235Y86.995
X231.14Y121.285
X231.14Y106.045
X231.775Y94.615
X231.775Y86.995
X233.68Y121.285
X233.68Y106.045
X234.315Y94.615
X234.315Y86.995
X236.22Y121.285
X236.22Y106.045
X236.855Y94.615
X236.855Y86.995
X238.76Y121.285
X238.76Y106.045
X239.395Y94.615
X239.395Y86.995
X241.3Y121.285
X241.3Y106.045
X241.935Y94.615
X241.935Y86.995
X243.84Y121.285
X243.84Y106.045
X246.38Y121.285
X246.38Y106.045
X248.92Y121.285
X248.92Y106.045
X248.92Y94.615
X248.92Y92.115
X251.46Y121.285
X251.46Y106.045
X252.095Y94.615
X252.095Y86.995
X254.0Y121.285
X254.0Y106.045
X254.635Y94.615
X254.635Y86.995
X257.175Y94.615
X257.175Y86.995
X257.81Y114.935
X257.81Y107.315
X259.715Y94.615
X259.715Y86.995
X261.62Y114.935
X261.62Y107.315
X262.255Y94.615
X262.255Y86.995
X262.89Y120.015
X262.89Y117.515
X262.89Y82.55
X264.795Y94.615
X264.795Y86.995
X267.335Y94.615
X267.335Y86.995
X269.875Y94.615
X269.875Y86.995
X270.51Y82.55
X273.05Y92.075
X273.05Y88.9
X273.05Y85.725
X273.05Y82.55
X280.67Y92.075
X280.67Y88.9
X280.67Y85.725
X280.67Y82.55
T5
X160.02Y100.33
X160.02Y97.79
X186.055Y92.075
X188.595Y92.075
X191.135Y92.075
X232.41Y78.74
X232.41Y76.2
X234.95Y78.74
X234.95Y76.2
X237.49Y78.74
X237.49Y76.2
X240.03Y78.74
X240.03Y76.2
X242.57Y78.74
X242.57Y76.2
X245.11Y78.74
X245.11Y76.2
X247.65Y78.74
X247.65Y76.2
X250.19Y78.74
X250.19Y76.2
X252.73Y78.74
X252.73Y76.2
X255.27Y78.74
X255.27Y76.2
X257.81Y78.74
X257.81Y76.2
X260.35Y78.74
X260.35Y76.2
X262.89Y78.74
X262.89Y76.2
X265.43Y78.74
X265.43Y76.2
X267.97Y78.74
X267.97Y76.2
X270.51Y78.74
X270.51Y76.2
X273.05Y78.74
X273.05Y76.2
X275.59Y121.285
X275.59Y106.045
X275.59Y78.74
X275.59Y76.2
X278.13Y121.285
X278.13Y106.045
X278.13Y78.74
X278.13Y76.2
X280.67Y121.285
X280.67Y106.045
X283.21Y121.285
X283.21Y106.045
X284.48Y99.06
X284.48Y96.52
X284.48Y93.98
X284.48Y91.44
X284.48Y88.9
X284.48Y86.36
X284.48Y83.82
X284.48Y81.28
X284.48Y78.74
X284.48Y76.2
X285.75Y121.285
X285.75Y106.045
X287.02Y99.06
X287.02Y96.52
X287.02Y93.98
X287.02Y91.44
X287.02Y88.9
X287.02Y86.36
X287.02Y83.82
X287.02Y81.28
X287.02Y78.74
X287.02Y76.2
X288.29Y121.285
X288.29Y106.045
X290.83Y121.285
X290.83Y106.045
X293.37Y121.285
X293.37Y106.045
X293.37Y99.06
X293.37Y96.52
X293.37Y93.98
X293.37Y91.44
X293.37Y88.9
X293.37Y86.36
X293.37Y83.82
X293.37Y81.28
X293.37Y78.74
X293.37Y76.2
X295.91Y121.285
X295.91Y106.045
X295.91Y99.06
X295.91Y96.52
X295.91Y93.98
X295.91Y91.44
X295.91Y88.9
X295.91Y86.36
X295.91Y83.82
X295.91Y81.28
X295.91Y78.74
X295.91Y76.2
X298.45Y121.285
X298.45Y106.045
X300.99Y121.285
X300.99Y106.045
X302.26Y99.06
X302.26Y96.52
X302.26Y93.98
X302.26Y91.44
X302.26Y88.9
X302.26Y86.36
X302.26Y83.82
X302.26Y81.28
X302.26Y78.74
X302.26Y76.2
X303.53Y121.285
X303.53Y106.045
X304.8Y99.06
X304.8Y96.52
X304.8Y93.98
X304.8Y91.44
X304.8Y88.9
X304.8Y86.36
X304.8Y83.82
X304.8Y81.28
X304.8Y78.74
X304.8Y76.2
X306.07Y121.285
X306.07Y106.045
X308.61Y121.285
X308.61Y106.045
X311.15Y99.06
X311.15Y96.52
X311.15Y93.98
X311.15Y91.44
X311.15Y88.9
X311.15Y86.36
X311.15Y83.82
X311.15Y81.28
X311.15Y78.74
X311.15Y76.2
X313.69Y99.06
X313.69Y96.52
X313.69Y93.98
X313.69Y91.44
X313.69Y88.9
X313.69Y86.36
X313.69Y83.82
X313.69Y81.28
X313.69Y78.74
X313.69Y76.2
T6
X161.29Y82.55
X161.29Y78.05
X167.79Y82.55
X167.79Y78.05
T0
M30
