%TF.GenerationSoftware,KiCad,Pcbnew,(5.1.9-0-10_14)*%
%TF.CreationDate,2021-04-28T18:12:29+02:00*%
%TF.ProjectId,mainboard,6d61696e-626f-4617-9264-2e6b69636164,rev?*%
%TF.SameCoordinates,Original*%
%TF.FileFunction,Soldermask,Top*%
%TF.FilePolarity,Negative*%
%FSLAX46Y46*%
G04 Gerber Fmt 4.6, Leading zero omitted, Abs format (unit mm)*
G04 Created by KiCad (PCBNEW (5.1.9-0-10_14)) date 2021-04-28 18:12:29*
%MOMM*%
%LPD*%
G01*
G04 APERTURE LIST*
%ADD10O,1.600000X1.600000*%
%ADD11R,1.600000X1.600000*%
%ADD12O,1.700000X1.700000*%
%ADD13R,1.700000X1.700000*%
%ADD14C,1.600000*%
%ADD15O,1.440000X2.000000*%
%ADD16R,1.440000X2.000000*%
%ADD17C,1.200000*%
%ADD18R,1.200000X1.200000*%
%ADD19C,2.000000*%
G04 APERTURE END LIST*
D10*
%TO.C,U5*%
X202438000Y94488000D03*
X220218000Y86868000D03*
X204978000Y94488000D03*
X217678000Y86868000D03*
X207518000Y94488000D03*
X215138000Y86868000D03*
X210058000Y94488000D03*
X212598000Y86868000D03*
X212598000Y94488000D03*
X210058000Y86868000D03*
X215138000Y94488000D03*
X207518000Y86868000D03*
X217678000Y94488000D03*
X204978000Y86868000D03*
X220218000Y94488000D03*
D11*
X202438000Y86868000D03*
%TD*%
D10*
%TO.C,U3*%
X226695000Y94615000D03*
X241935000Y86995000D03*
X229235000Y94615000D03*
X239395000Y86995000D03*
X231775000Y94615000D03*
X236855000Y86995000D03*
X234315000Y94615000D03*
X234315000Y86995000D03*
X236855000Y94615000D03*
X231775000Y86995000D03*
X239395000Y94615000D03*
X229235000Y86995000D03*
X241935000Y94615000D03*
D11*
X226695000Y86995000D03*
%TD*%
D12*
%TO.C,J1*%
X287020000Y76200000D03*
X284480000Y76200000D03*
X287020000Y78740000D03*
X284480000Y78740000D03*
X287020000Y81280000D03*
X284480000Y81280000D03*
X287020000Y83820000D03*
X284480000Y83820000D03*
X287020000Y86360000D03*
X284480000Y86360000D03*
X287020000Y88900000D03*
X284480000Y88900000D03*
X287020000Y91440000D03*
X284480000Y91440000D03*
X287020000Y93980000D03*
X284480000Y93980000D03*
X287020000Y96520000D03*
X284480000Y96520000D03*
X287020000Y99060000D03*
D13*
X284480000Y99060000D03*
%TD*%
D10*
%TO.C,R5*%
X196215000Y95250000D03*
D14*
X196215000Y102870000D03*
%TD*%
D12*
%TO.C,J2*%
X295910000Y76200000D03*
X293370000Y76200000D03*
X295910000Y78740000D03*
X293370000Y78740000D03*
X295910000Y81280000D03*
X293370000Y81280000D03*
X295910000Y83820000D03*
X293370000Y83820000D03*
X295910000Y86360000D03*
X293370000Y86360000D03*
X295910000Y88900000D03*
X293370000Y88900000D03*
X295910000Y91440000D03*
X293370000Y91440000D03*
X295910000Y93980000D03*
X293370000Y93980000D03*
X295910000Y96520000D03*
X293370000Y96520000D03*
X295910000Y99060000D03*
D13*
X293370000Y99060000D03*
%TD*%
D10*
%TO.C,D5*%
X273050000Y82550000D03*
D11*
X280670000Y82550000D03*
%TD*%
D10*
%TO.C,R8*%
X257810000Y107315000D03*
D14*
X257810000Y114935000D03*
%TD*%
D10*
%TO.C,R7*%
X261620000Y114935000D03*
D14*
X261620000Y107315000D03*
%TD*%
D10*
%TO.C,R6*%
X192405000Y95250000D03*
D14*
X192405000Y102870000D03*
%TD*%
D10*
%TO.C,R4*%
X184785000Y95250000D03*
D14*
X184785000Y102870000D03*
%TD*%
D12*
%TO.C,J6*%
X278130000Y76200000D03*
X278130000Y78740000D03*
X275590000Y76200000D03*
X275590000Y78740000D03*
X273050000Y76200000D03*
X273050000Y78740000D03*
X270510000Y76200000D03*
X270510000Y78740000D03*
X267970000Y76200000D03*
X267970000Y78740000D03*
X265430000Y76200000D03*
X265430000Y78740000D03*
X262890000Y76200000D03*
X262890000Y78740000D03*
X260350000Y76200000D03*
X260350000Y78740000D03*
X257810000Y76200000D03*
X257810000Y78740000D03*
X255270000Y76200000D03*
X255270000Y78740000D03*
X252730000Y76200000D03*
X252730000Y78740000D03*
X250190000Y76200000D03*
X250190000Y78740000D03*
X247650000Y76200000D03*
X247650000Y78740000D03*
X245110000Y76200000D03*
X245110000Y78740000D03*
X242570000Y76200000D03*
X242570000Y78740000D03*
X240030000Y76200000D03*
X240030000Y78740000D03*
X237490000Y76200000D03*
X237490000Y78740000D03*
X234950000Y76200000D03*
X234950000Y78740000D03*
X232410000Y76200000D03*
D13*
X232410000Y78740000D03*
%TD*%
D10*
%TO.C,D6*%
X270510000Y82550000D03*
D11*
X262890000Y82550000D03*
%TD*%
D10*
%TO.C,D4*%
X273050000Y85725000D03*
D11*
X280670000Y85725000D03*
%TD*%
D10*
%TO.C,D3*%
X273050000Y88900000D03*
D11*
X280670000Y88900000D03*
%TD*%
D10*
%TO.C,D2*%
X273050000Y92075000D03*
D11*
X280670000Y92075000D03*
%TD*%
D14*
%TO.C,C5*%
X199390000Y92115000D03*
X199390000Y94615000D03*
%TD*%
D12*
%TO.C,J3*%
X304800000Y76200000D03*
X302260000Y76200000D03*
X304800000Y78740000D03*
X302260000Y78740000D03*
X304800000Y81280000D03*
X302260000Y81280000D03*
X304800000Y83820000D03*
X302260000Y83820000D03*
X304800000Y86360000D03*
X302260000Y86360000D03*
X304800000Y88900000D03*
X302260000Y88900000D03*
X304800000Y91440000D03*
X302260000Y91440000D03*
X304800000Y93980000D03*
X302260000Y93980000D03*
X304800000Y96520000D03*
X302260000Y96520000D03*
X304800000Y99060000D03*
D13*
X302260000Y99060000D03*
%TD*%
D15*
%TO.C,U7*%
X308610000Y121285000D03*
X308610000Y106045000D03*
X306070000Y121285000D03*
X306070000Y106045000D03*
X303530000Y121285000D03*
X303530000Y106045000D03*
X300990000Y121285000D03*
X300990000Y106045000D03*
X298450000Y121285000D03*
X298450000Y106045000D03*
X295910000Y121285000D03*
X295910000Y106045000D03*
X293370000Y121285000D03*
X293370000Y106045000D03*
X290830000Y121285000D03*
X290830000Y106045000D03*
X288290000Y121285000D03*
X288290000Y106045000D03*
X285750000Y121285000D03*
X285750000Y106045000D03*
X283210000Y121285000D03*
X283210000Y106045000D03*
X280670000Y121285000D03*
X280670000Y106045000D03*
X278130000Y121285000D03*
X278130000Y106045000D03*
X275590000Y121285000D03*
D16*
X275590000Y106045000D03*
%TD*%
D10*
%TO.C,U6*%
X220980000Y121285000D03*
X254000000Y106045000D03*
X223520000Y121285000D03*
X251460000Y106045000D03*
X226060000Y121285000D03*
X248920000Y106045000D03*
X228600000Y121285000D03*
X246380000Y106045000D03*
X231140000Y121285000D03*
X243840000Y106045000D03*
X233680000Y121285000D03*
X241300000Y106045000D03*
X236220000Y121285000D03*
X238760000Y106045000D03*
X238760000Y121285000D03*
X236220000Y106045000D03*
X241300000Y121285000D03*
X233680000Y106045000D03*
X243840000Y121285000D03*
X231140000Y106045000D03*
X246380000Y121285000D03*
X228600000Y106045000D03*
X248920000Y121285000D03*
X226060000Y106045000D03*
X251460000Y121285000D03*
X223520000Y106045000D03*
X254000000Y121285000D03*
D11*
X220980000Y106045000D03*
%TD*%
D10*
%TO.C,R3*%
X188595000Y95250000D03*
D14*
X188595000Y102870000D03*
%TD*%
D12*
%TO.C,J5*%
X160020000Y97790000D03*
D13*
X160020000Y100330000D03*
%TD*%
D10*
%TO.C,D1*%
X163830000Y100330000D03*
D11*
X171450000Y100330000D03*
%TD*%
D17*
%TO.C,C8*%
X167640000Y94520000D03*
D18*
X167640000Y96520000D03*
%TD*%
D14*
%TO.C,C7*%
X248920000Y92115000D03*
X248920000Y94615000D03*
%TD*%
%TO.C,C6*%
X223520000Y92075000D03*
X223520000Y94575000D03*
%TD*%
%TO.C,C4*%
X262890000Y117515000D03*
X262890000Y120015000D03*
%TD*%
%TO.C,C3*%
X217805000Y118745000D03*
X217805000Y121245000D03*
%TD*%
%TO.C,C2*%
X175300000Y102870000D03*
X177800000Y102870000D03*
%TD*%
%TO.C,C1*%
X157480000Y78740000D03*
X157480000Y81240000D03*
%TD*%
%TO.C,R1*%
X180975000Y102870000D03*
D10*
X180975000Y95250000D03*
%TD*%
%TO.C,R2*%
X160655000Y86360000D03*
D14*
X168275000Y86360000D03*
%TD*%
D19*
%TO.C,SW1*%
X161290000Y78050000D03*
X161290000Y82550000D03*
X167790000Y78050000D03*
X167790000Y82550000D03*
%TD*%
D11*
%TO.C,U1*%
X160020000Y106045000D03*
D10*
X208280000Y121285000D03*
X162560000Y106045000D03*
X205740000Y121285000D03*
X165100000Y106045000D03*
X203200000Y121285000D03*
X167640000Y106045000D03*
X200660000Y121285000D03*
X170180000Y106045000D03*
X198120000Y121285000D03*
X172720000Y106045000D03*
X195580000Y121285000D03*
X175260000Y106045000D03*
X193040000Y121285000D03*
X177800000Y106045000D03*
X190500000Y121285000D03*
X180340000Y106045000D03*
X187960000Y121285000D03*
X182880000Y106045000D03*
X185420000Y121285000D03*
X185420000Y106045000D03*
X182880000Y121285000D03*
X187960000Y106045000D03*
X180340000Y121285000D03*
X190500000Y106045000D03*
X177800000Y121285000D03*
X193040000Y106045000D03*
X175260000Y121285000D03*
X195580000Y106045000D03*
X172720000Y121285000D03*
X198120000Y106045000D03*
X170180000Y121285000D03*
X200660000Y106045000D03*
X167640000Y121285000D03*
X203200000Y106045000D03*
X165100000Y121285000D03*
X205740000Y106045000D03*
X162560000Y121285000D03*
X208280000Y106045000D03*
X160020000Y121285000D03*
%TD*%
D11*
%TO.C,U4*%
X252095000Y86995000D03*
D10*
X269875000Y94615000D03*
X254635000Y86995000D03*
X267335000Y94615000D03*
X257175000Y86995000D03*
X264795000Y94615000D03*
X259715000Y86995000D03*
X262255000Y94615000D03*
X262255000Y86995000D03*
X259715000Y94615000D03*
X264795000Y86995000D03*
X257175000Y94615000D03*
X267335000Y86995000D03*
X254635000Y94615000D03*
X269875000Y86995000D03*
X252095000Y94615000D03*
%TD*%
D13*
%TO.C,J4*%
X311150000Y99060000D03*
D12*
X313690000Y99060000D03*
X311150000Y96520000D03*
X313690000Y96520000D03*
X311150000Y93980000D03*
X313690000Y93980000D03*
X311150000Y91440000D03*
X313690000Y91440000D03*
X311150000Y88900000D03*
X313690000Y88900000D03*
X311150000Y86360000D03*
X313690000Y86360000D03*
X311150000Y83820000D03*
X313690000Y83820000D03*
X311150000Y81280000D03*
X313690000Y81280000D03*
X311150000Y78740000D03*
X313690000Y78740000D03*
X311150000Y76200000D03*
X313690000Y76200000D03*
%TD*%
D13*
%TO.C,J8*%
X186055000Y92075000D03*
D12*
X188595000Y92075000D03*
X191135000Y92075000D03*
%TD*%
D11*
%TO.C,X1*%
X177165000Y79375000D03*
D14*
X177165000Y86995000D03*
X192405000Y86995000D03*
X192405000Y79375000D03*
%TD*%
M02*
