%FSLAX45Y45*%
G04 Gerber Fmt 4.5, Leading zero omitted, Abs format (unit mm)*
G04 Created by KiCad (PCBNEW (5.1.9-0-10_14)) date 2021-04-28 18:13:41*
%MOMM*%
%LPD*%
G01*
G04 APERTURE LIST*
%TA.AperFunction,Profile*%
%ADD10C,0.050000*%
%TD*%
%ADD11C,0.200000*%
%ADD12C,0.300000*%
G04 APERTURE END LIST*
D10*
X15367000Y7302500D02*
X15367000Y12763500D01*
X31877000Y7302500D02*
X15367000Y7302500D01*
X31877000Y12763500D02*
X31877000Y7302500D01*
X15367000Y12763500D02*
X31877000Y12763500D01*
D11*
X22159200Y10378200D02*
X22189200Y10348200D01*
X22189200Y10378200D02*
X22159200Y10348200D01*
X22311600Y10251200D02*
X22341600Y10221200D01*
X22341600Y10251200D02*
X22311600Y10221200D01*
X22845000Y7685800D02*
X22875000Y7655800D01*
X22875000Y7685800D02*
X22845000Y7655800D01*
X20683364Y11685534D02*
G75*
G03*
X20683364Y11685534I-20000J0D01*
G01*
X20784500Y11675000D02*
G75*
G03*
X20784500Y11675000I-20000J0D01*
G01*
X20860384Y11609872D02*
G75*
G03*
X20860384Y11609872I-20000J0D01*
G01*
X20920500Y11502500D02*
G75*
G03*
X20920500Y11502500I-20000J0D01*
G01*
X21038500Y11557000D02*
G75*
G03*
X21038500Y11557000I-20000J0D01*
G01*
X21483000Y11820000D02*
G75*
G03*
X21483000Y11820000I-20000J0D01*
G01*
X21610000Y10559000D02*
G75*
G03*
X21610000Y10559000I-20000J0D01*
G01*
X22245000Y11756500D02*
G75*
G03*
X22245000Y11756500I-20000J0D01*
G01*
X22562500Y7429500D02*
G75*
G03*
X22562500Y7429500I-20000J0D01*
G01*
X23388000Y8128000D02*
G75*
G03*
X23388000Y8128000I-20000J0D01*
G01*
X24023000Y9017000D02*
G75*
G03*
X24023000Y9017000I-20000J0D01*
G01*
X24150000Y8445500D02*
G75*
G03*
X24150000Y8445500I-20000J0D01*
G01*
X25610500Y8382000D02*
G75*
G03*
X25610500Y8382000I-20000J0D01*
G01*
X26245500Y8953500D02*
G75*
G03*
X26245500Y8953500I-20000J0D01*
G01*
X26563000Y8509000D02*
G75*
G03*
X26563000Y8509000I-20000J0D01*
G01*
X26753500Y8445500D02*
G75*
G03*
X26753500Y8445500I-20000J0D01*
G01*
X27134500Y11303000D02*
G75*
G03*
X27134500Y11303000I-20000J0D01*
G01*
X28161715Y7926285D02*
G75*
G03*
X28161715Y7926285I-20000J0D01*
G01*
X16764000Y9682000D02*
X16764000Y9622000D01*
X16734000Y9652000D02*
X16794000Y9652000D01*
X16764000Y9482000D02*
X16764000Y9422000D01*
X16734000Y9452000D02*
X16794000Y9452000D01*
X15776284Y8095715D02*
X15776284Y8152284D01*
X15719715Y8152284D01*
X15719715Y8095715D01*
X15776284Y8095715D01*
X15776284Y7845715D02*
X15776284Y7902284D01*
X15719715Y7902284D01*
X15719715Y7845715D01*
X15776284Y7845715D01*
X16030284Y12100215D02*
X16030284Y12156784D01*
X15973715Y12156784D01*
X15973715Y12100215D01*
X16030284Y12100215D01*
X16030284Y10576216D02*
X16030284Y10632785D01*
X15973715Y10632785D01*
X15973715Y10576216D01*
X16030284Y10576216D01*
X16093784Y8607716D02*
X16093784Y8664285D01*
X16037215Y8664285D01*
X16037215Y8607716D01*
X16093784Y8607716D01*
X16284284Y12100215D02*
X16284284Y12156784D01*
X16227715Y12156784D01*
X16227715Y12100215D01*
X16284284Y12100215D01*
X16284284Y10576216D02*
X16284284Y10632785D01*
X16227715Y10632785D01*
X16227715Y10576216D01*
X16284284Y10576216D01*
X16411284Y10004716D02*
X16411284Y10061285D01*
X16354715Y10061285D01*
X16354715Y10004716D01*
X16411284Y10004716D01*
X16538284Y12100215D02*
X16538284Y12156784D01*
X16481715Y12156784D01*
X16481715Y12100215D01*
X16538284Y12100215D01*
X16538284Y10576216D02*
X16538284Y10632785D01*
X16481715Y10632785D01*
X16481715Y10576216D01*
X16538284Y10576216D01*
X16792285Y12100215D02*
X16792285Y12156784D01*
X16735715Y12156784D01*
X16735715Y12100215D01*
X16792285Y12100215D01*
X16792285Y10576216D02*
X16792285Y10632785D01*
X16735715Y10632785D01*
X16735715Y10576216D01*
X16792285Y10576216D01*
X16855785Y8607716D02*
X16855785Y8664285D01*
X16799216Y8664285D01*
X16799216Y8607716D01*
X16855785Y8607716D01*
X17046285Y12100215D02*
X17046285Y12156784D01*
X16989716Y12156784D01*
X16989716Y12100215D01*
X17046285Y12100215D01*
X17046285Y10576216D02*
X17046285Y10632785D01*
X16989716Y10632785D01*
X16989716Y10576216D01*
X17046285Y10576216D01*
X17173285Y10004716D02*
X17173285Y10061285D01*
X17116716Y10061285D01*
X17116716Y10004716D01*
X17173285Y10004716D01*
X17300285Y12100215D02*
X17300285Y12156784D01*
X17243716Y12156784D01*
X17243716Y12100215D01*
X17300285Y12100215D01*
X17300285Y10576216D02*
X17300285Y10632785D01*
X17243716Y10632785D01*
X17243716Y10576216D01*
X17300285Y10576216D01*
X17554285Y12100215D02*
X17554285Y12156784D01*
X17497716Y12156784D01*
X17497716Y12100215D01*
X17554285Y12100215D01*
X17554285Y10576216D02*
X17554285Y10632785D01*
X17497716Y10632785D01*
X17497716Y10576216D01*
X17554285Y10576216D01*
X17558285Y10258716D02*
X17558285Y10315285D01*
X17501716Y10315285D01*
X17501716Y10258716D01*
X17558285Y10258716D01*
X17744785Y8671216D02*
X17744785Y8727785D01*
X17688216Y8727785D01*
X17688216Y8671216D01*
X17744785Y8671216D01*
X17744785Y7909215D02*
X17744785Y7965784D01*
X17688216Y7965784D01*
X17688216Y7909215D01*
X17744785Y7909215D01*
X17808285Y12100215D02*
X17808285Y12156784D01*
X17751716Y12156784D01*
X17751716Y12100215D01*
X17808285Y12100215D01*
X17808285Y10576216D02*
X17808285Y10632785D01*
X17751716Y10632785D01*
X17751716Y10576216D01*
X17808285Y10576216D01*
X17808285Y10258716D02*
X17808285Y10315285D01*
X17751716Y10315285D01*
X17751716Y10258716D01*
X17808285Y10258716D01*
X18062285Y12100215D02*
X18062285Y12156784D01*
X18005716Y12156784D01*
X18005716Y12100215D01*
X18062285Y12100215D01*
X18062285Y10576216D02*
X18062285Y10632785D01*
X18005716Y10632785D01*
X18005716Y10576216D01*
X18062285Y10576216D01*
X18125785Y10258716D02*
X18125785Y10315285D01*
X18069216Y10315285D01*
X18069216Y10258716D01*
X18125785Y10258716D01*
X18125785Y9496716D02*
X18125785Y9553285D01*
X18069216Y9553285D01*
X18069216Y9496716D01*
X18125785Y9496716D01*
X18316285Y12100215D02*
X18316285Y12156784D01*
X18259716Y12156784D01*
X18259716Y12100215D01*
X18316285Y12100215D01*
X18316285Y10576216D02*
X18316285Y10632785D01*
X18259716Y10632785D01*
X18259716Y10576216D01*
X18316285Y10576216D01*
X18506785Y10258716D02*
X18506785Y10315285D01*
X18450216Y10315285D01*
X18450216Y10258716D01*
X18506785Y10258716D01*
X18506785Y9496716D02*
X18506785Y9553285D01*
X18450216Y9553285D01*
X18450216Y9496716D01*
X18506785Y9496716D01*
X18570285Y12100215D02*
X18570285Y12156784D01*
X18513716Y12156784D01*
X18513716Y12100215D01*
X18570285Y12100215D01*
X18570285Y10576216D02*
X18570285Y10632785D01*
X18513716Y10632785D01*
X18513716Y10576216D01*
X18570285Y10576216D01*
X18824285Y12100215D02*
X18824285Y12156784D01*
X18767716Y12156784D01*
X18767716Y12100215D01*
X18824285Y12100215D01*
X18824285Y10576216D02*
X18824285Y10632785D01*
X18767716Y10632785D01*
X18767716Y10576216D01*
X18824285Y10576216D01*
X18887785Y10258716D02*
X18887785Y10315285D01*
X18831216Y10315285D01*
X18831216Y10258716D01*
X18887785Y10258716D01*
X18887785Y9496716D02*
X18887785Y9553285D01*
X18831216Y9553285D01*
X18831216Y9496716D01*
X18887785Y9496716D01*
X19078285Y12100215D02*
X19078285Y12156784D01*
X19021716Y12156784D01*
X19021716Y12100215D01*
X19078285Y12100215D01*
X19078285Y10576216D02*
X19078285Y10632785D01*
X19021716Y10632785D01*
X19021716Y10576216D01*
X19078285Y10576216D01*
X19268785Y10258716D02*
X19268785Y10315285D01*
X19212216Y10315285D01*
X19212216Y10258716D01*
X19268785Y10258716D01*
X19268785Y9496716D02*
X19268785Y9553285D01*
X19212216Y9553285D01*
X19212216Y9496716D01*
X19268785Y9496716D01*
X19268785Y8671216D02*
X19268785Y8727785D01*
X19212216Y8727785D01*
X19212216Y8671216D01*
X19268785Y8671216D01*
X19268785Y7909215D02*
X19268785Y7965784D01*
X19212216Y7965784D01*
X19212216Y7909215D01*
X19268785Y7909215D01*
X19332285Y12100215D02*
X19332285Y12156784D01*
X19275716Y12156784D01*
X19275716Y12100215D01*
X19332285Y12100215D01*
X19332285Y10576216D02*
X19332285Y10632785D01*
X19275716Y10632785D01*
X19275716Y10576216D01*
X19332285Y10576216D01*
X19586285Y12100215D02*
X19586285Y12156784D01*
X19529716Y12156784D01*
X19529716Y12100215D01*
X19586285Y12100215D01*
X19586285Y10576216D02*
X19586285Y10632785D01*
X19529716Y10632785D01*
X19529716Y10576216D01*
X19586285Y10576216D01*
X19649785Y10258716D02*
X19649785Y10315285D01*
X19593216Y10315285D01*
X19593216Y10258716D01*
X19649785Y10258716D01*
X19649785Y9496716D02*
X19649785Y9553285D01*
X19593216Y9553285D01*
X19593216Y9496716D01*
X19649785Y9496716D01*
X19840285Y12100215D02*
X19840285Y12156784D01*
X19783716Y12156784D01*
X19783716Y12100215D01*
X19840285Y12100215D01*
X19840285Y10576216D02*
X19840285Y10632785D01*
X19783716Y10632785D01*
X19783716Y10576216D01*
X19840285Y10576216D01*
X19967285Y9433216D02*
X19967285Y9489785D01*
X19910716Y9489785D01*
X19910716Y9433216D01*
X19967285Y9433216D01*
X19967285Y9183216D02*
X19967285Y9239785D01*
X19910716Y9239785D01*
X19910716Y9183216D01*
X19967285Y9183216D01*
X20094285Y12100215D02*
X20094285Y12156784D01*
X20037716Y12156784D01*
X20037716Y12100215D01*
X20094285Y12100215D01*
X20094285Y10576216D02*
X20094285Y10632785D01*
X20037716Y10632785D01*
X20037716Y10576216D01*
X20094285Y10576216D01*
X20272085Y9420516D02*
X20272085Y9477085D01*
X20215516Y9477085D01*
X20215516Y9420516D01*
X20272085Y9420516D01*
X20272085Y8658516D02*
X20272085Y8715085D01*
X20215516Y8715085D01*
X20215516Y8658516D01*
X20272085Y8658516D01*
X20348285Y12100215D02*
X20348285Y12156784D01*
X20291716Y12156784D01*
X20291716Y12100215D01*
X20348285Y12100215D01*
X20348285Y10576216D02*
X20348285Y10632785D01*
X20291716Y10632785D01*
X20291716Y10576216D01*
X20348285Y10576216D01*
X20526085Y9420516D02*
X20526085Y9477085D01*
X20469516Y9477085D01*
X20469516Y9420516D01*
X20526085Y9420516D01*
X20526085Y8658516D02*
X20526085Y8715085D01*
X20469516Y8715085D01*
X20469516Y8658516D01*
X20526085Y8658516D01*
X20602285Y12100215D02*
X20602285Y12156784D01*
X20545716Y12156784D01*
X20545716Y12100215D01*
X20602285Y12100215D01*
X20602285Y10576216D02*
X20602285Y10632785D01*
X20545716Y10632785D01*
X20545716Y10576216D01*
X20602285Y10576216D01*
X20780085Y9420516D02*
X20780085Y9477085D01*
X20723516Y9477085D01*
X20723516Y9420516D01*
X20780085Y9420516D01*
X20780085Y8658516D02*
X20780085Y8715085D01*
X20723516Y8715085D01*
X20723516Y8658516D01*
X20780085Y8658516D01*
X20856285Y12100215D02*
X20856285Y12156784D01*
X20799716Y12156784D01*
X20799716Y12100215D01*
X20856285Y12100215D01*
X20856285Y10576216D02*
X20856285Y10632785D01*
X20799716Y10632785D01*
X20799716Y10576216D01*
X20856285Y10576216D01*
X21034085Y9420516D02*
X21034085Y9477085D01*
X20977516Y9477085D01*
X20977516Y9420516D01*
X21034085Y9420516D01*
X21034085Y8658516D02*
X21034085Y8715085D01*
X20977516Y8715085D01*
X20977516Y8658516D01*
X21034085Y8658516D01*
X21288085Y9420516D02*
X21288085Y9477085D01*
X21231516Y9477085D01*
X21231516Y9420516D01*
X21288085Y9420516D01*
X21288085Y8658516D02*
X21288085Y8715085D01*
X21231516Y8715085D01*
X21231516Y8658516D01*
X21288085Y8658516D01*
X21542085Y9420516D02*
X21542085Y9477085D01*
X21485516Y9477085D01*
X21485516Y9420516D01*
X21542085Y9420516D01*
X21542085Y8658516D02*
X21542085Y8715085D01*
X21485516Y8715085D01*
X21485516Y8658516D01*
X21542085Y8658516D01*
X21796085Y9420516D02*
X21796085Y9477085D01*
X21739516Y9477085D01*
X21739516Y9420516D01*
X21796085Y9420516D01*
X21796085Y8658516D02*
X21796085Y8715085D01*
X21739516Y8715085D01*
X21739516Y8658516D01*
X21796085Y8658516D01*
X21808785Y12096215D02*
X21808785Y12152784D01*
X21752216Y12152784D01*
X21752216Y12096215D01*
X21808785Y12096215D01*
X21808785Y11846215D02*
X21808785Y11902784D01*
X21752216Y11902784D01*
X21752216Y11846215D01*
X21808785Y11846215D01*
X22050085Y9420516D02*
X22050085Y9477085D01*
X21993516Y9477085D01*
X21993516Y9420516D01*
X22050085Y9420516D01*
X22050085Y8658516D02*
X22050085Y8715085D01*
X21993516Y8715085D01*
X21993516Y8658516D01*
X22050085Y8658516D01*
X22126285Y12100215D02*
X22126285Y12156784D01*
X22069716Y12156784D01*
X22069716Y12100215D01*
X22126285Y12100215D01*
X22126285Y10576216D02*
X22126285Y10632785D01*
X22069716Y10632785D01*
X22069716Y10576216D01*
X22126285Y10576216D01*
X22380284Y12100215D02*
X22380284Y12156784D01*
X22323716Y12156784D01*
X22323716Y12100215D01*
X22380284Y12100215D01*
X22380284Y10576216D02*
X22380284Y10632785D01*
X22323716Y10632785D01*
X22323716Y10576216D01*
X22380284Y10576216D01*
X22380284Y9429216D02*
X22380284Y9485785D01*
X22323716Y9485785D01*
X22323716Y9429216D01*
X22380284Y9429216D01*
X22380284Y9179216D02*
X22380284Y9235785D01*
X22323716Y9235785D01*
X22323716Y9179216D01*
X22380284Y9179216D01*
X22634284Y12100215D02*
X22634284Y12156784D01*
X22577715Y12156784D01*
X22577715Y12100215D01*
X22634284Y12100215D01*
X22634284Y10576216D02*
X22634284Y10632785D01*
X22577715Y10632785D01*
X22577715Y10576216D01*
X22634284Y10576216D01*
X22697784Y9433216D02*
X22697784Y9489785D01*
X22641215Y9489785D01*
X22641215Y9433216D01*
X22697784Y9433216D01*
X22697784Y8671216D02*
X22697784Y8727785D01*
X22641215Y8727785D01*
X22641215Y8671216D01*
X22697784Y8671216D01*
X22888284Y12100215D02*
X22888284Y12156784D01*
X22831715Y12156784D01*
X22831715Y12100215D01*
X22888284Y12100215D01*
X22888284Y10576216D02*
X22888284Y10632785D01*
X22831715Y10632785D01*
X22831715Y10576216D01*
X22888284Y10576216D01*
X22951784Y9433216D02*
X22951784Y9489785D01*
X22895215Y9489785D01*
X22895215Y9433216D01*
X22951784Y9433216D01*
X22951784Y8671216D02*
X22951784Y8727785D01*
X22895215Y8727785D01*
X22895215Y8671216D01*
X22951784Y8671216D01*
X23142284Y12100215D02*
X23142284Y12156784D01*
X23085715Y12156784D01*
X23085715Y12100215D01*
X23142284Y12100215D01*
X23142284Y10576216D02*
X23142284Y10632785D01*
X23085715Y10632785D01*
X23085715Y10576216D01*
X23142284Y10576216D01*
X23205784Y9433216D02*
X23205784Y9489785D01*
X23149215Y9489785D01*
X23149215Y9433216D01*
X23205784Y9433216D01*
X23205784Y8671216D02*
X23205784Y8727785D01*
X23149215Y8727785D01*
X23149215Y8671216D01*
X23205784Y8671216D01*
X23396284Y12100215D02*
X23396284Y12156784D01*
X23339715Y12156784D01*
X23339715Y12100215D01*
X23396284Y12100215D01*
X23396284Y10576216D02*
X23396284Y10632785D01*
X23339715Y10632785D01*
X23339715Y10576216D01*
X23396284Y10576216D01*
X23459784Y9433216D02*
X23459784Y9489785D01*
X23403215Y9489785D01*
X23403215Y9433216D01*
X23459784Y9433216D01*
X23459784Y8671216D02*
X23459784Y8727785D01*
X23403215Y8727785D01*
X23403215Y8671216D01*
X23459784Y8671216D01*
X23650284Y12100215D02*
X23650284Y12156784D01*
X23593715Y12156784D01*
X23593715Y12100215D01*
X23650284Y12100215D01*
X23650284Y10576216D02*
X23650284Y10632785D01*
X23593715Y10632785D01*
X23593715Y10576216D01*
X23650284Y10576216D01*
X23713784Y9433216D02*
X23713784Y9489785D01*
X23657215Y9489785D01*
X23657215Y9433216D01*
X23713784Y9433216D01*
X23713784Y8671216D02*
X23713784Y8727785D01*
X23657215Y8727785D01*
X23657215Y8671216D01*
X23713784Y8671216D01*
X23904284Y12100215D02*
X23904284Y12156784D01*
X23847715Y12156784D01*
X23847715Y12100215D01*
X23904284Y12100215D01*
X23904284Y10576216D02*
X23904284Y10632785D01*
X23847715Y10632785D01*
X23847715Y10576216D01*
X23904284Y10576216D01*
X23967784Y9433216D02*
X23967784Y9489785D01*
X23911215Y9489785D01*
X23911215Y9433216D01*
X23967784Y9433216D01*
X23967784Y8671216D02*
X23967784Y8727785D01*
X23911215Y8727785D01*
X23911215Y8671216D01*
X23967784Y8671216D01*
X24158284Y12100215D02*
X24158284Y12156784D01*
X24101715Y12156784D01*
X24101715Y12100215D01*
X24158284Y12100215D01*
X24158284Y10576216D02*
X24158284Y10632785D01*
X24101715Y10632785D01*
X24101715Y10576216D01*
X24158284Y10576216D01*
X24221784Y9433216D02*
X24221784Y9489785D01*
X24165215Y9489785D01*
X24165215Y9433216D01*
X24221784Y9433216D01*
X24221784Y8671216D02*
X24221784Y8727785D01*
X24165215Y8727785D01*
X24165215Y8671216D01*
X24221784Y8671216D01*
X24412284Y12100215D02*
X24412284Y12156784D01*
X24355715Y12156784D01*
X24355715Y12100215D01*
X24412284Y12100215D01*
X24412284Y10576216D02*
X24412284Y10632785D01*
X24355715Y10632785D01*
X24355715Y10576216D01*
X24412284Y10576216D01*
X24666284Y12100215D02*
X24666284Y12156784D01*
X24609715Y12156784D01*
X24609715Y12100215D01*
X24666284Y12100215D01*
X24666284Y10576216D02*
X24666284Y10632785D01*
X24609715Y10632785D01*
X24609715Y10576216D01*
X24666284Y10576216D01*
X24920284Y12100215D02*
X24920284Y12156784D01*
X24863715Y12156784D01*
X24863715Y12100215D01*
X24920284Y12100215D01*
X24920284Y10576216D02*
X24920284Y10632785D01*
X24863715Y10632785D01*
X24863715Y10576216D01*
X24920284Y10576216D01*
X24920284Y9433216D02*
X24920284Y9489785D01*
X24863715Y9489785D01*
X24863715Y9433216D01*
X24920284Y9433216D01*
X24920284Y9183216D02*
X24920284Y9239785D01*
X24863715Y9239785D01*
X24863715Y9183216D01*
X24920284Y9183216D01*
X25174284Y12100215D02*
X25174284Y12156784D01*
X25117715Y12156784D01*
X25117715Y12100215D01*
X25174284Y12100215D01*
X25174284Y10576216D02*
X25174284Y10632785D01*
X25117715Y10632785D01*
X25117715Y10576216D01*
X25174284Y10576216D01*
X25237784Y9433216D02*
X25237784Y9489785D01*
X25181215Y9489785D01*
X25181215Y9433216D01*
X25237784Y9433216D01*
X25237784Y8671216D02*
X25237784Y8727785D01*
X25181215Y8727785D01*
X25181215Y8671216D01*
X25237784Y8671216D01*
X25428284Y12100215D02*
X25428284Y12156784D01*
X25371715Y12156784D01*
X25371715Y12100215D01*
X25428284Y12100215D01*
X25428284Y10576216D02*
X25428284Y10632785D01*
X25371715Y10632785D01*
X25371715Y10576216D01*
X25428284Y10576216D01*
X25491784Y9433216D02*
X25491784Y9489785D01*
X25435215Y9489785D01*
X25435215Y9433216D01*
X25491784Y9433216D01*
X25491784Y8671216D02*
X25491784Y8727785D01*
X25435215Y8727785D01*
X25435215Y8671216D01*
X25491784Y8671216D01*
X25745784Y9433216D02*
X25745784Y9489785D01*
X25689215Y9489785D01*
X25689215Y9433216D01*
X25745784Y9433216D01*
X25745784Y8671216D02*
X25745784Y8727785D01*
X25689215Y8727785D01*
X25689215Y8671216D01*
X25745784Y8671216D01*
X25809284Y11465215D02*
X25809284Y11521784D01*
X25752715Y11521784D01*
X25752715Y11465215D01*
X25809284Y11465215D01*
X25809284Y10703216D02*
X25809284Y10759785D01*
X25752715Y10759785D01*
X25752715Y10703216D01*
X25809284Y10703216D01*
X25999784Y9433216D02*
X25999784Y9489785D01*
X25943215Y9489785D01*
X25943215Y9433216D01*
X25999784Y9433216D01*
X25999784Y8671216D02*
X25999784Y8727785D01*
X25943215Y8727785D01*
X25943215Y8671216D01*
X25999784Y8671216D01*
X26190284Y11465215D02*
X26190284Y11521784D01*
X26133715Y11521784D01*
X26133715Y11465215D01*
X26190284Y11465215D01*
X26190284Y10703216D02*
X26190284Y10759785D01*
X26133715Y10759785D01*
X26133715Y10703216D01*
X26190284Y10703216D01*
X26253784Y9433216D02*
X26253784Y9489785D01*
X26197215Y9489785D01*
X26197215Y9433216D01*
X26253784Y9433216D01*
X26253784Y8671216D02*
X26253784Y8727785D01*
X26197215Y8727785D01*
X26197215Y8671216D01*
X26253784Y8671216D01*
X26317284Y11973215D02*
X26317284Y12029784D01*
X26260715Y12029784D01*
X26260715Y11973215D01*
X26317284Y11973215D01*
X26317284Y11723215D02*
X26317284Y11779784D01*
X26260715Y11779784D01*
X26260715Y11723215D01*
X26317284Y11723215D01*
X26317284Y8226715D02*
X26317284Y8283284D01*
X26260715Y8283284D01*
X26260715Y8226715D01*
X26317284Y8226715D01*
X26507784Y9433216D02*
X26507784Y9489785D01*
X26451215Y9489785D01*
X26451215Y9433216D01*
X26507784Y9433216D01*
X26507784Y8671216D02*
X26507784Y8727785D01*
X26451215Y8727785D01*
X26451215Y8671216D01*
X26507784Y8671216D01*
X26761784Y9433216D02*
X26761784Y9489785D01*
X26705215Y9489785D01*
X26705215Y9433216D01*
X26761784Y9433216D01*
X26761784Y8671216D02*
X26761784Y8727785D01*
X26705215Y8727785D01*
X26705215Y8671216D01*
X26761784Y8671216D01*
X27015784Y9433216D02*
X27015784Y9489785D01*
X26959215Y9489785D01*
X26959215Y9433216D01*
X27015784Y9433216D01*
X27015784Y8671216D02*
X27015784Y8727785D01*
X26959215Y8727785D01*
X26959215Y8671216D01*
X27015784Y8671216D01*
X27079284Y8226715D02*
X27079284Y8283284D01*
X27022715Y8283284D01*
X27022715Y8226715D01*
X27079284Y8226715D01*
X27333284Y9179216D02*
X27333284Y9235785D01*
X27276715Y9235785D01*
X27276715Y9179216D01*
X27333284Y9179216D01*
X27333284Y8861716D02*
X27333284Y8918285D01*
X27276715Y8918285D01*
X27276715Y8861716D01*
X27333284Y8861716D01*
X27333284Y8544216D02*
X27333284Y8600785D01*
X27276715Y8600785D01*
X27276715Y8544216D01*
X27333284Y8544216D01*
X27333284Y8226715D02*
X27333284Y8283284D01*
X27276715Y8283284D01*
X27276715Y8226715D01*
X27333284Y8226715D01*
X28095284Y9179216D02*
X28095284Y9235785D01*
X28038715Y9235785D01*
X28038715Y9179216D01*
X28095284Y9179216D01*
X28095284Y8861716D02*
X28095284Y8918285D01*
X28038715Y8918285D01*
X28038715Y8861716D01*
X28095284Y8861716D01*
X28095284Y8544216D02*
X28095284Y8600785D01*
X28038715Y8600785D01*
X28038715Y8544216D01*
X28095284Y8544216D01*
X28095284Y8226715D02*
X28095284Y8283284D01*
X28038715Y8283284D01*
X28038715Y8226715D01*
X28095284Y8226715D01*
X16002000Y9983000D02*
X16052000Y10033000D01*
X16002000Y10083000D01*
X15952000Y10033000D01*
X16002000Y9983000D01*
X16002000Y9729000D02*
X16052000Y9779000D01*
X16002000Y9829000D01*
X15952000Y9779000D01*
X16002000Y9729000D01*
X18605500Y9157500D02*
X18655500Y9207500D01*
X18605500Y9257500D01*
X18555500Y9207500D01*
X18605500Y9157500D01*
X18859500Y9157500D02*
X18909500Y9207500D01*
X18859500Y9257500D01*
X18809500Y9207500D01*
X18859500Y9157500D01*
X19113500Y9157500D02*
X19163500Y9207500D01*
X19113500Y9257500D01*
X19063500Y9207500D01*
X19113500Y9157500D01*
X23241000Y7824000D02*
X23291000Y7874000D01*
X23241000Y7924000D01*
X23191000Y7874000D01*
X23241000Y7824000D01*
X23241000Y7570000D02*
X23291000Y7620000D01*
X23241000Y7670000D01*
X23191000Y7620000D01*
X23241000Y7570000D01*
X23495000Y7824000D02*
X23545000Y7874000D01*
X23495000Y7924000D01*
X23445000Y7874000D01*
X23495000Y7824000D01*
X23495000Y7570000D02*
X23545000Y7620000D01*
X23495000Y7670000D01*
X23445000Y7620000D01*
X23495000Y7570000D01*
X23749000Y7824000D02*
X23799000Y7874000D01*
X23749000Y7924000D01*
X23699000Y7874000D01*
X23749000Y7824000D01*
X23749000Y7570000D02*
X23799000Y7620000D01*
X23749000Y7670000D01*
X23699000Y7620000D01*
X23749000Y7570000D01*
X24003000Y7824000D02*
X24053000Y7874000D01*
X24003000Y7924000D01*
X23953000Y7874000D01*
X24003000Y7824000D01*
X24003000Y7570000D02*
X24053000Y7620000D01*
X24003000Y7670000D01*
X23953000Y7620000D01*
X24003000Y7570000D01*
X24257000Y7824000D02*
X24307000Y7874000D01*
X24257000Y7924000D01*
X24207000Y7874000D01*
X24257000Y7824000D01*
X24257000Y7570000D02*
X24307000Y7620000D01*
X24257000Y7670000D01*
X24207000Y7620000D01*
X24257000Y7570000D01*
X24511000Y7824000D02*
X24561000Y7874000D01*
X24511000Y7924000D01*
X24461000Y7874000D01*
X24511000Y7824000D01*
X24511000Y7570000D02*
X24561000Y7620000D01*
X24511000Y7670000D01*
X24461000Y7620000D01*
X24511000Y7570000D01*
X24765000Y7824000D02*
X24815000Y7874000D01*
X24765000Y7924000D01*
X24715000Y7874000D01*
X24765000Y7824000D01*
X24765000Y7570000D02*
X24815000Y7620000D01*
X24765000Y7670000D01*
X24715000Y7620000D01*
X24765000Y7570000D01*
X25019000Y7824000D02*
X25069000Y7874000D01*
X25019000Y7924000D01*
X24969000Y7874000D01*
X25019000Y7824000D01*
X25019000Y7570000D02*
X25069000Y7620000D01*
X25019000Y7670000D01*
X24969000Y7620000D01*
X25019000Y7570000D01*
X25273000Y7824000D02*
X25323000Y7874000D01*
X25273000Y7924000D01*
X25223000Y7874000D01*
X25273000Y7824000D01*
X25273000Y7570000D02*
X25323000Y7620000D01*
X25273000Y7670000D01*
X25223000Y7620000D01*
X25273000Y7570000D01*
X25527000Y7824000D02*
X25577000Y7874000D01*
X25527000Y7924000D01*
X25477000Y7874000D01*
X25527000Y7824000D01*
X25527000Y7570000D02*
X25577000Y7620000D01*
X25527000Y7670000D01*
X25477000Y7620000D01*
X25527000Y7570000D01*
X25781000Y7824000D02*
X25831000Y7874000D01*
X25781000Y7924000D01*
X25731000Y7874000D01*
X25781000Y7824000D01*
X25781000Y7570000D02*
X25831000Y7620000D01*
X25781000Y7670000D01*
X25731000Y7620000D01*
X25781000Y7570000D01*
X26035000Y7824000D02*
X26085000Y7874000D01*
X26035000Y7924000D01*
X25985000Y7874000D01*
X26035000Y7824000D01*
X26035000Y7570000D02*
X26085000Y7620000D01*
X26035000Y7670000D01*
X25985000Y7620000D01*
X26035000Y7570000D01*
X26289000Y7824000D02*
X26339000Y7874000D01*
X26289000Y7924000D01*
X26239000Y7874000D01*
X26289000Y7824000D01*
X26289000Y7570000D02*
X26339000Y7620000D01*
X26289000Y7670000D01*
X26239000Y7620000D01*
X26289000Y7570000D01*
X26543000Y7824000D02*
X26593000Y7874000D01*
X26543000Y7924000D01*
X26493000Y7874000D01*
X26543000Y7824000D01*
X26543000Y7570000D02*
X26593000Y7620000D01*
X26543000Y7670000D01*
X26493000Y7620000D01*
X26543000Y7570000D01*
X26797000Y7824000D02*
X26847000Y7874000D01*
X26797000Y7924000D01*
X26747000Y7874000D01*
X26797000Y7824000D01*
X26797000Y7570000D02*
X26847000Y7620000D01*
X26797000Y7670000D01*
X26747000Y7620000D01*
X26797000Y7570000D01*
X27051000Y7824000D02*
X27101000Y7874000D01*
X27051000Y7924000D01*
X27001000Y7874000D01*
X27051000Y7824000D01*
X27051000Y7570000D02*
X27101000Y7620000D01*
X27051000Y7670000D01*
X27001000Y7620000D01*
X27051000Y7570000D01*
X27305000Y7824000D02*
X27355000Y7874000D01*
X27305000Y7924000D01*
X27255000Y7874000D01*
X27305000Y7824000D01*
X27305000Y7570000D02*
X27355000Y7620000D01*
X27305000Y7670000D01*
X27255000Y7620000D01*
X27305000Y7570000D01*
X27559000Y12078500D02*
X27609000Y12128500D01*
X27559000Y12178500D01*
X27509000Y12128500D01*
X27559000Y12078500D01*
X27559000Y10554500D02*
X27609000Y10604500D01*
X27559000Y10654500D01*
X27509000Y10604500D01*
X27559000Y10554500D01*
X27559000Y7824000D02*
X27609000Y7874000D01*
X27559000Y7924000D01*
X27509000Y7874000D01*
X27559000Y7824000D01*
X27559000Y7570000D02*
X27609000Y7620000D01*
X27559000Y7670000D01*
X27509000Y7620000D01*
X27559000Y7570000D01*
X27813000Y12078500D02*
X27863000Y12128500D01*
X27813000Y12178500D01*
X27763000Y12128500D01*
X27813000Y12078500D01*
X27813000Y10554500D02*
X27863000Y10604500D01*
X27813000Y10654500D01*
X27763000Y10604500D01*
X27813000Y10554500D01*
X27813000Y7824000D02*
X27863000Y7874000D01*
X27813000Y7924000D01*
X27763000Y7874000D01*
X27813000Y7824000D01*
X27813000Y7570000D02*
X27863000Y7620000D01*
X27813000Y7670000D01*
X27763000Y7620000D01*
X27813000Y7570000D01*
X28067000Y12078500D02*
X28117000Y12128500D01*
X28067000Y12178500D01*
X28017000Y12128500D01*
X28067000Y12078500D01*
X28067000Y10554500D02*
X28117000Y10604500D01*
X28067000Y10654500D01*
X28017000Y10604500D01*
X28067000Y10554500D01*
X28321000Y12078500D02*
X28371000Y12128500D01*
X28321000Y12178500D01*
X28271000Y12128500D01*
X28321000Y12078500D01*
X28321000Y10554500D02*
X28371000Y10604500D01*
X28321000Y10654500D01*
X28271000Y10604500D01*
X28321000Y10554500D01*
X28448000Y9856000D02*
X28498000Y9906000D01*
X28448000Y9956000D01*
X28398000Y9906000D01*
X28448000Y9856000D01*
X28448000Y9602000D02*
X28498000Y9652000D01*
X28448000Y9702000D01*
X28398000Y9652000D01*
X28448000Y9602000D01*
X28448000Y9348000D02*
X28498000Y9398000D01*
X28448000Y9448000D01*
X28398000Y9398000D01*
X28448000Y9348000D01*
X28448000Y9094000D02*
X28498000Y9144000D01*
X28448000Y9194000D01*
X28398000Y9144000D01*
X28448000Y9094000D01*
X28448000Y8840000D02*
X28498000Y8890000D01*
X28448000Y8940000D01*
X28398000Y8890000D01*
X28448000Y8840000D01*
X28448000Y8586000D02*
X28498000Y8636000D01*
X28448000Y8686000D01*
X28398000Y8636000D01*
X28448000Y8586000D01*
X28448000Y8332000D02*
X28498000Y8382000D01*
X28448000Y8432000D01*
X28398000Y8382000D01*
X28448000Y8332000D01*
X28448000Y8078000D02*
X28498000Y8128000D01*
X28448000Y8178000D01*
X28398000Y8128000D01*
X28448000Y8078000D01*
X28448000Y7824000D02*
X28498000Y7874000D01*
X28448000Y7924000D01*
X28398000Y7874000D01*
X28448000Y7824000D01*
X28448000Y7570000D02*
X28498000Y7620000D01*
X28448000Y7670000D01*
X28398000Y7620000D01*
X28448000Y7570000D01*
X28575000Y12078500D02*
X28625000Y12128500D01*
X28575000Y12178500D01*
X28525000Y12128500D01*
X28575000Y12078500D01*
X28575000Y10554500D02*
X28625000Y10604500D01*
X28575000Y10654500D01*
X28525000Y10604500D01*
X28575000Y10554500D01*
X28702000Y9856000D02*
X28752000Y9906000D01*
X28702000Y9956000D01*
X28652000Y9906000D01*
X28702000Y9856000D01*
X28702000Y9602000D02*
X28752000Y9652000D01*
X28702000Y9702000D01*
X28652000Y9652000D01*
X28702000Y9602000D01*
X28702000Y9348000D02*
X28752000Y9398000D01*
X28702000Y9448000D01*
X28652000Y9398000D01*
X28702000Y9348000D01*
X28702000Y9094000D02*
X28752000Y9144000D01*
X28702000Y9194000D01*
X28652000Y9144000D01*
X28702000Y9094000D01*
X28702000Y8840000D02*
X28752000Y8890000D01*
X28702000Y8940000D01*
X28652000Y8890000D01*
X28702000Y8840000D01*
X28702000Y8586000D02*
X28752000Y8636000D01*
X28702000Y8686000D01*
X28652000Y8636000D01*
X28702000Y8586000D01*
X28702000Y8332000D02*
X28752000Y8382000D01*
X28702000Y8432000D01*
X28652000Y8382000D01*
X28702000Y8332000D01*
X28702000Y8078000D02*
X28752000Y8128000D01*
X28702000Y8178000D01*
X28652000Y8128000D01*
X28702000Y8078000D01*
X28702000Y7824000D02*
X28752000Y7874000D01*
X28702000Y7924000D01*
X28652000Y7874000D01*
X28702000Y7824000D01*
X28702000Y7570000D02*
X28752000Y7620000D01*
X28702000Y7670000D01*
X28652000Y7620000D01*
X28702000Y7570000D01*
X28829000Y12078500D02*
X28879000Y12128500D01*
X28829000Y12178500D01*
X28779000Y12128500D01*
X28829000Y12078500D01*
X28829000Y10554500D02*
X28879000Y10604500D01*
X28829000Y10654500D01*
X28779000Y10604500D01*
X28829000Y10554500D01*
X29083000Y12078500D02*
X29133000Y12128500D01*
X29083000Y12178500D01*
X29033000Y12128500D01*
X29083000Y12078500D01*
X29083000Y10554500D02*
X29133000Y10604500D01*
X29083000Y10654500D01*
X29033000Y10604500D01*
X29083000Y10554500D01*
X29337000Y12078500D02*
X29387000Y12128500D01*
X29337000Y12178500D01*
X29287000Y12128500D01*
X29337000Y12078500D01*
X29337000Y10554500D02*
X29387000Y10604500D01*
X29337000Y10654500D01*
X29287000Y10604500D01*
X29337000Y10554500D01*
X29337000Y9856000D02*
X29387000Y9906000D01*
X29337000Y9956000D01*
X29287000Y9906000D01*
X29337000Y9856000D01*
X29337000Y9602000D02*
X29387000Y9652000D01*
X29337000Y9702000D01*
X29287000Y9652000D01*
X29337000Y9602000D01*
X29337000Y9348000D02*
X29387000Y9398000D01*
X29337000Y9448000D01*
X29287000Y9398000D01*
X29337000Y9348000D01*
X29337000Y9094000D02*
X29387000Y9144000D01*
X29337000Y9194000D01*
X29287000Y9144000D01*
X29337000Y9094000D01*
X29337000Y8840000D02*
X29387000Y8890000D01*
X29337000Y8940000D01*
X29287000Y8890000D01*
X29337000Y8840000D01*
X29337000Y8586000D02*
X29387000Y8636000D01*
X29337000Y8686000D01*
X29287000Y8636000D01*
X29337000Y8586000D01*
X29337000Y8332000D02*
X29387000Y8382000D01*
X29337000Y8432000D01*
X29287000Y8382000D01*
X29337000Y8332000D01*
X29337000Y8078000D02*
X29387000Y8128000D01*
X29337000Y8178000D01*
X29287000Y8128000D01*
X29337000Y8078000D01*
X29337000Y7824000D02*
X29387000Y7874000D01*
X29337000Y7924000D01*
X29287000Y7874000D01*
X29337000Y7824000D01*
X29337000Y7570000D02*
X29387000Y7620000D01*
X29337000Y7670000D01*
X29287000Y7620000D01*
X29337000Y7570000D01*
X29591000Y12078500D02*
X29641000Y12128500D01*
X29591000Y12178500D01*
X29541000Y12128500D01*
X29591000Y12078500D01*
X29591000Y10554500D02*
X29641000Y10604500D01*
X29591000Y10654500D01*
X29541000Y10604500D01*
X29591000Y10554500D01*
X29591000Y9856000D02*
X29641000Y9906000D01*
X29591000Y9956000D01*
X29541000Y9906000D01*
X29591000Y9856000D01*
X29591000Y9602000D02*
X29641000Y9652000D01*
X29591000Y9702000D01*
X29541000Y9652000D01*
X29591000Y9602000D01*
X29591000Y9348000D02*
X29641000Y9398000D01*
X29591000Y9448000D01*
X29541000Y9398000D01*
X29591000Y9348000D01*
X29591000Y9094000D02*
X29641000Y9144000D01*
X29591000Y9194000D01*
X29541000Y9144000D01*
X29591000Y9094000D01*
X29591000Y8840000D02*
X29641000Y8890000D01*
X29591000Y8940000D01*
X29541000Y8890000D01*
X29591000Y8840000D01*
X29591000Y8586000D02*
X29641000Y8636000D01*
X29591000Y8686000D01*
X29541000Y8636000D01*
X29591000Y8586000D01*
X29591000Y8332000D02*
X29641000Y8382000D01*
X29591000Y8432000D01*
X29541000Y8382000D01*
X29591000Y8332000D01*
X29591000Y8078000D02*
X29641000Y8128000D01*
X29591000Y8178000D01*
X29541000Y8128000D01*
X29591000Y8078000D01*
X29591000Y7824000D02*
X29641000Y7874000D01*
X29591000Y7924000D01*
X29541000Y7874000D01*
X29591000Y7824000D01*
X29591000Y7570000D02*
X29641000Y7620000D01*
X29591000Y7670000D01*
X29541000Y7620000D01*
X29591000Y7570000D01*
X29845000Y12078500D02*
X29895000Y12128500D01*
X29845000Y12178500D01*
X29795000Y12128500D01*
X29845000Y12078500D01*
X29845000Y10554500D02*
X29895000Y10604500D01*
X29845000Y10654500D01*
X29795000Y10604500D01*
X29845000Y10554500D01*
X30099000Y12078500D02*
X30149000Y12128500D01*
X30099000Y12178500D01*
X30049000Y12128500D01*
X30099000Y12078500D01*
X30099000Y10554500D02*
X30149000Y10604500D01*
X30099000Y10654500D01*
X30049000Y10604500D01*
X30099000Y10554500D01*
X30226000Y9856000D02*
X30276000Y9906000D01*
X30226000Y9956000D01*
X30176000Y9906000D01*
X30226000Y9856000D01*
X30226000Y9602000D02*
X30276000Y9652000D01*
X30226000Y9702000D01*
X30176000Y9652000D01*
X30226000Y9602000D01*
X30226000Y9348000D02*
X30276000Y9398000D01*
X30226000Y9448000D01*
X30176000Y9398000D01*
X30226000Y9348000D01*
X30226000Y9094000D02*
X30276000Y9144000D01*
X30226000Y9194000D01*
X30176000Y9144000D01*
X30226000Y9094000D01*
X30226000Y8840000D02*
X30276000Y8890000D01*
X30226000Y8940000D01*
X30176000Y8890000D01*
X30226000Y8840000D01*
X30226000Y8586000D02*
X30276000Y8636000D01*
X30226000Y8686000D01*
X30176000Y8636000D01*
X30226000Y8586000D01*
X30226000Y8332000D02*
X30276000Y8382000D01*
X30226000Y8432000D01*
X30176000Y8382000D01*
X30226000Y8332000D01*
X30226000Y8078000D02*
X30276000Y8128000D01*
X30226000Y8178000D01*
X30176000Y8128000D01*
X30226000Y8078000D01*
X30226000Y7824000D02*
X30276000Y7874000D01*
X30226000Y7924000D01*
X30176000Y7874000D01*
X30226000Y7824000D01*
X30226000Y7570000D02*
X30276000Y7620000D01*
X30226000Y7670000D01*
X30176000Y7620000D01*
X30226000Y7570000D01*
X30353000Y12078500D02*
X30403000Y12128500D01*
X30353000Y12178500D01*
X30303000Y12128500D01*
X30353000Y12078500D01*
X30353000Y10554500D02*
X30403000Y10604500D01*
X30353000Y10654500D01*
X30303000Y10604500D01*
X30353000Y10554500D01*
X30480000Y9856000D02*
X30530000Y9906000D01*
X30480000Y9956000D01*
X30430000Y9906000D01*
X30480000Y9856000D01*
X30480000Y9602000D02*
X30530000Y9652000D01*
X30480000Y9702000D01*
X30430000Y9652000D01*
X30480000Y9602000D01*
X30480000Y9348000D02*
X30530000Y9398000D01*
X30480000Y9448000D01*
X30430000Y9398000D01*
X30480000Y9348000D01*
X30480000Y9094000D02*
X30530000Y9144000D01*
X30480000Y9194000D01*
X30430000Y9144000D01*
X30480000Y9094000D01*
X30480000Y8840000D02*
X30530000Y8890000D01*
X30480000Y8940000D01*
X30430000Y8890000D01*
X30480000Y8840000D01*
X30480000Y8586000D02*
X30530000Y8636000D01*
X30480000Y8686000D01*
X30430000Y8636000D01*
X30480000Y8586000D01*
X30480000Y8332000D02*
X30530000Y8382000D01*
X30480000Y8432000D01*
X30430000Y8382000D01*
X30480000Y8332000D01*
X30480000Y8078000D02*
X30530000Y8128000D01*
X30480000Y8178000D01*
X30430000Y8128000D01*
X30480000Y8078000D01*
X30480000Y7824000D02*
X30530000Y7874000D01*
X30480000Y7924000D01*
X30430000Y7874000D01*
X30480000Y7824000D01*
X30480000Y7570000D02*
X30530000Y7620000D01*
X30480000Y7670000D01*
X30430000Y7620000D01*
X30480000Y7570000D01*
X30607000Y12078500D02*
X30657000Y12128500D01*
X30607000Y12178500D01*
X30557000Y12128500D01*
X30607000Y12078500D01*
X30607000Y10554500D02*
X30657000Y10604500D01*
X30607000Y10654500D01*
X30557000Y10604500D01*
X30607000Y10554500D01*
X30861000Y12078500D02*
X30911000Y12128500D01*
X30861000Y12178500D01*
X30811000Y12128500D01*
X30861000Y12078500D01*
X30861000Y10554500D02*
X30911000Y10604500D01*
X30861000Y10654500D01*
X30811000Y10604500D01*
X30861000Y10554500D01*
X31115000Y9856000D02*
X31165000Y9906000D01*
X31115000Y9956000D01*
X31065000Y9906000D01*
X31115000Y9856000D01*
X31115000Y9602000D02*
X31165000Y9652000D01*
X31115000Y9702000D01*
X31065000Y9652000D01*
X31115000Y9602000D01*
X31115000Y9348000D02*
X31165000Y9398000D01*
X31115000Y9448000D01*
X31065000Y9398000D01*
X31115000Y9348000D01*
X31115000Y9094000D02*
X31165000Y9144000D01*
X31115000Y9194000D01*
X31065000Y9144000D01*
X31115000Y9094000D01*
X31115000Y8840000D02*
X31165000Y8890000D01*
X31115000Y8940000D01*
X31065000Y8890000D01*
X31115000Y8840000D01*
X31115000Y8586000D02*
X31165000Y8636000D01*
X31115000Y8686000D01*
X31065000Y8636000D01*
X31115000Y8586000D01*
X31115000Y8332000D02*
X31165000Y8382000D01*
X31115000Y8432000D01*
X31065000Y8382000D01*
X31115000Y8332000D01*
X31115000Y8078000D02*
X31165000Y8128000D01*
X31115000Y8178000D01*
X31065000Y8128000D01*
X31115000Y8078000D01*
X31115000Y7824000D02*
X31165000Y7874000D01*
X31115000Y7924000D01*
X31065000Y7874000D01*
X31115000Y7824000D01*
X31115000Y7570000D02*
X31165000Y7620000D01*
X31115000Y7670000D01*
X31065000Y7620000D01*
X31115000Y7570000D01*
X31369000Y9856000D02*
X31419000Y9906000D01*
X31369000Y9956000D01*
X31319000Y9906000D01*
X31369000Y9856000D01*
X31369000Y9602000D02*
X31419000Y9652000D01*
X31369000Y9702000D01*
X31319000Y9652000D01*
X31369000Y9602000D01*
X31369000Y9348000D02*
X31419000Y9398000D01*
X31369000Y9448000D01*
X31319000Y9398000D01*
X31369000Y9348000D01*
X31369000Y9094000D02*
X31419000Y9144000D01*
X31369000Y9194000D01*
X31319000Y9144000D01*
X31369000Y9094000D01*
X31369000Y8840000D02*
X31419000Y8890000D01*
X31369000Y8940000D01*
X31319000Y8890000D01*
X31369000Y8840000D01*
X31369000Y8586000D02*
X31419000Y8636000D01*
X31369000Y8686000D01*
X31319000Y8636000D01*
X31369000Y8586000D01*
X31369000Y8332000D02*
X31419000Y8382000D01*
X31369000Y8432000D01*
X31319000Y8382000D01*
X31369000Y8332000D01*
X31369000Y8078000D02*
X31419000Y8128000D01*
X31369000Y8178000D01*
X31319000Y8128000D01*
X31369000Y8078000D01*
X31369000Y7824000D02*
X31419000Y7874000D01*
X31369000Y7924000D01*
X31319000Y7874000D01*
X31369000Y7824000D01*
X31369000Y7570000D02*
X31419000Y7620000D01*
X31369000Y7670000D01*
X31319000Y7620000D01*
X31369000Y7570000D01*
X16074000Y8310000D02*
X16184000Y8200000D01*
X16184000Y8310000D02*
X16074000Y8200000D01*
X16184000Y8255000D02*
G75*
G03*
X16184000Y8255000I-55000J0D01*
G01*
X16074000Y7860000D02*
X16184000Y7750000D01*
X16184000Y7860000D02*
X16074000Y7750000D01*
X16184000Y7805000D02*
G75*
G03*
X16184000Y7805000I-55000J0D01*
G01*
X16724000Y8310000D02*
X16834000Y8200000D01*
X16834000Y8310000D02*
X16724000Y8200000D01*
X16834000Y8255000D02*
G75*
G03*
X16834000Y8255000I-55000J0D01*
G01*
X16724000Y7860000D02*
X16834000Y7750000D01*
X16834000Y7860000D02*
X16724000Y7750000D01*
X16834000Y7805000D02*
G75*
G03*
X16834000Y7805000I-55000J0D01*
G01*
D12*
X15650928Y6834286D02*
X15650928Y7134286D01*
X15722357Y7134286D01*
X15765214Y7120000D01*
X15793786Y7091428D01*
X15808071Y7062857D01*
X15822357Y7005714D01*
X15822357Y6962857D01*
X15808071Y6905714D01*
X15793786Y6877143D01*
X15765214Y6848571D01*
X15722357Y6834286D01*
X15650928Y6834286D01*
X15950928Y6834286D02*
X15950928Y7034286D01*
X15950928Y6977143D02*
X15965214Y7005714D01*
X15979500Y7020000D01*
X16008071Y7034286D01*
X16036643Y7034286D01*
X16136643Y6834286D02*
X16136643Y7034286D01*
X16136643Y7134286D02*
X16122357Y7120000D01*
X16136643Y7105714D01*
X16150928Y7120000D01*
X16136643Y7134286D01*
X16136643Y7105714D01*
X16322357Y6834286D02*
X16293786Y6848571D01*
X16279500Y6877143D01*
X16279500Y7134286D01*
X16479500Y6834286D02*
X16450928Y6848571D01*
X16436643Y6877143D01*
X16436643Y7134286D01*
X16822357Y6834286D02*
X16822357Y7134286D01*
X16922357Y6920000D01*
X17022357Y7134286D01*
X17022357Y6834286D01*
X17293786Y6834286D02*
X17293786Y6991428D01*
X17279500Y7020000D01*
X17250928Y7034286D01*
X17193786Y7034286D01*
X17165214Y7020000D01*
X17293786Y6848571D02*
X17265214Y6834286D01*
X17193786Y6834286D01*
X17165214Y6848571D01*
X17150928Y6877143D01*
X17150928Y6905714D01*
X17165214Y6934286D01*
X17193786Y6948571D01*
X17265214Y6948571D01*
X17293786Y6962857D01*
X17436643Y7034286D02*
X17436643Y6734286D01*
X17436643Y7020000D02*
X17465214Y7034286D01*
X17522357Y7034286D01*
X17550928Y7020000D01*
X17565214Y7005714D01*
X17579500Y6977143D01*
X17579500Y6891428D01*
X17565214Y6862857D01*
X17550928Y6848571D01*
X17522357Y6834286D01*
X17465214Y6834286D01*
X17436643Y6848571D01*
X17708071Y6862857D02*
X17722357Y6848571D01*
X17708071Y6834286D01*
X17693786Y6848571D01*
X17708071Y6862857D01*
X17708071Y6834286D01*
X17708071Y7020000D02*
X17722357Y7005714D01*
X17708071Y6991428D01*
X17693786Y7005714D01*
X17708071Y7020000D01*
X17708071Y6991428D01*
X15334500Y6355000D02*
X15364500Y6325000D01*
X15364500Y6355000D02*
X15334500Y6325000D01*
X15708071Y6504286D02*
X15736643Y6504286D01*
X15765214Y6490000D01*
X15779500Y6475714D01*
X15793786Y6447143D01*
X15808071Y6390000D01*
X15808071Y6318571D01*
X15793786Y6261428D01*
X15779500Y6232857D01*
X15765214Y6218571D01*
X15736643Y6204286D01*
X15708071Y6204286D01*
X15679500Y6218571D01*
X15665214Y6232857D01*
X15650928Y6261428D01*
X15636643Y6318571D01*
X15636643Y6390000D01*
X15650928Y6447143D01*
X15665214Y6475714D01*
X15679500Y6490000D01*
X15708071Y6504286D01*
X15936643Y6232857D02*
X15950928Y6218571D01*
X15936643Y6204286D01*
X15922357Y6218571D01*
X15936643Y6232857D01*
X15936643Y6204286D01*
X16050928Y6504286D02*
X16236643Y6504286D01*
X16136643Y6390000D01*
X16179500Y6390000D01*
X16208071Y6375714D01*
X16222357Y6361428D01*
X16236643Y6332857D01*
X16236643Y6261428D01*
X16222357Y6232857D01*
X16208071Y6218571D01*
X16179500Y6204286D01*
X16093786Y6204286D01*
X16065214Y6218571D01*
X16050928Y6232857D01*
X16422357Y6504286D02*
X16450928Y6504286D01*
X16479500Y6490000D01*
X16493786Y6475714D01*
X16508071Y6447143D01*
X16522357Y6390000D01*
X16522357Y6318571D01*
X16508071Y6261428D01*
X16493786Y6232857D01*
X16479500Y6218571D01*
X16450928Y6204286D01*
X16422357Y6204286D01*
X16393786Y6218571D01*
X16379500Y6232857D01*
X16365214Y6261428D01*
X16350928Y6318571D01*
X16350928Y6390000D01*
X16365214Y6447143D01*
X16379500Y6475714D01*
X16393786Y6490000D01*
X16422357Y6504286D01*
X16650928Y6204286D02*
X16650928Y6404286D01*
X16650928Y6375714D02*
X16665214Y6390000D01*
X16693786Y6404286D01*
X16736643Y6404286D01*
X16765214Y6390000D01*
X16779500Y6361428D01*
X16779500Y6204286D01*
X16779500Y6361428D02*
X16793786Y6390000D01*
X16822357Y6404286D01*
X16865214Y6404286D01*
X16893786Y6390000D01*
X16908071Y6361428D01*
X16908071Y6204286D01*
X17050928Y6204286D02*
X17050928Y6404286D01*
X17050928Y6375714D02*
X17065214Y6390000D01*
X17093786Y6404286D01*
X17136643Y6404286D01*
X17165214Y6390000D01*
X17179500Y6361428D01*
X17179500Y6204286D01*
X17179500Y6361428D02*
X17193786Y6390000D01*
X17222357Y6404286D01*
X17265214Y6404286D01*
X17293786Y6390000D01*
X17308071Y6361428D01*
X17308071Y6204286D01*
X17893786Y6518571D02*
X17636643Y6132857D01*
X18279500Y6504286D02*
X18308071Y6504286D01*
X18336643Y6490000D01*
X18350928Y6475714D01*
X18365214Y6447143D01*
X18379500Y6390000D01*
X18379500Y6318571D01*
X18365214Y6261428D01*
X18350928Y6232857D01*
X18336643Y6218571D01*
X18308071Y6204286D01*
X18279500Y6204286D01*
X18250928Y6218571D01*
X18236643Y6232857D01*
X18222357Y6261428D01*
X18208071Y6318571D01*
X18208071Y6390000D01*
X18222357Y6447143D01*
X18236643Y6475714D01*
X18250928Y6490000D01*
X18279500Y6504286D01*
X18508071Y6232857D02*
X18522357Y6218571D01*
X18508071Y6204286D01*
X18493786Y6218571D01*
X18508071Y6232857D01*
X18508071Y6204286D01*
X18708071Y6504286D02*
X18736643Y6504286D01*
X18765214Y6490000D01*
X18779500Y6475714D01*
X18793786Y6447143D01*
X18808071Y6390000D01*
X18808071Y6318571D01*
X18793786Y6261428D01*
X18779500Y6232857D01*
X18765214Y6218571D01*
X18736643Y6204286D01*
X18708071Y6204286D01*
X18679500Y6218571D01*
X18665214Y6232857D01*
X18650928Y6261428D01*
X18636643Y6318571D01*
X18636643Y6390000D01*
X18650928Y6447143D01*
X18665214Y6475714D01*
X18679500Y6490000D01*
X18708071Y6504286D01*
X19093786Y6204286D02*
X18922357Y6204286D01*
X19008071Y6204286D02*
X19008071Y6504286D01*
X18979500Y6461428D01*
X18950928Y6432857D01*
X18922357Y6418571D01*
X19208071Y6475714D02*
X19222357Y6490000D01*
X19250928Y6504286D01*
X19322357Y6504286D01*
X19350928Y6490000D01*
X19365214Y6475714D01*
X19379500Y6447143D01*
X19379500Y6418571D01*
X19365214Y6375714D01*
X19193786Y6204286D01*
X19379500Y6204286D01*
X19493786Y6504286D02*
X19493786Y6447143D01*
X19608071Y6504286D02*
X19608071Y6447143D01*
X20050928Y6090000D02*
X20036643Y6104286D01*
X20008071Y6147143D01*
X19993786Y6175714D01*
X19979500Y6218571D01*
X19965214Y6290000D01*
X19965214Y6347143D01*
X19979500Y6418571D01*
X19993786Y6461428D01*
X20008071Y6490000D01*
X20036643Y6532857D01*
X20050928Y6547143D01*
X20136643Y6504286D02*
X20322357Y6504286D01*
X20222357Y6390000D01*
X20265214Y6390000D01*
X20293786Y6375714D01*
X20308071Y6361428D01*
X20322357Y6332857D01*
X20322357Y6261428D01*
X20308071Y6232857D01*
X20293786Y6218571D01*
X20265214Y6204286D01*
X20179500Y6204286D01*
X20150928Y6218571D01*
X20136643Y6232857D01*
X20679500Y6204286D02*
X20679500Y6504286D01*
X20808071Y6204286D02*
X20808071Y6361428D01*
X20793786Y6390000D01*
X20765214Y6404286D01*
X20722357Y6404286D01*
X20693786Y6390000D01*
X20679500Y6375714D01*
X20993786Y6204286D02*
X20965214Y6218571D01*
X20950928Y6232857D01*
X20936643Y6261428D01*
X20936643Y6347143D01*
X20950928Y6375714D01*
X20965214Y6390000D01*
X20993786Y6404286D01*
X21036643Y6404286D01*
X21065214Y6390000D01*
X21079500Y6375714D01*
X21093786Y6347143D01*
X21093786Y6261428D01*
X21079500Y6232857D01*
X21065214Y6218571D01*
X21036643Y6204286D01*
X20993786Y6204286D01*
X21265214Y6204286D02*
X21236643Y6218571D01*
X21222357Y6247143D01*
X21222357Y6504286D01*
X21493786Y6218571D02*
X21465214Y6204286D01*
X21408071Y6204286D01*
X21379500Y6218571D01*
X21365214Y6247143D01*
X21365214Y6361428D01*
X21379500Y6390000D01*
X21408071Y6404286D01*
X21465214Y6404286D01*
X21493786Y6390000D01*
X21508071Y6361428D01*
X21508071Y6332857D01*
X21365214Y6304286D01*
X21622357Y6218571D02*
X21650928Y6204286D01*
X21708071Y6204286D01*
X21736643Y6218571D01*
X21750928Y6247143D01*
X21750928Y6261428D01*
X21736643Y6290000D01*
X21708071Y6304286D01*
X21665214Y6304286D01*
X21636643Y6318571D01*
X21622357Y6347143D01*
X21622357Y6361428D01*
X21636643Y6390000D01*
X21665214Y6404286D01*
X21708071Y6404286D01*
X21736643Y6390000D01*
X21850928Y6090000D02*
X21865214Y6104286D01*
X21893786Y6147143D01*
X21908071Y6175714D01*
X21922357Y6218571D01*
X21936643Y6290000D01*
X21936643Y6347143D01*
X21922357Y6418571D01*
X21908071Y6461428D01*
X21893786Y6490000D01*
X21865214Y6532857D01*
X21850928Y6547143D01*
X15364500Y5944000D02*
G75*
G03*
X15364500Y5944000I-20000J0D01*
G01*
X15708071Y6108286D02*
X15736643Y6108286D01*
X15765214Y6094000D01*
X15779500Y6079714D01*
X15793786Y6051143D01*
X15808071Y5994000D01*
X15808071Y5922571D01*
X15793786Y5865428D01*
X15779500Y5836857D01*
X15765214Y5822571D01*
X15736643Y5808286D01*
X15708071Y5808286D01*
X15679500Y5822571D01*
X15665214Y5836857D01*
X15650928Y5865428D01*
X15636643Y5922571D01*
X15636643Y5994000D01*
X15650928Y6051143D01*
X15665214Y6079714D01*
X15679500Y6094000D01*
X15708071Y6108286D01*
X15936643Y5836857D02*
X15950928Y5822571D01*
X15936643Y5808286D01*
X15922357Y5822571D01*
X15936643Y5836857D01*
X15936643Y5808286D01*
X16208071Y6008286D02*
X16208071Y5808286D01*
X16136643Y6122571D02*
X16065214Y5908286D01*
X16250928Y5908286D01*
X16422357Y6108286D02*
X16450928Y6108286D01*
X16479500Y6094000D01*
X16493786Y6079714D01*
X16508071Y6051143D01*
X16522357Y5994000D01*
X16522357Y5922571D01*
X16508071Y5865428D01*
X16493786Y5836857D01*
X16479500Y5822571D01*
X16450928Y5808286D01*
X16422357Y5808286D01*
X16393786Y5822571D01*
X16379500Y5836857D01*
X16365214Y5865428D01*
X16350928Y5922571D01*
X16350928Y5994000D01*
X16365214Y6051143D01*
X16379500Y6079714D01*
X16393786Y6094000D01*
X16422357Y6108286D01*
X16650928Y5808286D02*
X16650928Y6008286D01*
X16650928Y5979714D02*
X16665214Y5994000D01*
X16693786Y6008286D01*
X16736643Y6008286D01*
X16765214Y5994000D01*
X16779500Y5965428D01*
X16779500Y5808286D01*
X16779500Y5965428D02*
X16793786Y5994000D01*
X16822357Y6008286D01*
X16865214Y6008286D01*
X16893786Y5994000D01*
X16908071Y5965428D01*
X16908071Y5808286D01*
X17050928Y5808286D02*
X17050928Y6008286D01*
X17050928Y5979714D02*
X17065214Y5994000D01*
X17093786Y6008286D01*
X17136643Y6008286D01*
X17165214Y5994000D01*
X17179500Y5965428D01*
X17179500Y5808286D01*
X17179500Y5965428D02*
X17193786Y5994000D01*
X17222357Y6008286D01*
X17265214Y6008286D01*
X17293786Y5994000D01*
X17308071Y5965428D01*
X17308071Y5808286D01*
X17893786Y6122571D02*
X17636643Y5736857D01*
X18279500Y6108286D02*
X18308071Y6108286D01*
X18336643Y6094000D01*
X18350928Y6079714D01*
X18365214Y6051143D01*
X18379500Y5994000D01*
X18379500Y5922571D01*
X18365214Y5865428D01*
X18350928Y5836857D01*
X18336643Y5822571D01*
X18308071Y5808286D01*
X18279500Y5808286D01*
X18250928Y5822571D01*
X18236643Y5836857D01*
X18222357Y5865428D01*
X18208071Y5922571D01*
X18208071Y5994000D01*
X18222357Y6051143D01*
X18236643Y6079714D01*
X18250928Y6094000D01*
X18279500Y6108286D01*
X18508071Y5836857D02*
X18522357Y5822571D01*
X18508071Y5808286D01*
X18493786Y5822571D01*
X18508071Y5836857D01*
X18508071Y5808286D01*
X18708071Y6108286D02*
X18736643Y6108286D01*
X18765214Y6094000D01*
X18779500Y6079714D01*
X18793786Y6051143D01*
X18808071Y5994000D01*
X18808071Y5922571D01*
X18793786Y5865428D01*
X18779500Y5836857D01*
X18765214Y5822571D01*
X18736643Y5808286D01*
X18708071Y5808286D01*
X18679500Y5822571D01*
X18665214Y5836857D01*
X18650928Y5865428D01*
X18636643Y5922571D01*
X18636643Y5994000D01*
X18650928Y6051143D01*
X18665214Y6079714D01*
X18679500Y6094000D01*
X18708071Y6108286D01*
X19093786Y5808286D02*
X18922357Y5808286D01*
X19008071Y5808286D02*
X19008071Y6108286D01*
X18979500Y6065428D01*
X18950928Y6036857D01*
X18922357Y6022571D01*
X19350928Y6108286D02*
X19293786Y6108286D01*
X19265214Y6094000D01*
X19250928Y6079714D01*
X19222357Y6036857D01*
X19208071Y5979714D01*
X19208071Y5865428D01*
X19222357Y5836857D01*
X19236643Y5822571D01*
X19265214Y5808286D01*
X19322357Y5808286D01*
X19350928Y5822571D01*
X19365214Y5836857D01*
X19379500Y5865428D01*
X19379500Y5936857D01*
X19365214Y5965428D01*
X19350928Y5979714D01*
X19322357Y5994000D01*
X19265214Y5994000D01*
X19236643Y5979714D01*
X19222357Y5965428D01*
X19208071Y5936857D01*
X19493786Y6108286D02*
X19493786Y6051143D01*
X19608071Y6108286D02*
X19608071Y6051143D01*
X20050928Y5694000D02*
X20036643Y5708286D01*
X20008071Y5751143D01*
X19993786Y5779714D01*
X19979500Y5822571D01*
X19965214Y5894000D01*
X19965214Y5951143D01*
X19979500Y6022571D01*
X19993786Y6065428D01*
X20008071Y6094000D01*
X20036643Y6136857D01*
X20050928Y6151143D01*
X20322357Y5808286D02*
X20150928Y5808286D01*
X20236643Y5808286D02*
X20236643Y6108286D01*
X20208071Y6065428D01*
X20179500Y6036857D01*
X20150928Y6022571D01*
X20493786Y5979714D02*
X20465214Y5994000D01*
X20450928Y6008286D01*
X20436643Y6036857D01*
X20436643Y6051143D01*
X20450928Y6079714D01*
X20465214Y6094000D01*
X20493786Y6108286D01*
X20550928Y6108286D01*
X20579500Y6094000D01*
X20593786Y6079714D01*
X20608071Y6051143D01*
X20608071Y6036857D01*
X20593786Y6008286D01*
X20579500Y5994000D01*
X20550928Y5979714D01*
X20493786Y5979714D01*
X20465214Y5965428D01*
X20450928Y5951143D01*
X20436643Y5922571D01*
X20436643Y5865428D01*
X20450928Y5836857D01*
X20465214Y5822571D01*
X20493786Y5808286D01*
X20550928Y5808286D01*
X20579500Y5822571D01*
X20593786Y5836857D01*
X20608071Y5865428D01*
X20608071Y5922571D01*
X20593786Y5951143D01*
X20579500Y5965428D01*
X20550928Y5979714D01*
X20965214Y5808286D02*
X20965214Y6108286D01*
X21093786Y5808286D02*
X21093786Y5965428D01*
X21079500Y5994000D01*
X21050928Y6008286D01*
X21008071Y6008286D01*
X20979500Y5994000D01*
X20965214Y5979714D01*
X21279500Y5808286D02*
X21250928Y5822571D01*
X21236643Y5836857D01*
X21222357Y5865428D01*
X21222357Y5951143D01*
X21236643Y5979714D01*
X21250928Y5994000D01*
X21279500Y6008286D01*
X21322357Y6008286D01*
X21350928Y5994000D01*
X21365214Y5979714D01*
X21379500Y5951143D01*
X21379500Y5865428D01*
X21365214Y5836857D01*
X21350928Y5822571D01*
X21322357Y5808286D01*
X21279500Y5808286D01*
X21550928Y5808286D02*
X21522357Y5822571D01*
X21508071Y5851143D01*
X21508071Y6108286D01*
X21779500Y5822571D02*
X21750928Y5808286D01*
X21693786Y5808286D01*
X21665214Y5822571D01*
X21650928Y5851143D01*
X21650928Y5965428D01*
X21665214Y5994000D01*
X21693786Y6008286D01*
X21750928Y6008286D01*
X21779500Y5994000D01*
X21793786Y5965428D01*
X21793786Y5936857D01*
X21650928Y5908286D01*
X21908071Y5822571D02*
X21936643Y5808286D01*
X21993786Y5808286D01*
X22022357Y5822571D01*
X22036643Y5851143D01*
X22036643Y5865428D01*
X22022357Y5894000D01*
X21993786Y5908286D01*
X21950928Y5908286D01*
X21922357Y5922571D01*
X21908071Y5951143D01*
X21908071Y5965428D01*
X21922357Y5994000D01*
X21950928Y6008286D01*
X21993786Y6008286D01*
X22022357Y5994000D01*
X22136643Y5694000D02*
X22150928Y5708286D01*
X22179500Y5751143D01*
X22193786Y5779714D01*
X22208071Y5822571D01*
X22222357Y5894000D01*
X22222357Y5951143D01*
X22208071Y6022571D01*
X22193786Y6065428D01*
X22179500Y6094000D01*
X22150928Y6136857D01*
X22136643Y6151143D01*
X15334500Y5578000D02*
X15334500Y5518000D01*
X15304500Y5548000D02*
X15364500Y5548000D01*
X15708071Y5712286D02*
X15736643Y5712286D01*
X15765214Y5698000D01*
X15779500Y5683714D01*
X15793786Y5655143D01*
X15808071Y5598000D01*
X15808071Y5526571D01*
X15793786Y5469428D01*
X15779500Y5440857D01*
X15765214Y5426571D01*
X15736643Y5412286D01*
X15708071Y5412286D01*
X15679500Y5426571D01*
X15665214Y5440857D01*
X15650928Y5469428D01*
X15636643Y5526571D01*
X15636643Y5598000D01*
X15650928Y5655143D01*
X15665214Y5683714D01*
X15679500Y5698000D01*
X15708071Y5712286D01*
X15936643Y5440857D02*
X15950928Y5426571D01*
X15936643Y5412286D01*
X15922357Y5426571D01*
X15936643Y5440857D01*
X15936643Y5412286D01*
X16208071Y5712286D02*
X16150928Y5712286D01*
X16122357Y5698000D01*
X16108071Y5683714D01*
X16079500Y5640857D01*
X16065214Y5583714D01*
X16065214Y5469428D01*
X16079500Y5440857D01*
X16093786Y5426571D01*
X16122357Y5412286D01*
X16179500Y5412286D01*
X16208071Y5426571D01*
X16222357Y5440857D01*
X16236643Y5469428D01*
X16236643Y5540857D01*
X16222357Y5569428D01*
X16208071Y5583714D01*
X16179500Y5598000D01*
X16122357Y5598000D01*
X16093786Y5583714D01*
X16079500Y5569428D01*
X16065214Y5540857D01*
X16422357Y5712286D02*
X16450928Y5712286D01*
X16479500Y5698000D01*
X16493786Y5683714D01*
X16508071Y5655143D01*
X16522357Y5598000D01*
X16522357Y5526571D01*
X16508071Y5469428D01*
X16493786Y5440857D01*
X16479500Y5426571D01*
X16450928Y5412286D01*
X16422357Y5412286D01*
X16393786Y5426571D01*
X16379500Y5440857D01*
X16365214Y5469428D01*
X16350928Y5526571D01*
X16350928Y5598000D01*
X16365214Y5655143D01*
X16379500Y5683714D01*
X16393786Y5698000D01*
X16422357Y5712286D01*
X16650928Y5412286D02*
X16650928Y5612286D01*
X16650928Y5583714D02*
X16665214Y5598000D01*
X16693786Y5612286D01*
X16736643Y5612286D01*
X16765214Y5598000D01*
X16779500Y5569428D01*
X16779500Y5412286D01*
X16779500Y5569428D02*
X16793786Y5598000D01*
X16822357Y5612286D01*
X16865214Y5612286D01*
X16893786Y5598000D01*
X16908071Y5569428D01*
X16908071Y5412286D01*
X17050928Y5412286D02*
X17050928Y5612286D01*
X17050928Y5583714D02*
X17065214Y5598000D01*
X17093786Y5612286D01*
X17136643Y5612286D01*
X17165214Y5598000D01*
X17179500Y5569428D01*
X17179500Y5412286D01*
X17179500Y5569428D02*
X17193786Y5598000D01*
X17222357Y5612286D01*
X17265214Y5612286D01*
X17293786Y5598000D01*
X17308071Y5569428D01*
X17308071Y5412286D01*
X17893786Y5726571D02*
X17636643Y5340857D01*
X18279500Y5712286D02*
X18308071Y5712286D01*
X18336643Y5698000D01*
X18350928Y5683714D01*
X18365214Y5655143D01*
X18379500Y5598000D01*
X18379500Y5526571D01*
X18365214Y5469428D01*
X18350928Y5440857D01*
X18336643Y5426571D01*
X18308071Y5412286D01*
X18279500Y5412286D01*
X18250928Y5426571D01*
X18236643Y5440857D01*
X18222357Y5469428D01*
X18208071Y5526571D01*
X18208071Y5598000D01*
X18222357Y5655143D01*
X18236643Y5683714D01*
X18250928Y5698000D01*
X18279500Y5712286D01*
X18508071Y5440857D02*
X18522357Y5426571D01*
X18508071Y5412286D01*
X18493786Y5426571D01*
X18508071Y5440857D01*
X18508071Y5412286D01*
X18708071Y5712286D02*
X18736643Y5712286D01*
X18765214Y5698000D01*
X18779500Y5683714D01*
X18793786Y5655143D01*
X18808071Y5598000D01*
X18808071Y5526571D01*
X18793786Y5469428D01*
X18779500Y5440857D01*
X18765214Y5426571D01*
X18736643Y5412286D01*
X18708071Y5412286D01*
X18679500Y5426571D01*
X18665214Y5440857D01*
X18650928Y5469428D01*
X18636643Y5526571D01*
X18636643Y5598000D01*
X18650928Y5655143D01*
X18665214Y5683714D01*
X18679500Y5698000D01*
X18708071Y5712286D01*
X18922357Y5683714D02*
X18936643Y5698000D01*
X18965214Y5712286D01*
X19036643Y5712286D01*
X19065214Y5698000D01*
X19079500Y5683714D01*
X19093786Y5655143D01*
X19093786Y5626571D01*
X19079500Y5583714D01*
X18908071Y5412286D01*
X19093786Y5412286D01*
X19350928Y5612286D02*
X19350928Y5412286D01*
X19279500Y5726571D02*
X19208071Y5512286D01*
X19393786Y5512286D01*
X19493786Y5712286D02*
X19493786Y5655143D01*
X19608071Y5712286D02*
X19608071Y5655143D01*
X20050928Y5298000D02*
X20036643Y5312286D01*
X20008071Y5355143D01*
X19993786Y5383714D01*
X19979500Y5426571D01*
X19965214Y5498000D01*
X19965214Y5555143D01*
X19979500Y5626571D01*
X19993786Y5669428D01*
X20008071Y5698000D01*
X20036643Y5740857D01*
X20050928Y5755143D01*
X20150928Y5683714D02*
X20165214Y5698000D01*
X20193786Y5712286D01*
X20265214Y5712286D01*
X20293786Y5698000D01*
X20308071Y5683714D01*
X20322357Y5655143D01*
X20322357Y5626571D01*
X20308071Y5583714D01*
X20136643Y5412286D01*
X20322357Y5412286D01*
X20679500Y5412286D02*
X20679500Y5712286D01*
X20808071Y5412286D02*
X20808071Y5569428D01*
X20793786Y5598000D01*
X20765214Y5612286D01*
X20722357Y5612286D01*
X20693786Y5598000D01*
X20679500Y5583714D01*
X20993786Y5412286D02*
X20965214Y5426571D01*
X20950928Y5440857D01*
X20936643Y5469428D01*
X20936643Y5555143D01*
X20950928Y5583714D01*
X20965214Y5598000D01*
X20993786Y5612286D01*
X21036643Y5612286D01*
X21065214Y5598000D01*
X21079500Y5583714D01*
X21093786Y5555143D01*
X21093786Y5469428D01*
X21079500Y5440857D01*
X21065214Y5426571D01*
X21036643Y5412286D01*
X20993786Y5412286D01*
X21265214Y5412286D02*
X21236643Y5426571D01*
X21222357Y5455143D01*
X21222357Y5712286D01*
X21493786Y5426571D02*
X21465214Y5412286D01*
X21408071Y5412286D01*
X21379500Y5426571D01*
X21365214Y5455143D01*
X21365214Y5569428D01*
X21379500Y5598000D01*
X21408071Y5612286D01*
X21465214Y5612286D01*
X21493786Y5598000D01*
X21508071Y5569428D01*
X21508071Y5540857D01*
X21365214Y5512286D01*
X21622357Y5426571D02*
X21650928Y5412286D01*
X21708071Y5412286D01*
X21736643Y5426571D01*
X21750928Y5455143D01*
X21750928Y5469428D01*
X21736643Y5498000D01*
X21708071Y5512286D01*
X21665214Y5512286D01*
X21636643Y5526571D01*
X21622357Y5555143D01*
X21622357Y5569428D01*
X21636643Y5598000D01*
X21665214Y5612286D01*
X21708071Y5612286D01*
X21736643Y5598000D01*
X21850928Y5298000D02*
X21865214Y5312286D01*
X21893786Y5355143D01*
X21908071Y5383714D01*
X21922357Y5426571D01*
X21936643Y5498000D01*
X21936643Y5555143D01*
X21922357Y5626571D01*
X21908071Y5669428D01*
X21893786Y5698000D01*
X21865214Y5740857D01*
X21850928Y5755143D01*
X15352784Y5123715D02*
X15352784Y5180284D01*
X15296215Y5180284D01*
X15296215Y5123715D01*
X15352784Y5123715D01*
X15708071Y5316286D02*
X15736643Y5316286D01*
X15765214Y5302000D01*
X15779500Y5287714D01*
X15793786Y5259143D01*
X15808071Y5202000D01*
X15808071Y5130571D01*
X15793786Y5073428D01*
X15779500Y5044857D01*
X15765214Y5030571D01*
X15736643Y5016286D01*
X15708071Y5016286D01*
X15679500Y5030571D01*
X15665214Y5044857D01*
X15650928Y5073428D01*
X15636643Y5130571D01*
X15636643Y5202000D01*
X15650928Y5259143D01*
X15665214Y5287714D01*
X15679500Y5302000D01*
X15708071Y5316286D01*
X15936643Y5044857D02*
X15950928Y5030571D01*
X15936643Y5016286D01*
X15922357Y5030571D01*
X15936643Y5044857D01*
X15936643Y5016286D01*
X16122357Y5187714D02*
X16093786Y5202000D01*
X16079500Y5216286D01*
X16065214Y5244857D01*
X16065214Y5259143D01*
X16079500Y5287714D01*
X16093786Y5302000D01*
X16122357Y5316286D01*
X16179500Y5316286D01*
X16208071Y5302000D01*
X16222357Y5287714D01*
X16236643Y5259143D01*
X16236643Y5244857D01*
X16222357Y5216286D01*
X16208071Y5202000D01*
X16179500Y5187714D01*
X16122357Y5187714D01*
X16093786Y5173428D01*
X16079500Y5159143D01*
X16065214Y5130571D01*
X16065214Y5073428D01*
X16079500Y5044857D01*
X16093786Y5030571D01*
X16122357Y5016286D01*
X16179500Y5016286D01*
X16208071Y5030571D01*
X16222357Y5044857D01*
X16236643Y5073428D01*
X16236643Y5130571D01*
X16222357Y5159143D01*
X16208071Y5173428D01*
X16179500Y5187714D01*
X16422357Y5316286D02*
X16450928Y5316286D01*
X16479500Y5302000D01*
X16493786Y5287714D01*
X16508071Y5259143D01*
X16522357Y5202000D01*
X16522357Y5130571D01*
X16508071Y5073428D01*
X16493786Y5044857D01*
X16479500Y5030571D01*
X16450928Y5016286D01*
X16422357Y5016286D01*
X16393786Y5030571D01*
X16379500Y5044857D01*
X16365214Y5073428D01*
X16350928Y5130571D01*
X16350928Y5202000D01*
X16365214Y5259143D01*
X16379500Y5287714D01*
X16393786Y5302000D01*
X16422357Y5316286D01*
X16650928Y5016286D02*
X16650928Y5216286D01*
X16650928Y5187714D02*
X16665214Y5202000D01*
X16693786Y5216286D01*
X16736643Y5216286D01*
X16765214Y5202000D01*
X16779500Y5173428D01*
X16779500Y5016286D01*
X16779500Y5173428D02*
X16793786Y5202000D01*
X16822357Y5216286D01*
X16865214Y5216286D01*
X16893786Y5202000D01*
X16908071Y5173428D01*
X16908071Y5016286D01*
X17050928Y5016286D02*
X17050928Y5216286D01*
X17050928Y5187714D02*
X17065214Y5202000D01*
X17093786Y5216286D01*
X17136643Y5216286D01*
X17165214Y5202000D01*
X17179500Y5173428D01*
X17179500Y5016286D01*
X17179500Y5173428D02*
X17193786Y5202000D01*
X17222357Y5216286D01*
X17265214Y5216286D01*
X17293786Y5202000D01*
X17308071Y5173428D01*
X17308071Y5016286D01*
X17893786Y5330571D02*
X17636643Y4944857D01*
X18279500Y5316286D02*
X18308071Y5316286D01*
X18336643Y5302000D01*
X18350928Y5287714D01*
X18365214Y5259143D01*
X18379500Y5202000D01*
X18379500Y5130571D01*
X18365214Y5073428D01*
X18350928Y5044857D01*
X18336643Y5030571D01*
X18308071Y5016286D01*
X18279500Y5016286D01*
X18250928Y5030571D01*
X18236643Y5044857D01*
X18222357Y5073428D01*
X18208071Y5130571D01*
X18208071Y5202000D01*
X18222357Y5259143D01*
X18236643Y5287714D01*
X18250928Y5302000D01*
X18279500Y5316286D01*
X18508071Y5044857D02*
X18522357Y5030571D01*
X18508071Y5016286D01*
X18493786Y5030571D01*
X18508071Y5044857D01*
X18508071Y5016286D01*
X18708071Y5316286D02*
X18736643Y5316286D01*
X18765214Y5302000D01*
X18779500Y5287714D01*
X18793786Y5259143D01*
X18808071Y5202000D01*
X18808071Y5130571D01*
X18793786Y5073428D01*
X18779500Y5044857D01*
X18765214Y5030571D01*
X18736643Y5016286D01*
X18708071Y5016286D01*
X18679500Y5030571D01*
X18665214Y5044857D01*
X18650928Y5073428D01*
X18636643Y5130571D01*
X18636643Y5202000D01*
X18650928Y5259143D01*
X18665214Y5287714D01*
X18679500Y5302000D01*
X18708071Y5316286D01*
X18908071Y5316286D02*
X19093786Y5316286D01*
X18993786Y5202000D01*
X19036643Y5202000D01*
X19065214Y5187714D01*
X19079500Y5173428D01*
X19093786Y5144857D01*
X19093786Y5073428D01*
X19079500Y5044857D01*
X19065214Y5030571D01*
X19036643Y5016286D01*
X18950928Y5016286D01*
X18922357Y5030571D01*
X18908071Y5044857D01*
X19379500Y5016286D02*
X19208071Y5016286D01*
X19293786Y5016286D02*
X19293786Y5316286D01*
X19265214Y5273428D01*
X19236643Y5244857D01*
X19208071Y5230571D01*
X19493786Y5316286D02*
X19493786Y5259143D01*
X19608071Y5316286D02*
X19608071Y5259143D01*
X20050928Y4902000D02*
X20036643Y4916286D01*
X20008071Y4959143D01*
X19993786Y4987714D01*
X19979500Y5030571D01*
X19965214Y5102000D01*
X19965214Y5159143D01*
X19979500Y5230571D01*
X19993786Y5273428D01*
X20008071Y5302000D01*
X20036643Y5344857D01*
X20050928Y5359143D01*
X20322357Y5016286D02*
X20150928Y5016286D01*
X20236643Y5016286D02*
X20236643Y5316286D01*
X20208071Y5273428D01*
X20179500Y5244857D01*
X20150928Y5230571D01*
X20579500Y5316286D02*
X20522357Y5316286D01*
X20493786Y5302000D01*
X20479500Y5287714D01*
X20450928Y5244857D01*
X20436643Y5187714D01*
X20436643Y5073428D01*
X20450928Y5044857D01*
X20465214Y5030571D01*
X20493786Y5016286D01*
X20550928Y5016286D01*
X20579500Y5030571D01*
X20593786Y5044857D01*
X20608071Y5073428D01*
X20608071Y5144857D01*
X20593786Y5173428D01*
X20579500Y5187714D01*
X20550928Y5202000D01*
X20493786Y5202000D01*
X20465214Y5187714D01*
X20450928Y5173428D01*
X20436643Y5144857D01*
X20793786Y5316286D02*
X20822357Y5316286D01*
X20850928Y5302000D01*
X20865214Y5287714D01*
X20879500Y5259143D01*
X20893786Y5202000D01*
X20893786Y5130571D01*
X20879500Y5073428D01*
X20865214Y5044857D01*
X20850928Y5030571D01*
X20822357Y5016286D01*
X20793786Y5016286D01*
X20765214Y5030571D01*
X20750928Y5044857D01*
X20736643Y5073428D01*
X20722357Y5130571D01*
X20722357Y5202000D01*
X20736643Y5259143D01*
X20750928Y5287714D01*
X20765214Y5302000D01*
X20793786Y5316286D01*
X21250928Y5016286D02*
X21250928Y5316286D01*
X21379500Y5016286D02*
X21379500Y5173428D01*
X21365214Y5202000D01*
X21336643Y5216286D01*
X21293786Y5216286D01*
X21265214Y5202000D01*
X21250928Y5187714D01*
X21565214Y5016286D02*
X21536643Y5030571D01*
X21522357Y5044857D01*
X21508071Y5073428D01*
X21508071Y5159143D01*
X21522357Y5187714D01*
X21536643Y5202000D01*
X21565214Y5216286D01*
X21608071Y5216286D01*
X21636643Y5202000D01*
X21650928Y5187714D01*
X21665214Y5159143D01*
X21665214Y5073428D01*
X21650928Y5044857D01*
X21636643Y5030571D01*
X21608071Y5016286D01*
X21565214Y5016286D01*
X21836643Y5016286D02*
X21808071Y5030571D01*
X21793786Y5059143D01*
X21793786Y5316286D01*
X22065214Y5030571D02*
X22036643Y5016286D01*
X21979500Y5016286D01*
X21950928Y5030571D01*
X21936643Y5059143D01*
X21936643Y5173428D01*
X21950928Y5202000D01*
X21979500Y5216286D01*
X22036643Y5216286D01*
X22065214Y5202000D01*
X22079500Y5173428D01*
X22079500Y5144857D01*
X21936643Y5116286D01*
X22193786Y5030571D02*
X22222357Y5016286D01*
X22279500Y5016286D01*
X22308071Y5030571D01*
X22322357Y5059143D01*
X22322357Y5073428D01*
X22308071Y5102000D01*
X22279500Y5116286D01*
X22236643Y5116286D01*
X22208071Y5130571D01*
X22193786Y5159143D01*
X22193786Y5173428D01*
X22208071Y5202000D01*
X22236643Y5216286D01*
X22279500Y5216286D01*
X22308071Y5202000D01*
X22422357Y4902000D02*
X22436643Y4916286D01*
X22465214Y4959143D01*
X22479500Y4987714D01*
X22493786Y5030571D01*
X22508071Y5102000D01*
X22508071Y5159143D01*
X22493786Y5230571D01*
X22479500Y5273428D01*
X22465214Y5302000D01*
X22436643Y5344857D01*
X22422357Y5359143D01*
X15314500Y4706000D02*
X15364500Y4756000D01*
X15314500Y4806000D01*
X15264500Y4756000D01*
X15314500Y4706000D01*
X15808071Y4620286D02*
X15636643Y4620286D01*
X15722357Y4620286D02*
X15722357Y4920286D01*
X15693786Y4877428D01*
X15665214Y4848857D01*
X15636643Y4834571D01*
X15936643Y4648857D02*
X15950928Y4634571D01*
X15936643Y4620286D01*
X15922357Y4634571D01*
X15936643Y4648857D01*
X15936643Y4620286D01*
X16136643Y4920286D02*
X16165214Y4920286D01*
X16193786Y4906000D01*
X16208071Y4891714D01*
X16222357Y4863143D01*
X16236643Y4806000D01*
X16236643Y4734571D01*
X16222357Y4677428D01*
X16208071Y4648857D01*
X16193786Y4634571D01*
X16165214Y4620286D01*
X16136643Y4620286D01*
X16108071Y4634571D01*
X16093786Y4648857D01*
X16079500Y4677428D01*
X16065214Y4734571D01*
X16065214Y4806000D01*
X16079500Y4863143D01*
X16093786Y4891714D01*
X16108071Y4906000D01*
X16136643Y4920286D01*
X16422357Y4920286D02*
X16450928Y4920286D01*
X16479500Y4906000D01*
X16493786Y4891714D01*
X16508071Y4863143D01*
X16522357Y4806000D01*
X16522357Y4734571D01*
X16508071Y4677428D01*
X16493786Y4648857D01*
X16479500Y4634571D01*
X16450928Y4620286D01*
X16422357Y4620286D01*
X16393786Y4634571D01*
X16379500Y4648857D01*
X16365214Y4677428D01*
X16350928Y4734571D01*
X16350928Y4806000D01*
X16365214Y4863143D01*
X16379500Y4891714D01*
X16393786Y4906000D01*
X16422357Y4920286D01*
X16650928Y4620286D02*
X16650928Y4820286D01*
X16650928Y4791714D02*
X16665214Y4806000D01*
X16693786Y4820286D01*
X16736643Y4820286D01*
X16765214Y4806000D01*
X16779500Y4777428D01*
X16779500Y4620286D01*
X16779500Y4777428D02*
X16793786Y4806000D01*
X16822357Y4820286D01*
X16865214Y4820286D01*
X16893786Y4806000D01*
X16908071Y4777428D01*
X16908071Y4620286D01*
X17050928Y4620286D02*
X17050928Y4820286D01*
X17050928Y4791714D02*
X17065214Y4806000D01*
X17093786Y4820286D01*
X17136643Y4820286D01*
X17165214Y4806000D01*
X17179500Y4777428D01*
X17179500Y4620286D01*
X17179500Y4777428D02*
X17193786Y4806000D01*
X17222357Y4820286D01*
X17265214Y4820286D01*
X17293786Y4806000D01*
X17308071Y4777428D01*
X17308071Y4620286D01*
X17893786Y4934571D02*
X17636643Y4548857D01*
X18279500Y4920286D02*
X18308071Y4920286D01*
X18336643Y4906000D01*
X18350928Y4891714D01*
X18365214Y4863143D01*
X18379500Y4806000D01*
X18379500Y4734571D01*
X18365214Y4677428D01*
X18350928Y4648857D01*
X18336643Y4634571D01*
X18308071Y4620286D01*
X18279500Y4620286D01*
X18250928Y4634571D01*
X18236643Y4648857D01*
X18222357Y4677428D01*
X18208071Y4734571D01*
X18208071Y4806000D01*
X18222357Y4863143D01*
X18236643Y4891714D01*
X18250928Y4906000D01*
X18279500Y4920286D01*
X18508071Y4648857D02*
X18522357Y4634571D01*
X18508071Y4620286D01*
X18493786Y4634571D01*
X18508071Y4648857D01*
X18508071Y4620286D01*
X18708071Y4920286D02*
X18736643Y4920286D01*
X18765214Y4906000D01*
X18779500Y4891714D01*
X18793786Y4863143D01*
X18808071Y4806000D01*
X18808071Y4734571D01*
X18793786Y4677428D01*
X18779500Y4648857D01*
X18765214Y4634571D01*
X18736643Y4620286D01*
X18708071Y4620286D01*
X18679500Y4634571D01*
X18665214Y4648857D01*
X18650928Y4677428D01*
X18636643Y4734571D01*
X18636643Y4806000D01*
X18650928Y4863143D01*
X18665214Y4891714D01*
X18679500Y4906000D01*
X18708071Y4920286D01*
X18908071Y4920286D02*
X19093786Y4920286D01*
X18993786Y4806000D01*
X19036643Y4806000D01*
X19065214Y4791714D01*
X19079500Y4777428D01*
X19093786Y4748857D01*
X19093786Y4677428D01*
X19079500Y4648857D01*
X19065214Y4634571D01*
X19036643Y4620286D01*
X18950928Y4620286D01*
X18922357Y4634571D01*
X18908071Y4648857D01*
X19236643Y4620286D02*
X19293786Y4620286D01*
X19322357Y4634571D01*
X19336643Y4648857D01*
X19365214Y4691714D01*
X19379500Y4748857D01*
X19379500Y4863143D01*
X19365214Y4891714D01*
X19350928Y4906000D01*
X19322357Y4920286D01*
X19265214Y4920286D01*
X19236643Y4906000D01*
X19222357Y4891714D01*
X19208071Y4863143D01*
X19208071Y4791714D01*
X19222357Y4763143D01*
X19236643Y4748857D01*
X19265214Y4734571D01*
X19322357Y4734571D01*
X19350928Y4748857D01*
X19365214Y4763143D01*
X19379500Y4791714D01*
X19493786Y4920286D02*
X19493786Y4863143D01*
X19608071Y4920286D02*
X19608071Y4863143D01*
X20050928Y4506000D02*
X20036643Y4520286D01*
X20008071Y4563143D01*
X19993786Y4591714D01*
X19979500Y4634571D01*
X19965214Y4706000D01*
X19965214Y4763143D01*
X19979500Y4834571D01*
X19993786Y4877428D01*
X20008071Y4906000D01*
X20036643Y4948857D01*
X20050928Y4963143D01*
X20322357Y4620286D02*
X20150928Y4620286D01*
X20236643Y4620286D02*
X20236643Y4920286D01*
X20208071Y4877428D01*
X20179500Y4848857D01*
X20150928Y4834571D01*
X20593786Y4920286D02*
X20450928Y4920286D01*
X20436643Y4777428D01*
X20450928Y4791714D01*
X20479500Y4806000D01*
X20550928Y4806000D01*
X20579500Y4791714D01*
X20593786Y4777428D01*
X20608071Y4748857D01*
X20608071Y4677428D01*
X20593786Y4648857D01*
X20579500Y4634571D01*
X20550928Y4620286D01*
X20479500Y4620286D01*
X20450928Y4634571D01*
X20436643Y4648857D01*
X20893786Y4620286D02*
X20722357Y4620286D01*
X20808071Y4620286D02*
X20808071Y4920286D01*
X20779500Y4877428D01*
X20750928Y4848857D01*
X20722357Y4834571D01*
X21250928Y4620286D02*
X21250928Y4920286D01*
X21379500Y4620286D02*
X21379500Y4777428D01*
X21365214Y4806000D01*
X21336643Y4820286D01*
X21293786Y4820286D01*
X21265214Y4806000D01*
X21250928Y4791714D01*
X21565214Y4620286D02*
X21536643Y4634571D01*
X21522357Y4648857D01*
X21508071Y4677428D01*
X21508071Y4763143D01*
X21522357Y4791714D01*
X21536643Y4806000D01*
X21565214Y4820286D01*
X21608071Y4820286D01*
X21636643Y4806000D01*
X21650928Y4791714D01*
X21665214Y4763143D01*
X21665214Y4677428D01*
X21650928Y4648857D01*
X21636643Y4634571D01*
X21608071Y4620286D01*
X21565214Y4620286D01*
X21836643Y4620286D02*
X21808071Y4634571D01*
X21793786Y4663143D01*
X21793786Y4920286D01*
X22065214Y4634571D02*
X22036643Y4620286D01*
X21979500Y4620286D01*
X21950928Y4634571D01*
X21936643Y4663143D01*
X21936643Y4777428D01*
X21950928Y4806000D01*
X21979500Y4820286D01*
X22036643Y4820286D01*
X22065214Y4806000D01*
X22079500Y4777428D01*
X22079500Y4748857D01*
X21936643Y4720286D01*
X22193786Y4634571D02*
X22222357Y4620286D01*
X22279500Y4620286D01*
X22308071Y4634571D01*
X22322357Y4663143D01*
X22322357Y4677428D01*
X22308071Y4706000D01*
X22279500Y4720286D01*
X22236643Y4720286D01*
X22208071Y4734571D01*
X22193786Y4763143D01*
X22193786Y4777428D01*
X22208071Y4806000D01*
X22236643Y4820286D01*
X22279500Y4820286D01*
X22308071Y4806000D01*
X22422357Y4506000D02*
X22436643Y4520286D01*
X22465214Y4563143D01*
X22479500Y4591714D01*
X22493786Y4634571D01*
X22508071Y4706000D01*
X22508071Y4763143D01*
X22493786Y4834571D01*
X22479500Y4877428D01*
X22465214Y4906000D01*
X22436643Y4948857D01*
X22422357Y4963143D01*
X15254500Y4415000D02*
X15364500Y4305000D01*
X15364500Y4415000D02*
X15254500Y4305000D01*
X15364500Y4360000D02*
G75*
G03*
X15364500Y4360000I-55000J0D01*
G01*
X15808071Y4224286D02*
X15636643Y4224286D01*
X15722357Y4224286D02*
X15722357Y4524286D01*
X15693786Y4481428D01*
X15665214Y4452857D01*
X15636643Y4438571D01*
X15936643Y4252857D02*
X15950928Y4238571D01*
X15936643Y4224286D01*
X15922357Y4238571D01*
X15936643Y4252857D01*
X15936643Y4224286D01*
X16236643Y4224286D02*
X16065214Y4224286D01*
X16150928Y4224286D02*
X16150928Y4524286D01*
X16122357Y4481428D01*
X16093786Y4452857D01*
X16065214Y4438571D01*
X16422357Y4524286D02*
X16450928Y4524286D01*
X16479500Y4510000D01*
X16493786Y4495714D01*
X16508071Y4467143D01*
X16522357Y4410000D01*
X16522357Y4338571D01*
X16508071Y4281428D01*
X16493786Y4252857D01*
X16479500Y4238571D01*
X16450928Y4224286D01*
X16422357Y4224286D01*
X16393786Y4238571D01*
X16379500Y4252857D01*
X16365214Y4281428D01*
X16350928Y4338571D01*
X16350928Y4410000D01*
X16365214Y4467143D01*
X16379500Y4495714D01*
X16393786Y4510000D01*
X16422357Y4524286D01*
X16650928Y4224286D02*
X16650928Y4424286D01*
X16650928Y4395714D02*
X16665214Y4410000D01*
X16693786Y4424286D01*
X16736643Y4424286D01*
X16765214Y4410000D01*
X16779500Y4381428D01*
X16779500Y4224286D01*
X16779500Y4381428D02*
X16793786Y4410000D01*
X16822357Y4424286D01*
X16865214Y4424286D01*
X16893786Y4410000D01*
X16908071Y4381428D01*
X16908071Y4224286D01*
X17050928Y4224286D02*
X17050928Y4424286D01*
X17050928Y4395714D02*
X17065214Y4410000D01*
X17093786Y4424286D01*
X17136643Y4424286D01*
X17165214Y4410000D01*
X17179500Y4381428D01*
X17179500Y4224286D01*
X17179500Y4381428D02*
X17193786Y4410000D01*
X17222357Y4424286D01*
X17265214Y4424286D01*
X17293786Y4410000D01*
X17308071Y4381428D01*
X17308071Y4224286D01*
X17893786Y4538571D02*
X17636643Y4152857D01*
X18279500Y4524286D02*
X18308071Y4524286D01*
X18336643Y4510000D01*
X18350928Y4495714D01*
X18365214Y4467143D01*
X18379500Y4410000D01*
X18379500Y4338571D01*
X18365214Y4281428D01*
X18350928Y4252857D01*
X18336643Y4238571D01*
X18308071Y4224286D01*
X18279500Y4224286D01*
X18250928Y4238571D01*
X18236643Y4252857D01*
X18222357Y4281428D01*
X18208071Y4338571D01*
X18208071Y4410000D01*
X18222357Y4467143D01*
X18236643Y4495714D01*
X18250928Y4510000D01*
X18279500Y4524286D01*
X18508071Y4252857D02*
X18522357Y4238571D01*
X18508071Y4224286D01*
X18493786Y4238571D01*
X18508071Y4252857D01*
X18508071Y4224286D01*
X18708071Y4524286D02*
X18736643Y4524286D01*
X18765214Y4510000D01*
X18779500Y4495714D01*
X18793786Y4467143D01*
X18808071Y4410000D01*
X18808071Y4338571D01*
X18793786Y4281428D01*
X18779500Y4252857D01*
X18765214Y4238571D01*
X18736643Y4224286D01*
X18708071Y4224286D01*
X18679500Y4238571D01*
X18665214Y4252857D01*
X18650928Y4281428D01*
X18636643Y4338571D01*
X18636643Y4410000D01*
X18650928Y4467143D01*
X18665214Y4495714D01*
X18679500Y4510000D01*
X18708071Y4524286D01*
X19065214Y4424286D02*
X19065214Y4224286D01*
X18993786Y4538571D02*
X18922357Y4324286D01*
X19108071Y4324286D01*
X19193786Y4524286D02*
X19379500Y4524286D01*
X19279500Y4410000D01*
X19322357Y4410000D01*
X19350928Y4395714D01*
X19365214Y4381428D01*
X19379500Y4352857D01*
X19379500Y4281428D01*
X19365214Y4252857D01*
X19350928Y4238571D01*
X19322357Y4224286D01*
X19236643Y4224286D01*
X19208071Y4238571D01*
X19193786Y4252857D01*
X19493786Y4524286D02*
X19493786Y4467143D01*
X19608071Y4524286D02*
X19608071Y4467143D01*
X20050928Y4110000D02*
X20036643Y4124286D01*
X20008071Y4167143D01*
X19993786Y4195714D01*
X19979500Y4238571D01*
X19965214Y4310000D01*
X19965214Y4367143D01*
X19979500Y4438571D01*
X19993786Y4481428D01*
X20008071Y4510000D01*
X20036643Y4552857D01*
X20050928Y4567143D01*
X20293786Y4424286D02*
X20293786Y4224286D01*
X20222357Y4538571D02*
X20150928Y4324286D01*
X20336643Y4324286D01*
X20679500Y4224286D02*
X20679500Y4524286D01*
X20808071Y4224286D02*
X20808071Y4381428D01*
X20793786Y4410000D01*
X20765214Y4424286D01*
X20722357Y4424286D01*
X20693786Y4410000D01*
X20679500Y4395714D01*
X20993786Y4224286D02*
X20965214Y4238571D01*
X20950928Y4252857D01*
X20936643Y4281428D01*
X20936643Y4367143D01*
X20950928Y4395714D01*
X20965214Y4410000D01*
X20993786Y4424286D01*
X21036643Y4424286D01*
X21065214Y4410000D01*
X21079500Y4395714D01*
X21093786Y4367143D01*
X21093786Y4281428D01*
X21079500Y4252857D01*
X21065214Y4238571D01*
X21036643Y4224286D01*
X20993786Y4224286D01*
X21265214Y4224286D02*
X21236643Y4238571D01*
X21222357Y4267143D01*
X21222357Y4524286D01*
X21493786Y4238571D02*
X21465214Y4224286D01*
X21408071Y4224286D01*
X21379500Y4238571D01*
X21365214Y4267143D01*
X21365214Y4381428D01*
X21379500Y4410000D01*
X21408071Y4424286D01*
X21465214Y4424286D01*
X21493786Y4410000D01*
X21508071Y4381428D01*
X21508071Y4352857D01*
X21365214Y4324286D01*
X21622357Y4238571D02*
X21650928Y4224286D01*
X21708071Y4224286D01*
X21736643Y4238571D01*
X21750928Y4267143D01*
X21750928Y4281428D01*
X21736643Y4310000D01*
X21708071Y4324286D01*
X21665214Y4324286D01*
X21636643Y4338571D01*
X21622357Y4367143D01*
X21622357Y4381428D01*
X21636643Y4410000D01*
X21665214Y4424286D01*
X21708071Y4424286D01*
X21736643Y4410000D01*
X21850928Y4110000D02*
X21865214Y4124286D01*
X21893786Y4167143D01*
X21908071Y4195714D01*
X21922357Y4238571D01*
X21936643Y4310000D01*
X21936643Y4367143D01*
X21922357Y4438571D01*
X21908071Y4481428D01*
X21893786Y4510000D01*
X21865214Y4552857D01*
X21850928Y4567143D01*
M02*
