%FSLAX45Y45*%
G04 Gerber Fmt 4.5, Leading zero omitted, Abs format (unit mm)*
G04 Created by KiCad (PCBNEW (5.1.10-1-10_14)) date 2021-08-04 23:21:25*
%MOMM*%
%LPD*%
G01*
G04 APERTURE LIST*
%TA.AperFunction,Profile*%
%ADD10C,0.100000*%
%TD*%
%ADD11C,0.200000*%
%ADD12C,0.300000*%
G04 APERTURE END LIST*
D10*
X15443200Y-5994400D02*
G75*
G02*
X15900400Y-6451600I0J-457200D01*
G01*
X15900400Y-8966200D02*
G75*
G02*
X15443200Y-9423400I-457200J0D01*
G01*
X8026400Y-9423400D02*
G75*
G02*
X7569200Y-8966200I0J457200D01*
G01*
X7569200Y-6451600D02*
G75*
G02*
X8026400Y-5994400I457200J0D01*
G01*
X7569200Y-8966200D02*
X7569200Y-6451600D01*
X8026400Y-5994400D02*
X15443200Y-5994400D01*
X15900400Y-6451600D02*
X15900400Y-8966200D01*
X15443200Y-9423400D02*
X8026400Y-9423400D01*
D11*
D12*
X7850628Y-9894114D02*
X7850628Y-9594114D01*
X7922057Y-9594114D01*
X7964914Y-9608400D01*
X7993486Y-9636972D01*
X8007771Y-9665543D01*
X8022057Y-9722686D01*
X8022057Y-9765543D01*
X8007771Y-9822686D01*
X7993486Y-9851257D01*
X7964914Y-9879829D01*
X7922057Y-9894114D01*
X7850628Y-9894114D01*
X8150628Y-9894114D02*
X8150628Y-9694114D01*
X8150628Y-9751257D02*
X8164914Y-9722686D01*
X8179200Y-9708400D01*
X8207771Y-9694114D01*
X8236343Y-9694114D01*
X8336343Y-9894114D02*
X8336343Y-9694114D01*
X8336343Y-9594114D02*
X8322057Y-9608400D01*
X8336343Y-9622686D01*
X8350628Y-9608400D01*
X8336343Y-9594114D01*
X8336343Y-9622686D01*
X8522057Y-9894114D02*
X8493486Y-9879829D01*
X8479200Y-9851257D01*
X8479200Y-9594114D01*
X8679200Y-9894114D02*
X8650628Y-9879829D01*
X8636343Y-9851257D01*
X8636343Y-9594114D01*
X9022057Y-9894114D02*
X9022057Y-9594114D01*
X9122057Y-9808400D01*
X9222057Y-9594114D01*
X9222057Y-9894114D01*
X9493486Y-9894114D02*
X9493486Y-9736972D01*
X9479200Y-9708400D01*
X9450628Y-9694114D01*
X9393486Y-9694114D01*
X9364914Y-9708400D01*
X9493486Y-9879829D02*
X9464914Y-9894114D01*
X9393486Y-9894114D01*
X9364914Y-9879829D01*
X9350628Y-9851257D01*
X9350628Y-9822686D01*
X9364914Y-9794114D01*
X9393486Y-9779829D01*
X9464914Y-9779829D01*
X9493486Y-9765543D01*
X9636343Y-9694114D02*
X9636343Y-9994114D01*
X9636343Y-9708400D02*
X9664914Y-9694114D01*
X9722057Y-9694114D01*
X9750628Y-9708400D01*
X9764914Y-9722686D01*
X9779200Y-9751257D01*
X9779200Y-9836972D01*
X9764914Y-9865543D01*
X9750628Y-9879829D01*
X9722057Y-9894114D01*
X9664914Y-9894114D01*
X9636343Y-9879829D01*
X9907771Y-9865543D02*
X9922057Y-9879829D01*
X9907771Y-9894114D01*
X9893486Y-9879829D01*
X9907771Y-9865543D01*
X9907771Y-9894114D01*
X9907771Y-9708400D02*
X9922057Y-9722686D01*
X9907771Y-9736972D01*
X9893486Y-9722686D01*
X9907771Y-9708400D01*
X9907771Y-9736972D01*
M02*
