G04 #@! TF.GenerationSoftware,KiCad,Pcbnew,(5.1.10-1-10_14)*
G04 #@! TF.CreationDate,2021-08-04T23:21:23+02:00*
G04 #@! TF.ProjectId,keyboard,6b657962-6f61-4726-942e-6b696361645f,rev?*
G04 #@! TF.SameCoordinates,Original*
G04 #@! TF.FileFunction,Legend,Top*
G04 #@! TF.FilePolarity,Positive*
%FSLAX46Y46*%
G04 Gerber Fmt 4.6, Leading zero omitted, Abs format (unit mm)*
G04 Created by KiCad (PCBNEW (5.1.10-1-10_14)) date 2021-08-04 23:21:23*
%MOMM*%
%LPD*%
G01*
G04 APERTURE LIST*
%ADD10C,0.150000*%
%ADD11C,0.120000*%
%ADD12C,0.100000*%
%ADD13C,3.000000*%
%ADD14O,1.700000X1.700000*%
%ADD15R,1.700000X1.700000*%
%ADD16R,3.200400X2.169160*%
%ADD17R,1.998980X3.200400*%
%ADD18C,1.700000*%
%ADD19O,1.600000X1.600000*%
%ADD20R,1.600000X1.600000*%
%ADD21C,6.400000*%
%ADD22C,1.200000*%
%ADD23R,1.200000X1.200000*%
%ADD24C,1.600000*%
%ADD25O,2.200000X2.200000*%
%ADD26R,2.200000X2.200000*%
G04 APERTURE END LIST*
D10*
X77125580Y-81708047D02*
X77839866Y-81708047D01*
X77982723Y-81755666D01*
X78077961Y-81850904D01*
X78125580Y-81993761D01*
X78125580Y-82089000D01*
X78125580Y-80755666D02*
X78125580Y-81231857D01*
X77125580Y-81231857D01*
X78030342Y-79850904D02*
X78077961Y-79898523D01*
X78125580Y-80041380D01*
X78125580Y-80136619D01*
X78077961Y-80279476D01*
X77982723Y-80374714D01*
X77887485Y-80422333D01*
X77697009Y-80469952D01*
X77554152Y-80469952D01*
X77363676Y-80422333D01*
X77268438Y-80374714D01*
X77173200Y-80279476D01*
X77125580Y-80136619D01*
X77125580Y-80041380D01*
X77173200Y-79898523D01*
X77220819Y-79850904D01*
X77125580Y-79136619D02*
X77839866Y-79136619D01*
X77982723Y-79184238D01*
X78077961Y-79279476D01*
X78125580Y-79422333D01*
X78125580Y-79517571D01*
X78125580Y-78184238D02*
X78125580Y-78660428D01*
X77125580Y-78660428D01*
X78030342Y-77279476D02*
X78077961Y-77327095D01*
X78125580Y-77469952D01*
X78125580Y-77565190D01*
X78077961Y-77708047D01*
X77982723Y-77803285D01*
X77887485Y-77850904D01*
X77697009Y-77898523D01*
X77554152Y-77898523D01*
X77363676Y-77850904D01*
X77268438Y-77803285D01*
X77173200Y-77708047D01*
X77125580Y-77565190D01*
X77125580Y-77469952D01*
X77173200Y-77327095D01*
X77220819Y-77279476D01*
X77125580Y-76565190D02*
X77839866Y-76565190D01*
X77982723Y-76612809D01*
X78077961Y-76708047D01*
X78125580Y-76850904D01*
X78125580Y-76946142D01*
X78125580Y-75612809D02*
X78125580Y-76089000D01*
X77125580Y-76089000D01*
X78030342Y-74708047D02*
X78077961Y-74755666D01*
X78125580Y-74898523D01*
X78125580Y-74993761D01*
X78077961Y-75136619D01*
X77982723Y-75231857D01*
X77887485Y-75279476D01*
X77697009Y-75327095D01*
X77554152Y-75327095D01*
X77363676Y-75279476D01*
X77268438Y-75231857D01*
X77173200Y-75136619D01*
X77125580Y-74993761D01*
X77125580Y-74898523D01*
X77173200Y-74755666D01*
X77220819Y-74708047D01*
X77125580Y-73993761D02*
X77839866Y-73993761D01*
X77982723Y-74041380D01*
X78077961Y-74136619D01*
X78125580Y-74279476D01*
X78125580Y-74374714D01*
X78125580Y-73041380D02*
X78125580Y-73517571D01*
X77125580Y-73517571D01*
X78030342Y-72136619D02*
X78077961Y-72184238D01*
X78125580Y-72327095D01*
X78125580Y-72422333D01*
X78077961Y-72565190D01*
X77982723Y-72660428D01*
X77887485Y-72708047D01*
X77697009Y-72755666D01*
X77554152Y-72755666D01*
X77363676Y-72708047D01*
X77268438Y-72660428D01*
X77173200Y-72565190D01*
X77125580Y-72422333D01*
X77125580Y-72327095D01*
X77173200Y-72184238D01*
X77220819Y-72136619D01*
X85739361Y-69699142D02*
X85691742Y-69746761D01*
X85548885Y-69794380D01*
X85453647Y-69794380D01*
X85310790Y-69746761D01*
X85215552Y-69651523D01*
X85167933Y-69556285D01*
X85120314Y-69365809D01*
X85120314Y-69222952D01*
X85167933Y-69032476D01*
X85215552Y-68937238D01*
X85310790Y-68842000D01*
X85453647Y-68794380D01*
X85548885Y-68794380D01*
X85691742Y-68842000D01*
X85739361Y-68889619D01*
X86644123Y-69794380D02*
X86167933Y-69794380D01*
X86167933Y-68794380D01*
X86977457Y-69794380D02*
X86977457Y-68794380D01*
X87548885Y-69794380D02*
X87120314Y-69222952D01*
X87548885Y-68794380D02*
X86977457Y-69365809D01*
X84758400Y-62047380D02*
X84758400Y-61047380D01*
X84996495Y-61047380D01*
X85139352Y-61095000D01*
X85234590Y-61190238D01*
X85282209Y-61285476D01*
X85329828Y-61475952D01*
X85329828Y-61618809D01*
X85282209Y-61809285D01*
X85234590Y-61904523D01*
X85139352Y-61999761D01*
X84996495Y-62047380D01*
X84758400Y-62047380D01*
X85710780Y-61761666D02*
X86186971Y-61761666D01*
X85615542Y-62047380D02*
X85948876Y-61047380D01*
X86282209Y-62047380D01*
X86472685Y-61047380D02*
X87044114Y-61047380D01*
X86758400Y-62047380D02*
X86758400Y-61047380D01*
X87329828Y-61761666D02*
X87806019Y-61761666D01*
X87234590Y-62047380D02*
X87567923Y-61047380D01*
X87901257Y-62047380D01*
X134564380Y-66524095D02*
X133564380Y-66524095D01*
X133564380Y-66286000D01*
X133612000Y-66143142D01*
X133707238Y-66047904D01*
X133802476Y-66000285D01*
X133992952Y-65952666D01*
X134135809Y-65952666D01*
X134326285Y-66000285D01*
X134421523Y-66047904D01*
X134516761Y-66143142D01*
X134564380Y-66286000D01*
X134564380Y-66524095D01*
X133564380Y-65333619D02*
X133564380Y-65238380D01*
X133612000Y-65143142D01*
X133659619Y-65095523D01*
X133754857Y-65047904D01*
X133945333Y-65000285D01*
X134183428Y-65000285D01*
X134373904Y-65047904D01*
X134469142Y-65095523D01*
X134516761Y-65143142D01*
X134564380Y-65238380D01*
X134564380Y-65333619D01*
X134516761Y-65428857D01*
X134469142Y-65476476D01*
X134373904Y-65524095D01*
X134183428Y-65571714D01*
X133945333Y-65571714D01*
X133754857Y-65524095D01*
X133659619Y-65476476D01*
X133612000Y-65428857D01*
X133564380Y-65333619D01*
X132024380Y-66524095D02*
X131024380Y-66524095D01*
X131024380Y-66286000D01*
X131072000Y-66143142D01*
X131167238Y-66047904D01*
X131262476Y-66000285D01*
X131452952Y-65952666D01*
X131595809Y-65952666D01*
X131786285Y-66000285D01*
X131881523Y-66047904D01*
X131976761Y-66143142D01*
X132024380Y-66286000D01*
X132024380Y-66524095D01*
X132024380Y-65000285D02*
X132024380Y-65571714D01*
X132024380Y-65286000D02*
X131024380Y-65286000D01*
X131167238Y-65381238D01*
X131262476Y-65476476D01*
X131310095Y-65571714D01*
X129484380Y-66524095D02*
X128484380Y-66524095D01*
X128484380Y-66286000D01*
X128532000Y-66143142D01*
X128627238Y-66047904D01*
X128722476Y-66000285D01*
X128912952Y-65952666D01*
X129055809Y-65952666D01*
X129246285Y-66000285D01*
X129341523Y-66047904D01*
X129436761Y-66143142D01*
X129484380Y-66286000D01*
X129484380Y-66524095D01*
X128579619Y-65571714D02*
X128532000Y-65524095D01*
X128484380Y-65428857D01*
X128484380Y-65190761D01*
X128532000Y-65095523D01*
X128579619Y-65047904D01*
X128674857Y-65000285D01*
X128770095Y-65000285D01*
X128912952Y-65047904D01*
X129484380Y-65619333D01*
X129484380Y-65000285D01*
X126944380Y-66524095D02*
X125944380Y-66524095D01*
X125944380Y-66286000D01*
X125992000Y-66143142D01*
X126087238Y-66047904D01*
X126182476Y-66000285D01*
X126372952Y-65952666D01*
X126515809Y-65952666D01*
X126706285Y-66000285D01*
X126801523Y-66047904D01*
X126896761Y-66143142D01*
X126944380Y-66286000D01*
X126944380Y-66524095D01*
X125944380Y-65619333D02*
X125944380Y-65000285D01*
X126325333Y-65333619D01*
X126325333Y-65190761D01*
X126372952Y-65095523D01*
X126420571Y-65047904D01*
X126515809Y-65000285D01*
X126753904Y-65000285D01*
X126849142Y-65047904D01*
X126896761Y-65095523D01*
X126944380Y-65190761D01*
X126944380Y-65476476D01*
X126896761Y-65571714D01*
X126849142Y-65619333D01*
X124404380Y-66524095D02*
X123404380Y-66524095D01*
X123404380Y-66286000D01*
X123452000Y-66143142D01*
X123547238Y-66047904D01*
X123642476Y-66000285D01*
X123832952Y-65952666D01*
X123975809Y-65952666D01*
X124166285Y-66000285D01*
X124261523Y-66047904D01*
X124356761Y-66143142D01*
X124404380Y-66286000D01*
X124404380Y-66524095D01*
X123737714Y-65095523D02*
X124404380Y-65095523D01*
X123356761Y-65333619D02*
X124071047Y-65571714D01*
X124071047Y-64952666D01*
X121864380Y-66524095D02*
X120864380Y-66524095D01*
X120864380Y-66286000D01*
X120912000Y-66143142D01*
X121007238Y-66047904D01*
X121102476Y-66000285D01*
X121292952Y-65952666D01*
X121435809Y-65952666D01*
X121626285Y-66000285D01*
X121721523Y-66047904D01*
X121816761Y-66143142D01*
X121864380Y-66286000D01*
X121864380Y-66524095D01*
X120864380Y-65047904D02*
X120864380Y-65524095D01*
X121340571Y-65571714D01*
X121292952Y-65524095D01*
X121245333Y-65428857D01*
X121245333Y-65190761D01*
X121292952Y-65095523D01*
X121340571Y-65047904D01*
X121435809Y-65000285D01*
X121673904Y-65000285D01*
X121769142Y-65047904D01*
X121816761Y-65095523D01*
X121864380Y-65190761D01*
X121864380Y-65428857D01*
X121816761Y-65524095D01*
X121769142Y-65571714D01*
X119324380Y-66524095D02*
X118324380Y-66524095D01*
X118324380Y-66286000D01*
X118372000Y-66143142D01*
X118467238Y-66047904D01*
X118562476Y-66000285D01*
X118752952Y-65952666D01*
X118895809Y-65952666D01*
X119086285Y-66000285D01*
X119181523Y-66047904D01*
X119276761Y-66143142D01*
X119324380Y-66286000D01*
X119324380Y-66524095D01*
X118324380Y-65095523D02*
X118324380Y-65286000D01*
X118372000Y-65381238D01*
X118419619Y-65428857D01*
X118562476Y-65524095D01*
X118752952Y-65571714D01*
X119133904Y-65571714D01*
X119229142Y-65524095D01*
X119276761Y-65476476D01*
X119324380Y-65381238D01*
X119324380Y-65190761D01*
X119276761Y-65095523D01*
X119229142Y-65047904D01*
X119133904Y-65000285D01*
X118895809Y-65000285D01*
X118800571Y-65047904D01*
X118752952Y-65095523D01*
X118705333Y-65190761D01*
X118705333Y-65381238D01*
X118752952Y-65476476D01*
X118800571Y-65524095D01*
X118895809Y-65571714D01*
X116784380Y-66524095D02*
X115784380Y-66524095D01*
X115784380Y-66286000D01*
X115832000Y-66143142D01*
X115927238Y-66047904D01*
X116022476Y-66000285D01*
X116212952Y-65952666D01*
X116355809Y-65952666D01*
X116546285Y-66000285D01*
X116641523Y-66047904D01*
X116736761Y-66143142D01*
X116784380Y-66286000D01*
X116784380Y-66524095D01*
X115784380Y-65619333D02*
X115784380Y-64952666D01*
X116784380Y-65381238D01*
X113244380Y-66333619D02*
X113244380Y-66143142D01*
X113292000Y-66047904D01*
X113387238Y-65952666D01*
X113577714Y-65905047D01*
X113911047Y-65905047D01*
X114101523Y-65952666D01*
X114196761Y-66047904D01*
X114244380Y-66143142D01*
X114244380Y-66333619D01*
X114196761Y-66428857D01*
X114101523Y-66524095D01*
X113911047Y-66571714D01*
X113577714Y-66571714D01*
X113387238Y-66524095D01*
X113292000Y-66428857D01*
X113244380Y-66333619D01*
X113720571Y-65476476D02*
X113720571Y-65143142D01*
X114244380Y-65000285D02*
X114244380Y-65476476D01*
X113244380Y-65476476D01*
X113244380Y-65000285D01*
X110704380Y-67317809D02*
X110704380Y-67127333D01*
X110752000Y-67032095D01*
X110847238Y-66936857D01*
X111037714Y-66889238D01*
X111371047Y-66889238D01*
X111561523Y-66936857D01*
X111656761Y-67032095D01*
X111704380Y-67127333D01*
X111704380Y-67317809D01*
X111656761Y-67413047D01*
X111561523Y-67508285D01*
X111371047Y-67555904D01*
X111037714Y-67555904D01*
X110847238Y-67508285D01*
X110752000Y-67413047D01*
X110704380Y-67317809D01*
X111704380Y-66460666D02*
X110704380Y-66460666D01*
X111704380Y-65889238D02*
X111132952Y-66317809D01*
X110704380Y-65889238D02*
X111275809Y-66460666D01*
X111609142Y-65317809D02*
X111656761Y-65270190D01*
X111704380Y-65317809D01*
X111656761Y-65365428D01*
X111609142Y-65317809D01*
X111704380Y-65317809D01*
X110752000Y-65508285D02*
X110704380Y-65413047D01*
X110704380Y-65174952D01*
X110752000Y-65079714D01*
X110847238Y-65032095D01*
X110942476Y-65032095D01*
X111037714Y-65079714D01*
X111085333Y-65127333D01*
X111132952Y-65222571D01*
X111180571Y-65270190D01*
X111275809Y-65317809D01*
X111323428Y-65317809D01*
X109164380Y-67063809D02*
X108164380Y-67063809D01*
X109164380Y-66016190D02*
X108688190Y-66349523D01*
X109164380Y-66587619D02*
X108164380Y-66587619D01*
X108164380Y-66206666D01*
X108212000Y-66111428D01*
X108259619Y-66063809D01*
X108354857Y-66016190D01*
X108497714Y-66016190D01*
X108592952Y-66063809D01*
X108640571Y-66111428D01*
X108688190Y-66206666D01*
X108688190Y-66587619D01*
X109259619Y-64920952D02*
X109212000Y-65016190D01*
X109116761Y-65111428D01*
X108973904Y-65254285D01*
X108926285Y-65349523D01*
X108926285Y-65444761D01*
X109164380Y-65397142D02*
X109116761Y-65492380D01*
X109021523Y-65587619D01*
X108831047Y-65635238D01*
X108497714Y-65635238D01*
X108307238Y-65587619D01*
X108212000Y-65492380D01*
X108164380Y-65397142D01*
X108164380Y-65206666D01*
X108212000Y-65111428D01*
X108307238Y-65016190D01*
X108497714Y-64968571D01*
X108831047Y-64968571D01*
X109021523Y-65016190D01*
X109116761Y-65111428D01*
X109164380Y-65206666D01*
X109164380Y-65397142D01*
X105672000Y-67055904D02*
X105624380Y-67151142D01*
X105624380Y-67294000D01*
X105672000Y-67436857D01*
X105767238Y-67532095D01*
X105862476Y-67579714D01*
X106052952Y-67627333D01*
X106195809Y-67627333D01*
X106386285Y-67579714D01*
X106481523Y-67532095D01*
X106576761Y-67436857D01*
X106624380Y-67294000D01*
X106624380Y-67198761D01*
X106576761Y-67055904D01*
X106529142Y-67008285D01*
X106195809Y-67008285D01*
X106195809Y-67198761D01*
X106624380Y-66579714D02*
X105624380Y-66579714D01*
X106624380Y-66008285D01*
X105624380Y-66008285D01*
X106624380Y-65532095D02*
X105624380Y-65532095D01*
X105624380Y-65294000D01*
X105672000Y-65151142D01*
X105767238Y-65055904D01*
X105862476Y-65008285D01*
X106052952Y-64960666D01*
X106195809Y-64960666D01*
X106386285Y-65008285D01*
X106481523Y-65055904D01*
X106576761Y-65151142D01*
X106624380Y-65294000D01*
X106624380Y-65532095D01*
X103084380Y-67627333D02*
X104084380Y-67294000D01*
X103084380Y-66960666D01*
X103989142Y-66055904D02*
X104036761Y-66103523D01*
X104084380Y-66246380D01*
X104084380Y-66341619D01*
X104036761Y-66484476D01*
X103941523Y-66579714D01*
X103846285Y-66627333D01*
X103655809Y-66674952D01*
X103512952Y-66674952D01*
X103322476Y-66627333D01*
X103227238Y-66579714D01*
X103132000Y-66484476D01*
X103084380Y-66341619D01*
X103084380Y-66246380D01*
X103132000Y-66103523D01*
X103179619Y-66055904D01*
X103989142Y-65055904D02*
X104036761Y-65103523D01*
X104084380Y-65246380D01*
X104084380Y-65341619D01*
X104036761Y-65484476D01*
X103941523Y-65579714D01*
X103846285Y-65627333D01*
X103655809Y-65674952D01*
X103512952Y-65674952D01*
X103322476Y-65627333D01*
X103227238Y-65579714D01*
X103132000Y-65484476D01*
X103084380Y-65341619D01*
X103084380Y-65246380D01*
X103132000Y-65103523D01*
X103179619Y-65055904D01*
X140269980Y-80458914D02*
X140269980Y-79792247D01*
X141269980Y-80220819D01*
X140603314Y-78982723D02*
X141269980Y-78982723D01*
X140222361Y-79220819D02*
X140936647Y-79458914D01*
X140936647Y-78839866D01*
X141269980Y-78458914D02*
X140269980Y-78458914D01*
X140746171Y-78458914D02*
X140746171Y-77887485D01*
X141269980Y-77887485D02*
X140269980Y-77887485D01*
X141174742Y-76839866D02*
X141222361Y-76887485D01*
X141269980Y-77030342D01*
X141269980Y-77125580D01*
X141222361Y-77268438D01*
X141127123Y-77363676D01*
X141031885Y-77411295D01*
X140841409Y-77458914D01*
X140698552Y-77458914D01*
X140508076Y-77411295D01*
X140412838Y-77363676D01*
X140317600Y-77268438D01*
X140269980Y-77125580D01*
X140269980Y-77030342D01*
X140317600Y-76887485D01*
X140365219Y-76839866D01*
X141269980Y-75887485D02*
X141269980Y-76458914D01*
X141269980Y-76173200D02*
X140269980Y-76173200D01*
X140412838Y-76268438D01*
X140508076Y-76363676D01*
X140555695Y-76458914D01*
X140603314Y-75030342D02*
X141269980Y-75030342D01*
X140222361Y-75268438D02*
X140936647Y-75506533D01*
X140936647Y-74887485D01*
X129373380Y-80560514D02*
X129373380Y-79893847D01*
X130373380Y-80322419D01*
X129706714Y-79084323D02*
X130373380Y-79084323D01*
X129325761Y-79322419D02*
X130040047Y-79560514D01*
X130040047Y-78941466D01*
X130373380Y-78560514D02*
X129373380Y-78560514D01*
X129849571Y-78560514D02*
X129849571Y-77989085D01*
X130373380Y-77989085D02*
X129373380Y-77989085D01*
X130278142Y-76941466D02*
X130325761Y-76989085D01*
X130373380Y-77131942D01*
X130373380Y-77227180D01*
X130325761Y-77370038D01*
X130230523Y-77465276D01*
X130135285Y-77512895D01*
X129944809Y-77560514D01*
X129801952Y-77560514D01*
X129611476Y-77512895D01*
X129516238Y-77465276D01*
X129421000Y-77370038D01*
X129373380Y-77227180D01*
X129373380Y-77131942D01*
X129421000Y-76989085D01*
X129468619Y-76941466D01*
X129373380Y-76322419D02*
X129373380Y-76227180D01*
X129421000Y-76131942D01*
X129468619Y-76084323D01*
X129563857Y-76036704D01*
X129754333Y-75989085D01*
X129992428Y-75989085D01*
X130182904Y-76036704D01*
X130278142Y-76084323D01*
X130325761Y-76131942D01*
X130373380Y-76227180D01*
X130373380Y-76322419D01*
X130325761Y-76417657D01*
X130278142Y-76465276D01*
X130182904Y-76512895D01*
X129992428Y-76560514D01*
X129754333Y-76560514D01*
X129563857Y-76512895D01*
X129468619Y-76465276D01*
X129421000Y-76417657D01*
X129373380Y-76322419D01*
X129801952Y-75417657D02*
X129754333Y-75512895D01*
X129706714Y-75560514D01*
X129611476Y-75608133D01*
X129563857Y-75608133D01*
X129468619Y-75560514D01*
X129421000Y-75512895D01*
X129373380Y-75417657D01*
X129373380Y-75227180D01*
X129421000Y-75131942D01*
X129468619Y-75084323D01*
X129563857Y-75036704D01*
X129611476Y-75036704D01*
X129706714Y-75084323D01*
X129754333Y-75131942D01*
X129801952Y-75227180D01*
X129801952Y-75417657D01*
X129849571Y-75512895D01*
X129897190Y-75560514D01*
X129992428Y-75608133D01*
X130182904Y-75608133D01*
X130278142Y-75560514D01*
X130325761Y-75512895D01*
X130373380Y-75417657D01*
X130373380Y-75227180D01*
X130325761Y-75131942D01*
X130278142Y-75084323D01*
X130182904Y-75036704D01*
X129992428Y-75036704D01*
X129897190Y-75084323D01*
X129849571Y-75131942D01*
X129801952Y-75227180D01*
X118375180Y-81087504D02*
X118375180Y-80420838D01*
X119375180Y-80849409D01*
X118708514Y-79611314D02*
X119375180Y-79611314D01*
X118327561Y-79849409D02*
X119041847Y-80087504D01*
X119041847Y-79468457D01*
X119375180Y-79087504D02*
X118375180Y-79087504D01*
X118851371Y-79087504D02*
X118851371Y-78516076D01*
X119375180Y-78516076D02*
X118375180Y-78516076D01*
X119279942Y-77468457D02*
X119327561Y-77516076D01*
X119375180Y-77658933D01*
X119375180Y-77754171D01*
X119327561Y-77897028D01*
X119232323Y-77992266D01*
X119137085Y-78039885D01*
X118946609Y-78087504D01*
X118803752Y-78087504D01*
X118613276Y-78039885D01*
X118518038Y-77992266D01*
X118422800Y-77897028D01*
X118375180Y-77754171D01*
X118375180Y-77658933D01*
X118422800Y-77516076D01*
X118470419Y-77468457D01*
X119375180Y-76516076D02*
X119375180Y-77087504D01*
X119375180Y-76801790D02*
X118375180Y-76801790D01*
X118518038Y-76897028D01*
X118613276Y-76992266D01*
X118660895Y-77087504D01*
X118803752Y-75944647D02*
X118756133Y-76039885D01*
X118708514Y-76087504D01*
X118613276Y-76135123D01*
X118565657Y-76135123D01*
X118470419Y-76087504D01*
X118422800Y-76039885D01*
X118375180Y-75944647D01*
X118375180Y-75754171D01*
X118422800Y-75658933D01*
X118470419Y-75611314D01*
X118565657Y-75563695D01*
X118613276Y-75563695D01*
X118708514Y-75611314D01*
X118756133Y-75658933D01*
X118803752Y-75754171D01*
X118803752Y-75944647D01*
X118851371Y-76039885D01*
X118898990Y-76087504D01*
X118994228Y-76135123D01*
X119184704Y-76135123D01*
X119279942Y-76087504D01*
X119327561Y-76039885D01*
X119375180Y-75944647D01*
X119375180Y-75754171D01*
X119327561Y-75658933D01*
X119279942Y-75611314D01*
X119184704Y-75563695D01*
X118994228Y-75563695D01*
X118898990Y-75611314D01*
X118851371Y-75658933D01*
X118803752Y-75754171D01*
X118375180Y-74944647D02*
X118375180Y-74849409D01*
X118422800Y-74754171D01*
X118470419Y-74706552D01*
X118565657Y-74658933D01*
X118756133Y-74611314D01*
X118994228Y-74611314D01*
X119184704Y-74658933D01*
X119279942Y-74706552D01*
X119327561Y-74754171D01*
X119375180Y-74849409D01*
X119375180Y-74944647D01*
X119327561Y-75039885D01*
X119279942Y-75087504D01*
X119184704Y-75135123D01*
X118994228Y-75182742D01*
X118756133Y-75182742D01*
X118565657Y-75135123D01*
X118470419Y-75087504D01*
X118422800Y-75039885D01*
X118375180Y-74944647D01*
X107529380Y-81316104D02*
X107529380Y-80649438D01*
X108529380Y-81078009D01*
X107862714Y-79839914D02*
X108529380Y-79839914D01*
X107481761Y-80078009D02*
X108196047Y-80316104D01*
X108196047Y-79697057D01*
X108529380Y-79316104D02*
X107529380Y-79316104D01*
X108005571Y-79316104D02*
X108005571Y-78744676D01*
X108529380Y-78744676D02*
X107529380Y-78744676D01*
X108434142Y-77697057D02*
X108481761Y-77744676D01*
X108529380Y-77887533D01*
X108529380Y-77982771D01*
X108481761Y-78125628D01*
X108386523Y-78220866D01*
X108291285Y-78268485D01*
X108100809Y-78316104D01*
X107957952Y-78316104D01*
X107767476Y-78268485D01*
X107672238Y-78220866D01*
X107577000Y-78125628D01*
X107529380Y-77982771D01*
X107529380Y-77887533D01*
X107577000Y-77744676D01*
X107624619Y-77697057D01*
X107529380Y-76792295D02*
X107529380Y-77268485D01*
X108005571Y-77316104D01*
X107957952Y-77268485D01*
X107910333Y-77173247D01*
X107910333Y-76935152D01*
X107957952Y-76839914D01*
X108005571Y-76792295D01*
X108100809Y-76744676D01*
X108338904Y-76744676D01*
X108434142Y-76792295D01*
X108481761Y-76839914D01*
X108529380Y-76935152D01*
X108529380Y-77173247D01*
X108481761Y-77268485D01*
X108434142Y-77316104D01*
X108529380Y-76268485D02*
X108529380Y-76078009D01*
X108481761Y-75982771D01*
X108434142Y-75935152D01*
X108291285Y-75839914D01*
X108100809Y-75792295D01*
X107719857Y-75792295D01*
X107624619Y-75839914D01*
X107577000Y-75887533D01*
X107529380Y-75982771D01*
X107529380Y-76173247D01*
X107577000Y-76268485D01*
X107624619Y-76316104D01*
X107719857Y-76363723D01*
X107957952Y-76363723D01*
X108053190Y-76316104D01*
X108100809Y-76268485D01*
X108148428Y-76173247D01*
X108148428Y-75982771D01*
X108100809Y-75887533D01*
X108053190Y-75839914D01*
X107957952Y-75792295D01*
X107529380Y-74887533D02*
X107529380Y-75363723D01*
X108005571Y-75411342D01*
X107957952Y-75363723D01*
X107910333Y-75268485D01*
X107910333Y-75030390D01*
X107957952Y-74935152D01*
X108005571Y-74887533D01*
X108100809Y-74839914D01*
X108338904Y-74839914D01*
X108434142Y-74887533D01*
X108481761Y-74935152D01*
X108529380Y-75030390D01*
X108529380Y-75268485D01*
X108481761Y-75363723D01*
X108434142Y-75411342D01*
X96683580Y-81493904D02*
X96683580Y-80827238D01*
X97683580Y-81255809D01*
X97016914Y-80017714D02*
X97683580Y-80017714D01*
X96635961Y-80255809D02*
X97350247Y-80493904D01*
X97350247Y-79874857D01*
X97683580Y-79493904D02*
X96683580Y-79493904D01*
X97159771Y-79493904D02*
X97159771Y-78922476D01*
X97683580Y-78922476D02*
X96683580Y-78922476D01*
X97588342Y-77874857D02*
X97635961Y-77922476D01*
X97683580Y-78065333D01*
X97683580Y-78160571D01*
X97635961Y-78303428D01*
X97540723Y-78398666D01*
X97445485Y-78446285D01*
X97255009Y-78493904D01*
X97112152Y-78493904D01*
X96921676Y-78446285D01*
X96826438Y-78398666D01*
X96731200Y-78303428D01*
X96683580Y-78160571D01*
X96683580Y-78065333D01*
X96731200Y-77922476D01*
X96778819Y-77874857D01*
X96683580Y-76970095D02*
X96683580Y-77446285D01*
X97159771Y-77493904D01*
X97112152Y-77446285D01*
X97064533Y-77351047D01*
X97064533Y-77112952D01*
X97112152Y-77017714D01*
X97159771Y-76970095D01*
X97255009Y-76922476D01*
X97493104Y-76922476D01*
X97588342Y-76970095D01*
X97635961Y-77017714D01*
X97683580Y-77112952D01*
X97683580Y-77351047D01*
X97635961Y-77446285D01*
X97588342Y-77493904D01*
X97683580Y-76446285D02*
X97683580Y-76255809D01*
X97635961Y-76160571D01*
X97588342Y-76112952D01*
X97445485Y-76017714D01*
X97255009Y-75970095D01*
X96874057Y-75970095D01*
X96778819Y-76017714D01*
X96731200Y-76065333D01*
X96683580Y-76160571D01*
X96683580Y-76351047D01*
X96731200Y-76446285D01*
X96778819Y-76493904D01*
X96874057Y-76541523D01*
X97112152Y-76541523D01*
X97207390Y-76493904D01*
X97255009Y-76446285D01*
X97302628Y-76351047D01*
X97302628Y-76160571D01*
X97255009Y-76065333D01*
X97207390Y-76017714D01*
X97112152Y-75970095D01*
X96683580Y-75065333D02*
X96683580Y-75541523D01*
X97159771Y-75589142D01*
X97112152Y-75541523D01*
X97064533Y-75446285D01*
X97064533Y-75208190D01*
X97112152Y-75112952D01*
X97159771Y-75065333D01*
X97255009Y-75017714D01*
X97493104Y-75017714D01*
X97588342Y-75065333D01*
X97635961Y-75112952D01*
X97683580Y-75208190D01*
X97683580Y-75446285D01*
X97635961Y-75541523D01*
X97588342Y-75589142D01*
D11*
X139088600Y-66954400D02*
G75*
G03*
X139088600Y-66954400I-1700000J0D01*
G01*
X150112200Y-87122000D02*
G75*
G03*
X150112200Y-87122000I-1700000J0D01*
G01*
X149959800Y-68630800D02*
G75*
G03*
X149959800Y-68630800I-1700000J0D01*
G01*
X87664600Y-62779600D02*
X85004600Y-62779600D01*
X87664600Y-65379600D02*
X87664600Y-62779600D01*
X85004600Y-65379600D02*
X85004600Y-62779600D01*
X87664600Y-65379600D02*
X85004600Y-65379600D01*
X87664600Y-66649600D02*
X87664600Y-67979600D01*
X87664600Y-67979600D02*
X86334600Y-67979600D01*
D12*
X81000600Y-70612000D02*
X88950600Y-70612000D01*
X88950600Y-70612000D02*
X88950600Y-83312000D01*
X88950600Y-83312000D02*
X75690600Y-83312000D01*
X75690600Y-83312000D02*
X75690600Y-70612000D01*
X75690600Y-70612000D02*
X81000600Y-70612000D01*
D11*
X99678000Y-71568000D02*
X98028000Y-71568000D01*
X99678000Y-92008000D02*
X99678000Y-71568000D01*
X94378000Y-92008000D02*
X99678000Y-92008000D01*
X94378000Y-71568000D02*
X94378000Y-92008000D01*
X96028000Y-71568000D02*
X94378000Y-71568000D01*
X98028000Y-71568000D02*
G75*
G02*
X96028000Y-71568000I-1000000J0D01*
G01*
X99418000Y-62865000D02*
G75*
G03*
X99418000Y-62865000I-2120000J0D01*
G01*
X97298000Y-64945000D02*
X97298000Y-60785000D01*
X97258000Y-64945000D02*
X97258000Y-60785000D01*
X97218000Y-64944000D02*
X97218000Y-60786000D01*
X97178000Y-64942000D02*
X97178000Y-60788000D01*
X97138000Y-64939000D02*
X97138000Y-60791000D01*
X97098000Y-64936000D02*
X97098000Y-63705000D01*
X97098000Y-62025000D02*
X97098000Y-60794000D01*
X97058000Y-64932000D02*
X97058000Y-63705000D01*
X97058000Y-62025000D02*
X97058000Y-60798000D01*
X97018000Y-64927000D02*
X97018000Y-63705000D01*
X97018000Y-62025000D02*
X97018000Y-60803000D01*
X96978000Y-64921000D02*
X96978000Y-63705000D01*
X96978000Y-62025000D02*
X96978000Y-60809000D01*
X96938000Y-64915000D02*
X96938000Y-63705000D01*
X96938000Y-62025000D02*
X96938000Y-60815000D01*
X96898000Y-64907000D02*
X96898000Y-63705000D01*
X96898000Y-62025000D02*
X96898000Y-60823000D01*
X96858000Y-64899000D02*
X96858000Y-63705000D01*
X96858000Y-62025000D02*
X96858000Y-60831000D01*
X96818000Y-64890000D02*
X96818000Y-63705000D01*
X96818000Y-62025000D02*
X96818000Y-60840000D01*
X96778000Y-64881000D02*
X96778000Y-63705000D01*
X96778000Y-62025000D02*
X96778000Y-60849000D01*
X96738000Y-64870000D02*
X96738000Y-63705000D01*
X96738000Y-62025000D02*
X96738000Y-60860000D01*
X96698000Y-64859000D02*
X96698000Y-63705000D01*
X96698000Y-62025000D02*
X96698000Y-60871000D01*
X96658000Y-64847000D02*
X96658000Y-63705000D01*
X96658000Y-62025000D02*
X96658000Y-60883000D01*
X96618000Y-64833000D02*
X96618000Y-63705000D01*
X96618000Y-62025000D02*
X96618000Y-60897000D01*
X96577000Y-64819000D02*
X96577000Y-63705000D01*
X96577000Y-62025000D02*
X96577000Y-60911000D01*
X96537000Y-64805000D02*
X96537000Y-63705000D01*
X96537000Y-62025000D02*
X96537000Y-60925000D01*
X96497000Y-64789000D02*
X96497000Y-63705000D01*
X96497000Y-62025000D02*
X96497000Y-60941000D01*
X96457000Y-64772000D02*
X96457000Y-63705000D01*
X96457000Y-62025000D02*
X96457000Y-60958000D01*
X96417000Y-64754000D02*
X96417000Y-63705000D01*
X96417000Y-62025000D02*
X96417000Y-60976000D01*
X96377000Y-64735000D02*
X96377000Y-63705000D01*
X96377000Y-62025000D02*
X96377000Y-60995000D01*
X96337000Y-64716000D02*
X96337000Y-63705000D01*
X96337000Y-62025000D02*
X96337000Y-61014000D01*
X96297000Y-64695000D02*
X96297000Y-63705000D01*
X96297000Y-62025000D02*
X96297000Y-61035000D01*
X96257000Y-64673000D02*
X96257000Y-63705000D01*
X96257000Y-62025000D02*
X96257000Y-61057000D01*
X96217000Y-64650000D02*
X96217000Y-63705000D01*
X96217000Y-62025000D02*
X96217000Y-61080000D01*
X96177000Y-64625000D02*
X96177000Y-63705000D01*
X96177000Y-62025000D02*
X96177000Y-61105000D01*
X96137000Y-64600000D02*
X96137000Y-63705000D01*
X96137000Y-62025000D02*
X96137000Y-61130000D01*
X96097000Y-64573000D02*
X96097000Y-63705000D01*
X96097000Y-62025000D02*
X96097000Y-61157000D01*
X96057000Y-64545000D02*
X96057000Y-63705000D01*
X96057000Y-62025000D02*
X96057000Y-61185000D01*
X96017000Y-64515000D02*
X96017000Y-63705000D01*
X96017000Y-62025000D02*
X96017000Y-61215000D01*
X95977000Y-64484000D02*
X95977000Y-63705000D01*
X95977000Y-62025000D02*
X95977000Y-61246000D01*
X95937000Y-64452000D02*
X95937000Y-63705000D01*
X95937000Y-62025000D02*
X95937000Y-61278000D01*
X95897000Y-64417000D02*
X95897000Y-63705000D01*
X95897000Y-62025000D02*
X95897000Y-61313000D01*
X95857000Y-64381000D02*
X95857000Y-63705000D01*
X95857000Y-62025000D02*
X95857000Y-61349000D01*
X95817000Y-64343000D02*
X95817000Y-63705000D01*
X95817000Y-62025000D02*
X95817000Y-61387000D01*
X95777000Y-64303000D02*
X95777000Y-63705000D01*
X95777000Y-62025000D02*
X95777000Y-61427000D01*
X95737000Y-64261000D02*
X95737000Y-63705000D01*
X95737000Y-62025000D02*
X95737000Y-61469000D01*
X95697000Y-64216000D02*
X95697000Y-63705000D01*
X95697000Y-62025000D02*
X95697000Y-61514000D01*
X95657000Y-64169000D02*
X95657000Y-63705000D01*
X95657000Y-62025000D02*
X95657000Y-61561000D01*
X95617000Y-64119000D02*
X95617000Y-63705000D01*
X95617000Y-62025000D02*
X95617000Y-61611000D01*
X95577000Y-64065000D02*
X95577000Y-63705000D01*
X95577000Y-62025000D02*
X95577000Y-61665000D01*
X95537000Y-64007000D02*
X95537000Y-63705000D01*
X95537000Y-62025000D02*
X95537000Y-61723000D01*
X95497000Y-63945000D02*
X95497000Y-63705000D01*
X95497000Y-62025000D02*
X95497000Y-61785000D01*
X95457000Y-63878000D02*
X95457000Y-61852000D01*
X95417000Y-63805000D02*
X95417000Y-61925000D01*
X95377000Y-63724000D02*
X95377000Y-62006000D01*
X95337000Y-63633000D02*
X95337000Y-62097000D01*
X95297000Y-63529000D02*
X95297000Y-62201000D01*
X95257000Y-63402000D02*
X95257000Y-62328000D01*
X95217000Y-63235000D02*
X95217000Y-62495000D01*
X99567801Y-64060000D02*
X99167801Y-64060000D01*
X99367801Y-64260000D02*
X99367801Y-63860000D01*
X139716000Y-71568000D02*
X138066000Y-71568000D01*
X138066000Y-71568000D02*
X138066000Y-89468000D01*
X138066000Y-89468000D02*
X143366000Y-89468000D01*
X143366000Y-89468000D02*
X143366000Y-71568000D01*
X143366000Y-71568000D02*
X141716000Y-71568000D01*
X141716000Y-71568000D02*
G75*
G02*
X139716000Y-71568000I-1000000J0D01*
G01*
X151614000Y-71828000D02*
X156154000Y-71828000D01*
X151614000Y-73968000D02*
X156154000Y-73968000D01*
X151614000Y-71828000D02*
X151614000Y-71843000D01*
X151614000Y-73953000D02*
X151614000Y-73968000D01*
X156154000Y-71828000D02*
X156154000Y-71843000D01*
X156154000Y-73953000D02*
X156154000Y-73968000D01*
X139986000Y-61444000D02*
X139986000Y-61114000D01*
X139986000Y-61114000D02*
X146526000Y-61114000D01*
X146526000Y-61114000D02*
X146526000Y-61444000D01*
X139986000Y-63524000D02*
X139986000Y-63854000D01*
X139986000Y-63854000D02*
X146526000Y-63854000D01*
X146526000Y-63854000D02*
X146526000Y-63524000D01*
X91565600Y-63811400D02*
X91895600Y-63811400D01*
X91895600Y-63811400D02*
X91895600Y-70351400D01*
X91895600Y-70351400D02*
X91565600Y-70351400D01*
X89485600Y-63811400D02*
X89155600Y-63811400D01*
X89155600Y-63811400D02*
X89155600Y-70351400D01*
X89155600Y-70351400D02*
X89485600Y-70351400D01*
X91565600Y-83648800D02*
X91895600Y-83648800D01*
X91895600Y-83648800D02*
X91895600Y-90188800D01*
X91895600Y-90188800D02*
X91565600Y-90188800D01*
X89485600Y-83648800D02*
X89155600Y-83648800D01*
X89155600Y-83648800D02*
X89155600Y-90188800D01*
X89155600Y-90188800D02*
X89485600Y-90188800D01*
X149384000Y-75668000D02*
X149384000Y-75338000D01*
X149384000Y-75338000D02*
X155924000Y-75338000D01*
X155924000Y-75338000D02*
X155924000Y-75668000D01*
X149384000Y-77748000D02*
X149384000Y-78078000D01*
X149384000Y-78078000D02*
X155924000Y-78078000D01*
X155924000Y-78078000D02*
X155924000Y-77748000D01*
X155374000Y-82620000D02*
X155374000Y-82750000D01*
X155374000Y-82750000D02*
X149934000Y-82750000D01*
X149934000Y-82750000D02*
X149934000Y-82620000D01*
X155374000Y-79940000D02*
X155374000Y-79810000D01*
X155374000Y-79810000D02*
X149934000Y-79810000D01*
X149934000Y-79810000D02*
X149934000Y-79940000D01*
X154474000Y-82750000D02*
X154474000Y-79810000D01*
X154354000Y-82750000D02*
X154354000Y-79810000D01*
X154594000Y-82750000D02*
X154594000Y-79810000D01*
X142647000Y-68930000D02*
X143905000Y-68930000D01*
X142647000Y-70770000D02*
X143905000Y-70770000D01*
X131685000Y-68930000D02*
X132943000Y-68930000D01*
X131685000Y-70770000D02*
X132943000Y-70770000D01*
X121017000Y-68930000D02*
X122275000Y-68930000D01*
X121017000Y-70770000D02*
X122275000Y-70770000D01*
X109841000Y-68930000D02*
X111099000Y-68930000D01*
X109841000Y-70770000D02*
X111099000Y-70770000D01*
X98919000Y-68930000D02*
X100177000Y-68930000D01*
X98919000Y-70770000D02*
X100177000Y-70770000D01*
X89351600Y-77382400D02*
X89351600Y-76124400D01*
X91191600Y-77382400D02*
X91191600Y-76124400D01*
X132444000Y-71568000D02*
X130794000Y-71568000D01*
X132444000Y-89468000D02*
X132444000Y-71568000D01*
X127144000Y-89468000D02*
X132444000Y-89468000D01*
X127144000Y-71568000D02*
X127144000Y-89468000D01*
X128794000Y-71568000D02*
X127144000Y-71568000D01*
X130794000Y-71568000D02*
G75*
G02*
X128794000Y-71568000I-1000000J0D01*
G01*
X121522000Y-71568000D02*
X119872000Y-71568000D01*
X121522000Y-89468000D02*
X121522000Y-71568000D01*
X116222000Y-89468000D02*
X121522000Y-89468000D01*
X116222000Y-71568000D02*
X116222000Y-89468000D01*
X117872000Y-71568000D02*
X116222000Y-71568000D01*
X119872000Y-71568000D02*
G75*
G02*
X117872000Y-71568000I-1000000J0D01*
G01*
X110600000Y-71568000D02*
X108950000Y-71568000D01*
X110600000Y-92008000D02*
X110600000Y-71568000D01*
X105300000Y-92008000D02*
X110600000Y-92008000D01*
X105300000Y-71568000D02*
X105300000Y-92008000D01*
X106950000Y-71568000D02*
X105300000Y-71568000D01*
X108950000Y-71568000D02*
G75*
G02*
X106950000Y-71568000I-1000000J0D01*
G01*
X102302000Y-62484000D02*
X102302000Y-61154000D01*
X102302000Y-61154000D02*
X103632000Y-61154000D01*
X104902000Y-61154000D02*
X135442000Y-61154000D01*
X135442000Y-63814000D02*
X135442000Y-61154000D01*
X104902000Y-63814000D02*
X135442000Y-63814000D01*
X104902000Y-63814000D02*
X104902000Y-61154000D01*
D10*
X92202095Y-70020380D02*
X92202095Y-70829904D01*
X92249714Y-70925142D01*
X92297333Y-70972761D01*
X92392571Y-71020380D01*
X92583047Y-71020380D01*
X92678285Y-70972761D01*
X92725904Y-70925142D01*
X92773523Y-70829904D01*
X92773523Y-70020380D01*
X93773523Y-71020380D02*
X93202095Y-71020380D01*
X93487809Y-71020380D02*
X93487809Y-70020380D01*
X93392571Y-70163238D01*
X93297333Y-70258476D01*
X93202095Y-70306095D01*
X93584733Y-63095142D02*
X93537114Y-63142761D01*
X93394257Y-63190380D01*
X93299019Y-63190380D01*
X93156161Y-63142761D01*
X93060923Y-63047523D01*
X93013304Y-62952285D01*
X92965685Y-62761809D01*
X92965685Y-62618952D01*
X93013304Y-62428476D01*
X93060923Y-62333238D01*
X93156161Y-62238000D01*
X93299019Y-62190380D01*
X93394257Y-62190380D01*
X93537114Y-62238000D01*
X93584733Y-62285619D01*
X94156161Y-62618952D02*
X94060923Y-62571333D01*
X94013304Y-62523714D01*
X93965685Y-62428476D01*
X93965685Y-62380857D01*
X94013304Y-62285619D01*
X94060923Y-62238000D01*
X94156161Y-62190380D01*
X94346638Y-62190380D01*
X94441876Y-62238000D01*
X94489495Y-62285619D01*
X94537114Y-62380857D01*
X94537114Y-62428476D01*
X94489495Y-62523714D01*
X94441876Y-62571333D01*
X94346638Y-62618952D01*
X94156161Y-62618952D01*
X94060923Y-62666571D01*
X94013304Y-62714190D01*
X93965685Y-62809428D01*
X93965685Y-62999904D01*
X94013304Y-63095142D01*
X94060923Y-63142761D01*
X94156161Y-63190380D01*
X94346638Y-63190380D01*
X94441876Y-63142761D01*
X94489495Y-63095142D01*
X94537114Y-62999904D01*
X94537114Y-62809428D01*
X94489495Y-62714190D01*
X94441876Y-62666571D01*
X94346638Y-62618952D01*
X135890095Y-70020380D02*
X135890095Y-70829904D01*
X135937714Y-70925142D01*
X135985333Y-70972761D01*
X136080571Y-71020380D01*
X136271047Y-71020380D01*
X136366285Y-70972761D01*
X136413904Y-70925142D01*
X136461523Y-70829904D01*
X136461523Y-70020380D01*
X137413904Y-70020380D02*
X136937714Y-70020380D01*
X136890095Y-70496571D01*
X136937714Y-70448952D01*
X137032952Y-70401333D01*
X137271047Y-70401333D01*
X137366285Y-70448952D01*
X137413904Y-70496571D01*
X137461523Y-70591809D01*
X137461523Y-70829904D01*
X137413904Y-70925142D01*
X137366285Y-70972761D01*
X137271047Y-71020380D01*
X137032952Y-71020380D01*
X136937714Y-70972761D01*
X136890095Y-70925142D01*
X153717333Y-71055142D02*
X153669714Y-71102761D01*
X153526857Y-71150380D01*
X153431619Y-71150380D01*
X153288761Y-71102761D01*
X153193523Y-71007523D01*
X153145904Y-70912285D01*
X153098285Y-70721809D01*
X153098285Y-70578952D01*
X153145904Y-70388476D01*
X153193523Y-70293238D01*
X153288761Y-70198000D01*
X153431619Y-70150380D01*
X153526857Y-70150380D01*
X153669714Y-70198000D01*
X153717333Y-70245619D01*
X154669714Y-71150380D02*
X154098285Y-71150380D01*
X154384000Y-71150380D02*
X154384000Y-70150380D01*
X154288761Y-70293238D01*
X154193523Y-70388476D01*
X154098285Y-70436095D01*
X143089333Y-65476380D02*
X142756000Y-65000190D01*
X142517904Y-65476380D02*
X142517904Y-64476380D01*
X142898857Y-64476380D01*
X142994095Y-64524000D01*
X143041714Y-64571619D01*
X143089333Y-64666857D01*
X143089333Y-64809714D01*
X143041714Y-64904952D01*
X142994095Y-64952571D01*
X142898857Y-65000190D01*
X142517904Y-65000190D01*
X143946476Y-64809714D02*
X143946476Y-65476380D01*
X143708380Y-64428761D02*
X143470285Y-65143047D01*
X144089333Y-65143047D01*
X93543380Y-68314866D02*
X93067190Y-68648200D01*
X93543380Y-68886295D02*
X92543380Y-68886295D01*
X92543380Y-68505342D01*
X92591000Y-68410104D01*
X92638619Y-68362485D01*
X92733857Y-68314866D01*
X92876714Y-68314866D01*
X92971952Y-68362485D01*
X93019571Y-68410104D01*
X93067190Y-68505342D01*
X93067190Y-68886295D01*
X92543380Y-67981533D02*
X92543380Y-67362485D01*
X92924333Y-67695819D01*
X92924333Y-67552961D01*
X92971952Y-67457723D01*
X93019571Y-67410104D01*
X93114809Y-67362485D01*
X93352904Y-67362485D01*
X93448142Y-67410104D01*
X93495761Y-67457723D01*
X93543380Y-67552961D01*
X93543380Y-67838676D01*
X93495761Y-67933914D01*
X93448142Y-67981533D01*
X88463380Y-87110866D02*
X87987190Y-87444200D01*
X88463380Y-87682295D02*
X87463380Y-87682295D01*
X87463380Y-87301342D01*
X87511000Y-87206104D01*
X87558619Y-87158485D01*
X87653857Y-87110866D01*
X87796714Y-87110866D01*
X87891952Y-87158485D01*
X87939571Y-87206104D01*
X87987190Y-87301342D01*
X87987190Y-87682295D01*
X87558619Y-86729914D02*
X87511000Y-86682295D01*
X87463380Y-86587057D01*
X87463380Y-86348961D01*
X87511000Y-86253723D01*
X87558619Y-86206104D01*
X87653857Y-86158485D01*
X87749095Y-86158485D01*
X87891952Y-86206104D01*
X88463380Y-86777533D01*
X88463380Y-86158485D01*
X148677333Y-74620380D02*
X148344000Y-74144190D01*
X148105904Y-74620380D02*
X148105904Y-73620380D01*
X148486857Y-73620380D01*
X148582095Y-73668000D01*
X148629714Y-73715619D01*
X148677333Y-73810857D01*
X148677333Y-73953714D01*
X148629714Y-74048952D01*
X148582095Y-74096571D01*
X148486857Y-74144190D01*
X148105904Y-74144190D01*
X149629714Y-74620380D02*
X149058285Y-74620380D01*
X149344000Y-74620380D02*
X149344000Y-73620380D01*
X149248761Y-73763238D01*
X149153523Y-73858476D01*
X149058285Y-73906095D01*
X148105904Y-84272380D02*
X148105904Y-83272380D01*
X148344000Y-83272380D01*
X148486857Y-83320000D01*
X148582095Y-83415238D01*
X148629714Y-83510476D01*
X148677333Y-83700952D01*
X148677333Y-83843809D01*
X148629714Y-84034285D01*
X148582095Y-84129523D01*
X148486857Y-84224761D01*
X148344000Y-84272380D01*
X148105904Y-84272380D01*
X149629714Y-84272380D02*
X149058285Y-84272380D01*
X149344000Y-84272380D02*
X149344000Y-83272380D01*
X149248761Y-83415238D01*
X149153523Y-83510476D01*
X149058285Y-83558095D01*
X156202095Y-83832380D02*
X156202095Y-82832380D01*
X156773523Y-83832380D02*
X156344952Y-83260952D01*
X156773523Y-82832380D02*
X156202095Y-83403809D01*
X139573333Y-69953142D02*
X139525714Y-70000761D01*
X139382857Y-70048380D01*
X139287619Y-70048380D01*
X139144761Y-70000761D01*
X139049523Y-69905523D01*
X139001904Y-69810285D01*
X138954285Y-69619809D01*
X138954285Y-69476952D01*
X139001904Y-69286476D01*
X139049523Y-69191238D01*
X139144761Y-69096000D01*
X139287619Y-69048380D01*
X139382857Y-69048380D01*
X139525714Y-69096000D01*
X139573333Y-69143619D01*
X139906666Y-69048380D02*
X140573333Y-69048380D01*
X140144761Y-70048380D01*
X128611333Y-69953142D02*
X128563714Y-70000761D01*
X128420857Y-70048380D01*
X128325619Y-70048380D01*
X128182761Y-70000761D01*
X128087523Y-69905523D01*
X128039904Y-69810285D01*
X127992285Y-69619809D01*
X127992285Y-69476952D01*
X128039904Y-69286476D01*
X128087523Y-69191238D01*
X128182761Y-69096000D01*
X128325619Y-69048380D01*
X128420857Y-69048380D01*
X128563714Y-69096000D01*
X128611333Y-69143619D01*
X129468476Y-69048380D02*
X129278000Y-69048380D01*
X129182761Y-69096000D01*
X129135142Y-69143619D01*
X129039904Y-69286476D01*
X128992285Y-69476952D01*
X128992285Y-69857904D01*
X129039904Y-69953142D01*
X129087523Y-70000761D01*
X129182761Y-70048380D01*
X129373238Y-70048380D01*
X129468476Y-70000761D01*
X129516095Y-69953142D01*
X129563714Y-69857904D01*
X129563714Y-69619809D01*
X129516095Y-69524571D01*
X129468476Y-69476952D01*
X129373238Y-69429333D01*
X129182761Y-69429333D01*
X129087523Y-69476952D01*
X129039904Y-69524571D01*
X128992285Y-69619809D01*
X117943333Y-69953142D02*
X117895714Y-70000761D01*
X117752857Y-70048380D01*
X117657619Y-70048380D01*
X117514761Y-70000761D01*
X117419523Y-69905523D01*
X117371904Y-69810285D01*
X117324285Y-69619809D01*
X117324285Y-69476952D01*
X117371904Y-69286476D01*
X117419523Y-69191238D01*
X117514761Y-69096000D01*
X117657619Y-69048380D01*
X117752857Y-69048380D01*
X117895714Y-69096000D01*
X117943333Y-69143619D01*
X118848095Y-69048380D02*
X118371904Y-69048380D01*
X118324285Y-69524571D01*
X118371904Y-69476952D01*
X118467142Y-69429333D01*
X118705238Y-69429333D01*
X118800476Y-69476952D01*
X118848095Y-69524571D01*
X118895714Y-69619809D01*
X118895714Y-69857904D01*
X118848095Y-69953142D01*
X118800476Y-70000761D01*
X118705238Y-70048380D01*
X118467142Y-70048380D01*
X118371904Y-70000761D01*
X118324285Y-69953142D01*
X106727333Y-69953142D02*
X106679714Y-70000761D01*
X106536857Y-70048380D01*
X106441619Y-70048380D01*
X106298761Y-70000761D01*
X106203523Y-69905523D01*
X106155904Y-69810285D01*
X106108285Y-69619809D01*
X106108285Y-69476952D01*
X106155904Y-69286476D01*
X106203523Y-69191238D01*
X106298761Y-69096000D01*
X106441619Y-69048380D01*
X106536857Y-69048380D01*
X106679714Y-69096000D01*
X106727333Y-69143619D01*
X107584476Y-69381714D02*
X107584476Y-70048380D01*
X107346380Y-69000761D02*
X107108285Y-69715047D01*
X107727333Y-69715047D01*
X95805333Y-69953142D02*
X95757714Y-70000761D01*
X95614857Y-70048380D01*
X95519619Y-70048380D01*
X95376761Y-70000761D01*
X95281523Y-69905523D01*
X95233904Y-69810285D01*
X95186285Y-69619809D01*
X95186285Y-69476952D01*
X95233904Y-69286476D01*
X95281523Y-69191238D01*
X95376761Y-69096000D01*
X95519619Y-69048380D01*
X95614857Y-69048380D01*
X95757714Y-69096000D01*
X95805333Y-69143619D01*
X96138666Y-69048380D02*
X96757714Y-69048380D01*
X96424380Y-69429333D01*
X96567238Y-69429333D01*
X96662476Y-69476952D01*
X96710095Y-69524571D01*
X96757714Y-69619809D01*
X96757714Y-69857904D01*
X96710095Y-69953142D01*
X96662476Y-70000761D01*
X96567238Y-70048380D01*
X96281523Y-70048380D01*
X96186285Y-70000761D01*
X96138666Y-69953142D01*
X90603342Y-80430666D02*
X90650961Y-80478285D01*
X90698580Y-80621142D01*
X90698580Y-80716380D01*
X90650961Y-80859238D01*
X90555723Y-80954476D01*
X90460485Y-81002095D01*
X90270009Y-81049714D01*
X90127152Y-81049714D01*
X89936676Y-81002095D01*
X89841438Y-80954476D01*
X89746200Y-80859238D01*
X89698580Y-80716380D01*
X89698580Y-80621142D01*
X89746200Y-80478285D01*
X89793819Y-80430666D01*
X89793819Y-80049714D02*
X89746200Y-80002095D01*
X89698580Y-79906857D01*
X89698580Y-79668761D01*
X89746200Y-79573523D01*
X89793819Y-79525904D01*
X89889057Y-79478285D01*
X89984295Y-79478285D01*
X90127152Y-79525904D01*
X90698580Y-80097333D01*
X90698580Y-79478285D01*
X125222095Y-70064380D02*
X125222095Y-70873904D01*
X125269714Y-70969142D01*
X125317333Y-71016761D01*
X125412571Y-71064380D01*
X125603047Y-71064380D01*
X125698285Y-71016761D01*
X125745904Y-70969142D01*
X125793523Y-70873904D01*
X125793523Y-70064380D01*
X126698285Y-70397714D02*
X126698285Y-71064380D01*
X126460190Y-70016761D02*
X126222095Y-70731047D01*
X126841142Y-70731047D01*
X114300095Y-70020380D02*
X114300095Y-70829904D01*
X114347714Y-70925142D01*
X114395333Y-70972761D01*
X114490571Y-71020380D01*
X114681047Y-71020380D01*
X114776285Y-70972761D01*
X114823904Y-70925142D01*
X114871523Y-70829904D01*
X114871523Y-70020380D01*
X115252476Y-70020380D02*
X115871523Y-70020380D01*
X115538190Y-70401333D01*
X115681047Y-70401333D01*
X115776285Y-70448952D01*
X115823904Y-70496571D01*
X115871523Y-70591809D01*
X115871523Y-70829904D01*
X115823904Y-70925142D01*
X115776285Y-70972761D01*
X115681047Y-71020380D01*
X115395333Y-71020380D01*
X115300095Y-70972761D01*
X115252476Y-70925142D01*
X103378095Y-70020380D02*
X103378095Y-70829904D01*
X103425714Y-70925142D01*
X103473333Y-70972761D01*
X103568571Y-71020380D01*
X103759047Y-71020380D01*
X103854285Y-70972761D01*
X103901904Y-70925142D01*
X103949523Y-70829904D01*
X103949523Y-70020380D01*
X104378095Y-70115619D02*
X104425714Y-70068000D01*
X104520952Y-70020380D01*
X104759047Y-70020380D01*
X104854285Y-70068000D01*
X104901904Y-70115619D01*
X104949523Y-70210857D01*
X104949523Y-70306095D01*
X104901904Y-70448952D01*
X104330476Y-71020380D01*
X104949523Y-71020380D01*
X100314380Y-62817333D02*
X101028666Y-62817333D01*
X101171523Y-62864952D01*
X101266761Y-62960190D01*
X101314380Y-63103047D01*
X101314380Y-63198285D01*
X100409619Y-62388761D02*
X100362000Y-62341142D01*
X100314380Y-62245904D01*
X100314380Y-62007809D01*
X100362000Y-61912571D01*
X100409619Y-61864952D01*
X100504857Y-61817333D01*
X100600095Y-61817333D01*
X100742952Y-61864952D01*
X101314380Y-62436380D01*
X101314380Y-61817333D01*
%LPC*%
D13*
X137388600Y-66954400D03*
X148412200Y-87122000D03*
X148259800Y-68630800D03*
D14*
X86334600Y-64109600D03*
D15*
X86334600Y-66649600D03*
D16*
X81000600Y-69977000D03*
X81000600Y-83947000D03*
D17*
X80416400Y-76962000D03*
D18*
X84540600Y-80137000D03*
X84540600Y-73787000D03*
X87080600Y-73787000D03*
X87080600Y-80137000D03*
X84540600Y-78105000D03*
X84540600Y-75946000D03*
D19*
X100838000Y-72898000D03*
X93218000Y-90678000D03*
X100838000Y-75438000D03*
X93218000Y-88138000D03*
X100838000Y-77978000D03*
X93218000Y-85598000D03*
X100838000Y-80518000D03*
X93218000Y-83058000D03*
X100838000Y-83058000D03*
X93218000Y-80518000D03*
X100838000Y-85598000D03*
X93218000Y-77978000D03*
X100838000Y-88138000D03*
X93218000Y-75438000D03*
X100838000Y-90678000D03*
D20*
X93218000Y-72898000D03*
D21*
X154686000Y-89916000D03*
X154686000Y-64262000D03*
X80010000Y-89916000D03*
X80010000Y-64262000D03*
D22*
X96298000Y-62865000D03*
D23*
X98298000Y-62865000D03*
D19*
X144526000Y-72898000D03*
X136906000Y-88138000D03*
X144526000Y-75438000D03*
X136906000Y-85598000D03*
X144526000Y-77978000D03*
X136906000Y-83058000D03*
X144526000Y-80518000D03*
X136906000Y-80518000D03*
X144526000Y-83058000D03*
X136906000Y-77978000D03*
X144526000Y-85598000D03*
X136906000Y-75438000D03*
X144526000Y-88138000D03*
D20*
X136906000Y-72898000D03*
D24*
X156384000Y-72898000D03*
X151384000Y-72898000D03*
D19*
X147066000Y-62484000D03*
D24*
X139446000Y-62484000D03*
D19*
X90525600Y-70891400D03*
D24*
X90525600Y-63271400D03*
D19*
X90525600Y-90728800D03*
D24*
X90525600Y-83108800D03*
D19*
X156464000Y-76708000D03*
D24*
X148844000Y-76708000D03*
D25*
X148844000Y-81280000D03*
D26*
X156464000Y-81280000D03*
D24*
X144526000Y-69850000D03*
X142026000Y-69850000D03*
X133564000Y-69850000D03*
X131064000Y-69850000D03*
X122896000Y-69850000D03*
X120396000Y-69850000D03*
X111720000Y-69850000D03*
X109220000Y-69850000D03*
X100798000Y-69850000D03*
X98298000Y-69850000D03*
X90271600Y-75503400D03*
X90271600Y-78003400D03*
D19*
X133604000Y-72898000D03*
X125984000Y-88138000D03*
X133604000Y-75438000D03*
X125984000Y-85598000D03*
X133604000Y-77978000D03*
X125984000Y-83058000D03*
X133604000Y-80518000D03*
X125984000Y-80518000D03*
X133604000Y-83058000D03*
X125984000Y-77978000D03*
X133604000Y-85598000D03*
X125984000Y-75438000D03*
X133604000Y-88138000D03*
D20*
X125984000Y-72898000D03*
D19*
X122682000Y-72898000D03*
X115062000Y-88138000D03*
X122682000Y-75438000D03*
X115062000Y-85598000D03*
X122682000Y-77978000D03*
X115062000Y-83058000D03*
X122682000Y-80518000D03*
X115062000Y-80518000D03*
X122682000Y-83058000D03*
X115062000Y-77978000D03*
X122682000Y-85598000D03*
X115062000Y-75438000D03*
X122682000Y-88138000D03*
D20*
X115062000Y-72898000D03*
D19*
X111760000Y-72898000D03*
X104140000Y-90678000D03*
X111760000Y-75438000D03*
X104140000Y-88138000D03*
X111760000Y-77978000D03*
X104140000Y-85598000D03*
X111760000Y-80518000D03*
X104140000Y-83058000D03*
X111760000Y-83058000D03*
X104140000Y-80518000D03*
X111760000Y-85598000D03*
X104140000Y-77978000D03*
X111760000Y-88138000D03*
X104140000Y-75438000D03*
X111760000Y-90678000D03*
D20*
X104140000Y-72898000D03*
D14*
X134112000Y-62484000D03*
X131572000Y-62484000D03*
X129032000Y-62484000D03*
X126492000Y-62484000D03*
X123952000Y-62484000D03*
X121412000Y-62484000D03*
X118872000Y-62484000D03*
X116332000Y-62484000D03*
X113792000Y-62484000D03*
X111252000Y-62484000D03*
X108712000Y-62484000D03*
X106172000Y-62484000D03*
D15*
X103632000Y-62484000D03*
M02*
