%FSLAX45Y45*%
G04 Gerber Fmt 4.5, Leading zero omitted, Abs format (unit mm)*
G04 Created by KiCad (PCBNEW (5.1.10-1-10_14)) date 2021-08-04 23:21:25*
%MOMM*%
%LPD*%
G01*
G04 APERTURE LIST*
%TA.AperFunction,Profile*%
%ADD10C,0.100000*%
%TD*%
%ADD11C,0.200000*%
%ADD12C,0.300000*%
G04 APERTURE END LIST*
D10*
X15443200Y-5994400D02*
G75*
G02*
X15900400Y-6451600I0J-457200D01*
G01*
X15900400Y-8966200D02*
G75*
G02*
X15443200Y-9423400I-457200J0D01*
G01*
X8026400Y-9423400D02*
G75*
G02*
X7569200Y-8966200I0J457200D01*
G01*
X7569200Y-6451600D02*
G75*
G02*
X8026400Y-5994400I457200J0D01*
G01*
X7569200Y-8966200D02*
X7569200Y-6451600D01*
X8026400Y-5994400D02*
X15443200Y-5994400D01*
X15900400Y-6451600D02*
X15900400Y-8966200D01*
X15443200Y-9423400D02*
X8026400Y-9423400D01*
D11*
X7775260Y-7300280D02*
X7815260Y-7340280D01*
X7815260Y-7300280D02*
X7775260Y-7340280D01*
X7780340Y-8044500D02*
X7820340Y-8084500D01*
X7820340Y-8044500D02*
X7780340Y-8084500D01*
X8466140Y-8534720D02*
X8506140Y-8574720D01*
X8506140Y-8534720D02*
X8466140Y-8574720D01*
X8595680Y-8999540D02*
X8635680Y-9039540D01*
X8635680Y-8999540D02*
X8595680Y-9039540D01*
X8600760Y-7094540D02*
X8640760Y-7134540D01*
X8640760Y-7094540D02*
X8600760Y-7134540D01*
X9012240Y-6088700D02*
X9052240Y-6128700D01*
X9052240Y-6088700D02*
X9012240Y-6128700D01*
X9596440Y-8920800D02*
X9636440Y-8960800D01*
X9636440Y-8920800D02*
X9596440Y-8960800D01*
X9832660Y-7282500D02*
X9872660Y-7322500D01*
X9872660Y-7282500D02*
X9832660Y-7322500D01*
X10020620Y-6469700D02*
X10060620Y-6509700D01*
X10060620Y-6469700D02*
X10020620Y-6509700D01*
X10424480Y-6871020D02*
X10464480Y-6911020D01*
X10464480Y-6871020D02*
X10424480Y-6911020D01*
X10614980Y-7770180D02*
X10654980Y-7810180D01*
X10654980Y-7770180D02*
X10614980Y-7810180D01*
X10739440Y-8039420D02*
X10779440Y-8079420D01*
X10779440Y-8039420D02*
X10739440Y-8079420D01*
X10810560Y-7508560D02*
X10850560Y-7548560D01*
X10850560Y-7508560D02*
X10810560Y-7548560D01*
X10858820Y-6484940D02*
X10898820Y-6524940D01*
X10898820Y-6484940D02*
X10858820Y-6524940D01*
X10858820Y-7323140D02*
X10898820Y-7363140D01*
X10898820Y-7323140D02*
X10858820Y-7363140D01*
X10858820Y-9294180D02*
X10898820Y-9334180D01*
X10898820Y-9294180D02*
X10858820Y-9334180D01*
X10907080Y-8034340D02*
X10947080Y-8074340D01*
X10947080Y-8034340D02*
X10907080Y-8074340D01*
X11717340Y-7533960D02*
X11757340Y-7573960D01*
X11757340Y-7533960D02*
X11717340Y-7573960D01*
X11763060Y-7996240D02*
X11803060Y-8036240D01*
X11803060Y-7996240D02*
X11763060Y-8036240D01*
X11851960Y-7269800D02*
X11891960Y-7309800D01*
X11891960Y-7269800D02*
X11851960Y-7309800D01*
X11912920Y-7660960D02*
X11952920Y-7700960D01*
X11952920Y-7660960D02*
X11912920Y-7700960D01*
X11930700Y-8483920D02*
X11970700Y-8523920D01*
X11970700Y-8483920D02*
X11930700Y-8523920D01*
X12621580Y-6469700D02*
X12661580Y-6509700D01*
X12661580Y-6469700D02*
X12621580Y-6509700D01*
X12629200Y-6977700D02*
X12669200Y-7017700D01*
X12669200Y-6977700D02*
X12629200Y-7017700D01*
X12634280Y-9068120D02*
X12674280Y-9108120D01*
X12674280Y-9068120D02*
X12634280Y-9108120D01*
X12811140Y-8994075D02*
X12851140Y-9034075D01*
X12851140Y-8994075D02*
X12811140Y-9034075D01*
X12890820Y-8608380D02*
X12930820Y-8648380D01*
X12930820Y-8608380D02*
X12890820Y-8648380D01*
X12979720Y-7412040D02*
X13019720Y-7452040D01*
X13019720Y-7412040D02*
X12979720Y-7452040D01*
X13035600Y-9289100D02*
X13075600Y-9329100D01*
X13075600Y-9289100D02*
X13035600Y-9329100D01*
X13050840Y-7922580D02*
X13090840Y-7962580D01*
X13090840Y-7922580D02*
X13050840Y-7962580D01*
X13063540Y-7241860D02*
X13103540Y-7281860D01*
X13103540Y-7241860D02*
X13063540Y-7281860D01*
X13096560Y-7330760D02*
X13136560Y-7370760D01*
X13136560Y-7330760D02*
X13096560Y-7370760D01*
X13459780Y-8989380D02*
X13499780Y-9029380D01*
X13499780Y-8989380D02*
X13459780Y-9029380D01*
X13491075Y-6896271D02*
X13531075Y-6936271D01*
X13531075Y-6896271D02*
X13491075Y-6936271D01*
X13927140Y-7259640D02*
X13967140Y-7299640D01*
X13967140Y-7259640D02*
X13927140Y-7299640D01*
X14005880Y-6538280D02*
X14045880Y-6578280D01*
X14045880Y-6538280D02*
X14005880Y-6578280D01*
X14033820Y-7884480D02*
X14073820Y-7924480D01*
X14073820Y-7884480D02*
X14033820Y-7924480D01*
X14059220Y-8270560D02*
X14099220Y-8310560D01*
X14099220Y-8270560D02*
X14059220Y-8310560D01*
X14602780Y-6606860D02*
X14642780Y-6646860D01*
X14642780Y-6606860D02*
X14602780Y-6646860D01*
X14739940Y-9179880D02*
X14779940Y-9219880D01*
X14779940Y-9179880D02*
X14739940Y-9219880D01*
X14770420Y-7889560D02*
X14810420Y-7929560D01*
X14810420Y-7889560D02*
X14770420Y-7929560D01*
X15062520Y-6187760D02*
X15102520Y-6227760D01*
X15102520Y-6187760D02*
X15062520Y-6227760D01*
X15771180Y-6949760D02*
X15811180Y-6989760D01*
X15811180Y-6949760D02*
X15771180Y-6989760D01*
X8066640Y-7696200D02*
G75*
G03*
X8066640Y-7696200I-25000J0D01*
G01*
X8026640Y-7621200D02*
X8026640Y-7771200D01*
X8056640Y-7621200D02*
X8056640Y-7771200D01*
X8026640Y-7771200D02*
G75*
G03*
X8056640Y-7771200I15000J0D01*
G01*
X8056640Y-7621200D02*
G75*
G03*
X8026640Y-7621200I-15000J0D01*
G01*
X8125060Y-6997700D02*
G75*
G03*
X8125060Y-6997700I-25000J0D01*
G01*
X8170060Y-6982700D02*
X8030060Y-6982700D01*
X8170060Y-7012700D02*
X8030060Y-7012700D01*
X8030060Y-6982700D02*
G75*
G03*
X8030060Y-7012700I0J-15000D01*
G01*
X8170060Y-7012700D02*
G75*
G03*
X8170060Y-6982700I0J15000D01*
G01*
X8125060Y-8394700D02*
G75*
G03*
X8125060Y-8394700I-25000J0D01*
G01*
X8170060Y-8379700D02*
X8030060Y-8379700D01*
X8170060Y-8409700D02*
X8030060Y-8409700D01*
X8030060Y-8379700D02*
G75*
G03*
X8030060Y-8409700I0J-15000D01*
G01*
X8170060Y-8409700D02*
G75*
G03*
X8170060Y-8379700I0J15000D01*
G01*
X9629800Y-6256500D02*
X9629800Y-6316500D01*
X9599800Y-6286500D02*
X9659800Y-6286500D01*
X9829800Y-6256500D02*
X9829800Y-6316500D01*
X9799800Y-6286500D02*
X9859800Y-6286500D01*
X8480577Y-7405217D02*
X8480577Y-7352183D01*
X8427543Y-7352183D01*
X8427543Y-7405217D01*
X8480577Y-7405217D01*
X8480577Y-7621117D02*
X8480577Y-7568083D01*
X8427543Y-7568083D01*
X8427543Y-7621117D01*
X8480577Y-7621117D01*
X8480577Y-7837017D02*
X8480577Y-7783983D01*
X8427543Y-7783983D01*
X8427543Y-7837017D01*
X8480577Y-7837017D01*
X8480577Y-8040217D02*
X8480577Y-7987183D01*
X8427543Y-7987183D01*
X8427543Y-8040217D01*
X8480577Y-8040217D01*
X8734577Y-7405217D02*
X8734577Y-7352183D01*
X8681543Y-7352183D01*
X8681543Y-7405217D01*
X8734577Y-7405217D01*
X8734577Y-8040217D02*
X8734577Y-7987183D01*
X8681543Y-7987183D01*
X8681543Y-8040217D01*
X8734577Y-8040217D01*
X9027160Y-7590340D02*
X9067160Y-7550340D01*
X9027160Y-7510340D01*
X8987160Y-7550340D01*
X9027160Y-7590340D01*
X9027160Y-7840340D02*
X9067160Y-7800340D01*
X9027160Y-7760340D01*
X8987160Y-7800340D01*
X9027160Y-7840340D01*
X9052560Y-6367140D02*
X9092560Y-6327140D01*
X9052560Y-6287140D01*
X9012560Y-6327140D01*
X9052560Y-6367140D01*
X9052560Y-7129140D02*
X9092560Y-7089140D01*
X9052560Y-7049140D01*
X9012560Y-7089140D01*
X9052560Y-7129140D01*
X9052560Y-8350880D02*
X9092560Y-8310880D01*
X9052560Y-8270880D01*
X9012560Y-8310880D01*
X9052560Y-8350880D01*
X9052560Y-9112880D02*
X9092560Y-9072880D01*
X9052560Y-9032880D01*
X9012560Y-9072880D01*
X9052560Y-9112880D01*
X9321800Y-7329800D02*
X9361800Y-7289800D01*
X9321800Y-7249800D01*
X9281800Y-7289800D01*
X9321800Y-7329800D01*
X9321800Y-7583800D02*
X9361800Y-7543800D01*
X9321800Y-7503800D01*
X9281800Y-7543800D01*
X9321800Y-7583800D01*
X9321800Y-7837800D02*
X9361800Y-7797800D01*
X9321800Y-7757800D01*
X9281800Y-7797800D01*
X9321800Y-7837800D01*
X9321800Y-8091800D02*
X9361800Y-8051800D01*
X9321800Y-8011800D01*
X9281800Y-8051800D01*
X9321800Y-8091800D01*
X9321800Y-8345800D02*
X9361800Y-8305800D01*
X9321800Y-8265800D01*
X9281800Y-8305800D01*
X9321800Y-8345800D01*
X9321800Y-8599800D02*
X9361800Y-8559800D01*
X9321800Y-8519800D01*
X9281800Y-8559800D01*
X9321800Y-8599800D01*
X9321800Y-8853800D02*
X9361800Y-8813800D01*
X9321800Y-8773800D01*
X9281800Y-8813800D01*
X9321800Y-8853800D01*
X9321800Y-9107800D02*
X9361800Y-9067800D01*
X9321800Y-9027800D01*
X9281800Y-9067800D01*
X9321800Y-9107800D01*
X9829800Y-7025000D02*
X9869800Y-6985000D01*
X9829800Y-6945000D01*
X9789800Y-6985000D01*
X9829800Y-7025000D01*
X10079800Y-7025000D02*
X10119800Y-6985000D01*
X10079800Y-6945000D01*
X10039800Y-6985000D01*
X10079800Y-7025000D01*
X10083800Y-7329800D02*
X10123800Y-7289800D01*
X10083800Y-7249800D01*
X10043800Y-7289800D01*
X10083800Y-7329800D01*
X10083800Y-7583800D02*
X10123800Y-7543800D01*
X10083800Y-7503800D01*
X10043800Y-7543800D01*
X10083800Y-7583800D01*
X10083800Y-7837800D02*
X10123800Y-7797800D01*
X10083800Y-7757800D01*
X10043800Y-7797800D01*
X10083800Y-7837800D01*
X10083800Y-8091800D02*
X10123800Y-8051800D01*
X10083800Y-8011800D01*
X10043800Y-8051800D01*
X10083800Y-8091800D01*
X10083800Y-8345800D02*
X10123800Y-8305800D01*
X10083800Y-8265800D01*
X10043800Y-8305800D01*
X10083800Y-8345800D01*
X10083800Y-8599800D02*
X10123800Y-8559800D01*
X10083800Y-8519800D01*
X10043800Y-8559800D01*
X10083800Y-8599800D01*
X10083800Y-8853800D02*
X10123800Y-8813800D01*
X10083800Y-8773800D01*
X10043800Y-8813800D01*
X10083800Y-8853800D01*
X10083800Y-9107800D02*
X10123800Y-9067800D01*
X10083800Y-9027800D01*
X10043800Y-9067800D01*
X10083800Y-9107800D01*
X10414000Y-7329800D02*
X10454000Y-7289800D01*
X10414000Y-7249800D01*
X10374000Y-7289800D01*
X10414000Y-7329800D01*
X10414000Y-7583800D02*
X10454000Y-7543800D01*
X10414000Y-7503800D01*
X10374000Y-7543800D01*
X10414000Y-7583800D01*
X10414000Y-7837800D02*
X10454000Y-7797800D01*
X10414000Y-7757800D01*
X10374000Y-7797800D01*
X10414000Y-7837800D01*
X10414000Y-8091800D02*
X10454000Y-8051800D01*
X10414000Y-8011800D01*
X10374000Y-8051800D01*
X10414000Y-8091800D01*
X10414000Y-8345800D02*
X10454000Y-8305800D01*
X10414000Y-8265800D01*
X10374000Y-8305800D01*
X10414000Y-8345800D01*
X10414000Y-8599800D02*
X10454000Y-8559800D01*
X10414000Y-8519800D01*
X10374000Y-8559800D01*
X10414000Y-8599800D01*
X10414000Y-8853800D02*
X10454000Y-8813800D01*
X10414000Y-8773800D01*
X10374000Y-8813800D01*
X10414000Y-8853800D01*
X10414000Y-9107800D02*
X10454000Y-9067800D01*
X10414000Y-9027800D01*
X10374000Y-9067800D01*
X10414000Y-9107800D01*
X10922000Y-7025000D02*
X10962000Y-6985000D01*
X10922000Y-6945000D01*
X10882000Y-6985000D01*
X10922000Y-7025000D01*
X11172000Y-7025000D02*
X11212000Y-6985000D01*
X11172000Y-6945000D01*
X11132000Y-6985000D01*
X11172000Y-7025000D01*
X11176000Y-7329800D02*
X11216000Y-7289800D01*
X11176000Y-7249800D01*
X11136000Y-7289800D01*
X11176000Y-7329800D01*
X11176000Y-7583800D02*
X11216000Y-7543800D01*
X11176000Y-7503800D01*
X11136000Y-7543800D01*
X11176000Y-7583800D01*
X11176000Y-7837800D02*
X11216000Y-7797800D01*
X11176000Y-7757800D01*
X11136000Y-7797800D01*
X11176000Y-7837800D01*
X11176000Y-8091800D02*
X11216000Y-8051800D01*
X11176000Y-8011800D01*
X11136000Y-8051800D01*
X11176000Y-8091800D01*
X11176000Y-8345800D02*
X11216000Y-8305800D01*
X11176000Y-8265800D01*
X11136000Y-8305800D01*
X11176000Y-8345800D01*
X11176000Y-8599800D02*
X11216000Y-8559800D01*
X11176000Y-8519800D01*
X11136000Y-8559800D01*
X11176000Y-8599800D01*
X11176000Y-8853800D02*
X11216000Y-8813800D01*
X11176000Y-8773800D01*
X11136000Y-8813800D01*
X11176000Y-8853800D01*
X11176000Y-9107800D02*
X11216000Y-9067800D01*
X11176000Y-9027800D01*
X11136000Y-9067800D01*
X11176000Y-9107800D01*
X11506200Y-7329800D02*
X11546200Y-7289800D01*
X11506200Y-7249800D01*
X11466200Y-7289800D01*
X11506200Y-7329800D01*
X11506200Y-7583800D02*
X11546200Y-7543800D01*
X11506200Y-7503800D01*
X11466200Y-7543800D01*
X11506200Y-7583800D01*
X11506200Y-7837800D02*
X11546200Y-7797800D01*
X11506200Y-7757800D01*
X11466200Y-7797800D01*
X11506200Y-7837800D01*
X11506200Y-8091800D02*
X11546200Y-8051800D01*
X11506200Y-8011800D01*
X11466200Y-8051800D01*
X11506200Y-8091800D01*
X11506200Y-8345800D02*
X11546200Y-8305800D01*
X11506200Y-8265800D01*
X11466200Y-8305800D01*
X11506200Y-8345800D01*
X11506200Y-8599800D02*
X11546200Y-8559800D01*
X11506200Y-8519800D01*
X11466200Y-8559800D01*
X11506200Y-8599800D01*
X11506200Y-8853800D02*
X11546200Y-8813800D01*
X11506200Y-8773800D01*
X11466200Y-8813800D01*
X11506200Y-8853800D01*
X12039600Y-7025000D02*
X12079600Y-6985000D01*
X12039600Y-6945000D01*
X11999600Y-6985000D01*
X12039600Y-7025000D01*
X12268200Y-7329800D02*
X12308200Y-7289800D01*
X12268200Y-7249800D01*
X12228200Y-7289800D01*
X12268200Y-7329800D01*
X12268200Y-7583800D02*
X12308200Y-7543800D01*
X12268200Y-7503800D01*
X12228200Y-7543800D01*
X12268200Y-7583800D01*
X12268200Y-7837800D02*
X12308200Y-7797800D01*
X12268200Y-7757800D01*
X12228200Y-7797800D01*
X12268200Y-7837800D01*
X12268200Y-8091800D02*
X12308200Y-8051800D01*
X12268200Y-8011800D01*
X12228200Y-8051800D01*
X12268200Y-8091800D01*
X12268200Y-8345800D02*
X12308200Y-8305800D01*
X12268200Y-8265800D01*
X12228200Y-8305800D01*
X12268200Y-8345800D01*
X12268200Y-8599800D02*
X12308200Y-8559800D01*
X12268200Y-8519800D01*
X12228200Y-8559800D01*
X12268200Y-8599800D01*
X12268200Y-8853800D02*
X12308200Y-8813800D01*
X12268200Y-8773800D01*
X12228200Y-8813800D01*
X12268200Y-8853800D01*
X12289600Y-7025000D02*
X12329600Y-6985000D01*
X12289600Y-6945000D01*
X12249600Y-6985000D01*
X12289600Y-7025000D01*
X12598400Y-7329800D02*
X12638400Y-7289800D01*
X12598400Y-7249800D01*
X12558400Y-7289800D01*
X12598400Y-7329800D01*
X12598400Y-7583800D02*
X12638400Y-7543800D01*
X12598400Y-7503800D01*
X12558400Y-7543800D01*
X12598400Y-7583800D01*
X12598400Y-7837800D02*
X12638400Y-7797800D01*
X12598400Y-7757800D01*
X12558400Y-7797800D01*
X12598400Y-7837800D01*
X12598400Y-8091800D02*
X12638400Y-8051800D01*
X12598400Y-8011800D01*
X12558400Y-8051800D01*
X12598400Y-8091800D01*
X12598400Y-8345800D02*
X12638400Y-8305800D01*
X12598400Y-8265800D01*
X12558400Y-8305800D01*
X12598400Y-8345800D01*
X12598400Y-8599800D02*
X12638400Y-8559800D01*
X12598400Y-8519800D01*
X12558400Y-8559800D01*
X12598400Y-8599800D01*
X12598400Y-8853800D02*
X12638400Y-8813800D01*
X12598400Y-8773800D01*
X12558400Y-8813800D01*
X12598400Y-8853800D01*
X13106400Y-7025000D02*
X13146400Y-6985000D01*
X13106400Y-6945000D01*
X13066400Y-6985000D01*
X13106400Y-7025000D01*
X13356400Y-7025000D02*
X13396400Y-6985000D01*
X13356400Y-6945000D01*
X13316400Y-6985000D01*
X13356400Y-7025000D01*
X13360400Y-7329800D02*
X13400400Y-7289800D01*
X13360400Y-7249800D01*
X13320400Y-7289800D01*
X13360400Y-7329800D01*
X13360400Y-7583800D02*
X13400400Y-7543800D01*
X13360400Y-7503800D01*
X13320400Y-7543800D01*
X13360400Y-7583800D01*
X13360400Y-7837800D02*
X13400400Y-7797800D01*
X13360400Y-7757800D01*
X13320400Y-7797800D01*
X13360400Y-7837800D01*
X13360400Y-8091800D02*
X13400400Y-8051800D01*
X13360400Y-8011800D01*
X13320400Y-8051800D01*
X13360400Y-8091800D01*
X13360400Y-8345800D02*
X13400400Y-8305800D01*
X13360400Y-8265800D01*
X13320400Y-8305800D01*
X13360400Y-8345800D01*
X13360400Y-8599800D02*
X13400400Y-8559800D01*
X13360400Y-8519800D01*
X13320400Y-8559800D01*
X13360400Y-8599800D01*
X13360400Y-8853800D02*
X13400400Y-8813800D01*
X13360400Y-8773800D01*
X13320400Y-8813800D01*
X13360400Y-8853800D01*
X13690600Y-7329800D02*
X13730600Y-7289800D01*
X13690600Y-7249800D01*
X13650600Y-7289800D01*
X13690600Y-7329800D01*
X13690600Y-7583800D02*
X13730600Y-7543800D01*
X13690600Y-7503800D01*
X13650600Y-7543800D01*
X13690600Y-7583800D01*
X13690600Y-7837800D02*
X13730600Y-7797800D01*
X13690600Y-7757800D01*
X13650600Y-7797800D01*
X13690600Y-7837800D01*
X13690600Y-8091800D02*
X13730600Y-8051800D01*
X13690600Y-8011800D01*
X13650600Y-8051800D01*
X13690600Y-8091800D01*
X13690600Y-8345800D02*
X13730600Y-8305800D01*
X13690600Y-8265800D01*
X13650600Y-8305800D01*
X13690600Y-8345800D01*
X13690600Y-8599800D02*
X13730600Y-8559800D01*
X13690600Y-8519800D01*
X13650600Y-8559800D01*
X13690600Y-8599800D01*
X13690600Y-8853800D02*
X13730600Y-8813800D01*
X13690600Y-8773800D01*
X13650600Y-8813800D01*
X13690600Y-8853800D01*
X13944600Y-6288400D02*
X13984600Y-6248400D01*
X13944600Y-6208400D01*
X13904600Y-6248400D01*
X13944600Y-6288400D01*
X14202600Y-7025000D02*
X14242600Y-6985000D01*
X14202600Y-6945000D01*
X14162600Y-6985000D01*
X14202600Y-7025000D01*
X14452600Y-7025000D02*
X14492600Y-6985000D01*
X14452600Y-6945000D01*
X14412600Y-6985000D01*
X14452600Y-7025000D01*
X14452600Y-7329800D02*
X14492600Y-7289800D01*
X14452600Y-7249800D01*
X14412600Y-7289800D01*
X14452600Y-7329800D01*
X14452600Y-7583800D02*
X14492600Y-7543800D01*
X14452600Y-7503800D01*
X14412600Y-7543800D01*
X14452600Y-7583800D01*
X14452600Y-7837800D02*
X14492600Y-7797800D01*
X14452600Y-7757800D01*
X14412600Y-7797800D01*
X14452600Y-7837800D01*
X14452600Y-8091800D02*
X14492600Y-8051800D01*
X14452600Y-8011800D01*
X14412600Y-8051800D01*
X14452600Y-8091800D01*
X14452600Y-8345800D02*
X14492600Y-8305800D01*
X14452600Y-8265800D01*
X14412600Y-8305800D01*
X14452600Y-8345800D01*
X14452600Y-8599800D02*
X14492600Y-8559800D01*
X14452600Y-8519800D01*
X14412600Y-8559800D01*
X14452600Y-8599800D01*
X14452600Y-8853800D02*
X14492600Y-8813800D01*
X14452600Y-8773800D01*
X14412600Y-8813800D01*
X14452600Y-8853800D01*
X14706600Y-6288400D02*
X14746600Y-6248400D01*
X14706600Y-6208400D01*
X14666600Y-6248400D01*
X14706600Y-6288400D01*
X14884400Y-7710800D02*
X14924400Y-7670800D01*
X14884400Y-7630800D01*
X14844400Y-7670800D01*
X14884400Y-7710800D01*
X15138400Y-7329800D02*
X15178400Y-7289800D01*
X15138400Y-7249800D01*
X15098400Y-7289800D01*
X15138400Y-7329800D01*
X15638400Y-7329800D02*
X15678400Y-7289800D01*
X15638400Y-7249800D01*
X15598400Y-7289800D01*
X15638400Y-7329800D01*
X15646400Y-7710800D02*
X15686400Y-7670800D01*
X15646400Y-7630800D01*
X15606400Y-7670800D01*
X15646400Y-7710800D01*
X8583460Y-6360960D02*
X8683460Y-6460960D01*
X8683460Y-6360960D02*
X8583460Y-6460960D01*
X8683460Y-6410960D02*
G75*
G03*
X8683460Y-6410960I-50000J0D01*
G01*
X8583460Y-6614960D02*
X8683460Y-6714960D01*
X8683460Y-6614960D02*
X8583460Y-6714960D01*
X8683460Y-6664960D02*
G75*
G03*
X8683460Y-6664960I-50000J0D01*
G01*
X10313200Y-6198400D02*
X10413200Y-6298400D01*
X10413200Y-6198400D02*
X10313200Y-6298400D01*
X10413200Y-6248400D02*
G75*
G03*
X10413200Y-6248400I-50000J0D01*
G01*
X10567200Y-6198400D02*
X10667200Y-6298400D01*
X10667200Y-6198400D02*
X10567200Y-6298400D01*
X10667200Y-6248400D02*
G75*
G03*
X10667200Y-6248400I-50000J0D01*
G01*
X10821200Y-6198400D02*
X10921200Y-6298400D01*
X10921200Y-6198400D02*
X10821200Y-6298400D01*
X10921200Y-6248400D02*
G75*
G03*
X10921200Y-6248400I-50000J0D01*
G01*
X11075200Y-6198400D02*
X11175200Y-6298400D01*
X11175200Y-6198400D02*
X11075200Y-6298400D01*
X11175200Y-6248400D02*
G75*
G03*
X11175200Y-6248400I-50000J0D01*
G01*
X11329200Y-6198400D02*
X11429200Y-6298400D01*
X11429200Y-6198400D02*
X11329200Y-6298400D01*
X11429200Y-6248400D02*
G75*
G03*
X11429200Y-6248400I-50000J0D01*
G01*
X11583200Y-6198400D02*
X11683200Y-6298400D01*
X11683200Y-6198400D02*
X11583200Y-6298400D01*
X11683200Y-6248400D02*
G75*
G03*
X11683200Y-6248400I-50000J0D01*
G01*
X11837200Y-6198400D02*
X11937200Y-6298400D01*
X11937200Y-6198400D02*
X11837200Y-6298400D01*
X11937200Y-6248400D02*
G75*
G03*
X11937200Y-6248400I-50000J0D01*
G01*
X12091200Y-6198400D02*
X12191200Y-6298400D01*
X12191200Y-6198400D02*
X12091200Y-6298400D01*
X12191200Y-6248400D02*
G75*
G03*
X12191200Y-6248400I-50000J0D01*
G01*
X12345200Y-6198400D02*
X12445200Y-6298400D01*
X12445200Y-6198400D02*
X12345200Y-6298400D01*
X12445200Y-6248400D02*
G75*
G03*
X12445200Y-6248400I-50000J0D01*
G01*
X12599200Y-6198400D02*
X12699200Y-6298400D01*
X12699200Y-6198400D02*
X12599200Y-6298400D01*
X12699200Y-6248400D02*
G75*
G03*
X12699200Y-6248400I-50000J0D01*
G01*
X12853200Y-6198400D02*
X12953200Y-6298400D01*
X12953200Y-6198400D02*
X12853200Y-6298400D01*
X12953200Y-6248400D02*
G75*
G03*
X12953200Y-6248400I-50000J0D01*
G01*
X13107200Y-6198400D02*
X13207200Y-6298400D01*
X13207200Y-6198400D02*
X13107200Y-6298400D01*
X13207200Y-6248400D02*
G75*
G03*
X13207200Y-6248400I-50000J0D01*
G01*
X13361200Y-6198400D02*
X13461200Y-6298400D01*
X13461200Y-6198400D02*
X13361200Y-6298400D01*
X13461200Y-6248400D02*
G75*
G03*
X13461200Y-6248400I-50000J0D01*
G01*
X14829400Y-8073000D02*
X14939400Y-8183000D01*
X14939400Y-8073000D02*
X14829400Y-8183000D01*
X14884400Y-8073000D02*
X14884400Y-8183000D01*
X14829400Y-8128000D02*
X14939400Y-8128000D01*
X15591400Y-8073000D02*
X15701400Y-8183000D01*
X15701400Y-8073000D02*
X15591400Y-8183000D01*
X15646400Y-8073000D02*
X15646400Y-8183000D01*
X15591400Y-8128000D02*
X15701400Y-8128000D01*
X13658860Y-6615440D02*
X13818860Y-6775440D01*
X13818860Y-6615440D02*
X13658860Y-6775440D01*
X13795429Y-6752009D02*
X13795429Y-6638871D01*
X13682291Y-6638871D01*
X13682291Y-6752009D01*
X13795429Y-6752009D01*
X14745980Y-6783080D02*
X14905980Y-6943080D01*
X14905980Y-6783080D02*
X14745980Y-6943080D01*
X14882549Y-6919649D02*
X14882549Y-6806511D01*
X14769411Y-6806511D01*
X14769411Y-6919649D01*
X14882549Y-6919649D01*
X14761220Y-8632200D02*
X14921220Y-8792200D01*
X14921220Y-8632200D02*
X14761220Y-8792200D01*
X14897789Y-8768769D02*
X14897789Y-8655631D01*
X14784651Y-8655631D01*
X14784651Y-8768769D01*
X14897789Y-8768769D01*
X7841000Y-6266200D02*
X8161000Y-6586200D01*
X8161000Y-6266200D02*
X7841000Y-6586200D01*
X8001000Y-6586200D02*
X8161000Y-6426200D01*
X8001000Y-6266200D01*
X7841000Y-6426200D01*
X8001000Y-6586200D01*
X7841000Y-8831600D02*
X8161000Y-9151600D01*
X8161000Y-8831600D02*
X7841000Y-9151600D01*
X8001000Y-9151600D02*
X8161000Y-8991600D01*
X8001000Y-8831600D01*
X7841000Y-8991600D01*
X8001000Y-9151600D01*
X15308600Y-6266200D02*
X15628600Y-6586200D01*
X15628600Y-6266200D02*
X15308600Y-6586200D01*
X15468600Y-6586200D02*
X15628600Y-6426200D01*
X15468600Y-6266200D01*
X15308600Y-6426200D01*
X15468600Y-6586200D01*
X15308600Y-8831600D02*
X15628600Y-9151600D01*
X15628600Y-8831600D02*
X15308600Y-9151600D01*
X15468600Y-9151600D02*
X15628600Y-8991600D01*
X15468600Y-8831600D01*
X15308600Y-8991600D01*
X15468600Y-9151600D01*
D12*
X7850628Y-9894114D02*
X7850628Y-9594114D01*
X7922057Y-9594114D01*
X7964914Y-9608400D01*
X7993486Y-9636972D01*
X8007771Y-9665543D01*
X8022057Y-9722686D01*
X8022057Y-9765543D01*
X8007771Y-9822686D01*
X7993486Y-9851257D01*
X7964914Y-9879829D01*
X7922057Y-9894114D01*
X7850628Y-9894114D01*
X8150628Y-9894114D02*
X8150628Y-9694114D01*
X8150628Y-9751257D02*
X8164914Y-9722686D01*
X8179200Y-9708400D01*
X8207771Y-9694114D01*
X8236343Y-9694114D01*
X8336343Y-9894114D02*
X8336343Y-9694114D01*
X8336343Y-9594114D02*
X8322057Y-9608400D01*
X8336343Y-9622686D01*
X8350628Y-9608400D01*
X8336343Y-9594114D01*
X8336343Y-9622686D01*
X8522057Y-9894114D02*
X8493486Y-9879829D01*
X8479200Y-9851257D01*
X8479200Y-9594114D01*
X8679200Y-9894114D02*
X8650628Y-9879829D01*
X8636343Y-9851257D01*
X8636343Y-9594114D01*
X9022057Y-9894114D02*
X9022057Y-9594114D01*
X9122057Y-9808400D01*
X9222057Y-9594114D01*
X9222057Y-9894114D01*
X9493486Y-9894114D02*
X9493486Y-9736972D01*
X9479200Y-9708400D01*
X9450628Y-9694114D01*
X9393486Y-9694114D01*
X9364914Y-9708400D01*
X9493486Y-9879829D02*
X9464914Y-9894114D01*
X9393486Y-9894114D01*
X9364914Y-9879829D01*
X9350628Y-9851257D01*
X9350628Y-9822686D01*
X9364914Y-9794114D01*
X9393486Y-9779829D01*
X9464914Y-9779829D01*
X9493486Y-9765543D01*
X9636343Y-9694114D02*
X9636343Y-9994114D01*
X9636343Y-9708400D02*
X9664914Y-9694114D01*
X9722057Y-9694114D01*
X9750628Y-9708400D01*
X9764914Y-9722686D01*
X9779200Y-9751257D01*
X9779200Y-9836972D01*
X9764914Y-9865543D01*
X9750628Y-9879829D01*
X9722057Y-9894114D01*
X9664914Y-9894114D01*
X9636343Y-9879829D01*
X9907771Y-9865543D02*
X9922057Y-9879829D01*
X9907771Y-9894114D01*
X9893486Y-9879829D01*
X9907771Y-9865543D01*
X9907771Y-9894114D01*
X9907771Y-9708400D02*
X9922057Y-9722686D01*
X9907771Y-9736972D01*
X9893486Y-9722686D01*
X9907771Y-9708400D01*
X9907771Y-9736972D01*
X7524200Y-10368400D02*
X7564200Y-10408400D01*
X7564200Y-10368400D02*
X7524200Y-10408400D01*
X7907771Y-10224114D02*
X7936343Y-10224114D01*
X7964914Y-10238400D01*
X7979200Y-10252686D01*
X7993486Y-10281257D01*
X8007771Y-10338400D01*
X8007771Y-10409829D01*
X7993486Y-10466972D01*
X7979200Y-10495543D01*
X7964914Y-10509829D01*
X7936343Y-10524114D01*
X7907771Y-10524114D01*
X7879200Y-10509829D01*
X7864914Y-10495543D01*
X7850628Y-10466972D01*
X7836343Y-10409829D01*
X7836343Y-10338400D01*
X7850628Y-10281257D01*
X7864914Y-10252686D01*
X7879200Y-10238400D01*
X7907771Y-10224114D01*
X8136343Y-10495543D02*
X8150628Y-10509829D01*
X8136343Y-10524114D01*
X8122057Y-10509829D01*
X8136343Y-10495543D01*
X8136343Y-10524114D01*
X8407771Y-10324114D02*
X8407771Y-10524114D01*
X8336343Y-10209829D02*
X8264914Y-10424114D01*
X8450628Y-10424114D01*
X8622057Y-10224114D02*
X8650628Y-10224114D01*
X8679200Y-10238400D01*
X8693486Y-10252686D01*
X8707771Y-10281257D01*
X8722057Y-10338400D01*
X8722057Y-10409829D01*
X8707771Y-10466972D01*
X8693486Y-10495543D01*
X8679200Y-10509829D01*
X8650628Y-10524114D01*
X8622057Y-10524114D01*
X8593486Y-10509829D01*
X8579200Y-10495543D01*
X8564914Y-10466972D01*
X8550628Y-10409829D01*
X8550628Y-10338400D01*
X8564914Y-10281257D01*
X8579200Y-10252686D01*
X8593486Y-10238400D01*
X8622057Y-10224114D01*
X8907771Y-10224114D02*
X8936343Y-10224114D01*
X8964914Y-10238400D01*
X8979200Y-10252686D01*
X8993486Y-10281257D01*
X9007771Y-10338400D01*
X9007771Y-10409829D01*
X8993486Y-10466972D01*
X8979200Y-10495543D01*
X8964914Y-10509829D01*
X8936343Y-10524114D01*
X8907771Y-10524114D01*
X8879200Y-10509829D01*
X8864914Y-10495543D01*
X8850628Y-10466972D01*
X8836343Y-10409829D01*
X8836343Y-10338400D01*
X8850628Y-10281257D01*
X8864914Y-10252686D01*
X8879200Y-10238400D01*
X8907771Y-10224114D01*
X9136343Y-10524114D02*
X9136343Y-10324114D01*
X9136343Y-10352686D02*
X9150628Y-10338400D01*
X9179200Y-10324114D01*
X9222057Y-10324114D01*
X9250628Y-10338400D01*
X9264914Y-10366972D01*
X9264914Y-10524114D01*
X9264914Y-10366972D02*
X9279200Y-10338400D01*
X9307771Y-10324114D01*
X9350628Y-10324114D01*
X9379200Y-10338400D01*
X9393486Y-10366972D01*
X9393486Y-10524114D01*
X9536343Y-10524114D02*
X9536343Y-10324114D01*
X9536343Y-10352686D02*
X9550628Y-10338400D01*
X9579200Y-10324114D01*
X9622057Y-10324114D01*
X9650628Y-10338400D01*
X9664914Y-10366972D01*
X9664914Y-10524114D01*
X9664914Y-10366972D02*
X9679200Y-10338400D01*
X9707771Y-10324114D01*
X9750628Y-10324114D01*
X9779200Y-10338400D01*
X9793486Y-10366972D01*
X9793486Y-10524114D01*
X10379200Y-10209829D02*
X10122057Y-10595543D01*
X10764914Y-10224114D02*
X10793486Y-10224114D01*
X10822057Y-10238400D01*
X10836343Y-10252686D01*
X10850628Y-10281257D01*
X10864914Y-10338400D01*
X10864914Y-10409829D01*
X10850628Y-10466972D01*
X10836343Y-10495543D01*
X10822057Y-10509829D01*
X10793486Y-10524114D01*
X10764914Y-10524114D01*
X10736343Y-10509829D01*
X10722057Y-10495543D01*
X10707771Y-10466972D01*
X10693486Y-10409829D01*
X10693486Y-10338400D01*
X10707771Y-10281257D01*
X10722057Y-10252686D01*
X10736343Y-10238400D01*
X10764914Y-10224114D01*
X10993486Y-10495543D02*
X11007771Y-10509829D01*
X10993486Y-10524114D01*
X10979200Y-10509829D01*
X10993486Y-10495543D01*
X10993486Y-10524114D01*
X11193486Y-10224114D02*
X11222057Y-10224114D01*
X11250628Y-10238400D01*
X11264914Y-10252686D01*
X11279200Y-10281257D01*
X11293486Y-10338400D01*
X11293486Y-10409829D01*
X11279200Y-10466972D01*
X11264914Y-10495543D01*
X11250628Y-10509829D01*
X11222057Y-10524114D01*
X11193486Y-10524114D01*
X11164914Y-10509829D01*
X11150628Y-10495543D01*
X11136343Y-10466972D01*
X11122057Y-10409829D01*
X11122057Y-10338400D01*
X11136343Y-10281257D01*
X11150628Y-10252686D01*
X11164914Y-10238400D01*
X11193486Y-10224114D01*
X11579200Y-10524114D02*
X11407771Y-10524114D01*
X11493486Y-10524114D02*
X11493486Y-10224114D01*
X11464914Y-10266972D01*
X11436343Y-10295543D01*
X11407771Y-10309829D01*
X11850628Y-10224114D02*
X11707771Y-10224114D01*
X11693486Y-10366972D01*
X11707771Y-10352686D01*
X11736343Y-10338400D01*
X11807771Y-10338400D01*
X11836343Y-10352686D01*
X11850628Y-10366972D01*
X11864914Y-10395543D01*
X11864914Y-10466972D01*
X11850628Y-10495543D01*
X11836343Y-10509829D01*
X11807771Y-10524114D01*
X11736343Y-10524114D01*
X11707771Y-10509829D01*
X11693486Y-10495543D01*
X11964914Y-10224114D02*
X12164914Y-10224114D01*
X12036343Y-10524114D01*
X12264914Y-10224114D02*
X12264914Y-10281257D01*
X12379200Y-10224114D02*
X12379200Y-10281257D01*
X12822057Y-10638400D02*
X12807771Y-10624114D01*
X12779200Y-10581257D01*
X12764914Y-10552686D01*
X12750628Y-10509829D01*
X12736343Y-10438400D01*
X12736343Y-10381257D01*
X12750628Y-10309829D01*
X12764914Y-10266972D01*
X12779200Y-10238400D01*
X12807771Y-10195543D01*
X12822057Y-10181257D01*
X13064914Y-10324114D02*
X13064914Y-10524114D01*
X12993486Y-10209829D02*
X12922057Y-10424114D01*
X13107771Y-10424114D01*
X13193486Y-10224114D02*
X13379200Y-10224114D01*
X13279200Y-10338400D01*
X13322057Y-10338400D01*
X13350628Y-10352686D01*
X13364914Y-10366972D01*
X13379200Y-10395543D01*
X13379200Y-10466972D01*
X13364914Y-10495543D01*
X13350628Y-10509829D01*
X13322057Y-10524114D01*
X13236343Y-10524114D01*
X13207771Y-10509829D01*
X13193486Y-10495543D01*
X13736343Y-10524114D02*
X13736343Y-10224114D01*
X13864914Y-10524114D02*
X13864914Y-10366972D01*
X13850628Y-10338400D01*
X13822057Y-10324114D01*
X13779200Y-10324114D01*
X13750628Y-10338400D01*
X13736343Y-10352686D01*
X14050628Y-10524114D02*
X14022057Y-10509829D01*
X14007771Y-10495543D01*
X13993486Y-10466972D01*
X13993486Y-10381257D01*
X14007771Y-10352686D01*
X14022057Y-10338400D01*
X14050628Y-10324114D01*
X14093486Y-10324114D01*
X14122057Y-10338400D01*
X14136343Y-10352686D01*
X14150628Y-10381257D01*
X14150628Y-10466972D01*
X14136343Y-10495543D01*
X14122057Y-10509829D01*
X14093486Y-10524114D01*
X14050628Y-10524114D01*
X14322057Y-10524114D02*
X14293486Y-10509829D01*
X14279200Y-10481257D01*
X14279200Y-10224114D01*
X14550628Y-10509829D02*
X14522057Y-10524114D01*
X14464914Y-10524114D01*
X14436343Y-10509829D01*
X14422057Y-10481257D01*
X14422057Y-10366972D01*
X14436343Y-10338400D01*
X14464914Y-10324114D01*
X14522057Y-10324114D01*
X14550628Y-10338400D01*
X14564914Y-10366972D01*
X14564914Y-10395543D01*
X14422057Y-10424114D01*
X14679200Y-10509829D02*
X14707771Y-10524114D01*
X14764914Y-10524114D01*
X14793486Y-10509829D01*
X14807771Y-10481257D01*
X14807771Y-10466972D01*
X14793486Y-10438400D01*
X14764914Y-10424114D01*
X14722057Y-10424114D01*
X14693486Y-10409829D01*
X14679200Y-10381257D01*
X14679200Y-10366972D01*
X14693486Y-10338400D01*
X14722057Y-10324114D01*
X14764914Y-10324114D01*
X14793486Y-10338400D01*
X14907771Y-10638400D02*
X14922057Y-10624114D01*
X14950628Y-10581257D01*
X14964914Y-10552686D01*
X14979200Y-10509829D01*
X14993486Y-10438400D01*
X14993486Y-10381257D01*
X14979200Y-10309829D01*
X14964914Y-10266972D01*
X14950628Y-10238400D01*
X14922057Y-10195543D01*
X14907771Y-10181257D01*
X7564200Y-10784400D02*
G75*
G03*
X7564200Y-10784400I-25000J0D01*
G01*
X7907771Y-10620114D02*
X7936343Y-10620114D01*
X7964914Y-10634400D01*
X7979200Y-10648686D01*
X7993486Y-10677257D01*
X8007771Y-10734400D01*
X8007771Y-10805829D01*
X7993486Y-10862972D01*
X7979200Y-10891543D01*
X7964914Y-10905829D01*
X7936343Y-10920114D01*
X7907771Y-10920114D01*
X7879200Y-10905829D01*
X7864914Y-10891543D01*
X7850628Y-10862972D01*
X7836343Y-10805829D01*
X7836343Y-10734400D01*
X7850628Y-10677257D01*
X7864914Y-10648686D01*
X7879200Y-10634400D01*
X7907771Y-10620114D01*
X8136343Y-10891543D02*
X8150628Y-10905829D01*
X8136343Y-10920114D01*
X8122057Y-10905829D01*
X8136343Y-10891543D01*
X8136343Y-10920114D01*
X8422057Y-10620114D02*
X8279200Y-10620114D01*
X8264914Y-10762972D01*
X8279200Y-10748686D01*
X8307771Y-10734400D01*
X8379200Y-10734400D01*
X8407771Y-10748686D01*
X8422057Y-10762972D01*
X8436343Y-10791543D01*
X8436343Y-10862972D01*
X8422057Y-10891543D01*
X8407771Y-10905829D01*
X8379200Y-10920114D01*
X8307771Y-10920114D01*
X8279200Y-10905829D01*
X8264914Y-10891543D01*
X8622057Y-10620114D02*
X8650628Y-10620114D01*
X8679200Y-10634400D01*
X8693486Y-10648686D01*
X8707771Y-10677257D01*
X8722057Y-10734400D01*
X8722057Y-10805829D01*
X8707771Y-10862972D01*
X8693486Y-10891543D01*
X8679200Y-10905829D01*
X8650628Y-10920114D01*
X8622057Y-10920114D01*
X8593486Y-10905829D01*
X8579200Y-10891543D01*
X8564914Y-10862972D01*
X8550628Y-10805829D01*
X8550628Y-10734400D01*
X8564914Y-10677257D01*
X8579200Y-10648686D01*
X8593486Y-10634400D01*
X8622057Y-10620114D01*
X8907771Y-10620114D02*
X8936343Y-10620114D01*
X8964914Y-10634400D01*
X8979200Y-10648686D01*
X8993486Y-10677257D01*
X9007771Y-10734400D01*
X9007771Y-10805829D01*
X8993486Y-10862972D01*
X8979200Y-10891543D01*
X8964914Y-10905829D01*
X8936343Y-10920114D01*
X8907771Y-10920114D01*
X8879200Y-10905829D01*
X8864914Y-10891543D01*
X8850628Y-10862972D01*
X8836343Y-10805829D01*
X8836343Y-10734400D01*
X8850628Y-10677257D01*
X8864914Y-10648686D01*
X8879200Y-10634400D01*
X8907771Y-10620114D01*
X9136343Y-10920114D02*
X9136343Y-10720114D01*
X9136343Y-10748686D02*
X9150628Y-10734400D01*
X9179200Y-10720114D01*
X9222057Y-10720114D01*
X9250628Y-10734400D01*
X9264914Y-10762972D01*
X9264914Y-10920114D01*
X9264914Y-10762972D02*
X9279200Y-10734400D01*
X9307771Y-10720114D01*
X9350628Y-10720114D01*
X9379200Y-10734400D01*
X9393486Y-10762972D01*
X9393486Y-10920114D01*
X9536343Y-10920114D02*
X9536343Y-10720114D01*
X9536343Y-10748686D02*
X9550628Y-10734400D01*
X9579200Y-10720114D01*
X9622057Y-10720114D01*
X9650628Y-10734400D01*
X9664914Y-10762972D01*
X9664914Y-10920114D01*
X9664914Y-10762972D02*
X9679200Y-10734400D01*
X9707771Y-10720114D01*
X9750628Y-10720114D01*
X9779200Y-10734400D01*
X9793486Y-10762972D01*
X9793486Y-10920114D01*
X10379200Y-10605829D02*
X10122057Y-10991543D01*
X10764914Y-10620114D02*
X10793486Y-10620114D01*
X10822057Y-10634400D01*
X10836343Y-10648686D01*
X10850628Y-10677257D01*
X10864914Y-10734400D01*
X10864914Y-10805829D01*
X10850628Y-10862972D01*
X10836343Y-10891543D01*
X10822057Y-10905829D01*
X10793486Y-10920114D01*
X10764914Y-10920114D01*
X10736343Y-10905829D01*
X10722057Y-10891543D01*
X10707771Y-10862972D01*
X10693486Y-10805829D01*
X10693486Y-10734400D01*
X10707771Y-10677257D01*
X10722057Y-10648686D01*
X10736343Y-10634400D01*
X10764914Y-10620114D01*
X10993486Y-10891543D02*
X11007771Y-10905829D01*
X10993486Y-10920114D01*
X10979200Y-10905829D01*
X10993486Y-10891543D01*
X10993486Y-10920114D01*
X11193486Y-10620114D02*
X11222057Y-10620114D01*
X11250628Y-10634400D01*
X11264914Y-10648686D01*
X11279200Y-10677257D01*
X11293486Y-10734400D01*
X11293486Y-10805829D01*
X11279200Y-10862972D01*
X11264914Y-10891543D01*
X11250628Y-10905829D01*
X11222057Y-10920114D01*
X11193486Y-10920114D01*
X11164914Y-10905829D01*
X11150628Y-10891543D01*
X11136343Y-10862972D01*
X11122057Y-10805829D01*
X11122057Y-10734400D01*
X11136343Y-10677257D01*
X11150628Y-10648686D01*
X11164914Y-10634400D01*
X11193486Y-10620114D01*
X11579200Y-10920114D02*
X11407771Y-10920114D01*
X11493486Y-10920114D02*
X11493486Y-10620114D01*
X11464914Y-10662972D01*
X11436343Y-10691543D01*
X11407771Y-10705829D01*
X11722057Y-10920114D02*
X11779200Y-10920114D01*
X11807771Y-10905829D01*
X11822057Y-10891543D01*
X11850628Y-10848686D01*
X11864914Y-10791543D01*
X11864914Y-10677257D01*
X11850628Y-10648686D01*
X11836343Y-10634400D01*
X11807771Y-10620114D01*
X11750628Y-10620114D01*
X11722057Y-10634400D01*
X11707771Y-10648686D01*
X11693486Y-10677257D01*
X11693486Y-10748686D01*
X11707771Y-10777257D01*
X11722057Y-10791543D01*
X11750628Y-10805829D01*
X11807771Y-10805829D01*
X11836343Y-10791543D01*
X11850628Y-10777257D01*
X11864914Y-10748686D01*
X11964914Y-10620114D02*
X12164914Y-10620114D01*
X12036343Y-10920114D01*
X12264914Y-10620114D02*
X12264914Y-10677257D01*
X12379200Y-10620114D02*
X12379200Y-10677257D01*
X12822057Y-11034400D02*
X12807771Y-11020114D01*
X12779200Y-10977257D01*
X12764914Y-10948686D01*
X12750628Y-10905829D01*
X12736343Y-10834400D01*
X12736343Y-10777257D01*
X12750628Y-10705829D01*
X12764914Y-10662972D01*
X12779200Y-10634400D01*
X12807771Y-10591543D01*
X12822057Y-10577257D01*
X12993486Y-10620114D02*
X13022057Y-10620114D01*
X13050628Y-10634400D01*
X13064914Y-10648686D01*
X13079200Y-10677257D01*
X13093486Y-10734400D01*
X13093486Y-10805829D01*
X13079200Y-10862972D01*
X13064914Y-10891543D01*
X13050628Y-10905829D01*
X13022057Y-10920114D01*
X12993486Y-10920114D01*
X12964914Y-10905829D01*
X12950628Y-10891543D01*
X12936343Y-10862972D01*
X12922057Y-10805829D01*
X12922057Y-10734400D01*
X12936343Y-10677257D01*
X12950628Y-10648686D01*
X12964914Y-10634400D01*
X12993486Y-10620114D01*
X13450628Y-10920114D02*
X13450628Y-10620114D01*
X13579200Y-10920114D02*
X13579200Y-10762972D01*
X13564914Y-10734400D01*
X13536343Y-10720114D01*
X13493486Y-10720114D01*
X13464914Y-10734400D01*
X13450628Y-10748686D01*
X13764914Y-10920114D02*
X13736343Y-10905829D01*
X13722057Y-10891543D01*
X13707771Y-10862972D01*
X13707771Y-10777257D01*
X13722057Y-10748686D01*
X13736343Y-10734400D01*
X13764914Y-10720114D01*
X13807771Y-10720114D01*
X13836343Y-10734400D01*
X13850628Y-10748686D01*
X13864914Y-10777257D01*
X13864914Y-10862972D01*
X13850628Y-10891543D01*
X13836343Y-10905829D01*
X13807771Y-10920114D01*
X13764914Y-10920114D01*
X14036343Y-10920114D02*
X14007771Y-10905829D01*
X13993486Y-10877257D01*
X13993486Y-10620114D01*
X14264914Y-10905829D02*
X14236343Y-10920114D01*
X14179200Y-10920114D01*
X14150628Y-10905829D01*
X14136343Y-10877257D01*
X14136343Y-10762972D01*
X14150628Y-10734400D01*
X14179200Y-10720114D01*
X14236343Y-10720114D01*
X14264914Y-10734400D01*
X14279200Y-10762972D01*
X14279200Y-10791543D01*
X14136343Y-10820114D01*
X14393486Y-10905829D02*
X14422057Y-10920114D01*
X14479200Y-10920114D01*
X14507771Y-10905829D01*
X14522057Y-10877257D01*
X14522057Y-10862972D01*
X14507771Y-10834400D01*
X14479200Y-10820114D01*
X14436343Y-10820114D01*
X14407771Y-10805829D01*
X14393486Y-10777257D01*
X14393486Y-10762972D01*
X14407771Y-10734400D01*
X14436343Y-10720114D01*
X14479200Y-10720114D01*
X14507771Y-10734400D01*
X14879200Y-10805829D02*
X15107771Y-10805829D01*
X14993486Y-10920114D02*
X14993486Y-10691543D01*
X15450628Y-10620114D02*
X15636343Y-10620114D01*
X15536343Y-10734400D01*
X15579200Y-10734400D01*
X15607771Y-10748686D01*
X15622057Y-10762972D01*
X15636343Y-10791543D01*
X15636343Y-10862972D01*
X15622057Y-10891543D01*
X15607771Y-10905829D01*
X15579200Y-10920114D01*
X15493486Y-10920114D01*
X15464914Y-10905829D01*
X15450628Y-10891543D01*
X15979200Y-10905829D02*
X16007771Y-10920114D01*
X16064914Y-10920114D01*
X16093486Y-10905829D01*
X16107771Y-10877257D01*
X16107771Y-10862972D01*
X16093486Y-10834400D01*
X16064914Y-10820114D01*
X16022057Y-10820114D01*
X15993486Y-10805829D01*
X15979200Y-10777257D01*
X15979200Y-10762972D01*
X15993486Y-10734400D01*
X16022057Y-10720114D01*
X16064914Y-10720114D01*
X16093486Y-10734400D01*
X16279200Y-10920114D02*
X16250628Y-10905829D01*
X16236343Y-10877257D01*
X16236343Y-10620114D01*
X16436343Y-10920114D02*
X16407771Y-10905829D01*
X16393486Y-10891543D01*
X16379200Y-10862972D01*
X16379200Y-10777257D01*
X16393486Y-10748686D01*
X16407771Y-10734400D01*
X16436343Y-10720114D01*
X16479200Y-10720114D01*
X16507771Y-10734400D01*
X16522057Y-10748686D01*
X16536343Y-10777257D01*
X16536343Y-10862972D01*
X16522057Y-10891543D01*
X16507771Y-10905829D01*
X16479200Y-10920114D01*
X16436343Y-10920114D01*
X16622057Y-10720114D02*
X16736343Y-10720114D01*
X16664914Y-10620114D02*
X16664914Y-10877257D01*
X16679200Y-10905829D01*
X16707771Y-10920114D01*
X16736343Y-10920114D01*
X16822057Y-10905829D02*
X16850628Y-10920114D01*
X16907771Y-10920114D01*
X16936343Y-10905829D01*
X16950628Y-10877257D01*
X16950628Y-10862972D01*
X16936343Y-10834400D01*
X16907771Y-10820114D01*
X16864914Y-10820114D01*
X16836343Y-10805829D01*
X16822057Y-10777257D01*
X16822057Y-10762972D01*
X16836343Y-10734400D01*
X16864914Y-10720114D01*
X16907771Y-10720114D01*
X16936343Y-10734400D01*
X17050628Y-11034400D02*
X17064914Y-11020114D01*
X17093486Y-10977257D01*
X17107771Y-10948686D01*
X17122057Y-10905829D01*
X17136343Y-10834400D01*
X17136343Y-10777257D01*
X17122057Y-10705829D01*
X17107771Y-10662972D01*
X17093486Y-10634400D01*
X17064914Y-10591543D01*
X17050628Y-10577257D01*
X7534200Y-11150400D02*
X7534200Y-11210400D01*
X7504200Y-11180400D02*
X7564200Y-11180400D01*
X7907771Y-11016114D02*
X7936343Y-11016114D01*
X7964914Y-11030400D01*
X7979200Y-11044686D01*
X7993486Y-11073257D01*
X8007771Y-11130400D01*
X8007771Y-11201829D01*
X7993486Y-11258971D01*
X7979200Y-11287543D01*
X7964914Y-11301829D01*
X7936343Y-11316114D01*
X7907771Y-11316114D01*
X7879200Y-11301829D01*
X7864914Y-11287543D01*
X7850628Y-11258971D01*
X7836343Y-11201829D01*
X7836343Y-11130400D01*
X7850628Y-11073257D01*
X7864914Y-11044686D01*
X7879200Y-11030400D01*
X7907771Y-11016114D01*
X8136343Y-11287543D02*
X8150628Y-11301829D01*
X8136343Y-11316114D01*
X8122057Y-11301829D01*
X8136343Y-11287543D01*
X8136343Y-11316114D01*
X8407771Y-11016114D02*
X8350628Y-11016114D01*
X8322057Y-11030400D01*
X8307771Y-11044686D01*
X8279200Y-11087543D01*
X8264914Y-11144686D01*
X8264914Y-11258971D01*
X8279200Y-11287543D01*
X8293486Y-11301829D01*
X8322057Y-11316114D01*
X8379200Y-11316114D01*
X8407771Y-11301829D01*
X8422057Y-11287543D01*
X8436343Y-11258971D01*
X8436343Y-11187543D01*
X8422057Y-11158972D01*
X8407771Y-11144686D01*
X8379200Y-11130400D01*
X8322057Y-11130400D01*
X8293486Y-11144686D01*
X8279200Y-11158972D01*
X8264914Y-11187543D01*
X8622057Y-11016114D02*
X8650628Y-11016114D01*
X8679200Y-11030400D01*
X8693486Y-11044686D01*
X8707771Y-11073257D01*
X8722057Y-11130400D01*
X8722057Y-11201829D01*
X8707771Y-11258971D01*
X8693486Y-11287543D01*
X8679200Y-11301829D01*
X8650628Y-11316114D01*
X8622057Y-11316114D01*
X8593486Y-11301829D01*
X8579200Y-11287543D01*
X8564914Y-11258971D01*
X8550628Y-11201829D01*
X8550628Y-11130400D01*
X8564914Y-11073257D01*
X8579200Y-11044686D01*
X8593486Y-11030400D01*
X8622057Y-11016114D01*
X8907771Y-11016114D02*
X8936343Y-11016114D01*
X8964914Y-11030400D01*
X8979200Y-11044686D01*
X8993486Y-11073257D01*
X9007771Y-11130400D01*
X9007771Y-11201829D01*
X8993486Y-11258971D01*
X8979200Y-11287543D01*
X8964914Y-11301829D01*
X8936343Y-11316114D01*
X8907771Y-11316114D01*
X8879200Y-11301829D01*
X8864914Y-11287543D01*
X8850628Y-11258971D01*
X8836343Y-11201829D01*
X8836343Y-11130400D01*
X8850628Y-11073257D01*
X8864914Y-11044686D01*
X8879200Y-11030400D01*
X8907771Y-11016114D01*
X9136343Y-11316114D02*
X9136343Y-11116114D01*
X9136343Y-11144686D02*
X9150628Y-11130400D01*
X9179200Y-11116114D01*
X9222057Y-11116114D01*
X9250628Y-11130400D01*
X9264914Y-11158972D01*
X9264914Y-11316114D01*
X9264914Y-11158972D02*
X9279200Y-11130400D01*
X9307771Y-11116114D01*
X9350628Y-11116114D01*
X9379200Y-11130400D01*
X9393486Y-11158972D01*
X9393486Y-11316114D01*
X9536343Y-11316114D02*
X9536343Y-11116114D01*
X9536343Y-11144686D02*
X9550628Y-11130400D01*
X9579200Y-11116114D01*
X9622057Y-11116114D01*
X9650628Y-11130400D01*
X9664914Y-11158972D01*
X9664914Y-11316114D01*
X9664914Y-11158972D02*
X9679200Y-11130400D01*
X9707771Y-11116114D01*
X9750628Y-11116114D01*
X9779200Y-11130400D01*
X9793486Y-11158972D01*
X9793486Y-11316114D01*
X10379200Y-11001829D02*
X10122057Y-11387543D01*
X10764914Y-11016114D02*
X10793486Y-11016114D01*
X10822057Y-11030400D01*
X10836343Y-11044686D01*
X10850628Y-11073257D01*
X10864914Y-11130400D01*
X10864914Y-11201829D01*
X10850628Y-11258971D01*
X10836343Y-11287543D01*
X10822057Y-11301829D01*
X10793486Y-11316114D01*
X10764914Y-11316114D01*
X10736343Y-11301829D01*
X10722057Y-11287543D01*
X10707771Y-11258971D01*
X10693486Y-11201829D01*
X10693486Y-11130400D01*
X10707771Y-11073257D01*
X10722057Y-11044686D01*
X10736343Y-11030400D01*
X10764914Y-11016114D01*
X10993486Y-11287543D02*
X11007771Y-11301829D01*
X10993486Y-11316114D01*
X10979200Y-11301829D01*
X10993486Y-11287543D01*
X10993486Y-11316114D01*
X11193486Y-11016114D02*
X11222057Y-11016114D01*
X11250628Y-11030400D01*
X11264914Y-11044686D01*
X11279200Y-11073257D01*
X11293486Y-11130400D01*
X11293486Y-11201829D01*
X11279200Y-11258971D01*
X11264914Y-11287543D01*
X11250628Y-11301829D01*
X11222057Y-11316114D01*
X11193486Y-11316114D01*
X11164914Y-11301829D01*
X11150628Y-11287543D01*
X11136343Y-11258971D01*
X11122057Y-11201829D01*
X11122057Y-11130400D01*
X11136343Y-11073257D01*
X11150628Y-11044686D01*
X11164914Y-11030400D01*
X11193486Y-11016114D01*
X11407771Y-11044686D02*
X11422057Y-11030400D01*
X11450628Y-11016114D01*
X11522057Y-11016114D01*
X11550628Y-11030400D01*
X11564914Y-11044686D01*
X11579200Y-11073257D01*
X11579200Y-11101829D01*
X11564914Y-11144686D01*
X11393486Y-11316114D01*
X11579200Y-11316114D01*
X11679200Y-11016114D02*
X11864914Y-11016114D01*
X11764914Y-11130400D01*
X11807771Y-11130400D01*
X11836343Y-11144686D01*
X11850628Y-11158972D01*
X11864914Y-11187543D01*
X11864914Y-11258971D01*
X11850628Y-11287543D01*
X11836343Y-11301829D01*
X11807771Y-11316114D01*
X11722057Y-11316114D01*
X11693486Y-11301829D01*
X11679200Y-11287543D01*
X12122057Y-11016114D02*
X12064914Y-11016114D01*
X12036343Y-11030400D01*
X12022057Y-11044686D01*
X11993486Y-11087543D01*
X11979200Y-11144686D01*
X11979200Y-11258971D01*
X11993486Y-11287543D01*
X12007771Y-11301829D01*
X12036343Y-11316114D01*
X12093486Y-11316114D01*
X12122057Y-11301829D01*
X12136343Y-11287543D01*
X12150628Y-11258971D01*
X12150628Y-11187543D01*
X12136343Y-11158972D01*
X12122057Y-11144686D01*
X12093486Y-11130400D01*
X12036343Y-11130400D01*
X12007771Y-11144686D01*
X11993486Y-11158972D01*
X11979200Y-11187543D01*
X12264914Y-11016114D02*
X12264914Y-11073257D01*
X12379200Y-11016114D02*
X12379200Y-11073257D01*
X12822057Y-11430400D02*
X12807771Y-11416114D01*
X12779200Y-11373257D01*
X12764914Y-11344686D01*
X12750628Y-11301829D01*
X12736343Y-11230400D01*
X12736343Y-11173257D01*
X12750628Y-11101829D01*
X12764914Y-11058972D01*
X12779200Y-11030400D01*
X12807771Y-10987543D01*
X12822057Y-10973257D01*
X12922057Y-11044686D02*
X12936343Y-11030400D01*
X12964914Y-11016114D01*
X13036343Y-11016114D01*
X13064914Y-11030400D01*
X13079200Y-11044686D01*
X13093486Y-11073257D01*
X13093486Y-11101829D01*
X13079200Y-11144686D01*
X12907771Y-11316114D01*
X13093486Y-11316114D01*
X13450628Y-11316114D02*
X13450628Y-11016114D01*
X13579200Y-11316114D02*
X13579200Y-11158972D01*
X13564914Y-11130400D01*
X13536343Y-11116114D01*
X13493486Y-11116114D01*
X13464914Y-11130400D01*
X13450628Y-11144686D01*
X13764914Y-11316114D02*
X13736343Y-11301829D01*
X13722057Y-11287543D01*
X13707771Y-11258971D01*
X13707771Y-11173257D01*
X13722057Y-11144686D01*
X13736343Y-11130400D01*
X13764914Y-11116114D01*
X13807771Y-11116114D01*
X13836343Y-11130400D01*
X13850628Y-11144686D01*
X13864914Y-11173257D01*
X13864914Y-11258971D01*
X13850628Y-11287543D01*
X13836343Y-11301829D01*
X13807771Y-11316114D01*
X13764914Y-11316114D01*
X14036343Y-11316114D02*
X14007771Y-11301829D01*
X13993486Y-11273257D01*
X13993486Y-11016114D01*
X14264914Y-11301829D02*
X14236343Y-11316114D01*
X14179200Y-11316114D01*
X14150628Y-11301829D01*
X14136343Y-11273257D01*
X14136343Y-11158972D01*
X14150628Y-11130400D01*
X14179200Y-11116114D01*
X14236343Y-11116114D01*
X14264914Y-11130400D01*
X14279200Y-11158972D01*
X14279200Y-11187543D01*
X14136343Y-11216114D01*
X14393486Y-11301829D02*
X14422057Y-11316114D01*
X14479200Y-11316114D01*
X14507771Y-11301829D01*
X14522057Y-11273257D01*
X14522057Y-11258971D01*
X14507771Y-11230400D01*
X14479200Y-11216114D01*
X14436343Y-11216114D01*
X14407771Y-11201829D01*
X14393486Y-11173257D01*
X14393486Y-11158972D01*
X14407771Y-11130400D01*
X14436343Y-11116114D01*
X14479200Y-11116114D01*
X14507771Y-11130400D01*
X14622057Y-11430400D02*
X14636343Y-11416114D01*
X14664914Y-11373257D01*
X14679200Y-11344686D01*
X14693486Y-11301829D01*
X14707771Y-11230400D01*
X14707771Y-11173257D01*
X14693486Y-11101829D01*
X14679200Y-11058972D01*
X14664914Y-11030400D01*
X14636343Y-10987543D01*
X14622057Y-10973257D01*
X7553217Y-11602917D02*
X7553217Y-11549883D01*
X7500183Y-11549883D01*
X7500183Y-11602917D01*
X7553217Y-11602917D01*
X7907771Y-11412114D02*
X7936343Y-11412114D01*
X7964914Y-11426400D01*
X7979200Y-11440686D01*
X7993486Y-11469257D01*
X8007771Y-11526400D01*
X8007771Y-11597829D01*
X7993486Y-11654971D01*
X7979200Y-11683543D01*
X7964914Y-11697829D01*
X7936343Y-11712114D01*
X7907771Y-11712114D01*
X7879200Y-11697829D01*
X7864914Y-11683543D01*
X7850628Y-11654971D01*
X7836343Y-11597829D01*
X7836343Y-11526400D01*
X7850628Y-11469257D01*
X7864914Y-11440686D01*
X7879200Y-11426400D01*
X7907771Y-11412114D01*
X8136343Y-11683543D02*
X8150628Y-11697829D01*
X8136343Y-11712114D01*
X8122057Y-11697829D01*
X8136343Y-11683543D01*
X8136343Y-11712114D01*
X8250628Y-11412114D02*
X8450628Y-11412114D01*
X8322057Y-11712114D01*
X8707771Y-11412114D02*
X8564914Y-11412114D01*
X8550628Y-11554971D01*
X8564914Y-11540686D01*
X8593486Y-11526400D01*
X8664914Y-11526400D01*
X8693486Y-11540686D01*
X8707771Y-11554971D01*
X8722057Y-11583543D01*
X8722057Y-11654971D01*
X8707771Y-11683543D01*
X8693486Y-11697829D01*
X8664914Y-11712114D01*
X8593486Y-11712114D01*
X8564914Y-11697829D01*
X8550628Y-11683543D01*
X8907771Y-11412114D02*
X8936343Y-11412114D01*
X8964914Y-11426400D01*
X8979200Y-11440686D01*
X8993486Y-11469257D01*
X9007771Y-11526400D01*
X9007771Y-11597829D01*
X8993486Y-11654971D01*
X8979200Y-11683543D01*
X8964914Y-11697829D01*
X8936343Y-11712114D01*
X8907771Y-11712114D01*
X8879200Y-11697829D01*
X8864914Y-11683543D01*
X8850628Y-11654971D01*
X8836343Y-11597829D01*
X8836343Y-11526400D01*
X8850628Y-11469257D01*
X8864914Y-11440686D01*
X8879200Y-11426400D01*
X8907771Y-11412114D01*
X9136343Y-11712114D02*
X9136343Y-11512114D01*
X9136343Y-11540686D02*
X9150628Y-11526400D01*
X9179200Y-11512114D01*
X9222057Y-11512114D01*
X9250628Y-11526400D01*
X9264914Y-11554971D01*
X9264914Y-11712114D01*
X9264914Y-11554971D02*
X9279200Y-11526400D01*
X9307771Y-11512114D01*
X9350628Y-11512114D01*
X9379200Y-11526400D01*
X9393486Y-11554971D01*
X9393486Y-11712114D01*
X9536343Y-11712114D02*
X9536343Y-11512114D01*
X9536343Y-11540686D02*
X9550628Y-11526400D01*
X9579200Y-11512114D01*
X9622057Y-11512114D01*
X9650628Y-11526400D01*
X9664914Y-11554971D01*
X9664914Y-11712114D01*
X9664914Y-11554971D02*
X9679200Y-11526400D01*
X9707771Y-11512114D01*
X9750628Y-11512114D01*
X9779200Y-11526400D01*
X9793486Y-11554971D01*
X9793486Y-11712114D01*
X10379200Y-11397829D02*
X10122057Y-11783543D01*
X10764914Y-11412114D02*
X10793486Y-11412114D01*
X10822057Y-11426400D01*
X10836343Y-11440686D01*
X10850628Y-11469257D01*
X10864914Y-11526400D01*
X10864914Y-11597829D01*
X10850628Y-11654971D01*
X10836343Y-11683543D01*
X10822057Y-11697829D01*
X10793486Y-11712114D01*
X10764914Y-11712114D01*
X10736343Y-11697829D01*
X10722057Y-11683543D01*
X10707771Y-11654971D01*
X10693486Y-11597829D01*
X10693486Y-11526400D01*
X10707771Y-11469257D01*
X10722057Y-11440686D01*
X10736343Y-11426400D01*
X10764914Y-11412114D01*
X10993486Y-11683543D02*
X11007771Y-11697829D01*
X10993486Y-11712114D01*
X10979200Y-11697829D01*
X10993486Y-11683543D01*
X10993486Y-11712114D01*
X11193486Y-11412114D02*
X11222057Y-11412114D01*
X11250628Y-11426400D01*
X11264914Y-11440686D01*
X11279200Y-11469257D01*
X11293486Y-11526400D01*
X11293486Y-11597829D01*
X11279200Y-11654971D01*
X11264914Y-11683543D01*
X11250628Y-11697829D01*
X11222057Y-11712114D01*
X11193486Y-11712114D01*
X11164914Y-11697829D01*
X11150628Y-11683543D01*
X11136343Y-11654971D01*
X11122057Y-11597829D01*
X11122057Y-11526400D01*
X11136343Y-11469257D01*
X11150628Y-11440686D01*
X11164914Y-11426400D01*
X11193486Y-11412114D01*
X11407771Y-11440686D02*
X11422057Y-11426400D01*
X11450628Y-11412114D01*
X11522057Y-11412114D01*
X11550628Y-11426400D01*
X11564914Y-11440686D01*
X11579200Y-11469257D01*
X11579200Y-11497829D01*
X11564914Y-11540686D01*
X11393486Y-11712114D01*
X11579200Y-11712114D01*
X11722057Y-11712114D02*
X11779200Y-11712114D01*
X11807771Y-11697829D01*
X11822057Y-11683543D01*
X11850628Y-11640686D01*
X11864914Y-11583543D01*
X11864914Y-11469257D01*
X11850628Y-11440686D01*
X11836343Y-11426400D01*
X11807771Y-11412114D01*
X11750628Y-11412114D01*
X11722057Y-11426400D01*
X11707771Y-11440686D01*
X11693486Y-11469257D01*
X11693486Y-11540686D01*
X11707771Y-11569257D01*
X11722057Y-11583543D01*
X11750628Y-11597829D01*
X11807771Y-11597829D01*
X11836343Y-11583543D01*
X11850628Y-11569257D01*
X11864914Y-11540686D01*
X12136343Y-11412114D02*
X11993486Y-11412114D01*
X11979200Y-11554971D01*
X11993486Y-11540686D01*
X12022057Y-11526400D01*
X12093486Y-11526400D01*
X12122057Y-11540686D01*
X12136343Y-11554971D01*
X12150628Y-11583543D01*
X12150628Y-11654971D01*
X12136343Y-11683543D01*
X12122057Y-11697829D01*
X12093486Y-11712114D01*
X12022057Y-11712114D01*
X11993486Y-11697829D01*
X11979200Y-11683543D01*
X12264914Y-11412114D02*
X12264914Y-11469257D01*
X12379200Y-11412114D02*
X12379200Y-11469257D01*
X12822057Y-11826400D02*
X12807771Y-11812114D01*
X12779200Y-11769257D01*
X12764914Y-11740686D01*
X12750628Y-11697829D01*
X12736343Y-11626400D01*
X12736343Y-11569257D01*
X12750628Y-11497829D01*
X12764914Y-11454971D01*
X12779200Y-11426400D01*
X12807771Y-11383543D01*
X12822057Y-11369257D01*
X13064914Y-11412114D02*
X13007771Y-11412114D01*
X12979200Y-11426400D01*
X12964914Y-11440686D01*
X12936343Y-11483543D01*
X12922057Y-11540686D01*
X12922057Y-11654971D01*
X12936343Y-11683543D01*
X12950628Y-11697829D01*
X12979200Y-11712114D01*
X13036343Y-11712114D01*
X13064914Y-11697829D01*
X13079200Y-11683543D01*
X13093486Y-11654971D01*
X13093486Y-11583543D01*
X13079200Y-11554971D01*
X13064914Y-11540686D01*
X13036343Y-11526400D01*
X12979200Y-11526400D01*
X12950628Y-11540686D01*
X12936343Y-11554971D01*
X12922057Y-11583543D01*
X13450628Y-11712114D02*
X13450628Y-11412114D01*
X13579200Y-11712114D02*
X13579200Y-11554971D01*
X13564914Y-11526400D01*
X13536343Y-11512114D01*
X13493486Y-11512114D01*
X13464914Y-11526400D01*
X13450628Y-11540686D01*
X13764914Y-11712114D02*
X13736343Y-11697829D01*
X13722057Y-11683543D01*
X13707771Y-11654971D01*
X13707771Y-11569257D01*
X13722057Y-11540686D01*
X13736343Y-11526400D01*
X13764914Y-11512114D01*
X13807771Y-11512114D01*
X13836343Y-11526400D01*
X13850628Y-11540686D01*
X13864914Y-11569257D01*
X13864914Y-11654971D01*
X13850628Y-11683543D01*
X13836343Y-11697829D01*
X13807771Y-11712114D01*
X13764914Y-11712114D01*
X14036343Y-11712114D02*
X14007771Y-11697829D01*
X13993486Y-11669257D01*
X13993486Y-11412114D01*
X14264914Y-11697829D02*
X14236343Y-11712114D01*
X14179200Y-11712114D01*
X14150628Y-11697829D01*
X14136343Y-11669257D01*
X14136343Y-11554971D01*
X14150628Y-11526400D01*
X14179200Y-11512114D01*
X14236343Y-11512114D01*
X14264914Y-11526400D01*
X14279200Y-11554971D01*
X14279200Y-11583543D01*
X14136343Y-11612114D01*
X14393486Y-11697829D02*
X14422057Y-11712114D01*
X14479200Y-11712114D01*
X14507771Y-11697829D01*
X14522057Y-11669257D01*
X14522057Y-11654971D01*
X14507771Y-11626400D01*
X14479200Y-11612114D01*
X14436343Y-11612114D01*
X14407771Y-11597829D01*
X14393486Y-11569257D01*
X14393486Y-11554971D01*
X14407771Y-11526400D01*
X14436343Y-11512114D01*
X14479200Y-11512114D01*
X14507771Y-11526400D01*
X14622057Y-11826400D02*
X14636343Y-11812114D01*
X14664914Y-11769257D01*
X14679200Y-11740686D01*
X14693486Y-11697829D01*
X14707771Y-11626400D01*
X14707771Y-11569257D01*
X14693486Y-11497829D01*
X14679200Y-11454971D01*
X14664914Y-11426400D01*
X14636343Y-11383543D01*
X14622057Y-11369257D01*
X7524200Y-12012400D02*
X7564200Y-11972400D01*
X7524200Y-11932400D01*
X7484200Y-11972400D01*
X7524200Y-12012400D01*
X7907771Y-11808114D02*
X7936343Y-11808114D01*
X7964914Y-11822400D01*
X7979200Y-11836686D01*
X7993486Y-11865257D01*
X8007771Y-11922400D01*
X8007771Y-11993829D01*
X7993486Y-12050971D01*
X7979200Y-12079543D01*
X7964914Y-12093829D01*
X7936343Y-12108114D01*
X7907771Y-12108114D01*
X7879200Y-12093829D01*
X7864914Y-12079543D01*
X7850628Y-12050971D01*
X7836343Y-11993829D01*
X7836343Y-11922400D01*
X7850628Y-11865257D01*
X7864914Y-11836686D01*
X7879200Y-11822400D01*
X7907771Y-11808114D01*
X8136343Y-12079543D02*
X8150628Y-12093829D01*
X8136343Y-12108114D01*
X8122057Y-12093829D01*
X8136343Y-12079543D01*
X8136343Y-12108114D01*
X8322057Y-11936686D02*
X8293486Y-11922400D01*
X8279200Y-11908114D01*
X8264914Y-11879543D01*
X8264914Y-11865257D01*
X8279200Y-11836686D01*
X8293486Y-11822400D01*
X8322057Y-11808114D01*
X8379200Y-11808114D01*
X8407771Y-11822400D01*
X8422057Y-11836686D01*
X8436343Y-11865257D01*
X8436343Y-11879543D01*
X8422057Y-11908114D01*
X8407771Y-11922400D01*
X8379200Y-11936686D01*
X8322057Y-11936686D01*
X8293486Y-11950971D01*
X8279200Y-11965257D01*
X8264914Y-11993829D01*
X8264914Y-12050971D01*
X8279200Y-12079543D01*
X8293486Y-12093829D01*
X8322057Y-12108114D01*
X8379200Y-12108114D01*
X8407771Y-12093829D01*
X8422057Y-12079543D01*
X8436343Y-12050971D01*
X8436343Y-11993829D01*
X8422057Y-11965257D01*
X8407771Y-11950971D01*
X8379200Y-11936686D01*
X8622057Y-11808114D02*
X8650628Y-11808114D01*
X8679200Y-11822400D01*
X8693486Y-11836686D01*
X8707771Y-11865257D01*
X8722057Y-11922400D01*
X8722057Y-11993829D01*
X8707771Y-12050971D01*
X8693486Y-12079543D01*
X8679200Y-12093829D01*
X8650628Y-12108114D01*
X8622057Y-12108114D01*
X8593486Y-12093829D01*
X8579200Y-12079543D01*
X8564914Y-12050971D01*
X8550628Y-11993829D01*
X8550628Y-11922400D01*
X8564914Y-11865257D01*
X8579200Y-11836686D01*
X8593486Y-11822400D01*
X8622057Y-11808114D01*
X8907771Y-11808114D02*
X8936343Y-11808114D01*
X8964914Y-11822400D01*
X8979200Y-11836686D01*
X8993486Y-11865257D01*
X9007771Y-11922400D01*
X9007771Y-11993829D01*
X8993486Y-12050971D01*
X8979200Y-12079543D01*
X8964914Y-12093829D01*
X8936343Y-12108114D01*
X8907771Y-12108114D01*
X8879200Y-12093829D01*
X8864914Y-12079543D01*
X8850628Y-12050971D01*
X8836343Y-11993829D01*
X8836343Y-11922400D01*
X8850628Y-11865257D01*
X8864914Y-11836686D01*
X8879200Y-11822400D01*
X8907771Y-11808114D01*
X9136343Y-12108114D02*
X9136343Y-11908114D01*
X9136343Y-11936686D02*
X9150628Y-11922400D01*
X9179200Y-11908114D01*
X9222057Y-11908114D01*
X9250628Y-11922400D01*
X9264914Y-11950971D01*
X9264914Y-12108114D01*
X9264914Y-11950971D02*
X9279200Y-11922400D01*
X9307771Y-11908114D01*
X9350628Y-11908114D01*
X9379200Y-11922400D01*
X9393486Y-11950971D01*
X9393486Y-12108114D01*
X9536343Y-12108114D02*
X9536343Y-11908114D01*
X9536343Y-11936686D02*
X9550628Y-11922400D01*
X9579200Y-11908114D01*
X9622057Y-11908114D01*
X9650628Y-11922400D01*
X9664914Y-11950971D01*
X9664914Y-12108114D01*
X9664914Y-11950971D02*
X9679200Y-11922400D01*
X9707771Y-11908114D01*
X9750628Y-11908114D01*
X9779200Y-11922400D01*
X9793486Y-11950971D01*
X9793486Y-12108114D01*
X10379200Y-11793829D02*
X10122057Y-12179543D01*
X10764914Y-11808114D02*
X10793486Y-11808114D01*
X10822057Y-11822400D01*
X10836343Y-11836686D01*
X10850628Y-11865257D01*
X10864914Y-11922400D01*
X10864914Y-11993829D01*
X10850628Y-12050971D01*
X10836343Y-12079543D01*
X10822057Y-12093829D01*
X10793486Y-12108114D01*
X10764914Y-12108114D01*
X10736343Y-12093829D01*
X10722057Y-12079543D01*
X10707771Y-12050971D01*
X10693486Y-11993829D01*
X10693486Y-11922400D01*
X10707771Y-11865257D01*
X10722057Y-11836686D01*
X10736343Y-11822400D01*
X10764914Y-11808114D01*
X10993486Y-12079543D02*
X11007771Y-12093829D01*
X10993486Y-12108114D01*
X10979200Y-12093829D01*
X10993486Y-12079543D01*
X10993486Y-12108114D01*
X11193486Y-11808114D02*
X11222057Y-11808114D01*
X11250628Y-11822400D01*
X11264914Y-11836686D01*
X11279200Y-11865257D01*
X11293486Y-11922400D01*
X11293486Y-11993829D01*
X11279200Y-12050971D01*
X11264914Y-12079543D01*
X11250628Y-12093829D01*
X11222057Y-12108114D01*
X11193486Y-12108114D01*
X11164914Y-12093829D01*
X11150628Y-12079543D01*
X11136343Y-12050971D01*
X11122057Y-11993829D01*
X11122057Y-11922400D01*
X11136343Y-11865257D01*
X11150628Y-11836686D01*
X11164914Y-11822400D01*
X11193486Y-11808114D01*
X11393486Y-11808114D02*
X11579200Y-11808114D01*
X11479200Y-11922400D01*
X11522057Y-11922400D01*
X11550628Y-11936686D01*
X11564914Y-11950971D01*
X11579200Y-11979543D01*
X11579200Y-12050971D01*
X11564914Y-12079543D01*
X11550628Y-12093829D01*
X11522057Y-12108114D01*
X11436343Y-12108114D01*
X11407771Y-12093829D01*
X11393486Y-12079543D01*
X11864914Y-12108114D02*
X11693486Y-12108114D01*
X11779200Y-12108114D02*
X11779200Y-11808114D01*
X11750628Y-11850971D01*
X11722057Y-11879543D01*
X11693486Y-11893829D01*
X12136343Y-11808114D02*
X11993486Y-11808114D01*
X11979200Y-11950971D01*
X11993486Y-11936686D01*
X12022057Y-11922400D01*
X12093486Y-11922400D01*
X12122057Y-11936686D01*
X12136343Y-11950971D01*
X12150628Y-11979543D01*
X12150628Y-12050971D01*
X12136343Y-12079543D01*
X12122057Y-12093829D01*
X12093486Y-12108114D01*
X12022057Y-12108114D01*
X11993486Y-12093829D01*
X11979200Y-12079543D01*
X12264914Y-11808114D02*
X12264914Y-11865257D01*
X12379200Y-11808114D02*
X12379200Y-11865257D01*
X12822057Y-12222400D02*
X12807771Y-12208114D01*
X12779200Y-12165257D01*
X12764914Y-12136686D01*
X12750628Y-12093829D01*
X12736343Y-12022400D01*
X12736343Y-11965257D01*
X12750628Y-11893829D01*
X12764914Y-11850971D01*
X12779200Y-11822400D01*
X12807771Y-11779543D01*
X12822057Y-11765257D01*
X12950628Y-12108114D02*
X13007771Y-12108114D01*
X13036343Y-12093829D01*
X13050628Y-12079543D01*
X13079200Y-12036686D01*
X13093486Y-11979543D01*
X13093486Y-11865257D01*
X13079200Y-11836686D01*
X13064914Y-11822400D01*
X13036343Y-11808114D01*
X12979200Y-11808114D01*
X12950628Y-11822400D01*
X12936343Y-11836686D01*
X12922057Y-11865257D01*
X12922057Y-11936686D01*
X12936343Y-11965257D01*
X12950628Y-11979543D01*
X12979200Y-11993829D01*
X13036343Y-11993829D01*
X13064914Y-11979543D01*
X13079200Y-11965257D01*
X13093486Y-11936686D01*
X13350628Y-11808114D02*
X13293486Y-11808114D01*
X13264914Y-11822400D01*
X13250628Y-11836686D01*
X13222057Y-11879543D01*
X13207771Y-11936686D01*
X13207771Y-12050971D01*
X13222057Y-12079543D01*
X13236343Y-12093829D01*
X13264914Y-12108114D01*
X13322057Y-12108114D01*
X13350628Y-12093829D01*
X13364914Y-12079543D01*
X13379200Y-12050971D01*
X13379200Y-11979543D01*
X13364914Y-11950971D01*
X13350628Y-11936686D01*
X13322057Y-11922400D01*
X13264914Y-11922400D01*
X13236343Y-11936686D01*
X13222057Y-11950971D01*
X13207771Y-11979543D01*
X13736343Y-12108114D02*
X13736343Y-11808114D01*
X13864914Y-12108114D02*
X13864914Y-11950971D01*
X13850628Y-11922400D01*
X13822057Y-11908114D01*
X13779200Y-11908114D01*
X13750628Y-11922400D01*
X13736343Y-11936686D01*
X14050628Y-12108114D02*
X14022057Y-12093829D01*
X14007771Y-12079543D01*
X13993486Y-12050971D01*
X13993486Y-11965257D01*
X14007771Y-11936686D01*
X14022057Y-11922400D01*
X14050628Y-11908114D01*
X14093486Y-11908114D01*
X14122057Y-11922400D01*
X14136343Y-11936686D01*
X14150628Y-11965257D01*
X14150628Y-12050971D01*
X14136343Y-12079543D01*
X14122057Y-12093829D01*
X14093486Y-12108114D01*
X14050628Y-12108114D01*
X14322057Y-12108114D02*
X14293486Y-12093829D01*
X14279200Y-12065257D01*
X14279200Y-11808114D01*
X14550628Y-12093829D02*
X14522057Y-12108114D01*
X14464914Y-12108114D01*
X14436343Y-12093829D01*
X14422057Y-12065257D01*
X14422057Y-11950971D01*
X14436343Y-11922400D01*
X14464914Y-11908114D01*
X14522057Y-11908114D01*
X14550628Y-11922400D01*
X14564914Y-11950971D01*
X14564914Y-11979543D01*
X14422057Y-12008114D01*
X14679200Y-12093829D02*
X14707771Y-12108114D01*
X14764914Y-12108114D01*
X14793486Y-12093829D01*
X14807771Y-12065257D01*
X14807771Y-12050971D01*
X14793486Y-12022400D01*
X14764914Y-12008114D01*
X14722057Y-12008114D01*
X14693486Y-11993829D01*
X14679200Y-11965257D01*
X14679200Y-11950971D01*
X14693486Y-11922400D01*
X14722057Y-11908114D01*
X14764914Y-11908114D01*
X14793486Y-11922400D01*
X14907771Y-12222400D02*
X14922057Y-12208114D01*
X14950628Y-12165257D01*
X14964914Y-12136686D01*
X14979200Y-12093829D01*
X14993486Y-12022400D01*
X14993486Y-11965257D01*
X14979200Y-11893829D01*
X14964914Y-11850971D01*
X14950628Y-11822400D01*
X14922057Y-11779543D01*
X14907771Y-11765257D01*
X7464200Y-12318400D02*
X7564200Y-12418400D01*
X7564200Y-12318400D02*
X7464200Y-12418400D01*
X7564200Y-12368400D02*
G75*
G03*
X7564200Y-12368400I-50000J0D01*
G01*
X8007771Y-12504114D02*
X7836343Y-12504114D01*
X7922057Y-12504114D02*
X7922057Y-12204114D01*
X7893486Y-12246971D01*
X7864914Y-12275543D01*
X7836343Y-12289829D01*
X8136343Y-12475543D02*
X8150628Y-12489829D01*
X8136343Y-12504114D01*
X8122057Y-12489829D01*
X8136343Y-12475543D01*
X8136343Y-12504114D01*
X8336343Y-12204114D02*
X8364914Y-12204114D01*
X8393486Y-12218400D01*
X8407771Y-12232686D01*
X8422057Y-12261257D01*
X8436343Y-12318400D01*
X8436343Y-12389829D01*
X8422057Y-12446971D01*
X8407771Y-12475543D01*
X8393486Y-12489829D01*
X8364914Y-12504114D01*
X8336343Y-12504114D01*
X8307771Y-12489829D01*
X8293486Y-12475543D01*
X8279200Y-12446971D01*
X8264914Y-12389829D01*
X8264914Y-12318400D01*
X8279200Y-12261257D01*
X8293486Y-12232686D01*
X8307771Y-12218400D01*
X8336343Y-12204114D01*
X8622057Y-12204114D02*
X8650628Y-12204114D01*
X8679200Y-12218400D01*
X8693486Y-12232686D01*
X8707771Y-12261257D01*
X8722057Y-12318400D01*
X8722057Y-12389829D01*
X8707771Y-12446971D01*
X8693486Y-12475543D01*
X8679200Y-12489829D01*
X8650628Y-12504114D01*
X8622057Y-12504114D01*
X8593486Y-12489829D01*
X8579200Y-12475543D01*
X8564914Y-12446971D01*
X8550628Y-12389829D01*
X8550628Y-12318400D01*
X8564914Y-12261257D01*
X8579200Y-12232686D01*
X8593486Y-12218400D01*
X8622057Y-12204114D01*
X8907771Y-12204114D02*
X8936343Y-12204114D01*
X8964914Y-12218400D01*
X8979200Y-12232686D01*
X8993486Y-12261257D01*
X9007771Y-12318400D01*
X9007771Y-12389829D01*
X8993486Y-12446971D01*
X8979200Y-12475543D01*
X8964914Y-12489829D01*
X8936343Y-12504114D01*
X8907771Y-12504114D01*
X8879200Y-12489829D01*
X8864914Y-12475543D01*
X8850628Y-12446971D01*
X8836343Y-12389829D01*
X8836343Y-12318400D01*
X8850628Y-12261257D01*
X8864914Y-12232686D01*
X8879200Y-12218400D01*
X8907771Y-12204114D01*
X9136343Y-12504114D02*
X9136343Y-12304114D01*
X9136343Y-12332686D02*
X9150628Y-12318400D01*
X9179200Y-12304114D01*
X9222057Y-12304114D01*
X9250628Y-12318400D01*
X9264914Y-12346971D01*
X9264914Y-12504114D01*
X9264914Y-12346971D02*
X9279200Y-12318400D01*
X9307771Y-12304114D01*
X9350628Y-12304114D01*
X9379200Y-12318400D01*
X9393486Y-12346971D01*
X9393486Y-12504114D01*
X9536343Y-12504114D02*
X9536343Y-12304114D01*
X9536343Y-12332686D02*
X9550628Y-12318400D01*
X9579200Y-12304114D01*
X9622057Y-12304114D01*
X9650628Y-12318400D01*
X9664914Y-12346971D01*
X9664914Y-12504114D01*
X9664914Y-12346971D02*
X9679200Y-12318400D01*
X9707771Y-12304114D01*
X9750628Y-12304114D01*
X9779200Y-12318400D01*
X9793486Y-12346971D01*
X9793486Y-12504114D01*
X10379200Y-12189829D02*
X10122057Y-12575543D01*
X10764914Y-12204114D02*
X10793486Y-12204114D01*
X10822057Y-12218400D01*
X10836343Y-12232686D01*
X10850628Y-12261257D01*
X10864914Y-12318400D01*
X10864914Y-12389829D01*
X10850628Y-12446971D01*
X10836343Y-12475543D01*
X10822057Y-12489829D01*
X10793486Y-12504114D01*
X10764914Y-12504114D01*
X10736343Y-12489829D01*
X10722057Y-12475543D01*
X10707771Y-12446971D01*
X10693486Y-12389829D01*
X10693486Y-12318400D01*
X10707771Y-12261257D01*
X10722057Y-12232686D01*
X10736343Y-12218400D01*
X10764914Y-12204114D01*
X10993486Y-12475543D02*
X11007771Y-12489829D01*
X10993486Y-12504114D01*
X10979200Y-12489829D01*
X10993486Y-12475543D01*
X10993486Y-12504114D01*
X11193486Y-12204114D02*
X11222057Y-12204114D01*
X11250628Y-12218400D01*
X11264914Y-12232686D01*
X11279200Y-12261257D01*
X11293486Y-12318400D01*
X11293486Y-12389829D01*
X11279200Y-12446971D01*
X11264914Y-12475543D01*
X11250628Y-12489829D01*
X11222057Y-12504114D01*
X11193486Y-12504114D01*
X11164914Y-12489829D01*
X11150628Y-12475543D01*
X11136343Y-12446971D01*
X11122057Y-12389829D01*
X11122057Y-12318400D01*
X11136343Y-12261257D01*
X11150628Y-12232686D01*
X11164914Y-12218400D01*
X11193486Y-12204114D01*
X11393486Y-12204114D02*
X11579200Y-12204114D01*
X11479200Y-12318400D01*
X11522057Y-12318400D01*
X11550628Y-12332686D01*
X11564914Y-12346971D01*
X11579200Y-12375543D01*
X11579200Y-12446971D01*
X11564914Y-12475543D01*
X11550628Y-12489829D01*
X11522057Y-12504114D01*
X11436343Y-12504114D01*
X11407771Y-12489829D01*
X11393486Y-12475543D01*
X11722057Y-12504114D02*
X11779200Y-12504114D01*
X11807771Y-12489829D01*
X11822057Y-12475543D01*
X11850628Y-12432686D01*
X11864914Y-12375543D01*
X11864914Y-12261257D01*
X11850628Y-12232686D01*
X11836343Y-12218400D01*
X11807771Y-12204114D01*
X11750628Y-12204114D01*
X11722057Y-12218400D01*
X11707771Y-12232686D01*
X11693486Y-12261257D01*
X11693486Y-12332686D01*
X11707771Y-12361257D01*
X11722057Y-12375543D01*
X11750628Y-12389829D01*
X11807771Y-12389829D01*
X11836343Y-12375543D01*
X11850628Y-12361257D01*
X11864914Y-12332686D01*
X12122057Y-12304114D02*
X12122057Y-12504114D01*
X12050628Y-12189829D02*
X11979200Y-12404114D01*
X12164914Y-12404114D01*
X12264914Y-12204114D02*
X12264914Y-12261257D01*
X12379200Y-12204114D02*
X12379200Y-12261257D01*
X12822057Y-12618400D02*
X12807771Y-12604114D01*
X12779200Y-12561257D01*
X12764914Y-12532686D01*
X12750628Y-12489829D01*
X12736343Y-12418400D01*
X12736343Y-12361257D01*
X12750628Y-12289829D01*
X12764914Y-12246971D01*
X12779200Y-12218400D01*
X12807771Y-12175543D01*
X12822057Y-12161257D01*
X13093486Y-12504114D02*
X12922057Y-12504114D01*
X13007771Y-12504114D02*
X13007771Y-12204114D01*
X12979200Y-12246971D01*
X12950628Y-12275543D01*
X12922057Y-12289829D01*
X13364914Y-12204114D02*
X13222057Y-12204114D01*
X13207771Y-12346971D01*
X13222057Y-12332686D01*
X13250628Y-12318400D01*
X13322057Y-12318400D01*
X13350628Y-12332686D01*
X13364914Y-12346971D01*
X13379200Y-12375543D01*
X13379200Y-12446971D01*
X13364914Y-12475543D01*
X13350628Y-12489829D01*
X13322057Y-12504114D01*
X13250628Y-12504114D01*
X13222057Y-12489829D01*
X13207771Y-12475543D01*
X13736343Y-12504114D02*
X13736343Y-12204114D01*
X13864914Y-12504114D02*
X13864914Y-12346971D01*
X13850628Y-12318400D01*
X13822057Y-12304114D01*
X13779200Y-12304114D01*
X13750628Y-12318400D01*
X13736343Y-12332686D01*
X14050628Y-12504114D02*
X14022057Y-12489829D01*
X14007771Y-12475543D01*
X13993486Y-12446971D01*
X13993486Y-12361257D01*
X14007771Y-12332686D01*
X14022057Y-12318400D01*
X14050628Y-12304114D01*
X14093486Y-12304114D01*
X14122057Y-12318400D01*
X14136343Y-12332686D01*
X14150628Y-12361257D01*
X14150628Y-12446971D01*
X14136343Y-12475543D01*
X14122057Y-12489829D01*
X14093486Y-12504114D01*
X14050628Y-12504114D01*
X14322057Y-12504114D02*
X14293486Y-12489829D01*
X14279200Y-12461257D01*
X14279200Y-12204114D01*
X14550628Y-12489829D02*
X14522057Y-12504114D01*
X14464914Y-12504114D01*
X14436343Y-12489829D01*
X14422057Y-12461257D01*
X14422057Y-12346971D01*
X14436343Y-12318400D01*
X14464914Y-12304114D01*
X14522057Y-12304114D01*
X14550628Y-12318400D01*
X14564914Y-12346971D01*
X14564914Y-12375543D01*
X14422057Y-12404114D01*
X14679200Y-12489829D02*
X14707771Y-12504114D01*
X14764914Y-12504114D01*
X14793486Y-12489829D01*
X14807771Y-12461257D01*
X14807771Y-12446971D01*
X14793486Y-12418400D01*
X14764914Y-12404114D01*
X14722057Y-12404114D01*
X14693486Y-12389829D01*
X14679200Y-12361257D01*
X14679200Y-12346971D01*
X14693486Y-12318400D01*
X14722057Y-12304114D01*
X14764914Y-12304114D01*
X14793486Y-12318400D01*
X14907771Y-12618400D02*
X14922057Y-12604114D01*
X14950628Y-12561257D01*
X14964914Y-12532686D01*
X14979200Y-12489829D01*
X14993486Y-12418400D01*
X14993486Y-12361257D01*
X14979200Y-12289829D01*
X14964914Y-12246971D01*
X14950628Y-12218400D01*
X14922057Y-12175543D01*
X14907771Y-12161257D01*
X7454200Y-12709400D02*
X7564200Y-12819400D01*
X7564200Y-12709400D02*
X7454200Y-12819400D01*
X7509200Y-12709400D02*
X7509200Y-12819400D01*
X7454200Y-12764400D02*
X7564200Y-12764400D01*
X8007771Y-12900114D02*
X7836343Y-12900114D01*
X7922057Y-12900114D02*
X7922057Y-12600114D01*
X7893486Y-12642971D01*
X7864914Y-12671543D01*
X7836343Y-12685829D01*
X8136343Y-12871543D02*
X8150628Y-12885829D01*
X8136343Y-12900114D01*
X8122057Y-12885829D01*
X8136343Y-12871543D01*
X8136343Y-12900114D01*
X8436343Y-12900114D02*
X8264914Y-12900114D01*
X8350628Y-12900114D02*
X8350628Y-12600114D01*
X8322057Y-12642971D01*
X8293486Y-12671543D01*
X8264914Y-12685829D01*
X8622057Y-12600114D02*
X8650628Y-12600114D01*
X8679200Y-12614400D01*
X8693486Y-12628686D01*
X8707771Y-12657257D01*
X8722057Y-12714400D01*
X8722057Y-12785829D01*
X8707771Y-12842971D01*
X8693486Y-12871543D01*
X8679200Y-12885829D01*
X8650628Y-12900114D01*
X8622057Y-12900114D01*
X8593486Y-12885829D01*
X8579200Y-12871543D01*
X8564914Y-12842971D01*
X8550628Y-12785829D01*
X8550628Y-12714400D01*
X8564914Y-12657257D01*
X8579200Y-12628686D01*
X8593486Y-12614400D01*
X8622057Y-12600114D01*
X8907771Y-12600114D02*
X8936343Y-12600114D01*
X8964914Y-12614400D01*
X8979200Y-12628686D01*
X8993486Y-12657257D01*
X9007771Y-12714400D01*
X9007771Y-12785829D01*
X8993486Y-12842971D01*
X8979200Y-12871543D01*
X8964914Y-12885829D01*
X8936343Y-12900114D01*
X8907771Y-12900114D01*
X8879200Y-12885829D01*
X8864914Y-12871543D01*
X8850628Y-12842971D01*
X8836343Y-12785829D01*
X8836343Y-12714400D01*
X8850628Y-12657257D01*
X8864914Y-12628686D01*
X8879200Y-12614400D01*
X8907771Y-12600114D01*
X9136343Y-12900114D02*
X9136343Y-12700114D01*
X9136343Y-12728686D02*
X9150628Y-12714400D01*
X9179200Y-12700114D01*
X9222057Y-12700114D01*
X9250628Y-12714400D01*
X9264914Y-12742971D01*
X9264914Y-12900114D01*
X9264914Y-12742971D02*
X9279200Y-12714400D01*
X9307771Y-12700114D01*
X9350628Y-12700114D01*
X9379200Y-12714400D01*
X9393486Y-12742971D01*
X9393486Y-12900114D01*
X9536343Y-12900114D02*
X9536343Y-12700114D01*
X9536343Y-12728686D02*
X9550628Y-12714400D01*
X9579200Y-12700114D01*
X9622057Y-12700114D01*
X9650628Y-12714400D01*
X9664914Y-12742971D01*
X9664914Y-12900114D01*
X9664914Y-12742971D02*
X9679200Y-12714400D01*
X9707771Y-12700114D01*
X9750628Y-12700114D01*
X9779200Y-12714400D01*
X9793486Y-12742971D01*
X9793486Y-12900114D01*
X10379200Y-12585829D02*
X10122057Y-12971543D01*
X10764914Y-12600114D02*
X10793486Y-12600114D01*
X10822057Y-12614400D01*
X10836343Y-12628686D01*
X10850628Y-12657257D01*
X10864914Y-12714400D01*
X10864914Y-12785829D01*
X10850628Y-12842971D01*
X10836343Y-12871543D01*
X10822057Y-12885829D01*
X10793486Y-12900114D01*
X10764914Y-12900114D01*
X10736343Y-12885829D01*
X10722057Y-12871543D01*
X10707771Y-12842971D01*
X10693486Y-12785829D01*
X10693486Y-12714400D01*
X10707771Y-12657257D01*
X10722057Y-12628686D01*
X10736343Y-12614400D01*
X10764914Y-12600114D01*
X10993486Y-12871543D02*
X11007771Y-12885829D01*
X10993486Y-12900114D01*
X10979200Y-12885829D01*
X10993486Y-12871543D01*
X10993486Y-12900114D01*
X11193486Y-12600114D02*
X11222057Y-12600114D01*
X11250628Y-12614400D01*
X11264914Y-12628686D01*
X11279200Y-12657257D01*
X11293486Y-12714400D01*
X11293486Y-12785829D01*
X11279200Y-12842971D01*
X11264914Y-12871543D01*
X11250628Y-12885829D01*
X11222057Y-12900114D01*
X11193486Y-12900114D01*
X11164914Y-12885829D01*
X11150628Y-12871543D01*
X11136343Y-12842971D01*
X11122057Y-12785829D01*
X11122057Y-12714400D01*
X11136343Y-12657257D01*
X11150628Y-12628686D01*
X11164914Y-12614400D01*
X11193486Y-12600114D01*
X11550628Y-12700114D02*
X11550628Y-12900114D01*
X11479200Y-12585829D02*
X11407771Y-12800114D01*
X11593486Y-12800114D01*
X11679200Y-12600114D02*
X11864914Y-12600114D01*
X11764914Y-12714400D01*
X11807771Y-12714400D01*
X11836343Y-12728686D01*
X11850628Y-12742971D01*
X11864914Y-12771543D01*
X11864914Y-12842971D01*
X11850628Y-12871543D01*
X11836343Y-12885829D01*
X11807771Y-12900114D01*
X11722057Y-12900114D01*
X11693486Y-12885829D01*
X11679200Y-12871543D01*
X11964914Y-12600114D02*
X12150628Y-12600114D01*
X12050628Y-12714400D01*
X12093486Y-12714400D01*
X12122057Y-12728686D01*
X12136343Y-12742971D01*
X12150628Y-12771543D01*
X12150628Y-12842971D01*
X12136343Y-12871543D01*
X12122057Y-12885829D01*
X12093486Y-12900114D01*
X12007771Y-12900114D01*
X11979200Y-12885829D01*
X11964914Y-12871543D01*
X12264914Y-12600114D02*
X12264914Y-12657257D01*
X12379200Y-12600114D02*
X12379200Y-12657257D01*
X12822057Y-13014400D02*
X12807771Y-13000114D01*
X12779200Y-12957257D01*
X12764914Y-12928686D01*
X12750628Y-12885829D01*
X12736343Y-12814400D01*
X12736343Y-12757257D01*
X12750628Y-12685829D01*
X12764914Y-12642971D01*
X12779200Y-12614400D01*
X12807771Y-12571543D01*
X12822057Y-12557257D01*
X12922057Y-12628686D02*
X12936343Y-12614400D01*
X12964914Y-12600114D01*
X13036343Y-12600114D01*
X13064914Y-12614400D01*
X13079200Y-12628686D01*
X13093486Y-12657257D01*
X13093486Y-12685829D01*
X13079200Y-12728686D01*
X12907771Y-12900114D01*
X13093486Y-12900114D01*
X13450628Y-12900114D02*
X13450628Y-12600114D01*
X13579200Y-12900114D02*
X13579200Y-12742971D01*
X13564914Y-12714400D01*
X13536343Y-12700114D01*
X13493486Y-12700114D01*
X13464914Y-12714400D01*
X13450628Y-12728686D01*
X13764914Y-12900114D02*
X13736343Y-12885829D01*
X13722057Y-12871543D01*
X13707771Y-12842971D01*
X13707771Y-12757257D01*
X13722057Y-12728686D01*
X13736343Y-12714400D01*
X13764914Y-12700114D01*
X13807771Y-12700114D01*
X13836343Y-12714400D01*
X13850628Y-12728686D01*
X13864914Y-12757257D01*
X13864914Y-12842971D01*
X13850628Y-12871543D01*
X13836343Y-12885829D01*
X13807771Y-12900114D01*
X13764914Y-12900114D01*
X14036343Y-12900114D02*
X14007771Y-12885829D01*
X13993486Y-12857257D01*
X13993486Y-12600114D01*
X14264914Y-12885829D02*
X14236343Y-12900114D01*
X14179200Y-12900114D01*
X14150628Y-12885829D01*
X14136343Y-12857257D01*
X14136343Y-12742971D01*
X14150628Y-12714400D01*
X14179200Y-12700114D01*
X14236343Y-12700114D01*
X14264914Y-12714400D01*
X14279200Y-12742971D01*
X14279200Y-12771543D01*
X14136343Y-12800114D01*
X14393486Y-12885829D02*
X14422057Y-12900114D01*
X14479200Y-12900114D01*
X14507771Y-12885829D01*
X14522057Y-12857257D01*
X14522057Y-12842971D01*
X14507771Y-12814400D01*
X14479200Y-12800114D01*
X14436343Y-12800114D01*
X14407771Y-12785829D01*
X14393486Y-12757257D01*
X14393486Y-12742971D01*
X14407771Y-12714400D01*
X14436343Y-12700114D01*
X14479200Y-12700114D01*
X14507771Y-12714400D01*
X14622057Y-13014400D02*
X14636343Y-13000114D01*
X14664914Y-12957257D01*
X14679200Y-12928686D01*
X14693486Y-12885829D01*
X14707771Y-12814400D01*
X14707771Y-12757257D01*
X14693486Y-12685829D01*
X14679200Y-12642971D01*
X14664914Y-12614400D01*
X14636343Y-12571543D01*
X14622057Y-12557257D01*
X7404200Y-13080400D02*
X7564200Y-13240400D01*
X7564200Y-13080400D02*
X7404200Y-13240400D01*
X7540769Y-13216969D02*
X7540769Y-13103831D01*
X7427631Y-13103831D01*
X7427631Y-13216969D01*
X7540769Y-13216969D01*
X8007771Y-13296114D02*
X7836343Y-13296114D01*
X7922057Y-13296114D02*
X7922057Y-12996114D01*
X7893486Y-13038971D01*
X7864914Y-13067543D01*
X7836343Y-13081829D01*
X8136343Y-13267543D02*
X8150628Y-13281829D01*
X8136343Y-13296114D01*
X8122057Y-13281829D01*
X8136343Y-13267543D01*
X8136343Y-13296114D01*
X8407771Y-12996114D02*
X8350628Y-12996114D01*
X8322057Y-13010400D01*
X8307771Y-13024686D01*
X8279200Y-13067543D01*
X8264914Y-13124686D01*
X8264914Y-13238971D01*
X8279200Y-13267543D01*
X8293486Y-13281829D01*
X8322057Y-13296114D01*
X8379200Y-13296114D01*
X8407771Y-13281829D01*
X8422057Y-13267543D01*
X8436343Y-13238971D01*
X8436343Y-13167543D01*
X8422057Y-13138971D01*
X8407771Y-13124686D01*
X8379200Y-13110400D01*
X8322057Y-13110400D01*
X8293486Y-13124686D01*
X8279200Y-13138971D01*
X8264914Y-13167543D01*
X8622057Y-12996114D02*
X8650628Y-12996114D01*
X8679200Y-13010400D01*
X8693486Y-13024686D01*
X8707771Y-13053257D01*
X8722057Y-13110400D01*
X8722057Y-13181829D01*
X8707771Y-13238971D01*
X8693486Y-13267543D01*
X8679200Y-13281829D01*
X8650628Y-13296114D01*
X8622057Y-13296114D01*
X8593486Y-13281829D01*
X8579200Y-13267543D01*
X8564914Y-13238971D01*
X8550628Y-13181829D01*
X8550628Y-13110400D01*
X8564914Y-13053257D01*
X8579200Y-13024686D01*
X8593486Y-13010400D01*
X8622057Y-12996114D01*
X8907771Y-12996114D02*
X8936343Y-12996114D01*
X8964914Y-13010400D01*
X8979200Y-13024686D01*
X8993486Y-13053257D01*
X9007771Y-13110400D01*
X9007771Y-13181829D01*
X8993486Y-13238971D01*
X8979200Y-13267543D01*
X8964914Y-13281829D01*
X8936343Y-13296114D01*
X8907771Y-13296114D01*
X8879200Y-13281829D01*
X8864914Y-13267543D01*
X8850628Y-13238971D01*
X8836343Y-13181829D01*
X8836343Y-13110400D01*
X8850628Y-13053257D01*
X8864914Y-13024686D01*
X8879200Y-13010400D01*
X8907771Y-12996114D01*
X9136343Y-13296114D02*
X9136343Y-13096114D01*
X9136343Y-13124686D02*
X9150628Y-13110400D01*
X9179200Y-13096114D01*
X9222057Y-13096114D01*
X9250628Y-13110400D01*
X9264914Y-13138971D01*
X9264914Y-13296114D01*
X9264914Y-13138971D02*
X9279200Y-13110400D01*
X9307771Y-13096114D01*
X9350628Y-13096114D01*
X9379200Y-13110400D01*
X9393486Y-13138971D01*
X9393486Y-13296114D01*
X9536343Y-13296114D02*
X9536343Y-13096114D01*
X9536343Y-13124686D02*
X9550628Y-13110400D01*
X9579200Y-13096114D01*
X9622057Y-13096114D01*
X9650628Y-13110400D01*
X9664914Y-13138971D01*
X9664914Y-13296114D01*
X9664914Y-13138971D02*
X9679200Y-13110400D01*
X9707771Y-13096114D01*
X9750628Y-13096114D01*
X9779200Y-13110400D01*
X9793486Y-13138971D01*
X9793486Y-13296114D01*
X10379200Y-12981829D02*
X10122057Y-13367543D01*
X10764914Y-12996114D02*
X10793486Y-12996114D01*
X10822057Y-13010400D01*
X10836343Y-13024686D01*
X10850628Y-13053257D01*
X10864914Y-13110400D01*
X10864914Y-13181829D01*
X10850628Y-13238971D01*
X10836343Y-13267543D01*
X10822057Y-13281829D01*
X10793486Y-13296114D01*
X10764914Y-13296114D01*
X10736343Y-13281829D01*
X10722057Y-13267543D01*
X10707771Y-13238971D01*
X10693486Y-13181829D01*
X10693486Y-13110400D01*
X10707771Y-13053257D01*
X10722057Y-13024686D01*
X10736343Y-13010400D01*
X10764914Y-12996114D01*
X10993486Y-13267543D02*
X11007771Y-13281829D01*
X10993486Y-13296114D01*
X10979200Y-13281829D01*
X10993486Y-13267543D01*
X10993486Y-13296114D01*
X11193486Y-12996114D02*
X11222057Y-12996114D01*
X11250628Y-13010400D01*
X11264914Y-13024686D01*
X11279200Y-13053257D01*
X11293486Y-13110400D01*
X11293486Y-13181829D01*
X11279200Y-13238971D01*
X11264914Y-13267543D01*
X11250628Y-13281829D01*
X11222057Y-13296114D01*
X11193486Y-13296114D01*
X11164914Y-13281829D01*
X11150628Y-13267543D01*
X11136343Y-13238971D01*
X11122057Y-13181829D01*
X11122057Y-13110400D01*
X11136343Y-13053257D01*
X11150628Y-13024686D01*
X11164914Y-13010400D01*
X11193486Y-12996114D01*
X11550628Y-12996114D02*
X11493486Y-12996114D01*
X11464914Y-13010400D01*
X11450628Y-13024686D01*
X11422057Y-13067543D01*
X11407771Y-13124686D01*
X11407771Y-13238971D01*
X11422057Y-13267543D01*
X11436343Y-13281829D01*
X11464914Y-13296114D01*
X11522057Y-13296114D01*
X11550628Y-13281829D01*
X11564914Y-13267543D01*
X11579200Y-13238971D01*
X11579200Y-13167543D01*
X11564914Y-13138971D01*
X11550628Y-13124686D01*
X11522057Y-13110400D01*
X11464914Y-13110400D01*
X11436343Y-13124686D01*
X11422057Y-13138971D01*
X11407771Y-13167543D01*
X11679200Y-12996114D02*
X11864914Y-12996114D01*
X11764914Y-13110400D01*
X11807771Y-13110400D01*
X11836343Y-13124686D01*
X11850628Y-13138971D01*
X11864914Y-13167543D01*
X11864914Y-13238971D01*
X11850628Y-13267543D01*
X11836343Y-13281829D01*
X11807771Y-13296114D01*
X11722057Y-13296114D01*
X11693486Y-13281829D01*
X11679200Y-13267543D01*
X12050628Y-12996114D02*
X12079200Y-12996114D01*
X12107771Y-13010400D01*
X12122057Y-13024686D01*
X12136343Y-13053257D01*
X12150628Y-13110400D01*
X12150628Y-13181829D01*
X12136343Y-13238971D01*
X12122057Y-13267543D01*
X12107771Y-13281829D01*
X12079200Y-13296114D01*
X12050628Y-13296114D01*
X12022057Y-13281829D01*
X12007771Y-13267543D01*
X11993486Y-13238971D01*
X11979200Y-13181829D01*
X11979200Y-13110400D01*
X11993486Y-13053257D01*
X12007771Y-13024686D01*
X12022057Y-13010400D01*
X12050628Y-12996114D01*
X12264914Y-12996114D02*
X12264914Y-13053257D01*
X12379200Y-12996114D02*
X12379200Y-13053257D01*
X12822057Y-13410400D02*
X12807771Y-13396114D01*
X12779200Y-13353257D01*
X12764914Y-13324686D01*
X12750628Y-13281829D01*
X12736343Y-13210400D01*
X12736343Y-13153257D01*
X12750628Y-13081829D01*
X12764914Y-13038971D01*
X12779200Y-13010400D01*
X12807771Y-12967543D01*
X12822057Y-12953257D01*
X12907771Y-12996114D02*
X13093486Y-12996114D01*
X12993486Y-13110400D01*
X13036343Y-13110400D01*
X13064914Y-13124686D01*
X13079200Y-13138971D01*
X13093486Y-13167543D01*
X13093486Y-13238971D01*
X13079200Y-13267543D01*
X13064914Y-13281829D01*
X13036343Y-13296114D01*
X12950628Y-13296114D01*
X12922057Y-13281829D01*
X12907771Y-13267543D01*
X13450628Y-13296114D02*
X13450628Y-12996114D01*
X13579200Y-13296114D02*
X13579200Y-13138971D01*
X13564914Y-13110400D01*
X13536343Y-13096114D01*
X13493486Y-13096114D01*
X13464914Y-13110400D01*
X13450628Y-13124686D01*
X13764914Y-13296114D02*
X13736343Y-13281829D01*
X13722057Y-13267543D01*
X13707771Y-13238971D01*
X13707771Y-13153257D01*
X13722057Y-13124686D01*
X13736343Y-13110400D01*
X13764914Y-13096114D01*
X13807771Y-13096114D01*
X13836343Y-13110400D01*
X13850628Y-13124686D01*
X13864914Y-13153257D01*
X13864914Y-13238971D01*
X13850628Y-13267543D01*
X13836343Y-13281829D01*
X13807771Y-13296114D01*
X13764914Y-13296114D01*
X14036343Y-13296114D02*
X14007771Y-13281829D01*
X13993486Y-13253257D01*
X13993486Y-12996114D01*
X14264914Y-13281829D02*
X14236343Y-13296114D01*
X14179200Y-13296114D01*
X14150628Y-13281829D01*
X14136343Y-13253257D01*
X14136343Y-13138971D01*
X14150628Y-13110400D01*
X14179200Y-13096114D01*
X14236343Y-13096114D01*
X14264914Y-13110400D01*
X14279200Y-13138971D01*
X14279200Y-13167543D01*
X14136343Y-13196114D01*
X14393486Y-13281829D02*
X14422057Y-13296114D01*
X14479200Y-13296114D01*
X14507771Y-13281829D01*
X14522057Y-13253257D01*
X14522057Y-13238971D01*
X14507771Y-13210400D01*
X14479200Y-13196114D01*
X14436343Y-13196114D01*
X14407771Y-13181829D01*
X14393486Y-13153257D01*
X14393486Y-13138971D01*
X14407771Y-13110400D01*
X14436343Y-13096114D01*
X14479200Y-13096114D01*
X14507771Y-13110400D01*
X14622057Y-13410400D02*
X14636343Y-13396114D01*
X14664914Y-13353257D01*
X14679200Y-13324686D01*
X14693486Y-13281829D01*
X14707771Y-13210400D01*
X14707771Y-13153257D01*
X14693486Y-13081829D01*
X14679200Y-13038971D01*
X14664914Y-13010400D01*
X14636343Y-12967543D01*
X14622057Y-12953257D01*
X7244200Y-13396400D02*
X7564200Y-13716400D01*
X7564200Y-13396400D02*
X7244200Y-13716400D01*
X7404200Y-13716400D02*
X7564200Y-13556400D01*
X7404200Y-13396400D01*
X7244200Y-13556400D01*
X7404200Y-13716400D01*
X7822057Y-13392114D02*
X8007771Y-13392114D01*
X7907771Y-13506400D01*
X7950628Y-13506400D01*
X7979200Y-13520686D01*
X7993486Y-13534971D01*
X8007771Y-13563543D01*
X8007771Y-13634971D01*
X7993486Y-13663543D01*
X7979200Y-13677829D01*
X7950628Y-13692114D01*
X7864914Y-13692114D01*
X7836343Y-13677829D01*
X7822057Y-13663543D01*
X8136343Y-13663543D02*
X8150628Y-13677829D01*
X8136343Y-13692114D01*
X8122057Y-13677829D01*
X8136343Y-13663543D01*
X8136343Y-13692114D01*
X8264914Y-13420686D02*
X8279200Y-13406400D01*
X8307771Y-13392114D01*
X8379200Y-13392114D01*
X8407771Y-13406400D01*
X8422057Y-13420686D01*
X8436343Y-13449257D01*
X8436343Y-13477829D01*
X8422057Y-13520686D01*
X8250628Y-13692114D01*
X8436343Y-13692114D01*
X8622057Y-13392114D02*
X8650628Y-13392114D01*
X8679200Y-13406400D01*
X8693486Y-13420686D01*
X8707771Y-13449257D01*
X8722057Y-13506400D01*
X8722057Y-13577829D01*
X8707771Y-13634971D01*
X8693486Y-13663543D01*
X8679200Y-13677829D01*
X8650628Y-13692114D01*
X8622057Y-13692114D01*
X8593486Y-13677829D01*
X8579200Y-13663543D01*
X8564914Y-13634971D01*
X8550628Y-13577829D01*
X8550628Y-13506400D01*
X8564914Y-13449257D01*
X8579200Y-13420686D01*
X8593486Y-13406400D01*
X8622057Y-13392114D01*
X8907771Y-13392114D02*
X8936343Y-13392114D01*
X8964914Y-13406400D01*
X8979200Y-13420686D01*
X8993486Y-13449257D01*
X9007771Y-13506400D01*
X9007771Y-13577829D01*
X8993486Y-13634971D01*
X8979200Y-13663543D01*
X8964914Y-13677829D01*
X8936343Y-13692114D01*
X8907771Y-13692114D01*
X8879200Y-13677829D01*
X8864914Y-13663543D01*
X8850628Y-13634971D01*
X8836343Y-13577829D01*
X8836343Y-13506400D01*
X8850628Y-13449257D01*
X8864914Y-13420686D01*
X8879200Y-13406400D01*
X8907771Y-13392114D01*
X9136343Y-13692114D02*
X9136343Y-13492114D01*
X9136343Y-13520686D02*
X9150628Y-13506400D01*
X9179200Y-13492114D01*
X9222057Y-13492114D01*
X9250628Y-13506400D01*
X9264914Y-13534971D01*
X9264914Y-13692114D01*
X9264914Y-13534971D02*
X9279200Y-13506400D01*
X9307771Y-13492114D01*
X9350628Y-13492114D01*
X9379200Y-13506400D01*
X9393486Y-13534971D01*
X9393486Y-13692114D01*
X9536343Y-13692114D02*
X9536343Y-13492114D01*
X9536343Y-13520686D02*
X9550628Y-13506400D01*
X9579200Y-13492114D01*
X9622057Y-13492114D01*
X9650628Y-13506400D01*
X9664914Y-13534971D01*
X9664914Y-13692114D01*
X9664914Y-13534971D02*
X9679200Y-13506400D01*
X9707771Y-13492114D01*
X9750628Y-13492114D01*
X9779200Y-13506400D01*
X9793486Y-13534971D01*
X9793486Y-13692114D01*
X10379200Y-13377829D02*
X10122057Y-13763543D01*
X10764914Y-13392114D02*
X10793486Y-13392114D01*
X10822057Y-13406400D01*
X10836343Y-13420686D01*
X10850628Y-13449257D01*
X10864914Y-13506400D01*
X10864914Y-13577829D01*
X10850628Y-13634971D01*
X10836343Y-13663543D01*
X10822057Y-13677829D01*
X10793486Y-13692114D01*
X10764914Y-13692114D01*
X10736343Y-13677829D01*
X10722057Y-13663543D01*
X10707771Y-13634971D01*
X10693486Y-13577829D01*
X10693486Y-13506400D01*
X10707771Y-13449257D01*
X10722057Y-13420686D01*
X10736343Y-13406400D01*
X10764914Y-13392114D01*
X10993486Y-13663543D02*
X11007771Y-13677829D01*
X10993486Y-13692114D01*
X10979200Y-13677829D01*
X10993486Y-13663543D01*
X10993486Y-13692114D01*
X11293486Y-13692114D02*
X11122057Y-13692114D01*
X11207771Y-13692114D02*
X11207771Y-13392114D01*
X11179200Y-13434971D01*
X11150628Y-13463543D01*
X11122057Y-13477829D01*
X11407771Y-13420686D02*
X11422057Y-13406400D01*
X11450628Y-13392114D01*
X11522057Y-13392114D01*
X11550628Y-13406400D01*
X11564914Y-13420686D01*
X11579200Y-13449257D01*
X11579200Y-13477829D01*
X11564914Y-13520686D01*
X11393486Y-13692114D01*
X11579200Y-13692114D01*
X11836343Y-13392114D02*
X11779200Y-13392114D01*
X11750628Y-13406400D01*
X11736343Y-13420686D01*
X11707771Y-13463543D01*
X11693486Y-13520686D01*
X11693486Y-13634971D01*
X11707771Y-13663543D01*
X11722057Y-13677829D01*
X11750628Y-13692114D01*
X11807771Y-13692114D01*
X11836343Y-13677829D01*
X11850628Y-13663543D01*
X11864914Y-13634971D01*
X11864914Y-13563543D01*
X11850628Y-13534971D01*
X11836343Y-13520686D01*
X11807771Y-13506400D01*
X11750628Y-13506400D01*
X11722057Y-13520686D01*
X11707771Y-13534971D01*
X11693486Y-13563543D01*
X12050628Y-13392114D02*
X12079200Y-13392114D01*
X12107771Y-13406400D01*
X12122057Y-13420686D01*
X12136343Y-13449257D01*
X12150628Y-13506400D01*
X12150628Y-13577829D01*
X12136343Y-13634971D01*
X12122057Y-13663543D01*
X12107771Y-13677829D01*
X12079200Y-13692114D01*
X12050628Y-13692114D01*
X12022057Y-13677829D01*
X12007771Y-13663543D01*
X11993486Y-13634971D01*
X11979200Y-13577829D01*
X11979200Y-13506400D01*
X11993486Y-13449257D01*
X12007771Y-13420686D01*
X12022057Y-13406400D01*
X12050628Y-13392114D01*
X12264914Y-13392114D02*
X12264914Y-13449257D01*
X12379200Y-13392114D02*
X12379200Y-13449257D01*
X12822057Y-13806400D02*
X12807771Y-13792114D01*
X12779200Y-13749257D01*
X12764914Y-13720686D01*
X12750628Y-13677829D01*
X12736343Y-13606400D01*
X12736343Y-13549257D01*
X12750628Y-13477829D01*
X12764914Y-13434971D01*
X12779200Y-13406400D01*
X12807771Y-13363543D01*
X12822057Y-13349257D01*
X13064914Y-13492114D02*
X13064914Y-13692114D01*
X12993486Y-13377829D02*
X12922057Y-13592114D01*
X13107771Y-13592114D01*
X13450628Y-13692114D02*
X13450628Y-13392114D01*
X13579200Y-13692114D02*
X13579200Y-13534971D01*
X13564914Y-13506400D01*
X13536343Y-13492114D01*
X13493486Y-13492114D01*
X13464914Y-13506400D01*
X13450628Y-13520686D01*
X13764914Y-13692114D02*
X13736343Y-13677829D01*
X13722057Y-13663543D01*
X13707771Y-13634971D01*
X13707771Y-13549257D01*
X13722057Y-13520686D01*
X13736343Y-13506400D01*
X13764914Y-13492114D01*
X13807771Y-13492114D01*
X13836343Y-13506400D01*
X13850628Y-13520686D01*
X13864914Y-13549257D01*
X13864914Y-13634971D01*
X13850628Y-13663543D01*
X13836343Y-13677829D01*
X13807771Y-13692114D01*
X13764914Y-13692114D01*
X14036343Y-13692114D02*
X14007771Y-13677829D01*
X13993486Y-13649257D01*
X13993486Y-13392114D01*
X14264914Y-13677829D02*
X14236343Y-13692114D01*
X14179200Y-13692114D01*
X14150628Y-13677829D01*
X14136343Y-13649257D01*
X14136343Y-13534971D01*
X14150628Y-13506400D01*
X14179200Y-13492114D01*
X14236343Y-13492114D01*
X14264914Y-13506400D01*
X14279200Y-13534971D01*
X14279200Y-13563543D01*
X14136343Y-13592114D01*
X14393486Y-13677829D02*
X14422057Y-13692114D01*
X14479200Y-13692114D01*
X14507771Y-13677829D01*
X14522057Y-13649257D01*
X14522057Y-13634971D01*
X14507771Y-13606400D01*
X14479200Y-13592114D01*
X14436343Y-13592114D01*
X14407771Y-13577829D01*
X14393486Y-13549257D01*
X14393486Y-13534971D01*
X14407771Y-13506400D01*
X14436343Y-13492114D01*
X14479200Y-13492114D01*
X14507771Y-13506400D01*
X14622057Y-13806400D02*
X14636343Y-13792114D01*
X14664914Y-13749257D01*
X14679200Y-13720686D01*
X14693486Y-13677829D01*
X14707771Y-13606400D01*
X14707771Y-13549257D01*
X14693486Y-13477829D01*
X14679200Y-13434971D01*
X14664914Y-13406400D01*
X14636343Y-13363543D01*
X14622057Y-13349257D01*
M02*
