G04 #@! TF.GenerationSoftware,KiCad,Pcbnew,(5.1.10-1-10_14)*
G04 #@! TF.CreationDate,2021-08-04T23:21:23+02:00*
G04 #@! TF.ProjectId,keyboard,6b657962-6f61-4726-942e-6b696361645f,rev?*
G04 #@! TF.SameCoordinates,Original*
G04 #@! TF.FileFunction,Copper,L3,Inr*
G04 #@! TF.FilePolarity,Positive*
%FSLAX46Y46*%
G04 Gerber Fmt 4.6, Leading zero omitted, Abs format (unit mm)*
G04 Created by KiCad (PCBNEW (5.1.10-1-10_14)) date 2021-08-04 23:21:23*
%MOMM*%
%LPD*%
G01*
G04 APERTURE LIST*
G04 #@! TA.AperFunction,ComponentPad*
%ADD10C,3.000000*%
G04 #@! TD*
G04 #@! TA.AperFunction,ComponentPad*
%ADD11O,1.700000X1.700000*%
G04 #@! TD*
G04 #@! TA.AperFunction,ComponentPad*
%ADD12R,1.700000X1.700000*%
G04 #@! TD*
G04 #@! TA.AperFunction,ComponentPad*
%ADD13R,3.200400X2.169160*%
G04 #@! TD*
G04 #@! TA.AperFunction,ComponentPad*
%ADD14R,1.998980X3.200400*%
G04 #@! TD*
G04 #@! TA.AperFunction,ComponentPad*
%ADD15C,1.700000*%
G04 #@! TD*
G04 #@! TA.AperFunction,ComponentPad*
%ADD16O,1.600000X1.600000*%
G04 #@! TD*
G04 #@! TA.AperFunction,ComponentPad*
%ADD17R,1.600000X1.600000*%
G04 #@! TD*
G04 #@! TA.AperFunction,ComponentPad*
%ADD18C,6.400000*%
G04 #@! TD*
G04 #@! TA.AperFunction,ComponentPad*
%ADD19C,1.200000*%
G04 #@! TD*
G04 #@! TA.AperFunction,ComponentPad*
%ADD20R,1.200000X1.200000*%
G04 #@! TD*
G04 #@! TA.AperFunction,ComponentPad*
%ADD21C,1.600000*%
G04 #@! TD*
G04 #@! TA.AperFunction,ComponentPad*
%ADD22O,2.200000X2.200000*%
G04 #@! TD*
G04 #@! TA.AperFunction,ComponentPad*
%ADD23R,2.200000X2.200000*%
G04 #@! TD*
G04 #@! TA.AperFunction,ViaPad*
%ADD24C,0.800000*%
G04 #@! TD*
G04 #@! TA.AperFunction,Conductor*
%ADD25C,0.254000*%
G04 #@! TD*
G04 #@! TA.AperFunction,Conductor*
%ADD26C,0.100000*%
G04 #@! TD*
G04 APERTURE END LIST*
D10*
X137388600Y-66954400D03*
X148412200Y-87122000D03*
X148259800Y-68630800D03*
D11*
X86334600Y-64109600D03*
D12*
X86334600Y-66649600D03*
D13*
X81000600Y-69977000D03*
X81000600Y-83947000D03*
D14*
X80416400Y-76962000D03*
D15*
X84540600Y-80137000D03*
X84540600Y-73787000D03*
X87080600Y-73787000D03*
X87080600Y-80137000D03*
X84540600Y-78105000D03*
X84540600Y-75946000D03*
D16*
X100838000Y-72898000D03*
X93218000Y-90678000D03*
X100838000Y-75438000D03*
X93218000Y-88138000D03*
X100838000Y-77978000D03*
X93218000Y-85598000D03*
X100838000Y-80518000D03*
X93218000Y-83058000D03*
X100838000Y-83058000D03*
X93218000Y-80518000D03*
X100838000Y-85598000D03*
X93218000Y-77978000D03*
X100838000Y-88138000D03*
X93218000Y-75438000D03*
X100838000Y-90678000D03*
D17*
X93218000Y-72898000D03*
D18*
X154686000Y-89916000D03*
X154686000Y-64262000D03*
X80010000Y-89916000D03*
X80010000Y-64262000D03*
D19*
X96298000Y-62865000D03*
D20*
X98298000Y-62865000D03*
D16*
X144526000Y-72898000D03*
X136906000Y-88138000D03*
X144526000Y-75438000D03*
X136906000Y-85598000D03*
X144526000Y-77978000D03*
X136906000Y-83058000D03*
X144526000Y-80518000D03*
X136906000Y-80518000D03*
X144526000Y-83058000D03*
X136906000Y-77978000D03*
X144526000Y-85598000D03*
X136906000Y-75438000D03*
X144526000Y-88138000D03*
D17*
X136906000Y-72898000D03*
D21*
X156384000Y-72898000D03*
X151384000Y-72898000D03*
D16*
X147066000Y-62484000D03*
D21*
X139446000Y-62484000D03*
D16*
X90525600Y-70891400D03*
D21*
X90525600Y-63271400D03*
D16*
X90525600Y-90728800D03*
D21*
X90525600Y-83108800D03*
D16*
X156464000Y-76708000D03*
D21*
X148844000Y-76708000D03*
D22*
X148844000Y-81280000D03*
D23*
X156464000Y-81280000D03*
D21*
X144526000Y-69850000D03*
X142026000Y-69850000D03*
X133564000Y-69850000D03*
X131064000Y-69850000D03*
X122896000Y-69850000D03*
X120396000Y-69850000D03*
X111720000Y-69850000D03*
X109220000Y-69850000D03*
X100798000Y-69850000D03*
X98298000Y-69850000D03*
X90271600Y-75503400D03*
X90271600Y-78003400D03*
D16*
X133604000Y-72898000D03*
X125984000Y-88138000D03*
X133604000Y-75438000D03*
X125984000Y-85598000D03*
X133604000Y-77978000D03*
X125984000Y-83058000D03*
X133604000Y-80518000D03*
X125984000Y-80518000D03*
X133604000Y-83058000D03*
X125984000Y-77978000D03*
X133604000Y-85598000D03*
X125984000Y-75438000D03*
X133604000Y-88138000D03*
D17*
X125984000Y-72898000D03*
D16*
X122682000Y-72898000D03*
X115062000Y-88138000D03*
X122682000Y-75438000D03*
X115062000Y-85598000D03*
X122682000Y-77978000D03*
X115062000Y-83058000D03*
X122682000Y-80518000D03*
X115062000Y-80518000D03*
X122682000Y-83058000D03*
X115062000Y-77978000D03*
X122682000Y-85598000D03*
X115062000Y-75438000D03*
X122682000Y-88138000D03*
D17*
X115062000Y-72898000D03*
D16*
X111760000Y-72898000D03*
X104140000Y-90678000D03*
X111760000Y-75438000D03*
X104140000Y-88138000D03*
X111760000Y-77978000D03*
X104140000Y-85598000D03*
X111760000Y-80518000D03*
X104140000Y-83058000D03*
X111760000Y-83058000D03*
X104140000Y-80518000D03*
X111760000Y-85598000D03*
X104140000Y-77978000D03*
X111760000Y-88138000D03*
X104140000Y-75438000D03*
X111760000Y-90678000D03*
D17*
X104140000Y-72898000D03*
D11*
X134112000Y-62484000D03*
X131572000Y-62484000D03*
X129032000Y-62484000D03*
X126492000Y-62484000D03*
X123952000Y-62484000D03*
X121412000Y-62484000D03*
X118872000Y-62484000D03*
X116332000Y-62484000D03*
X113792000Y-62484000D03*
X111252000Y-62484000D03*
X108712000Y-62484000D03*
X106172000Y-62484000D03*
D12*
X103632000Y-62484000D03*
D24*
X108788200Y-73431400D03*
X118719600Y-72898000D03*
X117373400Y-75539600D03*
X119329200Y-76809600D03*
X126492000Y-69977000D03*
X130835400Y-72618600D03*
X107594400Y-80594200D03*
X106349800Y-77901800D03*
X86207600Y-71145400D03*
X119507000Y-85039200D03*
X117830600Y-80162400D03*
X140792200Y-82905600D03*
X147904200Y-79095600D03*
X86156800Y-90195400D03*
X78003400Y-80645000D03*
X77952600Y-73202800D03*
X90322400Y-61087000D03*
X100406200Y-64897000D03*
X104444800Y-68910200D03*
X98526600Y-73025000D03*
X109270800Y-80543400D03*
X108305600Y-75285600D03*
X131165600Y-73507600D03*
X129108200Y-86283800D03*
X130708400Y-79425800D03*
X140538200Y-79044800D03*
X139471400Y-72796400D03*
X140258800Y-65582800D03*
X146227800Y-66268600D03*
X150825200Y-62077600D03*
X157911800Y-69697600D03*
X147599400Y-91998800D03*
X130556000Y-93091000D03*
X108788200Y-93141800D03*
X96164400Y-89408000D03*
X108788200Y-65049400D03*
X126415800Y-64897000D03*
X84861400Y-85547200D03*
X135110748Y-69162706D03*
X134797800Y-90093800D03*
X128311401Y-90140748D03*
X126542800Y-90881200D03*
X129997200Y-74320400D03*
D25*
X134432654Y-68484612D02*
X135110748Y-69162706D01*
X108712000Y-62484000D02*
X114712612Y-68484612D01*
X114712612Y-68484612D02*
X134432654Y-68484612D01*
X108965037Y-76565001D02*
X111260438Y-74269600D01*
X100838000Y-75438000D02*
X101965001Y-76565001D01*
X101965001Y-76565001D02*
X108965037Y-76565001D01*
X124856999Y-71770999D02*
X125984000Y-72898000D01*
X122141039Y-71770999D02*
X124856999Y-71770999D01*
X119642438Y-74269600D02*
X122141039Y-71770999D01*
X111260438Y-74269600D02*
X119642438Y-74269600D01*
X134731001Y-76565001D02*
X133604000Y-75438000D01*
X143113001Y-76565001D02*
X134731001Y-76565001D01*
X144526000Y-77978000D02*
X143113001Y-76565001D01*
X148259800Y-70832162D02*
X148259800Y-68630800D01*
X145066961Y-74025001D02*
X148259800Y-70832162D01*
X144271037Y-74025001D02*
X145066961Y-74025001D01*
X143113001Y-75183037D02*
X144271037Y-74025001D01*
X143113001Y-76565001D02*
X143113001Y-75183037D01*
X100838000Y-89772038D02*
X100838000Y-90678000D01*
X103599039Y-87010999D02*
X100838000Y-89772038D01*
X110632999Y-80832201D02*
X104454201Y-87010999D01*
X110632999Y-79105001D02*
X110632999Y-80832201D01*
X104454201Y-87010999D02*
X103599039Y-87010999D01*
X111760000Y-77978000D02*
X110632999Y-79105001D01*
X113934999Y-76850999D02*
X109321107Y-76850999D01*
X103599039Y-79105001D02*
X101345037Y-76850999D01*
X107067105Y-79105001D02*
X103599039Y-79105001D01*
X101345037Y-76850999D02*
X97170999Y-76850999D01*
X109321107Y-76850999D02*
X107067105Y-79105001D01*
X115062000Y-77978000D02*
X113934999Y-76850999D01*
X97170999Y-76850999D02*
X93218000Y-72898000D01*
X129997200Y-74320400D02*
X129987799Y-74310999D01*
X129987799Y-74310999D02*
X120285469Y-74310999D01*
X120285469Y-74310999D02*
X116618468Y-77978000D01*
X116618468Y-77978000D02*
X116193370Y-77978000D01*
X116193370Y-77978000D02*
X115062000Y-77978000D01*
X136794790Y-71732790D02*
X125460858Y-71732790D01*
X124902058Y-71173990D02*
X121681142Y-71173990D01*
X136906000Y-72898000D02*
X136906000Y-71844000D01*
X136906000Y-71844000D02*
X136794790Y-71732790D01*
X125460858Y-71732790D02*
X124902058Y-71173990D01*
X121122342Y-71732790D02*
X107845210Y-71732790D01*
X121681142Y-71173990D02*
X121122342Y-71732790D01*
X107845210Y-71732790D02*
X104939999Y-74638001D01*
X104939999Y-74638001D02*
X104140000Y-75438000D01*
X124856999Y-81930999D02*
X125984000Y-83058000D01*
X116189001Y-81930999D02*
X124856999Y-81930999D01*
X115062000Y-83058000D02*
X116189001Y-81930999D01*
X131936038Y-75438000D02*
X125984000Y-75438000D01*
X133063039Y-74310999D02*
X131936038Y-75438000D01*
X135778999Y-74310999D02*
X133063039Y-74310999D01*
X136906000Y-75438000D02*
X135778999Y-74310999D01*
X153233792Y-60692548D02*
X152565330Y-61044445D01*
X152524912Y-61071452D01*
X152164724Y-61561119D01*
X154686000Y-64082395D01*
X154700143Y-64068253D01*
X154879748Y-64247858D01*
X154865605Y-64262000D01*
X157386881Y-66783276D01*
X157876548Y-66423088D01*
X158236849Y-65759118D01*
X158319000Y-65494327D01*
X158319001Y-88678142D01*
X158255452Y-88463792D01*
X157903555Y-87795330D01*
X157876548Y-87754912D01*
X157386881Y-87394724D01*
X154865605Y-89916000D01*
X154879748Y-89930143D01*
X154700143Y-90109748D01*
X154686000Y-90095605D01*
X152164724Y-92616881D01*
X152524912Y-93106548D01*
X153188882Y-93466849D01*
X153453673Y-93549000D01*
X81247861Y-93549000D01*
X81462208Y-93485452D01*
X82130670Y-93133555D01*
X82171088Y-93106548D01*
X82531276Y-92616881D01*
X80010000Y-90095605D01*
X79995858Y-90109748D01*
X79816253Y-89930143D01*
X79830395Y-89916000D01*
X80189605Y-89916000D01*
X82710881Y-92437276D01*
X83200548Y-92077088D01*
X83560849Y-91413118D01*
X83784694Y-90691615D01*
X83863480Y-89940305D01*
X83794178Y-89188062D01*
X83579452Y-88463792D01*
X83227555Y-87795330D01*
X83200548Y-87754912D01*
X82710881Y-87394724D01*
X80189605Y-89916000D01*
X79830395Y-89916000D01*
X77309119Y-87394724D01*
X76819452Y-87754912D01*
X76459151Y-88418882D01*
X76377000Y-88683673D01*
X76377000Y-87215119D01*
X77488724Y-87215119D01*
X80010000Y-89736395D01*
X82531276Y-87215119D01*
X82171088Y-86725452D01*
X81507118Y-86365151D01*
X80785615Y-86141306D01*
X80034305Y-86062520D01*
X79282062Y-86131822D01*
X78557792Y-86346548D01*
X77889330Y-86698445D01*
X77848912Y-86725452D01*
X77488724Y-87215119D01*
X76377000Y-87215119D01*
X76377000Y-85031580D01*
X78762328Y-85031580D01*
X78774588Y-85156062D01*
X78810898Y-85275760D01*
X78869863Y-85386074D01*
X78949215Y-85482765D01*
X79045906Y-85562117D01*
X79156220Y-85621082D01*
X79275918Y-85657392D01*
X79400400Y-85669652D01*
X80714850Y-85666580D01*
X80873600Y-85507830D01*
X80873600Y-84074000D01*
X81127600Y-84074000D01*
X81127600Y-85507830D01*
X81286350Y-85666580D01*
X82600800Y-85669652D01*
X82725282Y-85657392D01*
X82844980Y-85621082D01*
X82955294Y-85562117D01*
X83051985Y-85482765D01*
X83131337Y-85386074D01*
X83190302Y-85275760D01*
X83226612Y-85156062D01*
X83238872Y-85031580D01*
X83235800Y-84232750D01*
X83077050Y-84074000D01*
X81127600Y-84074000D01*
X80873600Y-84074000D01*
X78924150Y-84074000D01*
X78765400Y-84232750D01*
X78762328Y-85031580D01*
X76377000Y-85031580D01*
X76377000Y-82862420D01*
X78762328Y-82862420D01*
X78765400Y-83661250D01*
X78924150Y-83820000D01*
X80873600Y-83820000D01*
X80873600Y-82386170D01*
X81127600Y-82386170D01*
X81127600Y-83820000D01*
X83077050Y-83820000D01*
X83235800Y-83661250D01*
X83238468Y-82967465D01*
X89090600Y-82967465D01*
X89090600Y-83250135D01*
X89145747Y-83527374D01*
X89253920Y-83788527D01*
X89410963Y-84023559D01*
X89610841Y-84223437D01*
X89845873Y-84380480D01*
X90107026Y-84488653D01*
X90384265Y-84543800D01*
X90666935Y-84543800D01*
X90944174Y-84488653D01*
X91205327Y-84380480D01*
X91440359Y-84223437D01*
X91640237Y-84023559D01*
X91797280Y-83788527D01*
X91882321Y-83583220D01*
X91946320Y-83737727D01*
X92103363Y-83972759D01*
X92303241Y-84172637D01*
X92535759Y-84328000D01*
X92303241Y-84483363D01*
X92103363Y-84683241D01*
X91946320Y-84918273D01*
X91838147Y-85179426D01*
X91783000Y-85456665D01*
X91783000Y-85739335D01*
X91838147Y-86016574D01*
X91946320Y-86277727D01*
X92103363Y-86512759D01*
X92303241Y-86712637D01*
X92535759Y-86868000D01*
X92303241Y-87023363D01*
X92103363Y-87223241D01*
X91946320Y-87458273D01*
X91838147Y-87719426D01*
X91783000Y-87996665D01*
X91783000Y-88279335D01*
X91838147Y-88556574D01*
X91946320Y-88817727D01*
X92103363Y-89052759D01*
X92303241Y-89252637D01*
X92538273Y-89409680D01*
X92548865Y-89414067D01*
X92362869Y-89525615D01*
X92154481Y-89714586D01*
X91986963Y-89940580D01*
X91866754Y-90194913D01*
X91862922Y-90207547D01*
X91797280Y-90049073D01*
X91640237Y-89814041D01*
X91440359Y-89614163D01*
X91205327Y-89457120D01*
X90944174Y-89348947D01*
X90666935Y-89293800D01*
X90384265Y-89293800D01*
X90107026Y-89348947D01*
X89845873Y-89457120D01*
X89610841Y-89614163D01*
X89410963Y-89814041D01*
X89253920Y-90049073D01*
X89145747Y-90310226D01*
X89090600Y-90587465D01*
X89090600Y-90870135D01*
X89145747Y-91147374D01*
X89253920Y-91408527D01*
X89410963Y-91643559D01*
X89610841Y-91843437D01*
X89845873Y-92000480D01*
X90107026Y-92108653D01*
X90384265Y-92163800D01*
X90666935Y-92163800D01*
X90944174Y-92108653D01*
X91205327Y-92000480D01*
X91440359Y-91843437D01*
X91640237Y-91643559D01*
X91797280Y-91408527D01*
X91884351Y-91198318D01*
X91986963Y-91415420D01*
X92154481Y-91641414D01*
X92362869Y-91830385D01*
X92604119Y-91975070D01*
X92868960Y-92069909D01*
X93091000Y-91948624D01*
X93091000Y-90805000D01*
X93345000Y-90805000D01*
X93345000Y-91948624D01*
X93567040Y-92069909D01*
X93831881Y-91975070D01*
X94073131Y-91830385D01*
X94281519Y-91641414D01*
X94449037Y-91415420D01*
X94569246Y-91161087D01*
X94609904Y-91027039D01*
X94487915Y-90805000D01*
X93345000Y-90805000D01*
X93091000Y-90805000D01*
X93071000Y-90805000D01*
X93071000Y-90551000D01*
X93091000Y-90551000D01*
X93091000Y-90531000D01*
X93345000Y-90531000D01*
X93345000Y-90551000D01*
X94487915Y-90551000D01*
X94609904Y-90328961D01*
X94569246Y-90194913D01*
X94449037Y-89940580D01*
X94281519Y-89714586D01*
X94073131Y-89525615D01*
X93887135Y-89414067D01*
X93897727Y-89409680D01*
X94132759Y-89252637D01*
X94332637Y-89052759D01*
X94489680Y-88817727D01*
X94597853Y-88556574D01*
X94653000Y-88279335D01*
X94653000Y-87996665D01*
X94597853Y-87719426D01*
X94489680Y-87458273D01*
X94332637Y-87223241D01*
X94132759Y-87023363D01*
X93900241Y-86868000D01*
X94132759Y-86712637D01*
X94332637Y-86512759D01*
X94489680Y-86277727D01*
X94597853Y-86016574D01*
X94653000Y-85739335D01*
X94653000Y-85456665D01*
X94597853Y-85179426D01*
X94489680Y-84918273D01*
X94332637Y-84683241D01*
X94132759Y-84483363D01*
X93900241Y-84328000D01*
X94132759Y-84172637D01*
X94332637Y-83972759D01*
X94489680Y-83737727D01*
X94597853Y-83476574D01*
X94653000Y-83199335D01*
X94653000Y-82916665D01*
X94597853Y-82639426D01*
X94489680Y-82378273D01*
X94332637Y-82143241D01*
X94132759Y-81943363D01*
X93900241Y-81788000D01*
X94132759Y-81632637D01*
X94332637Y-81432759D01*
X94489680Y-81197727D01*
X94597853Y-80936574D01*
X94653000Y-80659335D01*
X94653000Y-80376665D01*
X94597853Y-80099426D01*
X94489680Y-79838273D01*
X94332637Y-79603241D01*
X94132759Y-79403363D01*
X93900241Y-79248000D01*
X94132759Y-79092637D01*
X94332637Y-78892759D01*
X94489680Y-78657727D01*
X94597853Y-78396574D01*
X94653000Y-78119335D01*
X94653000Y-77836665D01*
X94597853Y-77559426D01*
X94489680Y-77298273D01*
X94332637Y-77063241D01*
X94132759Y-76863363D01*
X93900241Y-76708000D01*
X94132759Y-76552637D01*
X94332637Y-76352759D01*
X94489680Y-76117727D01*
X94597853Y-75856574D01*
X94653000Y-75579335D01*
X94653000Y-75410630D01*
X96605719Y-77363350D01*
X96629577Y-77392421D01*
X96658647Y-77416278D01*
X96745606Y-77487644D01*
X96816363Y-77525464D01*
X96877984Y-77558401D01*
X97021621Y-77601973D01*
X97133573Y-77612999D01*
X97133576Y-77612999D01*
X97170999Y-77616685D01*
X97208422Y-77612999D01*
X99447491Y-77612999D01*
X99403000Y-77836665D01*
X99403000Y-78119335D01*
X99458147Y-78396574D01*
X99566320Y-78657727D01*
X99723363Y-78892759D01*
X99923241Y-79092637D01*
X100155759Y-79248000D01*
X99923241Y-79403363D01*
X99723363Y-79603241D01*
X99566320Y-79838273D01*
X99458147Y-80099426D01*
X99403000Y-80376665D01*
X99403000Y-80659335D01*
X99458147Y-80936574D01*
X99566320Y-81197727D01*
X99723363Y-81432759D01*
X99923241Y-81632637D01*
X100155759Y-81788000D01*
X99923241Y-81943363D01*
X99723363Y-82143241D01*
X99566320Y-82378273D01*
X99458147Y-82639426D01*
X99403000Y-82916665D01*
X99403000Y-83199335D01*
X99458147Y-83476574D01*
X99566320Y-83737727D01*
X99723363Y-83972759D01*
X99923241Y-84172637D01*
X100155759Y-84328000D01*
X99923241Y-84483363D01*
X99723363Y-84683241D01*
X99566320Y-84918273D01*
X99458147Y-85179426D01*
X99403000Y-85456665D01*
X99403000Y-85739335D01*
X99458147Y-86016574D01*
X99566320Y-86277727D01*
X99723363Y-86512759D01*
X99923241Y-86712637D01*
X100155759Y-86868000D01*
X99923241Y-87023363D01*
X99723363Y-87223241D01*
X99566320Y-87458273D01*
X99458147Y-87719426D01*
X99403000Y-87996665D01*
X99403000Y-88279335D01*
X99458147Y-88556574D01*
X99566320Y-88817727D01*
X99723363Y-89052759D01*
X99923241Y-89252637D01*
X100155759Y-89408000D01*
X99923241Y-89563363D01*
X99723363Y-89763241D01*
X99566320Y-89998273D01*
X99458147Y-90259426D01*
X99403000Y-90536665D01*
X99403000Y-90819335D01*
X99458147Y-91096574D01*
X99566320Y-91357727D01*
X99723363Y-91592759D01*
X99923241Y-91792637D01*
X100158273Y-91949680D01*
X100419426Y-92057853D01*
X100696665Y-92113000D01*
X100979335Y-92113000D01*
X101256574Y-92057853D01*
X101517727Y-91949680D01*
X101752759Y-91792637D01*
X101952637Y-91592759D01*
X102109680Y-91357727D01*
X102217853Y-91096574D01*
X102231684Y-91027039D01*
X102748096Y-91027039D01*
X102788754Y-91161087D01*
X102908963Y-91415420D01*
X103076481Y-91641414D01*
X103284869Y-91830385D01*
X103526119Y-91975070D01*
X103790960Y-92069909D01*
X104013000Y-91948624D01*
X104013000Y-90805000D01*
X104267000Y-90805000D01*
X104267000Y-91948624D01*
X104489040Y-92069909D01*
X104753881Y-91975070D01*
X104995131Y-91830385D01*
X105203519Y-91641414D01*
X105371037Y-91415420D01*
X105491246Y-91161087D01*
X105531904Y-91027039D01*
X105409915Y-90805000D01*
X104267000Y-90805000D01*
X104013000Y-90805000D01*
X102870085Y-90805000D01*
X102748096Y-91027039D01*
X102231684Y-91027039D01*
X102273000Y-90819335D01*
X102273000Y-90536665D01*
X102217853Y-90259426D01*
X102109680Y-89998273D01*
X101952637Y-89763241D01*
X101938532Y-89749136D01*
X102868969Y-88818699D01*
X103025363Y-89052759D01*
X103225241Y-89252637D01*
X103460273Y-89409680D01*
X103470865Y-89414067D01*
X103284869Y-89525615D01*
X103076481Y-89714586D01*
X102908963Y-89940580D01*
X102788754Y-90194913D01*
X102748096Y-90328961D01*
X102870085Y-90551000D01*
X104013000Y-90551000D01*
X104013000Y-90531000D01*
X104267000Y-90531000D01*
X104267000Y-90551000D01*
X105409915Y-90551000D01*
X105531904Y-90328961D01*
X105491246Y-90194913D01*
X105371037Y-89940580D01*
X105203519Y-89714586D01*
X104995131Y-89525615D01*
X104809135Y-89414067D01*
X104819727Y-89409680D01*
X105054759Y-89252637D01*
X105254637Y-89052759D01*
X105411680Y-88817727D01*
X105519853Y-88556574D01*
X105575000Y-88279335D01*
X105575000Y-87996665D01*
X105519853Y-87719426D01*
X105411680Y-87458273D01*
X105280653Y-87262177D01*
X110884177Y-81658653D01*
X111077759Y-81788000D01*
X110845241Y-81943363D01*
X110645363Y-82143241D01*
X110488320Y-82378273D01*
X110380147Y-82639426D01*
X110325000Y-82916665D01*
X110325000Y-83199335D01*
X110380147Y-83476574D01*
X110488320Y-83737727D01*
X110645363Y-83972759D01*
X110845241Y-84172637D01*
X111077759Y-84328000D01*
X110845241Y-84483363D01*
X110645363Y-84683241D01*
X110488320Y-84918273D01*
X110380147Y-85179426D01*
X110325000Y-85456665D01*
X110325000Y-85739335D01*
X110380147Y-86016574D01*
X110488320Y-86277727D01*
X110645363Y-86512759D01*
X110845241Y-86712637D01*
X111077759Y-86868000D01*
X110845241Y-87023363D01*
X110645363Y-87223241D01*
X110488320Y-87458273D01*
X110380147Y-87719426D01*
X110325000Y-87996665D01*
X110325000Y-88279335D01*
X110380147Y-88556574D01*
X110488320Y-88817727D01*
X110645363Y-89052759D01*
X110845241Y-89252637D01*
X111077759Y-89408000D01*
X110845241Y-89563363D01*
X110645363Y-89763241D01*
X110488320Y-89998273D01*
X110380147Y-90259426D01*
X110325000Y-90536665D01*
X110325000Y-90819335D01*
X110380147Y-91096574D01*
X110488320Y-91357727D01*
X110645363Y-91592759D01*
X110845241Y-91792637D01*
X111080273Y-91949680D01*
X111341426Y-92057853D01*
X111618665Y-92113000D01*
X111901335Y-92113000D01*
X112178574Y-92057853D01*
X112439727Y-91949680D01*
X112674759Y-91792637D01*
X112874637Y-91592759D01*
X113031680Y-91357727D01*
X113139853Y-91096574D01*
X113195000Y-90819335D01*
X113195000Y-90779261D01*
X125507800Y-90779261D01*
X125507800Y-90983139D01*
X125547574Y-91183098D01*
X125625595Y-91371456D01*
X125738863Y-91540974D01*
X125883026Y-91685137D01*
X126052544Y-91798405D01*
X126240902Y-91876426D01*
X126440861Y-91916200D01*
X126644739Y-91916200D01*
X126844698Y-91876426D01*
X127033056Y-91798405D01*
X127202574Y-91685137D01*
X127346737Y-91540974D01*
X127460005Y-91371456D01*
X127538026Y-91183098D01*
X127577800Y-90983139D01*
X127577800Y-90870858D01*
X127651627Y-90944685D01*
X127821145Y-91057953D01*
X128009503Y-91135974D01*
X128209462Y-91175748D01*
X128413340Y-91175748D01*
X128613299Y-91135974D01*
X128801657Y-91057953D01*
X128971175Y-90944685D01*
X129115338Y-90800522D01*
X129228606Y-90631004D01*
X129306627Y-90442646D01*
X129346401Y-90242687D01*
X129346401Y-90038809D01*
X129306627Y-89838850D01*
X129228606Y-89650492D01*
X129115338Y-89480974D01*
X128971175Y-89336811D01*
X128801657Y-89223543D01*
X128613299Y-89145522D01*
X128413340Y-89105748D01*
X128209462Y-89105748D01*
X128009503Y-89145522D01*
X127821145Y-89223543D01*
X127651627Y-89336811D01*
X127507464Y-89480974D01*
X127394196Y-89650492D01*
X127316175Y-89838850D01*
X127276401Y-90038809D01*
X127276401Y-90151090D01*
X127202574Y-90077263D01*
X127033056Y-89963995D01*
X126844698Y-89885974D01*
X126644739Y-89846200D01*
X126440861Y-89846200D01*
X126240902Y-89885974D01*
X126052544Y-89963995D01*
X125883026Y-90077263D01*
X125738863Y-90221426D01*
X125625595Y-90390944D01*
X125547574Y-90579302D01*
X125507800Y-90779261D01*
X113195000Y-90779261D01*
X113195000Y-90536665D01*
X113139853Y-90259426D01*
X113031680Y-89998273D01*
X112874637Y-89763241D01*
X112674759Y-89563363D01*
X112442241Y-89408000D01*
X112674759Y-89252637D01*
X112874637Y-89052759D01*
X113031680Y-88817727D01*
X113139853Y-88556574D01*
X113153684Y-88487039D01*
X113670096Y-88487039D01*
X113710754Y-88621087D01*
X113830963Y-88875420D01*
X113998481Y-89101414D01*
X114206869Y-89290385D01*
X114448119Y-89435070D01*
X114712960Y-89529909D01*
X114935000Y-89408624D01*
X114935000Y-88265000D01*
X115189000Y-88265000D01*
X115189000Y-89408624D01*
X115411040Y-89529909D01*
X115675881Y-89435070D01*
X115917131Y-89290385D01*
X116125519Y-89101414D01*
X116293037Y-88875420D01*
X116413246Y-88621087D01*
X116453904Y-88487039D01*
X116331915Y-88265000D01*
X115189000Y-88265000D01*
X114935000Y-88265000D01*
X113792085Y-88265000D01*
X113670096Y-88487039D01*
X113153684Y-88487039D01*
X113195000Y-88279335D01*
X113195000Y-87996665D01*
X113139853Y-87719426D01*
X113031680Y-87458273D01*
X112874637Y-87223241D01*
X112674759Y-87023363D01*
X112442241Y-86868000D01*
X112674759Y-86712637D01*
X112874637Y-86512759D01*
X113031680Y-86277727D01*
X113139853Y-86016574D01*
X113195000Y-85739335D01*
X113195000Y-85456665D01*
X113139853Y-85179426D01*
X113031680Y-84918273D01*
X112874637Y-84683241D01*
X112674759Y-84483363D01*
X112442241Y-84328000D01*
X112674759Y-84172637D01*
X112874637Y-83972759D01*
X113031680Y-83737727D01*
X113139853Y-83476574D01*
X113195000Y-83199335D01*
X113195000Y-82916665D01*
X113139853Y-82639426D01*
X113031680Y-82378273D01*
X112874637Y-82143241D01*
X112674759Y-81943363D01*
X112442241Y-81788000D01*
X112674759Y-81632637D01*
X112874637Y-81432759D01*
X113031680Y-81197727D01*
X113139853Y-80936574D01*
X113195000Y-80659335D01*
X113195000Y-80376665D01*
X113139853Y-80099426D01*
X113031680Y-79838273D01*
X112874637Y-79603241D01*
X112674759Y-79403363D01*
X112442241Y-79248000D01*
X112674759Y-79092637D01*
X112874637Y-78892759D01*
X113031680Y-78657727D01*
X113139853Y-78396574D01*
X113195000Y-78119335D01*
X113195000Y-77836665D01*
X113150509Y-77612999D01*
X113619369Y-77612999D01*
X113662843Y-77656473D01*
X113627000Y-77836665D01*
X113627000Y-78119335D01*
X113682147Y-78396574D01*
X113790320Y-78657727D01*
X113947363Y-78892759D01*
X114147241Y-79092637D01*
X114379759Y-79248000D01*
X114147241Y-79403363D01*
X113947363Y-79603241D01*
X113790320Y-79838273D01*
X113682147Y-80099426D01*
X113627000Y-80376665D01*
X113627000Y-80659335D01*
X113682147Y-80936574D01*
X113790320Y-81197727D01*
X113947363Y-81432759D01*
X114147241Y-81632637D01*
X114379759Y-81788000D01*
X114147241Y-81943363D01*
X113947363Y-82143241D01*
X113790320Y-82378273D01*
X113682147Y-82639426D01*
X113627000Y-82916665D01*
X113627000Y-83199335D01*
X113682147Y-83476574D01*
X113790320Y-83737727D01*
X113947363Y-83972759D01*
X114147241Y-84172637D01*
X114379759Y-84328000D01*
X114147241Y-84483363D01*
X113947363Y-84683241D01*
X113790320Y-84918273D01*
X113682147Y-85179426D01*
X113627000Y-85456665D01*
X113627000Y-85739335D01*
X113682147Y-86016574D01*
X113790320Y-86277727D01*
X113947363Y-86512759D01*
X114147241Y-86712637D01*
X114382273Y-86869680D01*
X114392865Y-86874067D01*
X114206869Y-86985615D01*
X113998481Y-87174586D01*
X113830963Y-87400580D01*
X113710754Y-87654913D01*
X113670096Y-87788961D01*
X113792085Y-88011000D01*
X114935000Y-88011000D01*
X114935000Y-87991000D01*
X115189000Y-87991000D01*
X115189000Y-88011000D01*
X116331915Y-88011000D01*
X116453904Y-87788961D01*
X116413246Y-87654913D01*
X116293037Y-87400580D01*
X116125519Y-87174586D01*
X115917131Y-86985615D01*
X115731135Y-86874067D01*
X115741727Y-86869680D01*
X115976759Y-86712637D01*
X116176637Y-86512759D01*
X116333680Y-86277727D01*
X116441853Y-86016574D01*
X116497000Y-85739335D01*
X116497000Y-85456665D01*
X116441853Y-85179426D01*
X116333680Y-84918273D01*
X116176637Y-84683241D01*
X115976759Y-84483363D01*
X115744241Y-84328000D01*
X115976759Y-84172637D01*
X116176637Y-83972759D01*
X116333680Y-83737727D01*
X116441853Y-83476574D01*
X116497000Y-83199335D01*
X116497000Y-82916665D01*
X116461157Y-82736474D01*
X116504632Y-82692999D01*
X121291491Y-82692999D01*
X121247000Y-82916665D01*
X121247000Y-83199335D01*
X121302147Y-83476574D01*
X121410320Y-83737727D01*
X121567363Y-83972759D01*
X121767241Y-84172637D01*
X121999759Y-84328000D01*
X121767241Y-84483363D01*
X121567363Y-84683241D01*
X121410320Y-84918273D01*
X121302147Y-85179426D01*
X121247000Y-85456665D01*
X121247000Y-85739335D01*
X121302147Y-86016574D01*
X121410320Y-86277727D01*
X121567363Y-86512759D01*
X121767241Y-86712637D01*
X121999759Y-86868000D01*
X121767241Y-87023363D01*
X121567363Y-87223241D01*
X121410320Y-87458273D01*
X121302147Y-87719426D01*
X121247000Y-87996665D01*
X121247000Y-88279335D01*
X121302147Y-88556574D01*
X121410320Y-88817727D01*
X121567363Y-89052759D01*
X121767241Y-89252637D01*
X122002273Y-89409680D01*
X122263426Y-89517853D01*
X122540665Y-89573000D01*
X122823335Y-89573000D01*
X123100574Y-89517853D01*
X123361727Y-89409680D01*
X123596759Y-89252637D01*
X123796637Y-89052759D01*
X123953680Y-88817727D01*
X124061853Y-88556574D01*
X124075684Y-88487039D01*
X124592096Y-88487039D01*
X124632754Y-88621087D01*
X124752963Y-88875420D01*
X124920481Y-89101414D01*
X125128869Y-89290385D01*
X125370119Y-89435070D01*
X125634960Y-89529909D01*
X125857000Y-89408624D01*
X125857000Y-88265000D01*
X126111000Y-88265000D01*
X126111000Y-89408624D01*
X126333040Y-89529909D01*
X126597881Y-89435070D01*
X126839131Y-89290385D01*
X127047519Y-89101414D01*
X127215037Y-88875420D01*
X127335246Y-88621087D01*
X127375904Y-88487039D01*
X127253915Y-88265000D01*
X126111000Y-88265000D01*
X125857000Y-88265000D01*
X124714085Y-88265000D01*
X124592096Y-88487039D01*
X124075684Y-88487039D01*
X124117000Y-88279335D01*
X124117000Y-87996665D01*
X124061853Y-87719426D01*
X123953680Y-87458273D01*
X123796637Y-87223241D01*
X123596759Y-87023363D01*
X123364241Y-86868000D01*
X123596759Y-86712637D01*
X123796637Y-86512759D01*
X123953680Y-86277727D01*
X124061853Y-86016574D01*
X124117000Y-85739335D01*
X124117000Y-85456665D01*
X124061853Y-85179426D01*
X123953680Y-84918273D01*
X123796637Y-84683241D01*
X123596759Y-84483363D01*
X123364241Y-84328000D01*
X123596759Y-84172637D01*
X123796637Y-83972759D01*
X123953680Y-83737727D01*
X124061853Y-83476574D01*
X124117000Y-83199335D01*
X124117000Y-82916665D01*
X124072509Y-82692999D01*
X124541369Y-82692999D01*
X124584843Y-82736473D01*
X124549000Y-82916665D01*
X124549000Y-83199335D01*
X124604147Y-83476574D01*
X124712320Y-83737727D01*
X124869363Y-83972759D01*
X125069241Y-84172637D01*
X125301759Y-84328000D01*
X125069241Y-84483363D01*
X124869363Y-84683241D01*
X124712320Y-84918273D01*
X124604147Y-85179426D01*
X124549000Y-85456665D01*
X124549000Y-85739335D01*
X124604147Y-86016574D01*
X124712320Y-86277727D01*
X124869363Y-86512759D01*
X125069241Y-86712637D01*
X125304273Y-86869680D01*
X125314865Y-86874067D01*
X125128869Y-86985615D01*
X124920481Y-87174586D01*
X124752963Y-87400580D01*
X124632754Y-87654913D01*
X124592096Y-87788961D01*
X124714085Y-88011000D01*
X125857000Y-88011000D01*
X125857000Y-87991000D01*
X126111000Y-87991000D01*
X126111000Y-88011000D01*
X127253915Y-88011000D01*
X127375904Y-87788961D01*
X127335246Y-87654913D01*
X127215037Y-87400580D01*
X127047519Y-87174586D01*
X126839131Y-86985615D01*
X126653135Y-86874067D01*
X126663727Y-86869680D01*
X126898759Y-86712637D01*
X127098637Y-86512759D01*
X127255680Y-86277727D01*
X127363853Y-86016574D01*
X127419000Y-85739335D01*
X127419000Y-85456665D01*
X127363853Y-85179426D01*
X127255680Y-84918273D01*
X127098637Y-84683241D01*
X126898759Y-84483363D01*
X126666241Y-84328000D01*
X126898759Y-84172637D01*
X127098637Y-83972759D01*
X127255680Y-83737727D01*
X127363853Y-83476574D01*
X127419000Y-83199335D01*
X127419000Y-82916665D01*
X127363853Y-82639426D01*
X127255680Y-82378273D01*
X127098637Y-82143241D01*
X126898759Y-81943363D01*
X126666241Y-81788000D01*
X126898759Y-81632637D01*
X127098637Y-81432759D01*
X127255680Y-81197727D01*
X127363853Y-80936574D01*
X127419000Y-80659335D01*
X127419000Y-80376665D01*
X127363853Y-80099426D01*
X127255680Y-79838273D01*
X127098637Y-79603241D01*
X126898759Y-79403363D01*
X126666241Y-79248000D01*
X126898759Y-79092637D01*
X127098637Y-78892759D01*
X127255680Y-78657727D01*
X127363853Y-78396574D01*
X127419000Y-78119335D01*
X127419000Y-77836665D01*
X127363853Y-77559426D01*
X127255680Y-77298273D01*
X127098637Y-77063241D01*
X126898759Y-76863363D01*
X126666241Y-76708000D01*
X126898759Y-76552637D01*
X127098637Y-76352759D01*
X127200707Y-76200000D01*
X131898615Y-76200000D01*
X131936038Y-76203686D01*
X131973461Y-76200000D01*
X131973464Y-76200000D01*
X132085416Y-76188974D01*
X132229053Y-76145402D01*
X132322986Y-76095194D01*
X132332320Y-76117727D01*
X132489363Y-76352759D01*
X132689241Y-76552637D01*
X132921759Y-76708000D01*
X132689241Y-76863363D01*
X132489363Y-77063241D01*
X132332320Y-77298273D01*
X132224147Y-77559426D01*
X132169000Y-77836665D01*
X132169000Y-78119335D01*
X132224147Y-78396574D01*
X132332320Y-78657727D01*
X132489363Y-78892759D01*
X132689241Y-79092637D01*
X132921759Y-79248000D01*
X132689241Y-79403363D01*
X132489363Y-79603241D01*
X132332320Y-79838273D01*
X132224147Y-80099426D01*
X132169000Y-80376665D01*
X132169000Y-80659335D01*
X132224147Y-80936574D01*
X132332320Y-81197727D01*
X132489363Y-81432759D01*
X132689241Y-81632637D01*
X132921759Y-81788000D01*
X132689241Y-81943363D01*
X132489363Y-82143241D01*
X132332320Y-82378273D01*
X132224147Y-82639426D01*
X132169000Y-82916665D01*
X132169000Y-83199335D01*
X132224147Y-83476574D01*
X132332320Y-83737727D01*
X132489363Y-83972759D01*
X132689241Y-84172637D01*
X132921759Y-84328000D01*
X132689241Y-84483363D01*
X132489363Y-84683241D01*
X132332320Y-84918273D01*
X132224147Y-85179426D01*
X132169000Y-85456665D01*
X132169000Y-85739335D01*
X132224147Y-86016574D01*
X132332320Y-86277727D01*
X132489363Y-86512759D01*
X132689241Y-86712637D01*
X132921759Y-86868000D01*
X132689241Y-87023363D01*
X132489363Y-87223241D01*
X132332320Y-87458273D01*
X132224147Y-87719426D01*
X132169000Y-87996665D01*
X132169000Y-88279335D01*
X132224147Y-88556574D01*
X132332320Y-88817727D01*
X132489363Y-89052759D01*
X132689241Y-89252637D01*
X132924273Y-89409680D01*
X133185426Y-89517853D01*
X133462665Y-89573000D01*
X133745335Y-89573000D01*
X133924865Y-89537289D01*
X133880595Y-89603544D01*
X133802574Y-89791902D01*
X133762800Y-89991861D01*
X133762800Y-90195739D01*
X133802574Y-90395698D01*
X133880595Y-90584056D01*
X133993863Y-90753574D01*
X134138026Y-90897737D01*
X134307544Y-91011005D01*
X134495902Y-91089026D01*
X134695861Y-91128800D01*
X134899739Y-91128800D01*
X135099698Y-91089026D01*
X135288056Y-91011005D01*
X135457574Y-90897737D01*
X135601737Y-90753574D01*
X135715005Y-90584056D01*
X135793026Y-90395698D01*
X135832800Y-90195739D01*
X135832800Y-89991861D01*
X135812876Y-89891695D01*
X150832520Y-89891695D01*
X150901822Y-90643938D01*
X151116548Y-91368208D01*
X151468445Y-92036670D01*
X151495452Y-92077088D01*
X151985119Y-92437276D01*
X154506395Y-89916000D01*
X151985119Y-87394724D01*
X151495452Y-87754912D01*
X151135151Y-88418882D01*
X150911306Y-89140385D01*
X150832520Y-89891695D01*
X135812876Y-89891695D01*
X135793026Y-89791902D01*
X135715005Y-89603544D01*
X135601737Y-89434026D01*
X135457574Y-89289863D01*
X135288056Y-89176595D01*
X135099698Y-89098574D01*
X134899739Y-89058800D01*
X134712596Y-89058800D01*
X134718637Y-89052759D01*
X134875680Y-88817727D01*
X134983853Y-88556574D01*
X134997684Y-88487039D01*
X135514096Y-88487039D01*
X135554754Y-88621087D01*
X135674963Y-88875420D01*
X135842481Y-89101414D01*
X136050869Y-89290385D01*
X136292119Y-89435070D01*
X136556960Y-89529909D01*
X136779000Y-89408624D01*
X136779000Y-88265000D01*
X137033000Y-88265000D01*
X137033000Y-89408624D01*
X137255040Y-89529909D01*
X137519881Y-89435070D01*
X137761131Y-89290385D01*
X137969519Y-89101414D01*
X138137037Y-88875420D01*
X138257246Y-88621087D01*
X138297904Y-88487039D01*
X138175915Y-88265000D01*
X137033000Y-88265000D01*
X136779000Y-88265000D01*
X135636085Y-88265000D01*
X135514096Y-88487039D01*
X134997684Y-88487039D01*
X135039000Y-88279335D01*
X135039000Y-87996665D01*
X134983853Y-87719426D01*
X134875680Y-87458273D01*
X134718637Y-87223241D01*
X134518759Y-87023363D01*
X134286241Y-86868000D01*
X134518759Y-86712637D01*
X134718637Y-86512759D01*
X134875680Y-86277727D01*
X134983853Y-86016574D01*
X135039000Y-85739335D01*
X135039000Y-85456665D01*
X134983853Y-85179426D01*
X134875680Y-84918273D01*
X134718637Y-84683241D01*
X134518759Y-84483363D01*
X134286241Y-84328000D01*
X134518759Y-84172637D01*
X134718637Y-83972759D01*
X134875680Y-83737727D01*
X134983853Y-83476574D01*
X135039000Y-83199335D01*
X135039000Y-82916665D01*
X134983853Y-82639426D01*
X134875680Y-82378273D01*
X134718637Y-82143241D01*
X134518759Y-81943363D01*
X134286241Y-81788000D01*
X134518759Y-81632637D01*
X134718637Y-81432759D01*
X134875680Y-81197727D01*
X134983853Y-80936574D01*
X135039000Y-80659335D01*
X135039000Y-80376665D01*
X134983853Y-80099426D01*
X134875680Y-79838273D01*
X134718637Y-79603241D01*
X134518759Y-79403363D01*
X134286241Y-79248000D01*
X134518759Y-79092637D01*
X134718637Y-78892759D01*
X134875680Y-78657727D01*
X134983853Y-78396574D01*
X135039000Y-78119335D01*
X135039000Y-77836665D01*
X134983853Y-77559426D01*
X134887580Y-77327001D01*
X135622420Y-77327001D01*
X135526147Y-77559426D01*
X135471000Y-77836665D01*
X135471000Y-78119335D01*
X135526147Y-78396574D01*
X135634320Y-78657727D01*
X135791363Y-78892759D01*
X135991241Y-79092637D01*
X136223759Y-79248000D01*
X135991241Y-79403363D01*
X135791363Y-79603241D01*
X135634320Y-79838273D01*
X135526147Y-80099426D01*
X135471000Y-80376665D01*
X135471000Y-80659335D01*
X135526147Y-80936574D01*
X135634320Y-81197727D01*
X135791363Y-81432759D01*
X135991241Y-81632637D01*
X136223759Y-81788000D01*
X135991241Y-81943363D01*
X135791363Y-82143241D01*
X135634320Y-82378273D01*
X135526147Y-82639426D01*
X135471000Y-82916665D01*
X135471000Y-83199335D01*
X135526147Y-83476574D01*
X135634320Y-83737727D01*
X135791363Y-83972759D01*
X135991241Y-84172637D01*
X136223759Y-84328000D01*
X135991241Y-84483363D01*
X135791363Y-84683241D01*
X135634320Y-84918273D01*
X135526147Y-85179426D01*
X135471000Y-85456665D01*
X135471000Y-85739335D01*
X135526147Y-86016574D01*
X135634320Y-86277727D01*
X135791363Y-86512759D01*
X135991241Y-86712637D01*
X136226273Y-86869680D01*
X136236865Y-86874067D01*
X136050869Y-86985615D01*
X135842481Y-87174586D01*
X135674963Y-87400580D01*
X135554754Y-87654913D01*
X135514096Y-87788961D01*
X135636085Y-88011000D01*
X136779000Y-88011000D01*
X136779000Y-87991000D01*
X137033000Y-87991000D01*
X137033000Y-88011000D01*
X138175915Y-88011000D01*
X138297904Y-87788961D01*
X138257246Y-87654913D01*
X138137037Y-87400580D01*
X137969519Y-87174586D01*
X137761131Y-86985615D01*
X137575135Y-86874067D01*
X137585727Y-86869680D01*
X137820759Y-86712637D01*
X138020637Y-86512759D01*
X138177680Y-86277727D01*
X138285853Y-86016574D01*
X138341000Y-85739335D01*
X138341000Y-85456665D01*
X138285853Y-85179426D01*
X138177680Y-84918273D01*
X138020637Y-84683241D01*
X137820759Y-84483363D01*
X137588241Y-84328000D01*
X137820759Y-84172637D01*
X138020637Y-83972759D01*
X138177680Y-83737727D01*
X138285853Y-83476574D01*
X138341000Y-83199335D01*
X138341000Y-82916665D01*
X138285853Y-82639426D01*
X138177680Y-82378273D01*
X138020637Y-82143241D01*
X137820759Y-81943363D01*
X137588241Y-81788000D01*
X137820759Y-81632637D01*
X138020637Y-81432759D01*
X138177680Y-81197727D01*
X138285853Y-80936574D01*
X138341000Y-80659335D01*
X138341000Y-80376665D01*
X138285853Y-80099426D01*
X138177680Y-79838273D01*
X138020637Y-79603241D01*
X137820759Y-79403363D01*
X137588241Y-79248000D01*
X137820759Y-79092637D01*
X138020637Y-78892759D01*
X138177680Y-78657727D01*
X138285853Y-78396574D01*
X138341000Y-78119335D01*
X138341000Y-77836665D01*
X138285853Y-77559426D01*
X138189580Y-77327001D01*
X142797371Y-77327001D01*
X143126843Y-77656473D01*
X143091000Y-77836665D01*
X143091000Y-78119335D01*
X143146147Y-78396574D01*
X143254320Y-78657727D01*
X143411363Y-78892759D01*
X143611241Y-79092637D01*
X143843759Y-79248000D01*
X143611241Y-79403363D01*
X143411363Y-79603241D01*
X143254320Y-79838273D01*
X143146147Y-80099426D01*
X143091000Y-80376665D01*
X143091000Y-80659335D01*
X143146147Y-80936574D01*
X143254320Y-81197727D01*
X143411363Y-81432759D01*
X143611241Y-81632637D01*
X143843759Y-81788000D01*
X143611241Y-81943363D01*
X143411363Y-82143241D01*
X143254320Y-82378273D01*
X143146147Y-82639426D01*
X143091000Y-82916665D01*
X143091000Y-83199335D01*
X143146147Y-83476574D01*
X143254320Y-83737727D01*
X143411363Y-83972759D01*
X143611241Y-84172637D01*
X143843759Y-84328000D01*
X143611241Y-84483363D01*
X143411363Y-84683241D01*
X143254320Y-84918273D01*
X143146147Y-85179426D01*
X143091000Y-85456665D01*
X143091000Y-85739335D01*
X143146147Y-86016574D01*
X143254320Y-86277727D01*
X143411363Y-86512759D01*
X143611241Y-86712637D01*
X143843759Y-86868000D01*
X143611241Y-87023363D01*
X143411363Y-87223241D01*
X143254320Y-87458273D01*
X143146147Y-87719426D01*
X143091000Y-87996665D01*
X143091000Y-88279335D01*
X143146147Y-88556574D01*
X143254320Y-88817727D01*
X143411363Y-89052759D01*
X143611241Y-89252637D01*
X143846273Y-89409680D01*
X144107426Y-89517853D01*
X144384665Y-89573000D01*
X144667335Y-89573000D01*
X144944574Y-89517853D01*
X145205727Y-89409680D01*
X145440759Y-89252637D01*
X145640637Y-89052759D01*
X145797680Y-88817727D01*
X145905853Y-88556574D01*
X145961000Y-88279335D01*
X145961000Y-87996665D01*
X145905853Y-87719426D01*
X145797680Y-87458273D01*
X145640637Y-87223241D01*
X145440759Y-87023363D01*
X145273675Y-86911721D01*
X146277200Y-86911721D01*
X146277200Y-87332279D01*
X146359247Y-87744756D01*
X146520188Y-88133302D01*
X146753837Y-88482983D01*
X147051217Y-88780363D01*
X147400898Y-89014012D01*
X147789444Y-89174953D01*
X148201921Y-89257000D01*
X148622479Y-89257000D01*
X149034956Y-89174953D01*
X149423502Y-89014012D01*
X149773183Y-88780363D01*
X150070563Y-88482983D01*
X150304212Y-88133302D01*
X150465153Y-87744756D01*
X150547200Y-87332279D01*
X150547200Y-87215119D01*
X152164724Y-87215119D01*
X154686000Y-89736395D01*
X157207276Y-87215119D01*
X156847088Y-86725452D01*
X156183118Y-86365151D01*
X155461615Y-86141306D01*
X154710305Y-86062520D01*
X153958062Y-86131822D01*
X153233792Y-86346548D01*
X152565330Y-86698445D01*
X152524912Y-86725452D01*
X152164724Y-87215119D01*
X150547200Y-87215119D01*
X150547200Y-86911721D01*
X150465153Y-86499244D01*
X150304212Y-86110698D01*
X150070563Y-85761017D01*
X149773183Y-85463637D01*
X149423502Y-85229988D01*
X149034956Y-85069047D01*
X148622479Y-84987000D01*
X148201921Y-84987000D01*
X147789444Y-85069047D01*
X147400898Y-85229988D01*
X147051217Y-85463637D01*
X146753837Y-85761017D01*
X146520188Y-86110698D01*
X146359247Y-86499244D01*
X146277200Y-86911721D01*
X145273675Y-86911721D01*
X145208241Y-86868000D01*
X145440759Y-86712637D01*
X145640637Y-86512759D01*
X145797680Y-86277727D01*
X145905853Y-86016574D01*
X145961000Y-85739335D01*
X145961000Y-85456665D01*
X145905853Y-85179426D01*
X145797680Y-84918273D01*
X145640637Y-84683241D01*
X145440759Y-84483363D01*
X145208241Y-84328000D01*
X145440759Y-84172637D01*
X145640637Y-83972759D01*
X145797680Y-83737727D01*
X145905853Y-83476574D01*
X145961000Y-83199335D01*
X145961000Y-82916665D01*
X145905853Y-82639426D01*
X145797680Y-82378273D01*
X145640637Y-82143241D01*
X145440759Y-81943363D01*
X145208241Y-81788000D01*
X145440759Y-81632637D01*
X145640637Y-81432759D01*
X145797680Y-81197727D01*
X145834383Y-81109117D01*
X147109000Y-81109117D01*
X147109000Y-81450883D01*
X147175675Y-81786081D01*
X147306463Y-82101831D01*
X147496337Y-82385998D01*
X147738002Y-82627663D01*
X148022169Y-82817537D01*
X148337919Y-82948325D01*
X148673117Y-83015000D01*
X149014883Y-83015000D01*
X149350081Y-82948325D01*
X149665831Y-82817537D01*
X149949998Y-82627663D01*
X150191663Y-82385998D01*
X150381537Y-82101831D01*
X150512325Y-81786081D01*
X150579000Y-81450883D01*
X150579000Y-81109117D01*
X150512325Y-80773919D01*
X150381537Y-80458169D01*
X150195671Y-80180000D01*
X154725928Y-80180000D01*
X154725928Y-82380000D01*
X154738188Y-82504482D01*
X154774498Y-82624180D01*
X154833463Y-82734494D01*
X154912815Y-82831185D01*
X155009506Y-82910537D01*
X155119820Y-82969502D01*
X155239518Y-83005812D01*
X155364000Y-83018072D01*
X157564000Y-83018072D01*
X157688482Y-83005812D01*
X157808180Y-82969502D01*
X157918494Y-82910537D01*
X158015185Y-82831185D01*
X158094537Y-82734494D01*
X158153502Y-82624180D01*
X158189812Y-82504482D01*
X158202072Y-82380000D01*
X158202072Y-80180000D01*
X158189812Y-80055518D01*
X158153502Y-79935820D01*
X158094537Y-79825506D01*
X158015185Y-79728815D01*
X157918494Y-79649463D01*
X157808180Y-79590498D01*
X157688482Y-79554188D01*
X157564000Y-79541928D01*
X155364000Y-79541928D01*
X155239518Y-79554188D01*
X155119820Y-79590498D01*
X155009506Y-79649463D01*
X154912815Y-79728815D01*
X154833463Y-79825506D01*
X154774498Y-79935820D01*
X154738188Y-80055518D01*
X154725928Y-80180000D01*
X150195671Y-80180000D01*
X150191663Y-80174002D01*
X149949998Y-79932337D01*
X149665831Y-79742463D01*
X149350081Y-79611675D01*
X149014883Y-79545000D01*
X148673117Y-79545000D01*
X148337919Y-79611675D01*
X148022169Y-79742463D01*
X147738002Y-79932337D01*
X147496337Y-80174002D01*
X147306463Y-80458169D01*
X147175675Y-80773919D01*
X147109000Y-81109117D01*
X145834383Y-81109117D01*
X145905853Y-80936574D01*
X145961000Y-80659335D01*
X145961000Y-80376665D01*
X145905853Y-80099426D01*
X145797680Y-79838273D01*
X145640637Y-79603241D01*
X145440759Y-79403363D01*
X145208241Y-79248000D01*
X145440759Y-79092637D01*
X145640637Y-78892759D01*
X145797680Y-78657727D01*
X145905853Y-78396574D01*
X145961000Y-78119335D01*
X145961000Y-77836665D01*
X145905853Y-77559426D01*
X145797680Y-77298273D01*
X145640637Y-77063241D01*
X145440759Y-76863363D01*
X145208241Y-76708000D01*
X145419764Y-76566665D01*
X147409000Y-76566665D01*
X147409000Y-76849335D01*
X147464147Y-77126574D01*
X147572320Y-77387727D01*
X147729363Y-77622759D01*
X147929241Y-77822637D01*
X148164273Y-77979680D01*
X148425426Y-78087853D01*
X148702665Y-78143000D01*
X148985335Y-78143000D01*
X149262574Y-78087853D01*
X149523727Y-77979680D01*
X149758759Y-77822637D01*
X149958637Y-77622759D01*
X150115680Y-77387727D01*
X150223853Y-77126574D01*
X150279000Y-76849335D01*
X150279000Y-76566665D01*
X155029000Y-76566665D01*
X155029000Y-76849335D01*
X155084147Y-77126574D01*
X155192320Y-77387727D01*
X155349363Y-77622759D01*
X155549241Y-77822637D01*
X155784273Y-77979680D01*
X156045426Y-78087853D01*
X156322665Y-78143000D01*
X156605335Y-78143000D01*
X156882574Y-78087853D01*
X157143727Y-77979680D01*
X157378759Y-77822637D01*
X157578637Y-77622759D01*
X157735680Y-77387727D01*
X157843853Y-77126574D01*
X157899000Y-76849335D01*
X157899000Y-76566665D01*
X157843853Y-76289426D01*
X157735680Y-76028273D01*
X157578637Y-75793241D01*
X157378759Y-75593363D01*
X157143727Y-75436320D01*
X156882574Y-75328147D01*
X156605335Y-75273000D01*
X156322665Y-75273000D01*
X156045426Y-75328147D01*
X155784273Y-75436320D01*
X155549241Y-75593363D01*
X155349363Y-75793241D01*
X155192320Y-76028273D01*
X155084147Y-76289426D01*
X155029000Y-76566665D01*
X150279000Y-76566665D01*
X150223853Y-76289426D01*
X150115680Y-76028273D01*
X149958637Y-75793241D01*
X149758759Y-75593363D01*
X149523727Y-75436320D01*
X149262574Y-75328147D01*
X148985335Y-75273000D01*
X148702665Y-75273000D01*
X148425426Y-75328147D01*
X148164273Y-75436320D01*
X147929241Y-75593363D01*
X147729363Y-75793241D01*
X147572320Y-76028273D01*
X147464147Y-76289426D01*
X147409000Y-76566665D01*
X145419764Y-76566665D01*
X145440759Y-76552637D01*
X145640637Y-76352759D01*
X145797680Y-76117727D01*
X145905853Y-75856574D01*
X145961000Y-75579335D01*
X145961000Y-75296665D01*
X145905853Y-75019426D01*
X145797680Y-74758273D01*
X145642926Y-74526666D01*
X147412927Y-72756665D01*
X149949000Y-72756665D01*
X149949000Y-73039335D01*
X150004147Y-73316574D01*
X150112320Y-73577727D01*
X150269363Y-73812759D01*
X150469241Y-74012637D01*
X150704273Y-74169680D01*
X150965426Y-74277853D01*
X151242665Y-74333000D01*
X151525335Y-74333000D01*
X151802574Y-74277853D01*
X152063727Y-74169680D01*
X152298759Y-74012637D01*
X152420694Y-73890702D01*
X155570903Y-73890702D01*
X155642486Y-74134671D01*
X155897996Y-74255571D01*
X156172184Y-74324300D01*
X156454512Y-74338217D01*
X156734130Y-74296787D01*
X157000292Y-74201603D01*
X157125514Y-74134671D01*
X157197097Y-73890702D01*
X156384000Y-73077605D01*
X155570903Y-73890702D01*
X152420694Y-73890702D01*
X152498637Y-73812759D01*
X152655680Y-73577727D01*
X152763853Y-73316574D01*
X152819000Y-73039335D01*
X152819000Y-72968512D01*
X154943783Y-72968512D01*
X154985213Y-73248130D01*
X155080397Y-73514292D01*
X155147329Y-73639514D01*
X155391298Y-73711097D01*
X156204395Y-72898000D01*
X156563605Y-72898000D01*
X157376702Y-73711097D01*
X157620671Y-73639514D01*
X157741571Y-73384004D01*
X157810300Y-73109816D01*
X157824217Y-72827488D01*
X157782787Y-72547870D01*
X157687603Y-72281708D01*
X157620671Y-72156486D01*
X157376702Y-72084903D01*
X156563605Y-72898000D01*
X156204395Y-72898000D01*
X155391298Y-72084903D01*
X155147329Y-72156486D01*
X155026429Y-72411996D01*
X154957700Y-72686184D01*
X154943783Y-72968512D01*
X152819000Y-72968512D01*
X152819000Y-72756665D01*
X152763853Y-72479426D01*
X152655680Y-72218273D01*
X152498637Y-71983241D01*
X152420694Y-71905298D01*
X155570903Y-71905298D01*
X156384000Y-72718395D01*
X157197097Y-71905298D01*
X157125514Y-71661329D01*
X156870004Y-71540429D01*
X156595816Y-71471700D01*
X156313488Y-71457783D01*
X156033870Y-71499213D01*
X155767708Y-71594397D01*
X155642486Y-71661329D01*
X155570903Y-71905298D01*
X152420694Y-71905298D01*
X152298759Y-71783363D01*
X152063727Y-71626320D01*
X151802574Y-71518147D01*
X151525335Y-71463000D01*
X151242665Y-71463000D01*
X150965426Y-71518147D01*
X150704273Y-71626320D01*
X150469241Y-71783363D01*
X150269363Y-71983241D01*
X150112320Y-72218273D01*
X150004147Y-72479426D01*
X149949000Y-72756665D01*
X147412927Y-72756665D01*
X148772153Y-71397440D01*
X148801222Y-71373584D01*
X148896445Y-71257554D01*
X148967202Y-71125177D01*
X149010774Y-70981540D01*
X149021800Y-70869588D01*
X149021800Y-70869586D01*
X149025486Y-70832163D01*
X149021800Y-70794740D01*
X149021800Y-70626076D01*
X149271102Y-70522812D01*
X149620783Y-70289163D01*
X149918163Y-69991783D01*
X150151812Y-69642102D01*
X150312753Y-69253556D01*
X150394800Y-68841079D01*
X150394800Y-68420521D01*
X150312753Y-68008044D01*
X150151812Y-67619498D01*
X149918163Y-67269817D01*
X149620783Y-66972437D01*
X149606482Y-66962881D01*
X152164724Y-66962881D01*
X152524912Y-67452548D01*
X153188882Y-67812849D01*
X153910385Y-68036694D01*
X154661695Y-68115480D01*
X155413938Y-68046178D01*
X156138208Y-67831452D01*
X156806670Y-67479555D01*
X156847088Y-67452548D01*
X157207276Y-66962881D01*
X154686000Y-64441605D01*
X152164724Y-66962881D01*
X149606482Y-66962881D01*
X149271102Y-66738788D01*
X148882556Y-66577847D01*
X148470079Y-66495800D01*
X148049521Y-66495800D01*
X147637044Y-66577847D01*
X147248498Y-66738788D01*
X146898817Y-66972437D01*
X146601437Y-67269817D01*
X146367788Y-67619498D01*
X146206847Y-68008044D01*
X146124800Y-68420521D01*
X146124800Y-68841079D01*
X146206847Y-69253556D01*
X146367788Y-69642102D01*
X146601437Y-69991783D01*
X146898817Y-70289163D01*
X147248498Y-70522812D01*
X147420340Y-70593991D01*
X145797031Y-72217301D01*
X145640637Y-71983241D01*
X145440759Y-71783363D01*
X145205727Y-71626320D01*
X144944574Y-71518147D01*
X144667335Y-71463000D01*
X144384665Y-71463000D01*
X144107426Y-71518147D01*
X143846273Y-71626320D01*
X143611241Y-71783363D01*
X143411363Y-71983241D01*
X143254320Y-72218273D01*
X143146147Y-72479426D01*
X143091000Y-72756665D01*
X143091000Y-73039335D01*
X143146147Y-73316574D01*
X143254320Y-73577727D01*
X143409074Y-73809333D01*
X142600650Y-74617758D01*
X142571580Y-74641615D01*
X142547723Y-74670685D01*
X142547722Y-74670686D01*
X142476356Y-74757645D01*
X142405600Y-74890022D01*
X142362028Y-75033659D01*
X142347315Y-75183037D01*
X142351002Y-75220470D01*
X142351002Y-75803001D01*
X138296509Y-75803001D01*
X138341000Y-75579335D01*
X138341000Y-75296665D01*
X138285853Y-75019426D01*
X138177680Y-74758273D01*
X138020637Y-74523241D01*
X137822039Y-74324643D01*
X137830482Y-74323812D01*
X137950180Y-74287502D01*
X138060494Y-74228537D01*
X138157185Y-74149185D01*
X138236537Y-74052494D01*
X138295502Y-73942180D01*
X138331812Y-73822482D01*
X138344072Y-73698000D01*
X138344072Y-72098000D01*
X138331812Y-71973518D01*
X138295502Y-71853820D01*
X138236537Y-71743506D01*
X138157185Y-71646815D01*
X138060494Y-71567463D01*
X137950180Y-71508498D01*
X137830482Y-71472188D01*
X137706000Y-71459928D01*
X137564731Y-71459928D01*
X137542645Y-71418608D01*
X137447422Y-71302578D01*
X137418342Y-71278713D01*
X137360075Y-71220446D01*
X137336212Y-71191368D01*
X137220182Y-71096145D01*
X137087805Y-71025388D01*
X136944168Y-70981816D01*
X136832216Y-70970790D01*
X136832213Y-70970790D01*
X136794790Y-70967104D01*
X136757367Y-70970790D01*
X134339515Y-70970790D01*
X134377097Y-70842702D01*
X133564000Y-70029605D01*
X132750903Y-70842702D01*
X132788485Y-70970790D01*
X131969550Y-70970790D01*
X131978759Y-70964637D01*
X132178637Y-70764759D01*
X132312692Y-70564131D01*
X132327329Y-70591514D01*
X132571298Y-70663097D01*
X133384395Y-69850000D01*
X133370253Y-69835858D01*
X133549858Y-69656253D01*
X133564000Y-69670395D01*
X133578143Y-69656253D01*
X133757748Y-69835858D01*
X133743605Y-69850000D01*
X134556702Y-70663097D01*
X134800671Y-70591514D01*
X134921571Y-70336004D01*
X134958734Y-70187746D01*
X135008809Y-70197706D01*
X135212687Y-70197706D01*
X135412646Y-70157932D01*
X135601004Y-70079911D01*
X135770522Y-69966643D01*
X135914685Y-69822480D01*
X135990733Y-69708665D01*
X140591000Y-69708665D01*
X140591000Y-69991335D01*
X140646147Y-70268574D01*
X140754320Y-70529727D01*
X140911363Y-70764759D01*
X141111241Y-70964637D01*
X141346273Y-71121680D01*
X141607426Y-71229853D01*
X141884665Y-71285000D01*
X142167335Y-71285000D01*
X142444574Y-71229853D01*
X142705727Y-71121680D01*
X142940759Y-70964637D01*
X143062694Y-70842702D01*
X143712903Y-70842702D01*
X143784486Y-71086671D01*
X144039996Y-71207571D01*
X144314184Y-71276300D01*
X144596512Y-71290217D01*
X144876130Y-71248787D01*
X145142292Y-71153603D01*
X145267514Y-71086671D01*
X145339097Y-70842702D01*
X144526000Y-70029605D01*
X143712903Y-70842702D01*
X143062694Y-70842702D01*
X143140637Y-70764759D01*
X143274692Y-70564131D01*
X143289329Y-70591514D01*
X143533298Y-70663097D01*
X144346395Y-69850000D01*
X144705605Y-69850000D01*
X145518702Y-70663097D01*
X145762671Y-70591514D01*
X145883571Y-70336004D01*
X145952300Y-70061816D01*
X145966217Y-69779488D01*
X145924787Y-69499870D01*
X145829603Y-69233708D01*
X145762671Y-69108486D01*
X145518702Y-69036903D01*
X144705605Y-69850000D01*
X144346395Y-69850000D01*
X143533298Y-69036903D01*
X143289329Y-69108486D01*
X143275676Y-69137341D01*
X143140637Y-68935241D01*
X143062694Y-68857298D01*
X143712903Y-68857298D01*
X144526000Y-69670395D01*
X145339097Y-68857298D01*
X145267514Y-68613329D01*
X145012004Y-68492429D01*
X144737816Y-68423700D01*
X144455488Y-68409783D01*
X144175870Y-68451213D01*
X143909708Y-68546397D01*
X143784486Y-68613329D01*
X143712903Y-68857298D01*
X143062694Y-68857298D01*
X142940759Y-68735363D01*
X142705727Y-68578320D01*
X142444574Y-68470147D01*
X142167335Y-68415000D01*
X141884665Y-68415000D01*
X141607426Y-68470147D01*
X141346273Y-68578320D01*
X141111241Y-68735363D01*
X140911363Y-68935241D01*
X140754320Y-69170273D01*
X140646147Y-69431426D01*
X140591000Y-69708665D01*
X135990733Y-69708665D01*
X136027953Y-69652962D01*
X136105974Y-69464604D01*
X136145748Y-69264645D01*
X136145748Y-69060767D01*
X136105974Y-68860808D01*
X136027953Y-68672450D01*
X135936108Y-68534994D01*
X135961861Y-68560747D01*
X136076553Y-68446055D01*
X136232562Y-68761614D01*
X136607345Y-68952420D01*
X137012151Y-69066444D01*
X137431424Y-69099302D01*
X137849051Y-69049734D01*
X138248983Y-68919643D01*
X138544638Y-68761614D01*
X138700648Y-68446053D01*
X137388600Y-67134005D01*
X137374458Y-67148148D01*
X137194853Y-66968543D01*
X137208995Y-66954400D01*
X137568205Y-66954400D01*
X138880253Y-68266448D01*
X139195814Y-68110438D01*
X139386620Y-67735655D01*
X139500644Y-67330849D01*
X139533502Y-66911576D01*
X139483934Y-66493949D01*
X139353843Y-66094017D01*
X139195814Y-65798362D01*
X138880253Y-65642352D01*
X137568205Y-66954400D01*
X137208995Y-66954400D01*
X135896947Y-65642352D01*
X135581386Y-65798362D01*
X135390580Y-66173145D01*
X135276556Y-66577951D01*
X135243698Y-66997224D01*
X135293266Y-67414851D01*
X135423357Y-67814783D01*
X135581386Y-68110438D01*
X135896945Y-68266447D01*
X135787573Y-68375820D01*
X135770522Y-68358769D01*
X135601004Y-68245501D01*
X135412646Y-68167480D01*
X135212687Y-68127706D01*
X135153378Y-68127706D01*
X134997938Y-67972266D01*
X134974076Y-67943190D01*
X134858046Y-67847967D01*
X134725669Y-67777210D01*
X134582032Y-67733638D01*
X134470080Y-67722612D01*
X134470077Y-67722612D01*
X134432654Y-67718926D01*
X134395231Y-67722612D01*
X115028243Y-67722612D01*
X112768378Y-65462747D01*
X136076552Y-65462747D01*
X137388600Y-66774795D01*
X138700648Y-65462747D01*
X138544638Y-65147186D01*
X138169855Y-64956380D01*
X137765049Y-64842356D01*
X137345776Y-64809498D01*
X136928149Y-64859066D01*
X136528217Y-64989157D01*
X136232562Y-65147186D01*
X136076552Y-65462747D01*
X112768378Y-65462747D01*
X111543326Y-64237695D01*
X150832520Y-64237695D01*
X150901822Y-64989938D01*
X151116548Y-65714208D01*
X151468445Y-66382670D01*
X151495452Y-66423088D01*
X151985119Y-66783276D01*
X154506395Y-64262000D01*
X151985119Y-61740724D01*
X151495452Y-62100912D01*
X151135151Y-62764882D01*
X150911306Y-63486385D01*
X150832520Y-64237695D01*
X111543326Y-64237695D01*
X111274630Y-63969000D01*
X111398260Y-63969000D01*
X111685158Y-63911932D01*
X111955411Y-63799990D01*
X112198632Y-63637475D01*
X112405475Y-63430632D01*
X112522000Y-63256240D01*
X112638525Y-63430632D01*
X112845368Y-63637475D01*
X113088589Y-63799990D01*
X113358842Y-63911932D01*
X113645740Y-63969000D01*
X113938260Y-63969000D01*
X114225158Y-63911932D01*
X114495411Y-63799990D01*
X114738632Y-63637475D01*
X114945475Y-63430632D01*
X115062000Y-63256240D01*
X115178525Y-63430632D01*
X115385368Y-63637475D01*
X115628589Y-63799990D01*
X115898842Y-63911932D01*
X116185740Y-63969000D01*
X116478260Y-63969000D01*
X116765158Y-63911932D01*
X117035411Y-63799990D01*
X117278632Y-63637475D01*
X117485475Y-63430632D01*
X117602000Y-63256240D01*
X117718525Y-63430632D01*
X117925368Y-63637475D01*
X118168589Y-63799990D01*
X118438842Y-63911932D01*
X118725740Y-63969000D01*
X119018260Y-63969000D01*
X119305158Y-63911932D01*
X119575411Y-63799990D01*
X119818632Y-63637475D01*
X120025475Y-63430632D01*
X120142000Y-63256240D01*
X120258525Y-63430632D01*
X120465368Y-63637475D01*
X120708589Y-63799990D01*
X120978842Y-63911932D01*
X121265740Y-63969000D01*
X121558260Y-63969000D01*
X121845158Y-63911932D01*
X122115411Y-63799990D01*
X122358632Y-63637475D01*
X122565475Y-63430632D01*
X122682000Y-63256240D01*
X122798525Y-63430632D01*
X123005368Y-63637475D01*
X123248589Y-63799990D01*
X123518842Y-63911932D01*
X123805740Y-63969000D01*
X124098260Y-63969000D01*
X124385158Y-63911932D01*
X124655411Y-63799990D01*
X124898632Y-63637475D01*
X125105475Y-63430632D01*
X125222000Y-63256240D01*
X125338525Y-63430632D01*
X125545368Y-63637475D01*
X125788589Y-63799990D01*
X126058842Y-63911932D01*
X126345740Y-63969000D01*
X126638260Y-63969000D01*
X126925158Y-63911932D01*
X127195411Y-63799990D01*
X127438632Y-63637475D01*
X127645475Y-63430632D01*
X127762000Y-63256240D01*
X127878525Y-63430632D01*
X128085368Y-63637475D01*
X128328589Y-63799990D01*
X128598842Y-63911932D01*
X128885740Y-63969000D01*
X129178260Y-63969000D01*
X129465158Y-63911932D01*
X129735411Y-63799990D01*
X129978632Y-63637475D01*
X130185475Y-63430632D01*
X130302000Y-63256240D01*
X130418525Y-63430632D01*
X130625368Y-63637475D01*
X130868589Y-63799990D01*
X131138842Y-63911932D01*
X131425740Y-63969000D01*
X131718260Y-63969000D01*
X132005158Y-63911932D01*
X132275411Y-63799990D01*
X132518632Y-63637475D01*
X132725475Y-63430632D01*
X132842000Y-63256240D01*
X132958525Y-63430632D01*
X133165368Y-63637475D01*
X133408589Y-63799990D01*
X133678842Y-63911932D01*
X133965740Y-63969000D01*
X134258260Y-63969000D01*
X134545158Y-63911932D01*
X134815411Y-63799990D01*
X135058632Y-63637475D01*
X135265475Y-63430632D01*
X135427990Y-63187411D01*
X135539932Y-62917158D01*
X135597000Y-62630260D01*
X135597000Y-62342665D01*
X138011000Y-62342665D01*
X138011000Y-62625335D01*
X138066147Y-62902574D01*
X138174320Y-63163727D01*
X138331363Y-63398759D01*
X138531241Y-63598637D01*
X138766273Y-63755680D01*
X139027426Y-63863853D01*
X139304665Y-63919000D01*
X139587335Y-63919000D01*
X139864574Y-63863853D01*
X140125727Y-63755680D01*
X140360759Y-63598637D01*
X140560637Y-63398759D01*
X140717680Y-63163727D01*
X140825853Y-62902574D01*
X140839684Y-62833039D01*
X145674096Y-62833039D01*
X145714754Y-62967087D01*
X145834963Y-63221420D01*
X146002481Y-63447414D01*
X146210869Y-63636385D01*
X146452119Y-63781070D01*
X146716960Y-63875909D01*
X146939000Y-63754624D01*
X146939000Y-62611000D01*
X147193000Y-62611000D01*
X147193000Y-63754624D01*
X147415040Y-63875909D01*
X147679881Y-63781070D01*
X147921131Y-63636385D01*
X148129519Y-63447414D01*
X148297037Y-63221420D01*
X148417246Y-62967087D01*
X148457904Y-62833039D01*
X148335915Y-62611000D01*
X147193000Y-62611000D01*
X146939000Y-62611000D01*
X145796085Y-62611000D01*
X145674096Y-62833039D01*
X140839684Y-62833039D01*
X140881000Y-62625335D01*
X140881000Y-62342665D01*
X140839685Y-62134961D01*
X145674096Y-62134961D01*
X145796085Y-62357000D01*
X146939000Y-62357000D01*
X146939000Y-61213376D01*
X147193000Y-61213376D01*
X147193000Y-62357000D01*
X148335915Y-62357000D01*
X148457904Y-62134961D01*
X148417246Y-62000913D01*
X148297037Y-61746580D01*
X148129519Y-61520586D01*
X147921131Y-61331615D01*
X147679881Y-61186930D01*
X147415040Y-61092091D01*
X147193000Y-61213376D01*
X146939000Y-61213376D01*
X146716960Y-61092091D01*
X146452119Y-61186930D01*
X146210869Y-61331615D01*
X146002481Y-61520586D01*
X145834963Y-61746580D01*
X145714754Y-62000913D01*
X145674096Y-62134961D01*
X140839685Y-62134961D01*
X140825853Y-62065426D01*
X140717680Y-61804273D01*
X140560637Y-61569241D01*
X140360759Y-61369363D01*
X140125727Y-61212320D01*
X139864574Y-61104147D01*
X139587335Y-61049000D01*
X139304665Y-61049000D01*
X139027426Y-61104147D01*
X138766273Y-61212320D01*
X138531241Y-61369363D01*
X138331363Y-61569241D01*
X138174320Y-61804273D01*
X138066147Y-62065426D01*
X138011000Y-62342665D01*
X135597000Y-62342665D01*
X135597000Y-62337740D01*
X135539932Y-62050842D01*
X135427990Y-61780589D01*
X135265475Y-61537368D01*
X135058632Y-61330525D01*
X134815411Y-61168010D01*
X134545158Y-61056068D01*
X134258260Y-60999000D01*
X133965740Y-60999000D01*
X133678842Y-61056068D01*
X133408589Y-61168010D01*
X133165368Y-61330525D01*
X132958525Y-61537368D01*
X132842000Y-61711760D01*
X132725475Y-61537368D01*
X132518632Y-61330525D01*
X132275411Y-61168010D01*
X132005158Y-61056068D01*
X131718260Y-60999000D01*
X131425740Y-60999000D01*
X131138842Y-61056068D01*
X130868589Y-61168010D01*
X130625368Y-61330525D01*
X130418525Y-61537368D01*
X130302000Y-61711760D01*
X130185475Y-61537368D01*
X129978632Y-61330525D01*
X129735411Y-61168010D01*
X129465158Y-61056068D01*
X129178260Y-60999000D01*
X128885740Y-60999000D01*
X128598842Y-61056068D01*
X128328589Y-61168010D01*
X128085368Y-61330525D01*
X127878525Y-61537368D01*
X127762000Y-61711760D01*
X127645475Y-61537368D01*
X127438632Y-61330525D01*
X127195411Y-61168010D01*
X126925158Y-61056068D01*
X126638260Y-60999000D01*
X126345740Y-60999000D01*
X126058842Y-61056068D01*
X125788589Y-61168010D01*
X125545368Y-61330525D01*
X125338525Y-61537368D01*
X125222000Y-61711760D01*
X125105475Y-61537368D01*
X124898632Y-61330525D01*
X124655411Y-61168010D01*
X124385158Y-61056068D01*
X124098260Y-60999000D01*
X123805740Y-60999000D01*
X123518842Y-61056068D01*
X123248589Y-61168010D01*
X123005368Y-61330525D01*
X122798525Y-61537368D01*
X122682000Y-61711760D01*
X122565475Y-61537368D01*
X122358632Y-61330525D01*
X122115411Y-61168010D01*
X121845158Y-61056068D01*
X121558260Y-60999000D01*
X121265740Y-60999000D01*
X120978842Y-61056068D01*
X120708589Y-61168010D01*
X120465368Y-61330525D01*
X120258525Y-61537368D01*
X120142000Y-61711760D01*
X120025475Y-61537368D01*
X119818632Y-61330525D01*
X119575411Y-61168010D01*
X119305158Y-61056068D01*
X119018260Y-60999000D01*
X118725740Y-60999000D01*
X118438842Y-61056068D01*
X118168589Y-61168010D01*
X117925368Y-61330525D01*
X117718525Y-61537368D01*
X117602000Y-61711760D01*
X117485475Y-61537368D01*
X117278632Y-61330525D01*
X117035411Y-61168010D01*
X116765158Y-61056068D01*
X116478260Y-60999000D01*
X116185740Y-60999000D01*
X115898842Y-61056068D01*
X115628589Y-61168010D01*
X115385368Y-61330525D01*
X115178525Y-61537368D01*
X115062000Y-61711760D01*
X114945475Y-61537368D01*
X114738632Y-61330525D01*
X114495411Y-61168010D01*
X114225158Y-61056068D01*
X113938260Y-60999000D01*
X113645740Y-60999000D01*
X113358842Y-61056068D01*
X113088589Y-61168010D01*
X112845368Y-61330525D01*
X112638525Y-61537368D01*
X112522000Y-61711760D01*
X112405475Y-61537368D01*
X112198632Y-61330525D01*
X111955411Y-61168010D01*
X111685158Y-61056068D01*
X111398260Y-60999000D01*
X111105740Y-60999000D01*
X110818842Y-61056068D01*
X110548589Y-61168010D01*
X110305368Y-61330525D01*
X110098525Y-61537368D01*
X109982000Y-61711760D01*
X109865475Y-61537368D01*
X109658632Y-61330525D01*
X109415411Y-61168010D01*
X109145158Y-61056068D01*
X108858260Y-60999000D01*
X108565740Y-60999000D01*
X108278842Y-61056068D01*
X108008589Y-61168010D01*
X107765368Y-61330525D01*
X107558525Y-61537368D01*
X107436805Y-61719534D01*
X107367178Y-61602645D01*
X107172269Y-61386412D01*
X106938920Y-61212359D01*
X106676099Y-61087175D01*
X106528890Y-61042524D01*
X106299000Y-61163845D01*
X106299000Y-62357000D01*
X106319000Y-62357000D01*
X106319000Y-62611000D01*
X106299000Y-62611000D01*
X106299000Y-63804155D01*
X106528890Y-63925476D01*
X106676099Y-63880825D01*
X106938920Y-63755641D01*
X107172269Y-63581588D01*
X107367178Y-63365355D01*
X107436805Y-63248466D01*
X107558525Y-63430632D01*
X107765368Y-63637475D01*
X108008589Y-63799990D01*
X108278842Y-63911932D01*
X108565740Y-63969000D01*
X108858260Y-63969000D01*
X109076049Y-63925679D01*
X114147332Y-68996963D01*
X114171190Y-69026034D01*
X114200260Y-69049891D01*
X114287219Y-69121257D01*
X114357976Y-69159077D01*
X114419597Y-69192014D01*
X114563234Y-69235586D01*
X114675186Y-69246612D01*
X114675189Y-69246612D01*
X114712612Y-69250298D01*
X114750035Y-69246612D01*
X119092699Y-69246612D01*
X119016147Y-69431426D01*
X118961000Y-69708665D01*
X118961000Y-69991335D01*
X119016147Y-70268574D01*
X119124320Y-70529727D01*
X119281363Y-70764759D01*
X119481241Y-70964637D01*
X119490450Y-70970790D01*
X112495515Y-70970790D01*
X112533097Y-70842702D01*
X111720000Y-70029605D01*
X110906903Y-70842702D01*
X110944485Y-70970790D01*
X110125550Y-70970790D01*
X110134759Y-70964637D01*
X110334637Y-70764759D01*
X110468692Y-70564131D01*
X110483329Y-70591514D01*
X110727298Y-70663097D01*
X111540395Y-69850000D01*
X111899605Y-69850000D01*
X112712702Y-70663097D01*
X112956671Y-70591514D01*
X113077571Y-70336004D01*
X113146300Y-70061816D01*
X113160217Y-69779488D01*
X113118787Y-69499870D01*
X113023603Y-69233708D01*
X112956671Y-69108486D01*
X112712702Y-69036903D01*
X111899605Y-69850000D01*
X111540395Y-69850000D01*
X110727298Y-69036903D01*
X110483329Y-69108486D01*
X110469676Y-69137341D01*
X110334637Y-68935241D01*
X110256694Y-68857298D01*
X110906903Y-68857298D01*
X111720000Y-69670395D01*
X112533097Y-68857298D01*
X112461514Y-68613329D01*
X112206004Y-68492429D01*
X111931816Y-68423700D01*
X111649488Y-68409783D01*
X111369870Y-68451213D01*
X111103708Y-68546397D01*
X110978486Y-68613329D01*
X110906903Y-68857298D01*
X110256694Y-68857298D01*
X110134759Y-68735363D01*
X109899727Y-68578320D01*
X109638574Y-68470147D01*
X109361335Y-68415000D01*
X109078665Y-68415000D01*
X108801426Y-68470147D01*
X108540273Y-68578320D01*
X108305241Y-68735363D01*
X108105363Y-68935241D01*
X107948320Y-69170273D01*
X107840147Y-69431426D01*
X107785000Y-69708665D01*
X107785000Y-69991335D01*
X107840147Y-70268574D01*
X107948320Y-70529727D01*
X108105363Y-70764759D01*
X108305241Y-70964637D01*
X108314450Y-70970790D01*
X107882633Y-70970790D01*
X107845210Y-70967104D01*
X107807787Y-70970790D01*
X107807784Y-70970790D01*
X107695832Y-70981816D01*
X107552195Y-71025388D01*
X107538450Y-71032735D01*
X107419817Y-71096145D01*
X107349805Y-71153603D01*
X107303788Y-71191368D01*
X107279931Y-71220438D01*
X105578072Y-72922298D01*
X105578072Y-72098000D01*
X105565812Y-71973518D01*
X105529502Y-71853820D01*
X105470537Y-71743506D01*
X105391185Y-71646815D01*
X105294494Y-71567463D01*
X105184180Y-71508498D01*
X105064482Y-71472188D01*
X104940000Y-71459928D01*
X103340000Y-71459928D01*
X103215518Y-71472188D01*
X103095820Y-71508498D01*
X102985506Y-71567463D01*
X102888815Y-71646815D01*
X102809463Y-71743506D01*
X102750498Y-71853820D01*
X102714188Y-71973518D01*
X102701928Y-72098000D01*
X102701928Y-73698000D01*
X102714188Y-73822482D01*
X102750498Y-73942180D01*
X102809463Y-74052494D01*
X102888815Y-74149185D01*
X102985506Y-74228537D01*
X103095820Y-74287502D01*
X103215518Y-74323812D01*
X103223961Y-74324643D01*
X103025363Y-74523241D01*
X102868320Y-74758273D01*
X102760147Y-75019426D01*
X102705000Y-75296665D01*
X102705000Y-75579335D01*
X102749491Y-75803001D01*
X102280632Y-75803001D01*
X102237157Y-75759526D01*
X102273000Y-75579335D01*
X102273000Y-75296665D01*
X102217853Y-75019426D01*
X102109680Y-74758273D01*
X101952637Y-74523241D01*
X101752759Y-74323363D01*
X101520241Y-74168000D01*
X101752759Y-74012637D01*
X101952637Y-73812759D01*
X102109680Y-73577727D01*
X102217853Y-73316574D01*
X102273000Y-73039335D01*
X102273000Y-72756665D01*
X102217853Y-72479426D01*
X102109680Y-72218273D01*
X101952637Y-71983241D01*
X101752759Y-71783363D01*
X101517727Y-71626320D01*
X101256574Y-71518147D01*
X100979335Y-71463000D01*
X100696665Y-71463000D01*
X100419426Y-71518147D01*
X100158273Y-71626320D01*
X99923241Y-71783363D01*
X99723363Y-71983241D01*
X99566320Y-72218273D01*
X99458147Y-72479426D01*
X99403000Y-72756665D01*
X99403000Y-73039335D01*
X99458147Y-73316574D01*
X99566320Y-73577727D01*
X99723363Y-73812759D01*
X99923241Y-74012637D01*
X100155759Y-74168000D01*
X99923241Y-74323363D01*
X99723363Y-74523241D01*
X99566320Y-74758273D01*
X99458147Y-75019426D01*
X99403000Y-75296665D01*
X99403000Y-75579335D01*
X99458147Y-75856574D01*
X99554420Y-76088999D01*
X97486630Y-76088999D01*
X94656072Y-73258442D01*
X94656072Y-72098000D01*
X94643812Y-71973518D01*
X94607502Y-71853820D01*
X94548537Y-71743506D01*
X94469185Y-71646815D01*
X94372494Y-71567463D01*
X94262180Y-71508498D01*
X94142482Y-71472188D01*
X94018000Y-71459928D01*
X92418000Y-71459928D01*
X92293518Y-71472188D01*
X92173820Y-71508498D01*
X92063506Y-71567463D01*
X91966815Y-71646815D01*
X91887463Y-71743506D01*
X91828498Y-71853820D01*
X91792188Y-71973518D01*
X91779928Y-72098000D01*
X91779928Y-73698000D01*
X91792188Y-73822482D01*
X91828498Y-73942180D01*
X91887463Y-74052494D01*
X91966815Y-74149185D01*
X92063506Y-74228537D01*
X92173820Y-74287502D01*
X92293518Y-74323812D01*
X92301961Y-74324643D01*
X92103363Y-74523241D01*
X91946320Y-74758273D01*
X91838147Y-75019426D01*
X91783000Y-75296665D01*
X91783000Y-75579335D01*
X91838147Y-75856574D01*
X91946320Y-76117727D01*
X92103363Y-76352759D01*
X92303241Y-76552637D01*
X92535759Y-76708000D01*
X92303241Y-76863363D01*
X92103363Y-77063241D01*
X91946320Y-77298273D01*
X91838147Y-77559426D01*
X91783000Y-77836665D01*
X91783000Y-78119335D01*
X91838147Y-78396574D01*
X91946320Y-78657727D01*
X92103363Y-78892759D01*
X92303241Y-79092637D01*
X92535759Y-79248000D01*
X92303241Y-79403363D01*
X92103363Y-79603241D01*
X91946320Y-79838273D01*
X91838147Y-80099426D01*
X91783000Y-80376665D01*
X91783000Y-80659335D01*
X91838147Y-80936574D01*
X91946320Y-81197727D01*
X92103363Y-81432759D01*
X92303241Y-81632637D01*
X92535759Y-81788000D01*
X92303241Y-81943363D01*
X92103363Y-82143241D01*
X91946320Y-82378273D01*
X91861279Y-82583580D01*
X91797280Y-82429073D01*
X91640237Y-82194041D01*
X91440359Y-81994163D01*
X91205327Y-81837120D01*
X90944174Y-81728947D01*
X90666935Y-81673800D01*
X90384265Y-81673800D01*
X90107026Y-81728947D01*
X89845873Y-81837120D01*
X89610841Y-81994163D01*
X89410963Y-82194041D01*
X89253920Y-82429073D01*
X89145747Y-82690226D01*
X89090600Y-82967465D01*
X83238468Y-82967465D01*
X83238872Y-82862420D01*
X83226612Y-82737938D01*
X83190302Y-82618240D01*
X83131337Y-82507926D01*
X83051985Y-82411235D01*
X82955294Y-82331883D01*
X82844980Y-82272918D01*
X82725282Y-82236608D01*
X82600800Y-82224348D01*
X81286350Y-82227420D01*
X81127600Y-82386170D01*
X80873600Y-82386170D01*
X80714850Y-82227420D01*
X79400400Y-82224348D01*
X79275918Y-82236608D01*
X79156220Y-82272918D01*
X79045906Y-82331883D01*
X78949215Y-82411235D01*
X78869863Y-82507926D01*
X78810898Y-82618240D01*
X78774588Y-82737938D01*
X78762328Y-82862420D01*
X76377000Y-82862420D01*
X76377000Y-81165397D01*
X83691808Y-81165397D01*
X83769443Y-81414472D01*
X84033483Y-81540371D01*
X84317011Y-81612339D01*
X84609131Y-81627611D01*
X84898619Y-81585599D01*
X85174347Y-81487919D01*
X85311757Y-81414472D01*
X85389392Y-81165397D01*
X84540600Y-80316605D01*
X83691808Y-81165397D01*
X76377000Y-81165397D01*
X76377000Y-80205531D01*
X83049989Y-80205531D01*
X83092001Y-80495019D01*
X83189681Y-80770747D01*
X83263128Y-80908157D01*
X83512203Y-80985792D01*
X84360995Y-80137000D01*
X84346853Y-80122858D01*
X84526458Y-79943253D01*
X84540600Y-79957395D01*
X84554743Y-79943253D01*
X84734348Y-80122858D01*
X84720205Y-80137000D01*
X85568997Y-80985792D01*
X85811289Y-80910271D01*
X85927125Y-81083632D01*
X86133968Y-81290475D01*
X86377189Y-81452990D01*
X86647442Y-81564932D01*
X86934340Y-81622000D01*
X87226860Y-81622000D01*
X87513758Y-81564932D01*
X87784011Y-81452990D01*
X88027232Y-81290475D01*
X88234075Y-81083632D01*
X88396590Y-80840411D01*
X88508532Y-80570158D01*
X88565600Y-80283260D01*
X88565600Y-79990740D01*
X88508532Y-79703842D01*
X88396590Y-79433589D01*
X88234075Y-79190368D01*
X88027232Y-78983525D01*
X87784011Y-78821010D01*
X87513758Y-78709068D01*
X87226860Y-78652000D01*
X86934340Y-78652000D01*
X86647442Y-78709068D01*
X86377189Y-78821010D01*
X86133968Y-78983525D01*
X85927125Y-79190368D01*
X85811289Y-79363729D01*
X85568999Y-79288209D01*
X85685104Y-79172104D01*
X85629354Y-79116354D01*
X85694075Y-79051632D01*
X85856590Y-78808411D01*
X85968532Y-78538158D01*
X86025600Y-78251260D01*
X86025600Y-77958740D01*
X86006370Y-77862065D01*
X88836600Y-77862065D01*
X88836600Y-78144735D01*
X88891747Y-78421974D01*
X88999920Y-78683127D01*
X89156963Y-78918159D01*
X89356841Y-79118037D01*
X89591873Y-79275080D01*
X89853026Y-79383253D01*
X90130265Y-79438400D01*
X90412935Y-79438400D01*
X90690174Y-79383253D01*
X90951327Y-79275080D01*
X91186359Y-79118037D01*
X91386237Y-78918159D01*
X91543280Y-78683127D01*
X91651453Y-78421974D01*
X91706600Y-78144735D01*
X91706600Y-77862065D01*
X91651453Y-77584826D01*
X91543280Y-77323673D01*
X91386237Y-77088641D01*
X91186359Y-76888763D01*
X90985731Y-76754708D01*
X91013114Y-76740071D01*
X91084697Y-76496102D01*
X90271600Y-75683005D01*
X89458503Y-76496102D01*
X89530086Y-76740071D01*
X89558941Y-76753724D01*
X89356841Y-76888763D01*
X89156963Y-77088641D01*
X88999920Y-77323673D01*
X88891747Y-77584826D01*
X88836600Y-77862065D01*
X86006370Y-77862065D01*
X85968532Y-77671842D01*
X85856590Y-77401589D01*
X85694075Y-77158368D01*
X85561207Y-77025500D01*
X85694075Y-76892632D01*
X85856590Y-76649411D01*
X85968532Y-76379158D01*
X86025600Y-76092260D01*
X86025600Y-75799740D01*
X85980680Y-75573912D01*
X88831383Y-75573912D01*
X88872813Y-75853530D01*
X88967997Y-76119692D01*
X89034929Y-76244914D01*
X89278898Y-76316497D01*
X90091995Y-75503400D01*
X90451205Y-75503400D01*
X91264302Y-76316497D01*
X91508271Y-76244914D01*
X91629171Y-75989404D01*
X91697900Y-75715216D01*
X91711817Y-75432888D01*
X91670387Y-75153270D01*
X91575203Y-74887108D01*
X91508271Y-74761886D01*
X91264302Y-74690303D01*
X90451205Y-75503400D01*
X90091995Y-75503400D01*
X89278898Y-74690303D01*
X89034929Y-74761886D01*
X88914029Y-75017396D01*
X88845300Y-75291584D01*
X88831383Y-75573912D01*
X85980680Y-75573912D01*
X85968532Y-75512842D01*
X85856590Y-75242589D01*
X85694075Y-74999368D01*
X85561207Y-74866500D01*
X85694075Y-74733632D01*
X85810600Y-74559240D01*
X85927125Y-74733632D01*
X86133968Y-74940475D01*
X86377189Y-75102990D01*
X86647442Y-75214932D01*
X86934340Y-75272000D01*
X87226860Y-75272000D01*
X87513758Y-75214932D01*
X87784011Y-75102990D01*
X88027232Y-74940475D01*
X88234075Y-74733632D01*
X88383034Y-74510698D01*
X89458503Y-74510698D01*
X90271600Y-75323795D01*
X91084697Y-74510698D01*
X91013114Y-74266729D01*
X90757604Y-74145829D01*
X90483416Y-74077100D01*
X90201088Y-74063183D01*
X89921470Y-74104613D01*
X89655308Y-74199797D01*
X89530086Y-74266729D01*
X89458503Y-74510698D01*
X88383034Y-74510698D01*
X88396590Y-74490411D01*
X88508532Y-74220158D01*
X88565600Y-73933260D01*
X88565600Y-73640740D01*
X88508532Y-73353842D01*
X88396590Y-73083589D01*
X88234075Y-72840368D01*
X88027232Y-72633525D01*
X87784011Y-72471010D01*
X87513758Y-72359068D01*
X87226860Y-72302000D01*
X86934340Y-72302000D01*
X86647442Y-72359068D01*
X86377189Y-72471010D01*
X86133968Y-72633525D01*
X85927125Y-72840368D01*
X85810600Y-73014760D01*
X85694075Y-72840368D01*
X85487232Y-72633525D01*
X85244011Y-72471010D01*
X84973758Y-72359068D01*
X84686860Y-72302000D01*
X84394340Y-72302000D01*
X84107442Y-72359068D01*
X83837189Y-72471010D01*
X83593968Y-72633525D01*
X83387125Y-72840368D01*
X83224610Y-73083589D01*
X83112668Y-73353842D01*
X83055600Y-73640740D01*
X83055600Y-73933260D01*
X83112668Y-74220158D01*
X83224610Y-74490411D01*
X83387125Y-74733632D01*
X83519993Y-74866500D01*
X83387125Y-74999368D01*
X83224610Y-75242589D01*
X83112668Y-75512842D01*
X83055600Y-75799740D01*
X83055600Y-76092260D01*
X83112668Y-76379158D01*
X83224610Y-76649411D01*
X83387125Y-76892632D01*
X83519993Y-77025500D01*
X83387125Y-77158368D01*
X83224610Y-77401589D01*
X83112668Y-77671842D01*
X83055600Y-77958740D01*
X83055600Y-78251260D01*
X83112668Y-78538158D01*
X83224610Y-78808411D01*
X83387125Y-79051632D01*
X83451847Y-79116354D01*
X83396096Y-79172104D01*
X83512201Y-79288209D01*
X83263128Y-79365843D01*
X83137229Y-79629883D01*
X83065261Y-79913411D01*
X83049989Y-80205531D01*
X76377000Y-80205531D01*
X76377000Y-78562200D01*
X78778838Y-78562200D01*
X78791098Y-78686682D01*
X78827408Y-78806380D01*
X78886373Y-78916694D01*
X78965725Y-79013385D01*
X79062416Y-79092737D01*
X79172730Y-79151702D01*
X79292428Y-79188012D01*
X79416910Y-79200272D01*
X80130650Y-79197200D01*
X80289400Y-79038450D01*
X80289400Y-77089000D01*
X80543400Y-77089000D01*
X80543400Y-79038450D01*
X80702150Y-79197200D01*
X81415890Y-79200272D01*
X81540372Y-79188012D01*
X81660070Y-79151702D01*
X81770384Y-79092737D01*
X81867075Y-79013385D01*
X81946427Y-78916694D01*
X82005392Y-78806380D01*
X82041702Y-78686682D01*
X82053962Y-78562200D01*
X82050890Y-77247750D01*
X81892140Y-77089000D01*
X80543400Y-77089000D01*
X80289400Y-77089000D01*
X78940660Y-77089000D01*
X78781910Y-77247750D01*
X78778838Y-78562200D01*
X76377000Y-78562200D01*
X76377000Y-75361800D01*
X78778838Y-75361800D01*
X78781910Y-76676250D01*
X78940660Y-76835000D01*
X80289400Y-76835000D01*
X80289400Y-74885550D01*
X80543400Y-74885550D01*
X80543400Y-76835000D01*
X81892140Y-76835000D01*
X82050890Y-76676250D01*
X82053962Y-75361800D01*
X82041702Y-75237318D01*
X82005392Y-75117620D01*
X81946427Y-75007306D01*
X81867075Y-74910615D01*
X81770384Y-74831263D01*
X81660070Y-74772298D01*
X81540372Y-74735988D01*
X81415890Y-74723728D01*
X80702150Y-74726800D01*
X80543400Y-74885550D01*
X80289400Y-74885550D01*
X80130650Y-74726800D01*
X79416910Y-74723728D01*
X79292428Y-74735988D01*
X79172730Y-74772298D01*
X79062416Y-74831263D01*
X78965725Y-74910615D01*
X78886373Y-75007306D01*
X78827408Y-75117620D01*
X78791098Y-75237318D01*
X78778838Y-75361800D01*
X76377000Y-75361800D01*
X76377000Y-71061580D01*
X78762328Y-71061580D01*
X78774588Y-71186062D01*
X78810898Y-71305760D01*
X78869863Y-71416074D01*
X78949215Y-71512765D01*
X79045906Y-71592117D01*
X79156220Y-71651082D01*
X79275918Y-71687392D01*
X79400400Y-71699652D01*
X80714850Y-71696580D01*
X80873600Y-71537830D01*
X80873600Y-70104000D01*
X81127600Y-70104000D01*
X81127600Y-71537830D01*
X81286350Y-71696580D01*
X82600800Y-71699652D01*
X82725282Y-71687392D01*
X82844980Y-71651082D01*
X82955294Y-71592117D01*
X83051985Y-71512765D01*
X83131337Y-71416074D01*
X83190302Y-71305760D01*
X83226612Y-71186062D01*
X83238872Y-71061580D01*
X83237675Y-70750065D01*
X89090600Y-70750065D01*
X89090600Y-71032735D01*
X89145747Y-71309974D01*
X89253920Y-71571127D01*
X89410963Y-71806159D01*
X89610841Y-72006037D01*
X89845873Y-72163080D01*
X90107026Y-72271253D01*
X90384265Y-72326400D01*
X90666935Y-72326400D01*
X90944174Y-72271253D01*
X91205327Y-72163080D01*
X91440359Y-72006037D01*
X91640237Y-71806159D01*
X91797280Y-71571127D01*
X91905453Y-71309974D01*
X91960600Y-71032735D01*
X91960600Y-70750065D01*
X91905453Y-70472826D01*
X91797280Y-70211673D01*
X91640237Y-69976641D01*
X91440359Y-69776763D01*
X91338443Y-69708665D01*
X96863000Y-69708665D01*
X96863000Y-69991335D01*
X96918147Y-70268574D01*
X97026320Y-70529727D01*
X97183363Y-70764759D01*
X97383241Y-70964637D01*
X97618273Y-71121680D01*
X97879426Y-71229853D01*
X98156665Y-71285000D01*
X98439335Y-71285000D01*
X98716574Y-71229853D01*
X98977727Y-71121680D01*
X99212759Y-70964637D01*
X99334694Y-70842702D01*
X99984903Y-70842702D01*
X100056486Y-71086671D01*
X100311996Y-71207571D01*
X100586184Y-71276300D01*
X100868512Y-71290217D01*
X101148130Y-71248787D01*
X101414292Y-71153603D01*
X101539514Y-71086671D01*
X101611097Y-70842702D01*
X100798000Y-70029605D01*
X99984903Y-70842702D01*
X99334694Y-70842702D01*
X99412637Y-70764759D01*
X99546692Y-70564131D01*
X99561329Y-70591514D01*
X99805298Y-70663097D01*
X100618395Y-69850000D01*
X100977605Y-69850000D01*
X101790702Y-70663097D01*
X102034671Y-70591514D01*
X102155571Y-70336004D01*
X102224300Y-70061816D01*
X102238217Y-69779488D01*
X102196787Y-69499870D01*
X102101603Y-69233708D01*
X102034671Y-69108486D01*
X101790702Y-69036903D01*
X100977605Y-69850000D01*
X100618395Y-69850000D01*
X99805298Y-69036903D01*
X99561329Y-69108486D01*
X99547676Y-69137341D01*
X99412637Y-68935241D01*
X99334694Y-68857298D01*
X99984903Y-68857298D01*
X100798000Y-69670395D01*
X101611097Y-68857298D01*
X101539514Y-68613329D01*
X101284004Y-68492429D01*
X101009816Y-68423700D01*
X100727488Y-68409783D01*
X100447870Y-68451213D01*
X100181708Y-68546397D01*
X100056486Y-68613329D01*
X99984903Y-68857298D01*
X99334694Y-68857298D01*
X99212759Y-68735363D01*
X98977727Y-68578320D01*
X98716574Y-68470147D01*
X98439335Y-68415000D01*
X98156665Y-68415000D01*
X97879426Y-68470147D01*
X97618273Y-68578320D01*
X97383241Y-68735363D01*
X97183363Y-68935241D01*
X97026320Y-69170273D01*
X96918147Y-69431426D01*
X96863000Y-69708665D01*
X91338443Y-69708665D01*
X91205327Y-69619720D01*
X90944174Y-69511547D01*
X90666935Y-69456400D01*
X90384265Y-69456400D01*
X90107026Y-69511547D01*
X89845873Y-69619720D01*
X89610841Y-69776763D01*
X89410963Y-69976641D01*
X89253920Y-70211673D01*
X89145747Y-70472826D01*
X89090600Y-70750065D01*
X83237675Y-70750065D01*
X83235800Y-70262750D01*
X83077050Y-70104000D01*
X81127600Y-70104000D01*
X80873600Y-70104000D01*
X78924150Y-70104000D01*
X78765400Y-70262750D01*
X78762328Y-71061580D01*
X76377000Y-71061580D01*
X76377000Y-68892420D01*
X78762328Y-68892420D01*
X78765400Y-69691250D01*
X78924150Y-69850000D01*
X80873600Y-69850000D01*
X80873600Y-68416170D01*
X81127600Y-68416170D01*
X81127600Y-69850000D01*
X83077050Y-69850000D01*
X83235800Y-69691250D01*
X83238872Y-68892420D01*
X83226612Y-68767938D01*
X83190302Y-68648240D01*
X83131337Y-68537926D01*
X83051985Y-68441235D01*
X82955294Y-68361883D01*
X82844980Y-68302918D01*
X82725282Y-68266608D01*
X82600800Y-68254348D01*
X81286350Y-68257420D01*
X81127600Y-68416170D01*
X80873600Y-68416170D01*
X80714850Y-68257420D01*
X79400400Y-68254348D01*
X79275918Y-68266608D01*
X79156220Y-68302918D01*
X79045906Y-68361883D01*
X78949215Y-68441235D01*
X78869863Y-68537926D01*
X78810898Y-68648240D01*
X78774588Y-68767938D01*
X78762328Y-68892420D01*
X76377000Y-68892420D01*
X76377000Y-66962881D01*
X77488724Y-66962881D01*
X77848912Y-67452548D01*
X78512882Y-67812849D01*
X79234385Y-68036694D01*
X79985695Y-68115480D01*
X80737938Y-68046178D01*
X81462208Y-67831452D01*
X82130670Y-67479555D01*
X82171088Y-67452548D01*
X82531276Y-66962881D01*
X80010000Y-64441605D01*
X77488724Y-66962881D01*
X76377000Y-66962881D01*
X76377000Y-65499861D01*
X76440548Y-65714208D01*
X76792445Y-66382670D01*
X76819452Y-66423088D01*
X77309119Y-66783276D01*
X79830395Y-64262000D01*
X80189605Y-64262000D01*
X82710881Y-66783276D01*
X83200548Y-66423088D01*
X83538881Y-65799600D01*
X84846528Y-65799600D01*
X84846528Y-67499600D01*
X84858788Y-67624082D01*
X84895098Y-67743780D01*
X84954063Y-67854094D01*
X85033415Y-67950785D01*
X85130106Y-68030137D01*
X85240420Y-68089102D01*
X85360118Y-68125412D01*
X85484600Y-68137672D01*
X87184600Y-68137672D01*
X87309082Y-68125412D01*
X87428780Y-68089102D01*
X87539094Y-68030137D01*
X87635785Y-67950785D01*
X87715137Y-67854094D01*
X87774102Y-67743780D01*
X87810412Y-67624082D01*
X87822672Y-67499600D01*
X87822672Y-65799600D01*
X87810412Y-65675118D01*
X87774102Y-65555420D01*
X87715137Y-65445106D01*
X87635785Y-65348415D01*
X87539094Y-65269063D01*
X87428780Y-65210098D01*
X87356220Y-65188087D01*
X87488075Y-65056232D01*
X87650590Y-64813011D01*
X87762532Y-64542758D01*
X87819600Y-64255860D01*
X87819600Y-63963340D01*
X87762532Y-63676442D01*
X87650590Y-63406189D01*
X87488075Y-63162968D01*
X87455172Y-63130065D01*
X89090600Y-63130065D01*
X89090600Y-63412735D01*
X89145747Y-63689974D01*
X89253920Y-63951127D01*
X89410963Y-64186159D01*
X89610841Y-64386037D01*
X89845873Y-64543080D01*
X90107026Y-64651253D01*
X90384265Y-64706400D01*
X90666935Y-64706400D01*
X90944174Y-64651253D01*
X91205327Y-64543080D01*
X91440359Y-64386037D01*
X91640237Y-64186159D01*
X91797280Y-63951127D01*
X91905453Y-63689974D01*
X91960600Y-63412735D01*
X91960600Y-63130065D01*
X91923478Y-62943438D01*
X95059505Y-62943438D01*
X95098605Y-63183549D01*
X95183798Y-63411418D01*
X95224652Y-63487852D01*
X95448236Y-63535159D01*
X96118395Y-62865000D01*
X95448236Y-62194841D01*
X95224652Y-62242148D01*
X95123763Y-62463516D01*
X95068000Y-62700313D01*
X95059505Y-62943438D01*
X91923478Y-62943438D01*
X91905453Y-62852826D01*
X91797280Y-62591673D01*
X91640237Y-62356641D01*
X91440359Y-62156763D01*
X91228549Y-62015236D01*
X95627841Y-62015236D01*
X96298000Y-62685395D01*
X96312143Y-62671253D01*
X96491748Y-62850858D01*
X96477605Y-62865000D01*
X96491748Y-62879143D01*
X96312143Y-63058748D01*
X96298000Y-63044605D01*
X95627841Y-63714764D01*
X95675148Y-63938348D01*
X95896516Y-64039237D01*
X96133313Y-64095000D01*
X96376438Y-64103495D01*
X96616549Y-64064395D01*
X96844418Y-63979202D01*
X96920852Y-63938348D01*
X96968158Y-63714766D01*
X97085264Y-63831872D01*
X97143142Y-63773994D01*
X97167463Y-63819494D01*
X97246815Y-63916185D01*
X97343506Y-63995537D01*
X97453820Y-64054502D01*
X97573518Y-64090812D01*
X97698000Y-64103072D01*
X98898000Y-64103072D01*
X99022482Y-64090812D01*
X99142180Y-64054502D01*
X99252494Y-63995537D01*
X99349185Y-63916185D01*
X99428537Y-63819494D01*
X99487502Y-63709180D01*
X99523812Y-63589482D01*
X99536072Y-63465000D01*
X99536072Y-62265000D01*
X99523812Y-62140518D01*
X99487502Y-62020820D01*
X99428537Y-61910506D01*
X99349185Y-61813815D01*
X99252494Y-61734463D01*
X99142180Y-61675498D01*
X99022482Y-61639188D01*
X98969806Y-61634000D01*
X102143928Y-61634000D01*
X102143928Y-63334000D01*
X102156188Y-63458482D01*
X102192498Y-63578180D01*
X102251463Y-63688494D01*
X102330815Y-63785185D01*
X102427506Y-63864537D01*
X102537820Y-63923502D01*
X102657518Y-63959812D01*
X102782000Y-63972072D01*
X104482000Y-63972072D01*
X104606482Y-63959812D01*
X104726180Y-63923502D01*
X104836494Y-63864537D01*
X104933185Y-63785185D01*
X105012537Y-63688494D01*
X105071502Y-63578180D01*
X105095966Y-63497534D01*
X105171731Y-63581588D01*
X105405080Y-63755641D01*
X105667901Y-63880825D01*
X105815110Y-63925476D01*
X106045000Y-63804155D01*
X106045000Y-62611000D01*
X106025000Y-62611000D01*
X106025000Y-62357000D01*
X106045000Y-62357000D01*
X106045000Y-61163845D01*
X105815110Y-61042524D01*
X105667901Y-61087175D01*
X105405080Y-61212359D01*
X105171731Y-61386412D01*
X105095966Y-61470466D01*
X105071502Y-61389820D01*
X105012537Y-61279506D01*
X104933185Y-61182815D01*
X104836494Y-61103463D01*
X104726180Y-61044498D01*
X104606482Y-61008188D01*
X104482000Y-60995928D01*
X102782000Y-60995928D01*
X102657518Y-61008188D01*
X102537820Y-61044498D01*
X102427506Y-61103463D01*
X102330815Y-61182815D01*
X102251463Y-61279506D01*
X102192498Y-61389820D01*
X102156188Y-61509518D01*
X102143928Y-61634000D01*
X98969806Y-61634000D01*
X98898000Y-61626928D01*
X97698000Y-61626928D01*
X97573518Y-61639188D01*
X97453820Y-61675498D01*
X97343506Y-61734463D01*
X97246815Y-61813815D01*
X97167463Y-61910506D01*
X97143142Y-61956006D01*
X97085264Y-61898128D01*
X96968158Y-62015234D01*
X96920852Y-61791652D01*
X96699484Y-61690763D01*
X96462687Y-61635000D01*
X96219562Y-61626505D01*
X95979451Y-61665605D01*
X95751582Y-61750798D01*
X95675148Y-61791652D01*
X95627841Y-62015236D01*
X91228549Y-62015236D01*
X91205327Y-61999720D01*
X90944174Y-61891547D01*
X90666935Y-61836400D01*
X90384265Y-61836400D01*
X90107026Y-61891547D01*
X89845873Y-61999720D01*
X89610841Y-62156763D01*
X89410963Y-62356641D01*
X89253920Y-62591673D01*
X89145747Y-62852826D01*
X89090600Y-63130065D01*
X87455172Y-63130065D01*
X87281232Y-62956125D01*
X87038011Y-62793610D01*
X86767758Y-62681668D01*
X86480860Y-62624600D01*
X86188340Y-62624600D01*
X85901442Y-62681668D01*
X85631189Y-62793610D01*
X85387968Y-62956125D01*
X85181125Y-63162968D01*
X85018610Y-63406189D01*
X84906668Y-63676442D01*
X84849600Y-63963340D01*
X84849600Y-64255860D01*
X84906668Y-64542758D01*
X85018610Y-64813011D01*
X85181125Y-65056232D01*
X85312980Y-65188087D01*
X85240420Y-65210098D01*
X85130106Y-65269063D01*
X85033415Y-65348415D01*
X84954063Y-65445106D01*
X84895098Y-65555420D01*
X84858788Y-65675118D01*
X84846528Y-65799600D01*
X83538881Y-65799600D01*
X83560849Y-65759118D01*
X83784694Y-65037615D01*
X83863480Y-64286305D01*
X83794178Y-63534062D01*
X83579452Y-62809792D01*
X83227555Y-62141330D01*
X83200548Y-62100912D01*
X82710881Y-61740724D01*
X80189605Y-64262000D01*
X79830395Y-64262000D01*
X79816253Y-64247858D01*
X79995858Y-64068253D01*
X80010000Y-64082395D01*
X82531276Y-61561119D01*
X82171088Y-61071452D01*
X81507118Y-60711151D01*
X81242327Y-60629000D01*
X153448139Y-60629000D01*
X153233792Y-60692548D01*
G04 #@! TA.AperFunction,Conductor*
D26*
G36*
X153233792Y-60692548D02*
G01*
X152565330Y-61044445D01*
X152524912Y-61071452D01*
X152164724Y-61561119D01*
X154686000Y-64082395D01*
X154700143Y-64068253D01*
X154879748Y-64247858D01*
X154865605Y-64262000D01*
X157386881Y-66783276D01*
X157876548Y-66423088D01*
X158236849Y-65759118D01*
X158319000Y-65494327D01*
X158319001Y-88678142D01*
X158255452Y-88463792D01*
X157903555Y-87795330D01*
X157876548Y-87754912D01*
X157386881Y-87394724D01*
X154865605Y-89916000D01*
X154879748Y-89930143D01*
X154700143Y-90109748D01*
X154686000Y-90095605D01*
X152164724Y-92616881D01*
X152524912Y-93106548D01*
X153188882Y-93466849D01*
X153453673Y-93549000D01*
X81247861Y-93549000D01*
X81462208Y-93485452D01*
X82130670Y-93133555D01*
X82171088Y-93106548D01*
X82531276Y-92616881D01*
X80010000Y-90095605D01*
X79995858Y-90109748D01*
X79816253Y-89930143D01*
X79830395Y-89916000D01*
X80189605Y-89916000D01*
X82710881Y-92437276D01*
X83200548Y-92077088D01*
X83560849Y-91413118D01*
X83784694Y-90691615D01*
X83863480Y-89940305D01*
X83794178Y-89188062D01*
X83579452Y-88463792D01*
X83227555Y-87795330D01*
X83200548Y-87754912D01*
X82710881Y-87394724D01*
X80189605Y-89916000D01*
X79830395Y-89916000D01*
X77309119Y-87394724D01*
X76819452Y-87754912D01*
X76459151Y-88418882D01*
X76377000Y-88683673D01*
X76377000Y-87215119D01*
X77488724Y-87215119D01*
X80010000Y-89736395D01*
X82531276Y-87215119D01*
X82171088Y-86725452D01*
X81507118Y-86365151D01*
X80785615Y-86141306D01*
X80034305Y-86062520D01*
X79282062Y-86131822D01*
X78557792Y-86346548D01*
X77889330Y-86698445D01*
X77848912Y-86725452D01*
X77488724Y-87215119D01*
X76377000Y-87215119D01*
X76377000Y-85031580D01*
X78762328Y-85031580D01*
X78774588Y-85156062D01*
X78810898Y-85275760D01*
X78869863Y-85386074D01*
X78949215Y-85482765D01*
X79045906Y-85562117D01*
X79156220Y-85621082D01*
X79275918Y-85657392D01*
X79400400Y-85669652D01*
X80714850Y-85666580D01*
X80873600Y-85507830D01*
X80873600Y-84074000D01*
X81127600Y-84074000D01*
X81127600Y-85507830D01*
X81286350Y-85666580D01*
X82600800Y-85669652D01*
X82725282Y-85657392D01*
X82844980Y-85621082D01*
X82955294Y-85562117D01*
X83051985Y-85482765D01*
X83131337Y-85386074D01*
X83190302Y-85275760D01*
X83226612Y-85156062D01*
X83238872Y-85031580D01*
X83235800Y-84232750D01*
X83077050Y-84074000D01*
X81127600Y-84074000D01*
X80873600Y-84074000D01*
X78924150Y-84074000D01*
X78765400Y-84232750D01*
X78762328Y-85031580D01*
X76377000Y-85031580D01*
X76377000Y-82862420D01*
X78762328Y-82862420D01*
X78765400Y-83661250D01*
X78924150Y-83820000D01*
X80873600Y-83820000D01*
X80873600Y-82386170D01*
X81127600Y-82386170D01*
X81127600Y-83820000D01*
X83077050Y-83820000D01*
X83235800Y-83661250D01*
X83238468Y-82967465D01*
X89090600Y-82967465D01*
X89090600Y-83250135D01*
X89145747Y-83527374D01*
X89253920Y-83788527D01*
X89410963Y-84023559D01*
X89610841Y-84223437D01*
X89845873Y-84380480D01*
X90107026Y-84488653D01*
X90384265Y-84543800D01*
X90666935Y-84543800D01*
X90944174Y-84488653D01*
X91205327Y-84380480D01*
X91440359Y-84223437D01*
X91640237Y-84023559D01*
X91797280Y-83788527D01*
X91882321Y-83583220D01*
X91946320Y-83737727D01*
X92103363Y-83972759D01*
X92303241Y-84172637D01*
X92535759Y-84328000D01*
X92303241Y-84483363D01*
X92103363Y-84683241D01*
X91946320Y-84918273D01*
X91838147Y-85179426D01*
X91783000Y-85456665D01*
X91783000Y-85739335D01*
X91838147Y-86016574D01*
X91946320Y-86277727D01*
X92103363Y-86512759D01*
X92303241Y-86712637D01*
X92535759Y-86868000D01*
X92303241Y-87023363D01*
X92103363Y-87223241D01*
X91946320Y-87458273D01*
X91838147Y-87719426D01*
X91783000Y-87996665D01*
X91783000Y-88279335D01*
X91838147Y-88556574D01*
X91946320Y-88817727D01*
X92103363Y-89052759D01*
X92303241Y-89252637D01*
X92538273Y-89409680D01*
X92548865Y-89414067D01*
X92362869Y-89525615D01*
X92154481Y-89714586D01*
X91986963Y-89940580D01*
X91866754Y-90194913D01*
X91862922Y-90207547D01*
X91797280Y-90049073D01*
X91640237Y-89814041D01*
X91440359Y-89614163D01*
X91205327Y-89457120D01*
X90944174Y-89348947D01*
X90666935Y-89293800D01*
X90384265Y-89293800D01*
X90107026Y-89348947D01*
X89845873Y-89457120D01*
X89610841Y-89614163D01*
X89410963Y-89814041D01*
X89253920Y-90049073D01*
X89145747Y-90310226D01*
X89090600Y-90587465D01*
X89090600Y-90870135D01*
X89145747Y-91147374D01*
X89253920Y-91408527D01*
X89410963Y-91643559D01*
X89610841Y-91843437D01*
X89845873Y-92000480D01*
X90107026Y-92108653D01*
X90384265Y-92163800D01*
X90666935Y-92163800D01*
X90944174Y-92108653D01*
X91205327Y-92000480D01*
X91440359Y-91843437D01*
X91640237Y-91643559D01*
X91797280Y-91408527D01*
X91884351Y-91198318D01*
X91986963Y-91415420D01*
X92154481Y-91641414D01*
X92362869Y-91830385D01*
X92604119Y-91975070D01*
X92868960Y-92069909D01*
X93091000Y-91948624D01*
X93091000Y-90805000D01*
X93345000Y-90805000D01*
X93345000Y-91948624D01*
X93567040Y-92069909D01*
X93831881Y-91975070D01*
X94073131Y-91830385D01*
X94281519Y-91641414D01*
X94449037Y-91415420D01*
X94569246Y-91161087D01*
X94609904Y-91027039D01*
X94487915Y-90805000D01*
X93345000Y-90805000D01*
X93091000Y-90805000D01*
X93071000Y-90805000D01*
X93071000Y-90551000D01*
X93091000Y-90551000D01*
X93091000Y-90531000D01*
X93345000Y-90531000D01*
X93345000Y-90551000D01*
X94487915Y-90551000D01*
X94609904Y-90328961D01*
X94569246Y-90194913D01*
X94449037Y-89940580D01*
X94281519Y-89714586D01*
X94073131Y-89525615D01*
X93887135Y-89414067D01*
X93897727Y-89409680D01*
X94132759Y-89252637D01*
X94332637Y-89052759D01*
X94489680Y-88817727D01*
X94597853Y-88556574D01*
X94653000Y-88279335D01*
X94653000Y-87996665D01*
X94597853Y-87719426D01*
X94489680Y-87458273D01*
X94332637Y-87223241D01*
X94132759Y-87023363D01*
X93900241Y-86868000D01*
X94132759Y-86712637D01*
X94332637Y-86512759D01*
X94489680Y-86277727D01*
X94597853Y-86016574D01*
X94653000Y-85739335D01*
X94653000Y-85456665D01*
X94597853Y-85179426D01*
X94489680Y-84918273D01*
X94332637Y-84683241D01*
X94132759Y-84483363D01*
X93900241Y-84328000D01*
X94132759Y-84172637D01*
X94332637Y-83972759D01*
X94489680Y-83737727D01*
X94597853Y-83476574D01*
X94653000Y-83199335D01*
X94653000Y-82916665D01*
X94597853Y-82639426D01*
X94489680Y-82378273D01*
X94332637Y-82143241D01*
X94132759Y-81943363D01*
X93900241Y-81788000D01*
X94132759Y-81632637D01*
X94332637Y-81432759D01*
X94489680Y-81197727D01*
X94597853Y-80936574D01*
X94653000Y-80659335D01*
X94653000Y-80376665D01*
X94597853Y-80099426D01*
X94489680Y-79838273D01*
X94332637Y-79603241D01*
X94132759Y-79403363D01*
X93900241Y-79248000D01*
X94132759Y-79092637D01*
X94332637Y-78892759D01*
X94489680Y-78657727D01*
X94597853Y-78396574D01*
X94653000Y-78119335D01*
X94653000Y-77836665D01*
X94597853Y-77559426D01*
X94489680Y-77298273D01*
X94332637Y-77063241D01*
X94132759Y-76863363D01*
X93900241Y-76708000D01*
X94132759Y-76552637D01*
X94332637Y-76352759D01*
X94489680Y-76117727D01*
X94597853Y-75856574D01*
X94653000Y-75579335D01*
X94653000Y-75410630D01*
X96605719Y-77363350D01*
X96629577Y-77392421D01*
X96658647Y-77416278D01*
X96745606Y-77487644D01*
X96816363Y-77525464D01*
X96877984Y-77558401D01*
X97021621Y-77601973D01*
X97133573Y-77612999D01*
X97133576Y-77612999D01*
X97170999Y-77616685D01*
X97208422Y-77612999D01*
X99447491Y-77612999D01*
X99403000Y-77836665D01*
X99403000Y-78119335D01*
X99458147Y-78396574D01*
X99566320Y-78657727D01*
X99723363Y-78892759D01*
X99923241Y-79092637D01*
X100155759Y-79248000D01*
X99923241Y-79403363D01*
X99723363Y-79603241D01*
X99566320Y-79838273D01*
X99458147Y-80099426D01*
X99403000Y-80376665D01*
X99403000Y-80659335D01*
X99458147Y-80936574D01*
X99566320Y-81197727D01*
X99723363Y-81432759D01*
X99923241Y-81632637D01*
X100155759Y-81788000D01*
X99923241Y-81943363D01*
X99723363Y-82143241D01*
X99566320Y-82378273D01*
X99458147Y-82639426D01*
X99403000Y-82916665D01*
X99403000Y-83199335D01*
X99458147Y-83476574D01*
X99566320Y-83737727D01*
X99723363Y-83972759D01*
X99923241Y-84172637D01*
X100155759Y-84328000D01*
X99923241Y-84483363D01*
X99723363Y-84683241D01*
X99566320Y-84918273D01*
X99458147Y-85179426D01*
X99403000Y-85456665D01*
X99403000Y-85739335D01*
X99458147Y-86016574D01*
X99566320Y-86277727D01*
X99723363Y-86512759D01*
X99923241Y-86712637D01*
X100155759Y-86868000D01*
X99923241Y-87023363D01*
X99723363Y-87223241D01*
X99566320Y-87458273D01*
X99458147Y-87719426D01*
X99403000Y-87996665D01*
X99403000Y-88279335D01*
X99458147Y-88556574D01*
X99566320Y-88817727D01*
X99723363Y-89052759D01*
X99923241Y-89252637D01*
X100155759Y-89408000D01*
X99923241Y-89563363D01*
X99723363Y-89763241D01*
X99566320Y-89998273D01*
X99458147Y-90259426D01*
X99403000Y-90536665D01*
X99403000Y-90819335D01*
X99458147Y-91096574D01*
X99566320Y-91357727D01*
X99723363Y-91592759D01*
X99923241Y-91792637D01*
X100158273Y-91949680D01*
X100419426Y-92057853D01*
X100696665Y-92113000D01*
X100979335Y-92113000D01*
X101256574Y-92057853D01*
X101517727Y-91949680D01*
X101752759Y-91792637D01*
X101952637Y-91592759D01*
X102109680Y-91357727D01*
X102217853Y-91096574D01*
X102231684Y-91027039D01*
X102748096Y-91027039D01*
X102788754Y-91161087D01*
X102908963Y-91415420D01*
X103076481Y-91641414D01*
X103284869Y-91830385D01*
X103526119Y-91975070D01*
X103790960Y-92069909D01*
X104013000Y-91948624D01*
X104013000Y-90805000D01*
X104267000Y-90805000D01*
X104267000Y-91948624D01*
X104489040Y-92069909D01*
X104753881Y-91975070D01*
X104995131Y-91830385D01*
X105203519Y-91641414D01*
X105371037Y-91415420D01*
X105491246Y-91161087D01*
X105531904Y-91027039D01*
X105409915Y-90805000D01*
X104267000Y-90805000D01*
X104013000Y-90805000D01*
X102870085Y-90805000D01*
X102748096Y-91027039D01*
X102231684Y-91027039D01*
X102273000Y-90819335D01*
X102273000Y-90536665D01*
X102217853Y-90259426D01*
X102109680Y-89998273D01*
X101952637Y-89763241D01*
X101938532Y-89749136D01*
X102868969Y-88818699D01*
X103025363Y-89052759D01*
X103225241Y-89252637D01*
X103460273Y-89409680D01*
X103470865Y-89414067D01*
X103284869Y-89525615D01*
X103076481Y-89714586D01*
X102908963Y-89940580D01*
X102788754Y-90194913D01*
X102748096Y-90328961D01*
X102870085Y-90551000D01*
X104013000Y-90551000D01*
X104013000Y-90531000D01*
X104267000Y-90531000D01*
X104267000Y-90551000D01*
X105409915Y-90551000D01*
X105531904Y-90328961D01*
X105491246Y-90194913D01*
X105371037Y-89940580D01*
X105203519Y-89714586D01*
X104995131Y-89525615D01*
X104809135Y-89414067D01*
X104819727Y-89409680D01*
X105054759Y-89252637D01*
X105254637Y-89052759D01*
X105411680Y-88817727D01*
X105519853Y-88556574D01*
X105575000Y-88279335D01*
X105575000Y-87996665D01*
X105519853Y-87719426D01*
X105411680Y-87458273D01*
X105280653Y-87262177D01*
X110884177Y-81658653D01*
X111077759Y-81788000D01*
X110845241Y-81943363D01*
X110645363Y-82143241D01*
X110488320Y-82378273D01*
X110380147Y-82639426D01*
X110325000Y-82916665D01*
X110325000Y-83199335D01*
X110380147Y-83476574D01*
X110488320Y-83737727D01*
X110645363Y-83972759D01*
X110845241Y-84172637D01*
X111077759Y-84328000D01*
X110845241Y-84483363D01*
X110645363Y-84683241D01*
X110488320Y-84918273D01*
X110380147Y-85179426D01*
X110325000Y-85456665D01*
X110325000Y-85739335D01*
X110380147Y-86016574D01*
X110488320Y-86277727D01*
X110645363Y-86512759D01*
X110845241Y-86712637D01*
X111077759Y-86868000D01*
X110845241Y-87023363D01*
X110645363Y-87223241D01*
X110488320Y-87458273D01*
X110380147Y-87719426D01*
X110325000Y-87996665D01*
X110325000Y-88279335D01*
X110380147Y-88556574D01*
X110488320Y-88817727D01*
X110645363Y-89052759D01*
X110845241Y-89252637D01*
X111077759Y-89408000D01*
X110845241Y-89563363D01*
X110645363Y-89763241D01*
X110488320Y-89998273D01*
X110380147Y-90259426D01*
X110325000Y-90536665D01*
X110325000Y-90819335D01*
X110380147Y-91096574D01*
X110488320Y-91357727D01*
X110645363Y-91592759D01*
X110845241Y-91792637D01*
X111080273Y-91949680D01*
X111341426Y-92057853D01*
X111618665Y-92113000D01*
X111901335Y-92113000D01*
X112178574Y-92057853D01*
X112439727Y-91949680D01*
X112674759Y-91792637D01*
X112874637Y-91592759D01*
X113031680Y-91357727D01*
X113139853Y-91096574D01*
X113195000Y-90819335D01*
X113195000Y-90779261D01*
X125507800Y-90779261D01*
X125507800Y-90983139D01*
X125547574Y-91183098D01*
X125625595Y-91371456D01*
X125738863Y-91540974D01*
X125883026Y-91685137D01*
X126052544Y-91798405D01*
X126240902Y-91876426D01*
X126440861Y-91916200D01*
X126644739Y-91916200D01*
X126844698Y-91876426D01*
X127033056Y-91798405D01*
X127202574Y-91685137D01*
X127346737Y-91540974D01*
X127460005Y-91371456D01*
X127538026Y-91183098D01*
X127577800Y-90983139D01*
X127577800Y-90870858D01*
X127651627Y-90944685D01*
X127821145Y-91057953D01*
X128009503Y-91135974D01*
X128209462Y-91175748D01*
X128413340Y-91175748D01*
X128613299Y-91135974D01*
X128801657Y-91057953D01*
X128971175Y-90944685D01*
X129115338Y-90800522D01*
X129228606Y-90631004D01*
X129306627Y-90442646D01*
X129346401Y-90242687D01*
X129346401Y-90038809D01*
X129306627Y-89838850D01*
X129228606Y-89650492D01*
X129115338Y-89480974D01*
X128971175Y-89336811D01*
X128801657Y-89223543D01*
X128613299Y-89145522D01*
X128413340Y-89105748D01*
X128209462Y-89105748D01*
X128009503Y-89145522D01*
X127821145Y-89223543D01*
X127651627Y-89336811D01*
X127507464Y-89480974D01*
X127394196Y-89650492D01*
X127316175Y-89838850D01*
X127276401Y-90038809D01*
X127276401Y-90151090D01*
X127202574Y-90077263D01*
X127033056Y-89963995D01*
X126844698Y-89885974D01*
X126644739Y-89846200D01*
X126440861Y-89846200D01*
X126240902Y-89885974D01*
X126052544Y-89963995D01*
X125883026Y-90077263D01*
X125738863Y-90221426D01*
X125625595Y-90390944D01*
X125547574Y-90579302D01*
X125507800Y-90779261D01*
X113195000Y-90779261D01*
X113195000Y-90536665D01*
X113139853Y-90259426D01*
X113031680Y-89998273D01*
X112874637Y-89763241D01*
X112674759Y-89563363D01*
X112442241Y-89408000D01*
X112674759Y-89252637D01*
X112874637Y-89052759D01*
X113031680Y-88817727D01*
X113139853Y-88556574D01*
X113153684Y-88487039D01*
X113670096Y-88487039D01*
X113710754Y-88621087D01*
X113830963Y-88875420D01*
X113998481Y-89101414D01*
X114206869Y-89290385D01*
X114448119Y-89435070D01*
X114712960Y-89529909D01*
X114935000Y-89408624D01*
X114935000Y-88265000D01*
X115189000Y-88265000D01*
X115189000Y-89408624D01*
X115411040Y-89529909D01*
X115675881Y-89435070D01*
X115917131Y-89290385D01*
X116125519Y-89101414D01*
X116293037Y-88875420D01*
X116413246Y-88621087D01*
X116453904Y-88487039D01*
X116331915Y-88265000D01*
X115189000Y-88265000D01*
X114935000Y-88265000D01*
X113792085Y-88265000D01*
X113670096Y-88487039D01*
X113153684Y-88487039D01*
X113195000Y-88279335D01*
X113195000Y-87996665D01*
X113139853Y-87719426D01*
X113031680Y-87458273D01*
X112874637Y-87223241D01*
X112674759Y-87023363D01*
X112442241Y-86868000D01*
X112674759Y-86712637D01*
X112874637Y-86512759D01*
X113031680Y-86277727D01*
X113139853Y-86016574D01*
X113195000Y-85739335D01*
X113195000Y-85456665D01*
X113139853Y-85179426D01*
X113031680Y-84918273D01*
X112874637Y-84683241D01*
X112674759Y-84483363D01*
X112442241Y-84328000D01*
X112674759Y-84172637D01*
X112874637Y-83972759D01*
X113031680Y-83737727D01*
X113139853Y-83476574D01*
X113195000Y-83199335D01*
X113195000Y-82916665D01*
X113139853Y-82639426D01*
X113031680Y-82378273D01*
X112874637Y-82143241D01*
X112674759Y-81943363D01*
X112442241Y-81788000D01*
X112674759Y-81632637D01*
X112874637Y-81432759D01*
X113031680Y-81197727D01*
X113139853Y-80936574D01*
X113195000Y-80659335D01*
X113195000Y-80376665D01*
X113139853Y-80099426D01*
X113031680Y-79838273D01*
X112874637Y-79603241D01*
X112674759Y-79403363D01*
X112442241Y-79248000D01*
X112674759Y-79092637D01*
X112874637Y-78892759D01*
X113031680Y-78657727D01*
X113139853Y-78396574D01*
X113195000Y-78119335D01*
X113195000Y-77836665D01*
X113150509Y-77612999D01*
X113619369Y-77612999D01*
X113662843Y-77656473D01*
X113627000Y-77836665D01*
X113627000Y-78119335D01*
X113682147Y-78396574D01*
X113790320Y-78657727D01*
X113947363Y-78892759D01*
X114147241Y-79092637D01*
X114379759Y-79248000D01*
X114147241Y-79403363D01*
X113947363Y-79603241D01*
X113790320Y-79838273D01*
X113682147Y-80099426D01*
X113627000Y-80376665D01*
X113627000Y-80659335D01*
X113682147Y-80936574D01*
X113790320Y-81197727D01*
X113947363Y-81432759D01*
X114147241Y-81632637D01*
X114379759Y-81788000D01*
X114147241Y-81943363D01*
X113947363Y-82143241D01*
X113790320Y-82378273D01*
X113682147Y-82639426D01*
X113627000Y-82916665D01*
X113627000Y-83199335D01*
X113682147Y-83476574D01*
X113790320Y-83737727D01*
X113947363Y-83972759D01*
X114147241Y-84172637D01*
X114379759Y-84328000D01*
X114147241Y-84483363D01*
X113947363Y-84683241D01*
X113790320Y-84918273D01*
X113682147Y-85179426D01*
X113627000Y-85456665D01*
X113627000Y-85739335D01*
X113682147Y-86016574D01*
X113790320Y-86277727D01*
X113947363Y-86512759D01*
X114147241Y-86712637D01*
X114382273Y-86869680D01*
X114392865Y-86874067D01*
X114206869Y-86985615D01*
X113998481Y-87174586D01*
X113830963Y-87400580D01*
X113710754Y-87654913D01*
X113670096Y-87788961D01*
X113792085Y-88011000D01*
X114935000Y-88011000D01*
X114935000Y-87991000D01*
X115189000Y-87991000D01*
X115189000Y-88011000D01*
X116331915Y-88011000D01*
X116453904Y-87788961D01*
X116413246Y-87654913D01*
X116293037Y-87400580D01*
X116125519Y-87174586D01*
X115917131Y-86985615D01*
X115731135Y-86874067D01*
X115741727Y-86869680D01*
X115976759Y-86712637D01*
X116176637Y-86512759D01*
X116333680Y-86277727D01*
X116441853Y-86016574D01*
X116497000Y-85739335D01*
X116497000Y-85456665D01*
X116441853Y-85179426D01*
X116333680Y-84918273D01*
X116176637Y-84683241D01*
X115976759Y-84483363D01*
X115744241Y-84328000D01*
X115976759Y-84172637D01*
X116176637Y-83972759D01*
X116333680Y-83737727D01*
X116441853Y-83476574D01*
X116497000Y-83199335D01*
X116497000Y-82916665D01*
X116461157Y-82736474D01*
X116504632Y-82692999D01*
X121291491Y-82692999D01*
X121247000Y-82916665D01*
X121247000Y-83199335D01*
X121302147Y-83476574D01*
X121410320Y-83737727D01*
X121567363Y-83972759D01*
X121767241Y-84172637D01*
X121999759Y-84328000D01*
X121767241Y-84483363D01*
X121567363Y-84683241D01*
X121410320Y-84918273D01*
X121302147Y-85179426D01*
X121247000Y-85456665D01*
X121247000Y-85739335D01*
X121302147Y-86016574D01*
X121410320Y-86277727D01*
X121567363Y-86512759D01*
X121767241Y-86712637D01*
X121999759Y-86868000D01*
X121767241Y-87023363D01*
X121567363Y-87223241D01*
X121410320Y-87458273D01*
X121302147Y-87719426D01*
X121247000Y-87996665D01*
X121247000Y-88279335D01*
X121302147Y-88556574D01*
X121410320Y-88817727D01*
X121567363Y-89052759D01*
X121767241Y-89252637D01*
X122002273Y-89409680D01*
X122263426Y-89517853D01*
X122540665Y-89573000D01*
X122823335Y-89573000D01*
X123100574Y-89517853D01*
X123361727Y-89409680D01*
X123596759Y-89252637D01*
X123796637Y-89052759D01*
X123953680Y-88817727D01*
X124061853Y-88556574D01*
X124075684Y-88487039D01*
X124592096Y-88487039D01*
X124632754Y-88621087D01*
X124752963Y-88875420D01*
X124920481Y-89101414D01*
X125128869Y-89290385D01*
X125370119Y-89435070D01*
X125634960Y-89529909D01*
X125857000Y-89408624D01*
X125857000Y-88265000D01*
X126111000Y-88265000D01*
X126111000Y-89408624D01*
X126333040Y-89529909D01*
X126597881Y-89435070D01*
X126839131Y-89290385D01*
X127047519Y-89101414D01*
X127215037Y-88875420D01*
X127335246Y-88621087D01*
X127375904Y-88487039D01*
X127253915Y-88265000D01*
X126111000Y-88265000D01*
X125857000Y-88265000D01*
X124714085Y-88265000D01*
X124592096Y-88487039D01*
X124075684Y-88487039D01*
X124117000Y-88279335D01*
X124117000Y-87996665D01*
X124061853Y-87719426D01*
X123953680Y-87458273D01*
X123796637Y-87223241D01*
X123596759Y-87023363D01*
X123364241Y-86868000D01*
X123596759Y-86712637D01*
X123796637Y-86512759D01*
X123953680Y-86277727D01*
X124061853Y-86016574D01*
X124117000Y-85739335D01*
X124117000Y-85456665D01*
X124061853Y-85179426D01*
X123953680Y-84918273D01*
X123796637Y-84683241D01*
X123596759Y-84483363D01*
X123364241Y-84328000D01*
X123596759Y-84172637D01*
X123796637Y-83972759D01*
X123953680Y-83737727D01*
X124061853Y-83476574D01*
X124117000Y-83199335D01*
X124117000Y-82916665D01*
X124072509Y-82692999D01*
X124541369Y-82692999D01*
X124584843Y-82736473D01*
X124549000Y-82916665D01*
X124549000Y-83199335D01*
X124604147Y-83476574D01*
X124712320Y-83737727D01*
X124869363Y-83972759D01*
X125069241Y-84172637D01*
X125301759Y-84328000D01*
X125069241Y-84483363D01*
X124869363Y-84683241D01*
X124712320Y-84918273D01*
X124604147Y-85179426D01*
X124549000Y-85456665D01*
X124549000Y-85739335D01*
X124604147Y-86016574D01*
X124712320Y-86277727D01*
X124869363Y-86512759D01*
X125069241Y-86712637D01*
X125304273Y-86869680D01*
X125314865Y-86874067D01*
X125128869Y-86985615D01*
X124920481Y-87174586D01*
X124752963Y-87400580D01*
X124632754Y-87654913D01*
X124592096Y-87788961D01*
X124714085Y-88011000D01*
X125857000Y-88011000D01*
X125857000Y-87991000D01*
X126111000Y-87991000D01*
X126111000Y-88011000D01*
X127253915Y-88011000D01*
X127375904Y-87788961D01*
X127335246Y-87654913D01*
X127215037Y-87400580D01*
X127047519Y-87174586D01*
X126839131Y-86985615D01*
X126653135Y-86874067D01*
X126663727Y-86869680D01*
X126898759Y-86712637D01*
X127098637Y-86512759D01*
X127255680Y-86277727D01*
X127363853Y-86016574D01*
X127419000Y-85739335D01*
X127419000Y-85456665D01*
X127363853Y-85179426D01*
X127255680Y-84918273D01*
X127098637Y-84683241D01*
X126898759Y-84483363D01*
X126666241Y-84328000D01*
X126898759Y-84172637D01*
X127098637Y-83972759D01*
X127255680Y-83737727D01*
X127363853Y-83476574D01*
X127419000Y-83199335D01*
X127419000Y-82916665D01*
X127363853Y-82639426D01*
X127255680Y-82378273D01*
X127098637Y-82143241D01*
X126898759Y-81943363D01*
X126666241Y-81788000D01*
X126898759Y-81632637D01*
X127098637Y-81432759D01*
X127255680Y-81197727D01*
X127363853Y-80936574D01*
X127419000Y-80659335D01*
X127419000Y-80376665D01*
X127363853Y-80099426D01*
X127255680Y-79838273D01*
X127098637Y-79603241D01*
X126898759Y-79403363D01*
X126666241Y-79248000D01*
X126898759Y-79092637D01*
X127098637Y-78892759D01*
X127255680Y-78657727D01*
X127363853Y-78396574D01*
X127419000Y-78119335D01*
X127419000Y-77836665D01*
X127363853Y-77559426D01*
X127255680Y-77298273D01*
X127098637Y-77063241D01*
X126898759Y-76863363D01*
X126666241Y-76708000D01*
X126898759Y-76552637D01*
X127098637Y-76352759D01*
X127200707Y-76200000D01*
X131898615Y-76200000D01*
X131936038Y-76203686D01*
X131973461Y-76200000D01*
X131973464Y-76200000D01*
X132085416Y-76188974D01*
X132229053Y-76145402D01*
X132322986Y-76095194D01*
X132332320Y-76117727D01*
X132489363Y-76352759D01*
X132689241Y-76552637D01*
X132921759Y-76708000D01*
X132689241Y-76863363D01*
X132489363Y-77063241D01*
X132332320Y-77298273D01*
X132224147Y-77559426D01*
X132169000Y-77836665D01*
X132169000Y-78119335D01*
X132224147Y-78396574D01*
X132332320Y-78657727D01*
X132489363Y-78892759D01*
X132689241Y-79092637D01*
X132921759Y-79248000D01*
X132689241Y-79403363D01*
X132489363Y-79603241D01*
X132332320Y-79838273D01*
X132224147Y-80099426D01*
X132169000Y-80376665D01*
X132169000Y-80659335D01*
X132224147Y-80936574D01*
X132332320Y-81197727D01*
X132489363Y-81432759D01*
X132689241Y-81632637D01*
X132921759Y-81788000D01*
X132689241Y-81943363D01*
X132489363Y-82143241D01*
X132332320Y-82378273D01*
X132224147Y-82639426D01*
X132169000Y-82916665D01*
X132169000Y-83199335D01*
X132224147Y-83476574D01*
X132332320Y-83737727D01*
X132489363Y-83972759D01*
X132689241Y-84172637D01*
X132921759Y-84328000D01*
X132689241Y-84483363D01*
X132489363Y-84683241D01*
X132332320Y-84918273D01*
X132224147Y-85179426D01*
X132169000Y-85456665D01*
X132169000Y-85739335D01*
X132224147Y-86016574D01*
X132332320Y-86277727D01*
X132489363Y-86512759D01*
X132689241Y-86712637D01*
X132921759Y-86868000D01*
X132689241Y-87023363D01*
X132489363Y-87223241D01*
X132332320Y-87458273D01*
X132224147Y-87719426D01*
X132169000Y-87996665D01*
X132169000Y-88279335D01*
X132224147Y-88556574D01*
X132332320Y-88817727D01*
X132489363Y-89052759D01*
X132689241Y-89252637D01*
X132924273Y-89409680D01*
X133185426Y-89517853D01*
X133462665Y-89573000D01*
X133745335Y-89573000D01*
X133924865Y-89537289D01*
X133880595Y-89603544D01*
X133802574Y-89791902D01*
X133762800Y-89991861D01*
X133762800Y-90195739D01*
X133802574Y-90395698D01*
X133880595Y-90584056D01*
X133993863Y-90753574D01*
X134138026Y-90897737D01*
X134307544Y-91011005D01*
X134495902Y-91089026D01*
X134695861Y-91128800D01*
X134899739Y-91128800D01*
X135099698Y-91089026D01*
X135288056Y-91011005D01*
X135457574Y-90897737D01*
X135601737Y-90753574D01*
X135715005Y-90584056D01*
X135793026Y-90395698D01*
X135832800Y-90195739D01*
X135832800Y-89991861D01*
X135812876Y-89891695D01*
X150832520Y-89891695D01*
X150901822Y-90643938D01*
X151116548Y-91368208D01*
X151468445Y-92036670D01*
X151495452Y-92077088D01*
X151985119Y-92437276D01*
X154506395Y-89916000D01*
X151985119Y-87394724D01*
X151495452Y-87754912D01*
X151135151Y-88418882D01*
X150911306Y-89140385D01*
X150832520Y-89891695D01*
X135812876Y-89891695D01*
X135793026Y-89791902D01*
X135715005Y-89603544D01*
X135601737Y-89434026D01*
X135457574Y-89289863D01*
X135288056Y-89176595D01*
X135099698Y-89098574D01*
X134899739Y-89058800D01*
X134712596Y-89058800D01*
X134718637Y-89052759D01*
X134875680Y-88817727D01*
X134983853Y-88556574D01*
X134997684Y-88487039D01*
X135514096Y-88487039D01*
X135554754Y-88621087D01*
X135674963Y-88875420D01*
X135842481Y-89101414D01*
X136050869Y-89290385D01*
X136292119Y-89435070D01*
X136556960Y-89529909D01*
X136779000Y-89408624D01*
X136779000Y-88265000D01*
X137033000Y-88265000D01*
X137033000Y-89408624D01*
X137255040Y-89529909D01*
X137519881Y-89435070D01*
X137761131Y-89290385D01*
X137969519Y-89101414D01*
X138137037Y-88875420D01*
X138257246Y-88621087D01*
X138297904Y-88487039D01*
X138175915Y-88265000D01*
X137033000Y-88265000D01*
X136779000Y-88265000D01*
X135636085Y-88265000D01*
X135514096Y-88487039D01*
X134997684Y-88487039D01*
X135039000Y-88279335D01*
X135039000Y-87996665D01*
X134983853Y-87719426D01*
X134875680Y-87458273D01*
X134718637Y-87223241D01*
X134518759Y-87023363D01*
X134286241Y-86868000D01*
X134518759Y-86712637D01*
X134718637Y-86512759D01*
X134875680Y-86277727D01*
X134983853Y-86016574D01*
X135039000Y-85739335D01*
X135039000Y-85456665D01*
X134983853Y-85179426D01*
X134875680Y-84918273D01*
X134718637Y-84683241D01*
X134518759Y-84483363D01*
X134286241Y-84328000D01*
X134518759Y-84172637D01*
X134718637Y-83972759D01*
X134875680Y-83737727D01*
X134983853Y-83476574D01*
X135039000Y-83199335D01*
X135039000Y-82916665D01*
X134983853Y-82639426D01*
X134875680Y-82378273D01*
X134718637Y-82143241D01*
X134518759Y-81943363D01*
X134286241Y-81788000D01*
X134518759Y-81632637D01*
X134718637Y-81432759D01*
X134875680Y-81197727D01*
X134983853Y-80936574D01*
X135039000Y-80659335D01*
X135039000Y-80376665D01*
X134983853Y-80099426D01*
X134875680Y-79838273D01*
X134718637Y-79603241D01*
X134518759Y-79403363D01*
X134286241Y-79248000D01*
X134518759Y-79092637D01*
X134718637Y-78892759D01*
X134875680Y-78657727D01*
X134983853Y-78396574D01*
X135039000Y-78119335D01*
X135039000Y-77836665D01*
X134983853Y-77559426D01*
X134887580Y-77327001D01*
X135622420Y-77327001D01*
X135526147Y-77559426D01*
X135471000Y-77836665D01*
X135471000Y-78119335D01*
X135526147Y-78396574D01*
X135634320Y-78657727D01*
X135791363Y-78892759D01*
X135991241Y-79092637D01*
X136223759Y-79248000D01*
X135991241Y-79403363D01*
X135791363Y-79603241D01*
X135634320Y-79838273D01*
X135526147Y-80099426D01*
X135471000Y-80376665D01*
X135471000Y-80659335D01*
X135526147Y-80936574D01*
X135634320Y-81197727D01*
X135791363Y-81432759D01*
X135991241Y-81632637D01*
X136223759Y-81788000D01*
X135991241Y-81943363D01*
X135791363Y-82143241D01*
X135634320Y-82378273D01*
X135526147Y-82639426D01*
X135471000Y-82916665D01*
X135471000Y-83199335D01*
X135526147Y-83476574D01*
X135634320Y-83737727D01*
X135791363Y-83972759D01*
X135991241Y-84172637D01*
X136223759Y-84328000D01*
X135991241Y-84483363D01*
X135791363Y-84683241D01*
X135634320Y-84918273D01*
X135526147Y-85179426D01*
X135471000Y-85456665D01*
X135471000Y-85739335D01*
X135526147Y-86016574D01*
X135634320Y-86277727D01*
X135791363Y-86512759D01*
X135991241Y-86712637D01*
X136226273Y-86869680D01*
X136236865Y-86874067D01*
X136050869Y-86985615D01*
X135842481Y-87174586D01*
X135674963Y-87400580D01*
X135554754Y-87654913D01*
X135514096Y-87788961D01*
X135636085Y-88011000D01*
X136779000Y-88011000D01*
X136779000Y-87991000D01*
X137033000Y-87991000D01*
X137033000Y-88011000D01*
X138175915Y-88011000D01*
X138297904Y-87788961D01*
X138257246Y-87654913D01*
X138137037Y-87400580D01*
X137969519Y-87174586D01*
X137761131Y-86985615D01*
X137575135Y-86874067D01*
X137585727Y-86869680D01*
X137820759Y-86712637D01*
X138020637Y-86512759D01*
X138177680Y-86277727D01*
X138285853Y-86016574D01*
X138341000Y-85739335D01*
X138341000Y-85456665D01*
X138285853Y-85179426D01*
X138177680Y-84918273D01*
X138020637Y-84683241D01*
X137820759Y-84483363D01*
X137588241Y-84328000D01*
X137820759Y-84172637D01*
X138020637Y-83972759D01*
X138177680Y-83737727D01*
X138285853Y-83476574D01*
X138341000Y-83199335D01*
X138341000Y-82916665D01*
X138285853Y-82639426D01*
X138177680Y-82378273D01*
X138020637Y-82143241D01*
X137820759Y-81943363D01*
X137588241Y-81788000D01*
X137820759Y-81632637D01*
X138020637Y-81432759D01*
X138177680Y-81197727D01*
X138285853Y-80936574D01*
X138341000Y-80659335D01*
X138341000Y-80376665D01*
X138285853Y-80099426D01*
X138177680Y-79838273D01*
X138020637Y-79603241D01*
X137820759Y-79403363D01*
X137588241Y-79248000D01*
X137820759Y-79092637D01*
X138020637Y-78892759D01*
X138177680Y-78657727D01*
X138285853Y-78396574D01*
X138341000Y-78119335D01*
X138341000Y-77836665D01*
X138285853Y-77559426D01*
X138189580Y-77327001D01*
X142797371Y-77327001D01*
X143126843Y-77656473D01*
X143091000Y-77836665D01*
X143091000Y-78119335D01*
X143146147Y-78396574D01*
X143254320Y-78657727D01*
X143411363Y-78892759D01*
X143611241Y-79092637D01*
X143843759Y-79248000D01*
X143611241Y-79403363D01*
X143411363Y-79603241D01*
X143254320Y-79838273D01*
X143146147Y-80099426D01*
X143091000Y-80376665D01*
X143091000Y-80659335D01*
X143146147Y-80936574D01*
X143254320Y-81197727D01*
X143411363Y-81432759D01*
X143611241Y-81632637D01*
X143843759Y-81788000D01*
X143611241Y-81943363D01*
X143411363Y-82143241D01*
X143254320Y-82378273D01*
X143146147Y-82639426D01*
X143091000Y-82916665D01*
X143091000Y-83199335D01*
X143146147Y-83476574D01*
X143254320Y-83737727D01*
X143411363Y-83972759D01*
X143611241Y-84172637D01*
X143843759Y-84328000D01*
X143611241Y-84483363D01*
X143411363Y-84683241D01*
X143254320Y-84918273D01*
X143146147Y-85179426D01*
X143091000Y-85456665D01*
X143091000Y-85739335D01*
X143146147Y-86016574D01*
X143254320Y-86277727D01*
X143411363Y-86512759D01*
X143611241Y-86712637D01*
X143843759Y-86868000D01*
X143611241Y-87023363D01*
X143411363Y-87223241D01*
X143254320Y-87458273D01*
X143146147Y-87719426D01*
X143091000Y-87996665D01*
X143091000Y-88279335D01*
X143146147Y-88556574D01*
X143254320Y-88817727D01*
X143411363Y-89052759D01*
X143611241Y-89252637D01*
X143846273Y-89409680D01*
X144107426Y-89517853D01*
X144384665Y-89573000D01*
X144667335Y-89573000D01*
X144944574Y-89517853D01*
X145205727Y-89409680D01*
X145440759Y-89252637D01*
X145640637Y-89052759D01*
X145797680Y-88817727D01*
X145905853Y-88556574D01*
X145961000Y-88279335D01*
X145961000Y-87996665D01*
X145905853Y-87719426D01*
X145797680Y-87458273D01*
X145640637Y-87223241D01*
X145440759Y-87023363D01*
X145273675Y-86911721D01*
X146277200Y-86911721D01*
X146277200Y-87332279D01*
X146359247Y-87744756D01*
X146520188Y-88133302D01*
X146753837Y-88482983D01*
X147051217Y-88780363D01*
X147400898Y-89014012D01*
X147789444Y-89174953D01*
X148201921Y-89257000D01*
X148622479Y-89257000D01*
X149034956Y-89174953D01*
X149423502Y-89014012D01*
X149773183Y-88780363D01*
X150070563Y-88482983D01*
X150304212Y-88133302D01*
X150465153Y-87744756D01*
X150547200Y-87332279D01*
X150547200Y-87215119D01*
X152164724Y-87215119D01*
X154686000Y-89736395D01*
X157207276Y-87215119D01*
X156847088Y-86725452D01*
X156183118Y-86365151D01*
X155461615Y-86141306D01*
X154710305Y-86062520D01*
X153958062Y-86131822D01*
X153233792Y-86346548D01*
X152565330Y-86698445D01*
X152524912Y-86725452D01*
X152164724Y-87215119D01*
X150547200Y-87215119D01*
X150547200Y-86911721D01*
X150465153Y-86499244D01*
X150304212Y-86110698D01*
X150070563Y-85761017D01*
X149773183Y-85463637D01*
X149423502Y-85229988D01*
X149034956Y-85069047D01*
X148622479Y-84987000D01*
X148201921Y-84987000D01*
X147789444Y-85069047D01*
X147400898Y-85229988D01*
X147051217Y-85463637D01*
X146753837Y-85761017D01*
X146520188Y-86110698D01*
X146359247Y-86499244D01*
X146277200Y-86911721D01*
X145273675Y-86911721D01*
X145208241Y-86868000D01*
X145440759Y-86712637D01*
X145640637Y-86512759D01*
X145797680Y-86277727D01*
X145905853Y-86016574D01*
X145961000Y-85739335D01*
X145961000Y-85456665D01*
X145905853Y-85179426D01*
X145797680Y-84918273D01*
X145640637Y-84683241D01*
X145440759Y-84483363D01*
X145208241Y-84328000D01*
X145440759Y-84172637D01*
X145640637Y-83972759D01*
X145797680Y-83737727D01*
X145905853Y-83476574D01*
X145961000Y-83199335D01*
X145961000Y-82916665D01*
X145905853Y-82639426D01*
X145797680Y-82378273D01*
X145640637Y-82143241D01*
X145440759Y-81943363D01*
X145208241Y-81788000D01*
X145440759Y-81632637D01*
X145640637Y-81432759D01*
X145797680Y-81197727D01*
X145834383Y-81109117D01*
X147109000Y-81109117D01*
X147109000Y-81450883D01*
X147175675Y-81786081D01*
X147306463Y-82101831D01*
X147496337Y-82385998D01*
X147738002Y-82627663D01*
X148022169Y-82817537D01*
X148337919Y-82948325D01*
X148673117Y-83015000D01*
X149014883Y-83015000D01*
X149350081Y-82948325D01*
X149665831Y-82817537D01*
X149949998Y-82627663D01*
X150191663Y-82385998D01*
X150381537Y-82101831D01*
X150512325Y-81786081D01*
X150579000Y-81450883D01*
X150579000Y-81109117D01*
X150512325Y-80773919D01*
X150381537Y-80458169D01*
X150195671Y-80180000D01*
X154725928Y-80180000D01*
X154725928Y-82380000D01*
X154738188Y-82504482D01*
X154774498Y-82624180D01*
X154833463Y-82734494D01*
X154912815Y-82831185D01*
X155009506Y-82910537D01*
X155119820Y-82969502D01*
X155239518Y-83005812D01*
X155364000Y-83018072D01*
X157564000Y-83018072D01*
X157688482Y-83005812D01*
X157808180Y-82969502D01*
X157918494Y-82910537D01*
X158015185Y-82831185D01*
X158094537Y-82734494D01*
X158153502Y-82624180D01*
X158189812Y-82504482D01*
X158202072Y-82380000D01*
X158202072Y-80180000D01*
X158189812Y-80055518D01*
X158153502Y-79935820D01*
X158094537Y-79825506D01*
X158015185Y-79728815D01*
X157918494Y-79649463D01*
X157808180Y-79590498D01*
X157688482Y-79554188D01*
X157564000Y-79541928D01*
X155364000Y-79541928D01*
X155239518Y-79554188D01*
X155119820Y-79590498D01*
X155009506Y-79649463D01*
X154912815Y-79728815D01*
X154833463Y-79825506D01*
X154774498Y-79935820D01*
X154738188Y-80055518D01*
X154725928Y-80180000D01*
X150195671Y-80180000D01*
X150191663Y-80174002D01*
X149949998Y-79932337D01*
X149665831Y-79742463D01*
X149350081Y-79611675D01*
X149014883Y-79545000D01*
X148673117Y-79545000D01*
X148337919Y-79611675D01*
X148022169Y-79742463D01*
X147738002Y-79932337D01*
X147496337Y-80174002D01*
X147306463Y-80458169D01*
X147175675Y-80773919D01*
X147109000Y-81109117D01*
X145834383Y-81109117D01*
X145905853Y-80936574D01*
X145961000Y-80659335D01*
X145961000Y-80376665D01*
X145905853Y-80099426D01*
X145797680Y-79838273D01*
X145640637Y-79603241D01*
X145440759Y-79403363D01*
X145208241Y-79248000D01*
X145440759Y-79092637D01*
X145640637Y-78892759D01*
X145797680Y-78657727D01*
X145905853Y-78396574D01*
X145961000Y-78119335D01*
X145961000Y-77836665D01*
X145905853Y-77559426D01*
X145797680Y-77298273D01*
X145640637Y-77063241D01*
X145440759Y-76863363D01*
X145208241Y-76708000D01*
X145419764Y-76566665D01*
X147409000Y-76566665D01*
X147409000Y-76849335D01*
X147464147Y-77126574D01*
X147572320Y-77387727D01*
X147729363Y-77622759D01*
X147929241Y-77822637D01*
X148164273Y-77979680D01*
X148425426Y-78087853D01*
X148702665Y-78143000D01*
X148985335Y-78143000D01*
X149262574Y-78087853D01*
X149523727Y-77979680D01*
X149758759Y-77822637D01*
X149958637Y-77622759D01*
X150115680Y-77387727D01*
X150223853Y-77126574D01*
X150279000Y-76849335D01*
X150279000Y-76566665D01*
X155029000Y-76566665D01*
X155029000Y-76849335D01*
X155084147Y-77126574D01*
X155192320Y-77387727D01*
X155349363Y-77622759D01*
X155549241Y-77822637D01*
X155784273Y-77979680D01*
X156045426Y-78087853D01*
X156322665Y-78143000D01*
X156605335Y-78143000D01*
X156882574Y-78087853D01*
X157143727Y-77979680D01*
X157378759Y-77822637D01*
X157578637Y-77622759D01*
X157735680Y-77387727D01*
X157843853Y-77126574D01*
X157899000Y-76849335D01*
X157899000Y-76566665D01*
X157843853Y-76289426D01*
X157735680Y-76028273D01*
X157578637Y-75793241D01*
X157378759Y-75593363D01*
X157143727Y-75436320D01*
X156882574Y-75328147D01*
X156605335Y-75273000D01*
X156322665Y-75273000D01*
X156045426Y-75328147D01*
X155784273Y-75436320D01*
X155549241Y-75593363D01*
X155349363Y-75793241D01*
X155192320Y-76028273D01*
X155084147Y-76289426D01*
X155029000Y-76566665D01*
X150279000Y-76566665D01*
X150223853Y-76289426D01*
X150115680Y-76028273D01*
X149958637Y-75793241D01*
X149758759Y-75593363D01*
X149523727Y-75436320D01*
X149262574Y-75328147D01*
X148985335Y-75273000D01*
X148702665Y-75273000D01*
X148425426Y-75328147D01*
X148164273Y-75436320D01*
X147929241Y-75593363D01*
X147729363Y-75793241D01*
X147572320Y-76028273D01*
X147464147Y-76289426D01*
X147409000Y-76566665D01*
X145419764Y-76566665D01*
X145440759Y-76552637D01*
X145640637Y-76352759D01*
X145797680Y-76117727D01*
X145905853Y-75856574D01*
X145961000Y-75579335D01*
X145961000Y-75296665D01*
X145905853Y-75019426D01*
X145797680Y-74758273D01*
X145642926Y-74526666D01*
X147412927Y-72756665D01*
X149949000Y-72756665D01*
X149949000Y-73039335D01*
X150004147Y-73316574D01*
X150112320Y-73577727D01*
X150269363Y-73812759D01*
X150469241Y-74012637D01*
X150704273Y-74169680D01*
X150965426Y-74277853D01*
X151242665Y-74333000D01*
X151525335Y-74333000D01*
X151802574Y-74277853D01*
X152063727Y-74169680D01*
X152298759Y-74012637D01*
X152420694Y-73890702D01*
X155570903Y-73890702D01*
X155642486Y-74134671D01*
X155897996Y-74255571D01*
X156172184Y-74324300D01*
X156454512Y-74338217D01*
X156734130Y-74296787D01*
X157000292Y-74201603D01*
X157125514Y-74134671D01*
X157197097Y-73890702D01*
X156384000Y-73077605D01*
X155570903Y-73890702D01*
X152420694Y-73890702D01*
X152498637Y-73812759D01*
X152655680Y-73577727D01*
X152763853Y-73316574D01*
X152819000Y-73039335D01*
X152819000Y-72968512D01*
X154943783Y-72968512D01*
X154985213Y-73248130D01*
X155080397Y-73514292D01*
X155147329Y-73639514D01*
X155391298Y-73711097D01*
X156204395Y-72898000D01*
X156563605Y-72898000D01*
X157376702Y-73711097D01*
X157620671Y-73639514D01*
X157741571Y-73384004D01*
X157810300Y-73109816D01*
X157824217Y-72827488D01*
X157782787Y-72547870D01*
X157687603Y-72281708D01*
X157620671Y-72156486D01*
X157376702Y-72084903D01*
X156563605Y-72898000D01*
X156204395Y-72898000D01*
X155391298Y-72084903D01*
X155147329Y-72156486D01*
X155026429Y-72411996D01*
X154957700Y-72686184D01*
X154943783Y-72968512D01*
X152819000Y-72968512D01*
X152819000Y-72756665D01*
X152763853Y-72479426D01*
X152655680Y-72218273D01*
X152498637Y-71983241D01*
X152420694Y-71905298D01*
X155570903Y-71905298D01*
X156384000Y-72718395D01*
X157197097Y-71905298D01*
X157125514Y-71661329D01*
X156870004Y-71540429D01*
X156595816Y-71471700D01*
X156313488Y-71457783D01*
X156033870Y-71499213D01*
X155767708Y-71594397D01*
X155642486Y-71661329D01*
X155570903Y-71905298D01*
X152420694Y-71905298D01*
X152298759Y-71783363D01*
X152063727Y-71626320D01*
X151802574Y-71518147D01*
X151525335Y-71463000D01*
X151242665Y-71463000D01*
X150965426Y-71518147D01*
X150704273Y-71626320D01*
X150469241Y-71783363D01*
X150269363Y-71983241D01*
X150112320Y-72218273D01*
X150004147Y-72479426D01*
X149949000Y-72756665D01*
X147412927Y-72756665D01*
X148772153Y-71397440D01*
X148801222Y-71373584D01*
X148896445Y-71257554D01*
X148967202Y-71125177D01*
X149010774Y-70981540D01*
X149021800Y-70869588D01*
X149021800Y-70869586D01*
X149025486Y-70832163D01*
X149021800Y-70794740D01*
X149021800Y-70626076D01*
X149271102Y-70522812D01*
X149620783Y-70289163D01*
X149918163Y-69991783D01*
X150151812Y-69642102D01*
X150312753Y-69253556D01*
X150394800Y-68841079D01*
X150394800Y-68420521D01*
X150312753Y-68008044D01*
X150151812Y-67619498D01*
X149918163Y-67269817D01*
X149620783Y-66972437D01*
X149606482Y-66962881D01*
X152164724Y-66962881D01*
X152524912Y-67452548D01*
X153188882Y-67812849D01*
X153910385Y-68036694D01*
X154661695Y-68115480D01*
X155413938Y-68046178D01*
X156138208Y-67831452D01*
X156806670Y-67479555D01*
X156847088Y-67452548D01*
X157207276Y-66962881D01*
X154686000Y-64441605D01*
X152164724Y-66962881D01*
X149606482Y-66962881D01*
X149271102Y-66738788D01*
X148882556Y-66577847D01*
X148470079Y-66495800D01*
X148049521Y-66495800D01*
X147637044Y-66577847D01*
X147248498Y-66738788D01*
X146898817Y-66972437D01*
X146601437Y-67269817D01*
X146367788Y-67619498D01*
X146206847Y-68008044D01*
X146124800Y-68420521D01*
X146124800Y-68841079D01*
X146206847Y-69253556D01*
X146367788Y-69642102D01*
X146601437Y-69991783D01*
X146898817Y-70289163D01*
X147248498Y-70522812D01*
X147420340Y-70593991D01*
X145797031Y-72217301D01*
X145640637Y-71983241D01*
X145440759Y-71783363D01*
X145205727Y-71626320D01*
X144944574Y-71518147D01*
X144667335Y-71463000D01*
X144384665Y-71463000D01*
X144107426Y-71518147D01*
X143846273Y-71626320D01*
X143611241Y-71783363D01*
X143411363Y-71983241D01*
X143254320Y-72218273D01*
X143146147Y-72479426D01*
X143091000Y-72756665D01*
X143091000Y-73039335D01*
X143146147Y-73316574D01*
X143254320Y-73577727D01*
X143409074Y-73809333D01*
X142600650Y-74617758D01*
X142571580Y-74641615D01*
X142547723Y-74670685D01*
X142547722Y-74670686D01*
X142476356Y-74757645D01*
X142405600Y-74890022D01*
X142362028Y-75033659D01*
X142347315Y-75183037D01*
X142351002Y-75220470D01*
X142351002Y-75803001D01*
X138296509Y-75803001D01*
X138341000Y-75579335D01*
X138341000Y-75296665D01*
X138285853Y-75019426D01*
X138177680Y-74758273D01*
X138020637Y-74523241D01*
X137822039Y-74324643D01*
X137830482Y-74323812D01*
X137950180Y-74287502D01*
X138060494Y-74228537D01*
X138157185Y-74149185D01*
X138236537Y-74052494D01*
X138295502Y-73942180D01*
X138331812Y-73822482D01*
X138344072Y-73698000D01*
X138344072Y-72098000D01*
X138331812Y-71973518D01*
X138295502Y-71853820D01*
X138236537Y-71743506D01*
X138157185Y-71646815D01*
X138060494Y-71567463D01*
X137950180Y-71508498D01*
X137830482Y-71472188D01*
X137706000Y-71459928D01*
X137564731Y-71459928D01*
X137542645Y-71418608D01*
X137447422Y-71302578D01*
X137418342Y-71278713D01*
X137360075Y-71220446D01*
X137336212Y-71191368D01*
X137220182Y-71096145D01*
X137087805Y-71025388D01*
X136944168Y-70981816D01*
X136832216Y-70970790D01*
X136832213Y-70970790D01*
X136794790Y-70967104D01*
X136757367Y-70970790D01*
X134339515Y-70970790D01*
X134377097Y-70842702D01*
X133564000Y-70029605D01*
X132750903Y-70842702D01*
X132788485Y-70970790D01*
X131969550Y-70970790D01*
X131978759Y-70964637D01*
X132178637Y-70764759D01*
X132312692Y-70564131D01*
X132327329Y-70591514D01*
X132571298Y-70663097D01*
X133384395Y-69850000D01*
X133370253Y-69835858D01*
X133549858Y-69656253D01*
X133564000Y-69670395D01*
X133578143Y-69656253D01*
X133757748Y-69835858D01*
X133743605Y-69850000D01*
X134556702Y-70663097D01*
X134800671Y-70591514D01*
X134921571Y-70336004D01*
X134958734Y-70187746D01*
X135008809Y-70197706D01*
X135212687Y-70197706D01*
X135412646Y-70157932D01*
X135601004Y-70079911D01*
X135770522Y-69966643D01*
X135914685Y-69822480D01*
X135990733Y-69708665D01*
X140591000Y-69708665D01*
X140591000Y-69991335D01*
X140646147Y-70268574D01*
X140754320Y-70529727D01*
X140911363Y-70764759D01*
X141111241Y-70964637D01*
X141346273Y-71121680D01*
X141607426Y-71229853D01*
X141884665Y-71285000D01*
X142167335Y-71285000D01*
X142444574Y-71229853D01*
X142705727Y-71121680D01*
X142940759Y-70964637D01*
X143062694Y-70842702D01*
X143712903Y-70842702D01*
X143784486Y-71086671D01*
X144039996Y-71207571D01*
X144314184Y-71276300D01*
X144596512Y-71290217D01*
X144876130Y-71248787D01*
X145142292Y-71153603D01*
X145267514Y-71086671D01*
X145339097Y-70842702D01*
X144526000Y-70029605D01*
X143712903Y-70842702D01*
X143062694Y-70842702D01*
X143140637Y-70764759D01*
X143274692Y-70564131D01*
X143289329Y-70591514D01*
X143533298Y-70663097D01*
X144346395Y-69850000D01*
X144705605Y-69850000D01*
X145518702Y-70663097D01*
X145762671Y-70591514D01*
X145883571Y-70336004D01*
X145952300Y-70061816D01*
X145966217Y-69779488D01*
X145924787Y-69499870D01*
X145829603Y-69233708D01*
X145762671Y-69108486D01*
X145518702Y-69036903D01*
X144705605Y-69850000D01*
X144346395Y-69850000D01*
X143533298Y-69036903D01*
X143289329Y-69108486D01*
X143275676Y-69137341D01*
X143140637Y-68935241D01*
X143062694Y-68857298D01*
X143712903Y-68857298D01*
X144526000Y-69670395D01*
X145339097Y-68857298D01*
X145267514Y-68613329D01*
X145012004Y-68492429D01*
X144737816Y-68423700D01*
X144455488Y-68409783D01*
X144175870Y-68451213D01*
X143909708Y-68546397D01*
X143784486Y-68613329D01*
X143712903Y-68857298D01*
X143062694Y-68857298D01*
X142940759Y-68735363D01*
X142705727Y-68578320D01*
X142444574Y-68470147D01*
X142167335Y-68415000D01*
X141884665Y-68415000D01*
X141607426Y-68470147D01*
X141346273Y-68578320D01*
X141111241Y-68735363D01*
X140911363Y-68935241D01*
X140754320Y-69170273D01*
X140646147Y-69431426D01*
X140591000Y-69708665D01*
X135990733Y-69708665D01*
X136027953Y-69652962D01*
X136105974Y-69464604D01*
X136145748Y-69264645D01*
X136145748Y-69060767D01*
X136105974Y-68860808D01*
X136027953Y-68672450D01*
X135936108Y-68534994D01*
X135961861Y-68560747D01*
X136076553Y-68446055D01*
X136232562Y-68761614D01*
X136607345Y-68952420D01*
X137012151Y-69066444D01*
X137431424Y-69099302D01*
X137849051Y-69049734D01*
X138248983Y-68919643D01*
X138544638Y-68761614D01*
X138700648Y-68446053D01*
X137388600Y-67134005D01*
X137374458Y-67148148D01*
X137194853Y-66968543D01*
X137208995Y-66954400D01*
X137568205Y-66954400D01*
X138880253Y-68266448D01*
X139195814Y-68110438D01*
X139386620Y-67735655D01*
X139500644Y-67330849D01*
X139533502Y-66911576D01*
X139483934Y-66493949D01*
X139353843Y-66094017D01*
X139195814Y-65798362D01*
X138880253Y-65642352D01*
X137568205Y-66954400D01*
X137208995Y-66954400D01*
X135896947Y-65642352D01*
X135581386Y-65798362D01*
X135390580Y-66173145D01*
X135276556Y-66577951D01*
X135243698Y-66997224D01*
X135293266Y-67414851D01*
X135423357Y-67814783D01*
X135581386Y-68110438D01*
X135896945Y-68266447D01*
X135787573Y-68375820D01*
X135770522Y-68358769D01*
X135601004Y-68245501D01*
X135412646Y-68167480D01*
X135212687Y-68127706D01*
X135153378Y-68127706D01*
X134997938Y-67972266D01*
X134974076Y-67943190D01*
X134858046Y-67847967D01*
X134725669Y-67777210D01*
X134582032Y-67733638D01*
X134470080Y-67722612D01*
X134470077Y-67722612D01*
X134432654Y-67718926D01*
X134395231Y-67722612D01*
X115028243Y-67722612D01*
X112768378Y-65462747D01*
X136076552Y-65462747D01*
X137388600Y-66774795D01*
X138700648Y-65462747D01*
X138544638Y-65147186D01*
X138169855Y-64956380D01*
X137765049Y-64842356D01*
X137345776Y-64809498D01*
X136928149Y-64859066D01*
X136528217Y-64989157D01*
X136232562Y-65147186D01*
X136076552Y-65462747D01*
X112768378Y-65462747D01*
X111543326Y-64237695D01*
X150832520Y-64237695D01*
X150901822Y-64989938D01*
X151116548Y-65714208D01*
X151468445Y-66382670D01*
X151495452Y-66423088D01*
X151985119Y-66783276D01*
X154506395Y-64262000D01*
X151985119Y-61740724D01*
X151495452Y-62100912D01*
X151135151Y-62764882D01*
X150911306Y-63486385D01*
X150832520Y-64237695D01*
X111543326Y-64237695D01*
X111274630Y-63969000D01*
X111398260Y-63969000D01*
X111685158Y-63911932D01*
X111955411Y-63799990D01*
X112198632Y-63637475D01*
X112405475Y-63430632D01*
X112522000Y-63256240D01*
X112638525Y-63430632D01*
X112845368Y-63637475D01*
X113088589Y-63799990D01*
X113358842Y-63911932D01*
X113645740Y-63969000D01*
X113938260Y-63969000D01*
X114225158Y-63911932D01*
X114495411Y-63799990D01*
X114738632Y-63637475D01*
X114945475Y-63430632D01*
X115062000Y-63256240D01*
X115178525Y-63430632D01*
X115385368Y-63637475D01*
X115628589Y-63799990D01*
X115898842Y-63911932D01*
X116185740Y-63969000D01*
X116478260Y-63969000D01*
X116765158Y-63911932D01*
X117035411Y-63799990D01*
X117278632Y-63637475D01*
X117485475Y-63430632D01*
X117602000Y-63256240D01*
X117718525Y-63430632D01*
X117925368Y-63637475D01*
X118168589Y-63799990D01*
X118438842Y-63911932D01*
X118725740Y-63969000D01*
X119018260Y-63969000D01*
X119305158Y-63911932D01*
X119575411Y-63799990D01*
X119818632Y-63637475D01*
X120025475Y-63430632D01*
X120142000Y-63256240D01*
X120258525Y-63430632D01*
X120465368Y-63637475D01*
X120708589Y-63799990D01*
X120978842Y-63911932D01*
X121265740Y-63969000D01*
X121558260Y-63969000D01*
X121845158Y-63911932D01*
X122115411Y-63799990D01*
X122358632Y-63637475D01*
X122565475Y-63430632D01*
X122682000Y-63256240D01*
X122798525Y-63430632D01*
X123005368Y-63637475D01*
X123248589Y-63799990D01*
X123518842Y-63911932D01*
X123805740Y-63969000D01*
X124098260Y-63969000D01*
X124385158Y-63911932D01*
X124655411Y-63799990D01*
X124898632Y-63637475D01*
X125105475Y-63430632D01*
X125222000Y-63256240D01*
X125338525Y-63430632D01*
X125545368Y-63637475D01*
X125788589Y-63799990D01*
X126058842Y-63911932D01*
X126345740Y-63969000D01*
X126638260Y-63969000D01*
X126925158Y-63911932D01*
X127195411Y-63799990D01*
X127438632Y-63637475D01*
X127645475Y-63430632D01*
X127762000Y-63256240D01*
X127878525Y-63430632D01*
X128085368Y-63637475D01*
X128328589Y-63799990D01*
X128598842Y-63911932D01*
X128885740Y-63969000D01*
X129178260Y-63969000D01*
X129465158Y-63911932D01*
X129735411Y-63799990D01*
X129978632Y-63637475D01*
X130185475Y-63430632D01*
X130302000Y-63256240D01*
X130418525Y-63430632D01*
X130625368Y-63637475D01*
X130868589Y-63799990D01*
X131138842Y-63911932D01*
X131425740Y-63969000D01*
X131718260Y-63969000D01*
X132005158Y-63911932D01*
X132275411Y-63799990D01*
X132518632Y-63637475D01*
X132725475Y-63430632D01*
X132842000Y-63256240D01*
X132958525Y-63430632D01*
X133165368Y-63637475D01*
X133408589Y-63799990D01*
X133678842Y-63911932D01*
X133965740Y-63969000D01*
X134258260Y-63969000D01*
X134545158Y-63911932D01*
X134815411Y-63799990D01*
X135058632Y-63637475D01*
X135265475Y-63430632D01*
X135427990Y-63187411D01*
X135539932Y-62917158D01*
X135597000Y-62630260D01*
X135597000Y-62342665D01*
X138011000Y-62342665D01*
X138011000Y-62625335D01*
X138066147Y-62902574D01*
X138174320Y-63163727D01*
X138331363Y-63398759D01*
X138531241Y-63598637D01*
X138766273Y-63755680D01*
X139027426Y-63863853D01*
X139304665Y-63919000D01*
X139587335Y-63919000D01*
X139864574Y-63863853D01*
X140125727Y-63755680D01*
X140360759Y-63598637D01*
X140560637Y-63398759D01*
X140717680Y-63163727D01*
X140825853Y-62902574D01*
X140839684Y-62833039D01*
X145674096Y-62833039D01*
X145714754Y-62967087D01*
X145834963Y-63221420D01*
X146002481Y-63447414D01*
X146210869Y-63636385D01*
X146452119Y-63781070D01*
X146716960Y-63875909D01*
X146939000Y-63754624D01*
X146939000Y-62611000D01*
X147193000Y-62611000D01*
X147193000Y-63754624D01*
X147415040Y-63875909D01*
X147679881Y-63781070D01*
X147921131Y-63636385D01*
X148129519Y-63447414D01*
X148297037Y-63221420D01*
X148417246Y-62967087D01*
X148457904Y-62833039D01*
X148335915Y-62611000D01*
X147193000Y-62611000D01*
X146939000Y-62611000D01*
X145796085Y-62611000D01*
X145674096Y-62833039D01*
X140839684Y-62833039D01*
X140881000Y-62625335D01*
X140881000Y-62342665D01*
X140839685Y-62134961D01*
X145674096Y-62134961D01*
X145796085Y-62357000D01*
X146939000Y-62357000D01*
X146939000Y-61213376D01*
X147193000Y-61213376D01*
X147193000Y-62357000D01*
X148335915Y-62357000D01*
X148457904Y-62134961D01*
X148417246Y-62000913D01*
X148297037Y-61746580D01*
X148129519Y-61520586D01*
X147921131Y-61331615D01*
X147679881Y-61186930D01*
X147415040Y-61092091D01*
X147193000Y-61213376D01*
X146939000Y-61213376D01*
X146716960Y-61092091D01*
X146452119Y-61186930D01*
X146210869Y-61331615D01*
X146002481Y-61520586D01*
X145834963Y-61746580D01*
X145714754Y-62000913D01*
X145674096Y-62134961D01*
X140839685Y-62134961D01*
X140825853Y-62065426D01*
X140717680Y-61804273D01*
X140560637Y-61569241D01*
X140360759Y-61369363D01*
X140125727Y-61212320D01*
X139864574Y-61104147D01*
X139587335Y-61049000D01*
X139304665Y-61049000D01*
X139027426Y-61104147D01*
X138766273Y-61212320D01*
X138531241Y-61369363D01*
X138331363Y-61569241D01*
X138174320Y-61804273D01*
X138066147Y-62065426D01*
X138011000Y-62342665D01*
X135597000Y-62342665D01*
X135597000Y-62337740D01*
X135539932Y-62050842D01*
X135427990Y-61780589D01*
X135265475Y-61537368D01*
X135058632Y-61330525D01*
X134815411Y-61168010D01*
X134545158Y-61056068D01*
X134258260Y-60999000D01*
X133965740Y-60999000D01*
X133678842Y-61056068D01*
X133408589Y-61168010D01*
X133165368Y-61330525D01*
X132958525Y-61537368D01*
X132842000Y-61711760D01*
X132725475Y-61537368D01*
X132518632Y-61330525D01*
X132275411Y-61168010D01*
X132005158Y-61056068D01*
X131718260Y-60999000D01*
X131425740Y-60999000D01*
X131138842Y-61056068D01*
X130868589Y-61168010D01*
X130625368Y-61330525D01*
X130418525Y-61537368D01*
X130302000Y-61711760D01*
X130185475Y-61537368D01*
X129978632Y-61330525D01*
X129735411Y-61168010D01*
X129465158Y-61056068D01*
X129178260Y-60999000D01*
X128885740Y-60999000D01*
X128598842Y-61056068D01*
X128328589Y-61168010D01*
X128085368Y-61330525D01*
X127878525Y-61537368D01*
X127762000Y-61711760D01*
X127645475Y-61537368D01*
X127438632Y-61330525D01*
X127195411Y-61168010D01*
X126925158Y-61056068D01*
X126638260Y-60999000D01*
X126345740Y-60999000D01*
X126058842Y-61056068D01*
X125788589Y-61168010D01*
X125545368Y-61330525D01*
X125338525Y-61537368D01*
X125222000Y-61711760D01*
X125105475Y-61537368D01*
X124898632Y-61330525D01*
X124655411Y-61168010D01*
X124385158Y-61056068D01*
X124098260Y-60999000D01*
X123805740Y-60999000D01*
X123518842Y-61056068D01*
X123248589Y-61168010D01*
X123005368Y-61330525D01*
X122798525Y-61537368D01*
X122682000Y-61711760D01*
X122565475Y-61537368D01*
X122358632Y-61330525D01*
X122115411Y-61168010D01*
X121845158Y-61056068D01*
X121558260Y-60999000D01*
X121265740Y-60999000D01*
X120978842Y-61056068D01*
X120708589Y-61168010D01*
X120465368Y-61330525D01*
X120258525Y-61537368D01*
X120142000Y-61711760D01*
X120025475Y-61537368D01*
X119818632Y-61330525D01*
X119575411Y-61168010D01*
X119305158Y-61056068D01*
X119018260Y-60999000D01*
X118725740Y-60999000D01*
X118438842Y-61056068D01*
X118168589Y-61168010D01*
X117925368Y-61330525D01*
X117718525Y-61537368D01*
X117602000Y-61711760D01*
X117485475Y-61537368D01*
X117278632Y-61330525D01*
X117035411Y-61168010D01*
X116765158Y-61056068D01*
X116478260Y-60999000D01*
X116185740Y-60999000D01*
X115898842Y-61056068D01*
X115628589Y-61168010D01*
X115385368Y-61330525D01*
X115178525Y-61537368D01*
X115062000Y-61711760D01*
X114945475Y-61537368D01*
X114738632Y-61330525D01*
X114495411Y-61168010D01*
X114225158Y-61056068D01*
X113938260Y-60999000D01*
X113645740Y-60999000D01*
X113358842Y-61056068D01*
X113088589Y-61168010D01*
X112845368Y-61330525D01*
X112638525Y-61537368D01*
X112522000Y-61711760D01*
X112405475Y-61537368D01*
X112198632Y-61330525D01*
X111955411Y-61168010D01*
X111685158Y-61056068D01*
X111398260Y-60999000D01*
X111105740Y-60999000D01*
X110818842Y-61056068D01*
X110548589Y-61168010D01*
X110305368Y-61330525D01*
X110098525Y-61537368D01*
X109982000Y-61711760D01*
X109865475Y-61537368D01*
X109658632Y-61330525D01*
X109415411Y-61168010D01*
X109145158Y-61056068D01*
X108858260Y-60999000D01*
X108565740Y-60999000D01*
X108278842Y-61056068D01*
X108008589Y-61168010D01*
X107765368Y-61330525D01*
X107558525Y-61537368D01*
X107436805Y-61719534D01*
X107367178Y-61602645D01*
X107172269Y-61386412D01*
X106938920Y-61212359D01*
X106676099Y-61087175D01*
X106528890Y-61042524D01*
X106299000Y-61163845D01*
X106299000Y-62357000D01*
X106319000Y-62357000D01*
X106319000Y-62611000D01*
X106299000Y-62611000D01*
X106299000Y-63804155D01*
X106528890Y-63925476D01*
X106676099Y-63880825D01*
X106938920Y-63755641D01*
X107172269Y-63581588D01*
X107367178Y-63365355D01*
X107436805Y-63248466D01*
X107558525Y-63430632D01*
X107765368Y-63637475D01*
X108008589Y-63799990D01*
X108278842Y-63911932D01*
X108565740Y-63969000D01*
X108858260Y-63969000D01*
X109076049Y-63925679D01*
X114147332Y-68996963D01*
X114171190Y-69026034D01*
X114200260Y-69049891D01*
X114287219Y-69121257D01*
X114357976Y-69159077D01*
X114419597Y-69192014D01*
X114563234Y-69235586D01*
X114675186Y-69246612D01*
X114675189Y-69246612D01*
X114712612Y-69250298D01*
X114750035Y-69246612D01*
X119092699Y-69246612D01*
X119016147Y-69431426D01*
X118961000Y-69708665D01*
X118961000Y-69991335D01*
X119016147Y-70268574D01*
X119124320Y-70529727D01*
X119281363Y-70764759D01*
X119481241Y-70964637D01*
X119490450Y-70970790D01*
X112495515Y-70970790D01*
X112533097Y-70842702D01*
X111720000Y-70029605D01*
X110906903Y-70842702D01*
X110944485Y-70970790D01*
X110125550Y-70970790D01*
X110134759Y-70964637D01*
X110334637Y-70764759D01*
X110468692Y-70564131D01*
X110483329Y-70591514D01*
X110727298Y-70663097D01*
X111540395Y-69850000D01*
X111899605Y-69850000D01*
X112712702Y-70663097D01*
X112956671Y-70591514D01*
X113077571Y-70336004D01*
X113146300Y-70061816D01*
X113160217Y-69779488D01*
X113118787Y-69499870D01*
X113023603Y-69233708D01*
X112956671Y-69108486D01*
X112712702Y-69036903D01*
X111899605Y-69850000D01*
X111540395Y-69850000D01*
X110727298Y-69036903D01*
X110483329Y-69108486D01*
X110469676Y-69137341D01*
X110334637Y-68935241D01*
X110256694Y-68857298D01*
X110906903Y-68857298D01*
X111720000Y-69670395D01*
X112533097Y-68857298D01*
X112461514Y-68613329D01*
X112206004Y-68492429D01*
X111931816Y-68423700D01*
X111649488Y-68409783D01*
X111369870Y-68451213D01*
X111103708Y-68546397D01*
X110978486Y-68613329D01*
X110906903Y-68857298D01*
X110256694Y-68857298D01*
X110134759Y-68735363D01*
X109899727Y-68578320D01*
X109638574Y-68470147D01*
X109361335Y-68415000D01*
X109078665Y-68415000D01*
X108801426Y-68470147D01*
X108540273Y-68578320D01*
X108305241Y-68735363D01*
X108105363Y-68935241D01*
X107948320Y-69170273D01*
X107840147Y-69431426D01*
X107785000Y-69708665D01*
X107785000Y-69991335D01*
X107840147Y-70268574D01*
X107948320Y-70529727D01*
X108105363Y-70764759D01*
X108305241Y-70964637D01*
X108314450Y-70970790D01*
X107882633Y-70970790D01*
X107845210Y-70967104D01*
X107807787Y-70970790D01*
X107807784Y-70970790D01*
X107695832Y-70981816D01*
X107552195Y-71025388D01*
X107538450Y-71032735D01*
X107419817Y-71096145D01*
X107349805Y-71153603D01*
X107303788Y-71191368D01*
X107279931Y-71220438D01*
X105578072Y-72922298D01*
X105578072Y-72098000D01*
X105565812Y-71973518D01*
X105529502Y-71853820D01*
X105470537Y-71743506D01*
X105391185Y-71646815D01*
X105294494Y-71567463D01*
X105184180Y-71508498D01*
X105064482Y-71472188D01*
X104940000Y-71459928D01*
X103340000Y-71459928D01*
X103215518Y-71472188D01*
X103095820Y-71508498D01*
X102985506Y-71567463D01*
X102888815Y-71646815D01*
X102809463Y-71743506D01*
X102750498Y-71853820D01*
X102714188Y-71973518D01*
X102701928Y-72098000D01*
X102701928Y-73698000D01*
X102714188Y-73822482D01*
X102750498Y-73942180D01*
X102809463Y-74052494D01*
X102888815Y-74149185D01*
X102985506Y-74228537D01*
X103095820Y-74287502D01*
X103215518Y-74323812D01*
X103223961Y-74324643D01*
X103025363Y-74523241D01*
X102868320Y-74758273D01*
X102760147Y-75019426D01*
X102705000Y-75296665D01*
X102705000Y-75579335D01*
X102749491Y-75803001D01*
X102280632Y-75803001D01*
X102237157Y-75759526D01*
X102273000Y-75579335D01*
X102273000Y-75296665D01*
X102217853Y-75019426D01*
X102109680Y-74758273D01*
X101952637Y-74523241D01*
X101752759Y-74323363D01*
X101520241Y-74168000D01*
X101752759Y-74012637D01*
X101952637Y-73812759D01*
X102109680Y-73577727D01*
X102217853Y-73316574D01*
X102273000Y-73039335D01*
X102273000Y-72756665D01*
X102217853Y-72479426D01*
X102109680Y-72218273D01*
X101952637Y-71983241D01*
X101752759Y-71783363D01*
X101517727Y-71626320D01*
X101256574Y-71518147D01*
X100979335Y-71463000D01*
X100696665Y-71463000D01*
X100419426Y-71518147D01*
X100158273Y-71626320D01*
X99923241Y-71783363D01*
X99723363Y-71983241D01*
X99566320Y-72218273D01*
X99458147Y-72479426D01*
X99403000Y-72756665D01*
X99403000Y-73039335D01*
X99458147Y-73316574D01*
X99566320Y-73577727D01*
X99723363Y-73812759D01*
X99923241Y-74012637D01*
X100155759Y-74168000D01*
X99923241Y-74323363D01*
X99723363Y-74523241D01*
X99566320Y-74758273D01*
X99458147Y-75019426D01*
X99403000Y-75296665D01*
X99403000Y-75579335D01*
X99458147Y-75856574D01*
X99554420Y-76088999D01*
X97486630Y-76088999D01*
X94656072Y-73258442D01*
X94656072Y-72098000D01*
X94643812Y-71973518D01*
X94607502Y-71853820D01*
X94548537Y-71743506D01*
X94469185Y-71646815D01*
X94372494Y-71567463D01*
X94262180Y-71508498D01*
X94142482Y-71472188D01*
X94018000Y-71459928D01*
X92418000Y-71459928D01*
X92293518Y-71472188D01*
X92173820Y-71508498D01*
X92063506Y-71567463D01*
X91966815Y-71646815D01*
X91887463Y-71743506D01*
X91828498Y-71853820D01*
X91792188Y-71973518D01*
X91779928Y-72098000D01*
X91779928Y-73698000D01*
X91792188Y-73822482D01*
X91828498Y-73942180D01*
X91887463Y-74052494D01*
X91966815Y-74149185D01*
X92063506Y-74228537D01*
X92173820Y-74287502D01*
X92293518Y-74323812D01*
X92301961Y-74324643D01*
X92103363Y-74523241D01*
X91946320Y-74758273D01*
X91838147Y-75019426D01*
X91783000Y-75296665D01*
X91783000Y-75579335D01*
X91838147Y-75856574D01*
X91946320Y-76117727D01*
X92103363Y-76352759D01*
X92303241Y-76552637D01*
X92535759Y-76708000D01*
X92303241Y-76863363D01*
X92103363Y-77063241D01*
X91946320Y-77298273D01*
X91838147Y-77559426D01*
X91783000Y-77836665D01*
X91783000Y-78119335D01*
X91838147Y-78396574D01*
X91946320Y-78657727D01*
X92103363Y-78892759D01*
X92303241Y-79092637D01*
X92535759Y-79248000D01*
X92303241Y-79403363D01*
X92103363Y-79603241D01*
X91946320Y-79838273D01*
X91838147Y-80099426D01*
X91783000Y-80376665D01*
X91783000Y-80659335D01*
X91838147Y-80936574D01*
X91946320Y-81197727D01*
X92103363Y-81432759D01*
X92303241Y-81632637D01*
X92535759Y-81788000D01*
X92303241Y-81943363D01*
X92103363Y-82143241D01*
X91946320Y-82378273D01*
X91861279Y-82583580D01*
X91797280Y-82429073D01*
X91640237Y-82194041D01*
X91440359Y-81994163D01*
X91205327Y-81837120D01*
X90944174Y-81728947D01*
X90666935Y-81673800D01*
X90384265Y-81673800D01*
X90107026Y-81728947D01*
X89845873Y-81837120D01*
X89610841Y-81994163D01*
X89410963Y-82194041D01*
X89253920Y-82429073D01*
X89145747Y-82690226D01*
X89090600Y-82967465D01*
X83238468Y-82967465D01*
X83238872Y-82862420D01*
X83226612Y-82737938D01*
X83190302Y-82618240D01*
X83131337Y-82507926D01*
X83051985Y-82411235D01*
X82955294Y-82331883D01*
X82844980Y-82272918D01*
X82725282Y-82236608D01*
X82600800Y-82224348D01*
X81286350Y-82227420D01*
X81127600Y-82386170D01*
X80873600Y-82386170D01*
X80714850Y-82227420D01*
X79400400Y-82224348D01*
X79275918Y-82236608D01*
X79156220Y-82272918D01*
X79045906Y-82331883D01*
X78949215Y-82411235D01*
X78869863Y-82507926D01*
X78810898Y-82618240D01*
X78774588Y-82737938D01*
X78762328Y-82862420D01*
X76377000Y-82862420D01*
X76377000Y-81165397D01*
X83691808Y-81165397D01*
X83769443Y-81414472D01*
X84033483Y-81540371D01*
X84317011Y-81612339D01*
X84609131Y-81627611D01*
X84898619Y-81585599D01*
X85174347Y-81487919D01*
X85311757Y-81414472D01*
X85389392Y-81165397D01*
X84540600Y-80316605D01*
X83691808Y-81165397D01*
X76377000Y-81165397D01*
X76377000Y-80205531D01*
X83049989Y-80205531D01*
X83092001Y-80495019D01*
X83189681Y-80770747D01*
X83263128Y-80908157D01*
X83512203Y-80985792D01*
X84360995Y-80137000D01*
X84346853Y-80122858D01*
X84526458Y-79943253D01*
X84540600Y-79957395D01*
X84554743Y-79943253D01*
X84734348Y-80122858D01*
X84720205Y-80137000D01*
X85568997Y-80985792D01*
X85811289Y-80910271D01*
X85927125Y-81083632D01*
X86133968Y-81290475D01*
X86377189Y-81452990D01*
X86647442Y-81564932D01*
X86934340Y-81622000D01*
X87226860Y-81622000D01*
X87513758Y-81564932D01*
X87784011Y-81452990D01*
X88027232Y-81290475D01*
X88234075Y-81083632D01*
X88396590Y-80840411D01*
X88508532Y-80570158D01*
X88565600Y-80283260D01*
X88565600Y-79990740D01*
X88508532Y-79703842D01*
X88396590Y-79433589D01*
X88234075Y-79190368D01*
X88027232Y-78983525D01*
X87784011Y-78821010D01*
X87513758Y-78709068D01*
X87226860Y-78652000D01*
X86934340Y-78652000D01*
X86647442Y-78709068D01*
X86377189Y-78821010D01*
X86133968Y-78983525D01*
X85927125Y-79190368D01*
X85811289Y-79363729D01*
X85568999Y-79288209D01*
X85685104Y-79172104D01*
X85629354Y-79116354D01*
X85694075Y-79051632D01*
X85856590Y-78808411D01*
X85968532Y-78538158D01*
X86025600Y-78251260D01*
X86025600Y-77958740D01*
X86006370Y-77862065D01*
X88836600Y-77862065D01*
X88836600Y-78144735D01*
X88891747Y-78421974D01*
X88999920Y-78683127D01*
X89156963Y-78918159D01*
X89356841Y-79118037D01*
X89591873Y-79275080D01*
X89853026Y-79383253D01*
X90130265Y-79438400D01*
X90412935Y-79438400D01*
X90690174Y-79383253D01*
X90951327Y-79275080D01*
X91186359Y-79118037D01*
X91386237Y-78918159D01*
X91543280Y-78683127D01*
X91651453Y-78421974D01*
X91706600Y-78144735D01*
X91706600Y-77862065D01*
X91651453Y-77584826D01*
X91543280Y-77323673D01*
X91386237Y-77088641D01*
X91186359Y-76888763D01*
X90985731Y-76754708D01*
X91013114Y-76740071D01*
X91084697Y-76496102D01*
X90271600Y-75683005D01*
X89458503Y-76496102D01*
X89530086Y-76740071D01*
X89558941Y-76753724D01*
X89356841Y-76888763D01*
X89156963Y-77088641D01*
X88999920Y-77323673D01*
X88891747Y-77584826D01*
X88836600Y-77862065D01*
X86006370Y-77862065D01*
X85968532Y-77671842D01*
X85856590Y-77401589D01*
X85694075Y-77158368D01*
X85561207Y-77025500D01*
X85694075Y-76892632D01*
X85856590Y-76649411D01*
X85968532Y-76379158D01*
X86025600Y-76092260D01*
X86025600Y-75799740D01*
X85980680Y-75573912D01*
X88831383Y-75573912D01*
X88872813Y-75853530D01*
X88967997Y-76119692D01*
X89034929Y-76244914D01*
X89278898Y-76316497D01*
X90091995Y-75503400D01*
X90451205Y-75503400D01*
X91264302Y-76316497D01*
X91508271Y-76244914D01*
X91629171Y-75989404D01*
X91697900Y-75715216D01*
X91711817Y-75432888D01*
X91670387Y-75153270D01*
X91575203Y-74887108D01*
X91508271Y-74761886D01*
X91264302Y-74690303D01*
X90451205Y-75503400D01*
X90091995Y-75503400D01*
X89278898Y-74690303D01*
X89034929Y-74761886D01*
X88914029Y-75017396D01*
X88845300Y-75291584D01*
X88831383Y-75573912D01*
X85980680Y-75573912D01*
X85968532Y-75512842D01*
X85856590Y-75242589D01*
X85694075Y-74999368D01*
X85561207Y-74866500D01*
X85694075Y-74733632D01*
X85810600Y-74559240D01*
X85927125Y-74733632D01*
X86133968Y-74940475D01*
X86377189Y-75102990D01*
X86647442Y-75214932D01*
X86934340Y-75272000D01*
X87226860Y-75272000D01*
X87513758Y-75214932D01*
X87784011Y-75102990D01*
X88027232Y-74940475D01*
X88234075Y-74733632D01*
X88383034Y-74510698D01*
X89458503Y-74510698D01*
X90271600Y-75323795D01*
X91084697Y-74510698D01*
X91013114Y-74266729D01*
X90757604Y-74145829D01*
X90483416Y-74077100D01*
X90201088Y-74063183D01*
X89921470Y-74104613D01*
X89655308Y-74199797D01*
X89530086Y-74266729D01*
X89458503Y-74510698D01*
X88383034Y-74510698D01*
X88396590Y-74490411D01*
X88508532Y-74220158D01*
X88565600Y-73933260D01*
X88565600Y-73640740D01*
X88508532Y-73353842D01*
X88396590Y-73083589D01*
X88234075Y-72840368D01*
X88027232Y-72633525D01*
X87784011Y-72471010D01*
X87513758Y-72359068D01*
X87226860Y-72302000D01*
X86934340Y-72302000D01*
X86647442Y-72359068D01*
X86377189Y-72471010D01*
X86133968Y-72633525D01*
X85927125Y-72840368D01*
X85810600Y-73014760D01*
X85694075Y-72840368D01*
X85487232Y-72633525D01*
X85244011Y-72471010D01*
X84973758Y-72359068D01*
X84686860Y-72302000D01*
X84394340Y-72302000D01*
X84107442Y-72359068D01*
X83837189Y-72471010D01*
X83593968Y-72633525D01*
X83387125Y-72840368D01*
X83224610Y-73083589D01*
X83112668Y-73353842D01*
X83055600Y-73640740D01*
X83055600Y-73933260D01*
X83112668Y-74220158D01*
X83224610Y-74490411D01*
X83387125Y-74733632D01*
X83519993Y-74866500D01*
X83387125Y-74999368D01*
X83224610Y-75242589D01*
X83112668Y-75512842D01*
X83055600Y-75799740D01*
X83055600Y-76092260D01*
X83112668Y-76379158D01*
X83224610Y-76649411D01*
X83387125Y-76892632D01*
X83519993Y-77025500D01*
X83387125Y-77158368D01*
X83224610Y-77401589D01*
X83112668Y-77671842D01*
X83055600Y-77958740D01*
X83055600Y-78251260D01*
X83112668Y-78538158D01*
X83224610Y-78808411D01*
X83387125Y-79051632D01*
X83451847Y-79116354D01*
X83396096Y-79172104D01*
X83512201Y-79288209D01*
X83263128Y-79365843D01*
X83137229Y-79629883D01*
X83065261Y-79913411D01*
X83049989Y-80205531D01*
X76377000Y-80205531D01*
X76377000Y-78562200D01*
X78778838Y-78562200D01*
X78791098Y-78686682D01*
X78827408Y-78806380D01*
X78886373Y-78916694D01*
X78965725Y-79013385D01*
X79062416Y-79092737D01*
X79172730Y-79151702D01*
X79292428Y-79188012D01*
X79416910Y-79200272D01*
X80130650Y-79197200D01*
X80289400Y-79038450D01*
X80289400Y-77089000D01*
X80543400Y-77089000D01*
X80543400Y-79038450D01*
X80702150Y-79197200D01*
X81415890Y-79200272D01*
X81540372Y-79188012D01*
X81660070Y-79151702D01*
X81770384Y-79092737D01*
X81867075Y-79013385D01*
X81946427Y-78916694D01*
X82005392Y-78806380D01*
X82041702Y-78686682D01*
X82053962Y-78562200D01*
X82050890Y-77247750D01*
X81892140Y-77089000D01*
X80543400Y-77089000D01*
X80289400Y-77089000D01*
X78940660Y-77089000D01*
X78781910Y-77247750D01*
X78778838Y-78562200D01*
X76377000Y-78562200D01*
X76377000Y-75361800D01*
X78778838Y-75361800D01*
X78781910Y-76676250D01*
X78940660Y-76835000D01*
X80289400Y-76835000D01*
X80289400Y-74885550D01*
X80543400Y-74885550D01*
X80543400Y-76835000D01*
X81892140Y-76835000D01*
X82050890Y-76676250D01*
X82053962Y-75361800D01*
X82041702Y-75237318D01*
X82005392Y-75117620D01*
X81946427Y-75007306D01*
X81867075Y-74910615D01*
X81770384Y-74831263D01*
X81660070Y-74772298D01*
X81540372Y-74735988D01*
X81415890Y-74723728D01*
X80702150Y-74726800D01*
X80543400Y-74885550D01*
X80289400Y-74885550D01*
X80130650Y-74726800D01*
X79416910Y-74723728D01*
X79292428Y-74735988D01*
X79172730Y-74772298D01*
X79062416Y-74831263D01*
X78965725Y-74910615D01*
X78886373Y-75007306D01*
X78827408Y-75117620D01*
X78791098Y-75237318D01*
X78778838Y-75361800D01*
X76377000Y-75361800D01*
X76377000Y-71061580D01*
X78762328Y-71061580D01*
X78774588Y-71186062D01*
X78810898Y-71305760D01*
X78869863Y-71416074D01*
X78949215Y-71512765D01*
X79045906Y-71592117D01*
X79156220Y-71651082D01*
X79275918Y-71687392D01*
X79400400Y-71699652D01*
X80714850Y-71696580D01*
X80873600Y-71537830D01*
X80873600Y-70104000D01*
X81127600Y-70104000D01*
X81127600Y-71537830D01*
X81286350Y-71696580D01*
X82600800Y-71699652D01*
X82725282Y-71687392D01*
X82844980Y-71651082D01*
X82955294Y-71592117D01*
X83051985Y-71512765D01*
X83131337Y-71416074D01*
X83190302Y-71305760D01*
X83226612Y-71186062D01*
X83238872Y-71061580D01*
X83237675Y-70750065D01*
X89090600Y-70750065D01*
X89090600Y-71032735D01*
X89145747Y-71309974D01*
X89253920Y-71571127D01*
X89410963Y-71806159D01*
X89610841Y-72006037D01*
X89845873Y-72163080D01*
X90107026Y-72271253D01*
X90384265Y-72326400D01*
X90666935Y-72326400D01*
X90944174Y-72271253D01*
X91205327Y-72163080D01*
X91440359Y-72006037D01*
X91640237Y-71806159D01*
X91797280Y-71571127D01*
X91905453Y-71309974D01*
X91960600Y-71032735D01*
X91960600Y-70750065D01*
X91905453Y-70472826D01*
X91797280Y-70211673D01*
X91640237Y-69976641D01*
X91440359Y-69776763D01*
X91338443Y-69708665D01*
X96863000Y-69708665D01*
X96863000Y-69991335D01*
X96918147Y-70268574D01*
X97026320Y-70529727D01*
X97183363Y-70764759D01*
X97383241Y-70964637D01*
X97618273Y-71121680D01*
X97879426Y-71229853D01*
X98156665Y-71285000D01*
X98439335Y-71285000D01*
X98716574Y-71229853D01*
X98977727Y-71121680D01*
X99212759Y-70964637D01*
X99334694Y-70842702D01*
X99984903Y-70842702D01*
X100056486Y-71086671D01*
X100311996Y-71207571D01*
X100586184Y-71276300D01*
X100868512Y-71290217D01*
X101148130Y-71248787D01*
X101414292Y-71153603D01*
X101539514Y-71086671D01*
X101611097Y-70842702D01*
X100798000Y-70029605D01*
X99984903Y-70842702D01*
X99334694Y-70842702D01*
X99412637Y-70764759D01*
X99546692Y-70564131D01*
X99561329Y-70591514D01*
X99805298Y-70663097D01*
X100618395Y-69850000D01*
X100977605Y-69850000D01*
X101790702Y-70663097D01*
X102034671Y-70591514D01*
X102155571Y-70336004D01*
X102224300Y-70061816D01*
X102238217Y-69779488D01*
X102196787Y-69499870D01*
X102101603Y-69233708D01*
X102034671Y-69108486D01*
X101790702Y-69036903D01*
X100977605Y-69850000D01*
X100618395Y-69850000D01*
X99805298Y-69036903D01*
X99561329Y-69108486D01*
X99547676Y-69137341D01*
X99412637Y-68935241D01*
X99334694Y-68857298D01*
X99984903Y-68857298D01*
X100798000Y-69670395D01*
X101611097Y-68857298D01*
X101539514Y-68613329D01*
X101284004Y-68492429D01*
X101009816Y-68423700D01*
X100727488Y-68409783D01*
X100447870Y-68451213D01*
X100181708Y-68546397D01*
X100056486Y-68613329D01*
X99984903Y-68857298D01*
X99334694Y-68857298D01*
X99212759Y-68735363D01*
X98977727Y-68578320D01*
X98716574Y-68470147D01*
X98439335Y-68415000D01*
X98156665Y-68415000D01*
X97879426Y-68470147D01*
X97618273Y-68578320D01*
X97383241Y-68735363D01*
X97183363Y-68935241D01*
X97026320Y-69170273D01*
X96918147Y-69431426D01*
X96863000Y-69708665D01*
X91338443Y-69708665D01*
X91205327Y-69619720D01*
X90944174Y-69511547D01*
X90666935Y-69456400D01*
X90384265Y-69456400D01*
X90107026Y-69511547D01*
X89845873Y-69619720D01*
X89610841Y-69776763D01*
X89410963Y-69976641D01*
X89253920Y-70211673D01*
X89145747Y-70472826D01*
X89090600Y-70750065D01*
X83237675Y-70750065D01*
X83235800Y-70262750D01*
X83077050Y-70104000D01*
X81127600Y-70104000D01*
X80873600Y-70104000D01*
X78924150Y-70104000D01*
X78765400Y-70262750D01*
X78762328Y-71061580D01*
X76377000Y-71061580D01*
X76377000Y-68892420D01*
X78762328Y-68892420D01*
X78765400Y-69691250D01*
X78924150Y-69850000D01*
X80873600Y-69850000D01*
X80873600Y-68416170D01*
X81127600Y-68416170D01*
X81127600Y-69850000D01*
X83077050Y-69850000D01*
X83235800Y-69691250D01*
X83238872Y-68892420D01*
X83226612Y-68767938D01*
X83190302Y-68648240D01*
X83131337Y-68537926D01*
X83051985Y-68441235D01*
X82955294Y-68361883D01*
X82844980Y-68302918D01*
X82725282Y-68266608D01*
X82600800Y-68254348D01*
X81286350Y-68257420D01*
X81127600Y-68416170D01*
X80873600Y-68416170D01*
X80714850Y-68257420D01*
X79400400Y-68254348D01*
X79275918Y-68266608D01*
X79156220Y-68302918D01*
X79045906Y-68361883D01*
X78949215Y-68441235D01*
X78869863Y-68537926D01*
X78810898Y-68648240D01*
X78774588Y-68767938D01*
X78762328Y-68892420D01*
X76377000Y-68892420D01*
X76377000Y-66962881D01*
X77488724Y-66962881D01*
X77848912Y-67452548D01*
X78512882Y-67812849D01*
X79234385Y-68036694D01*
X79985695Y-68115480D01*
X80737938Y-68046178D01*
X81462208Y-67831452D01*
X82130670Y-67479555D01*
X82171088Y-67452548D01*
X82531276Y-66962881D01*
X80010000Y-64441605D01*
X77488724Y-66962881D01*
X76377000Y-66962881D01*
X76377000Y-65499861D01*
X76440548Y-65714208D01*
X76792445Y-66382670D01*
X76819452Y-66423088D01*
X77309119Y-66783276D01*
X79830395Y-64262000D01*
X80189605Y-64262000D01*
X82710881Y-66783276D01*
X83200548Y-66423088D01*
X83538881Y-65799600D01*
X84846528Y-65799600D01*
X84846528Y-67499600D01*
X84858788Y-67624082D01*
X84895098Y-67743780D01*
X84954063Y-67854094D01*
X85033415Y-67950785D01*
X85130106Y-68030137D01*
X85240420Y-68089102D01*
X85360118Y-68125412D01*
X85484600Y-68137672D01*
X87184600Y-68137672D01*
X87309082Y-68125412D01*
X87428780Y-68089102D01*
X87539094Y-68030137D01*
X87635785Y-67950785D01*
X87715137Y-67854094D01*
X87774102Y-67743780D01*
X87810412Y-67624082D01*
X87822672Y-67499600D01*
X87822672Y-65799600D01*
X87810412Y-65675118D01*
X87774102Y-65555420D01*
X87715137Y-65445106D01*
X87635785Y-65348415D01*
X87539094Y-65269063D01*
X87428780Y-65210098D01*
X87356220Y-65188087D01*
X87488075Y-65056232D01*
X87650590Y-64813011D01*
X87762532Y-64542758D01*
X87819600Y-64255860D01*
X87819600Y-63963340D01*
X87762532Y-63676442D01*
X87650590Y-63406189D01*
X87488075Y-63162968D01*
X87455172Y-63130065D01*
X89090600Y-63130065D01*
X89090600Y-63412735D01*
X89145747Y-63689974D01*
X89253920Y-63951127D01*
X89410963Y-64186159D01*
X89610841Y-64386037D01*
X89845873Y-64543080D01*
X90107026Y-64651253D01*
X90384265Y-64706400D01*
X90666935Y-64706400D01*
X90944174Y-64651253D01*
X91205327Y-64543080D01*
X91440359Y-64386037D01*
X91640237Y-64186159D01*
X91797280Y-63951127D01*
X91905453Y-63689974D01*
X91960600Y-63412735D01*
X91960600Y-63130065D01*
X91923478Y-62943438D01*
X95059505Y-62943438D01*
X95098605Y-63183549D01*
X95183798Y-63411418D01*
X95224652Y-63487852D01*
X95448236Y-63535159D01*
X96118395Y-62865000D01*
X95448236Y-62194841D01*
X95224652Y-62242148D01*
X95123763Y-62463516D01*
X95068000Y-62700313D01*
X95059505Y-62943438D01*
X91923478Y-62943438D01*
X91905453Y-62852826D01*
X91797280Y-62591673D01*
X91640237Y-62356641D01*
X91440359Y-62156763D01*
X91228549Y-62015236D01*
X95627841Y-62015236D01*
X96298000Y-62685395D01*
X96312143Y-62671253D01*
X96491748Y-62850858D01*
X96477605Y-62865000D01*
X96491748Y-62879143D01*
X96312143Y-63058748D01*
X96298000Y-63044605D01*
X95627841Y-63714764D01*
X95675148Y-63938348D01*
X95896516Y-64039237D01*
X96133313Y-64095000D01*
X96376438Y-64103495D01*
X96616549Y-64064395D01*
X96844418Y-63979202D01*
X96920852Y-63938348D01*
X96968158Y-63714766D01*
X97085264Y-63831872D01*
X97143142Y-63773994D01*
X97167463Y-63819494D01*
X97246815Y-63916185D01*
X97343506Y-63995537D01*
X97453820Y-64054502D01*
X97573518Y-64090812D01*
X97698000Y-64103072D01*
X98898000Y-64103072D01*
X99022482Y-64090812D01*
X99142180Y-64054502D01*
X99252494Y-63995537D01*
X99349185Y-63916185D01*
X99428537Y-63819494D01*
X99487502Y-63709180D01*
X99523812Y-63589482D01*
X99536072Y-63465000D01*
X99536072Y-62265000D01*
X99523812Y-62140518D01*
X99487502Y-62020820D01*
X99428537Y-61910506D01*
X99349185Y-61813815D01*
X99252494Y-61734463D01*
X99142180Y-61675498D01*
X99022482Y-61639188D01*
X98969806Y-61634000D01*
X102143928Y-61634000D01*
X102143928Y-63334000D01*
X102156188Y-63458482D01*
X102192498Y-63578180D01*
X102251463Y-63688494D01*
X102330815Y-63785185D01*
X102427506Y-63864537D01*
X102537820Y-63923502D01*
X102657518Y-63959812D01*
X102782000Y-63972072D01*
X104482000Y-63972072D01*
X104606482Y-63959812D01*
X104726180Y-63923502D01*
X104836494Y-63864537D01*
X104933185Y-63785185D01*
X105012537Y-63688494D01*
X105071502Y-63578180D01*
X105095966Y-63497534D01*
X105171731Y-63581588D01*
X105405080Y-63755641D01*
X105667901Y-63880825D01*
X105815110Y-63925476D01*
X106045000Y-63804155D01*
X106045000Y-62611000D01*
X106025000Y-62611000D01*
X106025000Y-62357000D01*
X106045000Y-62357000D01*
X106045000Y-61163845D01*
X105815110Y-61042524D01*
X105667901Y-61087175D01*
X105405080Y-61212359D01*
X105171731Y-61386412D01*
X105095966Y-61470466D01*
X105071502Y-61389820D01*
X105012537Y-61279506D01*
X104933185Y-61182815D01*
X104836494Y-61103463D01*
X104726180Y-61044498D01*
X104606482Y-61008188D01*
X104482000Y-60995928D01*
X102782000Y-60995928D01*
X102657518Y-61008188D01*
X102537820Y-61044498D01*
X102427506Y-61103463D01*
X102330815Y-61182815D01*
X102251463Y-61279506D01*
X102192498Y-61389820D01*
X102156188Y-61509518D01*
X102143928Y-61634000D01*
X98969806Y-61634000D01*
X98898000Y-61626928D01*
X97698000Y-61626928D01*
X97573518Y-61639188D01*
X97453820Y-61675498D01*
X97343506Y-61734463D01*
X97246815Y-61813815D01*
X97167463Y-61910506D01*
X97143142Y-61956006D01*
X97085264Y-61898128D01*
X96968158Y-62015234D01*
X96920852Y-61791652D01*
X96699484Y-61690763D01*
X96462687Y-61635000D01*
X96219562Y-61626505D01*
X95979451Y-61665605D01*
X95751582Y-61750798D01*
X95675148Y-61791652D01*
X95627841Y-62015236D01*
X91228549Y-62015236D01*
X91205327Y-61999720D01*
X90944174Y-61891547D01*
X90666935Y-61836400D01*
X90384265Y-61836400D01*
X90107026Y-61891547D01*
X89845873Y-61999720D01*
X89610841Y-62156763D01*
X89410963Y-62356641D01*
X89253920Y-62591673D01*
X89145747Y-62852826D01*
X89090600Y-63130065D01*
X87455172Y-63130065D01*
X87281232Y-62956125D01*
X87038011Y-62793610D01*
X86767758Y-62681668D01*
X86480860Y-62624600D01*
X86188340Y-62624600D01*
X85901442Y-62681668D01*
X85631189Y-62793610D01*
X85387968Y-62956125D01*
X85181125Y-63162968D01*
X85018610Y-63406189D01*
X84906668Y-63676442D01*
X84849600Y-63963340D01*
X84849600Y-64255860D01*
X84906668Y-64542758D01*
X85018610Y-64813011D01*
X85181125Y-65056232D01*
X85312980Y-65188087D01*
X85240420Y-65210098D01*
X85130106Y-65269063D01*
X85033415Y-65348415D01*
X84954063Y-65445106D01*
X84895098Y-65555420D01*
X84858788Y-65675118D01*
X84846528Y-65799600D01*
X83538881Y-65799600D01*
X83560849Y-65759118D01*
X83784694Y-65037615D01*
X83863480Y-64286305D01*
X83794178Y-63534062D01*
X83579452Y-62809792D01*
X83227555Y-62141330D01*
X83200548Y-62100912D01*
X82710881Y-61740724D01*
X80189605Y-64262000D01*
X79830395Y-64262000D01*
X79816253Y-64247858D01*
X79995858Y-64068253D01*
X80010000Y-64082395D01*
X82531276Y-61561119D01*
X82171088Y-61071452D01*
X81507118Y-60711151D01*
X81242327Y-60629000D01*
X153448139Y-60629000D01*
X153233792Y-60692548D01*
G37*
G04 #@! TD.AperFunction*
D25*
X110325000Y-77836665D02*
X110325000Y-78119335D01*
X110360843Y-78299527D01*
X110120653Y-78539717D01*
X110091577Y-78563579D01*
X110049670Y-78614644D01*
X109996354Y-78679609D01*
X109991655Y-78688401D01*
X109925597Y-78811987D01*
X109882025Y-78955624D01*
X109870999Y-79067575D01*
X109867313Y-79105001D01*
X109870999Y-79142425D01*
X109871000Y-80516569D01*
X105428556Y-84959014D01*
X105411680Y-84918273D01*
X105254637Y-84683241D01*
X105054759Y-84483363D01*
X104822241Y-84328000D01*
X105054759Y-84172637D01*
X105254637Y-83972759D01*
X105411680Y-83737727D01*
X105519853Y-83476574D01*
X105575000Y-83199335D01*
X105575000Y-82916665D01*
X105519853Y-82639426D01*
X105411680Y-82378273D01*
X105254637Y-82143241D01*
X105054759Y-81943363D01*
X104822241Y-81788000D01*
X105054759Y-81632637D01*
X105254637Y-81432759D01*
X105411680Y-81197727D01*
X105519853Y-80936574D01*
X105575000Y-80659335D01*
X105575000Y-80376665D01*
X105519853Y-80099426D01*
X105423580Y-79867001D01*
X107029682Y-79867001D01*
X107067105Y-79870687D01*
X107104528Y-79867001D01*
X107104531Y-79867001D01*
X107216483Y-79855975D01*
X107360120Y-79812403D01*
X107492497Y-79741646D01*
X107608527Y-79646423D01*
X107632389Y-79617347D01*
X109636738Y-77612999D01*
X110369491Y-77612999D01*
X110325000Y-77836665D01*
G04 #@! TA.AperFunction,Conductor*
D26*
G36*
X110325000Y-77836665D02*
G01*
X110325000Y-78119335D01*
X110360843Y-78299527D01*
X110120653Y-78539717D01*
X110091577Y-78563579D01*
X110049670Y-78614644D01*
X109996354Y-78679609D01*
X109991655Y-78688401D01*
X109925597Y-78811987D01*
X109882025Y-78955624D01*
X109870999Y-79067575D01*
X109867313Y-79105001D01*
X109870999Y-79142425D01*
X109871000Y-80516569D01*
X105428556Y-84959014D01*
X105411680Y-84918273D01*
X105254637Y-84683241D01*
X105054759Y-84483363D01*
X104822241Y-84328000D01*
X105054759Y-84172637D01*
X105254637Y-83972759D01*
X105411680Y-83737727D01*
X105519853Y-83476574D01*
X105575000Y-83199335D01*
X105575000Y-82916665D01*
X105519853Y-82639426D01*
X105411680Y-82378273D01*
X105254637Y-82143241D01*
X105054759Y-81943363D01*
X104822241Y-81788000D01*
X105054759Y-81632637D01*
X105254637Y-81432759D01*
X105411680Y-81197727D01*
X105519853Y-80936574D01*
X105575000Y-80659335D01*
X105575000Y-80376665D01*
X105519853Y-80099426D01*
X105423580Y-79867001D01*
X107029682Y-79867001D01*
X107067105Y-79870687D01*
X107104528Y-79867001D01*
X107104531Y-79867001D01*
X107216483Y-79855975D01*
X107360120Y-79812403D01*
X107492497Y-79741646D01*
X107608527Y-79646423D01*
X107632389Y-79617347D01*
X109636738Y-77612999D01*
X110369491Y-77612999D01*
X110325000Y-77836665D01*
G37*
G04 #@! TD.AperFunction*
D25*
X121247000Y-75296665D02*
X121247000Y-75579335D01*
X121302147Y-75856574D01*
X121410320Y-76117727D01*
X121567363Y-76352759D01*
X121767241Y-76552637D01*
X121999759Y-76708000D01*
X121767241Y-76863363D01*
X121567363Y-77063241D01*
X121410320Y-77298273D01*
X121302147Y-77559426D01*
X121247000Y-77836665D01*
X121247000Y-78119335D01*
X121302147Y-78396574D01*
X121410320Y-78657727D01*
X121567363Y-78892759D01*
X121767241Y-79092637D01*
X121999759Y-79248000D01*
X121767241Y-79403363D01*
X121567363Y-79603241D01*
X121410320Y-79838273D01*
X121302147Y-80099426D01*
X121247000Y-80376665D01*
X121247000Y-80659335D01*
X121302147Y-80936574D01*
X121398420Y-81168999D01*
X116345580Y-81168999D01*
X116441853Y-80936574D01*
X116497000Y-80659335D01*
X116497000Y-80376665D01*
X116441853Y-80099426D01*
X116333680Y-79838273D01*
X116176637Y-79603241D01*
X115976759Y-79403363D01*
X115744241Y-79248000D01*
X115976759Y-79092637D01*
X116176637Y-78892759D01*
X116278707Y-78740000D01*
X116581045Y-78740000D01*
X116618468Y-78743686D01*
X116655891Y-78740000D01*
X116655894Y-78740000D01*
X116767846Y-78728974D01*
X116911483Y-78685402D01*
X117043860Y-78614645D01*
X117159890Y-78519422D01*
X117183752Y-78490346D01*
X120601099Y-75072999D01*
X121291491Y-75072999D01*
X121247000Y-75296665D01*
G04 #@! TA.AperFunction,Conductor*
D26*
G36*
X121247000Y-75296665D02*
G01*
X121247000Y-75579335D01*
X121302147Y-75856574D01*
X121410320Y-76117727D01*
X121567363Y-76352759D01*
X121767241Y-76552637D01*
X121999759Y-76708000D01*
X121767241Y-76863363D01*
X121567363Y-77063241D01*
X121410320Y-77298273D01*
X121302147Y-77559426D01*
X121247000Y-77836665D01*
X121247000Y-78119335D01*
X121302147Y-78396574D01*
X121410320Y-78657727D01*
X121567363Y-78892759D01*
X121767241Y-79092637D01*
X121999759Y-79248000D01*
X121767241Y-79403363D01*
X121567363Y-79603241D01*
X121410320Y-79838273D01*
X121302147Y-80099426D01*
X121247000Y-80376665D01*
X121247000Y-80659335D01*
X121302147Y-80936574D01*
X121398420Y-81168999D01*
X116345580Y-81168999D01*
X116441853Y-80936574D01*
X116497000Y-80659335D01*
X116497000Y-80376665D01*
X116441853Y-80099426D01*
X116333680Y-79838273D01*
X116176637Y-79603241D01*
X115976759Y-79403363D01*
X115744241Y-79248000D01*
X115976759Y-79092637D01*
X116176637Y-78892759D01*
X116278707Y-78740000D01*
X116581045Y-78740000D01*
X116618468Y-78743686D01*
X116655891Y-78740000D01*
X116655894Y-78740000D01*
X116767846Y-78728974D01*
X116911483Y-78685402D01*
X117043860Y-78614645D01*
X117159890Y-78519422D01*
X117183752Y-78490346D01*
X120601099Y-75072999D01*
X121291491Y-75072999D01*
X121247000Y-75296665D01*
G37*
G04 #@! TD.AperFunction*
D25*
X106751475Y-78343001D02*
X105530509Y-78343001D01*
X105575000Y-78119335D01*
X105575000Y-77836665D01*
X105519853Y-77559426D01*
X105423580Y-77327001D01*
X107767474Y-77327001D01*
X106751475Y-78343001D01*
G04 #@! TA.AperFunction,Conductor*
D26*
G36*
X106751475Y-78343001D02*
G01*
X105530509Y-78343001D01*
X105575000Y-78119335D01*
X105575000Y-77836665D01*
X105519853Y-77559426D01*
X105423580Y-77327001D01*
X107767474Y-77327001D01*
X106751475Y-78343001D01*
G37*
G04 #@! TD.AperFunction*
D25*
X116302838Y-77216000D02*
X116278707Y-77216000D01*
X116176637Y-77063241D01*
X115976759Y-76863363D01*
X115744241Y-76708000D01*
X115976759Y-76552637D01*
X116176637Y-76352759D01*
X116333680Y-76117727D01*
X116441853Y-75856574D01*
X116497000Y-75579335D01*
X116497000Y-75296665D01*
X116444275Y-75031600D01*
X118487238Y-75031600D01*
X116302838Y-77216000D01*
G04 #@! TA.AperFunction,Conductor*
D26*
G36*
X116302838Y-77216000D02*
G01*
X116278707Y-77216000D01*
X116176637Y-77063241D01*
X115976759Y-76863363D01*
X115744241Y-76708000D01*
X115976759Y-76552637D01*
X116176637Y-76352759D01*
X116333680Y-76117727D01*
X116441853Y-75856574D01*
X116497000Y-75579335D01*
X116497000Y-75296665D01*
X116444275Y-75031600D01*
X118487238Y-75031600D01*
X116302838Y-77216000D01*
G37*
G04 #@! TD.AperFunction*
D25*
X110325000Y-72756665D02*
X110325000Y-73039335D01*
X110380147Y-73316574D01*
X110488320Y-73577727D01*
X110643074Y-73809333D01*
X108649407Y-75803001D01*
X105530509Y-75803001D01*
X105575000Y-75579335D01*
X105575000Y-75296665D01*
X105539157Y-75116473D01*
X108160841Y-72494790D01*
X110377091Y-72494790D01*
X110325000Y-72756665D01*
G04 #@! TA.AperFunction,Conductor*
D26*
G36*
X110325000Y-72756665D02*
G01*
X110325000Y-73039335D01*
X110380147Y-73316574D01*
X110488320Y-73577727D01*
X110643074Y-73809333D01*
X108649407Y-75803001D01*
X105530509Y-75803001D01*
X105575000Y-75579335D01*
X105575000Y-75296665D01*
X105539157Y-75116473D01*
X108160841Y-72494790D01*
X110377091Y-72494790D01*
X110325000Y-72756665D01*
G37*
G04 #@! TD.AperFunction*
D25*
X132169000Y-72756665D02*
X132169000Y-73039335D01*
X132224147Y-73316574D01*
X132332320Y-73577727D01*
X132487074Y-73809333D01*
X131620408Y-74676000D01*
X130970182Y-74676000D01*
X130992426Y-74622298D01*
X131032200Y-74422339D01*
X131032200Y-74218461D01*
X130992426Y-74018502D01*
X130914405Y-73830144D01*
X130801137Y-73660626D01*
X130656974Y-73516463D01*
X130487456Y-73403195D01*
X130299098Y-73325174D01*
X130099139Y-73285400D01*
X129895261Y-73285400D01*
X129695302Y-73325174D01*
X129506944Y-73403195D01*
X129337426Y-73516463D01*
X129304890Y-73548999D01*
X127422072Y-73548999D01*
X127422072Y-72494790D01*
X132221091Y-72494790D01*
X132169000Y-72756665D01*
G04 #@! TA.AperFunction,Conductor*
D26*
G36*
X132169000Y-72756665D02*
G01*
X132169000Y-73039335D01*
X132224147Y-73316574D01*
X132332320Y-73577727D01*
X132487074Y-73809333D01*
X131620408Y-74676000D01*
X130970182Y-74676000D01*
X130992426Y-74622298D01*
X131032200Y-74422339D01*
X131032200Y-74218461D01*
X130992426Y-74018502D01*
X130914405Y-73830144D01*
X130801137Y-73660626D01*
X130656974Y-73516463D01*
X130487456Y-73403195D01*
X130299098Y-73325174D01*
X130099139Y-73285400D01*
X129895261Y-73285400D01*
X129695302Y-73325174D01*
X129506944Y-73403195D01*
X129337426Y-73516463D01*
X129304890Y-73548999D01*
X127422072Y-73548999D01*
X127422072Y-72494790D01*
X132221091Y-72494790D01*
X132169000Y-72756665D01*
G37*
G04 #@! TD.AperFunction*
D25*
X119326808Y-73507600D02*
X116500072Y-73507600D01*
X116500072Y-72494790D01*
X120339618Y-72494790D01*
X119326808Y-73507600D01*
G04 #@! TA.AperFunction,Conductor*
D26*
G36*
X119326808Y-73507600D02*
G01*
X116500072Y-73507600D01*
X116500072Y-72494790D01*
X120339618Y-72494790D01*
X119326808Y-73507600D01*
G37*
G04 #@! TD.AperFunction*
D25*
X129684147Y-69431426D02*
X129629000Y-69708665D01*
X129629000Y-69991335D01*
X129684147Y-70268574D01*
X129792320Y-70529727D01*
X129949363Y-70764759D01*
X130149241Y-70964637D01*
X130158450Y-70970790D01*
X125776488Y-70970790D01*
X125467342Y-70661644D01*
X125443480Y-70632568D01*
X125327450Y-70537345D01*
X125195073Y-70466588D01*
X125051436Y-70423016D01*
X124939484Y-70411990D01*
X124939481Y-70411990D01*
X124902058Y-70408304D01*
X124864635Y-70411990D01*
X124217617Y-70411990D01*
X124253571Y-70336004D01*
X124322300Y-70061816D01*
X124336217Y-69779488D01*
X124294787Y-69499870D01*
X124204218Y-69246612D01*
X129760699Y-69246612D01*
X129684147Y-69431426D01*
G04 #@! TA.AperFunction,Conductor*
D26*
G36*
X129684147Y-69431426D02*
G01*
X129629000Y-69708665D01*
X129629000Y-69991335D01*
X129684147Y-70268574D01*
X129792320Y-70529727D01*
X129949363Y-70764759D01*
X130149241Y-70964637D01*
X130158450Y-70970790D01*
X125776488Y-70970790D01*
X125467342Y-70661644D01*
X125443480Y-70632568D01*
X125327450Y-70537345D01*
X125195073Y-70466588D01*
X125051436Y-70423016D01*
X124939484Y-70411990D01*
X124939481Y-70411990D01*
X124902058Y-70408304D01*
X124864635Y-70411990D01*
X124217617Y-70411990D01*
X124253571Y-70336004D01*
X124322300Y-70061816D01*
X124336217Y-69779488D01*
X124294787Y-69499870D01*
X124204218Y-69246612D01*
X129760699Y-69246612D01*
X129684147Y-69431426D01*
G37*
G04 #@! TD.AperFunction*
D25*
X123089748Y-69835858D02*
X123075605Y-69850000D01*
X123089748Y-69864143D01*
X122910143Y-70043748D01*
X122896000Y-70029605D01*
X122881858Y-70043748D01*
X122702253Y-69864143D01*
X122716395Y-69850000D01*
X122702253Y-69835858D01*
X122881858Y-69656253D01*
X122896000Y-69670395D01*
X122910143Y-69656253D01*
X123089748Y-69835858D01*
G04 #@! TA.AperFunction,Conductor*
D26*
G36*
X123089748Y-69835858D02*
G01*
X123075605Y-69850000D01*
X123089748Y-69864143D01*
X122910143Y-70043748D01*
X122896000Y-70029605D01*
X122881858Y-70043748D01*
X122702253Y-69864143D01*
X122716395Y-69850000D01*
X122702253Y-69835858D01*
X122881858Y-69656253D01*
X122896000Y-69670395D01*
X122910143Y-69656253D01*
X123089748Y-69835858D01*
G37*
G04 #@! TD.AperFunction*
M02*
