M48
; DRILL file {KiCad (5.1.10-1-10_14)} date Wednesday, August 04, 2021 at 11:21:24 PM
; FORMAT={-:-/ absolute / metric / decimal}
; #@! TF.CreationDate,2021-08-04T23:21:24+02:00
; #@! TF.GenerationSoftware,Kicad,Pcbnew,(5.1.10-1-10_14)
; #@! TF.FileFunction,Plated,1,4,PTH
FMAT,2
METRIC
T1C0.400
T2C0.500
T3C0.600
T4C0.750
T5C0.800
T6C1.000
T7C1.100
T8C1.600
T9C3.200
%
G90
G05
T1
X77.953Y-73.203
X78.003Y-80.645
X84.861Y-85.547
X86.157Y-90.195
X86.208Y-71.145
X90.322Y-61.087
X96.164Y-89.408
X98.527Y-73.025
X100.406Y-64.897
X104.445Y-68.91
X106.35Y-77.902
X107.594Y-80.594
X108.306Y-75.286
X108.788Y-65.049
X108.788Y-73.431
X108.788Y-93.142
X109.271Y-80.543
X117.373Y-75.54
X117.831Y-80.162
X118.72Y-72.898
X119.329Y-76.81
X119.507Y-85.039
X126.416Y-64.897
X126.492Y-69.977
X126.543Y-90.881
X128.311Y-90.141
X129.108Y-86.284
X129.997Y-74.32
X130.556Y-93.091
X130.708Y-79.426
X130.835Y-72.619
X131.166Y-73.508
X134.798Y-90.094
X135.111Y-69.163
X139.471Y-72.796
X140.259Y-65.583
X140.538Y-79.045
X140.792Y-82.906
X146.228Y-66.269
X147.599Y-91.999
X147.904Y-79.096
X150.825Y-62.078
X157.912Y-69.698
T3
X96.298Y-62.865
X98.298Y-62.865
T4
X84.541Y-73.787
X84.541Y-75.946
X84.541Y-78.105
X84.541Y-80.137
X87.081Y-73.787
X87.081Y-80.137
T5
X90.272Y-75.503
X90.272Y-78.003
X90.526Y-63.271
X90.526Y-70.891
X90.526Y-83.109
X90.526Y-90.729
X93.218Y-72.898
X93.218Y-75.438
X93.218Y-77.978
X93.218Y-80.518
X93.218Y-83.058
X93.218Y-85.598
X93.218Y-88.138
X93.218Y-90.678
X98.298Y-69.85
X100.798Y-69.85
X100.838Y-72.898
X100.838Y-75.438
X100.838Y-77.978
X100.838Y-80.518
X100.838Y-83.058
X100.838Y-85.598
X100.838Y-88.138
X100.838Y-90.678
X104.14Y-72.898
X104.14Y-75.438
X104.14Y-77.978
X104.14Y-80.518
X104.14Y-83.058
X104.14Y-85.598
X104.14Y-88.138
X104.14Y-90.678
X109.22Y-69.85
X111.72Y-69.85
X111.76Y-72.898
X111.76Y-75.438
X111.76Y-77.978
X111.76Y-80.518
X111.76Y-83.058
X111.76Y-85.598
X111.76Y-88.138
X111.76Y-90.678
X115.062Y-72.898
X115.062Y-75.438
X115.062Y-77.978
X115.062Y-80.518
X115.062Y-83.058
X115.062Y-85.598
X115.062Y-88.138
X120.396Y-69.85
X122.682Y-72.898
X122.682Y-75.438
X122.682Y-77.978
X122.682Y-80.518
X122.682Y-83.058
X122.682Y-85.598
X122.682Y-88.138
X122.896Y-69.85
X125.984Y-72.898
X125.984Y-75.438
X125.984Y-77.978
X125.984Y-80.518
X125.984Y-83.058
X125.984Y-85.598
X125.984Y-88.138
X131.064Y-69.85
X133.564Y-69.85
X133.604Y-72.898
X133.604Y-75.438
X133.604Y-77.978
X133.604Y-80.518
X133.604Y-83.058
X133.604Y-85.598
X133.604Y-88.138
X136.906Y-72.898
X136.906Y-75.438
X136.906Y-77.978
X136.906Y-80.518
X136.906Y-83.058
X136.906Y-85.598
X136.906Y-88.138
X139.446Y-62.484
X142.026Y-69.85
X144.526Y-69.85
X144.526Y-72.898
X144.526Y-75.438
X144.526Y-77.978
X144.526Y-80.518
X144.526Y-83.058
X144.526Y-85.598
X144.526Y-88.138
X147.066Y-62.484
X148.844Y-76.708
X151.384Y-72.898
X156.384Y-72.898
X156.464Y-76.708
T6
X86.335Y-64.11
X86.335Y-66.65
X103.632Y-62.484
X106.172Y-62.484
X108.712Y-62.484
X111.252Y-62.484
X113.792Y-62.484
X116.332Y-62.484
X118.872Y-62.484
X121.412Y-62.484
X123.952Y-62.484
X126.492Y-62.484
X129.032Y-62.484
X131.572Y-62.484
X134.112Y-62.484
T7
X148.844Y-81.28
X156.464Y-81.28
T8
X137.389Y-66.954
X148.26Y-68.631
X148.412Y-87.122
T9
X80.01Y-64.262
X80.01Y-89.916
X154.686Y-64.262
X154.686Y-89.916
T2
X80.416Y-76.212G85X80.416Y-77.712
G05
X81.701Y-69.977G85X80.301Y-69.977
G05
X81.701Y-83.947G85X80.301Y-83.947
G05
T0
M30
