G04 #@! TF.GenerationSoftware,KiCad,Pcbnew,(5.1.10-1-10_14)*
G04 #@! TF.CreationDate,2021-10-29T12:54:14+02:00*
G04 #@! TF.ProjectId,vga_sync,7667615f-7379-46e6-932e-6b696361645f,rev?*
G04 #@! TF.SameCoordinates,Original*
G04 #@! TF.FileFunction,Legend,Top*
G04 #@! TF.FilePolarity,Positive*
%FSLAX46Y46*%
G04 Gerber Fmt 4.6, Leading zero omitted, Abs format (unit mm)*
G04 Created by KiCad (PCBNEW (5.1.10-1-10_14)) date 2021-10-29 12:54:14*
%MOMM*%
%LPD*%
G01*
G04 APERTURE LIST*
%ADD10C,0.150000*%
%ADD11C,0.120000*%
%ADD12C,3.000000*%
%ADD13C,5.000000*%
%ADD14O,1.600000X1.600000*%
%ADD15R,1.600000X1.600000*%
%ADD16C,1.700000*%
%ADD17C,1.600000*%
%ADD18C,1.200000*%
%ADD19R,1.200000X1.200000*%
G04 APERTURE END LIST*
D10*
X219205752Y-103770180D02*
X219205752Y-104484466D01*
X219158133Y-104627323D01*
X219062895Y-104722561D01*
X218920038Y-104770180D01*
X218824800Y-104770180D01*
X220158133Y-104770180D02*
X219681942Y-104770180D01*
X219681942Y-103770180D01*
X221062895Y-104674942D02*
X221015276Y-104722561D01*
X220872419Y-104770180D01*
X220777180Y-104770180D01*
X220634323Y-104722561D01*
X220539085Y-104627323D01*
X220491466Y-104532085D01*
X220443847Y-104341609D01*
X220443847Y-104198752D01*
X220491466Y-104008276D01*
X220539085Y-103913038D01*
X220634323Y-103817800D01*
X220777180Y-103770180D01*
X220872419Y-103770180D01*
X221015276Y-103817800D01*
X221062895Y-103865419D01*
X221777180Y-103770180D02*
X221777180Y-104484466D01*
X221729561Y-104627323D01*
X221634323Y-104722561D01*
X221491466Y-104770180D01*
X221396228Y-104770180D01*
X222729561Y-104770180D02*
X222253371Y-104770180D01*
X222253371Y-103770180D01*
X223634323Y-104674942D02*
X223586704Y-104722561D01*
X223443847Y-104770180D01*
X223348609Y-104770180D01*
X223205752Y-104722561D01*
X223110514Y-104627323D01*
X223062895Y-104532085D01*
X223015276Y-104341609D01*
X223015276Y-104198752D01*
X223062895Y-104008276D01*
X223110514Y-103913038D01*
X223205752Y-103817800D01*
X223348609Y-103770180D01*
X223443847Y-103770180D01*
X223586704Y-103817800D01*
X223634323Y-103865419D01*
X224348609Y-103770180D02*
X224348609Y-104484466D01*
X224300990Y-104627323D01*
X224205752Y-104722561D01*
X224062895Y-104770180D01*
X223967657Y-104770180D01*
X225300990Y-104770180D02*
X224824800Y-104770180D01*
X224824800Y-103770180D01*
X226205752Y-104674942D02*
X226158133Y-104722561D01*
X226015276Y-104770180D01*
X225920038Y-104770180D01*
X225777180Y-104722561D01*
X225681942Y-104627323D01*
X225634323Y-104532085D01*
X225586704Y-104341609D01*
X225586704Y-104198752D01*
X225634323Y-104008276D01*
X225681942Y-103913038D01*
X225777180Y-103817800D01*
X225920038Y-103770180D01*
X226015276Y-103770180D01*
X226158133Y-103817800D01*
X226205752Y-103865419D01*
X226920038Y-103770180D02*
X226920038Y-104484466D01*
X226872419Y-104627323D01*
X226777180Y-104722561D01*
X226634323Y-104770180D01*
X226539085Y-104770180D01*
X227872419Y-104770180D02*
X227396228Y-104770180D01*
X227396228Y-103770180D01*
X228777180Y-104674942D02*
X228729561Y-104722561D01*
X228586704Y-104770180D01*
X228491466Y-104770180D01*
X228348609Y-104722561D01*
X228253371Y-104627323D01*
X228205752Y-104532085D01*
X228158133Y-104341609D01*
X228158133Y-104198752D01*
X228205752Y-104008276D01*
X228253371Y-103913038D01*
X228348609Y-103817800D01*
X228491466Y-103770180D01*
X228586704Y-103770180D01*
X228729561Y-103817800D01*
X228777180Y-103865419D01*
D11*
X114755400Y-97129600D02*
G75*
G03*
X114755400Y-97129600I-1700000J0D01*
G01*
X167986400Y-107045000D02*
X167986400Y-108695000D01*
X167986400Y-108695000D02*
X188426400Y-108695000D01*
X188426400Y-108695000D02*
X188426400Y-103395000D01*
X188426400Y-103395000D02*
X167986400Y-103395000D01*
X167986400Y-103395000D02*
X167986400Y-105045000D01*
X167926400Y-111185000D02*
X188486400Y-111185000D01*
X188486400Y-111185000D02*
X188486400Y-100905000D01*
X188486400Y-100905000D02*
X167926400Y-100905000D01*
X167926400Y-100905000D02*
X167926400Y-111185000D01*
X167986400Y-105045000D02*
G75*
G02*
X167986400Y-107045000I0J-1000000D01*
G01*
X143856400Y-122259600D02*
X143856400Y-123909600D01*
X143856400Y-123909600D02*
X161756400Y-123909600D01*
X161756400Y-123909600D02*
X161756400Y-118609600D01*
X161756400Y-118609600D02*
X143856400Y-118609600D01*
X143856400Y-118609600D02*
X143856400Y-120259600D01*
X143796400Y-126399600D02*
X161816400Y-126399600D01*
X161816400Y-126399600D02*
X161816400Y-116119600D01*
X161816400Y-116119600D02*
X143796400Y-116119600D01*
X143796400Y-116119600D02*
X143796400Y-126399600D01*
X143856400Y-120259600D02*
G75*
G02*
X143856400Y-122259600I0J-1000000D01*
G01*
X143146400Y-81489600D02*
X142646400Y-80489600D01*
X142146400Y-81489600D02*
X143146400Y-81489600D01*
X142646400Y-80489600D02*
X142146400Y-81489600D01*
X168826400Y-78789600D02*
X168826400Y-80099600D01*
X168826400Y-78789600D02*
X168826400Y-78789600D01*
X194816400Y-78789600D02*
X168826400Y-78789600D01*
X194816400Y-72289600D02*
X194816400Y-78789600D01*
X138736400Y-72289600D02*
X194816400Y-72289600D01*
X138736400Y-78789600D02*
X138736400Y-72289600D01*
X164726400Y-78789600D02*
X138736400Y-78789600D01*
X164726400Y-80099600D02*
X164726400Y-78789600D01*
X196116400Y-80099600D02*
X137436400Y-80099600D01*
X196116400Y-70979600D02*
X196116400Y-80099600D01*
X137436400Y-70979600D02*
X196116400Y-70979600D01*
X137436400Y-80099600D02*
X137436400Y-70979600D01*
X145126400Y-107019600D02*
X145126400Y-108669600D01*
X145126400Y-108669600D02*
X163026400Y-108669600D01*
X163026400Y-108669600D02*
X163026400Y-103369600D01*
X163026400Y-103369600D02*
X145126400Y-103369600D01*
X145126400Y-103369600D02*
X145126400Y-105019600D01*
X145066400Y-111159600D02*
X163086400Y-111159600D01*
X163086400Y-111159600D02*
X163086400Y-100879600D01*
X163086400Y-100879600D02*
X145066400Y-100879600D01*
X145066400Y-100879600D02*
X145066400Y-111159600D01*
X145126400Y-105019600D02*
G75*
G02*
X145126400Y-107019600I0J-1000000D01*
G01*
X122586400Y-107019600D02*
X122586400Y-108669600D01*
X122586400Y-108669600D02*
X140486400Y-108669600D01*
X140486400Y-108669600D02*
X140486400Y-103369600D01*
X140486400Y-103369600D02*
X122586400Y-103369600D01*
X122586400Y-103369600D02*
X122586400Y-105019600D01*
X122526400Y-111159600D02*
X140546400Y-111159600D01*
X140546400Y-111159600D02*
X140546400Y-100879600D01*
X140546400Y-100879600D02*
X122526400Y-100879600D01*
X122526400Y-100879600D02*
X122526400Y-111159600D01*
X122586400Y-105019600D02*
G75*
G02*
X122586400Y-107019600I0J-1000000D01*
G01*
X145126400Y-89239600D02*
X145126400Y-90889600D01*
X145126400Y-90889600D02*
X170646400Y-90889600D01*
X170646400Y-90889600D02*
X170646400Y-85589600D01*
X170646400Y-85589600D02*
X145126400Y-85589600D01*
X145126400Y-85589600D02*
X145126400Y-87239600D01*
X145066400Y-93379600D02*
X170706400Y-93379600D01*
X170706400Y-93379600D02*
X170706400Y-83099600D01*
X170706400Y-83099600D02*
X145066400Y-83099600D01*
X145066400Y-83099600D02*
X145066400Y-93379600D01*
X145126400Y-87239600D02*
G75*
G02*
X145126400Y-89239600I0J-1000000D01*
G01*
X220816400Y-95959600D02*
X224456400Y-95959600D01*
X220816400Y-98299600D02*
X224456400Y-98299600D01*
X220816400Y-95959600D02*
X220816400Y-96204600D01*
X220816400Y-98054600D02*
X220816400Y-98299600D01*
X224456400Y-95959600D02*
X224456400Y-96204600D01*
X224456400Y-98054600D02*
X224456400Y-98299600D01*
X174296400Y-83859600D02*
X174296400Y-87499600D01*
X171956400Y-83859600D02*
X171956400Y-87499600D01*
X174296400Y-83859600D02*
X174051400Y-83859600D01*
X172201400Y-83859600D02*
X171956400Y-83859600D01*
X174296400Y-87499600D02*
X174051400Y-87499600D01*
X172201400Y-87499600D02*
X171956400Y-87499600D01*
X217476400Y-100319600D02*
X217476400Y-112469600D01*
X229626400Y-99569600D02*
X218226400Y-99569600D01*
X230376400Y-111719600D02*
X230376400Y-100319600D01*
X217476400Y-112469600D02*
X229626400Y-112469600D01*
X218226400Y-99569600D02*
G75*
G03*
X217476400Y-100319600I0J-750000D01*
G01*
X230376400Y-100319600D02*
G75*
G03*
X229626400Y-99569600I-750000J0D01*
G01*
X229626400Y-112469600D02*
G75*
G03*
X230376400Y-111719600I0J750000D01*
G01*
X206086400Y-89239600D02*
X206086400Y-90889600D01*
X206086400Y-90889600D02*
X231606400Y-90889600D01*
X231606400Y-90889600D02*
X231606400Y-85589600D01*
X231606400Y-85589600D02*
X206086400Y-85589600D01*
X206086400Y-85589600D02*
X206086400Y-87239600D01*
X206026400Y-93379600D02*
X231666400Y-93379600D01*
X231666400Y-93379600D02*
X231666400Y-83099600D01*
X231666400Y-83099600D02*
X206026400Y-83099600D01*
X206026400Y-83099600D02*
X206026400Y-93379600D01*
X206086400Y-87239600D02*
G75*
G02*
X206086400Y-89239600I0J-1000000D01*
G01*
X175606400Y-89239600D02*
X175606400Y-90889600D01*
X175606400Y-90889600D02*
X201126400Y-90889600D01*
X201126400Y-90889600D02*
X201126400Y-85589600D01*
X201126400Y-85589600D02*
X175606400Y-85589600D01*
X175606400Y-85589600D02*
X175606400Y-87239600D01*
X175546400Y-93379600D02*
X201186400Y-93379600D01*
X201186400Y-93379600D02*
X201186400Y-83099600D01*
X201186400Y-83099600D02*
X175546400Y-83099600D01*
X175546400Y-83099600D02*
X175546400Y-93379600D01*
X175606400Y-87239600D02*
G75*
G02*
X175606400Y-89239600I0J-1000000D01*
G01*
X114646400Y-89239600D02*
X114646400Y-90889600D01*
X114646400Y-90889600D02*
X140166400Y-90889600D01*
X140166400Y-90889600D02*
X140166400Y-85589600D01*
X140166400Y-85589600D02*
X114646400Y-85589600D01*
X114646400Y-85589600D02*
X114646400Y-87239600D01*
X114586400Y-93379600D02*
X140226400Y-93379600D01*
X140226400Y-93379600D02*
X140226400Y-83099600D01*
X140226400Y-83099600D02*
X114586400Y-83099600D01*
X114586400Y-83099600D02*
X114586400Y-93379600D01*
X114646400Y-87239600D02*
G75*
G02*
X114646400Y-89239600I0J-1000000D01*
G01*
X214976400Y-122259600D02*
X214976400Y-123909600D01*
X214976400Y-123909600D02*
X235416400Y-123909600D01*
X235416400Y-123909600D02*
X235416400Y-118609600D01*
X235416400Y-118609600D02*
X214976400Y-118609600D01*
X214976400Y-118609600D02*
X214976400Y-120259600D01*
X214916400Y-126399600D02*
X235476400Y-126399600D01*
X235476400Y-126399600D02*
X235476400Y-116119600D01*
X235476400Y-116119600D02*
X214916400Y-116119600D01*
X214916400Y-116119600D02*
X214916400Y-126399600D01*
X214976400Y-120259600D02*
G75*
G02*
X214976400Y-122259600I0J-1000000D01*
G01*
X214986400Y-140039600D02*
X214986400Y-141689600D01*
X214986400Y-141689600D02*
X235426400Y-141689600D01*
X235426400Y-141689600D02*
X235426400Y-136389600D01*
X235426400Y-136389600D02*
X214986400Y-136389600D01*
X214986400Y-136389600D02*
X214986400Y-138039600D01*
X214926400Y-144179600D02*
X235486400Y-144179600D01*
X235486400Y-144179600D02*
X235486400Y-133899600D01*
X235486400Y-133899600D02*
X214926400Y-133899600D01*
X214926400Y-133899600D02*
X214926400Y-144179600D01*
X214986400Y-138039600D02*
G75*
G02*
X214986400Y-140039600I0J-1000000D01*
G01*
X189576400Y-140039600D02*
X189576400Y-141689600D01*
X189576400Y-141689600D02*
X210016400Y-141689600D01*
X210016400Y-141689600D02*
X210016400Y-136389600D01*
X210016400Y-136389600D02*
X189576400Y-136389600D01*
X189576400Y-136389600D02*
X189576400Y-138039600D01*
X189516400Y-144179600D02*
X210076400Y-144179600D01*
X210076400Y-144179600D02*
X210076400Y-133899600D01*
X210076400Y-133899600D02*
X189516400Y-133899600D01*
X189516400Y-133899600D02*
X189516400Y-144179600D01*
X189576400Y-138039600D02*
G75*
G02*
X189576400Y-140039600I0J-1000000D01*
G01*
X189576400Y-122259600D02*
X189576400Y-123909600D01*
X189576400Y-123909600D02*
X207476400Y-123909600D01*
X207476400Y-123909600D02*
X207476400Y-118609600D01*
X207476400Y-118609600D02*
X189576400Y-118609600D01*
X189576400Y-118609600D02*
X189576400Y-120259600D01*
X189516400Y-126399600D02*
X207536400Y-126399600D01*
X207536400Y-126399600D02*
X207536400Y-116119600D01*
X207536400Y-116119600D02*
X189516400Y-116119600D01*
X189516400Y-116119600D02*
X189516400Y-126399600D01*
X189576400Y-120259600D02*
G75*
G02*
X189576400Y-122259600I0J-1000000D01*
G01*
X193386400Y-107019600D02*
X193386400Y-108669600D01*
X193386400Y-108669600D02*
X211286400Y-108669600D01*
X211286400Y-108669600D02*
X211286400Y-103369600D01*
X211286400Y-103369600D02*
X193386400Y-103369600D01*
X193386400Y-103369600D02*
X193386400Y-105019600D01*
X193326400Y-111159600D02*
X211346400Y-111159600D01*
X211346400Y-111159600D02*
X211346400Y-100879600D01*
X211346400Y-100879600D02*
X193326400Y-100879600D01*
X193326400Y-100879600D02*
X193326400Y-111159600D01*
X193386400Y-105019600D02*
G75*
G02*
X193386400Y-107019600I0J-1000000D01*
G01*
X166716400Y-122259600D02*
X166716400Y-123909600D01*
X166716400Y-123909600D02*
X184616400Y-123909600D01*
X184616400Y-123909600D02*
X184616400Y-118609600D01*
X184616400Y-118609600D02*
X166716400Y-118609600D01*
X166716400Y-118609600D02*
X166716400Y-120259600D01*
X166656400Y-126399600D02*
X184676400Y-126399600D01*
X184676400Y-126399600D02*
X184676400Y-116119600D01*
X184676400Y-116119600D02*
X166656400Y-116119600D01*
X166656400Y-116119600D02*
X166656400Y-126399600D01*
X166716400Y-120259600D02*
G75*
G02*
X166716400Y-122259600I0J-1000000D01*
G01*
X120996400Y-122259600D02*
X120996400Y-123909600D01*
X120996400Y-123909600D02*
X138896400Y-123909600D01*
X138896400Y-123909600D02*
X138896400Y-118609600D01*
X138896400Y-118609600D02*
X120996400Y-118609600D01*
X120996400Y-118609600D02*
X120996400Y-120259600D01*
X120936400Y-126399600D02*
X138956400Y-126399600D01*
X138956400Y-126399600D02*
X138956400Y-116119600D01*
X138956400Y-116119600D02*
X120936400Y-116119600D01*
X120936400Y-116119600D02*
X120936400Y-126399600D01*
X120996400Y-120259600D02*
G75*
G02*
X120996400Y-122259600I0J-1000000D01*
G01*
X164176400Y-140039600D02*
X164176400Y-141689600D01*
X164176400Y-141689600D02*
X184616400Y-141689600D01*
X184616400Y-141689600D02*
X184616400Y-136389600D01*
X184616400Y-136389600D02*
X164176400Y-136389600D01*
X164176400Y-136389600D02*
X164176400Y-138039600D01*
X164116400Y-144179600D02*
X184676400Y-144179600D01*
X184676400Y-144179600D02*
X184676400Y-133899600D01*
X184676400Y-133899600D02*
X164116400Y-133899600D01*
X164116400Y-133899600D02*
X164116400Y-144179600D01*
X164176400Y-138039600D02*
G75*
G02*
X164176400Y-140039600I0J-1000000D01*
G01*
X138776400Y-140039600D02*
X138776400Y-141689600D01*
X138776400Y-141689600D02*
X159216400Y-141689600D01*
X159216400Y-141689600D02*
X159216400Y-136389600D01*
X159216400Y-136389600D02*
X138776400Y-136389600D01*
X138776400Y-136389600D02*
X138776400Y-138039600D01*
X138716400Y-144179600D02*
X159276400Y-144179600D01*
X159276400Y-144179600D02*
X159276400Y-133899600D01*
X159276400Y-133899600D02*
X138716400Y-133899600D01*
X138716400Y-133899600D02*
X138716400Y-144179600D01*
X138776400Y-138039600D02*
G75*
G02*
X138776400Y-140039600I0J-1000000D01*
G01*
X113376400Y-140039600D02*
X113376400Y-141689600D01*
X113376400Y-141689600D02*
X133816400Y-141689600D01*
X133816400Y-141689600D02*
X133816400Y-136389600D01*
X133816400Y-136389600D02*
X113376400Y-136389600D01*
X113376400Y-136389600D02*
X113376400Y-138039600D01*
X113316400Y-144179600D02*
X133876400Y-144179600D01*
X133876400Y-144179600D02*
X133876400Y-133899600D01*
X133876400Y-133899600D02*
X113316400Y-133899600D01*
X113316400Y-133899600D02*
X113316400Y-144179600D01*
X113376400Y-138039600D02*
G75*
G02*
X113376400Y-140039600I0J-1000000D01*
G01*
X131646400Y-97129600D02*
G75*
G03*
X131646400Y-97129600I-1700000J0D01*
G01*
X167206400Y-97129600D02*
G75*
G03*
X167206400Y-97129600I-1700000J0D01*
G01*
X202766400Y-97129600D02*
G75*
G03*
X202766400Y-97129600I-1700000J0D01*
G01*
X148156400Y-97129600D02*
G75*
G03*
X148156400Y-97129600I-1700000J0D01*
G01*
X186256400Y-97129600D02*
G75*
G03*
X186256400Y-97129600I-1700000J0D01*
G01*
X181176400Y-130149600D02*
G75*
G03*
X181176400Y-130149600I-1700000J0D01*
G01*
X215466400Y-97129600D02*
G75*
G03*
X215466400Y-97129600I-1700000J0D01*
G01*
X197686400Y-130149600D02*
G75*
G03*
X197686400Y-130149600I-1700000J0D01*
G01*
X151966400Y-130149600D02*
G75*
G03*
X151966400Y-130149600I-1700000J0D01*
G01*
X134506400Y-75539600D02*
G75*
G03*
X134506400Y-75539600I-3270000J0D01*
G01*
X131236400Y-78769600D02*
X131236400Y-72309600D01*
X131196400Y-78769600D02*
X131196400Y-72309600D01*
X131156400Y-78769600D02*
X131156400Y-72309600D01*
X131116400Y-78767600D02*
X131116400Y-72311600D01*
X131076400Y-78766600D02*
X131076400Y-72312600D01*
X131036400Y-78763600D02*
X131036400Y-72315600D01*
X130996400Y-78761600D02*
X130996400Y-76579600D01*
X130996400Y-74499600D02*
X130996400Y-72317600D01*
X130956400Y-78757600D02*
X130956400Y-76579600D01*
X130956400Y-74499600D02*
X130956400Y-72321600D01*
X130916400Y-78754600D02*
X130916400Y-76579600D01*
X130916400Y-74499600D02*
X130916400Y-72324600D01*
X130876400Y-78750600D02*
X130876400Y-76579600D01*
X130876400Y-74499600D02*
X130876400Y-72328600D01*
X130836400Y-78745600D02*
X130836400Y-76579600D01*
X130836400Y-74499600D02*
X130836400Y-72333600D01*
X130796400Y-78740600D02*
X130796400Y-76579600D01*
X130796400Y-74499600D02*
X130796400Y-72338600D01*
X130756400Y-78734600D02*
X130756400Y-76579600D01*
X130756400Y-74499600D02*
X130756400Y-72344600D01*
X130716400Y-78728600D02*
X130716400Y-76579600D01*
X130716400Y-74499600D02*
X130716400Y-72350600D01*
X130676400Y-78721600D02*
X130676400Y-76579600D01*
X130676400Y-74499600D02*
X130676400Y-72357600D01*
X130636400Y-78714600D02*
X130636400Y-76579600D01*
X130636400Y-74499600D02*
X130636400Y-72364600D01*
X130596400Y-78706600D02*
X130596400Y-76579600D01*
X130596400Y-74499600D02*
X130596400Y-72372600D01*
X130556400Y-78698600D02*
X130556400Y-76579600D01*
X130556400Y-74499600D02*
X130556400Y-72380600D01*
X130515400Y-78689600D02*
X130515400Y-76579600D01*
X130515400Y-74499600D02*
X130515400Y-72389600D01*
X130475400Y-78680600D02*
X130475400Y-76579600D01*
X130475400Y-74499600D02*
X130475400Y-72398600D01*
X130435400Y-78670600D02*
X130435400Y-76579600D01*
X130435400Y-74499600D02*
X130435400Y-72408600D01*
X130395400Y-78660600D02*
X130395400Y-76579600D01*
X130395400Y-74499600D02*
X130395400Y-72418600D01*
X130355400Y-78649600D02*
X130355400Y-76579600D01*
X130355400Y-74499600D02*
X130355400Y-72429600D01*
X130315400Y-78637600D02*
X130315400Y-76579600D01*
X130315400Y-74499600D02*
X130315400Y-72441600D01*
X130275400Y-78625600D02*
X130275400Y-76579600D01*
X130275400Y-74499600D02*
X130275400Y-72453600D01*
X130235400Y-78613600D02*
X130235400Y-76579600D01*
X130235400Y-74499600D02*
X130235400Y-72465600D01*
X130195400Y-78600600D02*
X130195400Y-76579600D01*
X130195400Y-74499600D02*
X130195400Y-72478600D01*
X130155400Y-78586600D02*
X130155400Y-76579600D01*
X130155400Y-74499600D02*
X130155400Y-72492600D01*
X130115400Y-78572600D02*
X130115400Y-76579600D01*
X130115400Y-74499600D02*
X130115400Y-72506600D01*
X130075400Y-78557600D02*
X130075400Y-76579600D01*
X130075400Y-74499600D02*
X130075400Y-72521600D01*
X130035400Y-78541600D02*
X130035400Y-76579600D01*
X130035400Y-74499600D02*
X130035400Y-72537600D01*
X129995400Y-78525600D02*
X129995400Y-76579600D01*
X129995400Y-74499600D02*
X129995400Y-72553600D01*
X129955400Y-78509600D02*
X129955400Y-76579600D01*
X129955400Y-74499600D02*
X129955400Y-72569600D01*
X129915400Y-78491600D02*
X129915400Y-76579600D01*
X129915400Y-74499600D02*
X129915400Y-72587600D01*
X129875400Y-78473600D02*
X129875400Y-76579600D01*
X129875400Y-74499600D02*
X129875400Y-72605600D01*
X129835400Y-78455600D02*
X129835400Y-76579600D01*
X129835400Y-74499600D02*
X129835400Y-72623600D01*
X129795400Y-78435600D02*
X129795400Y-76579600D01*
X129795400Y-74499600D02*
X129795400Y-72643600D01*
X129755400Y-78415600D02*
X129755400Y-76579600D01*
X129755400Y-74499600D02*
X129755400Y-72663600D01*
X129715400Y-78395600D02*
X129715400Y-76579600D01*
X129715400Y-74499600D02*
X129715400Y-72683600D01*
X129675400Y-78373600D02*
X129675400Y-76579600D01*
X129675400Y-74499600D02*
X129675400Y-72705600D01*
X129635400Y-78351600D02*
X129635400Y-76579600D01*
X129635400Y-74499600D02*
X129635400Y-72727600D01*
X129595400Y-78329600D02*
X129595400Y-76579600D01*
X129595400Y-74499600D02*
X129595400Y-72749600D01*
X129555400Y-78305600D02*
X129555400Y-76579600D01*
X129555400Y-74499600D02*
X129555400Y-72773600D01*
X129515400Y-78281600D02*
X129515400Y-76579600D01*
X129515400Y-74499600D02*
X129515400Y-72797600D01*
X129475400Y-78255600D02*
X129475400Y-76579600D01*
X129475400Y-74499600D02*
X129475400Y-72823600D01*
X129435400Y-78229600D02*
X129435400Y-76579600D01*
X129435400Y-74499600D02*
X129435400Y-72849600D01*
X129395400Y-78203600D02*
X129395400Y-76579600D01*
X129395400Y-74499600D02*
X129395400Y-72875600D01*
X129355400Y-78175600D02*
X129355400Y-76579600D01*
X129355400Y-74499600D02*
X129355400Y-72903600D01*
X129315400Y-78146600D02*
X129315400Y-76579600D01*
X129315400Y-74499600D02*
X129315400Y-72932600D01*
X129275400Y-78117600D02*
X129275400Y-76579600D01*
X129275400Y-74499600D02*
X129275400Y-72961600D01*
X129235400Y-78087600D02*
X129235400Y-76579600D01*
X129235400Y-74499600D02*
X129235400Y-72991600D01*
X129195400Y-78055600D02*
X129195400Y-76579600D01*
X129195400Y-74499600D02*
X129195400Y-73023600D01*
X129155400Y-78023600D02*
X129155400Y-76579600D01*
X129155400Y-74499600D02*
X129155400Y-73055600D01*
X129115400Y-77989600D02*
X129115400Y-76579600D01*
X129115400Y-74499600D02*
X129115400Y-73089600D01*
X129075400Y-77955600D02*
X129075400Y-76579600D01*
X129075400Y-74499600D02*
X129075400Y-73123600D01*
X129035400Y-77919600D02*
X129035400Y-76579600D01*
X129035400Y-74499600D02*
X129035400Y-73159600D01*
X128995400Y-77882600D02*
X128995400Y-76579600D01*
X128995400Y-74499600D02*
X128995400Y-73196600D01*
X128955400Y-77844600D02*
X128955400Y-76579600D01*
X128955400Y-74499600D02*
X128955400Y-73234600D01*
X128915400Y-77804600D02*
X128915400Y-73274600D01*
X128875400Y-77763600D02*
X128875400Y-73315600D01*
X128835400Y-77721600D02*
X128835400Y-73357600D01*
X128795400Y-77676600D02*
X128795400Y-73402600D01*
X128755400Y-77631600D02*
X128755400Y-73447600D01*
X128715400Y-77583600D02*
X128715400Y-73495600D01*
X128675400Y-77534600D02*
X128675400Y-73544600D01*
X128635400Y-77483600D02*
X128635400Y-73595600D01*
X128595400Y-77429600D02*
X128595400Y-73649600D01*
X128555400Y-77373600D02*
X128555400Y-73705600D01*
X128515400Y-77315600D02*
X128515400Y-73763600D01*
X128475400Y-77253600D02*
X128475400Y-73825600D01*
X128435400Y-77189600D02*
X128435400Y-73889600D01*
X128395400Y-77120600D02*
X128395400Y-73958600D01*
X128355400Y-77048600D02*
X128355400Y-74030600D01*
X128315400Y-76971600D02*
X128315400Y-74107600D01*
X128275400Y-76889600D02*
X128275400Y-74189600D01*
X128235400Y-76801600D02*
X128235400Y-74277600D01*
X128195400Y-76704600D02*
X128195400Y-74374600D01*
X128155400Y-76598600D02*
X128155400Y-74480600D01*
X128115400Y-76479600D02*
X128115400Y-74599600D01*
X128075400Y-76341600D02*
X128075400Y-74737600D01*
X128035400Y-76172600D02*
X128035400Y-74906600D01*
X127995400Y-75941600D02*
X127995400Y-75137600D01*
X134736641Y-77378600D02*
X134106641Y-77378600D01*
X134421641Y-77693600D02*
X134421641Y-77063600D01*
X114556400Y-118719600D02*
G75*
G03*
X114556400Y-118719600I-2120000J0D01*
G01*
X112436400Y-120799600D02*
X112436400Y-116639600D01*
X112396400Y-120799600D02*
X112396400Y-116639600D01*
X112356400Y-120798600D02*
X112356400Y-116640600D01*
X112316400Y-120796600D02*
X112316400Y-116642600D01*
X112276400Y-120793600D02*
X112276400Y-116645600D01*
X112236400Y-120790600D02*
X112236400Y-119559600D01*
X112236400Y-117879600D02*
X112236400Y-116648600D01*
X112196400Y-120786600D02*
X112196400Y-119559600D01*
X112196400Y-117879600D02*
X112196400Y-116652600D01*
X112156400Y-120781600D02*
X112156400Y-119559600D01*
X112156400Y-117879600D02*
X112156400Y-116657600D01*
X112116400Y-120775600D02*
X112116400Y-119559600D01*
X112116400Y-117879600D02*
X112116400Y-116663600D01*
X112076400Y-120769600D02*
X112076400Y-119559600D01*
X112076400Y-117879600D02*
X112076400Y-116669600D01*
X112036400Y-120761600D02*
X112036400Y-119559600D01*
X112036400Y-117879600D02*
X112036400Y-116677600D01*
X111996400Y-120753600D02*
X111996400Y-119559600D01*
X111996400Y-117879600D02*
X111996400Y-116685600D01*
X111956400Y-120744600D02*
X111956400Y-119559600D01*
X111956400Y-117879600D02*
X111956400Y-116694600D01*
X111916400Y-120735600D02*
X111916400Y-119559600D01*
X111916400Y-117879600D02*
X111916400Y-116703600D01*
X111876400Y-120724600D02*
X111876400Y-119559600D01*
X111876400Y-117879600D02*
X111876400Y-116714600D01*
X111836400Y-120713600D02*
X111836400Y-119559600D01*
X111836400Y-117879600D02*
X111836400Y-116725600D01*
X111796400Y-120701600D02*
X111796400Y-119559600D01*
X111796400Y-117879600D02*
X111796400Y-116737600D01*
X111756400Y-120687600D02*
X111756400Y-119559600D01*
X111756400Y-117879600D02*
X111756400Y-116751600D01*
X111715400Y-120673600D02*
X111715400Y-119559600D01*
X111715400Y-117879600D02*
X111715400Y-116765600D01*
X111675400Y-120659600D02*
X111675400Y-119559600D01*
X111675400Y-117879600D02*
X111675400Y-116779600D01*
X111635400Y-120643600D02*
X111635400Y-119559600D01*
X111635400Y-117879600D02*
X111635400Y-116795600D01*
X111595400Y-120626600D02*
X111595400Y-119559600D01*
X111595400Y-117879600D02*
X111595400Y-116812600D01*
X111555400Y-120608600D02*
X111555400Y-119559600D01*
X111555400Y-117879600D02*
X111555400Y-116830600D01*
X111515400Y-120589600D02*
X111515400Y-119559600D01*
X111515400Y-117879600D02*
X111515400Y-116849600D01*
X111475400Y-120570600D02*
X111475400Y-119559600D01*
X111475400Y-117879600D02*
X111475400Y-116868600D01*
X111435400Y-120549600D02*
X111435400Y-119559600D01*
X111435400Y-117879600D02*
X111435400Y-116889600D01*
X111395400Y-120527600D02*
X111395400Y-119559600D01*
X111395400Y-117879600D02*
X111395400Y-116911600D01*
X111355400Y-120504600D02*
X111355400Y-119559600D01*
X111355400Y-117879600D02*
X111355400Y-116934600D01*
X111315400Y-120479600D02*
X111315400Y-119559600D01*
X111315400Y-117879600D02*
X111315400Y-116959600D01*
X111275400Y-120454600D02*
X111275400Y-119559600D01*
X111275400Y-117879600D02*
X111275400Y-116984600D01*
X111235400Y-120427600D02*
X111235400Y-119559600D01*
X111235400Y-117879600D02*
X111235400Y-117011600D01*
X111195400Y-120399600D02*
X111195400Y-119559600D01*
X111195400Y-117879600D02*
X111195400Y-117039600D01*
X111155400Y-120369600D02*
X111155400Y-119559600D01*
X111155400Y-117879600D02*
X111155400Y-117069600D01*
X111115400Y-120338600D02*
X111115400Y-119559600D01*
X111115400Y-117879600D02*
X111115400Y-117100600D01*
X111075400Y-120306600D02*
X111075400Y-119559600D01*
X111075400Y-117879600D02*
X111075400Y-117132600D01*
X111035400Y-120271600D02*
X111035400Y-119559600D01*
X111035400Y-117879600D02*
X111035400Y-117167600D01*
X110995400Y-120235600D02*
X110995400Y-119559600D01*
X110995400Y-117879600D02*
X110995400Y-117203600D01*
X110955400Y-120197600D02*
X110955400Y-119559600D01*
X110955400Y-117879600D02*
X110955400Y-117241600D01*
X110915400Y-120157600D02*
X110915400Y-119559600D01*
X110915400Y-117879600D02*
X110915400Y-117281600D01*
X110875400Y-120115600D02*
X110875400Y-119559600D01*
X110875400Y-117879600D02*
X110875400Y-117323600D01*
X110835400Y-120070600D02*
X110835400Y-119559600D01*
X110835400Y-117879600D02*
X110835400Y-117368600D01*
X110795400Y-120023600D02*
X110795400Y-119559600D01*
X110795400Y-117879600D02*
X110795400Y-117415600D01*
X110755400Y-119973600D02*
X110755400Y-119559600D01*
X110755400Y-117879600D02*
X110755400Y-117465600D01*
X110715400Y-119919600D02*
X110715400Y-119559600D01*
X110715400Y-117879600D02*
X110715400Y-117519600D01*
X110675400Y-119861600D02*
X110675400Y-119559600D01*
X110675400Y-117879600D02*
X110675400Y-117577600D01*
X110635400Y-119799600D02*
X110635400Y-119559600D01*
X110635400Y-117879600D02*
X110635400Y-117639600D01*
X110595400Y-119732600D02*
X110595400Y-117706600D01*
X110555400Y-119659600D02*
X110555400Y-117779600D01*
X110515400Y-119578600D02*
X110515400Y-117860600D01*
X110475400Y-119487600D02*
X110475400Y-117951600D01*
X110435400Y-119383600D02*
X110435400Y-118055600D01*
X110395400Y-119256600D02*
X110395400Y-118182600D01*
X110355400Y-119089600D02*
X110355400Y-118349600D01*
X114706201Y-119914600D02*
X114306201Y-119914600D01*
X114506201Y-120114600D02*
X114506201Y-119714600D01*
X114556400Y-128879600D02*
G75*
G03*
X114556400Y-128879600I-2120000J0D01*
G01*
X112436400Y-130959600D02*
X112436400Y-126799600D01*
X112396400Y-130959600D02*
X112396400Y-126799600D01*
X112356400Y-130958600D02*
X112356400Y-126800600D01*
X112316400Y-130956600D02*
X112316400Y-126802600D01*
X112276400Y-130953600D02*
X112276400Y-126805600D01*
X112236400Y-130950600D02*
X112236400Y-129719600D01*
X112236400Y-128039600D02*
X112236400Y-126808600D01*
X112196400Y-130946600D02*
X112196400Y-129719600D01*
X112196400Y-128039600D02*
X112196400Y-126812600D01*
X112156400Y-130941600D02*
X112156400Y-129719600D01*
X112156400Y-128039600D02*
X112156400Y-126817600D01*
X112116400Y-130935600D02*
X112116400Y-129719600D01*
X112116400Y-128039600D02*
X112116400Y-126823600D01*
X112076400Y-130929600D02*
X112076400Y-129719600D01*
X112076400Y-128039600D02*
X112076400Y-126829600D01*
X112036400Y-130921600D02*
X112036400Y-129719600D01*
X112036400Y-128039600D02*
X112036400Y-126837600D01*
X111996400Y-130913600D02*
X111996400Y-129719600D01*
X111996400Y-128039600D02*
X111996400Y-126845600D01*
X111956400Y-130904600D02*
X111956400Y-129719600D01*
X111956400Y-128039600D02*
X111956400Y-126854600D01*
X111916400Y-130895600D02*
X111916400Y-129719600D01*
X111916400Y-128039600D02*
X111916400Y-126863600D01*
X111876400Y-130884600D02*
X111876400Y-129719600D01*
X111876400Y-128039600D02*
X111876400Y-126874600D01*
X111836400Y-130873600D02*
X111836400Y-129719600D01*
X111836400Y-128039600D02*
X111836400Y-126885600D01*
X111796400Y-130861600D02*
X111796400Y-129719600D01*
X111796400Y-128039600D02*
X111796400Y-126897600D01*
X111756400Y-130847600D02*
X111756400Y-129719600D01*
X111756400Y-128039600D02*
X111756400Y-126911600D01*
X111715400Y-130833600D02*
X111715400Y-129719600D01*
X111715400Y-128039600D02*
X111715400Y-126925600D01*
X111675400Y-130819600D02*
X111675400Y-129719600D01*
X111675400Y-128039600D02*
X111675400Y-126939600D01*
X111635400Y-130803600D02*
X111635400Y-129719600D01*
X111635400Y-128039600D02*
X111635400Y-126955600D01*
X111595400Y-130786600D02*
X111595400Y-129719600D01*
X111595400Y-128039600D02*
X111595400Y-126972600D01*
X111555400Y-130768600D02*
X111555400Y-129719600D01*
X111555400Y-128039600D02*
X111555400Y-126990600D01*
X111515400Y-130749600D02*
X111515400Y-129719600D01*
X111515400Y-128039600D02*
X111515400Y-127009600D01*
X111475400Y-130730600D02*
X111475400Y-129719600D01*
X111475400Y-128039600D02*
X111475400Y-127028600D01*
X111435400Y-130709600D02*
X111435400Y-129719600D01*
X111435400Y-128039600D02*
X111435400Y-127049600D01*
X111395400Y-130687600D02*
X111395400Y-129719600D01*
X111395400Y-128039600D02*
X111395400Y-127071600D01*
X111355400Y-130664600D02*
X111355400Y-129719600D01*
X111355400Y-128039600D02*
X111355400Y-127094600D01*
X111315400Y-130639600D02*
X111315400Y-129719600D01*
X111315400Y-128039600D02*
X111315400Y-127119600D01*
X111275400Y-130614600D02*
X111275400Y-129719600D01*
X111275400Y-128039600D02*
X111275400Y-127144600D01*
X111235400Y-130587600D02*
X111235400Y-129719600D01*
X111235400Y-128039600D02*
X111235400Y-127171600D01*
X111195400Y-130559600D02*
X111195400Y-129719600D01*
X111195400Y-128039600D02*
X111195400Y-127199600D01*
X111155400Y-130529600D02*
X111155400Y-129719600D01*
X111155400Y-128039600D02*
X111155400Y-127229600D01*
X111115400Y-130498600D02*
X111115400Y-129719600D01*
X111115400Y-128039600D02*
X111115400Y-127260600D01*
X111075400Y-130466600D02*
X111075400Y-129719600D01*
X111075400Y-128039600D02*
X111075400Y-127292600D01*
X111035400Y-130431600D02*
X111035400Y-129719600D01*
X111035400Y-128039600D02*
X111035400Y-127327600D01*
X110995400Y-130395600D02*
X110995400Y-129719600D01*
X110995400Y-128039600D02*
X110995400Y-127363600D01*
X110955400Y-130357600D02*
X110955400Y-129719600D01*
X110955400Y-128039600D02*
X110955400Y-127401600D01*
X110915400Y-130317600D02*
X110915400Y-129719600D01*
X110915400Y-128039600D02*
X110915400Y-127441600D01*
X110875400Y-130275600D02*
X110875400Y-129719600D01*
X110875400Y-128039600D02*
X110875400Y-127483600D01*
X110835400Y-130230600D02*
X110835400Y-129719600D01*
X110835400Y-128039600D02*
X110835400Y-127528600D01*
X110795400Y-130183600D02*
X110795400Y-129719600D01*
X110795400Y-128039600D02*
X110795400Y-127575600D01*
X110755400Y-130133600D02*
X110755400Y-129719600D01*
X110755400Y-128039600D02*
X110755400Y-127625600D01*
X110715400Y-130079600D02*
X110715400Y-129719600D01*
X110715400Y-128039600D02*
X110715400Y-127679600D01*
X110675400Y-130021600D02*
X110675400Y-129719600D01*
X110675400Y-128039600D02*
X110675400Y-127737600D01*
X110635400Y-129959600D02*
X110635400Y-129719600D01*
X110635400Y-128039600D02*
X110635400Y-127799600D01*
X110595400Y-129892600D02*
X110595400Y-127866600D01*
X110555400Y-129819600D02*
X110555400Y-127939600D01*
X110515400Y-129738600D02*
X110515400Y-128020600D01*
X110475400Y-129647600D02*
X110475400Y-128111600D01*
X110435400Y-129543600D02*
X110435400Y-128215600D01*
X110395400Y-129416600D02*
X110395400Y-128342600D01*
X110355400Y-129249600D02*
X110355400Y-128509600D01*
X114706201Y-130074600D02*
X114306201Y-130074600D01*
X114506201Y-130274600D02*
X114506201Y-129874600D01*
X125986400Y-75539600D02*
G75*
G03*
X125986400Y-75539600I-2120000J0D01*
G01*
X123866400Y-77619600D02*
X123866400Y-73459600D01*
X123826400Y-77619600D02*
X123826400Y-73459600D01*
X123786400Y-77618600D02*
X123786400Y-73460600D01*
X123746400Y-77616600D02*
X123746400Y-73462600D01*
X123706400Y-77613600D02*
X123706400Y-73465600D01*
X123666400Y-77610600D02*
X123666400Y-76379600D01*
X123666400Y-74699600D02*
X123666400Y-73468600D01*
X123626400Y-77606600D02*
X123626400Y-76379600D01*
X123626400Y-74699600D02*
X123626400Y-73472600D01*
X123586400Y-77601600D02*
X123586400Y-76379600D01*
X123586400Y-74699600D02*
X123586400Y-73477600D01*
X123546400Y-77595600D02*
X123546400Y-76379600D01*
X123546400Y-74699600D02*
X123546400Y-73483600D01*
X123506400Y-77589600D02*
X123506400Y-76379600D01*
X123506400Y-74699600D02*
X123506400Y-73489600D01*
X123466400Y-77581600D02*
X123466400Y-76379600D01*
X123466400Y-74699600D02*
X123466400Y-73497600D01*
X123426400Y-77573600D02*
X123426400Y-76379600D01*
X123426400Y-74699600D02*
X123426400Y-73505600D01*
X123386400Y-77564600D02*
X123386400Y-76379600D01*
X123386400Y-74699600D02*
X123386400Y-73514600D01*
X123346400Y-77555600D02*
X123346400Y-76379600D01*
X123346400Y-74699600D02*
X123346400Y-73523600D01*
X123306400Y-77544600D02*
X123306400Y-76379600D01*
X123306400Y-74699600D02*
X123306400Y-73534600D01*
X123266400Y-77533600D02*
X123266400Y-76379600D01*
X123266400Y-74699600D02*
X123266400Y-73545600D01*
X123226400Y-77521600D02*
X123226400Y-76379600D01*
X123226400Y-74699600D02*
X123226400Y-73557600D01*
X123186400Y-77507600D02*
X123186400Y-76379600D01*
X123186400Y-74699600D02*
X123186400Y-73571600D01*
X123145400Y-77493600D02*
X123145400Y-76379600D01*
X123145400Y-74699600D02*
X123145400Y-73585600D01*
X123105400Y-77479600D02*
X123105400Y-76379600D01*
X123105400Y-74699600D02*
X123105400Y-73599600D01*
X123065400Y-77463600D02*
X123065400Y-76379600D01*
X123065400Y-74699600D02*
X123065400Y-73615600D01*
X123025400Y-77446600D02*
X123025400Y-76379600D01*
X123025400Y-74699600D02*
X123025400Y-73632600D01*
X122985400Y-77428600D02*
X122985400Y-76379600D01*
X122985400Y-74699600D02*
X122985400Y-73650600D01*
X122945400Y-77409600D02*
X122945400Y-76379600D01*
X122945400Y-74699600D02*
X122945400Y-73669600D01*
X122905400Y-77390600D02*
X122905400Y-76379600D01*
X122905400Y-74699600D02*
X122905400Y-73688600D01*
X122865400Y-77369600D02*
X122865400Y-76379600D01*
X122865400Y-74699600D02*
X122865400Y-73709600D01*
X122825400Y-77347600D02*
X122825400Y-76379600D01*
X122825400Y-74699600D02*
X122825400Y-73731600D01*
X122785400Y-77324600D02*
X122785400Y-76379600D01*
X122785400Y-74699600D02*
X122785400Y-73754600D01*
X122745400Y-77299600D02*
X122745400Y-76379600D01*
X122745400Y-74699600D02*
X122745400Y-73779600D01*
X122705400Y-77274600D02*
X122705400Y-76379600D01*
X122705400Y-74699600D02*
X122705400Y-73804600D01*
X122665400Y-77247600D02*
X122665400Y-76379600D01*
X122665400Y-74699600D02*
X122665400Y-73831600D01*
X122625400Y-77219600D02*
X122625400Y-76379600D01*
X122625400Y-74699600D02*
X122625400Y-73859600D01*
X122585400Y-77189600D02*
X122585400Y-76379600D01*
X122585400Y-74699600D02*
X122585400Y-73889600D01*
X122545400Y-77158600D02*
X122545400Y-76379600D01*
X122545400Y-74699600D02*
X122545400Y-73920600D01*
X122505400Y-77126600D02*
X122505400Y-76379600D01*
X122505400Y-74699600D02*
X122505400Y-73952600D01*
X122465400Y-77091600D02*
X122465400Y-76379600D01*
X122465400Y-74699600D02*
X122465400Y-73987600D01*
X122425400Y-77055600D02*
X122425400Y-76379600D01*
X122425400Y-74699600D02*
X122425400Y-74023600D01*
X122385400Y-77017600D02*
X122385400Y-76379600D01*
X122385400Y-74699600D02*
X122385400Y-74061600D01*
X122345400Y-76977600D02*
X122345400Y-76379600D01*
X122345400Y-74699600D02*
X122345400Y-74101600D01*
X122305400Y-76935600D02*
X122305400Y-76379600D01*
X122305400Y-74699600D02*
X122305400Y-74143600D01*
X122265400Y-76890600D02*
X122265400Y-76379600D01*
X122265400Y-74699600D02*
X122265400Y-74188600D01*
X122225400Y-76843600D02*
X122225400Y-76379600D01*
X122225400Y-74699600D02*
X122225400Y-74235600D01*
X122185400Y-76793600D02*
X122185400Y-76379600D01*
X122185400Y-74699600D02*
X122185400Y-74285600D01*
X122145400Y-76739600D02*
X122145400Y-76379600D01*
X122145400Y-74699600D02*
X122145400Y-74339600D01*
X122105400Y-76681600D02*
X122105400Y-76379600D01*
X122105400Y-74699600D02*
X122105400Y-74397600D01*
X122065400Y-76619600D02*
X122065400Y-76379600D01*
X122065400Y-74699600D02*
X122065400Y-74459600D01*
X122025400Y-76552600D02*
X122025400Y-74526600D01*
X121985400Y-76479600D02*
X121985400Y-74599600D01*
X121945400Y-76398600D02*
X121945400Y-74680600D01*
X121905400Y-76307600D02*
X121905400Y-74771600D01*
X121865400Y-76203600D02*
X121865400Y-74875600D01*
X121825400Y-76076600D02*
X121825400Y-75002600D01*
X121785400Y-75909600D02*
X121785400Y-75169600D01*
X126136201Y-76734600D02*
X125736201Y-76734600D01*
X125936201Y-76934600D02*
X125936201Y-76534600D01*
X114556400Y-103479600D02*
G75*
G03*
X114556400Y-103479600I-2120000J0D01*
G01*
X112436400Y-105559600D02*
X112436400Y-101399600D01*
X112396400Y-105559600D02*
X112396400Y-101399600D01*
X112356400Y-105558600D02*
X112356400Y-101400600D01*
X112316400Y-105556600D02*
X112316400Y-101402600D01*
X112276400Y-105553600D02*
X112276400Y-101405600D01*
X112236400Y-105550600D02*
X112236400Y-104319600D01*
X112236400Y-102639600D02*
X112236400Y-101408600D01*
X112196400Y-105546600D02*
X112196400Y-104319600D01*
X112196400Y-102639600D02*
X112196400Y-101412600D01*
X112156400Y-105541600D02*
X112156400Y-104319600D01*
X112156400Y-102639600D02*
X112156400Y-101417600D01*
X112116400Y-105535600D02*
X112116400Y-104319600D01*
X112116400Y-102639600D02*
X112116400Y-101423600D01*
X112076400Y-105529600D02*
X112076400Y-104319600D01*
X112076400Y-102639600D02*
X112076400Y-101429600D01*
X112036400Y-105521600D02*
X112036400Y-104319600D01*
X112036400Y-102639600D02*
X112036400Y-101437600D01*
X111996400Y-105513600D02*
X111996400Y-104319600D01*
X111996400Y-102639600D02*
X111996400Y-101445600D01*
X111956400Y-105504600D02*
X111956400Y-104319600D01*
X111956400Y-102639600D02*
X111956400Y-101454600D01*
X111916400Y-105495600D02*
X111916400Y-104319600D01*
X111916400Y-102639600D02*
X111916400Y-101463600D01*
X111876400Y-105484600D02*
X111876400Y-104319600D01*
X111876400Y-102639600D02*
X111876400Y-101474600D01*
X111836400Y-105473600D02*
X111836400Y-104319600D01*
X111836400Y-102639600D02*
X111836400Y-101485600D01*
X111796400Y-105461600D02*
X111796400Y-104319600D01*
X111796400Y-102639600D02*
X111796400Y-101497600D01*
X111756400Y-105447600D02*
X111756400Y-104319600D01*
X111756400Y-102639600D02*
X111756400Y-101511600D01*
X111715400Y-105433600D02*
X111715400Y-104319600D01*
X111715400Y-102639600D02*
X111715400Y-101525600D01*
X111675400Y-105419600D02*
X111675400Y-104319600D01*
X111675400Y-102639600D02*
X111675400Y-101539600D01*
X111635400Y-105403600D02*
X111635400Y-104319600D01*
X111635400Y-102639600D02*
X111635400Y-101555600D01*
X111595400Y-105386600D02*
X111595400Y-104319600D01*
X111595400Y-102639600D02*
X111595400Y-101572600D01*
X111555400Y-105368600D02*
X111555400Y-104319600D01*
X111555400Y-102639600D02*
X111555400Y-101590600D01*
X111515400Y-105349600D02*
X111515400Y-104319600D01*
X111515400Y-102639600D02*
X111515400Y-101609600D01*
X111475400Y-105330600D02*
X111475400Y-104319600D01*
X111475400Y-102639600D02*
X111475400Y-101628600D01*
X111435400Y-105309600D02*
X111435400Y-104319600D01*
X111435400Y-102639600D02*
X111435400Y-101649600D01*
X111395400Y-105287600D02*
X111395400Y-104319600D01*
X111395400Y-102639600D02*
X111395400Y-101671600D01*
X111355400Y-105264600D02*
X111355400Y-104319600D01*
X111355400Y-102639600D02*
X111355400Y-101694600D01*
X111315400Y-105239600D02*
X111315400Y-104319600D01*
X111315400Y-102639600D02*
X111315400Y-101719600D01*
X111275400Y-105214600D02*
X111275400Y-104319600D01*
X111275400Y-102639600D02*
X111275400Y-101744600D01*
X111235400Y-105187600D02*
X111235400Y-104319600D01*
X111235400Y-102639600D02*
X111235400Y-101771600D01*
X111195400Y-105159600D02*
X111195400Y-104319600D01*
X111195400Y-102639600D02*
X111195400Y-101799600D01*
X111155400Y-105129600D02*
X111155400Y-104319600D01*
X111155400Y-102639600D02*
X111155400Y-101829600D01*
X111115400Y-105098600D02*
X111115400Y-104319600D01*
X111115400Y-102639600D02*
X111115400Y-101860600D01*
X111075400Y-105066600D02*
X111075400Y-104319600D01*
X111075400Y-102639600D02*
X111075400Y-101892600D01*
X111035400Y-105031600D02*
X111035400Y-104319600D01*
X111035400Y-102639600D02*
X111035400Y-101927600D01*
X110995400Y-104995600D02*
X110995400Y-104319600D01*
X110995400Y-102639600D02*
X110995400Y-101963600D01*
X110955400Y-104957600D02*
X110955400Y-104319600D01*
X110955400Y-102639600D02*
X110955400Y-102001600D01*
X110915400Y-104917600D02*
X110915400Y-104319600D01*
X110915400Y-102639600D02*
X110915400Y-102041600D01*
X110875400Y-104875600D02*
X110875400Y-104319600D01*
X110875400Y-102639600D02*
X110875400Y-102083600D01*
X110835400Y-104830600D02*
X110835400Y-104319600D01*
X110835400Y-102639600D02*
X110835400Y-102128600D01*
X110795400Y-104783600D02*
X110795400Y-104319600D01*
X110795400Y-102639600D02*
X110795400Y-102175600D01*
X110755400Y-104733600D02*
X110755400Y-104319600D01*
X110755400Y-102639600D02*
X110755400Y-102225600D01*
X110715400Y-104679600D02*
X110715400Y-104319600D01*
X110715400Y-102639600D02*
X110715400Y-102279600D01*
X110675400Y-104621600D02*
X110675400Y-104319600D01*
X110675400Y-102639600D02*
X110675400Y-102337600D01*
X110635400Y-104559600D02*
X110635400Y-104319600D01*
X110635400Y-102639600D02*
X110635400Y-102399600D01*
X110595400Y-104492600D02*
X110595400Y-102466600D01*
X110555400Y-104419600D02*
X110555400Y-102539600D01*
X110515400Y-104338600D02*
X110515400Y-102620600D01*
X110475400Y-104247600D02*
X110475400Y-102711600D01*
X110435400Y-104143600D02*
X110435400Y-102815600D01*
X110395400Y-104016600D02*
X110395400Y-102942600D01*
X110355400Y-103849600D02*
X110355400Y-103109600D01*
X114706201Y-104674600D02*
X114306201Y-104674600D01*
X114506201Y-104874600D02*
X114506201Y-104474600D01*
X143816400Y-83859600D02*
X143816400Y-87499600D01*
X141476400Y-83859600D02*
X141476400Y-87499600D01*
X143816400Y-83859600D02*
X143571400Y-83859600D01*
X141721400Y-83859600D02*
X141476400Y-83859600D01*
X143816400Y-87499600D02*
X143571400Y-87499600D01*
X141721400Y-87499600D02*
X141476400Y-87499600D01*
X113336400Y-83859600D02*
X113336400Y-87499600D01*
X110996400Y-83859600D02*
X110996400Y-87499600D01*
X113336400Y-83859600D02*
X113091400Y-83859600D01*
X111241400Y-83859600D02*
X110996400Y-83859600D01*
X113336400Y-87499600D02*
X113091400Y-87499600D01*
X111241400Y-87499600D02*
X110996400Y-87499600D01*
X204776400Y-83859600D02*
X204776400Y-87499600D01*
X202436400Y-83859600D02*
X202436400Y-87499600D01*
X204776400Y-83859600D02*
X204531400Y-83859600D01*
X202681400Y-83859600D02*
X202436400Y-83859600D01*
X204776400Y-87499600D02*
X204531400Y-87499600D01*
X202681400Y-87499600D02*
X202436400Y-87499600D01*
X213666400Y-134659600D02*
X213666400Y-138299600D01*
X211326400Y-134659600D02*
X211326400Y-138299600D01*
X213666400Y-134659600D02*
X213421400Y-134659600D01*
X211571400Y-134659600D02*
X211326400Y-134659600D01*
X213666400Y-138299600D02*
X213421400Y-138299600D01*
X211571400Y-138299600D02*
X211326400Y-138299600D01*
X142546400Y-116879600D02*
X142546400Y-120519600D01*
X140206400Y-116879600D02*
X140206400Y-120519600D01*
X142546400Y-116879600D02*
X142301400Y-116879600D01*
X140451400Y-116879600D02*
X140206400Y-116879600D01*
X142546400Y-120519600D02*
X142301400Y-120519600D01*
X140451400Y-120519600D02*
X140206400Y-120519600D01*
X119686400Y-116879600D02*
X119686400Y-120519600D01*
X117346400Y-116879600D02*
X117346400Y-120519600D01*
X119686400Y-116879600D02*
X119441400Y-116879600D01*
X117591400Y-116879600D02*
X117346400Y-116879600D01*
X119686400Y-120519600D02*
X119441400Y-120519600D01*
X117591400Y-120519600D02*
X117346400Y-120519600D01*
X137466400Y-134659600D02*
X137466400Y-138299600D01*
X135126400Y-134659600D02*
X135126400Y-138299600D01*
X137466400Y-134659600D02*
X137221400Y-134659600D01*
X135371400Y-134659600D02*
X135126400Y-134659600D01*
X137466400Y-138299600D02*
X137221400Y-138299600D01*
X135371400Y-138299600D02*
X135126400Y-138299600D01*
X188266400Y-134659600D02*
X188266400Y-138299600D01*
X185926400Y-134659600D02*
X185926400Y-138299600D01*
X188266400Y-134659600D02*
X188021400Y-134659600D01*
X186171400Y-134659600D02*
X185926400Y-134659600D01*
X188266400Y-138299600D02*
X188021400Y-138299600D01*
X186171400Y-138299600D02*
X185926400Y-138299600D01*
X112066400Y-134659600D02*
X112066400Y-138299600D01*
X109726400Y-134659600D02*
X109726400Y-138299600D01*
X112066400Y-134659600D02*
X111821400Y-134659600D01*
X109971400Y-134659600D02*
X109726400Y-134659600D01*
X112066400Y-138299600D02*
X111821400Y-138299600D01*
X109971400Y-138299600D02*
X109726400Y-138299600D01*
X162866400Y-134659600D02*
X162866400Y-138299600D01*
X160526400Y-134659600D02*
X160526400Y-138299600D01*
X162866400Y-134659600D02*
X162621400Y-134659600D01*
X160771400Y-134659600D02*
X160526400Y-134659600D01*
X162866400Y-138299600D02*
X162621400Y-138299600D01*
X160771400Y-138299600D02*
X160526400Y-138299600D01*
X143816400Y-101639600D02*
X143816400Y-105279600D01*
X141476400Y-101639600D02*
X141476400Y-105279600D01*
X143816400Y-101639600D02*
X143571400Y-101639600D01*
X141721400Y-101639600D02*
X141476400Y-101639600D01*
X143816400Y-105279600D02*
X143571400Y-105279600D01*
X141721400Y-105279600D02*
X141476400Y-105279600D01*
X120956400Y-101639600D02*
X120956400Y-105279600D01*
X118616400Y-101639600D02*
X118616400Y-105279600D01*
X120956400Y-101639600D02*
X120711400Y-101639600D01*
X118861400Y-101639600D02*
X118616400Y-101639600D01*
X120956400Y-105279600D02*
X120711400Y-105279600D01*
X118861400Y-105279600D02*
X118616400Y-105279600D01*
X192076400Y-101639600D02*
X192076400Y-105279600D01*
X189736400Y-101639600D02*
X189736400Y-105279600D01*
X192076400Y-101639600D02*
X191831400Y-101639600D01*
X189981400Y-101639600D02*
X189736400Y-101639600D01*
X192076400Y-105279600D02*
X191831400Y-105279600D01*
X189981400Y-105279600D02*
X189736400Y-105279600D01*
X213666400Y-116879600D02*
X213666400Y-120519600D01*
X211326400Y-116879600D02*
X211326400Y-120519600D01*
X213666400Y-116879600D02*
X213421400Y-116879600D01*
X211571400Y-116879600D02*
X211326400Y-116879600D01*
X213666400Y-120519600D02*
X213421400Y-120519600D01*
X211571400Y-120519600D02*
X211326400Y-120519600D01*
X188266400Y-116879600D02*
X188266400Y-120519600D01*
X185926400Y-116879600D02*
X185926400Y-120519600D01*
X188266400Y-116879600D02*
X188021400Y-116879600D01*
X186171400Y-116879600D02*
X185926400Y-116879600D01*
X188266400Y-120519600D02*
X188021400Y-120519600D01*
X186171400Y-120519600D02*
X185926400Y-120519600D01*
X166676400Y-101639600D02*
X166676400Y-105279600D01*
X164336400Y-101639600D02*
X164336400Y-105279600D01*
X166676400Y-101639600D02*
X166431400Y-101639600D01*
X164581400Y-101639600D02*
X164336400Y-101639600D01*
X166676400Y-105279600D02*
X166431400Y-105279600D01*
X164581400Y-105279600D02*
X164336400Y-105279600D01*
X165406400Y-116879600D02*
X165406400Y-120519600D01*
X163066400Y-116879600D02*
X163066400Y-120519600D01*
X165406400Y-116879600D02*
X165161400Y-116879600D01*
X163311400Y-116879600D02*
X163066400Y-116879600D01*
X165406400Y-120519600D02*
X165161400Y-120519600D01*
X163311400Y-120519600D02*
X163066400Y-120519600D01*
D10*
X166438780Y-111407695D02*
X167248304Y-111407695D01*
X167343542Y-111360076D01*
X167391161Y-111312457D01*
X167438780Y-111217219D01*
X167438780Y-111026742D01*
X167391161Y-110931504D01*
X167343542Y-110883885D01*
X167248304Y-110836266D01*
X166438780Y-110836266D01*
X167438780Y-109836266D02*
X167438780Y-110407695D01*
X167438780Y-110121980D02*
X166438780Y-110121980D01*
X166581638Y-110217219D01*
X166676876Y-110312457D01*
X166724495Y-110407695D01*
X166438780Y-109217219D02*
X166438780Y-109121980D01*
X166486400Y-109026742D01*
X166534019Y-108979123D01*
X166629257Y-108931504D01*
X166819733Y-108883885D01*
X167057828Y-108883885D01*
X167248304Y-108931504D01*
X167343542Y-108979123D01*
X167391161Y-109026742D01*
X167438780Y-109121980D01*
X167438780Y-109217219D01*
X167391161Y-109312457D01*
X167343542Y-109360076D01*
X167248304Y-109407695D01*
X167057828Y-109455314D01*
X166819733Y-109455314D01*
X166629257Y-109407695D01*
X166534019Y-109360076D01*
X166486400Y-109312457D01*
X166438780Y-109217219D01*
X142378780Y-126431504D02*
X143188304Y-126431504D01*
X143283542Y-126383885D01*
X143331161Y-126336266D01*
X143378780Y-126241028D01*
X143378780Y-126050552D01*
X143331161Y-125955314D01*
X143283542Y-125907695D01*
X143188304Y-125860076D01*
X142378780Y-125860076D01*
X142378780Y-125479123D02*
X142378780Y-124812457D01*
X143378780Y-125241028D01*
X143578780Y-111431504D02*
X144388304Y-111431504D01*
X144483542Y-111383885D01*
X144531161Y-111336266D01*
X144578780Y-111241028D01*
X144578780Y-111050552D01*
X144531161Y-110955314D01*
X144483542Y-110907695D01*
X144388304Y-110860076D01*
X143578780Y-110860076D01*
X144578780Y-110336266D02*
X144578780Y-110145790D01*
X144531161Y-110050552D01*
X144483542Y-110002933D01*
X144340685Y-109907695D01*
X144150209Y-109860076D01*
X143769257Y-109860076D01*
X143674019Y-109907695D01*
X143626400Y-109955314D01*
X143578780Y-110050552D01*
X143578780Y-110241028D01*
X143626400Y-110336266D01*
X143674019Y-110383885D01*
X143769257Y-110431504D01*
X144007352Y-110431504D01*
X144102590Y-110383885D01*
X144150209Y-110336266D01*
X144197828Y-110241028D01*
X144197828Y-110050552D01*
X144150209Y-109955314D01*
X144102590Y-109907695D01*
X144007352Y-109860076D01*
X121038780Y-111407695D02*
X121848304Y-111407695D01*
X121943542Y-111360076D01*
X121991161Y-111312457D01*
X122038780Y-111217219D01*
X122038780Y-111026742D01*
X121991161Y-110931504D01*
X121943542Y-110883885D01*
X121848304Y-110836266D01*
X121038780Y-110836266D01*
X122038780Y-109836266D02*
X122038780Y-110407695D01*
X122038780Y-110121980D02*
X121038780Y-110121980D01*
X121181638Y-110217219D01*
X121276876Y-110312457D01*
X121324495Y-110407695D01*
X122038780Y-108883885D02*
X122038780Y-109455314D01*
X122038780Y-109169600D02*
X121038780Y-109169600D01*
X121181638Y-109264838D01*
X121276876Y-109360076D01*
X121324495Y-109455314D01*
X143578780Y-93407695D02*
X144388304Y-93407695D01*
X144483542Y-93360076D01*
X144531161Y-93312457D01*
X144578780Y-93217219D01*
X144578780Y-93026742D01*
X144531161Y-92931504D01*
X144483542Y-92883885D01*
X144388304Y-92836266D01*
X143578780Y-92836266D01*
X144578780Y-91836266D02*
X144578780Y-92407695D01*
X144578780Y-92121980D02*
X143578780Y-92121980D01*
X143721638Y-92217219D01*
X143816876Y-92312457D01*
X143864495Y-92407695D01*
X143578780Y-91502933D02*
X143578780Y-90836266D01*
X144578780Y-91264838D01*
X228616876Y-98021980D02*
X229283542Y-99021980D01*
X229283542Y-98021980D02*
X228616876Y-99021980D01*
X230188304Y-99021980D02*
X229616876Y-99021980D01*
X229902590Y-99021980D02*
X229902590Y-98021980D01*
X229807352Y-98164838D01*
X229712114Y-98260076D01*
X229616876Y-98307695D01*
X204538780Y-93407695D02*
X205348304Y-93407695D01*
X205443542Y-93360076D01*
X205491161Y-93312457D01*
X205538780Y-93217219D01*
X205538780Y-93026742D01*
X205491161Y-92931504D01*
X205443542Y-92883885D01*
X205348304Y-92836266D01*
X204538780Y-92836266D01*
X205538780Y-91836266D02*
X205538780Y-92407695D01*
X205538780Y-92121980D02*
X204538780Y-92121980D01*
X204681638Y-92217219D01*
X204776876Y-92312457D01*
X204824495Y-92407695D01*
X205538780Y-91360076D02*
X205538780Y-91169600D01*
X205491161Y-91074361D01*
X205443542Y-91026742D01*
X205300685Y-90931504D01*
X205110209Y-90883885D01*
X204729257Y-90883885D01*
X204634019Y-90931504D01*
X204586400Y-90979123D01*
X204538780Y-91074361D01*
X204538780Y-91264838D01*
X204586400Y-91360076D01*
X204634019Y-91407695D01*
X204729257Y-91455314D01*
X204967352Y-91455314D01*
X205062590Y-91407695D01*
X205110209Y-91360076D01*
X205157828Y-91264838D01*
X205157828Y-91074361D01*
X205110209Y-90979123D01*
X205062590Y-90931504D01*
X204967352Y-90883885D01*
X174058780Y-93407695D02*
X174868304Y-93407695D01*
X174963542Y-93360076D01*
X175011161Y-93312457D01*
X175058780Y-93217219D01*
X175058780Y-93026742D01*
X175011161Y-92931504D01*
X174963542Y-92883885D01*
X174868304Y-92836266D01*
X174058780Y-92836266D01*
X175058780Y-91836266D02*
X175058780Y-92407695D01*
X175058780Y-92121980D02*
X174058780Y-92121980D01*
X174201638Y-92217219D01*
X174296876Y-92312457D01*
X174344495Y-92407695D01*
X174487352Y-91264838D02*
X174439733Y-91360076D01*
X174392114Y-91407695D01*
X174296876Y-91455314D01*
X174249257Y-91455314D01*
X174154019Y-91407695D01*
X174106400Y-91360076D01*
X174058780Y-91264838D01*
X174058780Y-91074361D01*
X174106400Y-90979123D01*
X174154019Y-90931504D01*
X174249257Y-90883885D01*
X174296876Y-90883885D01*
X174392114Y-90931504D01*
X174439733Y-90979123D01*
X174487352Y-91074361D01*
X174487352Y-91264838D01*
X174534971Y-91360076D01*
X174582590Y-91407695D01*
X174677828Y-91455314D01*
X174868304Y-91455314D01*
X174963542Y-91407695D01*
X175011161Y-91360076D01*
X175058780Y-91264838D01*
X175058780Y-91074361D01*
X175011161Y-90979123D01*
X174963542Y-90931504D01*
X174868304Y-90883885D01*
X174677828Y-90883885D01*
X174582590Y-90931504D01*
X174534971Y-90979123D01*
X174487352Y-91074361D01*
X113098780Y-93407695D02*
X113908304Y-93407695D01*
X114003542Y-93360076D01*
X114051161Y-93312457D01*
X114098780Y-93217219D01*
X114098780Y-93026742D01*
X114051161Y-92931504D01*
X114003542Y-92883885D01*
X113908304Y-92836266D01*
X113098780Y-92836266D01*
X114098780Y-91836266D02*
X114098780Y-92407695D01*
X114098780Y-92121980D02*
X113098780Y-92121980D01*
X113241638Y-92217219D01*
X113336876Y-92312457D01*
X113384495Y-92407695D01*
X113098780Y-90979123D02*
X113098780Y-91169600D01*
X113146400Y-91264838D01*
X113194019Y-91312457D01*
X113336876Y-91407695D01*
X113527352Y-91455314D01*
X113908304Y-91455314D01*
X114003542Y-91407695D01*
X114051161Y-91360076D01*
X114098780Y-91264838D01*
X114098780Y-91074361D01*
X114051161Y-90979123D01*
X114003542Y-90931504D01*
X113908304Y-90883885D01*
X113670209Y-90883885D01*
X113574971Y-90931504D01*
X113527352Y-90979123D01*
X113479733Y-91074361D01*
X113479733Y-91264838D01*
X113527352Y-91360076D01*
X113574971Y-91407695D01*
X113670209Y-91455314D01*
X213428780Y-126407695D02*
X214238304Y-126407695D01*
X214333542Y-126360076D01*
X214381161Y-126312457D01*
X214428780Y-126217219D01*
X214428780Y-126026742D01*
X214381161Y-125931504D01*
X214333542Y-125883885D01*
X214238304Y-125836266D01*
X213428780Y-125836266D01*
X214428780Y-124836266D02*
X214428780Y-125407695D01*
X214428780Y-125121980D02*
X213428780Y-125121980D01*
X213571638Y-125217219D01*
X213666876Y-125312457D01*
X213714495Y-125407695D01*
X213762114Y-123979123D02*
X214428780Y-123979123D01*
X213381161Y-124217219D02*
X214095447Y-124455314D01*
X214095447Y-123836266D01*
X213438780Y-143907695D02*
X214248304Y-143907695D01*
X214343542Y-143860076D01*
X214391161Y-143812457D01*
X214438780Y-143717219D01*
X214438780Y-143526742D01*
X214391161Y-143431504D01*
X214343542Y-143383885D01*
X214248304Y-143336266D01*
X213438780Y-143336266D01*
X214438780Y-142336266D02*
X214438780Y-142907695D01*
X214438780Y-142621980D02*
X213438780Y-142621980D01*
X213581638Y-142717219D01*
X213676876Y-142812457D01*
X213724495Y-142907695D01*
X213438780Y-142002933D02*
X213438780Y-141383885D01*
X213819733Y-141717219D01*
X213819733Y-141574361D01*
X213867352Y-141479123D01*
X213914971Y-141431504D01*
X214010209Y-141383885D01*
X214248304Y-141383885D01*
X214343542Y-141431504D01*
X214391161Y-141479123D01*
X214438780Y-141574361D01*
X214438780Y-141860076D01*
X214391161Y-141955314D01*
X214343542Y-142002933D01*
X188028780Y-144407695D02*
X188838304Y-144407695D01*
X188933542Y-144360076D01*
X188981161Y-144312457D01*
X189028780Y-144217219D01*
X189028780Y-144026742D01*
X188981161Y-143931504D01*
X188933542Y-143883885D01*
X188838304Y-143836266D01*
X188028780Y-143836266D01*
X189028780Y-142836266D02*
X189028780Y-143407695D01*
X189028780Y-143121980D02*
X188028780Y-143121980D01*
X188171638Y-143217219D01*
X188266876Y-143312457D01*
X188314495Y-143407695D01*
X188124019Y-142455314D02*
X188076400Y-142407695D01*
X188028780Y-142312457D01*
X188028780Y-142074361D01*
X188076400Y-141979123D01*
X188124019Y-141931504D01*
X188219257Y-141883885D01*
X188314495Y-141883885D01*
X188457352Y-141931504D01*
X189028780Y-142502933D01*
X189028780Y-141883885D01*
X188028780Y-126431504D02*
X188838304Y-126431504D01*
X188933542Y-126383885D01*
X188981161Y-126336266D01*
X189028780Y-126241028D01*
X189028780Y-126050552D01*
X188981161Y-125955314D01*
X188933542Y-125907695D01*
X188838304Y-125860076D01*
X188028780Y-125860076D01*
X188457352Y-125241028D02*
X188409733Y-125336266D01*
X188362114Y-125383885D01*
X188266876Y-125431504D01*
X188219257Y-125431504D01*
X188124019Y-125383885D01*
X188076400Y-125336266D01*
X188028780Y-125241028D01*
X188028780Y-125050552D01*
X188076400Y-124955314D01*
X188124019Y-124907695D01*
X188219257Y-124860076D01*
X188266876Y-124860076D01*
X188362114Y-124907695D01*
X188409733Y-124955314D01*
X188457352Y-125050552D01*
X188457352Y-125241028D01*
X188504971Y-125336266D01*
X188552590Y-125383885D01*
X188647828Y-125431504D01*
X188838304Y-125431504D01*
X188933542Y-125383885D01*
X188981161Y-125336266D01*
X189028780Y-125241028D01*
X189028780Y-125050552D01*
X188981161Y-124955314D01*
X188933542Y-124907695D01*
X188838304Y-124860076D01*
X188647828Y-124860076D01*
X188552590Y-124907695D01*
X188504971Y-124955314D01*
X188457352Y-125050552D01*
X191838780Y-111431504D02*
X192648304Y-111431504D01*
X192743542Y-111383885D01*
X192791161Y-111336266D01*
X192838780Y-111241028D01*
X192838780Y-111050552D01*
X192791161Y-110955314D01*
X192743542Y-110907695D01*
X192648304Y-110860076D01*
X191838780Y-110860076D01*
X191838780Y-109955314D02*
X191838780Y-110145790D01*
X191886400Y-110241028D01*
X191934019Y-110288647D01*
X192076876Y-110383885D01*
X192267352Y-110431504D01*
X192648304Y-110431504D01*
X192743542Y-110383885D01*
X192791161Y-110336266D01*
X192838780Y-110241028D01*
X192838780Y-110050552D01*
X192791161Y-109955314D01*
X192743542Y-109907695D01*
X192648304Y-109860076D01*
X192410209Y-109860076D01*
X192314971Y-109907695D01*
X192267352Y-109955314D01*
X192219733Y-110050552D01*
X192219733Y-110241028D01*
X192267352Y-110336266D01*
X192314971Y-110383885D01*
X192410209Y-110431504D01*
X165168780Y-126431504D02*
X165978304Y-126431504D01*
X166073542Y-126383885D01*
X166121161Y-126336266D01*
X166168780Y-126241028D01*
X166168780Y-126050552D01*
X166121161Y-125955314D01*
X166073542Y-125907695D01*
X165978304Y-125860076D01*
X165168780Y-125860076D01*
X165168780Y-124907695D02*
X165168780Y-125383885D01*
X165644971Y-125431504D01*
X165597352Y-125383885D01*
X165549733Y-125288647D01*
X165549733Y-125050552D01*
X165597352Y-124955314D01*
X165644971Y-124907695D01*
X165740209Y-124860076D01*
X165978304Y-124860076D01*
X166073542Y-124907695D01*
X166121161Y-124955314D01*
X166168780Y-125050552D01*
X166168780Y-125288647D01*
X166121161Y-125383885D01*
X166073542Y-125431504D01*
X119448780Y-126431504D02*
X120258304Y-126431504D01*
X120353542Y-126383885D01*
X120401161Y-126336266D01*
X120448780Y-126241028D01*
X120448780Y-126050552D01*
X120401161Y-125955314D01*
X120353542Y-125907695D01*
X120258304Y-125860076D01*
X119448780Y-125860076D01*
X119782114Y-124955314D02*
X120448780Y-124955314D01*
X119401161Y-125193409D02*
X120115447Y-125431504D01*
X120115447Y-124812457D01*
X162378780Y-143931504D02*
X163188304Y-143931504D01*
X163283542Y-143883885D01*
X163331161Y-143836266D01*
X163378780Y-143741028D01*
X163378780Y-143550552D01*
X163331161Y-143455314D01*
X163283542Y-143407695D01*
X163188304Y-143360076D01*
X162378780Y-143360076D01*
X162378780Y-142979123D02*
X162378780Y-142360076D01*
X162759733Y-142693409D01*
X162759733Y-142550552D01*
X162807352Y-142455314D01*
X162854971Y-142407695D01*
X162950209Y-142360076D01*
X163188304Y-142360076D01*
X163283542Y-142407695D01*
X163331161Y-142455314D01*
X163378780Y-142550552D01*
X163378780Y-142836266D01*
X163331161Y-142931504D01*
X163283542Y-142979123D01*
X137228780Y-143931504D02*
X138038304Y-143931504D01*
X138133542Y-143883885D01*
X138181161Y-143836266D01*
X138228780Y-143741028D01*
X138228780Y-143550552D01*
X138181161Y-143455314D01*
X138133542Y-143407695D01*
X138038304Y-143360076D01*
X137228780Y-143360076D01*
X137324019Y-142931504D02*
X137276400Y-142883885D01*
X137228780Y-142788647D01*
X137228780Y-142550552D01*
X137276400Y-142455314D01*
X137324019Y-142407695D01*
X137419257Y-142360076D01*
X137514495Y-142360076D01*
X137657352Y-142407695D01*
X138228780Y-142979123D01*
X138228780Y-142360076D01*
X111828780Y-143931504D02*
X112638304Y-143931504D01*
X112733542Y-143883885D01*
X112781161Y-143836266D01*
X112828780Y-143741028D01*
X112828780Y-143550552D01*
X112781161Y-143455314D01*
X112733542Y-143407695D01*
X112638304Y-143360076D01*
X111828780Y-143360076D01*
X112828780Y-142360076D02*
X112828780Y-142931504D01*
X112828780Y-142645790D02*
X111828780Y-142645790D01*
X111971638Y-142741028D01*
X112066876Y-142836266D01*
X112114495Y-142931504D01*
%LPC*%
D12*
X113055400Y-97129600D03*
D13*
X211658200Y-130606800D03*
X131495800Y-130606800D03*
X233908600Y-71907400D03*
X112064800Y-71907400D03*
D14*
X169316400Y-102235000D03*
X187096400Y-109855000D03*
X171856400Y-102235000D03*
X184556400Y-109855000D03*
X174396400Y-102235000D03*
X182016400Y-109855000D03*
X176936400Y-102235000D03*
X179476400Y-109855000D03*
X179476400Y-102235000D03*
X176936400Y-109855000D03*
X182016400Y-102235000D03*
X174396400Y-109855000D03*
X184556400Y-102235000D03*
X171856400Y-109855000D03*
X187096400Y-102235000D03*
D15*
X169316400Y-109855000D03*
D14*
X145186400Y-117449600D03*
X160426400Y-125069600D03*
X147726400Y-117449600D03*
X157886400Y-125069600D03*
X150266400Y-117449600D03*
X155346400Y-125069600D03*
X152806400Y-117449600D03*
X152806400Y-125069600D03*
X155346400Y-117449600D03*
X150266400Y-125069600D03*
X157886400Y-117449600D03*
X147726400Y-125069600D03*
X160426400Y-117449600D03*
D15*
X145186400Y-125069600D03*
D16*
X190906400Y-74269600D03*
X188366400Y-74269600D03*
X185826400Y-74269600D03*
X183286400Y-74269600D03*
X180746400Y-74269600D03*
X178206400Y-74269600D03*
X175666400Y-74269600D03*
X173126400Y-74269600D03*
X170586400Y-74269600D03*
X168046400Y-74269600D03*
X165506400Y-74269600D03*
X162966400Y-74269600D03*
X160426400Y-74269600D03*
X157886400Y-74269600D03*
X155346400Y-74269600D03*
X152806400Y-74269600D03*
X150266400Y-74269600D03*
X147726400Y-74269600D03*
X145186400Y-74269600D03*
X142646400Y-74269600D03*
X190906400Y-76809600D03*
X188366400Y-76809600D03*
X185826400Y-76809600D03*
X183286400Y-76809600D03*
X180746400Y-76809600D03*
X178206400Y-76809600D03*
X175666400Y-76809600D03*
X173126400Y-76809600D03*
X170586400Y-76809600D03*
X168046400Y-76809600D03*
X165506400Y-76809600D03*
X162966400Y-76809600D03*
X160426400Y-76809600D03*
X157886400Y-76809600D03*
X155346400Y-76809600D03*
X152806400Y-76809600D03*
X150266400Y-76809600D03*
X147726400Y-76809600D03*
X145186400Y-76809600D03*
G36*
G01*
X143246400Y-77659600D02*
X142046400Y-77659600D01*
G75*
G02*
X141796400Y-77409600I0J250000D01*
G01*
X141796400Y-76209600D01*
G75*
G02*
X142046400Y-75959600I250000J0D01*
G01*
X143246400Y-75959600D01*
G75*
G02*
X143496400Y-76209600I0J-250000D01*
G01*
X143496400Y-77409600D01*
G75*
G02*
X143246400Y-77659600I-250000J0D01*
G01*
G37*
D14*
X146456400Y-102209600D03*
X161696400Y-109829600D03*
X148996400Y-102209600D03*
X159156400Y-109829600D03*
X151536400Y-102209600D03*
X156616400Y-109829600D03*
X154076400Y-102209600D03*
X154076400Y-109829600D03*
X156616400Y-102209600D03*
X151536400Y-109829600D03*
X159156400Y-102209600D03*
X148996400Y-109829600D03*
X161696400Y-102209600D03*
D15*
X146456400Y-109829600D03*
D14*
X123916400Y-102209600D03*
X139156400Y-109829600D03*
X126456400Y-102209600D03*
X136616400Y-109829600D03*
X128996400Y-102209600D03*
X134076400Y-109829600D03*
X131536400Y-102209600D03*
X131536400Y-109829600D03*
X134076400Y-102209600D03*
X128996400Y-109829600D03*
X136616400Y-102209600D03*
X126456400Y-109829600D03*
X139156400Y-102209600D03*
D15*
X123916400Y-109829600D03*
D14*
X146456400Y-84429600D03*
X169316400Y-92049600D03*
X148996400Y-84429600D03*
X166776400Y-92049600D03*
X151536400Y-84429600D03*
X164236400Y-92049600D03*
X154076400Y-84429600D03*
X161696400Y-92049600D03*
X156616400Y-84429600D03*
X159156400Y-92049600D03*
X159156400Y-84429600D03*
X156616400Y-92049600D03*
X161696400Y-84429600D03*
X154076400Y-92049600D03*
X164236400Y-84429600D03*
X151536400Y-92049600D03*
X166776400Y-84429600D03*
X148996400Y-92049600D03*
X169316400Y-84429600D03*
D15*
X146456400Y-92049600D03*
D17*
X223886400Y-97129600D03*
X221386400Y-97129600D03*
X173126400Y-86929600D03*
X173126400Y-84429600D03*
X227736400Y-109829600D03*
X227736400Y-102209600D03*
X220116400Y-102209600D03*
D15*
X220116400Y-109829600D03*
D14*
X207416400Y-84429600D03*
X230276400Y-92049600D03*
X209956400Y-84429600D03*
X227736400Y-92049600D03*
X212496400Y-84429600D03*
X225196400Y-92049600D03*
X215036400Y-84429600D03*
X222656400Y-92049600D03*
X217576400Y-84429600D03*
X220116400Y-92049600D03*
X220116400Y-84429600D03*
X217576400Y-92049600D03*
X222656400Y-84429600D03*
X215036400Y-92049600D03*
X225196400Y-84429600D03*
X212496400Y-92049600D03*
X227736400Y-84429600D03*
X209956400Y-92049600D03*
X230276400Y-84429600D03*
D15*
X207416400Y-92049600D03*
D14*
X176936400Y-84429600D03*
X199796400Y-92049600D03*
X179476400Y-84429600D03*
X197256400Y-92049600D03*
X182016400Y-84429600D03*
X194716400Y-92049600D03*
X184556400Y-84429600D03*
X192176400Y-92049600D03*
X187096400Y-84429600D03*
X189636400Y-92049600D03*
X189636400Y-84429600D03*
X187096400Y-92049600D03*
X192176400Y-84429600D03*
X184556400Y-92049600D03*
X194716400Y-84429600D03*
X182016400Y-92049600D03*
X197256400Y-84429600D03*
X179476400Y-92049600D03*
X199796400Y-84429600D03*
D15*
X176936400Y-92049600D03*
D14*
X115976400Y-84429600D03*
X138836400Y-92049600D03*
X118516400Y-84429600D03*
X136296400Y-92049600D03*
X121056400Y-84429600D03*
X133756400Y-92049600D03*
X123596400Y-84429600D03*
X131216400Y-92049600D03*
X126136400Y-84429600D03*
X128676400Y-92049600D03*
X128676400Y-84429600D03*
X126136400Y-92049600D03*
X131216400Y-84429600D03*
X123596400Y-92049600D03*
X133756400Y-84429600D03*
X121056400Y-92049600D03*
X136296400Y-84429600D03*
X118516400Y-92049600D03*
X138836400Y-84429600D03*
D15*
X115976400Y-92049600D03*
D14*
X216306400Y-117449600D03*
X234086400Y-125069600D03*
X218846400Y-117449600D03*
X231546400Y-125069600D03*
X221386400Y-117449600D03*
X229006400Y-125069600D03*
X223926400Y-117449600D03*
X226466400Y-125069600D03*
X226466400Y-117449600D03*
X223926400Y-125069600D03*
X229006400Y-117449600D03*
X221386400Y-125069600D03*
X231546400Y-117449600D03*
X218846400Y-125069600D03*
X234086400Y-117449600D03*
D15*
X216306400Y-125069600D03*
D14*
X216316400Y-135229600D03*
X234096400Y-142849600D03*
X218856400Y-135229600D03*
X231556400Y-142849600D03*
X221396400Y-135229600D03*
X229016400Y-142849600D03*
X223936400Y-135229600D03*
X226476400Y-142849600D03*
X226476400Y-135229600D03*
X223936400Y-142849600D03*
X229016400Y-135229600D03*
X221396400Y-142849600D03*
X231556400Y-135229600D03*
X218856400Y-142849600D03*
X234096400Y-135229600D03*
D15*
X216316400Y-142849600D03*
D14*
X190906400Y-135229600D03*
X208686400Y-142849600D03*
X193446400Y-135229600D03*
X206146400Y-142849600D03*
X195986400Y-135229600D03*
X203606400Y-142849600D03*
X198526400Y-135229600D03*
X201066400Y-142849600D03*
X201066400Y-135229600D03*
X198526400Y-142849600D03*
X203606400Y-135229600D03*
X195986400Y-142849600D03*
X206146400Y-135229600D03*
X193446400Y-142849600D03*
X208686400Y-135229600D03*
D15*
X190906400Y-142849600D03*
D14*
X190906400Y-117449600D03*
X206146400Y-125069600D03*
X193446400Y-117449600D03*
X203606400Y-125069600D03*
X195986400Y-117449600D03*
X201066400Y-125069600D03*
X198526400Y-117449600D03*
X198526400Y-125069600D03*
X201066400Y-117449600D03*
X195986400Y-125069600D03*
X203606400Y-117449600D03*
X193446400Y-125069600D03*
X206146400Y-117449600D03*
D15*
X190906400Y-125069600D03*
D14*
X194716400Y-102209600D03*
X209956400Y-109829600D03*
X197256400Y-102209600D03*
X207416400Y-109829600D03*
X199796400Y-102209600D03*
X204876400Y-109829600D03*
X202336400Y-102209600D03*
X202336400Y-109829600D03*
X204876400Y-102209600D03*
X199796400Y-109829600D03*
X207416400Y-102209600D03*
X197256400Y-109829600D03*
X209956400Y-102209600D03*
D15*
X194716400Y-109829600D03*
D14*
X168046400Y-117449600D03*
X183286400Y-125069600D03*
X170586400Y-117449600D03*
X180746400Y-125069600D03*
X173126400Y-117449600D03*
X178206400Y-125069600D03*
X175666400Y-117449600D03*
X175666400Y-125069600D03*
X178206400Y-117449600D03*
X173126400Y-125069600D03*
X180746400Y-117449600D03*
X170586400Y-125069600D03*
X183286400Y-117449600D03*
D15*
X168046400Y-125069600D03*
D14*
X122326400Y-117449600D03*
X137566400Y-125069600D03*
X124866400Y-117449600D03*
X135026400Y-125069600D03*
X127406400Y-117449600D03*
X132486400Y-125069600D03*
X129946400Y-117449600D03*
X129946400Y-125069600D03*
X132486400Y-117449600D03*
X127406400Y-125069600D03*
X135026400Y-117449600D03*
X124866400Y-125069600D03*
X137566400Y-117449600D03*
D15*
X122326400Y-125069600D03*
D14*
X165506400Y-135229600D03*
X183286400Y-142849600D03*
X168046400Y-135229600D03*
X180746400Y-142849600D03*
X170586400Y-135229600D03*
X178206400Y-142849600D03*
X173126400Y-135229600D03*
X175666400Y-142849600D03*
X175666400Y-135229600D03*
X173126400Y-142849600D03*
X178206400Y-135229600D03*
X170586400Y-142849600D03*
X180746400Y-135229600D03*
X168046400Y-142849600D03*
X183286400Y-135229600D03*
D15*
X165506400Y-142849600D03*
D14*
X140106400Y-135229600D03*
X157886400Y-142849600D03*
X142646400Y-135229600D03*
X155346400Y-142849600D03*
X145186400Y-135229600D03*
X152806400Y-142849600D03*
X147726400Y-135229600D03*
X150266400Y-142849600D03*
X150266400Y-135229600D03*
X147726400Y-142849600D03*
X152806400Y-135229600D03*
X145186400Y-142849600D03*
X155346400Y-135229600D03*
X142646400Y-142849600D03*
X157886400Y-135229600D03*
D15*
X140106400Y-142849600D03*
D14*
X114706400Y-135229600D03*
X132486400Y-142849600D03*
X117246400Y-135229600D03*
X129946400Y-142849600D03*
X119786400Y-135229600D03*
X127406400Y-142849600D03*
X122326400Y-135229600D03*
X124866400Y-142849600D03*
X124866400Y-135229600D03*
X122326400Y-142849600D03*
X127406400Y-135229600D03*
X119786400Y-142849600D03*
X129946400Y-135229600D03*
X117246400Y-142849600D03*
X132486400Y-135229600D03*
D15*
X114706400Y-142849600D03*
D12*
X129946400Y-97129600D03*
X165506400Y-97129600D03*
X201066400Y-97129600D03*
X146456400Y-97129600D03*
X184556400Y-97129600D03*
X179476400Y-130149600D03*
X213766400Y-97129600D03*
X195986400Y-130149600D03*
X150266400Y-130149600D03*
D17*
X129986400Y-75539600D03*
D15*
X132486400Y-75539600D03*
D18*
X111436400Y-118719600D03*
D19*
X113436400Y-118719600D03*
D18*
X111436400Y-128879600D03*
D19*
X113436400Y-128879600D03*
D18*
X122866400Y-75539600D03*
D19*
X124866400Y-75539600D03*
D18*
X111436400Y-103479600D03*
D19*
X113436400Y-103479600D03*
D17*
X142646400Y-86929600D03*
X142646400Y-84429600D03*
X112166400Y-86929600D03*
X112166400Y-84429600D03*
X203606400Y-86929600D03*
X203606400Y-84429600D03*
X212496400Y-137729600D03*
X212496400Y-135229600D03*
X141376400Y-119949600D03*
X141376400Y-117449600D03*
X118516400Y-119949600D03*
X118516400Y-117449600D03*
X136296400Y-137729600D03*
X136296400Y-135229600D03*
X187096400Y-137729600D03*
X187096400Y-135229600D03*
X110896400Y-137729600D03*
X110896400Y-135229600D03*
X161696400Y-137729600D03*
X161696400Y-135229600D03*
X142646400Y-104709600D03*
X142646400Y-102209600D03*
X119786400Y-104709600D03*
X119786400Y-102209600D03*
X190906400Y-104709600D03*
X190906400Y-102209600D03*
X212496400Y-119949600D03*
X212496400Y-117449600D03*
X187096400Y-119949600D03*
X187096400Y-117449600D03*
X165506400Y-104709600D03*
X165506400Y-102209600D03*
X164236400Y-119949600D03*
X164236400Y-117449600D03*
M02*
