G04 #@! TF.GenerationSoftware,KiCad,Pcbnew,(5.1.10-1-10_14)*
G04 #@! TF.CreationDate,2021-11-19T10:04:18+01:00*
G04 #@! TF.ProjectId,vga_sync,7667615f-7379-46e6-932e-6b696361645f,rev?*
G04 #@! TF.SameCoordinates,Original*
G04 #@! TF.FileFunction,Soldermask,Top*
G04 #@! TF.FilePolarity,Negative*
%FSLAX46Y46*%
G04 Gerber Fmt 4.6, Leading zero omitted, Abs format (unit mm)*
G04 Created by KiCad (PCBNEW (5.1.10-1-10_14)) date 2021-11-19 10:04:18*
%MOMM*%
%LPD*%
G01*
G04 APERTURE LIST*
%ADD10C,3.000000*%
%ADD11C,5.000000*%
%ADD12O,1.600000X1.600000*%
%ADD13R,1.600000X1.600000*%
%ADD14C,1.700000*%
%ADD15C,1.600000*%
%ADD16C,1.200000*%
%ADD17R,1.200000X1.200000*%
G04 APERTURE END LIST*
D10*
X113055400Y-97129600D03*
D11*
X211658200Y-130606800D03*
X131495800Y-130606800D03*
X233908600Y-71907400D03*
X112064800Y-71907400D03*
D12*
X169316400Y-102235000D03*
X187096400Y-109855000D03*
X171856400Y-102235000D03*
X184556400Y-109855000D03*
X174396400Y-102235000D03*
X182016400Y-109855000D03*
X176936400Y-102235000D03*
X179476400Y-109855000D03*
X179476400Y-102235000D03*
X176936400Y-109855000D03*
X182016400Y-102235000D03*
X174396400Y-109855000D03*
X184556400Y-102235000D03*
X171856400Y-109855000D03*
X187096400Y-102235000D03*
D13*
X169316400Y-109855000D03*
D12*
X145186400Y-117449600D03*
X160426400Y-125069600D03*
X147726400Y-117449600D03*
X157886400Y-125069600D03*
X150266400Y-117449600D03*
X155346400Y-125069600D03*
X152806400Y-117449600D03*
X152806400Y-125069600D03*
X155346400Y-117449600D03*
X150266400Y-125069600D03*
X157886400Y-117449600D03*
X147726400Y-125069600D03*
X160426400Y-117449600D03*
D13*
X145186400Y-125069600D03*
D14*
X190906400Y-74269600D03*
X188366400Y-74269600D03*
X185826400Y-74269600D03*
X183286400Y-74269600D03*
X180746400Y-74269600D03*
X178206400Y-74269600D03*
X175666400Y-74269600D03*
X173126400Y-74269600D03*
X170586400Y-74269600D03*
X168046400Y-74269600D03*
X165506400Y-74269600D03*
X162966400Y-74269600D03*
X160426400Y-74269600D03*
X157886400Y-74269600D03*
X155346400Y-74269600D03*
X152806400Y-74269600D03*
X150266400Y-74269600D03*
X147726400Y-74269600D03*
X145186400Y-74269600D03*
X142646400Y-74269600D03*
X190906400Y-76809600D03*
X188366400Y-76809600D03*
X185826400Y-76809600D03*
X183286400Y-76809600D03*
X180746400Y-76809600D03*
X178206400Y-76809600D03*
X175666400Y-76809600D03*
X173126400Y-76809600D03*
X170586400Y-76809600D03*
X168046400Y-76809600D03*
X165506400Y-76809600D03*
X162966400Y-76809600D03*
X160426400Y-76809600D03*
X157886400Y-76809600D03*
X155346400Y-76809600D03*
X152806400Y-76809600D03*
X150266400Y-76809600D03*
X147726400Y-76809600D03*
X145186400Y-76809600D03*
G36*
G01*
X143246400Y-77659600D02*
X142046400Y-77659600D01*
G75*
G02*
X141796400Y-77409600I0J250000D01*
G01*
X141796400Y-76209600D01*
G75*
G02*
X142046400Y-75959600I250000J0D01*
G01*
X143246400Y-75959600D01*
G75*
G02*
X143496400Y-76209600I0J-250000D01*
G01*
X143496400Y-77409600D01*
G75*
G02*
X143246400Y-77659600I-250000J0D01*
G01*
G37*
D12*
X146456400Y-102209600D03*
X161696400Y-109829600D03*
X148996400Y-102209600D03*
X159156400Y-109829600D03*
X151536400Y-102209600D03*
X156616400Y-109829600D03*
X154076400Y-102209600D03*
X154076400Y-109829600D03*
X156616400Y-102209600D03*
X151536400Y-109829600D03*
X159156400Y-102209600D03*
X148996400Y-109829600D03*
X161696400Y-102209600D03*
D13*
X146456400Y-109829600D03*
D12*
X123916400Y-102209600D03*
X139156400Y-109829600D03*
X126456400Y-102209600D03*
X136616400Y-109829600D03*
X128996400Y-102209600D03*
X134076400Y-109829600D03*
X131536400Y-102209600D03*
X131536400Y-109829600D03*
X134076400Y-102209600D03*
X128996400Y-109829600D03*
X136616400Y-102209600D03*
X126456400Y-109829600D03*
X139156400Y-102209600D03*
D13*
X123916400Y-109829600D03*
D12*
X146456400Y-84429600D03*
X169316400Y-92049600D03*
X148996400Y-84429600D03*
X166776400Y-92049600D03*
X151536400Y-84429600D03*
X164236400Y-92049600D03*
X154076400Y-84429600D03*
X161696400Y-92049600D03*
X156616400Y-84429600D03*
X159156400Y-92049600D03*
X159156400Y-84429600D03*
X156616400Y-92049600D03*
X161696400Y-84429600D03*
X154076400Y-92049600D03*
X164236400Y-84429600D03*
X151536400Y-92049600D03*
X166776400Y-84429600D03*
X148996400Y-92049600D03*
X169316400Y-84429600D03*
D13*
X146456400Y-92049600D03*
D15*
X223886400Y-97129600D03*
X221386400Y-97129600D03*
X173126400Y-86929600D03*
X173126400Y-84429600D03*
X227736400Y-109829600D03*
X227736400Y-102209600D03*
X220116400Y-102209600D03*
D13*
X220116400Y-109829600D03*
D12*
X207416400Y-84429600D03*
X230276400Y-92049600D03*
X209956400Y-84429600D03*
X227736400Y-92049600D03*
X212496400Y-84429600D03*
X225196400Y-92049600D03*
X215036400Y-84429600D03*
X222656400Y-92049600D03*
X217576400Y-84429600D03*
X220116400Y-92049600D03*
X220116400Y-84429600D03*
X217576400Y-92049600D03*
X222656400Y-84429600D03*
X215036400Y-92049600D03*
X225196400Y-84429600D03*
X212496400Y-92049600D03*
X227736400Y-84429600D03*
X209956400Y-92049600D03*
X230276400Y-84429600D03*
D13*
X207416400Y-92049600D03*
D12*
X176936400Y-84429600D03*
X199796400Y-92049600D03*
X179476400Y-84429600D03*
X197256400Y-92049600D03*
X182016400Y-84429600D03*
X194716400Y-92049600D03*
X184556400Y-84429600D03*
X192176400Y-92049600D03*
X187096400Y-84429600D03*
X189636400Y-92049600D03*
X189636400Y-84429600D03*
X187096400Y-92049600D03*
X192176400Y-84429600D03*
X184556400Y-92049600D03*
X194716400Y-84429600D03*
X182016400Y-92049600D03*
X197256400Y-84429600D03*
X179476400Y-92049600D03*
X199796400Y-84429600D03*
D13*
X176936400Y-92049600D03*
D12*
X115976400Y-84429600D03*
X138836400Y-92049600D03*
X118516400Y-84429600D03*
X136296400Y-92049600D03*
X121056400Y-84429600D03*
X133756400Y-92049600D03*
X123596400Y-84429600D03*
X131216400Y-92049600D03*
X126136400Y-84429600D03*
X128676400Y-92049600D03*
X128676400Y-84429600D03*
X126136400Y-92049600D03*
X131216400Y-84429600D03*
X123596400Y-92049600D03*
X133756400Y-84429600D03*
X121056400Y-92049600D03*
X136296400Y-84429600D03*
X118516400Y-92049600D03*
X138836400Y-84429600D03*
D13*
X115976400Y-92049600D03*
D12*
X216306400Y-117449600D03*
X234086400Y-125069600D03*
X218846400Y-117449600D03*
X231546400Y-125069600D03*
X221386400Y-117449600D03*
X229006400Y-125069600D03*
X223926400Y-117449600D03*
X226466400Y-125069600D03*
X226466400Y-117449600D03*
X223926400Y-125069600D03*
X229006400Y-117449600D03*
X221386400Y-125069600D03*
X231546400Y-117449600D03*
X218846400Y-125069600D03*
X234086400Y-117449600D03*
D13*
X216306400Y-125069600D03*
D12*
X216316400Y-135229600D03*
X234096400Y-142849600D03*
X218856400Y-135229600D03*
X231556400Y-142849600D03*
X221396400Y-135229600D03*
X229016400Y-142849600D03*
X223936400Y-135229600D03*
X226476400Y-142849600D03*
X226476400Y-135229600D03*
X223936400Y-142849600D03*
X229016400Y-135229600D03*
X221396400Y-142849600D03*
X231556400Y-135229600D03*
X218856400Y-142849600D03*
X234096400Y-135229600D03*
D13*
X216316400Y-142849600D03*
D12*
X190906400Y-135229600D03*
X208686400Y-142849600D03*
X193446400Y-135229600D03*
X206146400Y-142849600D03*
X195986400Y-135229600D03*
X203606400Y-142849600D03*
X198526400Y-135229600D03*
X201066400Y-142849600D03*
X201066400Y-135229600D03*
X198526400Y-142849600D03*
X203606400Y-135229600D03*
X195986400Y-142849600D03*
X206146400Y-135229600D03*
X193446400Y-142849600D03*
X208686400Y-135229600D03*
D13*
X190906400Y-142849600D03*
D12*
X190906400Y-117449600D03*
X206146400Y-125069600D03*
X193446400Y-117449600D03*
X203606400Y-125069600D03*
X195986400Y-117449600D03*
X201066400Y-125069600D03*
X198526400Y-117449600D03*
X198526400Y-125069600D03*
X201066400Y-117449600D03*
X195986400Y-125069600D03*
X203606400Y-117449600D03*
X193446400Y-125069600D03*
X206146400Y-117449600D03*
D13*
X190906400Y-125069600D03*
D12*
X194716400Y-102209600D03*
X209956400Y-109829600D03*
X197256400Y-102209600D03*
X207416400Y-109829600D03*
X199796400Y-102209600D03*
X204876400Y-109829600D03*
X202336400Y-102209600D03*
X202336400Y-109829600D03*
X204876400Y-102209600D03*
X199796400Y-109829600D03*
X207416400Y-102209600D03*
X197256400Y-109829600D03*
X209956400Y-102209600D03*
D13*
X194716400Y-109829600D03*
D12*
X168046400Y-117449600D03*
X183286400Y-125069600D03*
X170586400Y-117449600D03*
X180746400Y-125069600D03*
X173126400Y-117449600D03*
X178206400Y-125069600D03*
X175666400Y-117449600D03*
X175666400Y-125069600D03*
X178206400Y-117449600D03*
X173126400Y-125069600D03*
X180746400Y-117449600D03*
X170586400Y-125069600D03*
X183286400Y-117449600D03*
D13*
X168046400Y-125069600D03*
D12*
X122326400Y-117449600D03*
X137566400Y-125069600D03*
X124866400Y-117449600D03*
X135026400Y-125069600D03*
X127406400Y-117449600D03*
X132486400Y-125069600D03*
X129946400Y-117449600D03*
X129946400Y-125069600D03*
X132486400Y-117449600D03*
X127406400Y-125069600D03*
X135026400Y-117449600D03*
X124866400Y-125069600D03*
X137566400Y-117449600D03*
D13*
X122326400Y-125069600D03*
D12*
X165506400Y-135229600D03*
X183286400Y-142849600D03*
X168046400Y-135229600D03*
X180746400Y-142849600D03*
X170586400Y-135229600D03*
X178206400Y-142849600D03*
X173126400Y-135229600D03*
X175666400Y-142849600D03*
X175666400Y-135229600D03*
X173126400Y-142849600D03*
X178206400Y-135229600D03*
X170586400Y-142849600D03*
X180746400Y-135229600D03*
X168046400Y-142849600D03*
X183286400Y-135229600D03*
D13*
X165506400Y-142849600D03*
D12*
X140106400Y-135229600D03*
X157886400Y-142849600D03*
X142646400Y-135229600D03*
X155346400Y-142849600D03*
X145186400Y-135229600D03*
X152806400Y-142849600D03*
X147726400Y-135229600D03*
X150266400Y-142849600D03*
X150266400Y-135229600D03*
X147726400Y-142849600D03*
X152806400Y-135229600D03*
X145186400Y-142849600D03*
X155346400Y-135229600D03*
X142646400Y-142849600D03*
X157886400Y-135229600D03*
D13*
X140106400Y-142849600D03*
D12*
X114706400Y-135229600D03*
X132486400Y-142849600D03*
X117246400Y-135229600D03*
X129946400Y-142849600D03*
X119786400Y-135229600D03*
X127406400Y-142849600D03*
X122326400Y-135229600D03*
X124866400Y-142849600D03*
X124866400Y-135229600D03*
X122326400Y-142849600D03*
X127406400Y-135229600D03*
X119786400Y-142849600D03*
X129946400Y-135229600D03*
X117246400Y-142849600D03*
X132486400Y-135229600D03*
D13*
X114706400Y-142849600D03*
D10*
X129946400Y-97129600D03*
X165506400Y-97129600D03*
X201066400Y-97129600D03*
X146456400Y-97129600D03*
X184556400Y-97129600D03*
X179476400Y-130149600D03*
X213766400Y-97129600D03*
X195986400Y-130149600D03*
X150266400Y-130149600D03*
D15*
X129986400Y-75539600D03*
D13*
X132486400Y-75539600D03*
D16*
X111436400Y-118719600D03*
D17*
X113436400Y-118719600D03*
D16*
X111436400Y-128879600D03*
D17*
X113436400Y-128879600D03*
D16*
X122866400Y-75539600D03*
D17*
X124866400Y-75539600D03*
D16*
X111436400Y-103479600D03*
D17*
X113436400Y-103479600D03*
D15*
X142646400Y-86929600D03*
X142646400Y-84429600D03*
X112166400Y-86929600D03*
X112166400Y-84429600D03*
X203606400Y-86929600D03*
X203606400Y-84429600D03*
X212496400Y-137729600D03*
X212496400Y-135229600D03*
X141376400Y-119949600D03*
X141376400Y-117449600D03*
X118516400Y-119949600D03*
X118516400Y-117449600D03*
X136296400Y-137729600D03*
X136296400Y-135229600D03*
X187096400Y-137729600D03*
X187096400Y-135229600D03*
X110896400Y-137729600D03*
X110896400Y-135229600D03*
X161696400Y-137729600D03*
X161696400Y-135229600D03*
X142646400Y-104709600D03*
X142646400Y-102209600D03*
X119786400Y-104709600D03*
X119786400Y-102209600D03*
X190906400Y-104709600D03*
X190906400Y-102209600D03*
X212496400Y-119949600D03*
X212496400Y-117449600D03*
X187096400Y-119949600D03*
X187096400Y-117449600D03*
X165506400Y-104709600D03*
X165506400Y-102209600D03*
X164236400Y-119949600D03*
X164236400Y-117449600D03*
M02*
