G04 #@! TF.GenerationSoftware,KiCad,Pcbnew,(5.1.10-1-10_14)*
G04 #@! TF.CreationDate,2021-11-19T10:04:18+01:00*
G04 #@! TF.ProjectId,vga_sync,7667615f-7379-46e6-932e-6b696361645f,rev?*
G04 #@! TF.SameCoordinates,Original*
G04 #@! TF.FileFunction,Legend,Bot*
G04 #@! TF.FilePolarity,Positive*
%FSLAX46Y46*%
G04 Gerber Fmt 4.6, Leading zero omitted, Abs format (unit mm)*
G04 Created by KiCad (PCBNEW (5.1.10-1-10_14)) date 2021-11-19 10:04:18*
%MOMM*%
%LPD*%
G01*
G04 APERTURE LIST*
%ADD10C,0.150000*%
%ADD11C,0.120000*%
%ADD12R,1.000000X1.500000*%
%ADD13C,0.100000*%
%ADD14C,3.000000*%
%ADD15C,5.000000*%
%ADD16O,1.600000X1.600000*%
%ADD17R,1.600000X1.600000*%
%ADD18C,1.700000*%
%ADD19C,1.600000*%
%ADD20C,1.200000*%
%ADD21R,1.200000X1.200000*%
G04 APERTURE END LIST*
D10*
X222666861Y-70827380D02*
X222333528Y-71827380D01*
X222000195Y-70827380D01*
X221143052Y-70875000D02*
X221238290Y-70827380D01*
X221381147Y-70827380D01*
X221524004Y-70875000D01*
X221619242Y-70970238D01*
X221666861Y-71065476D01*
X221714480Y-71255952D01*
X221714480Y-71398809D01*
X221666861Y-71589285D01*
X221619242Y-71684523D01*
X221524004Y-71779761D01*
X221381147Y-71827380D01*
X221285909Y-71827380D01*
X221143052Y-71779761D01*
X221095433Y-71732142D01*
X221095433Y-71398809D01*
X221285909Y-71398809D01*
X220714480Y-71541666D02*
X220238290Y-71541666D01*
X220809719Y-71827380D02*
X220476385Y-70827380D01*
X220143052Y-71827380D01*
X219095433Y-71779761D02*
X219000195Y-71827380D01*
X218809719Y-71827380D01*
X218714480Y-71779761D01*
X218666861Y-71684523D01*
X218666861Y-71636904D01*
X218714480Y-71541666D01*
X218809719Y-71494047D01*
X218952576Y-71494047D01*
X219047814Y-71446428D01*
X219095433Y-71351190D01*
X219095433Y-71303571D01*
X219047814Y-71208333D01*
X218952576Y-71160714D01*
X218809719Y-71160714D01*
X218714480Y-71208333D01*
X218333528Y-71160714D02*
X218095433Y-71827380D01*
X217857338Y-71160714D02*
X218095433Y-71827380D01*
X218190671Y-72065476D01*
X218238290Y-72113095D01*
X218333528Y-72160714D01*
X217476385Y-71160714D02*
X217476385Y-71827380D01*
X217476385Y-71255952D02*
X217428766Y-71208333D01*
X217333528Y-71160714D01*
X217190671Y-71160714D01*
X217095433Y-71208333D01*
X217047814Y-71303571D01*
X217047814Y-71827380D01*
X216143052Y-71779761D02*
X216238290Y-71827380D01*
X216428766Y-71827380D01*
X216524004Y-71779761D01*
X216571623Y-71732142D01*
X216619242Y-71636904D01*
X216619242Y-71351190D01*
X216571623Y-71255952D01*
X216524004Y-71208333D01*
X216428766Y-71160714D01*
X216238290Y-71160714D01*
X216143052Y-71208333D01*
X214524004Y-71827380D02*
X214524004Y-71303571D01*
X214571623Y-71208333D01*
X214666861Y-71160714D01*
X214857338Y-71160714D01*
X214952576Y-71208333D01*
X214524004Y-71779761D02*
X214619242Y-71827380D01*
X214857338Y-71827380D01*
X214952576Y-71779761D01*
X215000195Y-71684523D01*
X215000195Y-71589285D01*
X214952576Y-71494047D01*
X214857338Y-71446428D01*
X214619242Y-71446428D01*
X214524004Y-71398809D01*
X214047814Y-71160714D02*
X214047814Y-71827380D01*
X214047814Y-71255952D02*
X214000195Y-71208333D01*
X213904957Y-71160714D01*
X213762100Y-71160714D01*
X213666861Y-71208333D01*
X213619242Y-71303571D01*
X213619242Y-71827380D01*
X212714480Y-71827380D02*
X212714480Y-70827380D01*
X212714480Y-71779761D02*
X212809719Y-71827380D01*
X213000195Y-71827380D01*
X213095433Y-71779761D01*
X213143052Y-71732142D01*
X213190671Y-71636904D01*
X213190671Y-71351190D01*
X213143052Y-71255952D01*
X213095433Y-71208333D01*
X213000195Y-71160714D01*
X212809719Y-71160714D01*
X212714480Y-71208333D01*
X211047814Y-71827380D02*
X211047814Y-71303571D01*
X211095433Y-71208333D01*
X211190671Y-71160714D01*
X211381147Y-71160714D01*
X211476385Y-71208333D01*
X211047814Y-71779761D02*
X211143052Y-71827380D01*
X211381147Y-71827380D01*
X211476385Y-71779761D01*
X211524004Y-71684523D01*
X211524004Y-71589285D01*
X211476385Y-71494047D01*
X211381147Y-71446428D01*
X211143052Y-71446428D01*
X211047814Y-71398809D01*
X210143052Y-71827380D02*
X210143052Y-70827380D01*
X210143052Y-71779761D02*
X210238290Y-71827380D01*
X210428766Y-71827380D01*
X210524004Y-71779761D01*
X210571623Y-71732142D01*
X210619242Y-71636904D01*
X210619242Y-71351190D01*
X210571623Y-71255952D01*
X210524004Y-71208333D01*
X210428766Y-71160714D01*
X210238290Y-71160714D01*
X210143052Y-71208333D01*
X209238290Y-71827380D02*
X209238290Y-70827380D01*
X209238290Y-71779761D02*
X209333528Y-71827380D01*
X209524004Y-71827380D01*
X209619242Y-71779761D01*
X209666861Y-71732142D01*
X209714480Y-71636904D01*
X209714480Y-71351190D01*
X209666861Y-71255952D01*
X209619242Y-71208333D01*
X209524004Y-71160714D01*
X209333528Y-71160714D01*
X209238290Y-71208333D01*
X208762100Y-71827380D02*
X208762100Y-71160714D01*
X208762100Y-71351190D02*
X208714480Y-71255952D01*
X208666861Y-71208333D01*
X208571623Y-71160714D01*
X208476385Y-71160714D01*
X207762100Y-71779761D02*
X207857338Y-71827380D01*
X208047814Y-71827380D01*
X208143052Y-71779761D01*
X208190671Y-71684523D01*
X208190671Y-71303571D01*
X208143052Y-71208333D01*
X208047814Y-71160714D01*
X207857338Y-71160714D01*
X207762100Y-71208333D01*
X207714480Y-71303571D01*
X207714480Y-71398809D01*
X208190671Y-71494047D01*
X207333528Y-71779761D02*
X207238290Y-71827380D01*
X207047814Y-71827380D01*
X206952576Y-71779761D01*
X206904957Y-71684523D01*
X206904957Y-71636904D01*
X206952576Y-71541666D01*
X207047814Y-71494047D01*
X207190671Y-71494047D01*
X207285909Y-71446428D01*
X207333528Y-71351190D01*
X207333528Y-71303571D01*
X207285909Y-71208333D01*
X207190671Y-71160714D01*
X207047814Y-71160714D01*
X206952576Y-71208333D01*
X206524004Y-71779761D02*
X206428766Y-71827380D01*
X206238290Y-71827380D01*
X206143052Y-71779761D01*
X206095433Y-71684523D01*
X206095433Y-71636904D01*
X206143052Y-71541666D01*
X206238290Y-71494047D01*
X206381147Y-71494047D01*
X206476385Y-71446428D01*
X206524004Y-71351190D01*
X206524004Y-71303571D01*
X206476385Y-71208333D01*
X206381147Y-71160714D01*
X206238290Y-71160714D01*
X206143052Y-71208333D01*
X204904957Y-71446428D02*
X204143052Y-71446428D01*
X202904957Y-71827380D02*
X202904957Y-71160714D01*
X202904957Y-71351190D02*
X202857338Y-71255952D01*
X202809719Y-71208333D01*
X202714480Y-71160714D01*
X202619242Y-71160714D01*
X201904957Y-71779761D02*
X202000195Y-71827380D01*
X202190671Y-71827380D01*
X202285909Y-71779761D01*
X202333528Y-71684523D01*
X202333528Y-71303571D01*
X202285909Y-71208333D01*
X202190671Y-71160714D01*
X202000195Y-71160714D01*
X201904957Y-71208333D01*
X201857338Y-71303571D01*
X201857338Y-71398809D01*
X202333528Y-71494047D01*
X201524004Y-71160714D02*
X201285909Y-71827380D01*
X201047814Y-71160714D01*
X199952576Y-71541666D02*
X199476385Y-71541666D01*
X200047814Y-71827380D02*
X199714480Y-70827380D01*
X199381147Y-71827380D01*
X222571623Y-72572619D02*
X222524004Y-72525000D01*
X222428766Y-72477380D01*
X222190671Y-72477380D01*
X222095433Y-72525000D01*
X222047814Y-72572619D01*
X222000195Y-72667857D01*
X222000195Y-72763095D01*
X222047814Y-72905952D01*
X222619242Y-73477380D01*
X222000195Y-73477380D01*
X221381147Y-72477380D02*
X221285909Y-72477380D01*
X221190671Y-72525000D01*
X221143052Y-72572619D01*
X221095433Y-72667857D01*
X221047814Y-72858333D01*
X221047814Y-73096428D01*
X221095433Y-73286904D01*
X221143052Y-73382142D01*
X221190671Y-73429761D01*
X221285909Y-73477380D01*
X221381147Y-73477380D01*
X221476385Y-73429761D01*
X221524004Y-73382142D01*
X221571623Y-73286904D01*
X221619242Y-73096428D01*
X221619242Y-72858333D01*
X221571623Y-72667857D01*
X221524004Y-72572619D01*
X221476385Y-72525000D01*
X221381147Y-72477380D01*
X220666861Y-72572619D02*
X220619242Y-72525000D01*
X220524004Y-72477380D01*
X220285909Y-72477380D01*
X220190671Y-72525000D01*
X220143052Y-72572619D01*
X220095433Y-72667857D01*
X220095433Y-72763095D01*
X220143052Y-72905952D01*
X220714480Y-73477380D01*
X220095433Y-73477380D01*
X219143052Y-73477380D02*
X219714480Y-73477380D01*
X219428766Y-73477380D02*
X219428766Y-72477380D01*
X219524004Y-72620238D01*
X219619242Y-72715476D01*
X219714480Y-72763095D01*
X218714480Y-73096428D02*
X217952576Y-73096428D01*
X217285909Y-72477380D02*
X217190671Y-72477380D01*
X217095433Y-72525000D01*
X217047814Y-72572619D01*
X217000195Y-72667857D01*
X216952576Y-72858333D01*
X216952576Y-73096428D01*
X217000195Y-73286904D01*
X217047814Y-73382142D01*
X217095433Y-73429761D01*
X217190671Y-73477380D01*
X217285909Y-73477380D01*
X217381147Y-73429761D01*
X217428766Y-73382142D01*
X217476385Y-73286904D01*
X217524004Y-73096428D01*
X217524004Y-72858333D01*
X217476385Y-72667857D01*
X217428766Y-72572619D01*
X217381147Y-72525000D01*
X217285909Y-72477380D01*
X216381147Y-72905952D02*
X216476385Y-72858333D01*
X216524004Y-72810714D01*
X216571623Y-72715476D01*
X216571623Y-72667857D01*
X216524004Y-72572619D01*
X216476385Y-72525000D01*
X216381147Y-72477380D01*
X216190671Y-72477380D01*
X216095433Y-72525000D01*
X216047814Y-72572619D01*
X216000195Y-72667857D01*
X216000195Y-72715476D01*
X216047814Y-72810714D01*
X216095433Y-72858333D01*
X216190671Y-72905952D01*
X216381147Y-72905952D01*
X216476385Y-72953571D01*
X216524004Y-73001190D01*
X216571623Y-73096428D01*
X216571623Y-73286904D01*
X216524004Y-73382142D01*
X216476385Y-73429761D01*
X216381147Y-73477380D01*
X216190671Y-73477380D01*
X216095433Y-73429761D01*
X216047814Y-73382142D01*
X216000195Y-73286904D01*
X216000195Y-73096428D01*
X216047814Y-73001190D01*
X216095433Y-72953571D01*
X216190671Y-72905952D01*
X215571623Y-73096428D02*
X214809719Y-73096428D01*
X214143052Y-72477380D02*
X214047814Y-72477380D01*
X213952576Y-72525000D01*
X213904957Y-72572619D01*
X213857338Y-72667857D01*
X213809719Y-72858333D01*
X213809719Y-73096428D01*
X213857338Y-73286904D01*
X213904957Y-73382142D01*
X213952576Y-73429761D01*
X214047814Y-73477380D01*
X214143052Y-73477380D01*
X214238290Y-73429761D01*
X214285909Y-73382142D01*
X214333528Y-73286904D01*
X214381147Y-73096428D01*
X214381147Y-72858333D01*
X214333528Y-72667857D01*
X214285909Y-72572619D01*
X214238290Y-72525000D01*
X214143052Y-72477380D01*
X212952576Y-72810714D02*
X212952576Y-73477380D01*
X213190671Y-72429761D02*
X213428766Y-73144047D01*
X212809719Y-73144047D01*
X222571623Y-74841666D02*
X222095433Y-74841666D01*
X222666861Y-75127380D02*
X222333528Y-74127380D01*
X222000195Y-75127380D01*
X221238290Y-75127380D02*
X221238290Y-74127380D01*
X221238290Y-75079761D02*
X221333528Y-75127380D01*
X221524004Y-75127380D01*
X221619242Y-75079761D01*
X221666861Y-75032142D01*
X221714480Y-74936904D01*
X221714480Y-74651190D01*
X221666861Y-74555952D01*
X221619242Y-74508333D01*
X221524004Y-74460714D01*
X221333528Y-74460714D01*
X221238290Y-74508333D01*
X220762100Y-75127380D02*
X220762100Y-74460714D01*
X220762100Y-74651190D02*
X220714480Y-74555952D01*
X220666861Y-74508333D01*
X220571623Y-74460714D01*
X220476385Y-74460714D01*
X220143052Y-75127380D02*
X220143052Y-74460714D01*
X220143052Y-74127380D02*
X220190671Y-74175000D01*
X220143052Y-74222619D01*
X220095433Y-74175000D01*
X220143052Y-74127380D01*
X220143052Y-74222619D01*
X219285909Y-75079761D02*
X219381147Y-75127380D01*
X219571623Y-75127380D01*
X219666861Y-75079761D01*
X219714480Y-74984523D01*
X219714480Y-74603571D01*
X219666861Y-74508333D01*
X219571623Y-74460714D01*
X219381147Y-74460714D01*
X219285909Y-74508333D01*
X219238290Y-74603571D01*
X219238290Y-74698809D01*
X219714480Y-74794047D01*
X218809719Y-74460714D02*
X218809719Y-75127380D01*
X218809719Y-74555952D02*
X218762100Y-74508333D01*
X218666861Y-74460714D01*
X218524004Y-74460714D01*
X218428766Y-74508333D01*
X218381147Y-74603571D01*
X218381147Y-75127380D01*
X217143052Y-75127380D02*
X217143052Y-74127380D01*
X216571623Y-75127380D02*
X217000195Y-74555952D01*
X216571623Y-74127380D02*
X217143052Y-74698809D01*
X216000195Y-75127380D02*
X216095433Y-75079761D01*
X216143052Y-75032142D01*
X216190671Y-74936904D01*
X216190671Y-74651190D01*
X216143052Y-74555952D01*
X216095433Y-74508333D01*
X216000195Y-74460714D01*
X215857338Y-74460714D01*
X215762100Y-74508333D01*
X215714480Y-74555952D01*
X215666861Y-74651190D01*
X215666861Y-74936904D01*
X215714480Y-75032142D01*
X215762100Y-75079761D01*
X215857338Y-75127380D01*
X216000195Y-75127380D01*
X215238290Y-75127380D02*
X215238290Y-74127380D01*
X214809719Y-75127380D02*
X214809719Y-74603571D01*
X214857338Y-74508333D01*
X214952576Y-74460714D01*
X215095433Y-74460714D01*
X215190671Y-74508333D01*
X215238290Y-74555952D01*
X214190671Y-75127380D02*
X214285909Y-75079761D01*
X214333528Y-74984523D01*
X214333528Y-74127380D01*
X213809719Y-75127380D02*
X213809719Y-74127380D01*
X213809719Y-74508333D02*
X213714480Y-74460714D01*
X213524004Y-74460714D01*
X213428766Y-74508333D01*
X213381147Y-74555952D01*
X213333528Y-74651190D01*
X213333528Y-74936904D01*
X213381147Y-75032142D01*
X213428766Y-75079761D01*
X213524004Y-75127380D01*
X213714480Y-75127380D01*
X213809719Y-75079761D01*
X212524004Y-75079761D02*
X212619242Y-75127380D01*
X212809719Y-75127380D01*
X212904957Y-75079761D01*
X212952576Y-74984523D01*
X212952576Y-74603571D01*
X212904957Y-74508333D01*
X212809719Y-74460714D01*
X212619242Y-74460714D01*
X212524004Y-74508333D01*
X212476385Y-74603571D01*
X212476385Y-74698809D01*
X212952576Y-74794047D01*
X211619242Y-75079761D02*
X211714480Y-75127380D01*
X211904957Y-75127380D01*
X212000195Y-75079761D01*
X212047814Y-75032142D01*
X212095433Y-74936904D01*
X212095433Y-74651190D01*
X212047814Y-74555952D01*
X212000195Y-74508333D01*
X211904957Y-74460714D01*
X211714480Y-74460714D01*
X211619242Y-74508333D01*
X211190671Y-75127380D02*
X211190671Y-74127380D01*
X211095433Y-74746428D02*
X210809719Y-75127380D01*
X210809719Y-74460714D02*
X211190671Y-74841666D01*
X210000195Y-75079761D02*
X210095433Y-75127380D01*
X210285909Y-75127380D01*
X210381147Y-75079761D01*
X210428766Y-74984523D01*
X210428766Y-74603571D01*
X210381147Y-74508333D01*
X210285909Y-74460714D01*
X210095433Y-74460714D01*
X210000195Y-74508333D01*
X209952576Y-74603571D01*
X209952576Y-74698809D01*
X210428766Y-74794047D01*
X209524004Y-75127380D02*
X209524004Y-74460714D01*
X209524004Y-74651190D02*
X209476385Y-74555952D01*
X209428766Y-74508333D01*
X209333528Y-74460714D01*
X209238290Y-74460714D01*
X191694400Y-72959552D02*
X191694400Y-72102410D01*
X191327019Y-72864314D02*
X190327019Y-72530981D01*
X191327019Y-72197648D01*
X191694400Y-72102410D02*
X191694400Y-71150029D01*
X190374638Y-71911933D02*
X190327019Y-71769076D01*
X190327019Y-71530981D01*
X190374638Y-71435743D01*
X190422257Y-71388124D01*
X190517495Y-71340505D01*
X190612733Y-71340505D01*
X190707971Y-71388124D01*
X190755590Y-71435743D01*
X190803209Y-71530981D01*
X190850828Y-71721457D01*
X190898447Y-71816695D01*
X190946066Y-71864314D01*
X191041304Y-71911933D01*
X191136542Y-71911933D01*
X191231780Y-71864314D01*
X191279400Y-71816695D01*
X191327019Y-71721457D01*
X191327019Y-71483362D01*
X191279400Y-71340505D01*
X191694400Y-71150029D02*
X191694400Y-70292886D01*
X190803209Y-70721457D02*
X190327019Y-70721457D01*
X191327019Y-71054790D02*
X190803209Y-70721457D01*
X191327019Y-70388124D01*
X191694400Y-70292886D02*
X191694400Y-69245267D01*
X190327019Y-70054790D02*
X191327019Y-70054790D01*
X190327019Y-69483362D01*
X191327019Y-69483362D01*
X191694400Y-69245267D02*
X191694400Y-68245267D01*
X190422257Y-68435743D02*
X190374638Y-68483362D01*
X190327019Y-68626219D01*
X190327019Y-68721457D01*
X190374638Y-68864314D01*
X190469876Y-68959552D01*
X190565114Y-69007171D01*
X190755590Y-69054790D01*
X190898447Y-69054790D01*
X191088923Y-69007171D01*
X191184161Y-68959552D01*
X191279400Y-68864314D01*
X191327019Y-68721457D01*
X191327019Y-68626219D01*
X191279400Y-68483362D01*
X191231780Y-68435743D01*
X191304800Y-80284723D02*
X191352419Y-80379961D01*
X191352419Y-80522819D01*
X191304800Y-80665676D01*
X191209561Y-80760914D01*
X191114323Y-80808533D01*
X190923847Y-80856152D01*
X190780990Y-80856152D01*
X190590514Y-80808533D01*
X190495276Y-80760914D01*
X190400038Y-80665676D01*
X190352419Y-80522819D01*
X190352419Y-80427580D01*
X190400038Y-80284723D01*
X190447657Y-80237104D01*
X190780990Y-80237104D01*
X190780990Y-80427580D01*
X190352419Y-79808533D02*
X191352419Y-79808533D01*
X190352419Y-79237104D01*
X191352419Y-79237104D01*
X190352419Y-78760914D02*
X191352419Y-78760914D01*
X191352419Y-78522819D01*
X191304800Y-78379961D01*
X191209561Y-78284723D01*
X191114323Y-78237104D01*
X190923847Y-78189485D01*
X190780990Y-78189485D01*
X190590514Y-78237104D01*
X190495276Y-78284723D01*
X190400038Y-78379961D01*
X190352419Y-78522819D01*
X190352419Y-78760914D01*
X189103600Y-73115180D02*
X189103600Y-72067561D01*
X187736219Y-72877085D02*
X188736219Y-72877085D01*
X188260028Y-72877085D02*
X188260028Y-72305657D01*
X187736219Y-72305657D02*
X188736219Y-72305657D01*
X189103600Y-72067561D02*
X189103600Y-71115180D01*
X187783838Y-71877085D02*
X187736219Y-71734228D01*
X187736219Y-71496133D01*
X187783838Y-71400895D01*
X187831457Y-71353276D01*
X187926695Y-71305657D01*
X188021933Y-71305657D01*
X188117171Y-71353276D01*
X188164790Y-71400895D01*
X188212409Y-71496133D01*
X188260028Y-71686609D01*
X188307647Y-71781847D01*
X188355266Y-71829466D01*
X188450504Y-71877085D01*
X188545742Y-71877085D01*
X188640980Y-71829466D01*
X188688600Y-71781847D01*
X188736219Y-71686609D01*
X188736219Y-71448514D01*
X188688600Y-71305657D01*
X189103600Y-71115180D02*
X189103600Y-70258038D01*
X188212409Y-70686609D02*
X187736219Y-70686609D01*
X188736219Y-71019942D02*
X188212409Y-70686609D01*
X188736219Y-70353276D01*
X189103600Y-70258038D02*
X189103600Y-69210419D01*
X187736219Y-70019942D02*
X188736219Y-70019942D01*
X187736219Y-69448514D01*
X188736219Y-69448514D01*
X189103600Y-69210419D02*
X189103600Y-68210419D01*
X187831457Y-68400895D02*
X187783838Y-68448514D01*
X187736219Y-68591371D01*
X187736219Y-68686609D01*
X187783838Y-68829466D01*
X187879076Y-68924704D01*
X187974314Y-68972323D01*
X188164790Y-69019942D01*
X188307647Y-69019942D01*
X188498123Y-68972323D01*
X188593361Y-68924704D01*
X188688600Y-68829466D01*
X188736219Y-68686609D01*
X188736219Y-68591371D01*
X188688600Y-68448514D01*
X188640980Y-68400895D01*
X187863219Y-81155990D02*
X188863219Y-81155990D01*
X188863219Y-80917895D01*
X188815600Y-80775038D01*
X188720361Y-80679800D01*
X188625123Y-80632180D01*
X188434647Y-80584561D01*
X188291790Y-80584561D01*
X188101314Y-80632180D01*
X188006076Y-80679800D01*
X187910838Y-80775038D01*
X187863219Y-80917895D01*
X187863219Y-81155990D01*
X187863219Y-80155990D02*
X188863219Y-80155990D01*
X187910838Y-79727419D02*
X187863219Y-79584561D01*
X187863219Y-79346466D01*
X187910838Y-79251228D01*
X187958457Y-79203609D01*
X188053695Y-79155990D01*
X188148933Y-79155990D01*
X188244171Y-79203609D01*
X188291790Y-79251228D01*
X188339409Y-79346466D01*
X188387028Y-79536942D01*
X188434647Y-79632180D01*
X188482266Y-79679800D01*
X188577504Y-79727419D01*
X188672742Y-79727419D01*
X188767980Y-79679800D01*
X188815600Y-79632180D01*
X188863219Y-79536942D01*
X188863219Y-79298847D01*
X188815600Y-79155990D01*
X187863219Y-78727419D02*
X188863219Y-78727419D01*
X188863219Y-78346466D01*
X188815600Y-78251228D01*
X188767980Y-78203609D01*
X188672742Y-78155990D01*
X188529885Y-78155990D01*
X188434647Y-78203609D01*
X188387028Y-78251228D01*
X188339409Y-78346466D01*
X188339409Y-78727419D01*
X186148613Y-72197647D02*
X186196232Y-72292885D01*
X186196232Y-72435743D01*
X186148613Y-72578600D01*
X186053374Y-72673838D01*
X185958136Y-72721457D01*
X185767660Y-72769076D01*
X185624803Y-72769076D01*
X185434327Y-72721457D01*
X185339089Y-72673838D01*
X185243851Y-72578600D01*
X185196232Y-72435743D01*
X185196232Y-72340504D01*
X185243851Y-72197647D01*
X185291470Y-72150028D01*
X185624803Y-72150028D01*
X185624803Y-72340504D01*
X185196232Y-71721457D02*
X186196232Y-71721457D01*
X185196232Y-71150028D01*
X186196232Y-71150028D01*
X185196232Y-70673838D02*
X186196232Y-70673838D01*
X186196232Y-70435743D01*
X186148613Y-70292885D01*
X186053374Y-70197647D01*
X185958136Y-70150028D01*
X185767660Y-70102409D01*
X185624803Y-70102409D01*
X185434327Y-70150028D01*
X185339089Y-70197647D01*
X185243851Y-70292885D01*
X185196232Y-70435743D01*
X185196232Y-70673838D01*
X186348619Y-82627504D02*
X185348619Y-82294171D01*
X186348619Y-81960838D01*
X185872428Y-81294171D02*
X185824809Y-81151314D01*
X185777190Y-81103695D01*
X185681952Y-81056076D01*
X185539095Y-81056076D01*
X185443857Y-81103695D01*
X185396238Y-81151314D01*
X185348619Y-81246552D01*
X185348619Y-81627504D01*
X186348619Y-81627504D01*
X186348619Y-81294171D01*
X186301000Y-81198933D01*
X186253380Y-81151314D01*
X186158142Y-81103695D01*
X186062904Y-81103695D01*
X185967666Y-81151314D01*
X185920047Y-81198933D01*
X185872428Y-81294171D01*
X185872428Y-81627504D01*
X185348619Y-80151314D02*
X185348619Y-80627504D01*
X186348619Y-80627504D01*
X185348619Y-79817980D02*
X186348619Y-79817980D01*
X185348619Y-79246552D01*
X186348619Y-79246552D01*
X185348619Y-78770361D02*
X186348619Y-78770361D01*
X185348619Y-78198933D02*
X185920047Y-78627504D01*
X186348619Y-78198933D02*
X185777190Y-78770361D01*
X182732419Y-72724685D02*
X183732419Y-72724685D01*
X183256228Y-72724685D02*
X183256228Y-72153257D01*
X182732419Y-72153257D02*
X183732419Y-72153257D01*
X183256228Y-71343733D02*
X183208609Y-71200876D01*
X183160990Y-71153257D01*
X183065752Y-71105638D01*
X182922895Y-71105638D01*
X182827657Y-71153257D01*
X182780038Y-71200876D01*
X182732419Y-71296114D01*
X182732419Y-71677066D01*
X183732419Y-71677066D01*
X183732419Y-71343733D01*
X183684800Y-71248495D01*
X183637180Y-71200876D01*
X183541942Y-71153257D01*
X183446704Y-71153257D01*
X183351466Y-71200876D01*
X183303847Y-71248495D01*
X183256228Y-71343733D01*
X183256228Y-71677066D01*
X182732419Y-70200876D02*
X182732419Y-70677066D01*
X183732419Y-70677066D01*
X182732419Y-69867542D02*
X183732419Y-69867542D01*
X182732419Y-69296114D01*
X183732419Y-69296114D01*
X182732419Y-68819923D02*
X183732419Y-68819923D01*
X182732419Y-68248495D02*
X183303847Y-68677066D01*
X183732419Y-68248495D02*
X183160990Y-68819923D01*
X183731368Y-80284723D02*
X183778987Y-80379961D01*
X183778987Y-80522819D01*
X183731368Y-80665676D01*
X183636129Y-80760914D01*
X183540891Y-80808533D01*
X183350415Y-80856152D01*
X183207558Y-80856152D01*
X183017082Y-80808533D01*
X182921844Y-80760914D01*
X182826606Y-80665676D01*
X182778987Y-80522819D01*
X182778987Y-80427580D01*
X182826606Y-80284723D01*
X182874225Y-80237104D01*
X183207558Y-80237104D01*
X183207558Y-80427580D01*
X182778987Y-79808533D02*
X183778987Y-79808533D01*
X182778987Y-79237104D01*
X183778987Y-79237104D01*
X182778987Y-78760914D02*
X183778987Y-78760914D01*
X183778987Y-78522819D01*
X183731368Y-78379961D01*
X183636129Y-78284723D01*
X183540891Y-78237104D01*
X183350415Y-78189485D01*
X183207558Y-78189485D01*
X183017082Y-78237104D01*
X182921844Y-78284723D01*
X182826606Y-78379961D01*
X182778987Y-78522819D01*
X182778987Y-78760914D01*
X181182654Y-72864314D02*
X180182654Y-72530981D01*
X181182654Y-72197648D01*
X180182654Y-71816695D02*
X180182654Y-71626219D01*
X180230273Y-71530981D01*
X180277892Y-71483362D01*
X180420749Y-71388124D01*
X180611225Y-71340505D01*
X180992177Y-71340505D01*
X181087415Y-71388124D01*
X181135035Y-71435743D01*
X181182654Y-71530981D01*
X181182654Y-71721457D01*
X181135035Y-71816695D01*
X181087415Y-71864314D01*
X180992177Y-71911933D01*
X180754082Y-71911933D01*
X180658844Y-71864314D01*
X180611225Y-71816695D01*
X180563606Y-71721457D01*
X180563606Y-71530981D01*
X180611225Y-71435743D01*
X180658844Y-71388124D01*
X180754082Y-71340505D01*
X181254514Y-79713295D02*
X180254514Y-79379962D01*
X181254514Y-79046629D01*
X180825942Y-78570438D02*
X180873561Y-78665676D01*
X180921180Y-78713295D01*
X181016418Y-78760914D01*
X181064037Y-78760914D01*
X181159275Y-78713295D01*
X181206895Y-78665676D01*
X181254514Y-78570438D01*
X181254514Y-78379962D01*
X181206895Y-78284724D01*
X181159275Y-78237105D01*
X181064037Y-78189486D01*
X181016418Y-78189486D01*
X180921180Y-78237105D01*
X180873561Y-78284724D01*
X180825942Y-78379962D01*
X180825942Y-78570438D01*
X180778323Y-78665676D01*
X180730704Y-78713295D01*
X180635466Y-78760914D01*
X180444990Y-78760914D01*
X180349752Y-78713295D01*
X180302133Y-78665676D01*
X180254514Y-78570438D01*
X180254514Y-78379962D01*
X180302133Y-78284724D01*
X180349752Y-78237105D01*
X180444990Y-78189486D01*
X180635466Y-78189486D01*
X180730704Y-78237105D01*
X180778323Y-78284724D01*
X180825942Y-78379962D01*
X178675865Y-72864314D02*
X177675865Y-72530981D01*
X178675865Y-72197648D01*
X178675865Y-71959552D02*
X178675865Y-71292886D01*
X177675865Y-71721457D01*
X178730041Y-79713295D02*
X177730041Y-79379962D01*
X178730041Y-79046629D01*
X178730041Y-78284724D02*
X178730041Y-78475200D01*
X178682422Y-78570438D01*
X178634802Y-78618057D01*
X178491945Y-78713295D01*
X178301469Y-78760914D01*
X177920517Y-78760914D01*
X177825279Y-78713295D01*
X177777660Y-78665676D01*
X177730041Y-78570438D01*
X177730041Y-78379962D01*
X177777660Y-78284724D01*
X177825279Y-78237105D01*
X177920517Y-78189486D01*
X178158612Y-78189486D01*
X178253850Y-78237105D01*
X178301469Y-78284724D01*
X178349088Y-78379962D01*
X178349088Y-78570438D01*
X178301469Y-78665676D01*
X178253850Y-78713295D01*
X178158612Y-78760914D01*
X176169076Y-72864314D02*
X175169076Y-72530981D01*
X176169076Y-72197648D01*
X176169076Y-71388124D02*
X176169076Y-71864314D01*
X175692885Y-71911933D01*
X175740504Y-71864314D01*
X175788123Y-71769076D01*
X175788123Y-71530981D01*
X175740504Y-71435743D01*
X175692885Y-71388124D01*
X175597647Y-71340505D01*
X175359552Y-71340505D01*
X175264314Y-71388124D01*
X175216695Y-71435743D01*
X175169076Y-71530981D01*
X175169076Y-71769076D01*
X175216695Y-71864314D01*
X175264314Y-71911933D01*
X176157949Y-80284723D02*
X176205568Y-80379961D01*
X176205568Y-80522819D01*
X176157949Y-80665676D01*
X176062710Y-80760914D01*
X175967472Y-80808533D01*
X175776996Y-80856152D01*
X175634139Y-80856152D01*
X175443663Y-80808533D01*
X175348425Y-80760914D01*
X175253187Y-80665676D01*
X175205568Y-80522819D01*
X175205568Y-80427580D01*
X175253187Y-80284723D01*
X175300806Y-80237104D01*
X175634139Y-80237104D01*
X175634139Y-80427580D01*
X175205568Y-79808533D02*
X176205568Y-79808533D01*
X175205568Y-79237104D01*
X176205568Y-79237104D01*
X175205568Y-78760914D02*
X176205568Y-78760914D01*
X176205568Y-78522819D01*
X176157949Y-78379961D01*
X176062710Y-78284723D01*
X175967472Y-78237104D01*
X175776996Y-78189485D01*
X175634139Y-78189485D01*
X175443663Y-78237104D01*
X175348425Y-78284723D01*
X175253187Y-78379961D01*
X175205568Y-78522819D01*
X175205568Y-78760914D01*
X173662287Y-72864314D02*
X172662287Y-72530981D01*
X173662287Y-72197648D01*
X173328953Y-71435743D02*
X172662287Y-71435743D01*
X173709906Y-71673838D02*
X172995620Y-71911933D01*
X172995620Y-71292886D01*
X173681095Y-79713295D02*
X172681095Y-79379962D01*
X173681095Y-79046629D01*
X173681095Y-78808533D02*
X173681095Y-78189486D01*
X173300142Y-78522819D01*
X173300142Y-78379962D01*
X173252523Y-78284724D01*
X173204904Y-78237105D01*
X173109666Y-78189486D01*
X172871571Y-78189486D01*
X172776333Y-78237105D01*
X172728714Y-78284724D01*
X172681095Y-78379962D01*
X172681095Y-78665676D01*
X172728714Y-78760914D01*
X172776333Y-78808533D01*
X171155498Y-72864314D02*
X170155498Y-72530981D01*
X171155498Y-72197648D01*
X171060259Y-71911933D02*
X171107879Y-71864314D01*
X171155498Y-71769076D01*
X171155498Y-71530981D01*
X171107879Y-71435743D01*
X171060259Y-71388124D01*
X170965021Y-71340505D01*
X170869783Y-71340505D01*
X170726926Y-71388124D01*
X170155498Y-71959552D01*
X170155498Y-71340505D01*
X171156622Y-79713295D02*
X170156622Y-79379962D01*
X171156622Y-79046629D01*
X170156622Y-78189486D02*
X170156622Y-78760914D01*
X170156622Y-78475200D02*
X171156622Y-78475200D01*
X171013764Y-78570438D01*
X170918526Y-78665676D01*
X170870907Y-78760914D01*
X168601090Y-72197647D02*
X168648709Y-72292885D01*
X168648709Y-72435743D01*
X168601090Y-72578600D01*
X168505851Y-72673838D01*
X168410613Y-72721457D01*
X168220137Y-72769076D01*
X168077280Y-72769076D01*
X167886804Y-72721457D01*
X167791566Y-72673838D01*
X167696328Y-72578600D01*
X167648709Y-72435743D01*
X167648709Y-72340504D01*
X167696328Y-72197647D01*
X167743947Y-72150028D01*
X168077280Y-72150028D01*
X168077280Y-72340504D01*
X167648709Y-71721457D02*
X168648709Y-71721457D01*
X167648709Y-71150028D01*
X168648709Y-71150028D01*
X167648709Y-70673838D02*
X168648709Y-70673838D01*
X168648709Y-70435743D01*
X168601090Y-70292885D01*
X168505851Y-70197647D01*
X168410613Y-70150028D01*
X168220137Y-70102409D01*
X168077280Y-70102409D01*
X167886804Y-70150028D01*
X167791566Y-70197647D01*
X167696328Y-70292885D01*
X167648709Y-70435743D01*
X167648709Y-70673838D01*
X168632149Y-79713295D02*
X167632149Y-79379962D01*
X168632149Y-79046629D01*
X168632149Y-78522819D02*
X168632149Y-78427581D01*
X168584530Y-78332343D01*
X168536910Y-78284724D01*
X168441672Y-78237105D01*
X168251196Y-78189486D01*
X168013101Y-78189486D01*
X167822625Y-78237105D01*
X167727387Y-78284724D01*
X167679768Y-78332343D01*
X167632149Y-78427581D01*
X167632149Y-78522819D01*
X167679768Y-78618057D01*
X167727387Y-78665676D01*
X167822625Y-78713295D01*
X168013101Y-78760914D01*
X168251196Y-78760914D01*
X168441672Y-78713295D01*
X168536910Y-78665676D01*
X168584530Y-78618057D01*
X168632149Y-78522819D01*
X165141920Y-72721457D02*
X166141920Y-72721457D01*
X165665729Y-72721457D02*
X165665729Y-72150029D01*
X165141920Y-72150029D02*
X166141920Y-72150029D01*
X165141920Y-71626219D02*
X165141920Y-71435743D01*
X165189539Y-71340505D01*
X165237158Y-71292886D01*
X165380015Y-71197648D01*
X165570491Y-71150029D01*
X165951443Y-71150029D01*
X166046681Y-71197648D01*
X166094301Y-71245267D01*
X166141920Y-71340505D01*
X166141920Y-71530981D01*
X166094301Y-71626219D01*
X166046681Y-71673838D01*
X165951443Y-71721457D01*
X165713348Y-71721457D01*
X165618110Y-71673838D01*
X165570491Y-71626219D01*
X165522872Y-71530981D01*
X165522872Y-71340505D01*
X165570491Y-71245267D01*
X165618110Y-71197648D01*
X165713348Y-71150029D01*
X165107676Y-79760914D02*
X166107676Y-79760914D01*
X165631485Y-79760914D02*
X165631485Y-79189486D01*
X165107676Y-79189486D02*
X166107676Y-79189486D01*
X165679104Y-78570438D02*
X165726723Y-78665676D01*
X165774342Y-78713295D01*
X165869580Y-78760914D01*
X165917199Y-78760914D01*
X166012437Y-78713295D01*
X166060057Y-78665676D01*
X166107676Y-78570438D01*
X166107676Y-78379962D01*
X166060057Y-78284724D01*
X166012437Y-78237105D01*
X165917199Y-78189486D01*
X165869580Y-78189486D01*
X165774342Y-78237105D01*
X165726723Y-78284724D01*
X165679104Y-78379962D01*
X165679104Y-78570438D01*
X165631485Y-78665676D01*
X165583866Y-78713295D01*
X165488628Y-78760914D01*
X165298152Y-78760914D01*
X165202914Y-78713295D01*
X165155295Y-78665676D01*
X165107676Y-78570438D01*
X165107676Y-78379962D01*
X165155295Y-78284724D01*
X165202914Y-78237105D01*
X165298152Y-78189486D01*
X165488628Y-78189486D01*
X165583866Y-78237105D01*
X165631485Y-78284724D01*
X165679104Y-78379962D01*
X162635131Y-72721457D02*
X163635131Y-72721457D01*
X163158940Y-72721457D02*
X163158940Y-72150029D01*
X162635131Y-72150029D02*
X163635131Y-72150029D01*
X163635131Y-71769076D02*
X163635131Y-71102410D01*
X162635131Y-71530981D01*
X163535584Y-80284723D02*
X163583203Y-80379961D01*
X163583203Y-80522819D01*
X163535584Y-80665676D01*
X163440345Y-80760914D01*
X163345107Y-80808533D01*
X163154631Y-80856152D01*
X163011774Y-80856152D01*
X162821298Y-80808533D01*
X162726060Y-80760914D01*
X162630822Y-80665676D01*
X162583203Y-80522819D01*
X162583203Y-80427580D01*
X162630822Y-80284723D01*
X162678441Y-80237104D01*
X163011774Y-80237104D01*
X163011774Y-80427580D01*
X162583203Y-79808533D02*
X163583203Y-79808533D01*
X162583203Y-79237104D01*
X163583203Y-79237104D01*
X162583203Y-78760914D02*
X163583203Y-78760914D01*
X163583203Y-78522819D01*
X163535584Y-78379961D01*
X163440345Y-78284723D01*
X163345107Y-78237104D01*
X163154631Y-78189485D01*
X163011774Y-78189485D01*
X162821298Y-78237104D01*
X162726060Y-78284723D01*
X162630822Y-78379961D01*
X162583203Y-78522819D01*
X162583203Y-78760914D01*
X160128342Y-72721457D02*
X161128342Y-72721457D01*
X160652151Y-72721457D02*
X160652151Y-72150029D01*
X160128342Y-72150029D02*
X161128342Y-72150029D01*
X161128342Y-71245267D02*
X161128342Y-71435743D01*
X161080723Y-71530981D01*
X161033103Y-71578600D01*
X160890246Y-71673838D01*
X160699770Y-71721457D01*
X160318818Y-71721457D01*
X160223580Y-71673838D01*
X160175961Y-71626219D01*
X160128342Y-71530981D01*
X160128342Y-71340505D01*
X160175961Y-71245267D01*
X160223580Y-71197648D01*
X160318818Y-71150029D01*
X160556913Y-71150029D01*
X160652151Y-71197648D01*
X160699770Y-71245267D01*
X160747389Y-71340505D01*
X160747389Y-71530981D01*
X160699770Y-71626219D01*
X160652151Y-71673838D01*
X160556913Y-71721457D01*
X160058730Y-79760914D02*
X161058730Y-79760914D01*
X160582539Y-79760914D02*
X160582539Y-79189486D01*
X160058730Y-79189486D02*
X161058730Y-79189486D01*
X161058730Y-78237105D02*
X161058730Y-78713295D01*
X160582539Y-78760914D01*
X160630158Y-78713295D01*
X160677777Y-78618057D01*
X160677777Y-78379962D01*
X160630158Y-78284724D01*
X160582539Y-78237105D01*
X160487301Y-78189486D01*
X160249206Y-78189486D01*
X160153968Y-78237105D01*
X160106349Y-78284724D01*
X160058730Y-78379962D01*
X160058730Y-78618057D01*
X160106349Y-78713295D01*
X160153968Y-78760914D01*
X157621553Y-72721457D02*
X158621553Y-72721457D01*
X158145362Y-72721457D02*
X158145362Y-72150029D01*
X157621553Y-72150029D02*
X158621553Y-72150029D01*
X158288219Y-71245267D02*
X157621553Y-71245267D01*
X158669172Y-71483362D02*
X157954886Y-71721457D01*
X157954886Y-71102410D01*
X157534257Y-79760914D02*
X158534257Y-79760914D01*
X158058066Y-79760914D02*
X158058066Y-79189486D01*
X157534257Y-79189486D02*
X158534257Y-79189486D01*
X158534257Y-78808533D02*
X158534257Y-78189486D01*
X158153304Y-78522819D01*
X158153304Y-78379962D01*
X158105685Y-78284724D01*
X158058066Y-78237105D01*
X157962828Y-78189486D01*
X157724733Y-78189486D01*
X157629495Y-78237105D01*
X157581876Y-78284724D01*
X157534257Y-78379962D01*
X157534257Y-78665676D01*
X157581876Y-78760914D01*
X157629495Y-78808533D01*
X156067145Y-72197647D02*
X156114764Y-72292885D01*
X156114764Y-72435743D01*
X156067145Y-72578600D01*
X155971906Y-72673838D01*
X155876668Y-72721457D01*
X155686192Y-72769076D01*
X155543335Y-72769076D01*
X155352859Y-72721457D01*
X155257621Y-72673838D01*
X155162383Y-72578600D01*
X155114764Y-72435743D01*
X155114764Y-72340504D01*
X155162383Y-72197647D01*
X155210002Y-72150028D01*
X155543335Y-72150028D01*
X155543335Y-72340504D01*
X155114764Y-71721457D02*
X156114764Y-71721457D01*
X155114764Y-71150028D01*
X156114764Y-71150028D01*
X155114764Y-70673838D02*
X156114764Y-70673838D01*
X156114764Y-70435743D01*
X156067145Y-70292885D01*
X155971906Y-70197647D01*
X155876668Y-70150028D01*
X155686192Y-70102409D01*
X155543335Y-70102409D01*
X155352859Y-70150028D01*
X155257621Y-70197647D01*
X155162383Y-70292885D01*
X155114764Y-70435743D01*
X155114764Y-70673838D01*
X155009784Y-79760914D02*
X156009784Y-79760914D01*
X155533593Y-79760914D02*
X155533593Y-79189486D01*
X155009784Y-79189486D02*
X156009784Y-79189486D01*
X155914545Y-78760914D02*
X155962165Y-78713295D01*
X156009784Y-78618057D01*
X156009784Y-78379962D01*
X155962165Y-78284724D01*
X155914545Y-78237105D01*
X155819307Y-78189486D01*
X155724069Y-78189486D01*
X155581212Y-78237105D01*
X155009784Y-78808533D01*
X155009784Y-78189486D01*
X152607975Y-72721457D02*
X153607975Y-72721457D01*
X153131784Y-72721457D02*
X153131784Y-72150029D01*
X152607975Y-72150029D02*
X153607975Y-72150029D01*
X152607975Y-71150029D02*
X152607975Y-71721457D01*
X152607975Y-71435743D02*
X153607975Y-71435743D01*
X153465117Y-71530981D01*
X153369879Y-71626219D01*
X153322260Y-71721457D01*
X153437692Y-80284723D02*
X153485311Y-80379961D01*
X153485311Y-80522819D01*
X153437692Y-80665676D01*
X153342453Y-80760914D01*
X153247215Y-80808533D01*
X153056739Y-80856152D01*
X152913882Y-80856152D01*
X152723406Y-80808533D01*
X152628168Y-80760914D01*
X152532930Y-80665676D01*
X152485311Y-80522819D01*
X152485311Y-80427580D01*
X152532930Y-80284723D01*
X152580549Y-80237104D01*
X152913882Y-80237104D01*
X152913882Y-80427580D01*
X152485311Y-79808533D02*
X153485311Y-79808533D01*
X152485311Y-79237104D01*
X153485311Y-79237104D01*
X152485311Y-78760914D02*
X153485311Y-78760914D01*
X153485311Y-78522819D01*
X153437692Y-78379961D01*
X153342453Y-78284723D01*
X153247215Y-78237104D01*
X153056739Y-78189485D01*
X152913882Y-78189485D01*
X152723406Y-78237104D01*
X152628168Y-78284723D01*
X152532930Y-78379961D01*
X152485311Y-78522819D01*
X152485311Y-78760914D01*
X150101186Y-72721457D02*
X151101186Y-72721457D01*
X150624995Y-72721457D02*
X150624995Y-72150029D01*
X150101186Y-72150029D02*
X151101186Y-72150029D01*
X151101186Y-71483362D02*
X151101186Y-71388124D01*
X151053567Y-71292886D01*
X151005947Y-71245267D01*
X150910709Y-71197648D01*
X150720233Y-71150029D01*
X150482138Y-71150029D01*
X150291662Y-71197648D01*
X150196424Y-71245267D01*
X150148805Y-71292886D01*
X150101186Y-71388124D01*
X150101186Y-71483362D01*
X150148805Y-71578600D01*
X150196424Y-71626219D01*
X150291662Y-71673838D01*
X150482138Y-71721457D01*
X150720233Y-71721457D01*
X150910709Y-71673838D01*
X151005947Y-71626219D01*
X151053567Y-71578600D01*
X151101186Y-71483362D01*
X150960838Y-82332342D02*
X149960838Y-81999009D01*
X150960838Y-81665675D01*
X149865599Y-81570437D02*
X149865599Y-80808533D01*
X150056076Y-79999009D02*
X150008457Y-80046628D01*
X149960838Y-80189485D01*
X149960838Y-80284723D01*
X150008457Y-80427580D01*
X150103695Y-80522818D01*
X150198933Y-80570437D01*
X150389409Y-80618056D01*
X150532266Y-80618056D01*
X150722742Y-80570437D01*
X150817980Y-80522818D01*
X150913219Y-80427580D01*
X150960838Y-80284723D01*
X150960838Y-80189485D01*
X150913219Y-80046628D01*
X150865599Y-79999009D01*
X149960838Y-79094247D02*
X149960838Y-79570437D01*
X150960838Y-79570437D01*
X149960838Y-78760914D02*
X150960838Y-78760914D01*
X149960838Y-78189485D02*
X150532266Y-78618056D01*
X150960838Y-78189485D02*
X150389409Y-78760914D01*
X148546778Y-72197647D02*
X148594397Y-72292885D01*
X148594397Y-72435743D01*
X148546778Y-72578600D01*
X148451539Y-72673838D01*
X148356301Y-72721457D01*
X148165825Y-72769076D01*
X148022968Y-72769076D01*
X147832492Y-72721457D01*
X147737254Y-72673838D01*
X147642016Y-72578600D01*
X147594397Y-72435743D01*
X147594397Y-72340504D01*
X147642016Y-72197647D01*
X147689635Y-72150028D01*
X148022968Y-72150028D01*
X148022968Y-72340504D01*
X147594397Y-71721457D02*
X148594397Y-71721457D01*
X147594397Y-71150028D01*
X148594397Y-71150028D01*
X147594397Y-70673838D02*
X148594397Y-70673838D01*
X148594397Y-70435743D01*
X148546778Y-70292885D01*
X148451539Y-70197647D01*
X148356301Y-70150028D01*
X148165825Y-70102409D01*
X148022968Y-70102409D01*
X147832492Y-70150028D01*
X147737254Y-70197647D01*
X147642016Y-70292885D01*
X147594397Y-70435743D01*
X147594397Y-70673838D01*
X147436365Y-82332343D02*
X148436365Y-82332343D01*
X148436365Y-81951390D01*
X148388746Y-81856152D01*
X148341126Y-81808533D01*
X148245888Y-81760914D01*
X148103031Y-81760914D01*
X148007793Y-81808533D01*
X147960174Y-81856152D01*
X147912555Y-81951390D01*
X147912555Y-82332343D01*
X147341126Y-81570438D02*
X147341126Y-80808533D01*
X147531603Y-79999009D02*
X147483984Y-80046628D01*
X147436365Y-80189485D01*
X147436365Y-80284724D01*
X147483984Y-80427581D01*
X147579222Y-80522819D01*
X147674460Y-80570438D01*
X147864936Y-80618057D01*
X148007793Y-80618057D01*
X148198269Y-80570438D01*
X148293507Y-80522819D01*
X148388746Y-80427581D01*
X148436365Y-80284724D01*
X148436365Y-80189485D01*
X148388746Y-80046628D01*
X148341126Y-79999009D01*
X147436365Y-79094247D02*
X147436365Y-79570438D01*
X148436365Y-79570438D01*
X147436365Y-78760914D02*
X148436365Y-78760914D01*
X147436365Y-78189485D02*
X148007793Y-78618057D01*
X148436365Y-78189485D02*
X147864936Y-78760914D01*
X145999800Y-72877133D02*
X145999800Y-71829514D01*
X145632419Y-72448561D02*
X145632419Y-72258085D01*
X145584800Y-72162847D01*
X145489561Y-72067609D01*
X145299085Y-72019990D01*
X144965752Y-72019990D01*
X144775276Y-72067609D01*
X144680038Y-72162847D01*
X144632419Y-72258085D01*
X144632419Y-72448561D01*
X144680038Y-72543800D01*
X144775276Y-72639038D01*
X144965752Y-72686657D01*
X145299085Y-72686657D01*
X145489561Y-72639038D01*
X145584800Y-72543800D01*
X145632419Y-72448561D01*
X145999800Y-71829514D02*
X145999800Y-70924752D01*
X145156228Y-71591419D02*
X145156228Y-71258085D01*
X144632419Y-71115228D02*
X144632419Y-71591419D01*
X145632419Y-71591419D01*
X145632419Y-71115228D01*
X145999800Y-70924752D02*
X145999800Y-70162847D01*
X144537180Y-70924752D02*
X144537180Y-70162847D01*
X145999800Y-70162847D02*
X145999800Y-69210466D01*
X144680038Y-69972371D02*
X144632419Y-69829514D01*
X144632419Y-69591419D01*
X144680038Y-69496180D01*
X144727657Y-69448561D01*
X144822895Y-69400942D01*
X144918133Y-69400942D01*
X145013371Y-69448561D01*
X145060990Y-69496180D01*
X145108609Y-69591419D01*
X145156228Y-69781895D01*
X145203847Y-69877133D01*
X145251466Y-69924752D01*
X145346704Y-69972371D01*
X145441942Y-69972371D01*
X145537180Y-69924752D01*
X145584800Y-69877133D01*
X145632419Y-69781895D01*
X145632419Y-69543800D01*
X145584800Y-69400942D01*
X145984273Y-81719514D02*
X145984273Y-80671895D01*
X145616892Y-81290942D02*
X145616892Y-81100466D01*
X145569273Y-81005228D01*
X145474034Y-80909990D01*
X145283558Y-80862371D01*
X144950225Y-80862371D01*
X144759749Y-80909990D01*
X144664511Y-81005228D01*
X144616892Y-81100466D01*
X144616892Y-81290942D01*
X144664511Y-81386180D01*
X144759749Y-81481419D01*
X144950225Y-81529038D01*
X145283558Y-81529038D01*
X145474034Y-81481419D01*
X145569273Y-81386180D01*
X145616892Y-81290942D01*
X145984273Y-80671895D02*
X145984273Y-79767133D01*
X145140701Y-80433800D02*
X145140701Y-80100466D01*
X144616892Y-79957609D02*
X144616892Y-80433800D01*
X145616892Y-80433800D01*
X145616892Y-79957609D01*
X145984273Y-79767133D02*
X145984273Y-79005228D01*
X144521653Y-79767133D02*
X144521653Y-79005228D01*
X145984273Y-79005228D02*
X145984273Y-78148085D01*
X144902606Y-78814752D02*
X144902606Y-78338561D01*
X144616892Y-78909990D02*
X145616892Y-78576657D01*
X144616892Y-78243323D01*
X143358200Y-72959552D02*
X143358200Y-72007171D01*
X142038438Y-72769076D02*
X141990819Y-72626218D01*
X141990819Y-72388123D01*
X142038438Y-72292885D01*
X142086057Y-72245266D01*
X142181295Y-72197647D01*
X142276533Y-72197647D01*
X142371771Y-72245266D01*
X142419390Y-72292885D01*
X142467009Y-72388123D01*
X142514628Y-72578599D01*
X142562247Y-72673838D01*
X142609866Y-72721457D01*
X142705104Y-72769076D01*
X142800342Y-72769076D01*
X142895580Y-72721457D01*
X142943200Y-72673838D01*
X142990819Y-72578599D01*
X142990819Y-72340504D01*
X142943200Y-72197647D01*
X143358200Y-72007171D02*
X143358200Y-71197647D01*
X141990819Y-71292885D02*
X141990819Y-71769076D01*
X142990819Y-71769076D01*
X143358200Y-71197647D02*
X143358200Y-70292885D01*
X142514628Y-70959552D02*
X142514628Y-70626218D01*
X141990819Y-70483361D02*
X141990819Y-70959552D01*
X142990819Y-70959552D01*
X142990819Y-70483361D01*
X143358200Y-70292885D02*
X143358200Y-69388123D01*
X142514628Y-70054790D02*
X142514628Y-69721457D01*
X141990819Y-69578599D02*
X141990819Y-70054790D01*
X142990819Y-70054790D01*
X142990819Y-69578599D01*
X143358200Y-69388123D02*
X143358200Y-68388123D01*
X141990819Y-69150028D02*
X142990819Y-69150028D01*
X142990819Y-68769076D01*
X142943200Y-68673838D01*
X142895580Y-68626218D01*
X142800342Y-68578599D01*
X142657485Y-68578599D01*
X142562247Y-68626218D01*
X142514628Y-68673838D01*
X142467009Y-68769076D01*
X142467009Y-69150028D01*
X143092419Y-80760914D02*
X142092419Y-80427581D01*
X143092419Y-80094247D01*
X142187657Y-79189485D02*
X142140038Y-79237104D01*
X142092419Y-79379961D01*
X142092419Y-79475200D01*
X142140038Y-79618057D01*
X142235276Y-79713295D01*
X142330514Y-79760914D01*
X142520990Y-79808533D01*
X142663847Y-79808533D01*
X142854323Y-79760914D01*
X142949561Y-79713295D01*
X143044800Y-79618057D01*
X143092419Y-79475200D01*
X143092419Y-79379961D01*
X143044800Y-79237104D01*
X142997180Y-79189485D01*
X142187657Y-78189485D02*
X142140038Y-78237104D01*
X142092419Y-78379961D01*
X142092419Y-78475200D01*
X142140038Y-78618057D01*
X142235276Y-78713295D01*
X142330514Y-78760914D01*
X142520990Y-78808533D01*
X142663847Y-78808533D01*
X142854323Y-78760914D01*
X142949561Y-78713295D01*
X143044800Y-78618057D01*
X143092419Y-78475200D01*
X143092419Y-78379961D01*
X143044800Y-78237104D01*
X142997180Y-78189485D01*
D11*
X218293800Y-81362400D02*
X217993800Y-81662400D01*
X218593800Y-81662400D02*
X217993800Y-81662400D01*
X218293800Y-81362400D02*
X218593800Y-81662400D01*
X219143800Y-80462400D02*
X219143800Y-79862400D01*
X215693800Y-81162400D02*
X218493800Y-81162400D01*
X215043800Y-79862400D02*
X215043800Y-80462400D01*
X218493800Y-79162400D02*
X215693800Y-79162400D01*
X219143800Y-79862400D02*
G75*
G03*
X218443800Y-79162400I-700000J0D01*
G01*
X218443800Y-81162400D02*
G75*
G03*
X219143800Y-80462400I0J700000D01*
G01*
X215043800Y-80462400D02*
G75*
G03*
X215743800Y-81162400I700000J0D01*
G01*
X215743800Y-79162400D02*
G75*
G03*
X215043800Y-79862400I0J-700000D01*
G01*
X224567600Y-81362400D02*
X224267600Y-81662400D01*
X224867600Y-81662400D02*
X224267600Y-81662400D01*
X224567600Y-81362400D02*
X224867600Y-81662400D01*
X225417600Y-80462400D02*
X225417600Y-79862400D01*
X221967600Y-81162400D02*
X224767600Y-81162400D01*
X221317600Y-79862400D02*
X221317600Y-80462400D01*
X224767600Y-79162400D02*
X221967600Y-79162400D01*
X225417600Y-79862400D02*
G75*
G03*
X224717600Y-79162400I-700000J0D01*
G01*
X224717600Y-81162400D02*
G75*
G03*
X225417600Y-80462400I0J700000D01*
G01*
X221317600Y-80462400D02*
G75*
G03*
X222017600Y-81162400I700000J0D01*
G01*
X222017600Y-79162400D02*
G75*
G03*
X221317600Y-79862400I0J-700000D01*
G01*
X230993800Y-81362400D02*
X230693800Y-81662400D01*
X231293800Y-81662400D02*
X230693800Y-81662400D01*
X230993800Y-81362400D02*
X231293800Y-81662400D01*
X231843800Y-80462400D02*
X231843800Y-79862400D01*
X228393800Y-81162400D02*
X231193800Y-81162400D01*
X227743800Y-79862400D02*
X227743800Y-80462400D01*
X231193800Y-79162400D02*
X228393800Y-79162400D01*
X231843800Y-79862400D02*
G75*
G03*
X231143800Y-79162400I-700000J0D01*
G01*
X231143800Y-81162400D02*
G75*
G03*
X231843800Y-80462400I0J700000D01*
G01*
X227743800Y-80462400D02*
G75*
G03*
X228443800Y-81162400I700000J0D01*
G01*
X228443800Y-79162400D02*
G75*
G03*
X227743800Y-79862400I0J-700000D01*
G01*
D10*
X219831895Y-78709780D02*
X219831895Y-77709780D01*
X219593800Y-77709780D01*
X219450942Y-77757400D01*
X219355704Y-77852638D01*
X219308085Y-77947876D01*
X219260466Y-78138352D01*
X219260466Y-78281209D01*
X219308085Y-78471685D01*
X219355704Y-78566923D01*
X219450942Y-78662161D01*
X219593800Y-78709780D01*
X219831895Y-78709780D01*
X218831895Y-78709780D02*
X218831895Y-77709780D01*
X218403323Y-78662161D02*
X218260466Y-78709780D01*
X218022371Y-78709780D01*
X217927133Y-78662161D01*
X217879514Y-78614542D01*
X217831895Y-78519304D01*
X217831895Y-78424066D01*
X217879514Y-78328828D01*
X217927133Y-78281209D01*
X218022371Y-78233590D01*
X218212847Y-78185971D01*
X218308085Y-78138352D01*
X218355704Y-78090733D01*
X218403323Y-77995495D01*
X218403323Y-77900257D01*
X218355704Y-77805019D01*
X218308085Y-77757400D01*
X218212847Y-77709780D01*
X217974752Y-77709780D01*
X217831895Y-77757400D01*
X217403323Y-78709780D02*
X217403323Y-77709780D01*
X217022371Y-77709780D01*
X216927133Y-77757400D01*
X216879514Y-77805019D01*
X216831895Y-77900257D01*
X216831895Y-78043114D01*
X216879514Y-78138352D01*
X216927133Y-78185971D01*
X217022371Y-78233590D01*
X217403323Y-78233590D01*
X215927133Y-78709780D02*
X216403323Y-78709780D01*
X216403323Y-77709780D01*
X215641419Y-78424066D02*
X215165228Y-78424066D01*
X215736657Y-78709780D02*
X215403323Y-77709780D01*
X215069990Y-78709780D01*
X214546180Y-78233590D02*
X214546180Y-78709780D01*
X214879514Y-77709780D02*
X214546180Y-78233590D01*
X214212847Y-77709780D01*
X225581885Y-78791380D02*
X225581885Y-77791380D01*
X225581885Y-78267571D02*
X225010457Y-78267571D01*
X225010457Y-78791380D02*
X225010457Y-77791380D01*
X224581885Y-78743761D02*
X224439028Y-78791380D01*
X224200933Y-78791380D01*
X224105695Y-78743761D01*
X224058076Y-78696142D01*
X224010457Y-78600904D01*
X224010457Y-78505666D01*
X224058076Y-78410428D01*
X224105695Y-78362809D01*
X224200933Y-78315190D01*
X224391409Y-78267571D01*
X224486647Y-78219952D01*
X224534266Y-78172333D01*
X224581885Y-78077095D01*
X224581885Y-77981857D01*
X224534266Y-77886619D01*
X224486647Y-77839000D01*
X224391409Y-77791380D01*
X224153314Y-77791380D01*
X224010457Y-77839000D01*
X223391409Y-78315190D02*
X223391409Y-78791380D01*
X223724742Y-77791380D02*
X223391409Y-78315190D01*
X223058076Y-77791380D01*
X222724742Y-78791380D02*
X222724742Y-77791380D01*
X222153314Y-78791380D01*
X222153314Y-77791380D01*
X221105695Y-78696142D02*
X221153314Y-78743761D01*
X221296171Y-78791380D01*
X221391409Y-78791380D01*
X221534266Y-78743761D01*
X221629504Y-78648523D01*
X221677123Y-78553285D01*
X221724742Y-78362809D01*
X221724742Y-78219952D01*
X221677123Y-78029476D01*
X221629504Y-77934238D01*
X221534266Y-77839000D01*
X221391409Y-77791380D01*
X221296171Y-77791380D01*
X221153314Y-77839000D01*
X221105695Y-77886619D01*
X232081104Y-77760580D02*
X231747771Y-78760580D01*
X231414438Y-77760580D01*
X231128723Y-78712961D02*
X230985866Y-78760580D01*
X230747771Y-78760580D01*
X230652533Y-78712961D01*
X230604914Y-78665342D01*
X230557295Y-78570104D01*
X230557295Y-78474866D01*
X230604914Y-78379628D01*
X230652533Y-78332009D01*
X230747771Y-78284390D01*
X230938247Y-78236771D01*
X231033485Y-78189152D01*
X231081104Y-78141533D01*
X231128723Y-78046295D01*
X231128723Y-77951057D01*
X231081104Y-77855819D01*
X231033485Y-77808200D01*
X230938247Y-77760580D01*
X230700152Y-77760580D01*
X230557295Y-77808200D01*
X229938247Y-78284390D02*
X229938247Y-78760580D01*
X230271580Y-77760580D02*
X229938247Y-78284390D01*
X229604914Y-77760580D01*
X229271580Y-78760580D02*
X229271580Y-77760580D01*
X228700152Y-78760580D01*
X228700152Y-77760580D01*
X227652533Y-78665342D02*
X227700152Y-78712961D01*
X227843009Y-78760580D01*
X227938247Y-78760580D01*
X228081104Y-78712961D01*
X228176342Y-78617723D01*
X228223961Y-78522485D01*
X228271580Y-78332009D01*
X228271580Y-78189152D01*
X228223961Y-77998676D01*
X228176342Y-77903438D01*
X228081104Y-77808200D01*
X227938247Y-77760580D01*
X227843009Y-77760580D01*
X227700152Y-77808200D01*
X227652533Y-77855819D01*
%LPC*%
D12*
X217093800Y-80162400D03*
D13*
G36*
X215793800Y-80911798D02*
G01*
X215769266Y-80911798D01*
X215720435Y-80906988D01*
X215672310Y-80897416D01*
X215625355Y-80883172D01*
X215580022Y-80864395D01*
X215536749Y-80841264D01*
X215495950Y-80814004D01*
X215458021Y-80782876D01*
X215423324Y-80748179D01*
X215392196Y-80710250D01*
X215364936Y-80669451D01*
X215341805Y-80626178D01*
X215323028Y-80580845D01*
X215308784Y-80533890D01*
X215299212Y-80485765D01*
X215294402Y-80436934D01*
X215294402Y-80412400D01*
X215293800Y-80412400D01*
X215293800Y-79912400D01*
X215294402Y-79912400D01*
X215294402Y-79887866D01*
X215299212Y-79839035D01*
X215308784Y-79790910D01*
X215323028Y-79743955D01*
X215341805Y-79698622D01*
X215364936Y-79655349D01*
X215392196Y-79614550D01*
X215423324Y-79576621D01*
X215458021Y-79541924D01*
X215495950Y-79510796D01*
X215536749Y-79483536D01*
X215580022Y-79460405D01*
X215625355Y-79441628D01*
X215672310Y-79427384D01*
X215720435Y-79417812D01*
X215769266Y-79413002D01*
X215793800Y-79413002D01*
X215793800Y-79412400D01*
X216343800Y-79412400D01*
X216343800Y-80912400D01*
X215793800Y-80912400D01*
X215793800Y-80911798D01*
G37*
G36*
X217843800Y-79412400D02*
G01*
X218393800Y-79412400D01*
X218393800Y-79413002D01*
X218418334Y-79413002D01*
X218467165Y-79417812D01*
X218515290Y-79427384D01*
X218562245Y-79441628D01*
X218607578Y-79460405D01*
X218650851Y-79483536D01*
X218691650Y-79510796D01*
X218729579Y-79541924D01*
X218764276Y-79576621D01*
X218795404Y-79614550D01*
X218822664Y-79655349D01*
X218845795Y-79698622D01*
X218864572Y-79743955D01*
X218878816Y-79790910D01*
X218888388Y-79839035D01*
X218893198Y-79887866D01*
X218893198Y-79912400D01*
X218893800Y-79912400D01*
X218893800Y-80412400D01*
X218893198Y-80412400D01*
X218893198Y-80436934D01*
X218888388Y-80485765D01*
X218878816Y-80533890D01*
X218864572Y-80580845D01*
X218845795Y-80626178D01*
X218822664Y-80669451D01*
X218795404Y-80710250D01*
X218764276Y-80748179D01*
X218729579Y-80782876D01*
X218691650Y-80814004D01*
X218650851Y-80841264D01*
X218607578Y-80864395D01*
X218562245Y-80883172D01*
X218515290Y-80897416D01*
X218467165Y-80906988D01*
X218418334Y-80911798D01*
X218393800Y-80911798D01*
X218393800Y-80912400D01*
X217843800Y-80912400D01*
X217843800Y-79412400D01*
G37*
D12*
X223367600Y-80162400D03*
D13*
G36*
X222067600Y-80911798D02*
G01*
X222043066Y-80911798D01*
X221994235Y-80906988D01*
X221946110Y-80897416D01*
X221899155Y-80883172D01*
X221853822Y-80864395D01*
X221810549Y-80841264D01*
X221769750Y-80814004D01*
X221731821Y-80782876D01*
X221697124Y-80748179D01*
X221665996Y-80710250D01*
X221638736Y-80669451D01*
X221615605Y-80626178D01*
X221596828Y-80580845D01*
X221582584Y-80533890D01*
X221573012Y-80485765D01*
X221568202Y-80436934D01*
X221568202Y-80412400D01*
X221567600Y-80412400D01*
X221567600Y-79912400D01*
X221568202Y-79912400D01*
X221568202Y-79887866D01*
X221573012Y-79839035D01*
X221582584Y-79790910D01*
X221596828Y-79743955D01*
X221615605Y-79698622D01*
X221638736Y-79655349D01*
X221665996Y-79614550D01*
X221697124Y-79576621D01*
X221731821Y-79541924D01*
X221769750Y-79510796D01*
X221810549Y-79483536D01*
X221853822Y-79460405D01*
X221899155Y-79441628D01*
X221946110Y-79427384D01*
X221994235Y-79417812D01*
X222043066Y-79413002D01*
X222067600Y-79413002D01*
X222067600Y-79412400D01*
X222617600Y-79412400D01*
X222617600Y-80912400D01*
X222067600Y-80912400D01*
X222067600Y-80911798D01*
G37*
G36*
X224117600Y-79412400D02*
G01*
X224667600Y-79412400D01*
X224667600Y-79413002D01*
X224692134Y-79413002D01*
X224740965Y-79417812D01*
X224789090Y-79427384D01*
X224836045Y-79441628D01*
X224881378Y-79460405D01*
X224924651Y-79483536D01*
X224965450Y-79510796D01*
X225003379Y-79541924D01*
X225038076Y-79576621D01*
X225069204Y-79614550D01*
X225096464Y-79655349D01*
X225119595Y-79698622D01*
X225138372Y-79743955D01*
X225152616Y-79790910D01*
X225162188Y-79839035D01*
X225166998Y-79887866D01*
X225166998Y-79912400D01*
X225167600Y-79912400D01*
X225167600Y-80412400D01*
X225166998Y-80412400D01*
X225166998Y-80436934D01*
X225162188Y-80485765D01*
X225152616Y-80533890D01*
X225138372Y-80580845D01*
X225119595Y-80626178D01*
X225096464Y-80669451D01*
X225069204Y-80710250D01*
X225038076Y-80748179D01*
X225003379Y-80782876D01*
X224965450Y-80814004D01*
X224924651Y-80841264D01*
X224881378Y-80864395D01*
X224836045Y-80883172D01*
X224789090Y-80897416D01*
X224740965Y-80906988D01*
X224692134Y-80911798D01*
X224667600Y-80911798D01*
X224667600Y-80912400D01*
X224117600Y-80912400D01*
X224117600Y-79412400D01*
G37*
D12*
X229793800Y-80162400D03*
D13*
G36*
X228493800Y-80911798D02*
G01*
X228469266Y-80911798D01*
X228420435Y-80906988D01*
X228372310Y-80897416D01*
X228325355Y-80883172D01*
X228280022Y-80864395D01*
X228236749Y-80841264D01*
X228195950Y-80814004D01*
X228158021Y-80782876D01*
X228123324Y-80748179D01*
X228092196Y-80710250D01*
X228064936Y-80669451D01*
X228041805Y-80626178D01*
X228023028Y-80580845D01*
X228008784Y-80533890D01*
X227999212Y-80485765D01*
X227994402Y-80436934D01*
X227994402Y-80412400D01*
X227993800Y-80412400D01*
X227993800Y-79912400D01*
X227994402Y-79912400D01*
X227994402Y-79887866D01*
X227999212Y-79839035D01*
X228008784Y-79790910D01*
X228023028Y-79743955D01*
X228041805Y-79698622D01*
X228064936Y-79655349D01*
X228092196Y-79614550D01*
X228123324Y-79576621D01*
X228158021Y-79541924D01*
X228195950Y-79510796D01*
X228236749Y-79483536D01*
X228280022Y-79460405D01*
X228325355Y-79441628D01*
X228372310Y-79427384D01*
X228420435Y-79417812D01*
X228469266Y-79413002D01*
X228493800Y-79413002D01*
X228493800Y-79412400D01*
X229043800Y-79412400D01*
X229043800Y-80912400D01*
X228493800Y-80912400D01*
X228493800Y-80911798D01*
G37*
G36*
X230543800Y-79412400D02*
G01*
X231093800Y-79412400D01*
X231093800Y-79413002D01*
X231118334Y-79413002D01*
X231167165Y-79417812D01*
X231215290Y-79427384D01*
X231262245Y-79441628D01*
X231307578Y-79460405D01*
X231350851Y-79483536D01*
X231391650Y-79510796D01*
X231429579Y-79541924D01*
X231464276Y-79576621D01*
X231495404Y-79614550D01*
X231522664Y-79655349D01*
X231545795Y-79698622D01*
X231564572Y-79743955D01*
X231578816Y-79790910D01*
X231588388Y-79839035D01*
X231593198Y-79887866D01*
X231593198Y-79912400D01*
X231593800Y-79912400D01*
X231593800Y-80412400D01*
X231593198Y-80412400D01*
X231593198Y-80436934D01*
X231588388Y-80485765D01*
X231578816Y-80533890D01*
X231564572Y-80580845D01*
X231545795Y-80626178D01*
X231522664Y-80669451D01*
X231495404Y-80710250D01*
X231464276Y-80748179D01*
X231429579Y-80782876D01*
X231391650Y-80814004D01*
X231350851Y-80841264D01*
X231307578Y-80864395D01*
X231262245Y-80883172D01*
X231215290Y-80897416D01*
X231167165Y-80906988D01*
X231118334Y-80911798D01*
X231093800Y-80911798D01*
X231093800Y-80912400D01*
X230543800Y-80912400D01*
X230543800Y-79412400D01*
G37*
D14*
X113055400Y-97129600D03*
D15*
X211658200Y-130606800D03*
X131495800Y-130606800D03*
X233908600Y-71907400D03*
X112064800Y-71907400D03*
D16*
X169316400Y-102235000D03*
X187096400Y-109855000D03*
X171856400Y-102235000D03*
X184556400Y-109855000D03*
X174396400Y-102235000D03*
X182016400Y-109855000D03*
X176936400Y-102235000D03*
X179476400Y-109855000D03*
X179476400Y-102235000D03*
X176936400Y-109855000D03*
X182016400Y-102235000D03*
X174396400Y-109855000D03*
X184556400Y-102235000D03*
X171856400Y-109855000D03*
X187096400Y-102235000D03*
D17*
X169316400Y-109855000D03*
D16*
X145186400Y-117449600D03*
X160426400Y-125069600D03*
X147726400Y-117449600D03*
X157886400Y-125069600D03*
X150266400Y-117449600D03*
X155346400Y-125069600D03*
X152806400Y-117449600D03*
X152806400Y-125069600D03*
X155346400Y-117449600D03*
X150266400Y-125069600D03*
X157886400Y-117449600D03*
X147726400Y-125069600D03*
X160426400Y-117449600D03*
D17*
X145186400Y-125069600D03*
D18*
X190906400Y-74269600D03*
X188366400Y-74269600D03*
X185826400Y-74269600D03*
X183286400Y-74269600D03*
X180746400Y-74269600D03*
X178206400Y-74269600D03*
X175666400Y-74269600D03*
X173126400Y-74269600D03*
X170586400Y-74269600D03*
X168046400Y-74269600D03*
X165506400Y-74269600D03*
X162966400Y-74269600D03*
X160426400Y-74269600D03*
X157886400Y-74269600D03*
X155346400Y-74269600D03*
X152806400Y-74269600D03*
X150266400Y-74269600D03*
X147726400Y-74269600D03*
X145186400Y-74269600D03*
X142646400Y-74269600D03*
X190906400Y-76809600D03*
X188366400Y-76809600D03*
X185826400Y-76809600D03*
X183286400Y-76809600D03*
X180746400Y-76809600D03*
X178206400Y-76809600D03*
X175666400Y-76809600D03*
X173126400Y-76809600D03*
X170586400Y-76809600D03*
X168046400Y-76809600D03*
X165506400Y-76809600D03*
X162966400Y-76809600D03*
X160426400Y-76809600D03*
X157886400Y-76809600D03*
X155346400Y-76809600D03*
X152806400Y-76809600D03*
X150266400Y-76809600D03*
X147726400Y-76809600D03*
X145186400Y-76809600D03*
G36*
G01*
X143246400Y-77659600D02*
X142046400Y-77659600D01*
G75*
G02*
X141796400Y-77409600I0J250000D01*
G01*
X141796400Y-76209600D01*
G75*
G02*
X142046400Y-75959600I250000J0D01*
G01*
X143246400Y-75959600D01*
G75*
G02*
X143496400Y-76209600I0J-250000D01*
G01*
X143496400Y-77409600D01*
G75*
G02*
X143246400Y-77659600I-250000J0D01*
G01*
G37*
D16*
X146456400Y-102209600D03*
X161696400Y-109829600D03*
X148996400Y-102209600D03*
X159156400Y-109829600D03*
X151536400Y-102209600D03*
X156616400Y-109829600D03*
X154076400Y-102209600D03*
X154076400Y-109829600D03*
X156616400Y-102209600D03*
X151536400Y-109829600D03*
X159156400Y-102209600D03*
X148996400Y-109829600D03*
X161696400Y-102209600D03*
D17*
X146456400Y-109829600D03*
D16*
X123916400Y-102209600D03*
X139156400Y-109829600D03*
X126456400Y-102209600D03*
X136616400Y-109829600D03*
X128996400Y-102209600D03*
X134076400Y-109829600D03*
X131536400Y-102209600D03*
X131536400Y-109829600D03*
X134076400Y-102209600D03*
X128996400Y-109829600D03*
X136616400Y-102209600D03*
X126456400Y-109829600D03*
X139156400Y-102209600D03*
D17*
X123916400Y-109829600D03*
D16*
X146456400Y-84429600D03*
X169316400Y-92049600D03*
X148996400Y-84429600D03*
X166776400Y-92049600D03*
X151536400Y-84429600D03*
X164236400Y-92049600D03*
X154076400Y-84429600D03*
X161696400Y-92049600D03*
X156616400Y-84429600D03*
X159156400Y-92049600D03*
X159156400Y-84429600D03*
X156616400Y-92049600D03*
X161696400Y-84429600D03*
X154076400Y-92049600D03*
X164236400Y-84429600D03*
X151536400Y-92049600D03*
X166776400Y-84429600D03*
X148996400Y-92049600D03*
X169316400Y-84429600D03*
D17*
X146456400Y-92049600D03*
D19*
X223886400Y-97129600D03*
X221386400Y-97129600D03*
X173126400Y-86929600D03*
X173126400Y-84429600D03*
X227736400Y-109829600D03*
X227736400Y-102209600D03*
X220116400Y-102209600D03*
D17*
X220116400Y-109829600D03*
D16*
X207416400Y-84429600D03*
X230276400Y-92049600D03*
X209956400Y-84429600D03*
X227736400Y-92049600D03*
X212496400Y-84429600D03*
X225196400Y-92049600D03*
X215036400Y-84429600D03*
X222656400Y-92049600D03*
X217576400Y-84429600D03*
X220116400Y-92049600D03*
X220116400Y-84429600D03*
X217576400Y-92049600D03*
X222656400Y-84429600D03*
X215036400Y-92049600D03*
X225196400Y-84429600D03*
X212496400Y-92049600D03*
X227736400Y-84429600D03*
X209956400Y-92049600D03*
X230276400Y-84429600D03*
D17*
X207416400Y-92049600D03*
D16*
X176936400Y-84429600D03*
X199796400Y-92049600D03*
X179476400Y-84429600D03*
X197256400Y-92049600D03*
X182016400Y-84429600D03*
X194716400Y-92049600D03*
X184556400Y-84429600D03*
X192176400Y-92049600D03*
X187096400Y-84429600D03*
X189636400Y-92049600D03*
X189636400Y-84429600D03*
X187096400Y-92049600D03*
X192176400Y-84429600D03*
X184556400Y-92049600D03*
X194716400Y-84429600D03*
X182016400Y-92049600D03*
X197256400Y-84429600D03*
X179476400Y-92049600D03*
X199796400Y-84429600D03*
D17*
X176936400Y-92049600D03*
D16*
X115976400Y-84429600D03*
X138836400Y-92049600D03*
X118516400Y-84429600D03*
X136296400Y-92049600D03*
X121056400Y-84429600D03*
X133756400Y-92049600D03*
X123596400Y-84429600D03*
X131216400Y-92049600D03*
X126136400Y-84429600D03*
X128676400Y-92049600D03*
X128676400Y-84429600D03*
X126136400Y-92049600D03*
X131216400Y-84429600D03*
X123596400Y-92049600D03*
X133756400Y-84429600D03*
X121056400Y-92049600D03*
X136296400Y-84429600D03*
X118516400Y-92049600D03*
X138836400Y-84429600D03*
D17*
X115976400Y-92049600D03*
D16*
X216306400Y-117449600D03*
X234086400Y-125069600D03*
X218846400Y-117449600D03*
X231546400Y-125069600D03*
X221386400Y-117449600D03*
X229006400Y-125069600D03*
X223926400Y-117449600D03*
X226466400Y-125069600D03*
X226466400Y-117449600D03*
X223926400Y-125069600D03*
X229006400Y-117449600D03*
X221386400Y-125069600D03*
X231546400Y-117449600D03*
X218846400Y-125069600D03*
X234086400Y-117449600D03*
D17*
X216306400Y-125069600D03*
D16*
X216316400Y-135229600D03*
X234096400Y-142849600D03*
X218856400Y-135229600D03*
X231556400Y-142849600D03*
X221396400Y-135229600D03*
X229016400Y-142849600D03*
X223936400Y-135229600D03*
X226476400Y-142849600D03*
X226476400Y-135229600D03*
X223936400Y-142849600D03*
X229016400Y-135229600D03*
X221396400Y-142849600D03*
X231556400Y-135229600D03*
X218856400Y-142849600D03*
X234096400Y-135229600D03*
D17*
X216316400Y-142849600D03*
D16*
X190906400Y-135229600D03*
X208686400Y-142849600D03*
X193446400Y-135229600D03*
X206146400Y-142849600D03*
X195986400Y-135229600D03*
X203606400Y-142849600D03*
X198526400Y-135229600D03*
X201066400Y-142849600D03*
X201066400Y-135229600D03*
X198526400Y-142849600D03*
X203606400Y-135229600D03*
X195986400Y-142849600D03*
X206146400Y-135229600D03*
X193446400Y-142849600D03*
X208686400Y-135229600D03*
D17*
X190906400Y-142849600D03*
D16*
X190906400Y-117449600D03*
X206146400Y-125069600D03*
X193446400Y-117449600D03*
X203606400Y-125069600D03*
X195986400Y-117449600D03*
X201066400Y-125069600D03*
X198526400Y-117449600D03*
X198526400Y-125069600D03*
X201066400Y-117449600D03*
X195986400Y-125069600D03*
X203606400Y-117449600D03*
X193446400Y-125069600D03*
X206146400Y-117449600D03*
D17*
X190906400Y-125069600D03*
D16*
X194716400Y-102209600D03*
X209956400Y-109829600D03*
X197256400Y-102209600D03*
X207416400Y-109829600D03*
X199796400Y-102209600D03*
X204876400Y-109829600D03*
X202336400Y-102209600D03*
X202336400Y-109829600D03*
X204876400Y-102209600D03*
X199796400Y-109829600D03*
X207416400Y-102209600D03*
X197256400Y-109829600D03*
X209956400Y-102209600D03*
D17*
X194716400Y-109829600D03*
D16*
X168046400Y-117449600D03*
X183286400Y-125069600D03*
X170586400Y-117449600D03*
X180746400Y-125069600D03*
X173126400Y-117449600D03*
X178206400Y-125069600D03*
X175666400Y-117449600D03*
X175666400Y-125069600D03*
X178206400Y-117449600D03*
X173126400Y-125069600D03*
X180746400Y-117449600D03*
X170586400Y-125069600D03*
X183286400Y-117449600D03*
D17*
X168046400Y-125069600D03*
D16*
X122326400Y-117449600D03*
X137566400Y-125069600D03*
X124866400Y-117449600D03*
X135026400Y-125069600D03*
X127406400Y-117449600D03*
X132486400Y-125069600D03*
X129946400Y-117449600D03*
X129946400Y-125069600D03*
X132486400Y-117449600D03*
X127406400Y-125069600D03*
X135026400Y-117449600D03*
X124866400Y-125069600D03*
X137566400Y-117449600D03*
D17*
X122326400Y-125069600D03*
D16*
X165506400Y-135229600D03*
X183286400Y-142849600D03*
X168046400Y-135229600D03*
X180746400Y-142849600D03*
X170586400Y-135229600D03*
X178206400Y-142849600D03*
X173126400Y-135229600D03*
X175666400Y-142849600D03*
X175666400Y-135229600D03*
X173126400Y-142849600D03*
X178206400Y-135229600D03*
X170586400Y-142849600D03*
X180746400Y-135229600D03*
X168046400Y-142849600D03*
X183286400Y-135229600D03*
D17*
X165506400Y-142849600D03*
D16*
X140106400Y-135229600D03*
X157886400Y-142849600D03*
X142646400Y-135229600D03*
X155346400Y-142849600D03*
X145186400Y-135229600D03*
X152806400Y-142849600D03*
X147726400Y-135229600D03*
X150266400Y-142849600D03*
X150266400Y-135229600D03*
X147726400Y-142849600D03*
X152806400Y-135229600D03*
X145186400Y-142849600D03*
X155346400Y-135229600D03*
X142646400Y-142849600D03*
X157886400Y-135229600D03*
D17*
X140106400Y-142849600D03*
D16*
X114706400Y-135229600D03*
X132486400Y-142849600D03*
X117246400Y-135229600D03*
X129946400Y-142849600D03*
X119786400Y-135229600D03*
X127406400Y-142849600D03*
X122326400Y-135229600D03*
X124866400Y-142849600D03*
X124866400Y-135229600D03*
X122326400Y-142849600D03*
X127406400Y-135229600D03*
X119786400Y-142849600D03*
X129946400Y-135229600D03*
X117246400Y-142849600D03*
X132486400Y-135229600D03*
D17*
X114706400Y-142849600D03*
D14*
X129946400Y-97129600D03*
X165506400Y-97129600D03*
X201066400Y-97129600D03*
X146456400Y-97129600D03*
X184556400Y-97129600D03*
X179476400Y-130149600D03*
X213766400Y-97129600D03*
X195986400Y-130149600D03*
X150266400Y-130149600D03*
D19*
X129986400Y-75539600D03*
D17*
X132486400Y-75539600D03*
D20*
X111436400Y-118719600D03*
D21*
X113436400Y-118719600D03*
D20*
X111436400Y-128879600D03*
D21*
X113436400Y-128879600D03*
D20*
X122866400Y-75539600D03*
D21*
X124866400Y-75539600D03*
D20*
X111436400Y-103479600D03*
D21*
X113436400Y-103479600D03*
D19*
X142646400Y-86929600D03*
X142646400Y-84429600D03*
X112166400Y-86929600D03*
X112166400Y-84429600D03*
X203606400Y-86929600D03*
X203606400Y-84429600D03*
X212496400Y-137729600D03*
X212496400Y-135229600D03*
X141376400Y-119949600D03*
X141376400Y-117449600D03*
X118516400Y-119949600D03*
X118516400Y-117449600D03*
X136296400Y-137729600D03*
X136296400Y-135229600D03*
X187096400Y-137729600D03*
X187096400Y-135229600D03*
X110896400Y-137729600D03*
X110896400Y-135229600D03*
X161696400Y-137729600D03*
X161696400Y-135229600D03*
X142646400Y-104709600D03*
X142646400Y-102209600D03*
X119786400Y-104709600D03*
X119786400Y-102209600D03*
X190906400Y-104709600D03*
X190906400Y-102209600D03*
X212496400Y-119949600D03*
X212496400Y-117449600D03*
X187096400Y-119949600D03*
X187096400Y-117449600D03*
X165506400Y-104709600D03*
X165506400Y-102209600D03*
X164236400Y-119949600D03*
X164236400Y-117449600D03*
M02*
