M48
; DRILL file {KiCad (5.1.10-1-10_14)} date Friday, October 29, 2021 at 12:54:18 PM
; FORMAT={-:-/ absolute / metric / decimal}
; #@! TF.CreationDate,2021-10-29T12:54:18+02:00
; #@! TF.GenerationSoftware,Kicad,Pcbnew,(5.1.10-1-10_14)
; #@! TF.FileFunction,Plated,1,4,PTH
FMAT,2
METRIC
T1C0.400
T2C0.600
T3C0.800
T4C1.000
T5C1.600
T6C2.500
%
G90
G05
T1
X110.426Y-75.67
X111.926Y-110.17
X112.426Y-124.17
X114.426Y-72.67
X118.426Y-81.67
X118.926Y-123.67
X122.426Y-113.67
X122.926Y-138.17
X123.426Y-112.67
X125.426Y-70.67
X125.426Y-121.67
X126.426Y-115.67
X127.926Y-86.67
X129.426Y-104.67
X130.346Y-122.67
X132.426Y-94.67
X132.426Y-99.67
X132.452Y-122.67
X134.426Y-120.67
X134.426Y-142.67
X135.426Y-89.67
X135.426Y-122.67
X135.426Y-144.67
X136.361Y-88.305
X136.426Y-78.67
X136.426Y-119.67
X137.426Y-89.67
X137.426Y-120.67
X137.426Y-127.67
X137.566Y-107.29
X137.566Y-111.1
X137.926Y-97.17
X138.426Y-69.67
X138.426Y-137.67
X138.426Y-140.67
X139.306Y-105.55
X139.426Y-89.67
X139.426Y-107.67
X140.426Y-137.67
X140.666Y-86.41
X140.926Y-84.67
X140.93Y-114.25
X141.426Y-107.67
X141.426Y-132.67
X141.626Y-138.07
X142.426Y-122.67
X142.426Y-138.67
X143.426Y-139.67
X144.426Y-113.67
X144.426Y-120.67
X144.426Y-107.67
X145.426Y-122.67
X145.791Y-88.305
X146.439Y-132.657
X147.426Y-104.67
X147.426Y-133.67
X147.926Y-131.67
X148.426Y-107.67
X148.426Y-127.67
X148.426Y-137.67
X149.011Y-106.085
X149.426Y-99.67
X149.426Y-119.67
X150.426Y-94.67
X150.626Y-138.47
X151.426Y-112.67
X151.536Y-133.809
X151.763Y-111.64
X153.096Y-113.339
X153.137Y-130.404
X153.426Y-107.67
X153.426Y-120.67
X153.426Y-139.67
X153.603Y-111.468
X154.426Y-99.67
X154.686Y-127.279
X154.926Y-87.17
X155.426Y-112.67
X155.926Y-104.67
X157.471Y-111.616
X157.886Y-132.69
X158.426Y-98.07
X159.043Y-111.271
X160.426Y-100.67
X160.883Y-113.369
X161.62Y-112.624
X161.696Y-94.94
X162.426Y-141.67
X162.427Y-107.53
X163.426Y-69.67
X163.426Y-98.67
X163.426Y-101.67
X163.601Y-124.536
X165.426Y-108.67
X166.243Y-127.025
X166.426Y-128.67
X166.426Y-138.67
X167.426Y-99.67
X167.426Y-140.67
X167.926Y-128.67
X168.046Y-95.86
X168.426Y-104.67
X168.426Y-114.945
X169.294Y-128.199
X170.367Y-122.494
X170.426Y-96.67
X170.426Y-98.67
X170.426Y-104.67
X170.426Y-131.17
X170.538Y-129.745
X171.026Y-137.67
X171.367Y-122.508
X171.426Y-136.67
X171.426Y-140.67
X172.426Y-92.67
X172.426Y-96.67
X172.426Y-115.67
X173.426Y-99.67
X173.426Y-104.67
X174.251Y-121.437
X174.426Y-136.67
X174.876Y-99.45
X175.514Y-122.037
X175.926Y-96.67
X176.426Y-97.67
X177.926Y-107.67
X178.181Y-110.668
X178.382Y-99.723
X178.426Y-90.67
X178.426Y-138.17
X178.791Y-88.305
X178.86Y-123.25
X179.426Y-97.695
X179.601Y-95.777
X180.426Y-81.67
X180.426Y-98.67
X180.746Y-127.61
X180.822Y-100.864
X181.426Y-133.67
X182.016Y-128.88
X183.414Y-106.657
X183.426Y-81.67
X183.926Y-105.67
X184.095Y-113.313
X185.281Y-107.53
X185.283Y-117.12
X185.426Y-82.67
X185.426Y-115.67
X185.619Y-114.22
X185.749Y-100.712
X185.754Y-106.395
X186.426Y-112.67
X186.708Y-121.597
X186.757Y-123.339
X187.014Y-104.945
X187.426Y-114.945
X187.426Y-131.67
X187.426Y-143.67
X187.926Y-130.17
X188.112Y-113.821
X188.395Y-94.8
X188.439Y-139.945
X188.496Y-137.773
X188.633Y-111.516
X189.337Y-106.916
X189.426Y-130.67
X189.636Y-95.86
X189.763Y-114.275
X189.791Y-88.305
X189.926Y-137.67
X190.398Y-121.209
X190.627Y-115.011
X190.906Y-94.8
X190.926Y-119.67
X191.727Y-111.901
X191.745Y-120.269
X191.761Y-110.901
X192.176Y-100.94
X192.253Y-109.017
X192.272Y-103.384
X192.382Y-118.714
X192.721Y-133.67
X193.426Y-69.17
X193.426Y-100.87
X193.426Y-132.67
X193.459Y-115.835
X194.151Y-111.685
X194.461Y-119.667
X195.994Y-114.263
X196.129Y-108.847
X196.426Y-76.67
X196.791Y-88.305
X197.426Y-138.67
X198.526Y-111.1
X199.371Y-108.496
X199.439Y-116.387
X200.096Y-105.989
X200.426Y-123.67
X201.066Y-128.88
X201.079Y-105.77
X201.426Y-107.67
X201.426Y-111.67
X201.926Y-131.67
X202.193Y-105.496
X202.434Y-130.247
X202.876Y-107.395
X203.426Y-123.17
X204.426Y-111.897
X205.19Y-119.906
X205.426Y-71.67
X205.426Y-76.67
X205.426Y-132.67
X205.426Y-133.67
X205.842Y-89.23
X205.918Y-129.921
X206.426Y-103.67
X206.426Y-108.67
X206.426Y-111.67
X206.426Y-122.67
X206.858Y-119.355
X207.426Y-104.17
X208.273Y-119.876
X208.426Y-96.67
X208.426Y-122.67
X208.926Y-95.67
X209.414Y-117.657
X209.426Y-104.67
X211.15Y-126.162
X211.331Y-98.765
X211.426Y-114.67
X212.293Y-80.416
X212.426Y-142.67
X213.426Y-113.67
X214.426Y-105.27
X214.426Y-113.67
X214.426Y-122.67
X215.426Y-105.67
X215.443Y-113.665
X215.926Y-108.67
X216.426Y-99.67
X216.426Y-104.67
X216.541Y-95.055
X216.626Y-98.17
X216.926Y-89.17
X217.983Y-73.33
X218.567Y-82.525
X220.04Y-114.833
X220.091Y-130.048
X220.726Y-128.168
X220.926Y-120.17
X221.426Y-69.17
X221.426Y-137.67
X223.426Y-108.17
X223.426Y-122.67
X224.231Y-77.292
X224.917Y-82.474
X227.426Y-119.67
X227.926Y-130.17
X228.426Y-73.17
X228.926Y-137.17
X230.426Y-121.67
X230.426Y-139.67
X230.448Y-137.079
X231.426Y-120.67
X232.426Y-122.67
X233.426Y-111.17
X233.426Y-132.67
X233.926Y-121.17
X234.426Y-85.17
X234.426Y-128.67
X235.926Y-94.17
T2
X111.436Y-103.48
X111.436Y-118.72
X111.436Y-128.88
X113.436Y-103.48
X113.436Y-118.72
X113.436Y-128.88
X122.866Y-75.54
X124.866Y-75.54
T3
X110.896Y-135.23
X110.896Y-137.73
X112.166Y-84.43
X112.166Y-86.93
X114.706Y-135.23
X114.706Y-142.85
X115.976Y-84.43
X115.976Y-92.05
X117.246Y-135.23
X117.246Y-142.85
X118.516Y-84.43
X118.516Y-92.05
X118.516Y-117.45
X118.516Y-119.95
X119.786Y-102.21
X119.786Y-104.71
X119.786Y-135.23
X119.786Y-142.85
X121.056Y-84.43
X121.056Y-92.05
X122.326Y-117.45
X122.326Y-125.07
X122.326Y-135.23
X122.326Y-142.85
X123.596Y-84.43
X123.596Y-92.05
X123.916Y-102.21
X123.916Y-109.83
X124.866Y-117.45
X124.866Y-125.07
X124.866Y-135.23
X124.866Y-142.85
X126.136Y-84.43
X126.136Y-92.05
X126.456Y-102.21
X126.456Y-109.83
X127.406Y-117.45
X127.406Y-125.07
X127.406Y-135.23
X127.406Y-142.85
X128.676Y-84.43
X128.676Y-92.05
X128.996Y-102.21
X128.996Y-109.83
X129.946Y-117.45
X129.946Y-125.07
X129.946Y-135.23
X129.946Y-142.85
X129.986Y-75.54
X131.216Y-84.43
X131.216Y-92.05
X131.536Y-102.21
X131.536Y-109.83
X132.486Y-75.54
X132.486Y-117.45
X132.486Y-125.07
X132.486Y-135.23
X132.486Y-142.85
X133.756Y-84.43
X133.756Y-92.05
X134.076Y-102.21
X134.076Y-109.83
X135.026Y-117.45
X135.026Y-125.07
X136.296Y-84.43
X136.296Y-92.05
X136.296Y-135.23
X136.296Y-137.73
X136.616Y-102.21
X136.616Y-109.83
X137.566Y-117.45
X137.566Y-125.07
X138.836Y-84.43
X138.836Y-92.05
X139.156Y-102.21
X139.156Y-109.83
X140.106Y-135.23
X140.106Y-142.85
X141.376Y-117.45
X141.376Y-119.95
X142.646Y-84.43
X142.646Y-86.93
X142.646Y-102.21
X142.646Y-104.71
X142.646Y-135.23
X142.646Y-142.85
X145.186Y-117.45
X145.186Y-125.07
X145.186Y-135.23
X145.186Y-142.85
X146.456Y-84.43
X146.456Y-92.05
X146.456Y-102.21
X146.456Y-109.83
X147.726Y-117.45
X147.726Y-125.07
X147.726Y-135.23
X147.726Y-142.85
X148.996Y-84.43
X148.996Y-92.05
X148.996Y-102.21
X148.996Y-109.83
X150.266Y-117.45
X150.266Y-125.07
X150.266Y-135.23
X150.266Y-142.85
X151.536Y-84.43
X151.536Y-92.05
X151.536Y-102.21
X151.536Y-109.83
X152.806Y-117.45
X152.806Y-125.07
X152.806Y-135.23
X152.806Y-142.85
X154.076Y-84.43
X154.076Y-92.05
X154.076Y-102.21
X154.076Y-109.83
X155.346Y-117.45
X155.346Y-125.07
X155.346Y-135.23
X155.346Y-142.85
X156.616Y-84.43
X156.616Y-92.05
X156.616Y-102.21
X156.616Y-109.83
X157.886Y-117.45
X157.886Y-125.07
X157.886Y-135.23
X157.886Y-142.85
X159.156Y-84.43
X159.156Y-92.05
X159.156Y-102.21
X159.156Y-109.83
X160.426Y-117.45
X160.426Y-125.07
X161.696Y-84.43
X161.696Y-92.05
X161.696Y-102.21
X161.696Y-109.83
X161.696Y-135.23
X161.696Y-137.73
X164.236Y-84.43
X164.236Y-92.05
X164.236Y-117.45
X164.236Y-119.95
X165.506Y-102.21
X165.506Y-104.71
X165.506Y-135.23
X165.506Y-142.85
X166.776Y-84.43
X166.776Y-92.05
X168.046Y-117.45
X168.046Y-125.07
X168.046Y-135.23
X168.046Y-142.85
X169.316Y-84.43
X169.316Y-92.05
X169.316Y-102.235
X169.316Y-109.855
X170.586Y-117.45
X170.586Y-125.07
X170.586Y-135.23
X170.586Y-142.85
X171.856Y-102.235
X171.856Y-109.855
X173.126Y-84.43
X173.126Y-86.93
X173.126Y-117.45
X173.126Y-125.07
X173.126Y-135.23
X173.126Y-142.85
X174.396Y-102.235
X174.396Y-109.855
X175.666Y-117.45
X175.666Y-125.07
X175.666Y-135.23
X175.666Y-142.85
X176.936Y-84.43
X176.936Y-92.05
X176.936Y-102.235
X176.936Y-109.855
X178.206Y-117.45
X178.206Y-125.07
X178.206Y-135.23
X178.206Y-142.85
X179.476Y-84.43
X179.476Y-92.05
X179.476Y-102.235
X179.476Y-109.855
X180.746Y-117.45
X180.746Y-125.07
X180.746Y-135.23
X180.746Y-142.85
X182.016Y-84.43
X182.016Y-92.05
X182.016Y-102.235
X182.016Y-109.855
X183.286Y-117.45
X183.286Y-125.07
X183.286Y-135.23
X183.286Y-142.85
X184.556Y-84.43
X184.556Y-92.05
X184.556Y-102.235
X184.556Y-109.855
X187.096Y-84.43
X187.096Y-92.05
X187.096Y-102.235
X187.096Y-109.855
X187.096Y-117.45
X187.096Y-119.95
X187.096Y-135.23
X187.096Y-137.73
X189.636Y-84.43
X189.636Y-92.05
X190.906Y-102.21
X190.906Y-104.71
X190.906Y-117.45
X190.906Y-125.07
X190.906Y-135.23
X190.906Y-142.85
X192.176Y-84.43
X192.176Y-92.05
X193.446Y-117.45
X193.446Y-125.07
X193.446Y-135.23
X193.446Y-142.85
X194.716Y-84.43
X194.716Y-92.05
X194.716Y-102.21
X194.716Y-109.83
X195.986Y-117.45
X195.986Y-125.07
X195.986Y-135.23
X195.986Y-142.85
X197.256Y-84.43
X197.256Y-92.05
X197.256Y-102.21
X197.256Y-109.83
X198.526Y-117.45
X198.526Y-125.07
X198.526Y-135.23
X198.526Y-142.85
X199.796Y-84.43
X199.796Y-92.05
X199.796Y-102.21
X199.796Y-109.83
X201.066Y-117.45
X201.066Y-125.07
X201.066Y-135.23
X201.066Y-142.85
X202.336Y-102.21
X202.336Y-109.83
X203.606Y-84.43
X203.606Y-86.93
X203.606Y-117.45
X203.606Y-125.07
X203.606Y-135.23
X203.606Y-142.85
X204.876Y-102.21
X204.876Y-109.83
X206.146Y-117.45
X206.146Y-125.07
X206.146Y-135.23
X206.146Y-142.85
X207.416Y-84.43
X207.416Y-92.05
X207.416Y-102.21
X207.416Y-109.83
X208.686Y-135.23
X208.686Y-142.85
X209.956Y-84.43
X209.956Y-92.05
X209.956Y-102.21
X209.956Y-109.83
X212.496Y-84.43
X212.496Y-92.05
X212.496Y-117.45
X212.496Y-119.95
X212.496Y-135.23
X212.496Y-137.73
X215.036Y-84.43
X215.036Y-92.05
X216.306Y-117.45
X216.306Y-125.07
X216.316Y-135.23
X216.316Y-142.85
X217.576Y-84.43
X217.576Y-92.05
X218.846Y-117.45
X218.846Y-125.07
X218.856Y-135.23
X218.856Y-142.85
X220.116Y-84.43
X220.116Y-92.05
X220.116Y-102.21
X220.116Y-109.83
X221.386Y-97.13
X221.386Y-117.45
X221.386Y-125.07
X221.396Y-135.23
X221.396Y-142.85
X222.656Y-84.43
X222.656Y-92.05
X223.886Y-97.13
X223.926Y-117.45
X223.926Y-125.07
X223.936Y-135.23
X223.936Y-142.85
X225.196Y-84.43
X225.196Y-92.05
X226.466Y-117.45
X226.466Y-125.07
X226.476Y-135.23
X226.476Y-142.85
X227.736Y-84.43
X227.736Y-92.05
X227.736Y-102.21
X227.736Y-109.83
X229.006Y-117.45
X229.006Y-125.07
X229.016Y-135.23
X229.016Y-142.85
X230.276Y-84.43
X230.276Y-92.05
X231.546Y-117.45
X231.546Y-125.07
X231.556Y-135.23
X231.556Y-142.85
X234.086Y-117.45
X234.086Y-125.07
X234.096Y-135.23
X234.096Y-142.85
T4
X142.646Y-74.27
X142.646Y-76.81
X145.186Y-74.27
X145.186Y-76.81
X147.726Y-74.27
X147.726Y-76.81
X150.266Y-74.27
X150.266Y-76.81
X152.806Y-74.27
X152.806Y-76.81
X155.346Y-74.27
X155.346Y-76.81
X157.886Y-74.27
X157.886Y-76.81
X160.426Y-74.27
X160.426Y-76.81
X162.966Y-74.27
X162.966Y-76.81
X165.506Y-74.27
X165.506Y-76.81
X168.046Y-74.27
X168.046Y-76.81
X170.586Y-74.27
X170.586Y-76.81
X173.126Y-74.27
X173.126Y-76.81
X175.666Y-74.27
X175.666Y-76.81
X178.206Y-74.27
X178.206Y-76.81
X180.746Y-74.27
X180.746Y-76.81
X183.286Y-74.27
X183.286Y-76.81
X185.826Y-74.27
X185.826Y-76.81
X188.366Y-74.27
X188.366Y-76.81
X190.906Y-74.27
X190.906Y-76.81
T5
X113.055Y-97.13
X129.946Y-97.13
X146.456Y-97.13
X150.266Y-130.15
X165.506Y-97.13
X179.476Y-130.15
X184.556Y-97.13
X195.986Y-130.15
X201.066Y-97.13
X213.766Y-97.13
T6
X112.065Y-71.907
X131.496Y-130.607
X211.658Y-130.607
X233.909Y-71.907
T0
M30
