M48
; DRILL file {KiCad (5.1.9-0-10_14)} date Wednesday, May 12, 2021 at 02:13:31 AM
; FORMAT={-:-/ absolute / metric / decimal}
; #@! TF.CreationDate,2021-05-12T02:13:31+02:00
; #@! TF.GenerationSoftware,Kicad,Pcbnew,(5.1.9-0-10_14)
; #@! TF.FileFunction,Plated,1,4,PTH
FMAT,2
METRIC
T1C0.400
T2C0.600
T3C0.750
T4C0.800
T5C1.000
T6C1.100
T7C2.700
%
G90
G05
T1
X85.592Y-88.386
X87.884Y-88.646
X89.154Y-116.154
X92.945Y-122.665
X109.474Y-104.902
X111.122Y-92.675
X117.368Y-101.378
X118.95Y-118.032
X120.396Y-101.854
X120.837Y-103.323
X121.097Y-114.107
X122.682Y-101.054
X123.374Y-104.895
X123.446Y-103.894
X123.929Y-102.965
X142.061Y-103.956
X142.258Y-109.338
X142.494Y-105.41
X146.186Y-111.866
X148.872Y-114.024
X149.497Y-105.496
X152.738Y-105.646
X153.135Y-110.007
X155.631Y-105.629
X157.71Y-95.89
X158.496Y-114.046
X160.071Y-95.342
X162.306Y-99.822
X162.306Y-118.186
X163.429Y-114.942
X164.084Y-98.044
X164.2Y-100.843
X164.563Y-99.609
X166.478Y-107.37
X167.625Y-100.649
X167.654Y-102.103
X168.629Y-99.21
X169.567Y-93.125
X169.737Y-106.391
X169.855Y-86.047
X170.286Y-104.143
X170.294Y-90.678
X170.811Y-106.845
X171.217Y-89.979
X171.261Y-104.365
X171.634Y-88.93
X171.958Y-118.186
X173.736Y-104.14
X173.918Y-107.438
X174.244Y-111.074
X174.714Y-106.137
X174.731Y-104.416
X175.98Y-106.974
X176.784Y-113.284
X178.562Y-117.856
X178.777Y-107.564
X179.324Y-106.137
X180.594Y-106.137
X181.565Y-113.239
X183.896Y-106.934
T2
X62.738Y-94.742
X64.738Y-94.742
T3
X62.738Y-89.916
X64.008Y-89.916
X65.278Y-89.916
T4
X69.596Y-83.82
X70.104Y-106.68
X70.104Y-109.18
X70.358Y-86.868
X70.358Y-102.108
X72.898Y-86.868
X72.898Y-102.108
X74.422Y-106.68
X74.422Y-114.3
X75.438Y-86.868
X75.438Y-102.108
X77.216Y-83.82
X77.978Y-86.868
X77.978Y-102.108
X80.01Y-83.82
X80.518Y-86.868
X80.518Y-102.108
X83.058Y-86.868
X83.058Y-102.108
X85.598Y-86.868
X85.598Y-102.108
X87.63Y-83.82
X88.138Y-86.868
X88.138Y-102.108
X89.662Y-106.68
X89.662Y-114.3
X90.17Y-83.82
X90.678Y-86.868
X90.678Y-102.108
X93.218Y-86.868
X93.218Y-102.108
X93.98Y-104.394
X93.98Y-108.712
X93.98Y-111.212
X95.758Y-86.868
X95.758Y-102.108
X96.48Y-104.394
X96.774Y-108.712
X96.774Y-116.332
X97.79Y-83.82
X98.298Y-86.868
X98.298Y-102.108
X99.314Y-108.712
X99.314Y-116.332
X100.584Y-83.82
X100.838Y-86.868
X100.838Y-102.108
X101.854Y-108.712
X101.854Y-116.332
X103.378Y-86.868
X103.378Y-102.108
X104.394Y-108.712
X104.394Y-116.332
X105.918Y-86.868
X105.918Y-102.108
X106.934Y-108.712
X106.934Y-116.332
X108.204Y-83.82
X108.458Y-86.868
X108.458Y-102.108
X109.474Y-108.712
X109.474Y-116.332
X110.744Y-83.82
X110.998Y-86.868
X110.998Y-102.108
X112.014Y-108.712
X112.014Y-116.332
X112.776Y-104.902
X113.538Y-86.868
X113.538Y-102.108
X114.554Y-108.712
X114.554Y-116.332
X116.078Y-86.868
X116.078Y-102.108
X117.348Y-108.752
X117.348Y-111.252
X118.364Y-83.82
X118.618Y-86.868
X118.618Y-102.108
X120.142Y-108.712
X120.142Y-116.332
X120.396Y-104.902
X120.65Y-83.566
X120.65Y-86.066
X122.682Y-108.712
X122.682Y-116.332
X125.222Y-108.712
X125.222Y-116.332
X127.762Y-108.712
X127.762Y-116.332
X130.302Y-108.712
X130.302Y-116.332
X132.842Y-108.712
X132.842Y-116.332
X135.382Y-108.712
X135.382Y-116.332
X138.176Y-108.712
X138.176Y-111.212
X140.97Y-108.712
X140.97Y-116.332
X143.51Y-108.712
X143.51Y-116.332
X146.05Y-108.712
X146.05Y-116.332
X148.59Y-108.712
X148.59Y-116.332
X151.13Y-108.712
X151.13Y-116.332
X153.67Y-108.712
X153.67Y-116.332
X156.21Y-108.712
X156.21Y-116.332
X158.75Y-108.712
X158.75Y-116.332
X161.544Y-108.712
X161.544Y-111.212
X164.338Y-108.712
X164.338Y-116.332
X166.878Y-108.712
X166.878Y-116.332
X169.418Y-108.712
X169.418Y-116.332
X171.958Y-108.712
X171.958Y-116.332
X174.498Y-108.712
X174.498Y-116.332
X175.006Y-84.328
X175.006Y-86.868
X175.006Y-102.108
X177.038Y-108.712
X177.038Y-116.332
X177.506Y-84.328
X177.546Y-86.868
X177.546Y-102.108
X179.578Y-108.712
X179.578Y-116.332
X180.086Y-86.868
X180.086Y-102.108
X182.372Y-108.712
X182.372Y-111.212
X182.626Y-86.868
X182.626Y-102.108
X185.166Y-86.868
X185.166Y-102.108
X185.166Y-108.712
X185.166Y-116.332
X187.706Y-86.868
X187.706Y-102.108
X187.706Y-108.712
X187.706Y-116.332
X190.246Y-86.868
X190.246Y-102.108
X190.246Y-108.712
X190.246Y-116.332
X192.786Y-86.868
X192.786Y-102.108
X192.786Y-108.712
X192.786Y-116.332
X195.326Y-86.868
X195.326Y-102.108
X195.326Y-108.712
X195.326Y-116.332
X197.866Y-86.868
X197.866Y-102.108
X197.866Y-108.712
X197.866Y-116.332
X200.406Y-86.868
X200.406Y-102.108
X200.406Y-108.712
X200.406Y-116.332
X202.946Y-86.868
X202.946Y-102.108
X203.2Y-105.41
X203.2Y-108.458
X203.2Y-111.506
X203.2Y-114.554
X205.486Y-86.868
X205.486Y-102.108
X208.026Y-86.868
X208.026Y-102.108
X210.82Y-105.41
X210.82Y-108.458
X210.82Y-111.506
X210.82Y-114.554
T5
X61.722Y-99.314
X61.722Y-106.426
X64.262Y-99.314
X64.262Y-106.426
X66.802Y-106.426
X74.168Y-120.904
X76.708Y-120.904
X79.248Y-120.904
X81.788Y-120.904
X84.328Y-120.904
X86.868Y-120.904
X89.408Y-120.904
X91.948Y-120.904
X94.488Y-120.904
X97.028Y-120.904
X99.568Y-120.904
X102.108Y-120.904
X104.648Y-120.904
X107.188Y-120.904
X109.728Y-120.904
X112.268Y-120.904
X114.808Y-120.904
X117.348Y-120.904
X119.888Y-120.904
X122.428Y-120.904
X124.968Y-120.904
X127.508Y-120.904
X130.048Y-120.904
X132.588Y-120.904
X132.842Y-86.868
X132.842Y-102.108
X135.128Y-120.904
X135.382Y-86.868
X135.382Y-102.108
X137.668Y-120.904
X137.922Y-86.868
X137.922Y-102.108
X140.208Y-120.904
X140.462Y-86.868
X140.462Y-102.108
X142.748Y-120.904
X143.002Y-86.868
X143.002Y-102.108
X145.288Y-120.904
X145.542Y-86.868
X145.542Y-102.108
X147.828Y-120.904
X148.082Y-86.868
X148.082Y-102.108
X150.368Y-120.904
X150.622Y-86.868
X150.622Y-102.108
X152.908Y-120.904
X153.162Y-86.868
X153.162Y-102.108
X155.448Y-120.904
X155.702Y-86.868
X155.702Y-102.108
X157.988Y-120.904
X158.242Y-86.868
X158.242Y-102.108
X160.528Y-120.904
X160.782Y-86.868
X160.782Y-102.108
X163.068Y-120.904
X163.322Y-86.868
X163.322Y-102.108
X165.608Y-120.904
X165.862Y-86.868
X165.862Y-102.108
X168.148Y-120.904
X170.688Y-120.904
X173.228Y-120.904
X175.768Y-120.904
X178.308Y-120.904
X180.848Y-120.904
X183.388Y-120.904
X185.928Y-120.904
X188.468Y-120.904
X191.008Y-120.904
X193.548Y-120.904
X196.088Y-120.904
X198.628Y-120.904
T6
X62.738Y-113.134
X62.738Y-119.634
X67.238Y-113.134
X67.238Y-119.634
T7
X60.96Y-84.582
X60.96Y-124.46
X211.836Y-84.582
X211.836Y-124.46
T0
M30
