G04 #@! TF.GenerationSoftware,KiCad,Pcbnew,(5.1.9-0-10_14)*
G04 #@! TF.CreationDate,2021-05-12T02:12:47+02:00*
G04 #@! TF.ProjectId,mainboard_v2,6d61696e-626f-4617-9264-5f76322e6b69,rev?*
G04 #@! TF.SameCoordinates,Original*
G04 #@! TF.FileFunction,Copper,L3,Inr*
G04 #@! TF.FilePolarity,Positive*
%FSLAX46Y46*%
G04 Gerber Fmt 4.6, Leading zero omitted, Abs format (unit mm)*
G04 Created by KiCad (PCBNEW (5.1.9-0-10_14)) date 2021-05-12 02:12:47*
%MOMM*%
%LPD*%
G01*
G04 APERTURE LIST*
G04 #@! TA.AperFunction,ComponentPad*
%ADD10O,1.440000X2.000000*%
G04 #@! TD*
G04 #@! TA.AperFunction,ComponentPad*
%ADD11R,1.440000X2.000000*%
G04 #@! TD*
G04 #@! TA.AperFunction,ComponentPad*
%ADD12C,1.600000*%
G04 #@! TD*
G04 #@! TA.AperFunction,ComponentPad*
%ADD13R,1.600000X1.600000*%
G04 #@! TD*
G04 #@! TA.AperFunction,ComponentPad*
%ADD14O,1.600000X1.600000*%
G04 #@! TD*
G04 #@! TA.AperFunction,ComponentPad*
%ADD15O,1.700000X1.700000*%
G04 #@! TD*
G04 #@! TA.AperFunction,ComponentPad*
%ADD16R,1.700000X1.700000*%
G04 #@! TD*
G04 #@! TA.AperFunction,ComponentPad*
%ADD17C,2.000000*%
G04 #@! TD*
G04 #@! TA.AperFunction,ComponentPad*
%ADD18C,4.700000*%
G04 #@! TD*
G04 #@! TA.AperFunction,ComponentPad*
%ADD19R,1.050000X1.500000*%
G04 #@! TD*
G04 #@! TA.AperFunction,ComponentPad*
%ADD20O,1.050000X1.500000*%
G04 #@! TD*
G04 #@! TA.AperFunction,ComponentPad*
%ADD21C,1.200000*%
G04 #@! TD*
G04 #@! TA.AperFunction,ComponentPad*
%ADD22R,1.200000X1.200000*%
G04 #@! TD*
G04 #@! TA.AperFunction,ViaPad*
%ADD23C,0.800000*%
G04 #@! TD*
G04 #@! TA.AperFunction,Conductor*
%ADD24C,0.254000*%
G04 #@! TD*
G04 #@! TA.AperFunction,Conductor*
%ADD25C,0.250000*%
G04 #@! TD*
G04 APERTURE END LIST*
D10*
X165862000Y-86868000D03*
X165862000Y-102108000D03*
X163322000Y-86868000D03*
X163322000Y-102108000D03*
X160782000Y-86868000D03*
X160782000Y-102108000D03*
X158242000Y-86868000D03*
X158242000Y-102108000D03*
X155702000Y-86868000D03*
X155702000Y-102108000D03*
X153162000Y-86868000D03*
X153162000Y-102108000D03*
X150622000Y-86868000D03*
X150622000Y-102108000D03*
X148082000Y-86868000D03*
X148082000Y-102108000D03*
X145542000Y-86868000D03*
X145542000Y-102108000D03*
X143002000Y-86868000D03*
X143002000Y-102108000D03*
X140462000Y-86868000D03*
X140462000Y-102108000D03*
X137922000Y-86868000D03*
X137922000Y-102108000D03*
X135382000Y-86868000D03*
X135382000Y-102108000D03*
X132842000Y-86868000D03*
D11*
X132842000Y-102108000D03*
D12*
X89662000Y-114300000D03*
X89662000Y-106680000D03*
X74422000Y-106680000D03*
D13*
X74422000Y-114300000D03*
D14*
X70358000Y-86868000D03*
X118618000Y-102108000D03*
X72898000Y-86868000D03*
X116078000Y-102108000D03*
X75438000Y-86868000D03*
X113538000Y-102108000D03*
X77978000Y-86868000D03*
X110998000Y-102108000D03*
X80518000Y-86868000D03*
X108458000Y-102108000D03*
X83058000Y-86868000D03*
X105918000Y-102108000D03*
X85598000Y-86868000D03*
X103378000Y-102108000D03*
X88138000Y-86868000D03*
X100838000Y-102108000D03*
X90678000Y-86868000D03*
X98298000Y-102108000D03*
X93218000Y-86868000D03*
X95758000Y-102108000D03*
X95758000Y-86868000D03*
X93218000Y-102108000D03*
X98298000Y-86868000D03*
X90678000Y-102108000D03*
X100838000Y-86868000D03*
X88138000Y-102108000D03*
X103378000Y-86868000D03*
X85598000Y-102108000D03*
X105918000Y-86868000D03*
X83058000Y-102108000D03*
X108458000Y-86868000D03*
X80518000Y-102108000D03*
X110998000Y-86868000D03*
X77978000Y-102108000D03*
X113538000Y-86868000D03*
X75438000Y-102108000D03*
X116078000Y-86868000D03*
X72898000Y-102108000D03*
X118618000Y-86868000D03*
D13*
X70358000Y-102108000D03*
D15*
X64262000Y-99314000D03*
D16*
X61722000Y-99314000D03*
D17*
X62738000Y-113134000D03*
X67238000Y-113134000D03*
X62738000Y-119634000D03*
X67238000Y-119634000D03*
D14*
X77216000Y-83820000D03*
D12*
X69596000Y-83820000D03*
D14*
X164338000Y-108712000D03*
X179578000Y-116332000D03*
X166878000Y-108712000D03*
X177038000Y-116332000D03*
X169418000Y-108712000D03*
X174498000Y-116332000D03*
X171958000Y-108712000D03*
X171958000Y-116332000D03*
X174498000Y-108712000D03*
X169418000Y-116332000D03*
X177038000Y-108712000D03*
X166878000Y-116332000D03*
X179578000Y-108712000D03*
D13*
X164338000Y-116332000D03*
D14*
X120142000Y-108712000D03*
X135382000Y-116332000D03*
X122682000Y-108712000D03*
X132842000Y-116332000D03*
X125222000Y-108712000D03*
X130302000Y-116332000D03*
X127762000Y-108712000D03*
X127762000Y-116332000D03*
X130302000Y-108712000D03*
X125222000Y-116332000D03*
X132842000Y-108712000D03*
X122682000Y-116332000D03*
X135382000Y-108712000D03*
D13*
X120142000Y-116332000D03*
D18*
X60960000Y-124460000D03*
X211836000Y-124460000D03*
X60960000Y-84582000D03*
X211836000Y-84582000D03*
D14*
X185166000Y-108712000D03*
X200406000Y-116332000D03*
X187706000Y-108712000D03*
X197866000Y-116332000D03*
X190246000Y-108712000D03*
X195326000Y-116332000D03*
X192786000Y-108712000D03*
X192786000Y-116332000D03*
X195326000Y-108712000D03*
X190246000Y-116332000D03*
X197866000Y-108712000D03*
X187706000Y-116332000D03*
X200406000Y-108712000D03*
D13*
X185166000Y-116332000D03*
D15*
X196088000Y-120904000D03*
X198628000Y-120904000D03*
X193548000Y-120904000D03*
X191008000Y-120904000D03*
X188468000Y-120904000D03*
X185928000Y-120904000D03*
X183388000Y-120904000D03*
X180848000Y-120904000D03*
X178308000Y-120904000D03*
X175768000Y-120904000D03*
D16*
X74168000Y-120904000D03*
D15*
X76708000Y-120904000D03*
X79248000Y-120904000D03*
X81788000Y-120904000D03*
X84328000Y-120904000D03*
X86868000Y-120904000D03*
X89408000Y-120904000D03*
X91948000Y-120904000D03*
X94488000Y-120904000D03*
X97028000Y-120904000D03*
X99568000Y-120904000D03*
X102108000Y-120904000D03*
X104648000Y-120904000D03*
X107188000Y-120904000D03*
X109728000Y-120904000D03*
X112268000Y-120904000D03*
X114808000Y-120904000D03*
X117348000Y-120904000D03*
X119888000Y-120904000D03*
X122428000Y-120904000D03*
X124968000Y-120904000D03*
X127508000Y-120904000D03*
X130048000Y-120904000D03*
X132588000Y-120904000D03*
X135128000Y-120904000D03*
X137668000Y-120904000D03*
X140208000Y-120904000D03*
X142748000Y-120904000D03*
X145288000Y-120904000D03*
X147828000Y-120904000D03*
X150368000Y-120904000D03*
X152908000Y-120904000D03*
X155448000Y-120904000D03*
X157988000Y-120904000D03*
X160528000Y-120904000D03*
X163068000Y-120904000D03*
X165608000Y-120904000D03*
X168148000Y-120904000D03*
X170688000Y-120904000D03*
X173228000Y-120904000D03*
D14*
X140970000Y-108712000D03*
X158750000Y-116332000D03*
X143510000Y-108712000D03*
X156210000Y-116332000D03*
X146050000Y-108712000D03*
X153670000Y-116332000D03*
X148590000Y-108712000D03*
X151130000Y-116332000D03*
X151130000Y-108712000D03*
X148590000Y-116332000D03*
X153670000Y-108712000D03*
X146050000Y-116332000D03*
X156210000Y-108712000D03*
X143510000Y-116332000D03*
X158750000Y-108712000D03*
D13*
X140970000Y-116332000D03*
D14*
X96774000Y-108712000D03*
X114554000Y-116332000D03*
X99314000Y-108712000D03*
X112014000Y-116332000D03*
X101854000Y-108712000D03*
X109474000Y-116332000D03*
X104394000Y-108712000D03*
X106934000Y-116332000D03*
X106934000Y-108712000D03*
X104394000Y-116332000D03*
X109474000Y-108712000D03*
X101854000Y-116332000D03*
X112014000Y-108712000D03*
X99314000Y-116332000D03*
X114554000Y-108712000D03*
D13*
X96774000Y-116332000D03*
D14*
X175006000Y-86868000D03*
X208026000Y-102108000D03*
X177546000Y-86868000D03*
X205486000Y-102108000D03*
X180086000Y-86868000D03*
X202946000Y-102108000D03*
X182626000Y-86868000D03*
X200406000Y-102108000D03*
X185166000Y-86868000D03*
X197866000Y-102108000D03*
X187706000Y-86868000D03*
X195326000Y-102108000D03*
X190246000Y-86868000D03*
X192786000Y-102108000D03*
X192786000Y-86868000D03*
X190246000Y-102108000D03*
X195326000Y-86868000D03*
X187706000Y-102108000D03*
X197866000Y-86868000D03*
X185166000Y-102108000D03*
X200406000Y-86868000D03*
X182626000Y-102108000D03*
X202946000Y-86868000D03*
X180086000Y-102108000D03*
X205486000Y-86868000D03*
X177546000Y-102108000D03*
X208026000Y-86868000D03*
D13*
X175006000Y-102108000D03*
D19*
X62738000Y-89916000D03*
D20*
X65278000Y-89916000D03*
X64008000Y-89916000D03*
D14*
X210820000Y-114554000D03*
D12*
X203200000Y-114554000D03*
D14*
X210820000Y-111506000D03*
D12*
X203200000Y-111506000D03*
D14*
X210820000Y-108458000D03*
D12*
X203200000Y-108458000D03*
D14*
X210820000Y-105410000D03*
D12*
X203200000Y-105410000D03*
D14*
X120396000Y-104902000D03*
D12*
X112776000Y-104902000D03*
D14*
X118364000Y-83820000D03*
D12*
X110744000Y-83820000D03*
D14*
X108204000Y-83820000D03*
D12*
X100584000Y-83820000D03*
D14*
X97790000Y-83820000D03*
D12*
X90170000Y-83820000D03*
D14*
X87630000Y-83820000D03*
D12*
X80010000Y-83820000D03*
D15*
X66802000Y-106426000D03*
X64262000Y-106426000D03*
D16*
X61722000Y-106426000D03*
D12*
X182372000Y-111212000D03*
X182372000Y-108712000D03*
X96480000Y-104394000D03*
X93980000Y-104394000D03*
X120650000Y-83566000D03*
X120650000Y-86066000D03*
X177506000Y-84328000D03*
X175006000Y-84328000D03*
X70104000Y-109180000D03*
X70104000Y-106680000D03*
X93980000Y-111212000D03*
X93980000Y-108712000D03*
X117348000Y-111252000D03*
X117348000Y-108752000D03*
X138176000Y-111212000D03*
X138176000Y-108712000D03*
X161544000Y-111212000D03*
X161544000Y-108712000D03*
D21*
X64738000Y-94742000D03*
D22*
X62738000Y-94742000D03*
D23*
X178777254Y-107563593D03*
X179324000Y-106137010D03*
X173918325Y-107437633D03*
X174713929Y-106137010D03*
X92945429Y-122665395D03*
X169854914Y-86047063D03*
X171634012Y-88929644D03*
X171216983Y-89979036D03*
X170293845Y-90678008D03*
X169566835Y-93124983D03*
X164084000Y-98044000D03*
X162306000Y-99822000D03*
X164200333Y-100842639D03*
X109474000Y-104902000D03*
X111122376Y-92675000D03*
X170286349Y-104143032D03*
X118950048Y-118031952D03*
X121096913Y-114107086D03*
X122682000Y-101053998D03*
X142061251Y-103956000D03*
X142494000Y-105410000D03*
X171261328Y-104365381D03*
X142257800Y-109338100D03*
X173736000Y-104140000D03*
X160070839Y-95342009D03*
X168628745Y-99209690D03*
X167653895Y-102103092D03*
X167625421Y-100649091D03*
X158496000Y-114046000D03*
X148872268Y-114023977D03*
X123374012Y-104894802D03*
X120837296Y-103323444D03*
X155631024Y-105629010D03*
X178562000Y-117856000D03*
X171958000Y-118186023D03*
X146186115Y-111865736D03*
X183896000Y-106934000D03*
X174730896Y-104416022D03*
X157709928Y-95889855D03*
X164562803Y-99609346D03*
X176784000Y-113284000D03*
X181564913Y-113238913D03*
X180594000Y-106137010D03*
X120396000Y-101854000D03*
X163428802Y-114942009D03*
X162306000Y-118186011D03*
X152737871Y-105646364D03*
X123445980Y-103893589D03*
X89154000Y-116154011D03*
X174244000Y-111074001D03*
X87884000Y-88646000D03*
X85591933Y-88385933D03*
X153134702Y-110007413D03*
X166478001Y-107370347D03*
X149496798Y-105495956D03*
X123928940Y-102965105D03*
X117367987Y-101378135D03*
X170811228Y-106845021D03*
X169736817Y-106391010D03*
X175979869Y-106973915D03*
D24*
X64262000Y-106426000D02*
X65439001Y-107603001D01*
X67366961Y-107603001D02*
X69559962Y-105410000D01*
X65439001Y-107603001D02*
X67366961Y-107603001D01*
X88138000Y-106680000D02*
X86868000Y-105410000D01*
X89662000Y-106680000D02*
X88138000Y-106680000D01*
X69559962Y-105410000D02*
X86868000Y-105410000D01*
X91932009Y-115474511D02*
X88230999Y-119175521D01*
X89427433Y-122665395D02*
X92945429Y-122665395D01*
X88230999Y-121468961D02*
X89427433Y-122665395D01*
X84185001Y-100980999D02*
X91218961Y-100980999D01*
X91218961Y-100980999D02*
X91932009Y-101694047D01*
X88230999Y-119175521D02*
X88230999Y-121468961D01*
X91932009Y-101694047D02*
X91932009Y-115474511D01*
X83058000Y-102108000D02*
X84185001Y-100980999D01*
X197265001Y-121468961D02*
X197265001Y-117398963D01*
X196198965Y-122534997D02*
X197265001Y-121468961D01*
X160528000Y-120904000D02*
X162159022Y-122535021D01*
X196738999Y-116872961D02*
X196738999Y-110124999D01*
X197265001Y-117398963D02*
X196738999Y-116872961D01*
X196738999Y-110124999D02*
X195326000Y-108712000D01*
X162159022Y-122535021D02*
X196198965Y-122534997D01*
X195376971Y-89357029D02*
X173164880Y-89357029D01*
X155702000Y-86868000D02*
X157734000Y-84836000D01*
X197866000Y-86868000D02*
X195376971Y-89357029D01*
X157734000Y-84836000D02*
X168643851Y-84836000D01*
X173164880Y-89357029D02*
X169854914Y-86047063D01*
X168643851Y-84836000D02*
X169854914Y-86047063D01*
X197462960Y-89811040D02*
X200406000Y-86868000D01*
X173840960Y-89811040D02*
X197462960Y-89811040D01*
X173712806Y-89811040D02*
X173840960Y-89811040D01*
X173840960Y-89811040D02*
X172515408Y-89811040D01*
X172515408Y-89811040D02*
X171634012Y-88929644D01*
X168245358Y-85540990D02*
X171634012Y-88929644D01*
X159569010Y-85540990D02*
X168245358Y-85540990D01*
X158242000Y-86868000D02*
X159569010Y-85540990D01*
X199548948Y-90265052D02*
X171502999Y-90265052D01*
X171502999Y-90265052D02*
X171216983Y-89979036D01*
X202946000Y-86868000D02*
X199548948Y-90265052D01*
X170907003Y-89669056D02*
X171216983Y-89979036D01*
X163583056Y-89669056D02*
X170907003Y-89669056D01*
X160782000Y-86868000D02*
X163583056Y-89669056D01*
X170334900Y-90719063D02*
X170293845Y-90678008D01*
X205486000Y-86868000D02*
X201634937Y-90719063D01*
X201634937Y-90719063D02*
X170334900Y-90719063D01*
X170586979Y-93124983D02*
X169566835Y-93124983D01*
X172538888Y-91173074D02*
X170586979Y-93124983D01*
X208026000Y-86868000D02*
X203720926Y-91173074D01*
X203720926Y-91173074D02*
X172538888Y-91173074D01*
X205486000Y-102108000D02*
X199932998Y-96554998D01*
X199932998Y-96554998D02*
X164497038Y-96554998D01*
X164497038Y-96554998D02*
X163322000Y-97730036D01*
X163322000Y-97730036D02*
X163322000Y-102108000D01*
X164519019Y-97608981D02*
X164084000Y-98044000D01*
X198446980Y-97608981D02*
X164519019Y-97608981D01*
X202946000Y-102108000D02*
X198446980Y-97608981D01*
X160782000Y-101346000D02*
X160782000Y-102108000D01*
X162306000Y-99822000D02*
X160782000Y-101346000D01*
X164766018Y-100842639D02*
X164200333Y-100842639D01*
X167545666Y-98062991D02*
X164766018Y-100842639D01*
X200406000Y-102108000D02*
X196360992Y-98062991D01*
X196360992Y-98062991D02*
X167545666Y-98062991D01*
X109585001Y-104790999D02*
X109474000Y-104902000D01*
D25*
X109583001Y-94214375D02*
X111122376Y-92675000D01*
X109583001Y-104792999D02*
X109583001Y-94214375D01*
X109474000Y-104902000D02*
X109583001Y-104792999D01*
D24*
X104790999Y-108315001D02*
X104790999Y-93075001D01*
X104790999Y-93075001D02*
X110998000Y-86868000D01*
X104394000Y-108712000D02*
X104790999Y-108315001D01*
X107330999Y-102473001D02*
X107330999Y-93075001D01*
X107330999Y-93075001D02*
X113538000Y-86868000D01*
X106934000Y-102870000D02*
X107330999Y-102473001D01*
X106934000Y-108712000D02*
X106934000Y-102870000D01*
X178758990Y-85540990D02*
X173678990Y-85540990D01*
X180086000Y-86868000D02*
X178758990Y-85540990D01*
X173678990Y-85540990D02*
X170942000Y-82804000D01*
X141986000Y-82804000D02*
X137922000Y-86868000D01*
X170942000Y-82804000D02*
X141986000Y-82804000D01*
X117348000Y-119634000D02*
X118950048Y-118031952D01*
X117348000Y-120904000D02*
X117348000Y-119634000D01*
X126492000Y-108314038D02*
X131371037Y-103435001D01*
X126492000Y-109109962D02*
X126492000Y-108314038D01*
X121494876Y-114107086D02*
X126492000Y-109109962D01*
X134054999Y-103435001D02*
X135382000Y-102108000D01*
X131371037Y-103435001D02*
X134054999Y-103435001D01*
X121096913Y-114107086D02*
X121494876Y-114107086D01*
X151965169Y-103956000D02*
X142061251Y-103956000D01*
X152352200Y-104343031D02*
X151965169Y-103956000D01*
X170799001Y-100980999D02*
X167436968Y-104343032D01*
X176418999Y-100980999D02*
X170799001Y-100980999D01*
X167436968Y-104343032D02*
X152352200Y-104343031D01*
X177546000Y-102108000D02*
X176418999Y-100980999D01*
X118618000Y-117094000D02*
X114808000Y-120904000D01*
X118618000Y-102108000D02*
X118618000Y-117094000D01*
X142748000Y-89662000D02*
X145542000Y-86868000D01*
X128524000Y-89662000D02*
X142748000Y-89662000D01*
X118618000Y-99568000D02*
X128524000Y-89662000D01*
X118618000Y-102108000D02*
X118618000Y-99568000D01*
X116078000Y-117094000D02*
X112268000Y-120904000D01*
X116078000Y-102108000D02*
X116078000Y-117094000D01*
X144494990Y-87135705D02*
X144494990Y-86154315D01*
X144494990Y-86154315D02*
X145108315Y-85540990D01*
X142527665Y-89103030D02*
X144494990Y-87135705D01*
X127951600Y-89103030D02*
X142527665Y-89103030D01*
X145108315Y-85540990D02*
X149294990Y-85540990D01*
X116078000Y-100976630D02*
X127951600Y-89103030D01*
X149294990Y-85540990D02*
X150622000Y-86868000D01*
X116078000Y-102108000D02*
X116078000Y-100976630D01*
X173739018Y-88903018D02*
X190750982Y-88903018D01*
X190750982Y-88903018D02*
X192786000Y-86868000D01*
X169164000Y-84328000D02*
X173739018Y-88903018D01*
X153162000Y-84328000D02*
X169164000Y-84328000D01*
X150622000Y-86868000D02*
X153162000Y-84328000D01*
X113141001Y-117490999D02*
X109728000Y-120904000D01*
X113141001Y-108457037D02*
X113141001Y-117490999D01*
X114337999Y-102907999D02*
X114337999Y-107260039D01*
X114337999Y-107260039D02*
X113141001Y-108457037D01*
X113538000Y-102108000D02*
X114337999Y-102907999D01*
X126996980Y-88649020D02*
X141220980Y-88649020D01*
X141220980Y-88649020D02*
X143002000Y-86868000D01*
X113538000Y-102108000D02*
X126996980Y-88649020D01*
X183584993Y-88449007D02*
X174166939Y-88449007D01*
X174166939Y-88449007D02*
X169537932Y-83820000D01*
X146050000Y-83820000D02*
X143002000Y-86868000D01*
X169537932Y-83820000D02*
X146050000Y-83820000D01*
X185166000Y-86868000D02*
X183584993Y-88449007D01*
X110886999Y-117205001D02*
X107188000Y-120904000D01*
X110886999Y-102219001D02*
X110886999Y-117205001D01*
X110998000Y-102108000D02*
X110886999Y-102219001D01*
X139134990Y-88195010D02*
X140462000Y-86868000D01*
X124910990Y-88195010D02*
X139134990Y-88195010D01*
X110998000Y-102108000D02*
X124910990Y-88195010D01*
X174355001Y-87995001D02*
X181498999Y-87995001D01*
X169672000Y-83312000D02*
X174355001Y-87995001D01*
X144018000Y-83312000D02*
X169672000Y-83312000D01*
X181498999Y-87995001D02*
X182626000Y-86868000D01*
X140462000Y-86868000D02*
X144018000Y-83312000D01*
X108061001Y-117490999D02*
X104648000Y-120904000D01*
X108061001Y-102504999D02*
X108061001Y-117490999D01*
X108458000Y-102108000D02*
X108061001Y-102504999D01*
X143684675Y-100584000D02*
X139446000Y-100584000D01*
X139446000Y-100584000D02*
X137922000Y-102108000D01*
X144494990Y-101394315D02*
X143684675Y-100584000D01*
X144494990Y-102821685D02*
X144494990Y-101394315D01*
X145108315Y-103435010D02*
X144494990Y-102821685D01*
X152540258Y-103889021D02*
X152086247Y-103435010D01*
X152086247Y-103435010D02*
X145108315Y-103435010D01*
X166951582Y-103889021D02*
X152540258Y-103889021D01*
X180086000Y-102108000D02*
X178504988Y-100526988D01*
X170313615Y-100526988D02*
X166951582Y-103889021D01*
X178504988Y-100526988D02*
X170313615Y-100526988D01*
X105806999Y-102219001D02*
X105806999Y-117205001D01*
X105806999Y-117205001D02*
X102108000Y-120904000D01*
X105918000Y-102108000D02*
X105806999Y-102219001D01*
X141724371Y-104683002D02*
X140462000Y-103420631D01*
X142145034Y-104683002D02*
X141724371Y-104683002D01*
X142145038Y-104682998D02*
X142145034Y-104683002D01*
X169187067Y-103235001D02*
X167520068Y-104902000D01*
X152269101Y-104902000D02*
X152050099Y-104682998D01*
X181498999Y-103235001D02*
X169187067Y-103235001D01*
X182626000Y-102108000D02*
X181498999Y-103235001D01*
X140462000Y-103420631D02*
X140462000Y-102108000D01*
X152050099Y-104682998D02*
X142145038Y-104682998D01*
X167520068Y-104902000D02*
X152269101Y-104902000D01*
X103266999Y-117205001D02*
X99568000Y-120904000D01*
X103266999Y-102219001D02*
X103266999Y-117205001D01*
X103378000Y-102108000D02*
X103266999Y-102219001D01*
X144637001Y-107553001D02*
X142494000Y-105410000D01*
X143510000Y-116332000D02*
X144637001Y-115204999D01*
X144637001Y-115204999D02*
X144637001Y-107553001D01*
X100726999Y-117205001D02*
X97028000Y-120904000D01*
X100726999Y-102219001D02*
X100726999Y-117205001D01*
X100838000Y-102108000D02*
X100726999Y-102219001D01*
X140970000Y-110625900D02*
X142257800Y-109338100D01*
X140970000Y-116332000D02*
X140970000Y-110625900D01*
X97901001Y-117490999D02*
X94488000Y-120904000D01*
X97901001Y-102504999D02*
X97901001Y-117490999D01*
X98298000Y-102108000D02*
X97901001Y-102504999D01*
X148082000Y-102108000D02*
X155247990Y-94942010D01*
X159670840Y-94942010D02*
X160070839Y-95342009D01*
X155247990Y-94942010D02*
X159670840Y-94942010D01*
X169321433Y-98517002D02*
X168628745Y-99209690D01*
X190246000Y-102108000D02*
X186655002Y-98517002D01*
X186655002Y-98517002D02*
X169321433Y-98517002D01*
X95352999Y-117499001D02*
X91948000Y-120904000D01*
X95352999Y-102513001D02*
X95352999Y-117499001D01*
X95758000Y-102108000D02*
X95352999Y-102513001D01*
X187619050Y-103689012D02*
X191204988Y-103689012D01*
X186293001Y-102362963D02*
X187619050Y-103689012D01*
X186293001Y-101567039D02*
X186293001Y-102362963D01*
X184335027Y-99609065D02*
X186293001Y-101567039D01*
X168180376Y-101376091D02*
X169947402Y-99609065D01*
X167304934Y-101376091D02*
X168180376Y-101376091D01*
X191204988Y-103689012D02*
X192786000Y-102108000D01*
X152728315Y-103435010D02*
X166295685Y-103435010D01*
X169947402Y-99609065D02*
X184335027Y-99609065D01*
X166909010Y-101772015D02*
X167304934Y-101376091D01*
X151401305Y-102108000D02*
X152728315Y-103435010D01*
X166909010Y-102821685D02*
X166909010Y-101772015D01*
X166295685Y-103435010D02*
X166909010Y-102821685D01*
X150622000Y-102108000D02*
X151401305Y-102108000D01*
X93218000Y-102108000D02*
X92418001Y-102907999D01*
X92418001Y-117893999D02*
X89408000Y-120904000D01*
X92418001Y-102907999D02*
X92418001Y-117893999D01*
X170135459Y-100063076D02*
X168095443Y-102103092D01*
X182867074Y-100063076D02*
X170135459Y-100063076D01*
X168095443Y-102103092D02*
X167653895Y-102103092D01*
X183753001Y-100949003D02*
X182867074Y-100063076D01*
X185533061Y-104143023D02*
X183753001Y-102362963D01*
X193290977Y-104143023D02*
X185533061Y-104143023D01*
X183753001Y-102362963D02*
X183753001Y-100949003D01*
X195326000Y-102108000D02*
X193290977Y-104143023D01*
X186381108Y-99115146D02*
X169799253Y-99115146D01*
X189118999Y-101853037D02*
X186381108Y-99115146D01*
X196738999Y-100980999D02*
X191959041Y-100980999D01*
X168265308Y-100649091D02*
X167625421Y-100649091D01*
X191373001Y-102648961D02*
X190786961Y-103235001D01*
X169799253Y-99115146D02*
X168265308Y-100649091D01*
X189705039Y-103235001D02*
X189118999Y-102648961D01*
X189118999Y-102648961D02*
X189118999Y-101853037D01*
X191959041Y-100980999D02*
X191373001Y-101567039D01*
X197866000Y-102108000D02*
X196738999Y-100980999D01*
X190786961Y-103235001D02*
X189705039Y-103235001D01*
X191373001Y-101567039D02*
X191373001Y-102648961D01*
X90678000Y-102108000D02*
X91477999Y-102907999D01*
X91477999Y-115091920D02*
X86868000Y-119701919D01*
X91477999Y-102907999D02*
X91477999Y-115091920D01*
X86868000Y-119701919D02*
X86868000Y-120904000D01*
X158496000Y-114046000D02*
X148894291Y-114046000D01*
X148894291Y-114046000D02*
X148872268Y-114023977D01*
X155850034Y-105410000D02*
X155631024Y-105629010D01*
X193691962Y-105410000D02*
X168656000Y-105410000D01*
X196453001Y-108171039D02*
X193691962Y-105410000D01*
X196453001Y-109196933D02*
X196453001Y-108171039D01*
X198993001Y-111736933D02*
X196453001Y-109196933D01*
X168641864Y-105410000D02*
X155850034Y-105410000D01*
X198993001Y-120538999D02*
X198993001Y-111736933D01*
X198628000Y-120904000D02*
X198993001Y-120538999D01*
X193040000Y-117856000D02*
X196088000Y-120904000D01*
X178562000Y-117856000D02*
X193040000Y-117856000D01*
X164003421Y-118186023D02*
X157683134Y-111865736D01*
X157683134Y-111865736D02*
X146186115Y-111865736D01*
X171958000Y-118186023D02*
X164003421Y-118186023D01*
X175878038Y-113284000D02*
X176784000Y-113284000D01*
X162634331Y-117459001D02*
X164088367Y-118913037D01*
X173370999Y-115791039D02*
X175878038Y-113284000D01*
X164088367Y-118913037D02*
X172814938Y-118913037D01*
X172814938Y-118913037D02*
X173370999Y-118356976D01*
X173370999Y-118356976D02*
X173370999Y-115791039D01*
X154797001Y-117459001D02*
X162634331Y-117459001D01*
X153670000Y-116332000D02*
X154797001Y-117459001D01*
X138139316Y-100129989D02*
X136874990Y-101394315D01*
X139900011Y-100129989D02*
X138139316Y-100129989D01*
X136874990Y-102821685D02*
X139700000Y-105646695D01*
X136874990Y-101394315D02*
X136874990Y-102821685D01*
X153162000Y-86868000D02*
X139900011Y-100129989D01*
X139700000Y-117602000D02*
X144494002Y-117602000D01*
X139700000Y-114300000D02*
X139700000Y-117602000D01*
X139700000Y-105646695D02*
X139700000Y-114300000D01*
X152400000Y-117602000D02*
X153670000Y-116332000D01*
X123952000Y-117602000D02*
X152400000Y-117602000D01*
X122682000Y-116332000D02*
X123952000Y-117602000D01*
X180848000Y-120904000D02*
X179670999Y-122081001D01*
X174590999Y-121468961D02*
X174590999Y-120339039D01*
X174590999Y-120339039D02*
X173619000Y-119367040D01*
X163487029Y-119367040D02*
X162306000Y-118186011D01*
X175203039Y-122081001D02*
X174590999Y-121468961D01*
X179670999Y-122081001D02*
X175203039Y-122081001D01*
X173619000Y-119367040D02*
X163487029Y-119367040D01*
X156486491Y-107299023D02*
X154390530Y-107299023D01*
X157385030Y-109463922D02*
X157385030Y-108197562D01*
X157385030Y-108197562D02*
X156486491Y-107299023D01*
X162863117Y-114942009D02*
X157385030Y-109463922D01*
X163428802Y-114942009D02*
X162863117Y-114942009D01*
X154390530Y-107299023D02*
X152737871Y-105646364D01*
X175768000Y-120904000D02*
X175768000Y-116470630D01*
X175768000Y-116470630D02*
X175629370Y-116332000D01*
X175629370Y-116332000D02*
X174498000Y-116332000D01*
X152388909Y-107822382D02*
X150062483Y-105495956D01*
X153134702Y-110007413D02*
X152388909Y-109261620D01*
X152388909Y-109261620D02*
X152388909Y-107822382D01*
X150062483Y-105495956D02*
X149496798Y-105495956D01*
D25*
X82550000Y-83820000D02*
X80010000Y-83820000D01*
X85598000Y-86868000D02*
X82550000Y-83820000D01*
D24*
X174244000Y-111074001D02*
X173085001Y-109915002D01*
X173085001Y-108188032D02*
X171741990Y-106845021D01*
X171741990Y-106845021D02*
X170811228Y-106845021D01*
X173085001Y-109915002D02*
X173085001Y-108188032D01*
X170136816Y-105991011D02*
X173491968Y-105991011D01*
X174364968Y-106864011D02*
X175869965Y-106864011D01*
X173491968Y-105991011D02*
X174364968Y-106864011D01*
X169736817Y-106391010D02*
X170136816Y-105991011D01*
X175869965Y-106864011D02*
X175979869Y-106973915D01*
X165862000Y-114808000D02*
X164338000Y-116332000D01*
X170434000Y-114808000D02*
X165862000Y-114808000D01*
X170434000Y-114808000D02*
X171958000Y-116332000D01*
X170434000Y-110236000D02*
X170434000Y-114808000D01*
X171958000Y-108712000D02*
X170434000Y-110236000D01*
M02*
