%FSLAX45Y45*%
G04 Gerber Fmt 4.5, Leading zero omitted, Abs format (unit mm)*
G04 Created by KiCad (PCBNEW (5.1.9-0-10_14)) date 2021-05-12 02:13:37*
%MOMM*%
%LPD*%
G01*
G04 APERTURE LIST*
%TA.AperFunction,Profile*%
%ADD10C,0.120000*%
%TD*%
%ADD11C,0.200000*%
%ADD12C,0.300000*%
G04 APERTURE END LIST*
D10*
X21488400Y-12473800D02*
G75*
G02*
X21211400Y-12750800I-277000J0D01*
G01*
X21209000Y-8151000D02*
G75*
G02*
X21486000Y-8428000I0J-277000D01*
G01*
X5796000Y-8428000D02*
G75*
G02*
X6073000Y-8151000I277000J0D01*
G01*
X6073000Y-12753200D02*
G75*
G02*
X5796000Y-12476200I0J277000D01*
G01*
X21211400Y-12750800D02*
X6073000Y-12753200D01*
X21486000Y-8428000D02*
X21488400Y-12473800D01*
X5796000Y-8428000D02*
X5796000Y-12476200D01*
X6073000Y-8151000D02*
X21209000Y-8151000D01*
D11*
D12*
X6076428Y-13224914D02*
X6076428Y-12924914D01*
X6147857Y-12924914D01*
X6190714Y-12939200D01*
X6219286Y-12967771D01*
X6233571Y-12996343D01*
X6247857Y-13053486D01*
X6247857Y-13096343D01*
X6233571Y-13153486D01*
X6219286Y-13182057D01*
X6190714Y-13210629D01*
X6147857Y-13224914D01*
X6076428Y-13224914D01*
X6376428Y-13224914D02*
X6376428Y-13024914D01*
X6376428Y-13082057D02*
X6390714Y-13053486D01*
X6405000Y-13039200D01*
X6433571Y-13024914D01*
X6462143Y-13024914D01*
X6562143Y-13224914D02*
X6562143Y-13024914D01*
X6562143Y-12924914D02*
X6547857Y-12939200D01*
X6562143Y-12953486D01*
X6576428Y-12939200D01*
X6562143Y-12924914D01*
X6562143Y-12953486D01*
X6747857Y-13224914D02*
X6719286Y-13210629D01*
X6705000Y-13182057D01*
X6705000Y-12924914D01*
X6905000Y-13224914D02*
X6876428Y-13210629D01*
X6862143Y-13182057D01*
X6862143Y-12924914D01*
X7247857Y-13224914D02*
X7247857Y-12924914D01*
X7347857Y-13139200D01*
X7447857Y-12924914D01*
X7447857Y-13224914D01*
X7719286Y-13224914D02*
X7719286Y-13067771D01*
X7705000Y-13039200D01*
X7676428Y-13024914D01*
X7619286Y-13024914D01*
X7590714Y-13039200D01*
X7719286Y-13210629D02*
X7690714Y-13224914D01*
X7619286Y-13224914D01*
X7590714Y-13210629D01*
X7576428Y-13182057D01*
X7576428Y-13153486D01*
X7590714Y-13124914D01*
X7619286Y-13110629D01*
X7690714Y-13110629D01*
X7719286Y-13096343D01*
X7862143Y-13024914D02*
X7862143Y-13324914D01*
X7862143Y-13039200D02*
X7890714Y-13024914D01*
X7947857Y-13024914D01*
X7976428Y-13039200D01*
X7990714Y-13053486D01*
X8005000Y-13082057D01*
X8005000Y-13167771D01*
X7990714Y-13196343D01*
X7976428Y-13210629D01*
X7947857Y-13224914D01*
X7890714Y-13224914D01*
X7862143Y-13210629D01*
X8133571Y-13196343D02*
X8147857Y-13210629D01*
X8133571Y-13224914D01*
X8119286Y-13210629D01*
X8133571Y-13196343D01*
X8133571Y-13224914D01*
X8133571Y-13039200D02*
X8147857Y-13053486D01*
X8133571Y-13067771D01*
X8119286Y-13053486D01*
X8133571Y-13039200D01*
X8133571Y-13067771D01*
M02*
