G04 #@! TF.GenerationSoftware,KiCad,Pcbnew,(5.1.9-0-10_14)*
G04 #@! TF.CreationDate,2021-05-12T02:12:47+02:00*
G04 #@! TF.ProjectId,mainboard_v2,6d61696e-626f-4617-9264-5f76322e6b69,rev?*
G04 #@! TF.SameCoordinates,Original*
G04 #@! TF.FileFunction,Copper,L2,Inr*
G04 #@! TF.FilePolarity,Positive*
%FSLAX46Y46*%
G04 Gerber Fmt 4.6, Leading zero omitted, Abs format (unit mm)*
G04 Created by KiCad (PCBNEW (5.1.9-0-10_14)) date 2021-05-12 02:12:47*
%MOMM*%
%LPD*%
G01*
G04 APERTURE LIST*
G04 #@! TA.AperFunction,ComponentPad*
%ADD10O,1.440000X2.000000*%
G04 #@! TD*
G04 #@! TA.AperFunction,ComponentPad*
%ADD11R,1.440000X2.000000*%
G04 #@! TD*
G04 #@! TA.AperFunction,ComponentPad*
%ADD12C,1.600000*%
G04 #@! TD*
G04 #@! TA.AperFunction,ComponentPad*
%ADD13R,1.600000X1.600000*%
G04 #@! TD*
G04 #@! TA.AperFunction,ComponentPad*
%ADD14O,1.600000X1.600000*%
G04 #@! TD*
G04 #@! TA.AperFunction,ComponentPad*
%ADD15O,1.700000X1.700000*%
G04 #@! TD*
G04 #@! TA.AperFunction,ComponentPad*
%ADD16R,1.700000X1.700000*%
G04 #@! TD*
G04 #@! TA.AperFunction,ComponentPad*
%ADD17C,2.000000*%
G04 #@! TD*
G04 #@! TA.AperFunction,ComponentPad*
%ADD18C,4.700000*%
G04 #@! TD*
G04 #@! TA.AperFunction,ComponentPad*
%ADD19R,1.050000X1.500000*%
G04 #@! TD*
G04 #@! TA.AperFunction,ComponentPad*
%ADD20O,1.050000X1.500000*%
G04 #@! TD*
G04 #@! TA.AperFunction,ComponentPad*
%ADD21C,1.200000*%
G04 #@! TD*
G04 #@! TA.AperFunction,ComponentPad*
%ADD22R,1.200000X1.200000*%
G04 #@! TD*
G04 #@! TA.AperFunction,ViaPad*
%ADD23C,0.800000*%
G04 #@! TD*
G04 #@! TA.AperFunction,Conductor*
%ADD24C,0.254000*%
G04 #@! TD*
G04 APERTURE END LIST*
D10*
X165862000Y-86868000D03*
X165862000Y-102108000D03*
X163322000Y-86868000D03*
X163322000Y-102108000D03*
X160782000Y-86868000D03*
X160782000Y-102108000D03*
X158242000Y-86868000D03*
X158242000Y-102108000D03*
X155702000Y-86868000D03*
X155702000Y-102108000D03*
X153162000Y-86868000D03*
X153162000Y-102108000D03*
X150622000Y-86868000D03*
X150622000Y-102108000D03*
X148082000Y-86868000D03*
X148082000Y-102108000D03*
X145542000Y-86868000D03*
X145542000Y-102108000D03*
X143002000Y-86868000D03*
X143002000Y-102108000D03*
X140462000Y-86868000D03*
X140462000Y-102108000D03*
X137922000Y-86868000D03*
X137922000Y-102108000D03*
X135382000Y-86868000D03*
X135382000Y-102108000D03*
X132842000Y-86868000D03*
D11*
X132842000Y-102108000D03*
D12*
X89662000Y-114300000D03*
X89662000Y-106680000D03*
X74422000Y-106680000D03*
D13*
X74422000Y-114300000D03*
D14*
X70358000Y-86868000D03*
X118618000Y-102108000D03*
X72898000Y-86868000D03*
X116078000Y-102108000D03*
X75438000Y-86868000D03*
X113538000Y-102108000D03*
X77978000Y-86868000D03*
X110998000Y-102108000D03*
X80518000Y-86868000D03*
X108458000Y-102108000D03*
X83058000Y-86868000D03*
X105918000Y-102108000D03*
X85598000Y-86868000D03*
X103378000Y-102108000D03*
X88138000Y-86868000D03*
X100838000Y-102108000D03*
X90678000Y-86868000D03*
X98298000Y-102108000D03*
X93218000Y-86868000D03*
X95758000Y-102108000D03*
X95758000Y-86868000D03*
X93218000Y-102108000D03*
X98298000Y-86868000D03*
X90678000Y-102108000D03*
X100838000Y-86868000D03*
X88138000Y-102108000D03*
X103378000Y-86868000D03*
X85598000Y-102108000D03*
X105918000Y-86868000D03*
X83058000Y-102108000D03*
X108458000Y-86868000D03*
X80518000Y-102108000D03*
X110998000Y-86868000D03*
X77978000Y-102108000D03*
X113538000Y-86868000D03*
X75438000Y-102108000D03*
X116078000Y-86868000D03*
X72898000Y-102108000D03*
X118618000Y-86868000D03*
D13*
X70358000Y-102108000D03*
D15*
X64262000Y-99314000D03*
D16*
X61722000Y-99314000D03*
D17*
X62738000Y-113134000D03*
X67238000Y-113134000D03*
X62738000Y-119634000D03*
X67238000Y-119634000D03*
D14*
X77216000Y-83820000D03*
D12*
X69596000Y-83820000D03*
D14*
X164338000Y-108712000D03*
X179578000Y-116332000D03*
X166878000Y-108712000D03*
X177038000Y-116332000D03*
X169418000Y-108712000D03*
X174498000Y-116332000D03*
X171958000Y-108712000D03*
X171958000Y-116332000D03*
X174498000Y-108712000D03*
X169418000Y-116332000D03*
X177038000Y-108712000D03*
X166878000Y-116332000D03*
X179578000Y-108712000D03*
D13*
X164338000Y-116332000D03*
D14*
X120142000Y-108712000D03*
X135382000Y-116332000D03*
X122682000Y-108712000D03*
X132842000Y-116332000D03*
X125222000Y-108712000D03*
X130302000Y-116332000D03*
X127762000Y-108712000D03*
X127762000Y-116332000D03*
X130302000Y-108712000D03*
X125222000Y-116332000D03*
X132842000Y-108712000D03*
X122682000Y-116332000D03*
X135382000Y-108712000D03*
D13*
X120142000Y-116332000D03*
D18*
X60960000Y-124460000D03*
X211836000Y-124460000D03*
X60960000Y-84582000D03*
X211836000Y-84582000D03*
D14*
X185166000Y-108712000D03*
X200406000Y-116332000D03*
X187706000Y-108712000D03*
X197866000Y-116332000D03*
X190246000Y-108712000D03*
X195326000Y-116332000D03*
X192786000Y-108712000D03*
X192786000Y-116332000D03*
X195326000Y-108712000D03*
X190246000Y-116332000D03*
X197866000Y-108712000D03*
X187706000Y-116332000D03*
X200406000Y-108712000D03*
D13*
X185166000Y-116332000D03*
D15*
X196088000Y-120904000D03*
X198628000Y-120904000D03*
X193548000Y-120904000D03*
X191008000Y-120904000D03*
X188468000Y-120904000D03*
X185928000Y-120904000D03*
X183388000Y-120904000D03*
X180848000Y-120904000D03*
X178308000Y-120904000D03*
X175768000Y-120904000D03*
D16*
X74168000Y-120904000D03*
D15*
X76708000Y-120904000D03*
X79248000Y-120904000D03*
X81788000Y-120904000D03*
X84328000Y-120904000D03*
X86868000Y-120904000D03*
X89408000Y-120904000D03*
X91948000Y-120904000D03*
X94488000Y-120904000D03*
X97028000Y-120904000D03*
X99568000Y-120904000D03*
X102108000Y-120904000D03*
X104648000Y-120904000D03*
X107188000Y-120904000D03*
X109728000Y-120904000D03*
X112268000Y-120904000D03*
X114808000Y-120904000D03*
X117348000Y-120904000D03*
X119888000Y-120904000D03*
X122428000Y-120904000D03*
X124968000Y-120904000D03*
X127508000Y-120904000D03*
X130048000Y-120904000D03*
X132588000Y-120904000D03*
X135128000Y-120904000D03*
X137668000Y-120904000D03*
X140208000Y-120904000D03*
X142748000Y-120904000D03*
X145288000Y-120904000D03*
X147828000Y-120904000D03*
X150368000Y-120904000D03*
X152908000Y-120904000D03*
X155448000Y-120904000D03*
X157988000Y-120904000D03*
X160528000Y-120904000D03*
X163068000Y-120904000D03*
X165608000Y-120904000D03*
X168148000Y-120904000D03*
X170688000Y-120904000D03*
X173228000Y-120904000D03*
D14*
X140970000Y-108712000D03*
X158750000Y-116332000D03*
X143510000Y-108712000D03*
X156210000Y-116332000D03*
X146050000Y-108712000D03*
X153670000Y-116332000D03*
X148590000Y-108712000D03*
X151130000Y-116332000D03*
X151130000Y-108712000D03*
X148590000Y-116332000D03*
X153670000Y-108712000D03*
X146050000Y-116332000D03*
X156210000Y-108712000D03*
X143510000Y-116332000D03*
X158750000Y-108712000D03*
D13*
X140970000Y-116332000D03*
D14*
X96774000Y-108712000D03*
X114554000Y-116332000D03*
X99314000Y-108712000D03*
X112014000Y-116332000D03*
X101854000Y-108712000D03*
X109474000Y-116332000D03*
X104394000Y-108712000D03*
X106934000Y-116332000D03*
X106934000Y-108712000D03*
X104394000Y-116332000D03*
X109474000Y-108712000D03*
X101854000Y-116332000D03*
X112014000Y-108712000D03*
X99314000Y-116332000D03*
X114554000Y-108712000D03*
D13*
X96774000Y-116332000D03*
D14*
X175006000Y-86868000D03*
X208026000Y-102108000D03*
X177546000Y-86868000D03*
X205486000Y-102108000D03*
X180086000Y-86868000D03*
X202946000Y-102108000D03*
X182626000Y-86868000D03*
X200406000Y-102108000D03*
X185166000Y-86868000D03*
X197866000Y-102108000D03*
X187706000Y-86868000D03*
X195326000Y-102108000D03*
X190246000Y-86868000D03*
X192786000Y-102108000D03*
X192786000Y-86868000D03*
X190246000Y-102108000D03*
X195326000Y-86868000D03*
X187706000Y-102108000D03*
X197866000Y-86868000D03*
X185166000Y-102108000D03*
X200406000Y-86868000D03*
X182626000Y-102108000D03*
X202946000Y-86868000D03*
X180086000Y-102108000D03*
X205486000Y-86868000D03*
X177546000Y-102108000D03*
X208026000Y-86868000D03*
D13*
X175006000Y-102108000D03*
D19*
X62738000Y-89916000D03*
D20*
X65278000Y-89916000D03*
X64008000Y-89916000D03*
D14*
X210820000Y-114554000D03*
D12*
X203200000Y-114554000D03*
D14*
X210820000Y-111506000D03*
D12*
X203200000Y-111506000D03*
D14*
X210820000Y-108458000D03*
D12*
X203200000Y-108458000D03*
D14*
X210820000Y-105410000D03*
D12*
X203200000Y-105410000D03*
D14*
X120396000Y-104902000D03*
D12*
X112776000Y-104902000D03*
D14*
X118364000Y-83820000D03*
D12*
X110744000Y-83820000D03*
D14*
X108204000Y-83820000D03*
D12*
X100584000Y-83820000D03*
D14*
X97790000Y-83820000D03*
D12*
X90170000Y-83820000D03*
D14*
X87630000Y-83820000D03*
D12*
X80010000Y-83820000D03*
D15*
X66802000Y-106426000D03*
X64262000Y-106426000D03*
D16*
X61722000Y-106426000D03*
D12*
X182372000Y-111212000D03*
X182372000Y-108712000D03*
X96480000Y-104394000D03*
X93980000Y-104394000D03*
X120650000Y-83566000D03*
X120650000Y-86066000D03*
X177506000Y-84328000D03*
X175006000Y-84328000D03*
X70104000Y-109180000D03*
X70104000Y-106680000D03*
X93980000Y-111212000D03*
X93980000Y-108712000D03*
X117348000Y-111252000D03*
X117348000Y-108752000D03*
X138176000Y-111212000D03*
X138176000Y-108712000D03*
X161544000Y-111212000D03*
X161544000Y-108712000D03*
D21*
X64738000Y-94742000D03*
D22*
X62738000Y-94742000D03*
D23*
X178777254Y-107563593D03*
X179324000Y-106137010D03*
X173918325Y-107437633D03*
X174713929Y-106137010D03*
X92945429Y-122665395D03*
X169854914Y-86047063D03*
X171634012Y-88929644D03*
X171216983Y-89979036D03*
X170293845Y-90678008D03*
X169566835Y-93124983D03*
X164084000Y-98044000D03*
X162306000Y-99822000D03*
X164200333Y-100842639D03*
X109474000Y-104902000D03*
X111122376Y-92675000D03*
X170286349Y-104143032D03*
X118950048Y-118031952D03*
X121096913Y-114107086D03*
X122682000Y-101053998D03*
X142061251Y-103956000D03*
X142494000Y-105410000D03*
X171261328Y-104365381D03*
X142257800Y-109338100D03*
X173736000Y-104140000D03*
X160070839Y-95342009D03*
X168628745Y-99209690D03*
X167653895Y-102103092D03*
X167625421Y-100649091D03*
X158496000Y-114046000D03*
X148872268Y-114023977D03*
X123374012Y-104894802D03*
X120837296Y-103323444D03*
X155631024Y-105629010D03*
X178562000Y-117856000D03*
X171958000Y-118186023D03*
X146186115Y-111865736D03*
X183896000Y-106934000D03*
X174730896Y-104416022D03*
X157709928Y-95889855D03*
X164562803Y-99609346D03*
X176784000Y-113284000D03*
X181564913Y-113238913D03*
X180594000Y-106137010D03*
X120396000Y-101854000D03*
X163428802Y-114942009D03*
X162306000Y-118186011D03*
X152737871Y-105646364D03*
X123445980Y-103893589D03*
X89154000Y-116154011D03*
X174244000Y-111074001D03*
X87884000Y-88646000D03*
X85591933Y-88385933D03*
X153134702Y-110007413D03*
X166478001Y-107370347D03*
X149496798Y-105495956D03*
X123928940Y-102965105D03*
X117367987Y-101378135D03*
X170811228Y-106845021D03*
X169736817Y-106391010D03*
X175979869Y-106973915D03*
D24*
X179324000Y-107016847D02*
X178777254Y-107563593D01*
X179324000Y-106137010D02*
X179324000Y-107016847D01*
X174713929Y-106137010D02*
X173918325Y-106932614D01*
X173918325Y-106932614D02*
X173918325Y-107437633D01*
X68796001Y-87846001D02*
X83058000Y-102108000D01*
X68796001Y-84619999D02*
X68796001Y-87846001D01*
X69596000Y-83820000D02*
X68796001Y-84619999D01*
X166386605Y-122665395D02*
X92945429Y-122665395D01*
X168148000Y-120904000D02*
X166386605Y-122665395D01*
X187706000Y-109843370D02*
X187706000Y-108712000D01*
X166785001Y-119726999D02*
X177822371Y-119726999D01*
X177822371Y-119726999D02*
X187706000Y-109843370D01*
X165608000Y-120904000D02*
X166785001Y-119726999D01*
X186578999Y-109252961D02*
X186578999Y-108171039D01*
X177578961Y-117459001D02*
X178450999Y-116586963D01*
X186578999Y-108171039D02*
X187165039Y-107584999D01*
X178450999Y-115791039D02*
X179037039Y-115204999D01*
X163068000Y-120904000D02*
X166512999Y-117459001D01*
X166512999Y-117459001D02*
X177578961Y-117459001D01*
X178450999Y-116586963D02*
X178450999Y-115791039D01*
X189118999Y-107584999D02*
X190246000Y-108712000D01*
X179037039Y-115204999D02*
X180626961Y-115204999D01*
X180626961Y-115204999D02*
X186578999Y-109252961D01*
X187165039Y-107584999D02*
X189118999Y-107584999D01*
X196284989Y-107130989D02*
X197866000Y-108712000D01*
X183452959Y-109839001D02*
X184038999Y-109252961D01*
X185079049Y-107130989D02*
X196284989Y-107130989D01*
X171703037Y-109839001D02*
X183452959Y-109839001D01*
X184038999Y-109252961D02*
X184038999Y-108171039D01*
X184038999Y-108171039D02*
X185079049Y-107130989D01*
X165750999Y-117578935D02*
X165750999Y-115791039D01*
X165750999Y-115791039D02*
X171703037Y-109839001D01*
X157988000Y-120904000D02*
X159619012Y-119272988D01*
X159619012Y-119272988D02*
X164056946Y-119272988D01*
X164056946Y-119272988D02*
X165750999Y-117578935D01*
X153920980Y-88649020D02*
X155702000Y-86868000D01*
X105918000Y-86868000D02*
X107699020Y-88649020D01*
X107699020Y-88649020D02*
X153920980Y-88649020D01*
X171573977Y-107572023D02*
X171939055Y-107206945D01*
X168290999Y-108061001D02*
X168779977Y-107572023D01*
X145288000Y-120904000D02*
X146919012Y-119272988D01*
X160331012Y-117061018D02*
X160331012Y-116926950D01*
X160331012Y-116926950D02*
X168290999Y-108966963D01*
X168801635Y-104599597D02*
X173285031Y-100116201D01*
X170342072Y-104870034D02*
X169072070Y-104870034D01*
X158119042Y-119272988D02*
X160331012Y-117061018D01*
X169072070Y-104870034D02*
X168801635Y-104599597D01*
X146919012Y-119272988D02*
X158119042Y-119272988D01*
X171939055Y-107206945D02*
X171939055Y-106467017D01*
X173285031Y-100116201D02*
X173285031Y-89477180D01*
X173285031Y-89477180D02*
X169854914Y-86047063D01*
X168290999Y-108966963D02*
X168290999Y-108061001D01*
X171939055Y-106467017D02*
X170342072Y-104870034D01*
X168779977Y-107572023D02*
X171573977Y-107572023D01*
X127513490Y-89103031D02*
X156006981Y-89103019D01*
X103378000Y-86868000D02*
X105613031Y-89103031D01*
X105613031Y-89103031D02*
X127513490Y-89103031D01*
X156006981Y-89103019D02*
X158242000Y-86868000D01*
X159877002Y-116738892D02*
X165750999Y-110864895D01*
X172034011Y-100725153D02*
X172034011Y-89329643D01*
X165750999Y-107008165D02*
X172034011Y-100725153D01*
X145284921Y-118367079D02*
X158358853Y-118367079D01*
X165750999Y-110864895D02*
X165750999Y-107008165D01*
X172034011Y-89329643D02*
X171634012Y-88929644D01*
X158358853Y-118367079D02*
X159877001Y-116848931D01*
X142748000Y-120904000D02*
X145284921Y-118367079D01*
X159877001Y-116848931D02*
X159877002Y-116738892D01*
X158092961Y-89557039D02*
X103527039Y-89557039D01*
X103527039Y-89557039D02*
X100838000Y-86868000D01*
X160782000Y-86868000D02*
X158092961Y-89557039D01*
X163210999Y-108235728D02*
X163861728Y-107584999D01*
X159512963Y-115204999D02*
X163210999Y-111506963D01*
X158209039Y-115204999D02*
X159512963Y-115204999D01*
X156296953Y-117913009D02*
X157622999Y-116586963D01*
X140208000Y-120904000D02*
X143198991Y-117913009D01*
X157622999Y-116586963D02*
X157622999Y-115791039D01*
X164532098Y-107584998D02*
X171216983Y-100900113D01*
X157622999Y-115791039D02*
X158209039Y-115204999D01*
X143198991Y-117913009D02*
X156296953Y-117913009D01*
X163861728Y-107584999D02*
X164532098Y-107584998D01*
X171216983Y-100900113D02*
X171216983Y-89979036D01*
X163210999Y-111506963D02*
X163210999Y-108235728D01*
X160178950Y-90011050D02*
X101441050Y-90011050D01*
X163322000Y-86868000D02*
X160178950Y-90011050D01*
X101441050Y-90011050D02*
X98298000Y-86868000D01*
X163322000Y-86868000D02*
X164649010Y-85540990D01*
X170293845Y-89013845D02*
X170293845Y-90678008D01*
X166820990Y-85540990D02*
X170293845Y-89013845D01*
X164649010Y-85540990D02*
X166820990Y-85540990D01*
X137668000Y-120904000D02*
X141112999Y-117459001D01*
X154797001Y-116872961D02*
X154797001Y-115458999D01*
X162756988Y-108047671D02*
X163673671Y-107130988D01*
X154797001Y-115458999D02*
X160416999Y-109839001D01*
X164344040Y-107130988D02*
X170293845Y-101181183D01*
X163673671Y-107130988D02*
X164344040Y-107130988D01*
X162084961Y-109839001D02*
X162756988Y-109166974D01*
X170293845Y-101181183D02*
X170293845Y-90678008D01*
X162756988Y-109166974D02*
X162756988Y-108047671D01*
X141112999Y-117459001D02*
X154210962Y-117459000D01*
X160416999Y-109839001D02*
X162084961Y-109839001D01*
X154210962Y-117459000D02*
X154797001Y-116872961D01*
X95758000Y-86868000D02*
X99355060Y-90465060D01*
X99355060Y-90465060D02*
X162264940Y-90465060D01*
X162264940Y-90465060D02*
X165862000Y-86868000D01*
X169566835Y-93124983D02*
X169566835Y-90572835D01*
X169566835Y-90572835D02*
X165862000Y-86868000D01*
X169566835Y-101266125D02*
X169566835Y-93124983D01*
X168002856Y-102830104D02*
X169566835Y-101266125D01*
X153924964Y-115204998D02*
X160416999Y-108712963D01*
X162331276Y-106172000D02*
X163990591Y-106172000D01*
X160416999Y-108712963D02*
X160416999Y-108086277D01*
X160416999Y-108086277D02*
X162331276Y-106172000D01*
X139908400Y-115204998D02*
X153924964Y-115204998D01*
X139842999Y-115270399D02*
X139908400Y-115204998D01*
X163990591Y-106172000D02*
X167332487Y-102830104D01*
X167332487Y-102830104D02*
X168002856Y-102830104D01*
X139842999Y-116951001D02*
X139842999Y-115270399D01*
X135890000Y-120904000D02*
X139842999Y-116951001D01*
X135128000Y-120904000D02*
X135890000Y-120904000D01*
X139388988Y-116762944D02*
X139388989Y-115082341D01*
X139720343Y-114750987D02*
X151838975Y-114750987D01*
X139388989Y-115082341D02*
X139720343Y-114750987D01*
X157622999Y-107807001D02*
X163322000Y-102108000D01*
X135074010Y-118417990D02*
X137733942Y-118417990D01*
X132588000Y-120904000D02*
X135074010Y-118417990D01*
X151838975Y-114750987D02*
X157622999Y-108966963D01*
X137733942Y-118417990D02*
X139388988Y-116762944D01*
X157622999Y-108966963D02*
X157622999Y-107807001D01*
X162542695Y-102108000D02*
X163322000Y-102108000D01*
X97269071Y-90919071D02*
X151353766Y-90919071D01*
X93218000Y-86868000D02*
X97269071Y-90919071D01*
X151353766Y-90919071D02*
X162542695Y-102108000D01*
X138934979Y-115824839D02*
X138934980Y-114894284D01*
X132988020Y-117963980D02*
X136795838Y-117963980D01*
X138934980Y-114894284D02*
X139532286Y-114296977D01*
X147523306Y-114296977D02*
X152542999Y-109277284D01*
X152542999Y-109277284D02*
X152542999Y-108171039D01*
X139532286Y-114296977D02*
X147523306Y-114296977D01*
X130048000Y-120904000D02*
X132988020Y-117963980D01*
X155305001Y-107584999D02*
X160782000Y-102108000D01*
X153129039Y-107584999D02*
X155305001Y-107584999D01*
X152542999Y-108171039D02*
X153129039Y-107584999D01*
X136795838Y-117963980D02*
X138934979Y-115824839D01*
X159000979Y-100326979D02*
X155131017Y-100326979D01*
X146244038Y-91440000D02*
X95250000Y-91440000D01*
X155131017Y-100326979D02*
X146244038Y-91440000D01*
X95250000Y-91440000D02*
X90678000Y-86868000D01*
X160782000Y-102108000D02*
X159000979Y-100326979D01*
X157604040Y-102108000D02*
X158242000Y-102108000D01*
X154905001Y-104807039D02*
X157604040Y-102108000D01*
X154905001Y-105504961D02*
X154905001Y-104807039D01*
X153278974Y-107130988D02*
X154905001Y-105504961D01*
X150002999Y-109252961D02*
X150002999Y-108171039D01*
X145412994Y-113842966D02*
X150002999Y-109252961D01*
X139344229Y-113842966D02*
X145412994Y-113842966D01*
X138480970Y-114706227D02*
X139344229Y-113842966D01*
X130952999Y-117459001D02*
X136392795Y-117459001D01*
X127508000Y-120904000D02*
X130952999Y-117459001D01*
X151043050Y-107130988D02*
X153278974Y-107130988D01*
X136392795Y-117459001D02*
X138480969Y-115370828D01*
X150002999Y-108171039D02*
X151043050Y-107130988D01*
X138480969Y-115370828D02*
X138480970Y-114706227D01*
X156914990Y-100780990D02*
X158242000Y-102108000D01*
X88138000Y-86868000D02*
X93218000Y-91948000D01*
X154942960Y-100780990D02*
X156914990Y-100780990D01*
X146109970Y-91948000D02*
X154942960Y-100780990D01*
X93218000Y-91948000D02*
X146109970Y-91948000D01*
X120396000Y-116332000D02*
X124968000Y-120904000D01*
X120142000Y-116332000D02*
X120396000Y-116332000D01*
X109474000Y-104902000D02*
X110601001Y-106029001D01*
X110601001Y-108966963D02*
X117966038Y-116332000D01*
X110601001Y-106029001D02*
X110601001Y-108966963D01*
X117966038Y-116332000D02*
X120142000Y-116332000D01*
X121250999Y-122081001D02*
X122428000Y-120904000D01*
X119323039Y-122081001D02*
X121250999Y-122081001D01*
X118710999Y-120339039D02*
X118710999Y-121468961D01*
X118098959Y-119726999D02*
X118710999Y-120339039D01*
X116281037Y-119726999D02*
X118098959Y-119726999D01*
X113426999Y-115791039D02*
X113426999Y-116872961D01*
X112840959Y-115204999D02*
X113426999Y-115791039D01*
X113426999Y-116872961D02*
X116281037Y-119726999D01*
X110886999Y-115204999D02*
X112840959Y-115204999D01*
X118710999Y-121468961D02*
X119323039Y-122081001D01*
X104394000Y-108712000D02*
X110886999Y-115204999D01*
X129174999Y-116586963D02*
X129174999Y-105775001D01*
X126145001Y-119616961D02*
X129174999Y-116586963D01*
X126145001Y-121468961D02*
X126145001Y-119616961D01*
X125532961Y-122081001D02*
X126145001Y-121468961D01*
X123605001Y-122081001D02*
X125532961Y-122081001D01*
X129174999Y-105775001D02*
X132842000Y-102108000D01*
X122428000Y-120904000D02*
X123605001Y-122081001D01*
X175006000Y-102108000D02*
X172321381Y-102108000D01*
X172321381Y-102108000D02*
X170286349Y-104143032D01*
X119888000Y-119998038D02*
X119888000Y-120904000D01*
X108061001Y-109839001D02*
X109728963Y-109839001D01*
X109728963Y-109839001D02*
X119888000Y-119998038D01*
X106934000Y-108712000D02*
X108061001Y-109839001D01*
X113538000Y-86868000D02*
X114865010Y-88195010D01*
X114865010Y-88195010D02*
X136594990Y-88195010D01*
X136594990Y-88195010D02*
X137922000Y-86868000D01*
X116586000Y-120904000D02*
X117348000Y-120904000D01*
X112014000Y-116332000D02*
X116586000Y-120904000D01*
X135382000Y-102108000D02*
X134054999Y-100780999D01*
X134054999Y-100780999D02*
X122954999Y-100780999D01*
X122954999Y-100780999D02*
X122682000Y-101053998D01*
X135976000Y-103956000D02*
X142061251Y-103956000D01*
X135382000Y-102108000D02*
X135382000Y-103362000D01*
X135382000Y-103362000D02*
X135976000Y-103956000D01*
X114046000Y-120904000D02*
X114808000Y-120904000D01*
X109474000Y-116332000D02*
X114046000Y-120904000D01*
X170629121Y-85086980D02*
X147323020Y-85086980D01*
X171045116Y-85502975D02*
X170629121Y-85086980D01*
X186340975Y-85502975D02*
X171045116Y-85502975D01*
X187706000Y-86868000D02*
X186340975Y-85502975D01*
X147323020Y-85086980D02*
X145542000Y-86868000D01*
X111506000Y-120904000D02*
X112268000Y-120904000D01*
X106934000Y-116332000D02*
X111506000Y-120904000D01*
X108966000Y-120904000D02*
X109728000Y-120904000D01*
X104394000Y-116332000D02*
X108966000Y-120904000D01*
X106426000Y-120904000D02*
X107188000Y-120904000D01*
X101854000Y-116332000D02*
X106426000Y-120904000D01*
X103886000Y-120904000D02*
X104648000Y-120904000D01*
X99314000Y-116332000D02*
X103886000Y-120904000D01*
X110239012Y-100326988D02*
X136140988Y-100326988D01*
X136140988Y-100326988D02*
X137922000Y-102108000D01*
X108458000Y-102108000D02*
X110239012Y-100326988D01*
X97536000Y-116332000D02*
X102108000Y-120904000D01*
X96774000Y-116332000D02*
X97536000Y-116332000D01*
X105918000Y-102108000D02*
X108204000Y-99822000D01*
X138176000Y-99822000D02*
X140462000Y-102108000D01*
X108204000Y-99822000D02*
X138176000Y-99822000D01*
X106133956Y-99352044D02*
X140246044Y-99352044D01*
X103378000Y-102108000D02*
X106133956Y-99352044D01*
X140246044Y-99352044D02*
X143002000Y-102108000D01*
X143002000Y-104902000D02*
X143002000Y-102108000D01*
X142494000Y-105410000D02*
X143002000Y-104902000D01*
X172391708Y-103235001D02*
X171261328Y-104365381D01*
X184038999Y-103235001D02*
X172391708Y-103235001D01*
X185166000Y-102108000D02*
X184038999Y-103235001D01*
X142332033Y-98898033D02*
X145542000Y-102108000D01*
X104047967Y-98898033D02*
X142332033Y-98898033D01*
X100838000Y-102108000D02*
X104047967Y-98898033D01*
X145542000Y-103469488D02*
X145542000Y-102108000D01*
X142257800Y-109338100D02*
X142257800Y-106753688D01*
X142257800Y-106753688D02*
X145542000Y-103469488D01*
X186124988Y-103689012D02*
X187706000Y-102108000D01*
X174186988Y-103689012D02*
X186124988Y-103689012D01*
X173736000Y-104140000D02*
X174186988Y-103689012D01*
X98298000Y-102108000D02*
X101961978Y-98444022D01*
X101961978Y-98444022D02*
X144418022Y-98444022D01*
X144418022Y-98444022D02*
X148082000Y-102108000D01*
X160070839Y-95342009D02*
X164761064Y-95342009D01*
X164761064Y-95342009D02*
X168628745Y-99209690D01*
X150622000Y-102108000D02*
X146504011Y-97990011D01*
X99875989Y-97990011D02*
X95758000Y-102108000D01*
X146504011Y-97990011D02*
X99875989Y-97990011D01*
X153162000Y-102108000D02*
X152382695Y-102108000D01*
X152382695Y-102108000D02*
X147810695Y-97536000D01*
X97790000Y-97536000D02*
X93218000Y-102108000D01*
X147810695Y-97536000D02*
X97790000Y-97536000D01*
X90678000Y-102108000D02*
X95758000Y-97028000D01*
X155627902Y-102108000D02*
X155702000Y-102108000D01*
X150547902Y-97028000D02*
X155627902Y-102108000D01*
X95758000Y-97028000D02*
X150547902Y-97028000D01*
X75438000Y-86868000D02*
X77358999Y-84947001D01*
X88456959Y-84947001D02*
X89042999Y-84360961D01*
X89042999Y-83279039D02*
X89629039Y-82692999D01*
X89042999Y-84360961D02*
X89042999Y-83279039D01*
X77358999Y-84947001D02*
X88456959Y-84947001D01*
X89629039Y-82692999D02*
X109616999Y-82692999D01*
X109616999Y-82692999D02*
X110744000Y-83820000D01*
X123374012Y-104894802D02*
X122408654Y-104894802D01*
X122408654Y-104894802D02*
X120837296Y-103323444D01*
X178562000Y-117856000D02*
X178162001Y-118255999D01*
X178162001Y-118255999D02*
X172027976Y-118255999D01*
X172027976Y-118255999D02*
X171958000Y-118186023D01*
X85690999Y-121468961D02*
X85690999Y-116281037D01*
X89609051Y-125387013D02*
X85690999Y-121468961D01*
X189064987Y-125387013D02*
X89609051Y-125387013D01*
X73802999Y-105552999D02*
X70358000Y-102108000D01*
X85690999Y-116281037D02*
X74962961Y-105552999D01*
X193548000Y-120904000D02*
X189064987Y-125387013D01*
X74962961Y-105552999D02*
X73802999Y-105552999D01*
X186978998Y-124933002D02*
X91695040Y-124933002D01*
X88045001Y-116452303D02*
X85598000Y-114005302D01*
X88045001Y-121282963D02*
X88045001Y-116452303D01*
X91695040Y-124933002D02*
X88045001Y-121282963D01*
X85598000Y-114005302D02*
X85598000Y-102108000D01*
X191008000Y-120904000D02*
X186978998Y-124933002D01*
X181378022Y-104416022D02*
X174730896Y-104416022D01*
X183896000Y-106934000D02*
X181378022Y-104416022D01*
X163169308Y-99609346D02*
X164562803Y-99609346D01*
X159449817Y-95889855D02*
X163169308Y-99609346D01*
X157709928Y-95889855D02*
X159449817Y-95889855D01*
X181519826Y-113284000D02*
X181564913Y-113238913D01*
X176784000Y-113284000D02*
X181519826Y-113284000D01*
X180594000Y-107696000D02*
X180594000Y-106137010D01*
X179578000Y-108712000D02*
X180594000Y-107696000D01*
X163428802Y-114942009D02*
X162306000Y-116064811D01*
X162306000Y-116064811D02*
X162306000Y-118186011D01*
X169418000Y-108952811D02*
X169418000Y-108712000D01*
X163428802Y-114942009D02*
X169418000Y-108952811D01*
X122435589Y-103893589D02*
X123445980Y-103893589D01*
X120396000Y-101854000D02*
X122435589Y-103893589D01*
X90585001Y-117585012D02*
X89154000Y-116154011D01*
X92404397Y-123392397D02*
X92202000Y-123190000D01*
X178308000Y-120904000D02*
X175819603Y-123392397D01*
X90585001Y-121573001D02*
X90585001Y-117585012D01*
X92202000Y-123190000D02*
X90585001Y-121573001D01*
X175819603Y-123392397D02*
X92404397Y-123392397D01*
X85852000Y-88646000D02*
X85591933Y-88385933D01*
X87884000Y-88646000D02*
X85852000Y-88646000D01*
X123363255Y-102965105D02*
X121201160Y-100803010D01*
X123928940Y-102965105D02*
X123363255Y-102965105D01*
X121201160Y-100803010D02*
X117943112Y-100803010D01*
X117943112Y-100803010D02*
X117367987Y-101378135D01*
X166478001Y-107370347D02*
X168368359Y-105479989D01*
X170011881Y-105479989D02*
X170811228Y-106279336D01*
X168368359Y-105479989D02*
X170011881Y-105479989D01*
X170811228Y-106279336D02*
X170811228Y-106845021D01*
M02*
