M48
; DRILL file {KiCad (5.1.9-0-10_14)} date Thursday, June 10, 2021 at 12:33:07 PM
; FORMAT={-:-/ absolute / metric / decimal}
; #@! TF.CreationDate,2021-06-10T12:33:07+02:00
; #@! TF.GenerationSoftware,Kicad,Pcbnew,(5.1.9-0-10_14)
; #@! TF.FileFunction,Plated,1,4,PTH
FMAT,2
METRIC
T1C0.400
T2C0.500
T3C0.600
T4C0.750
T5C0.800
T6C1.000
T7C1.100
T8C3.200
%
G90
G05
T1
X126.543Y-90.881
X128.311Y-90.141
X129.997Y-74.32
X134.874Y-90.678
X135.325Y-68.485
T3
X96.298Y-62.865
X98.298Y-62.865
T4
X83.541Y-73.787
X83.541Y-75.946
X83.541Y-78.105
X83.541Y-80.137
X86.081Y-73.787
X86.081Y-80.137
T5
X89.916Y-75.503
X89.916Y-78.003
X89.941Y-82.829
X89.941Y-90.449
X90.068Y-63.246
X90.068Y-70.866
X93.218Y-72.898
X93.218Y-75.438
X93.218Y-77.978
X93.218Y-80.518
X93.218Y-83.058
X93.218Y-85.598
X93.218Y-88.138
X93.218Y-90.678
X98.298Y-69.85
X100.798Y-69.85
X100.838Y-72.898
X100.838Y-75.438
X100.838Y-77.978
X100.838Y-80.518
X100.838Y-83.058
X100.838Y-85.598
X100.838Y-88.138
X100.838Y-90.678
X104.14Y-72.898
X104.14Y-75.438
X104.14Y-77.978
X104.14Y-80.518
X104.14Y-83.058
X104.14Y-85.598
X104.14Y-88.138
X104.14Y-90.678
X109.22Y-69.85
X111.72Y-69.85
X111.76Y-72.898
X111.76Y-75.438
X111.76Y-77.978
X111.76Y-80.518
X111.76Y-83.058
X111.76Y-85.598
X111.76Y-88.138
X111.76Y-90.678
X115.062Y-72.898
X115.062Y-75.438
X115.062Y-77.978
X115.062Y-80.518
X115.062Y-83.058
X115.062Y-85.598
X115.062Y-88.138
X120.396Y-69.85
X122.682Y-72.898
X122.682Y-75.438
X122.682Y-77.978
X122.682Y-80.518
X122.682Y-83.058
X122.682Y-85.598
X122.682Y-88.138
X122.896Y-69.85
X125.984Y-72.898
X125.984Y-75.438
X125.984Y-77.978
X125.984Y-80.518
X125.984Y-83.058
X125.984Y-85.598
X125.984Y-88.138
X131.064Y-69.85
X133.564Y-69.85
X133.604Y-72.898
X133.604Y-75.438
X133.604Y-77.978
X133.604Y-80.518
X133.604Y-83.058
X133.604Y-85.598
X133.604Y-88.138
X136.906Y-72.898
X136.906Y-75.438
X136.906Y-77.978
X136.906Y-80.518
X136.906Y-83.058
X136.906Y-85.598
X136.906Y-88.138
X139.446Y-62.484
X142.026Y-69.85
X144.526Y-69.85
X144.526Y-72.898
X144.526Y-75.438
X144.526Y-77.978
X144.526Y-80.518
X144.526Y-83.058
X144.526Y-85.598
X144.526Y-88.138
X147.066Y-62.484
X148.844Y-76.708
X151.384Y-72.898
X156.384Y-72.898
X156.464Y-76.708
T6
X103.632Y-62.484
X106.172Y-62.484
X108.712Y-62.484
X111.252Y-62.484
X113.792Y-62.484
X116.332Y-62.484
X118.872Y-62.484
X121.412Y-62.484
X123.952Y-62.484
X126.492Y-62.484
X129.032Y-62.484
X131.572Y-62.484
X134.112Y-62.484
T7
X148.844Y-81.28
X156.464Y-81.28
T8
X80.01Y-64.262
X80.01Y-89.916
X154.686Y-64.262
X154.686Y-89.916
T2
X80.416Y-76.262G85X80.416Y-77.662
G05
X81.701Y-69.977G85X80.301Y-69.977
G05
X81.701Y-83.947G85X80.301Y-83.947
G05
T0
M30
