G04 #@! TF.GenerationSoftware,KiCad,Pcbnew,(5.1.9-0-10_14)*
G04 #@! TF.CreationDate,2021-06-10T12:32:47+02:00*
G04 #@! TF.ProjectId,keyboard,6b657962-6f61-4726-942e-6b696361645f,rev?*
G04 #@! TF.SameCoordinates,Original*
G04 #@! TF.FileFunction,Legend,Bot*
G04 #@! TF.FilePolarity,Positive*
%FSLAX46Y46*%
G04 Gerber Fmt 4.6, Leading zero omitted, Abs format (unit mm)*
G04 Created by KiCad (PCBNEW (5.1.9-0-10_14)) date 2021-06-10 12:32:47*
%MOMM*%
%LPD*%
G01*
G04 APERTURE LIST*
%ADD10C,0.150000*%
%ADD11C,6.400000*%
%ADD12C,1.200000*%
%ADD13R,1.200000X1.200000*%
%ADD14R,3.200400X2.169160*%
%ADD15R,1.998980X3.200400*%
%ADD16C,1.700000*%
%ADD17O,1.600000X1.600000*%
%ADD18R,1.600000X1.600000*%
%ADD19C,1.600000*%
%ADD20O,2.200000X2.200000*%
%ADD21R,2.200000X2.200000*%
%ADD22O,1.700000X1.700000*%
%ADD23R,1.700000X1.700000*%
G04 APERTURE END LIST*
D10*
X98328857Y-65604380D02*
X98328857Y-64604380D01*
X97947904Y-64604380D01*
X97852666Y-64652000D01*
X97805047Y-64699619D01*
X97757428Y-64794857D01*
X97757428Y-64937714D01*
X97805047Y-65032952D01*
X97852666Y-65080571D01*
X97947904Y-65128190D01*
X98328857Y-65128190D01*
X97376476Y-65556761D02*
X97233619Y-65604380D01*
X96995523Y-65604380D01*
X96900285Y-65556761D01*
X96852666Y-65509142D01*
X96805047Y-65413904D01*
X96805047Y-65318666D01*
X96852666Y-65223428D01*
X96900285Y-65175809D01*
X96995523Y-65128190D01*
X97186000Y-65080571D01*
X97281238Y-65032952D01*
X97328857Y-64985333D01*
X97376476Y-64890095D01*
X97376476Y-64794857D01*
X97328857Y-64699619D01*
X97281238Y-64652000D01*
X97186000Y-64604380D01*
X96947904Y-64604380D01*
X96805047Y-64652000D01*
X95662190Y-64556761D02*
X96519333Y-65842476D01*
X95376476Y-64699619D02*
X95328857Y-64652000D01*
X95233619Y-64604380D01*
X94995523Y-64604380D01*
X94900285Y-64652000D01*
X94852666Y-64699619D01*
X94805047Y-64794857D01*
X94805047Y-64890095D01*
X94852666Y-65032952D01*
X95424095Y-65604380D01*
X94805047Y-65604380D01*
X93614571Y-65604380D02*
X93614571Y-64937714D01*
X93614571Y-64604380D02*
X93662190Y-64652000D01*
X93614571Y-64699619D01*
X93566952Y-64652000D01*
X93614571Y-64604380D01*
X93614571Y-64699619D01*
X93138380Y-64937714D02*
X93138380Y-65604380D01*
X93138380Y-65032952D02*
X93090761Y-64985333D01*
X92995523Y-64937714D01*
X92852666Y-64937714D01*
X92757428Y-64985333D01*
X92709809Y-65080571D01*
X92709809Y-65604380D01*
X92376476Y-64937714D02*
X91995523Y-64937714D01*
X92233619Y-64604380D02*
X92233619Y-65461523D01*
X92186000Y-65556761D01*
X92090761Y-65604380D01*
X91995523Y-65604380D01*
X91281238Y-65556761D02*
X91376476Y-65604380D01*
X91566952Y-65604380D01*
X91662190Y-65556761D01*
X91709809Y-65461523D01*
X91709809Y-65080571D01*
X91662190Y-64985333D01*
X91566952Y-64937714D01*
X91376476Y-64937714D01*
X91281238Y-64985333D01*
X91233619Y-65080571D01*
X91233619Y-65175809D01*
X91709809Y-65271047D01*
X90805047Y-65604380D02*
X90805047Y-64937714D01*
X90805047Y-65128190D02*
X90757428Y-65032952D01*
X90709809Y-64985333D01*
X90614571Y-64937714D01*
X90519333Y-64937714D01*
X90328857Y-64937714D02*
X89947904Y-64937714D01*
X90186000Y-65604380D02*
X90186000Y-64747238D01*
X90138380Y-64652000D01*
X90043142Y-64604380D01*
X89947904Y-64604380D01*
X89186000Y-65604380D02*
X89186000Y-65080571D01*
X89233619Y-64985333D01*
X89328857Y-64937714D01*
X89519333Y-64937714D01*
X89614571Y-64985333D01*
X89186000Y-65556761D02*
X89281238Y-65604380D01*
X89519333Y-65604380D01*
X89614571Y-65556761D01*
X89662190Y-65461523D01*
X89662190Y-65366285D01*
X89614571Y-65271047D01*
X89519333Y-65223428D01*
X89281238Y-65223428D01*
X89186000Y-65175809D01*
X88281238Y-65556761D02*
X88376476Y-65604380D01*
X88566952Y-65604380D01*
X88662190Y-65556761D01*
X88709809Y-65509142D01*
X88757428Y-65413904D01*
X88757428Y-65128190D01*
X88709809Y-65032952D01*
X88662190Y-64985333D01*
X88566952Y-64937714D01*
X88376476Y-64937714D01*
X88281238Y-64985333D01*
X87471714Y-65556761D02*
X87566952Y-65604380D01*
X87757428Y-65604380D01*
X87852666Y-65556761D01*
X87900285Y-65461523D01*
X87900285Y-65080571D01*
X87852666Y-64985333D01*
X87757428Y-64937714D01*
X87566952Y-64937714D01*
X87471714Y-64985333D01*
X87424095Y-65080571D01*
X87424095Y-65175809D01*
X87900285Y-65271047D01*
X86328857Y-64937714D02*
X86090761Y-65604380D01*
X85852666Y-64937714D01*
X85281238Y-64604380D02*
X85186000Y-64604380D01*
X85090761Y-64652000D01*
X85043142Y-64699619D01*
X84995523Y-64794857D01*
X84947904Y-64985333D01*
X84947904Y-65223428D01*
X84995523Y-65413904D01*
X85043142Y-65509142D01*
X85090761Y-65556761D01*
X85186000Y-65604380D01*
X85281238Y-65604380D01*
X85376476Y-65556761D01*
X85424095Y-65509142D01*
X85471714Y-65413904D01*
X85519333Y-65223428D01*
X85519333Y-64985333D01*
X85471714Y-64794857D01*
X85424095Y-64699619D01*
X85376476Y-64652000D01*
X85281238Y-64604380D01*
X83995523Y-65604380D02*
X84566952Y-65604380D01*
X84281238Y-65604380D02*
X84281238Y-64604380D01*
X84376476Y-64747238D01*
X84471714Y-64842476D01*
X84566952Y-64890095D01*
X97805047Y-66968666D02*
X97328857Y-66968666D01*
X97900285Y-67254380D02*
X97566952Y-66254380D01*
X97233619Y-67254380D01*
X96471714Y-67254380D02*
X96471714Y-66254380D01*
X96471714Y-67206761D02*
X96566952Y-67254380D01*
X96757428Y-67254380D01*
X96852666Y-67206761D01*
X96900285Y-67159142D01*
X96947904Y-67063904D01*
X96947904Y-66778190D01*
X96900285Y-66682952D01*
X96852666Y-66635333D01*
X96757428Y-66587714D01*
X96566952Y-66587714D01*
X96471714Y-66635333D01*
X95995523Y-67254380D02*
X95995523Y-66587714D01*
X95995523Y-66778190D02*
X95947904Y-66682952D01*
X95900285Y-66635333D01*
X95805047Y-66587714D01*
X95709809Y-66587714D01*
X95376476Y-67254380D02*
X95376476Y-66587714D01*
X95376476Y-66254380D02*
X95424095Y-66302000D01*
X95376476Y-66349619D01*
X95328857Y-66302000D01*
X95376476Y-66254380D01*
X95376476Y-66349619D01*
X94519333Y-67206761D02*
X94614571Y-67254380D01*
X94805047Y-67254380D01*
X94900285Y-67206761D01*
X94947904Y-67111523D01*
X94947904Y-66730571D01*
X94900285Y-66635333D01*
X94805047Y-66587714D01*
X94614571Y-66587714D01*
X94519333Y-66635333D01*
X94471714Y-66730571D01*
X94471714Y-66825809D01*
X94947904Y-66921047D01*
X94043142Y-66587714D02*
X94043142Y-67254380D01*
X94043142Y-66682952D02*
X93995523Y-66635333D01*
X93900285Y-66587714D01*
X93757428Y-66587714D01*
X93662190Y-66635333D01*
X93614571Y-66730571D01*
X93614571Y-67254380D01*
X92376476Y-67254380D02*
X92376476Y-66254380D01*
X91805047Y-67254380D02*
X92233619Y-66682952D01*
X91805047Y-66254380D02*
X92376476Y-66825809D01*
X91233619Y-67254380D02*
X91328857Y-67206761D01*
X91376476Y-67159142D01*
X91424095Y-67063904D01*
X91424095Y-66778190D01*
X91376476Y-66682952D01*
X91328857Y-66635333D01*
X91233619Y-66587714D01*
X91090761Y-66587714D01*
X90995523Y-66635333D01*
X90947904Y-66682952D01*
X90900285Y-66778190D01*
X90900285Y-67063904D01*
X90947904Y-67159142D01*
X90995523Y-67206761D01*
X91090761Y-67254380D01*
X91233619Y-67254380D01*
X90471714Y-67254380D02*
X90471714Y-66254380D01*
X90043142Y-67254380D02*
X90043142Y-66730571D01*
X90090761Y-66635333D01*
X90186000Y-66587714D01*
X90328857Y-66587714D01*
X90424095Y-66635333D01*
X90471714Y-66682952D01*
X89424095Y-67254380D02*
X89519333Y-67206761D01*
X89566952Y-67111523D01*
X89566952Y-66254380D01*
X89043142Y-67254380D02*
X89043142Y-66254380D01*
X89043142Y-66635333D02*
X88947904Y-66587714D01*
X88757428Y-66587714D01*
X88662190Y-66635333D01*
X88614571Y-66682952D01*
X88566952Y-66778190D01*
X88566952Y-67063904D01*
X88614571Y-67159142D01*
X88662190Y-67206761D01*
X88757428Y-67254380D01*
X88947904Y-67254380D01*
X89043142Y-67206761D01*
X87757428Y-67206761D02*
X87852666Y-67254380D01*
X88043142Y-67254380D01*
X88138380Y-67206761D01*
X88186000Y-67111523D01*
X88186000Y-66730571D01*
X88138380Y-66635333D01*
X88043142Y-66587714D01*
X87852666Y-66587714D01*
X87757428Y-66635333D01*
X87709809Y-66730571D01*
X87709809Y-66825809D01*
X88186000Y-66921047D01*
X86852666Y-67206761D02*
X86947904Y-67254380D01*
X87138380Y-67254380D01*
X87233619Y-67206761D01*
X87281238Y-67159142D01*
X87328857Y-67063904D01*
X87328857Y-66778190D01*
X87281238Y-66682952D01*
X87233619Y-66635333D01*
X87138380Y-66587714D01*
X86947904Y-66587714D01*
X86852666Y-66635333D01*
X86424095Y-67254380D02*
X86424095Y-66254380D01*
X86328857Y-66873428D02*
X86043142Y-67254380D01*
X86043142Y-66587714D02*
X86424095Y-66968666D01*
X85233619Y-67206761D02*
X85328857Y-67254380D01*
X85519333Y-67254380D01*
X85614571Y-67206761D01*
X85662190Y-67111523D01*
X85662190Y-66730571D01*
X85614571Y-66635333D01*
X85519333Y-66587714D01*
X85328857Y-66587714D01*
X85233619Y-66635333D01*
X85186000Y-66730571D01*
X85186000Y-66825809D01*
X85662190Y-66921047D01*
X84757428Y-67254380D02*
X84757428Y-66587714D01*
X84757428Y-66778190D02*
X84709809Y-66682952D01*
X84662190Y-66635333D01*
X84566952Y-66587714D01*
X84471714Y-66587714D01*
X96043142Y-67999619D02*
X95995523Y-67952000D01*
X95900285Y-67904380D01*
X95662190Y-67904380D01*
X95566952Y-67952000D01*
X95519333Y-67999619D01*
X95471714Y-68094857D01*
X95471714Y-68190095D01*
X95519333Y-68332952D01*
X96090761Y-68904380D01*
X95471714Y-68904380D01*
X94852666Y-67904380D02*
X94757428Y-67904380D01*
X94662190Y-67952000D01*
X94614571Y-67999619D01*
X94566952Y-68094857D01*
X94519333Y-68285333D01*
X94519333Y-68523428D01*
X94566952Y-68713904D01*
X94614571Y-68809142D01*
X94662190Y-68856761D01*
X94757428Y-68904380D01*
X94852666Y-68904380D01*
X94947904Y-68856761D01*
X94995523Y-68809142D01*
X95043142Y-68713904D01*
X95090761Y-68523428D01*
X95090761Y-68285333D01*
X95043142Y-68094857D01*
X94995523Y-67999619D01*
X94947904Y-67952000D01*
X94852666Y-67904380D01*
X94138380Y-67999619D02*
X94090761Y-67952000D01*
X93995523Y-67904380D01*
X93757428Y-67904380D01*
X93662190Y-67952000D01*
X93614571Y-67999619D01*
X93566952Y-68094857D01*
X93566952Y-68190095D01*
X93614571Y-68332952D01*
X94186000Y-68904380D01*
X93566952Y-68904380D01*
X92614571Y-68904380D02*
X93186000Y-68904380D01*
X92900285Y-68904380D02*
X92900285Y-67904380D01*
X92995523Y-68047238D01*
X93090761Y-68142476D01*
X93186000Y-68190095D01*
X92186000Y-68523428D02*
X91424095Y-68523428D01*
X90757428Y-67904380D02*
X90662190Y-67904380D01*
X90566952Y-67952000D01*
X90519333Y-67999619D01*
X90471714Y-68094857D01*
X90424095Y-68285333D01*
X90424095Y-68523428D01*
X90471714Y-68713904D01*
X90519333Y-68809142D01*
X90566952Y-68856761D01*
X90662190Y-68904380D01*
X90757428Y-68904380D01*
X90852666Y-68856761D01*
X90900285Y-68809142D01*
X90947904Y-68713904D01*
X90995523Y-68523428D01*
X90995523Y-68285333D01*
X90947904Y-68094857D01*
X90900285Y-67999619D01*
X90852666Y-67952000D01*
X90757428Y-67904380D01*
X89519333Y-67904380D02*
X89995523Y-67904380D01*
X90043142Y-68380571D01*
X89995523Y-68332952D01*
X89900285Y-68285333D01*
X89662190Y-68285333D01*
X89566952Y-68332952D01*
X89519333Y-68380571D01*
X89471714Y-68475809D01*
X89471714Y-68713904D01*
X89519333Y-68809142D01*
X89566952Y-68856761D01*
X89662190Y-68904380D01*
X89900285Y-68904380D01*
X89995523Y-68856761D01*
X90043142Y-68809142D01*
X89043142Y-68523428D02*
X88281238Y-68523428D01*
X87281238Y-68904380D02*
X87852666Y-68904380D01*
X87566952Y-68904380D02*
X87566952Y-67904380D01*
X87662190Y-68047238D01*
X87757428Y-68142476D01*
X87852666Y-68190095D01*
X86709809Y-68332952D02*
X86805047Y-68285333D01*
X86852666Y-68237714D01*
X86900285Y-68142476D01*
X86900285Y-68094857D01*
X86852666Y-67999619D01*
X86805047Y-67952000D01*
X86709809Y-67904380D01*
X86519333Y-67904380D01*
X86424095Y-67952000D01*
X86376476Y-67999619D01*
X86328857Y-68094857D01*
X86328857Y-68142476D01*
X86376476Y-68237714D01*
X86424095Y-68285333D01*
X86519333Y-68332952D01*
X86709809Y-68332952D01*
X86805047Y-68380571D01*
X86852666Y-68428190D01*
X86900285Y-68523428D01*
X86900285Y-68713904D01*
X86852666Y-68809142D01*
X86805047Y-68856761D01*
X86709809Y-68904380D01*
X86519333Y-68904380D01*
X86424095Y-68856761D01*
X86376476Y-68809142D01*
X86328857Y-68713904D01*
X86328857Y-68523428D01*
X86376476Y-68428190D01*
X86424095Y-68380571D01*
X86519333Y-68332952D01*
%LPC*%
D11*
X154686000Y-89916000D03*
X154686000Y-64262000D03*
X80010000Y-89916000D03*
X80010000Y-64262000D03*
D12*
X96298000Y-62865000D03*
D13*
X98298000Y-62865000D03*
D14*
X81000600Y-69977000D03*
X81000600Y-83947000D03*
D15*
X80416400Y-76962000D03*
D16*
X83540600Y-80137000D03*
X83540600Y-73787000D03*
X86080600Y-73787000D03*
X86080600Y-80137000D03*
X83540600Y-78105000D03*
X83540600Y-75946000D03*
D17*
X144526000Y-72898000D03*
X136906000Y-88138000D03*
X144526000Y-75438000D03*
X136906000Y-85598000D03*
X144526000Y-77978000D03*
X136906000Y-83058000D03*
X144526000Y-80518000D03*
X136906000Y-80518000D03*
X144526000Y-83058000D03*
X136906000Y-77978000D03*
X144526000Y-85598000D03*
X136906000Y-75438000D03*
X144526000Y-88138000D03*
D18*
X136906000Y-72898000D03*
D19*
X156384000Y-72898000D03*
X151384000Y-72898000D03*
D17*
X147066000Y-62484000D03*
D19*
X139446000Y-62484000D03*
D17*
X90068400Y-70866000D03*
D19*
X90068400Y-63246000D03*
D17*
X89941400Y-90449400D03*
D19*
X89941400Y-82829400D03*
D17*
X156464000Y-76708000D03*
D19*
X148844000Y-76708000D03*
D20*
X148844000Y-81280000D03*
D21*
X156464000Y-81280000D03*
D19*
X144526000Y-69850000D03*
X142026000Y-69850000D03*
X133564000Y-69850000D03*
X131064000Y-69850000D03*
X122896000Y-69850000D03*
X120396000Y-69850000D03*
X111720000Y-69850000D03*
X109220000Y-69850000D03*
X100798000Y-69850000D03*
X98298000Y-69850000D03*
X89916000Y-75503400D03*
X89916000Y-78003400D03*
D17*
X133604000Y-72898000D03*
X125984000Y-88138000D03*
X133604000Y-75438000D03*
X125984000Y-85598000D03*
X133604000Y-77978000D03*
X125984000Y-83058000D03*
X133604000Y-80518000D03*
X125984000Y-80518000D03*
X133604000Y-83058000D03*
X125984000Y-77978000D03*
X133604000Y-85598000D03*
X125984000Y-75438000D03*
X133604000Y-88138000D03*
D18*
X125984000Y-72898000D03*
D17*
X122682000Y-72898000D03*
X115062000Y-88138000D03*
X122682000Y-75438000D03*
X115062000Y-85598000D03*
X122682000Y-77978000D03*
X115062000Y-83058000D03*
X122682000Y-80518000D03*
X115062000Y-80518000D03*
X122682000Y-83058000D03*
X115062000Y-77978000D03*
X122682000Y-85598000D03*
X115062000Y-75438000D03*
X122682000Y-88138000D03*
D18*
X115062000Y-72898000D03*
D17*
X111760000Y-72898000D03*
X104140000Y-90678000D03*
X111760000Y-75438000D03*
X104140000Y-88138000D03*
X111760000Y-77978000D03*
X104140000Y-85598000D03*
X111760000Y-80518000D03*
X104140000Y-83058000D03*
X111760000Y-83058000D03*
X104140000Y-80518000D03*
X111760000Y-85598000D03*
X104140000Y-77978000D03*
X111760000Y-88138000D03*
X104140000Y-75438000D03*
X111760000Y-90678000D03*
D18*
X104140000Y-72898000D03*
D17*
X100838000Y-72898000D03*
X93218000Y-90678000D03*
X100838000Y-75438000D03*
X93218000Y-88138000D03*
X100838000Y-77978000D03*
X93218000Y-85598000D03*
X100838000Y-80518000D03*
X93218000Y-83058000D03*
X100838000Y-83058000D03*
X93218000Y-80518000D03*
X100838000Y-85598000D03*
X93218000Y-77978000D03*
X100838000Y-88138000D03*
X93218000Y-75438000D03*
X100838000Y-90678000D03*
D18*
X93218000Y-72898000D03*
D22*
X134112000Y-62484000D03*
X131572000Y-62484000D03*
X129032000Y-62484000D03*
X126492000Y-62484000D03*
X123952000Y-62484000D03*
X121412000Y-62484000D03*
X118872000Y-62484000D03*
X116332000Y-62484000D03*
X113792000Y-62484000D03*
X111252000Y-62484000D03*
X108712000Y-62484000D03*
X106172000Y-62484000D03*
D23*
X103632000Y-62484000D03*
M02*
