%FSLAX45Y45*%
G04 Gerber Fmt 4.5, Leading zero omitted, Abs format (unit mm)*
G04 Created by KiCad (PCBNEW (5.1.9-0-10_14)) date 2021-06-10 12:33:13*
%MOMM*%
%LPD*%
G01*
G04 APERTURE LIST*
%TA.AperFunction,Profile*%
%ADD10C,0.100000*%
%TD*%
%ADD11C,0.200000*%
%ADD12C,0.300000*%
G04 APERTURE END LIST*
D10*
X15443200Y-5994400D02*
G75*
G02*
X15900400Y-6451600I0J-457200D01*
G01*
X15900400Y-8966200D02*
G75*
G02*
X15443200Y-9423400I-457200J0D01*
G01*
X8026400Y-9423400D02*
G75*
G02*
X7569200Y-8966200I0J457200D01*
G01*
X7569200Y-6451600D02*
G75*
G02*
X8026400Y-5994400I457200J0D01*
G01*
X7569200Y-8966200D02*
X7569200Y-6451600D01*
X8026400Y-5994400D02*
X15443200Y-5994400D01*
X15900400Y-6451600D02*
X15900400Y-8966200D01*
X15443200Y-9423400D02*
X8026400Y-9423400D01*
D11*
X12634280Y-9068120D02*
X12674280Y-9108120D01*
X12674280Y-9068120D02*
X12634280Y-9108120D01*
X12811140Y-8994075D02*
X12851140Y-9034075D01*
X12851140Y-8994075D02*
X12811140Y-9034075D01*
X12979720Y-7412040D02*
X13019720Y-7452040D01*
X13019720Y-7412040D02*
X12979720Y-7452040D01*
X13467400Y-9047800D02*
X13507400Y-9087800D01*
X13507400Y-9047800D02*
X13467400Y-9087800D01*
X13512499Y-6828461D02*
X13552499Y-6868461D01*
X13552499Y-6828461D02*
X13512499Y-6868461D01*
X8066640Y-7696200D02*
G75*
G03*
X8066640Y-7696200I-25000J0D01*
G01*
X8026640Y-7626200D02*
X8026640Y-7766200D01*
X8056640Y-7626200D02*
X8056640Y-7766200D01*
X8026640Y-7766200D02*
G75*
G03*
X8056640Y-7766200I15000J0D01*
G01*
X8056640Y-7626200D02*
G75*
G03*
X8026640Y-7626200I-15000J0D01*
G01*
X8125060Y-6997700D02*
G75*
G03*
X8125060Y-6997700I-25000J0D01*
G01*
X8170060Y-6982700D02*
X8030060Y-6982700D01*
X8170060Y-7012700D02*
X8030060Y-7012700D01*
X8030060Y-6982700D02*
G75*
G03*
X8030060Y-7012700I0J-15000D01*
G01*
X8170060Y-7012700D02*
G75*
G03*
X8170060Y-6982700I0J15000D01*
G01*
X8125060Y-8394700D02*
G75*
G03*
X8125060Y-8394700I-25000J0D01*
G01*
X8170060Y-8379700D02*
X8030060Y-8379700D01*
X8170060Y-8409700D02*
X8030060Y-8409700D01*
X8030060Y-8379700D02*
G75*
G03*
X8030060Y-8409700I0J-15000D01*
G01*
X8170060Y-8409700D02*
G75*
G03*
X8170060Y-8379700I0J15000D01*
G01*
X9629800Y-6256500D02*
X9629800Y-6316500D01*
X9599800Y-6286500D02*
X9659800Y-6286500D01*
X9829800Y-6256500D02*
X9829800Y-6316500D01*
X9799800Y-6286500D02*
X9859800Y-6286500D01*
X8380577Y-7405217D02*
X8380577Y-7352183D01*
X8327543Y-7352183D01*
X8327543Y-7405217D01*
X8380577Y-7405217D01*
X8380577Y-7621117D02*
X8380577Y-7568083D01*
X8327543Y-7568083D01*
X8327543Y-7621117D01*
X8380577Y-7621117D01*
X8380577Y-7837017D02*
X8380577Y-7783983D01*
X8327543Y-7783983D01*
X8327543Y-7837017D01*
X8380577Y-7837017D01*
X8380577Y-8040217D02*
X8380577Y-7987183D01*
X8327543Y-7987183D01*
X8327543Y-8040217D01*
X8380577Y-8040217D01*
X8634577Y-7405217D02*
X8634577Y-7352183D01*
X8581543Y-7352183D01*
X8581543Y-7405217D01*
X8634577Y-7405217D01*
X8634577Y-8040217D02*
X8634577Y-7987183D01*
X8581543Y-7987183D01*
X8581543Y-8040217D01*
X8634577Y-8040217D01*
X8991600Y-7590340D02*
X9031600Y-7550340D01*
X8991600Y-7510340D01*
X8951600Y-7550340D01*
X8991600Y-7590340D01*
X8991600Y-7840340D02*
X9031600Y-7800340D01*
X8991600Y-7760340D01*
X8951600Y-7800340D01*
X8991600Y-7840340D01*
X8994140Y-8322940D02*
X9034140Y-8282940D01*
X8994140Y-8242940D01*
X8954140Y-8282940D01*
X8994140Y-8322940D01*
X8994140Y-9084940D02*
X9034140Y-9044940D01*
X8994140Y-9004940D01*
X8954140Y-9044940D01*
X8994140Y-9084940D01*
X9006840Y-6364600D02*
X9046840Y-6324600D01*
X9006840Y-6284600D01*
X8966840Y-6324600D01*
X9006840Y-6364600D01*
X9006840Y-7126600D02*
X9046840Y-7086600D01*
X9006840Y-7046600D01*
X8966840Y-7086600D01*
X9006840Y-7126600D01*
X9321800Y-7329800D02*
X9361800Y-7289800D01*
X9321800Y-7249800D01*
X9281800Y-7289800D01*
X9321800Y-7329800D01*
X9321800Y-7583800D02*
X9361800Y-7543800D01*
X9321800Y-7503800D01*
X9281800Y-7543800D01*
X9321800Y-7583800D01*
X9321800Y-7837800D02*
X9361800Y-7797800D01*
X9321800Y-7757800D01*
X9281800Y-7797800D01*
X9321800Y-7837800D01*
X9321800Y-8091800D02*
X9361800Y-8051800D01*
X9321800Y-8011800D01*
X9281800Y-8051800D01*
X9321800Y-8091800D01*
X9321800Y-8345800D02*
X9361800Y-8305800D01*
X9321800Y-8265800D01*
X9281800Y-8305800D01*
X9321800Y-8345800D01*
X9321800Y-8599800D02*
X9361800Y-8559800D01*
X9321800Y-8519800D01*
X9281800Y-8559800D01*
X9321800Y-8599800D01*
X9321800Y-8853800D02*
X9361800Y-8813800D01*
X9321800Y-8773800D01*
X9281800Y-8813800D01*
X9321800Y-8853800D01*
X9321800Y-9107800D02*
X9361800Y-9067800D01*
X9321800Y-9027800D01*
X9281800Y-9067800D01*
X9321800Y-9107800D01*
X9829800Y-7025000D02*
X9869800Y-6985000D01*
X9829800Y-6945000D01*
X9789800Y-6985000D01*
X9829800Y-7025000D01*
X10079800Y-7025000D02*
X10119800Y-6985000D01*
X10079800Y-6945000D01*
X10039800Y-6985000D01*
X10079800Y-7025000D01*
X10083800Y-7329800D02*
X10123800Y-7289800D01*
X10083800Y-7249800D01*
X10043800Y-7289800D01*
X10083800Y-7329800D01*
X10083800Y-7583800D02*
X10123800Y-7543800D01*
X10083800Y-7503800D01*
X10043800Y-7543800D01*
X10083800Y-7583800D01*
X10083800Y-7837800D02*
X10123800Y-7797800D01*
X10083800Y-7757800D01*
X10043800Y-7797800D01*
X10083800Y-7837800D01*
X10083800Y-8091800D02*
X10123800Y-8051800D01*
X10083800Y-8011800D01*
X10043800Y-8051800D01*
X10083800Y-8091800D01*
X10083800Y-8345800D02*
X10123800Y-8305800D01*
X10083800Y-8265800D01*
X10043800Y-8305800D01*
X10083800Y-8345800D01*
X10083800Y-8599800D02*
X10123800Y-8559800D01*
X10083800Y-8519800D01*
X10043800Y-8559800D01*
X10083800Y-8599800D01*
X10083800Y-8853800D02*
X10123800Y-8813800D01*
X10083800Y-8773800D01*
X10043800Y-8813800D01*
X10083800Y-8853800D01*
X10083800Y-9107800D02*
X10123800Y-9067800D01*
X10083800Y-9027800D01*
X10043800Y-9067800D01*
X10083800Y-9107800D01*
X10414000Y-7329800D02*
X10454000Y-7289800D01*
X10414000Y-7249800D01*
X10374000Y-7289800D01*
X10414000Y-7329800D01*
X10414000Y-7583800D02*
X10454000Y-7543800D01*
X10414000Y-7503800D01*
X10374000Y-7543800D01*
X10414000Y-7583800D01*
X10414000Y-7837800D02*
X10454000Y-7797800D01*
X10414000Y-7757800D01*
X10374000Y-7797800D01*
X10414000Y-7837800D01*
X10414000Y-8091800D02*
X10454000Y-8051800D01*
X10414000Y-8011800D01*
X10374000Y-8051800D01*
X10414000Y-8091800D01*
X10414000Y-8345800D02*
X10454000Y-8305800D01*
X10414000Y-8265800D01*
X10374000Y-8305800D01*
X10414000Y-8345800D01*
X10414000Y-8599800D02*
X10454000Y-8559800D01*
X10414000Y-8519800D01*
X10374000Y-8559800D01*
X10414000Y-8599800D01*
X10414000Y-8853800D02*
X10454000Y-8813800D01*
X10414000Y-8773800D01*
X10374000Y-8813800D01*
X10414000Y-8853800D01*
X10414000Y-9107800D02*
X10454000Y-9067800D01*
X10414000Y-9027800D01*
X10374000Y-9067800D01*
X10414000Y-9107800D01*
X10922000Y-7025000D02*
X10962000Y-6985000D01*
X10922000Y-6945000D01*
X10882000Y-6985000D01*
X10922000Y-7025000D01*
X11172000Y-7025000D02*
X11212000Y-6985000D01*
X11172000Y-6945000D01*
X11132000Y-6985000D01*
X11172000Y-7025000D01*
X11176000Y-7329800D02*
X11216000Y-7289800D01*
X11176000Y-7249800D01*
X11136000Y-7289800D01*
X11176000Y-7329800D01*
X11176000Y-7583800D02*
X11216000Y-7543800D01*
X11176000Y-7503800D01*
X11136000Y-7543800D01*
X11176000Y-7583800D01*
X11176000Y-7837800D02*
X11216000Y-7797800D01*
X11176000Y-7757800D01*
X11136000Y-7797800D01*
X11176000Y-7837800D01*
X11176000Y-8091800D02*
X11216000Y-8051800D01*
X11176000Y-8011800D01*
X11136000Y-8051800D01*
X11176000Y-8091800D01*
X11176000Y-8345800D02*
X11216000Y-8305800D01*
X11176000Y-8265800D01*
X11136000Y-8305800D01*
X11176000Y-8345800D01*
X11176000Y-8599800D02*
X11216000Y-8559800D01*
X11176000Y-8519800D01*
X11136000Y-8559800D01*
X11176000Y-8599800D01*
X11176000Y-8853800D02*
X11216000Y-8813800D01*
X11176000Y-8773800D01*
X11136000Y-8813800D01*
X11176000Y-8853800D01*
X11176000Y-9107800D02*
X11216000Y-9067800D01*
X11176000Y-9027800D01*
X11136000Y-9067800D01*
X11176000Y-9107800D01*
X11506200Y-7329800D02*
X11546200Y-7289800D01*
X11506200Y-7249800D01*
X11466200Y-7289800D01*
X11506200Y-7329800D01*
X11506200Y-7583800D02*
X11546200Y-7543800D01*
X11506200Y-7503800D01*
X11466200Y-7543800D01*
X11506200Y-7583800D01*
X11506200Y-7837800D02*
X11546200Y-7797800D01*
X11506200Y-7757800D01*
X11466200Y-7797800D01*
X11506200Y-7837800D01*
X11506200Y-8091800D02*
X11546200Y-8051800D01*
X11506200Y-8011800D01*
X11466200Y-8051800D01*
X11506200Y-8091800D01*
X11506200Y-8345800D02*
X11546200Y-8305800D01*
X11506200Y-8265800D01*
X11466200Y-8305800D01*
X11506200Y-8345800D01*
X11506200Y-8599800D02*
X11546200Y-8559800D01*
X11506200Y-8519800D01*
X11466200Y-8559800D01*
X11506200Y-8599800D01*
X11506200Y-8853800D02*
X11546200Y-8813800D01*
X11506200Y-8773800D01*
X11466200Y-8813800D01*
X11506200Y-8853800D01*
X12039600Y-7025000D02*
X12079600Y-6985000D01*
X12039600Y-6945000D01*
X11999600Y-6985000D01*
X12039600Y-7025000D01*
X12268200Y-7329800D02*
X12308200Y-7289800D01*
X12268200Y-7249800D01*
X12228200Y-7289800D01*
X12268200Y-7329800D01*
X12268200Y-7583800D02*
X12308200Y-7543800D01*
X12268200Y-7503800D01*
X12228200Y-7543800D01*
X12268200Y-7583800D01*
X12268200Y-7837800D02*
X12308200Y-7797800D01*
X12268200Y-7757800D01*
X12228200Y-7797800D01*
X12268200Y-7837800D01*
X12268200Y-8091800D02*
X12308200Y-8051800D01*
X12268200Y-8011800D01*
X12228200Y-8051800D01*
X12268200Y-8091800D01*
X12268200Y-8345800D02*
X12308200Y-8305800D01*
X12268200Y-8265800D01*
X12228200Y-8305800D01*
X12268200Y-8345800D01*
X12268200Y-8599800D02*
X12308200Y-8559800D01*
X12268200Y-8519800D01*
X12228200Y-8559800D01*
X12268200Y-8599800D01*
X12268200Y-8853800D02*
X12308200Y-8813800D01*
X12268200Y-8773800D01*
X12228200Y-8813800D01*
X12268200Y-8853800D01*
X12289600Y-7025000D02*
X12329600Y-6985000D01*
X12289600Y-6945000D01*
X12249600Y-6985000D01*
X12289600Y-7025000D01*
X12598400Y-7329800D02*
X12638400Y-7289800D01*
X12598400Y-7249800D01*
X12558400Y-7289800D01*
X12598400Y-7329800D01*
X12598400Y-7583800D02*
X12638400Y-7543800D01*
X12598400Y-7503800D01*
X12558400Y-7543800D01*
X12598400Y-7583800D01*
X12598400Y-7837800D02*
X12638400Y-7797800D01*
X12598400Y-7757800D01*
X12558400Y-7797800D01*
X12598400Y-7837800D01*
X12598400Y-8091800D02*
X12638400Y-8051800D01*
X12598400Y-8011800D01*
X12558400Y-8051800D01*
X12598400Y-8091800D01*
X12598400Y-8345800D02*
X12638400Y-8305800D01*
X12598400Y-8265800D01*
X12558400Y-8305800D01*
X12598400Y-8345800D01*
X12598400Y-8599800D02*
X12638400Y-8559800D01*
X12598400Y-8519800D01*
X12558400Y-8559800D01*
X12598400Y-8599800D01*
X12598400Y-8853800D02*
X12638400Y-8813800D01*
X12598400Y-8773800D01*
X12558400Y-8813800D01*
X12598400Y-8853800D01*
X13106400Y-7025000D02*
X13146400Y-6985000D01*
X13106400Y-6945000D01*
X13066400Y-6985000D01*
X13106400Y-7025000D01*
X13356400Y-7025000D02*
X13396400Y-6985000D01*
X13356400Y-6945000D01*
X13316400Y-6985000D01*
X13356400Y-7025000D01*
X13360400Y-7329800D02*
X13400400Y-7289800D01*
X13360400Y-7249800D01*
X13320400Y-7289800D01*
X13360400Y-7329800D01*
X13360400Y-7583800D02*
X13400400Y-7543800D01*
X13360400Y-7503800D01*
X13320400Y-7543800D01*
X13360400Y-7583800D01*
X13360400Y-7837800D02*
X13400400Y-7797800D01*
X13360400Y-7757800D01*
X13320400Y-7797800D01*
X13360400Y-7837800D01*
X13360400Y-8091800D02*
X13400400Y-8051800D01*
X13360400Y-8011800D01*
X13320400Y-8051800D01*
X13360400Y-8091800D01*
X13360400Y-8345800D02*
X13400400Y-8305800D01*
X13360400Y-8265800D01*
X13320400Y-8305800D01*
X13360400Y-8345800D01*
X13360400Y-8599800D02*
X13400400Y-8559800D01*
X13360400Y-8519800D01*
X13320400Y-8559800D01*
X13360400Y-8599800D01*
X13360400Y-8853800D02*
X13400400Y-8813800D01*
X13360400Y-8773800D01*
X13320400Y-8813800D01*
X13360400Y-8853800D01*
X13690600Y-7329800D02*
X13730600Y-7289800D01*
X13690600Y-7249800D01*
X13650600Y-7289800D01*
X13690600Y-7329800D01*
X13690600Y-7583800D02*
X13730600Y-7543800D01*
X13690600Y-7503800D01*
X13650600Y-7543800D01*
X13690600Y-7583800D01*
X13690600Y-7837800D02*
X13730600Y-7797800D01*
X13690600Y-7757800D01*
X13650600Y-7797800D01*
X13690600Y-7837800D01*
X13690600Y-8091800D02*
X13730600Y-8051800D01*
X13690600Y-8011800D01*
X13650600Y-8051800D01*
X13690600Y-8091800D01*
X13690600Y-8345800D02*
X13730600Y-8305800D01*
X13690600Y-8265800D01*
X13650600Y-8305800D01*
X13690600Y-8345800D01*
X13690600Y-8599800D02*
X13730600Y-8559800D01*
X13690600Y-8519800D01*
X13650600Y-8559800D01*
X13690600Y-8599800D01*
X13690600Y-8853800D02*
X13730600Y-8813800D01*
X13690600Y-8773800D01*
X13650600Y-8813800D01*
X13690600Y-8853800D01*
X13944600Y-6288400D02*
X13984600Y-6248400D01*
X13944600Y-6208400D01*
X13904600Y-6248400D01*
X13944600Y-6288400D01*
X14202600Y-7025000D02*
X14242600Y-6985000D01*
X14202600Y-6945000D01*
X14162600Y-6985000D01*
X14202600Y-7025000D01*
X14452600Y-7025000D02*
X14492600Y-6985000D01*
X14452600Y-6945000D01*
X14412600Y-6985000D01*
X14452600Y-7025000D01*
X14452600Y-7329800D02*
X14492600Y-7289800D01*
X14452600Y-7249800D01*
X14412600Y-7289800D01*
X14452600Y-7329800D01*
X14452600Y-7583800D02*
X14492600Y-7543800D01*
X14452600Y-7503800D01*
X14412600Y-7543800D01*
X14452600Y-7583800D01*
X14452600Y-7837800D02*
X14492600Y-7797800D01*
X14452600Y-7757800D01*
X14412600Y-7797800D01*
X14452600Y-7837800D01*
X14452600Y-8091800D02*
X14492600Y-8051800D01*
X14452600Y-8011800D01*
X14412600Y-8051800D01*
X14452600Y-8091800D01*
X14452600Y-8345800D02*
X14492600Y-8305800D01*
X14452600Y-8265800D01*
X14412600Y-8305800D01*
X14452600Y-8345800D01*
X14452600Y-8599800D02*
X14492600Y-8559800D01*
X14452600Y-8519800D01*
X14412600Y-8559800D01*
X14452600Y-8599800D01*
X14452600Y-8853800D02*
X14492600Y-8813800D01*
X14452600Y-8773800D01*
X14412600Y-8813800D01*
X14452600Y-8853800D01*
X14706600Y-6288400D02*
X14746600Y-6248400D01*
X14706600Y-6208400D01*
X14666600Y-6248400D01*
X14706600Y-6288400D01*
X14884400Y-7710800D02*
X14924400Y-7670800D01*
X14884400Y-7630800D01*
X14844400Y-7670800D01*
X14884400Y-7710800D01*
X15138400Y-7329800D02*
X15178400Y-7289800D01*
X15138400Y-7249800D01*
X15098400Y-7289800D01*
X15138400Y-7329800D01*
X15638400Y-7329800D02*
X15678400Y-7289800D01*
X15638400Y-7249800D01*
X15598400Y-7289800D01*
X15638400Y-7329800D01*
X15646400Y-7710800D02*
X15686400Y-7670800D01*
X15646400Y-7630800D01*
X15606400Y-7670800D01*
X15646400Y-7710800D01*
X10313200Y-6198400D02*
X10413200Y-6298400D01*
X10413200Y-6198400D02*
X10313200Y-6298400D01*
X10413200Y-6248400D02*
G75*
G03*
X10413200Y-6248400I-50000J0D01*
G01*
X10567200Y-6198400D02*
X10667200Y-6298400D01*
X10667200Y-6198400D02*
X10567200Y-6298400D01*
X10667200Y-6248400D02*
G75*
G03*
X10667200Y-6248400I-50000J0D01*
G01*
X10821200Y-6198400D02*
X10921200Y-6298400D01*
X10921200Y-6198400D02*
X10821200Y-6298400D01*
X10921200Y-6248400D02*
G75*
G03*
X10921200Y-6248400I-50000J0D01*
G01*
X11075200Y-6198400D02*
X11175200Y-6298400D01*
X11175200Y-6198400D02*
X11075200Y-6298400D01*
X11175200Y-6248400D02*
G75*
G03*
X11175200Y-6248400I-50000J0D01*
G01*
X11329200Y-6198400D02*
X11429200Y-6298400D01*
X11429200Y-6198400D02*
X11329200Y-6298400D01*
X11429200Y-6248400D02*
G75*
G03*
X11429200Y-6248400I-50000J0D01*
G01*
X11583200Y-6198400D02*
X11683200Y-6298400D01*
X11683200Y-6198400D02*
X11583200Y-6298400D01*
X11683200Y-6248400D02*
G75*
G03*
X11683200Y-6248400I-50000J0D01*
G01*
X11837200Y-6198400D02*
X11937200Y-6298400D01*
X11937200Y-6198400D02*
X11837200Y-6298400D01*
X11937200Y-6248400D02*
G75*
G03*
X11937200Y-6248400I-50000J0D01*
G01*
X12091200Y-6198400D02*
X12191200Y-6298400D01*
X12191200Y-6198400D02*
X12091200Y-6298400D01*
X12191200Y-6248400D02*
G75*
G03*
X12191200Y-6248400I-50000J0D01*
G01*
X12345200Y-6198400D02*
X12445200Y-6298400D01*
X12445200Y-6198400D02*
X12345200Y-6298400D01*
X12445200Y-6248400D02*
G75*
G03*
X12445200Y-6248400I-50000J0D01*
G01*
X12599200Y-6198400D02*
X12699200Y-6298400D01*
X12699200Y-6198400D02*
X12599200Y-6298400D01*
X12699200Y-6248400D02*
G75*
G03*
X12699200Y-6248400I-50000J0D01*
G01*
X12853200Y-6198400D02*
X12953200Y-6298400D01*
X12953200Y-6198400D02*
X12853200Y-6298400D01*
X12953200Y-6248400D02*
G75*
G03*
X12953200Y-6248400I-50000J0D01*
G01*
X13107200Y-6198400D02*
X13207200Y-6298400D01*
X13207200Y-6198400D02*
X13107200Y-6298400D01*
X13207200Y-6248400D02*
G75*
G03*
X13207200Y-6248400I-50000J0D01*
G01*
X13361200Y-6198400D02*
X13461200Y-6298400D01*
X13461200Y-6198400D02*
X13361200Y-6298400D01*
X13461200Y-6248400D02*
G75*
G03*
X13461200Y-6248400I-50000J0D01*
G01*
X14829400Y-8073000D02*
X14939400Y-8183000D01*
X14939400Y-8073000D02*
X14829400Y-8183000D01*
X14884400Y-8073000D02*
X14884400Y-8183000D01*
X14829400Y-8128000D02*
X14939400Y-8128000D01*
X15591400Y-8073000D02*
X15701400Y-8183000D01*
X15701400Y-8073000D02*
X15591400Y-8183000D01*
X15646400Y-8073000D02*
X15646400Y-8183000D01*
X15591400Y-8128000D02*
X15701400Y-8128000D01*
X7841000Y-6266200D02*
X8161000Y-6586200D01*
X8161000Y-6266200D02*
X7841000Y-6586200D01*
X8114138Y-6539338D02*
X8114138Y-6313062D01*
X7887862Y-6313062D01*
X7887862Y-6539338D01*
X8114138Y-6539338D01*
X7841000Y-8831600D02*
X8161000Y-9151600D01*
X8161000Y-8831600D02*
X7841000Y-9151600D01*
X8114138Y-9104738D02*
X8114138Y-8878462D01*
X7887862Y-8878462D01*
X7887862Y-9104738D01*
X8114138Y-9104738D01*
X15308600Y-6266200D02*
X15628600Y-6586200D01*
X15628600Y-6266200D02*
X15308600Y-6586200D01*
X15581738Y-6539338D02*
X15581738Y-6313062D01*
X15355462Y-6313062D01*
X15355462Y-6539338D01*
X15581738Y-6539338D01*
X15308600Y-8831600D02*
X15628600Y-9151600D01*
X15628600Y-8831600D02*
X15308600Y-9151600D01*
X15581738Y-9104738D02*
X15581738Y-8878462D01*
X15355462Y-8878462D01*
X15355462Y-9104738D01*
X15581738Y-9104738D01*
D12*
X7850628Y-9894114D02*
X7850628Y-9594114D01*
X7922057Y-9594114D01*
X7964914Y-9608400D01*
X7993486Y-9636972D01*
X8007771Y-9665543D01*
X8022057Y-9722686D01*
X8022057Y-9765543D01*
X8007771Y-9822686D01*
X7993486Y-9851257D01*
X7964914Y-9879829D01*
X7922057Y-9894114D01*
X7850628Y-9894114D01*
X8150628Y-9894114D02*
X8150628Y-9694114D01*
X8150628Y-9751257D02*
X8164914Y-9722686D01*
X8179200Y-9708400D01*
X8207771Y-9694114D01*
X8236343Y-9694114D01*
X8336343Y-9894114D02*
X8336343Y-9694114D01*
X8336343Y-9594114D02*
X8322057Y-9608400D01*
X8336343Y-9622686D01*
X8350628Y-9608400D01*
X8336343Y-9594114D01*
X8336343Y-9622686D01*
X8522057Y-9894114D02*
X8493486Y-9879829D01*
X8479200Y-9851257D01*
X8479200Y-9594114D01*
X8679200Y-9894114D02*
X8650628Y-9879829D01*
X8636343Y-9851257D01*
X8636343Y-9594114D01*
X9022057Y-9894114D02*
X9022057Y-9594114D01*
X9122057Y-9808400D01*
X9222057Y-9594114D01*
X9222057Y-9894114D01*
X9493486Y-9894114D02*
X9493486Y-9736972D01*
X9479200Y-9708400D01*
X9450628Y-9694114D01*
X9393486Y-9694114D01*
X9364914Y-9708400D01*
X9493486Y-9879829D02*
X9464914Y-9894114D01*
X9393486Y-9894114D01*
X9364914Y-9879829D01*
X9350628Y-9851257D01*
X9350628Y-9822686D01*
X9364914Y-9794114D01*
X9393486Y-9779829D01*
X9464914Y-9779829D01*
X9493486Y-9765543D01*
X9636343Y-9694114D02*
X9636343Y-9994114D01*
X9636343Y-9708400D02*
X9664914Y-9694114D01*
X9722057Y-9694114D01*
X9750628Y-9708400D01*
X9764914Y-9722686D01*
X9779200Y-9751257D01*
X9779200Y-9836972D01*
X9764914Y-9865543D01*
X9750628Y-9879829D01*
X9722057Y-9894114D01*
X9664914Y-9894114D01*
X9636343Y-9879829D01*
X9907771Y-9865543D02*
X9922057Y-9879829D01*
X9907771Y-9894114D01*
X9893486Y-9879829D01*
X9907771Y-9865543D01*
X9907771Y-9894114D01*
X9907771Y-9708400D02*
X9922057Y-9722686D01*
X9907771Y-9736972D01*
X9893486Y-9722686D01*
X9907771Y-9708400D01*
X9907771Y-9736972D01*
X7524200Y-10368400D02*
X7564200Y-10408400D01*
X7564200Y-10368400D02*
X7524200Y-10408400D01*
X7907771Y-10224114D02*
X7936343Y-10224114D01*
X7964914Y-10238400D01*
X7979200Y-10252686D01*
X7993486Y-10281257D01*
X8007771Y-10338400D01*
X8007771Y-10409829D01*
X7993486Y-10466972D01*
X7979200Y-10495543D01*
X7964914Y-10509829D01*
X7936343Y-10524114D01*
X7907771Y-10524114D01*
X7879200Y-10509829D01*
X7864914Y-10495543D01*
X7850628Y-10466972D01*
X7836343Y-10409829D01*
X7836343Y-10338400D01*
X7850628Y-10281257D01*
X7864914Y-10252686D01*
X7879200Y-10238400D01*
X7907771Y-10224114D01*
X8136343Y-10495543D02*
X8150628Y-10509829D01*
X8136343Y-10524114D01*
X8122057Y-10509829D01*
X8136343Y-10495543D01*
X8136343Y-10524114D01*
X8407771Y-10324114D02*
X8407771Y-10524114D01*
X8336343Y-10209829D02*
X8264914Y-10424114D01*
X8450628Y-10424114D01*
X8622057Y-10224114D02*
X8650628Y-10224114D01*
X8679200Y-10238400D01*
X8693486Y-10252686D01*
X8707771Y-10281257D01*
X8722057Y-10338400D01*
X8722057Y-10409829D01*
X8707771Y-10466972D01*
X8693486Y-10495543D01*
X8679200Y-10509829D01*
X8650628Y-10524114D01*
X8622057Y-10524114D01*
X8593486Y-10509829D01*
X8579200Y-10495543D01*
X8564914Y-10466972D01*
X8550628Y-10409829D01*
X8550628Y-10338400D01*
X8564914Y-10281257D01*
X8579200Y-10252686D01*
X8593486Y-10238400D01*
X8622057Y-10224114D01*
X8850628Y-10524114D02*
X8850628Y-10324114D01*
X8850628Y-10352686D02*
X8864914Y-10338400D01*
X8893486Y-10324114D01*
X8936343Y-10324114D01*
X8964914Y-10338400D01*
X8979200Y-10366972D01*
X8979200Y-10524114D01*
X8979200Y-10366972D02*
X8993486Y-10338400D01*
X9022057Y-10324114D01*
X9064914Y-10324114D01*
X9093486Y-10338400D01*
X9107771Y-10366972D01*
X9107771Y-10524114D01*
X9250628Y-10524114D02*
X9250628Y-10324114D01*
X9250628Y-10352686D02*
X9264914Y-10338400D01*
X9293486Y-10324114D01*
X9336343Y-10324114D01*
X9364914Y-10338400D01*
X9379200Y-10366972D01*
X9379200Y-10524114D01*
X9379200Y-10366972D02*
X9393486Y-10338400D01*
X9422057Y-10324114D01*
X9464914Y-10324114D01*
X9493486Y-10338400D01*
X9507771Y-10366972D01*
X9507771Y-10524114D01*
X10093486Y-10209829D02*
X9836343Y-10595543D01*
X10479200Y-10224114D02*
X10507771Y-10224114D01*
X10536343Y-10238400D01*
X10550628Y-10252686D01*
X10564914Y-10281257D01*
X10579200Y-10338400D01*
X10579200Y-10409829D01*
X10564914Y-10466972D01*
X10550628Y-10495543D01*
X10536343Y-10509829D01*
X10507771Y-10524114D01*
X10479200Y-10524114D01*
X10450628Y-10509829D01*
X10436343Y-10495543D01*
X10422057Y-10466972D01*
X10407771Y-10409829D01*
X10407771Y-10338400D01*
X10422057Y-10281257D01*
X10436343Y-10252686D01*
X10450628Y-10238400D01*
X10479200Y-10224114D01*
X10707771Y-10495543D02*
X10722057Y-10509829D01*
X10707771Y-10524114D01*
X10693486Y-10509829D01*
X10707771Y-10495543D01*
X10707771Y-10524114D01*
X10907771Y-10224114D02*
X10936343Y-10224114D01*
X10964914Y-10238400D01*
X10979200Y-10252686D01*
X10993486Y-10281257D01*
X11007771Y-10338400D01*
X11007771Y-10409829D01*
X10993486Y-10466972D01*
X10979200Y-10495543D01*
X10964914Y-10509829D01*
X10936343Y-10524114D01*
X10907771Y-10524114D01*
X10879200Y-10509829D01*
X10864914Y-10495543D01*
X10850628Y-10466972D01*
X10836343Y-10409829D01*
X10836343Y-10338400D01*
X10850628Y-10281257D01*
X10864914Y-10252686D01*
X10879200Y-10238400D01*
X10907771Y-10224114D01*
X11293486Y-10524114D02*
X11122057Y-10524114D01*
X11207771Y-10524114D02*
X11207771Y-10224114D01*
X11179200Y-10266972D01*
X11150628Y-10295543D01*
X11122057Y-10309829D01*
X11550628Y-10224114D02*
X11493486Y-10224114D01*
X11464914Y-10238400D01*
X11450628Y-10252686D01*
X11422057Y-10295543D01*
X11407771Y-10352686D01*
X11407771Y-10466972D01*
X11422057Y-10495543D01*
X11436343Y-10509829D01*
X11464914Y-10524114D01*
X11522057Y-10524114D01*
X11550628Y-10509829D01*
X11564914Y-10495543D01*
X11579200Y-10466972D01*
X11579200Y-10395543D01*
X11564914Y-10366972D01*
X11550628Y-10352686D01*
X11522057Y-10338400D01*
X11464914Y-10338400D01*
X11436343Y-10352686D01*
X11422057Y-10366972D01*
X11407771Y-10395543D01*
X11693486Y-10224114D02*
X11693486Y-10281257D01*
X11807771Y-10224114D02*
X11807771Y-10281257D01*
X12250628Y-10638400D02*
X12236343Y-10624114D01*
X12207771Y-10581257D01*
X12193486Y-10552686D01*
X12179200Y-10509829D01*
X12164914Y-10438400D01*
X12164914Y-10381257D01*
X12179200Y-10309829D01*
X12193486Y-10266972D01*
X12207771Y-10238400D01*
X12236343Y-10195543D01*
X12250628Y-10181257D01*
X12507771Y-10224114D02*
X12364914Y-10224114D01*
X12350628Y-10366972D01*
X12364914Y-10352686D01*
X12393486Y-10338400D01*
X12464914Y-10338400D01*
X12493486Y-10352686D01*
X12507771Y-10366972D01*
X12522057Y-10395543D01*
X12522057Y-10466972D01*
X12507771Y-10495543D01*
X12493486Y-10509829D01*
X12464914Y-10524114D01*
X12393486Y-10524114D01*
X12364914Y-10509829D01*
X12350628Y-10495543D01*
X12879200Y-10524114D02*
X12879200Y-10224114D01*
X13007771Y-10524114D02*
X13007771Y-10366972D01*
X12993486Y-10338400D01*
X12964914Y-10324114D01*
X12922057Y-10324114D01*
X12893486Y-10338400D01*
X12879200Y-10352686D01*
X13193486Y-10524114D02*
X13164914Y-10509829D01*
X13150628Y-10495543D01*
X13136343Y-10466972D01*
X13136343Y-10381257D01*
X13150628Y-10352686D01*
X13164914Y-10338400D01*
X13193486Y-10324114D01*
X13236343Y-10324114D01*
X13264914Y-10338400D01*
X13279200Y-10352686D01*
X13293486Y-10381257D01*
X13293486Y-10466972D01*
X13279200Y-10495543D01*
X13264914Y-10509829D01*
X13236343Y-10524114D01*
X13193486Y-10524114D01*
X13464914Y-10524114D02*
X13436343Y-10509829D01*
X13422057Y-10481257D01*
X13422057Y-10224114D01*
X13693486Y-10509829D02*
X13664914Y-10524114D01*
X13607771Y-10524114D01*
X13579200Y-10509829D01*
X13564914Y-10481257D01*
X13564914Y-10366972D01*
X13579200Y-10338400D01*
X13607771Y-10324114D01*
X13664914Y-10324114D01*
X13693486Y-10338400D01*
X13707771Y-10366972D01*
X13707771Y-10395543D01*
X13564914Y-10424114D01*
X13822057Y-10509829D02*
X13850628Y-10524114D01*
X13907771Y-10524114D01*
X13936343Y-10509829D01*
X13950628Y-10481257D01*
X13950628Y-10466972D01*
X13936343Y-10438400D01*
X13907771Y-10424114D01*
X13864914Y-10424114D01*
X13836343Y-10409829D01*
X13822057Y-10381257D01*
X13822057Y-10366972D01*
X13836343Y-10338400D01*
X13864914Y-10324114D01*
X13907771Y-10324114D01*
X13936343Y-10338400D01*
X14050628Y-10638400D02*
X14064914Y-10624114D01*
X14093486Y-10581257D01*
X14107771Y-10552686D01*
X14122057Y-10509829D01*
X14136343Y-10438400D01*
X14136343Y-10381257D01*
X14122057Y-10309829D01*
X14107771Y-10266972D01*
X14093486Y-10238400D01*
X14064914Y-10195543D01*
X14050628Y-10181257D01*
X7564200Y-10784400D02*
G75*
G03*
X7564200Y-10784400I-25000J0D01*
G01*
X7907771Y-10620114D02*
X7936343Y-10620114D01*
X7964914Y-10634400D01*
X7979200Y-10648686D01*
X7993486Y-10677257D01*
X8007771Y-10734400D01*
X8007771Y-10805829D01*
X7993486Y-10862972D01*
X7979200Y-10891543D01*
X7964914Y-10905829D01*
X7936343Y-10920114D01*
X7907771Y-10920114D01*
X7879200Y-10905829D01*
X7864914Y-10891543D01*
X7850628Y-10862972D01*
X7836343Y-10805829D01*
X7836343Y-10734400D01*
X7850628Y-10677257D01*
X7864914Y-10648686D01*
X7879200Y-10634400D01*
X7907771Y-10620114D01*
X8136343Y-10891543D02*
X8150628Y-10905829D01*
X8136343Y-10920114D01*
X8122057Y-10905829D01*
X8136343Y-10891543D01*
X8136343Y-10920114D01*
X8422057Y-10620114D02*
X8279200Y-10620114D01*
X8264914Y-10762972D01*
X8279200Y-10748686D01*
X8307771Y-10734400D01*
X8379200Y-10734400D01*
X8407771Y-10748686D01*
X8422057Y-10762972D01*
X8436343Y-10791543D01*
X8436343Y-10862972D01*
X8422057Y-10891543D01*
X8407771Y-10905829D01*
X8379200Y-10920114D01*
X8307771Y-10920114D01*
X8279200Y-10905829D01*
X8264914Y-10891543D01*
X8622057Y-10620114D02*
X8650628Y-10620114D01*
X8679200Y-10634400D01*
X8693486Y-10648686D01*
X8707771Y-10677257D01*
X8722057Y-10734400D01*
X8722057Y-10805829D01*
X8707771Y-10862972D01*
X8693486Y-10891543D01*
X8679200Y-10905829D01*
X8650628Y-10920114D01*
X8622057Y-10920114D01*
X8593486Y-10905829D01*
X8579200Y-10891543D01*
X8564914Y-10862972D01*
X8550628Y-10805829D01*
X8550628Y-10734400D01*
X8564914Y-10677257D01*
X8579200Y-10648686D01*
X8593486Y-10634400D01*
X8622057Y-10620114D01*
X8850628Y-10920114D02*
X8850628Y-10720114D01*
X8850628Y-10748686D02*
X8864914Y-10734400D01*
X8893486Y-10720114D01*
X8936343Y-10720114D01*
X8964914Y-10734400D01*
X8979200Y-10762972D01*
X8979200Y-10920114D01*
X8979200Y-10762972D02*
X8993486Y-10734400D01*
X9022057Y-10720114D01*
X9064914Y-10720114D01*
X9093486Y-10734400D01*
X9107771Y-10762972D01*
X9107771Y-10920114D01*
X9250628Y-10920114D02*
X9250628Y-10720114D01*
X9250628Y-10748686D02*
X9264914Y-10734400D01*
X9293486Y-10720114D01*
X9336343Y-10720114D01*
X9364914Y-10734400D01*
X9379200Y-10762972D01*
X9379200Y-10920114D01*
X9379200Y-10762972D02*
X9393486Y-10734400D01*
X9422057Y-10720114D01*
X9464914Y-10720114D01*
X9493486Y-10734400D01*
X9507771Y-10762972D01*
X9507771Y-10920114D01*
X10093486Y-10605829D02*
X9836343Y-10991543D01*
X10479200Y-10620114D02*
X10507771Y-10620114D01*
X10536343Y-10634400D01*
X10550628Y-10648686D01*
X10564914Y-10677257D01*
X10579200Y-10734400D01*
X10579200Y-10805829D01*
X10564914Y-10862972D01*
X10550628Y-10891543D01*
X10536343Y-10905829D01*
X10507771Y-10920114D01*
X10479200Y-10920114D01*
X10450628Y-10905829D01*
X10436343Y-10891543D01*
X10422057Y-10862972D01*
X10407771Y-10805829D01*
X10407771Y-10734400D01*
X10422057Y-10677257D01*
X10436343Y-10648686D01*
X10450628Y-10634400D01*
X10479200Y-10620114D01*
X10707771Y-10891543D02*
X10722057Y-10905829D01*
X10707771Y-10920114D01*
X10693486Y-10905829D01*
X10707771Y-10891543D01*
X10707771Y-10920114D01*
X10907771Y-10620114D02*
X10936343Y-10620114D01*
X10964914Y-10634400D01*
X10979200Y-10648686D01*
X10993486Y-10677257D01*
X11007771Y-10734400D01*
X11007771Y-10805829D01*
X10993486Y-10862972D01*
X10979200Y-10891543D01*
X10964914Y-10905829D01*
X10936343Y-10920114D01*
X10907771Y-10920114D01*
X10879200Y-10905829D01*
X10864914Y-10891543D01*
X10850628Y-10862972D01*
X10836343Y-10805829D01*
X10836343Y-10734400D01*
X10850628Y-10677257D01*
X10864914Y-10648686D01*
X10879200Y-10634400D01*
X10907771Y-10620114D01*
X11122057Y-10648686D02*
X11136343Y-10634400D01*
X11164914Y-10620114D01*
X11236343Y-10620114D01*
X11264914Y-10634400D01*
X11279200Y-10648686D01*
X11293486Y-10677257D01*
X11293486Y-10705829D01*
X11279200Y-10748686D01*
X11107771Y-10920114D01*
X11293486Y-10920114D01*
X11479200Y-10620114D02*
X11507771Y-10620114D01*
X11536343Y-10634400D01*
X11550628Y-10648686D01*
X11564914Y-10677257D01*
X11579200Y-10734400D01*
X11579200Y-10805829D01*
X11564914Y-10862972D01*
X11550628Y-10891543D01*
X11536343Y-10905829D01*
X11507771Y-10920114D01*
X11479200Y-10920114D01*
X11450628Y-10905829D01*
X11436343Y-10891543D01*
X11422057Y-10862972D01*
X11407771Y-10805829D01*
X11407771Y-10734400D01*
X11422057Y-10677257D01*
X11436343Y-10648686D01*
X11450628Y-10634400D01*
X11479200Y-10620114D01*
X11693486Y-10620114D02*
X11693486Y-10677257D01*
X11807771Y-10620114D02*
X11807771Y-10677257D01*
X12250628Y-11034400D02*
X12236343Y-11020114D01*
X12207771Y-10977257D01*
X12193486Y-10948686D01*
X12179200Y-10905829D01*
X12164914Y-10834400D01*
X12164914Y-10777257D01*
X12179200Y-10705829D01*
X12193486Y-10662972D01*
X12207771Y-10634400D01*
X12236343Y-10591543D01*
X12250628Y-10577257D01*
X12422057Y-10620114D02*
X12450628Y-10620114D01*
X12479200Y-10634400D01*
X12493486Y-10648686D01*
X12507771Y-10677257D01*
X12522057Y-10734400D01*
X12522057Y-10805829D01*
X12507771Y-10862972D01*
X12493486Y-10891543D01*
X12479200Y-10905829D01*
X12450628Y-10920114D01*
X12422057Y-10920114D01*
X12393486Y-10905829D01*
X12379200Y-10891543D01*
X12364914Y-10862972D01*
X12350628Y-10805829D01*
X12350628Y-10734400D01*
X12364914Y-10677257D01*
X12379200Y-10648686D01*
X12393486Y-10634400D01*
X12422057Y-10620114D01*
X12879200Y-10920114D02*
X12879200Y-10620114D01*
X13007771Y-10920114D02*
X13007771Y-10762972D01*
X12993486Y-10734400D01*
X12964914Y-10720114D01*
X12922057Y-10720114D01*
X12893486Y-10734400D01*
X12879200Y-10748686D01*
X13193486Y-10920114D02*
X13164914Y-10905829D01*
X13150628Y-10891543D01*
X13136343Y-10862972D01*
X13136343Y-10777257D01*
X13150628Y-10748686D01*
X13164914Y-10734400D01*
X13193486Y-10720114D01*
X13236343Y-10720114D01*
X13264914Y-10734400D01*
X13279200Y-10748686D01*
X13293486Y-10777257D01*
X13293486Y-10862972D01*
X13279200Y-10891543D01*
X13264914Y-10905829D01*
X13236343Y-10920114D01*
X13193486Y-10920114D01*
X13464914Y-10920114D02*
X13436343Y-10905829D01*
X13422057Y-10877257D01*
X13422057Y-10620114D01*
X13693486Y-10905829D02*
X13664914Y-10920114D01*
X13607771Y-10920114D01*
X13579200Y-10905829D01*
X13564914Y-10877257D01*
X13564914Y-10762972D01*
X13579200Y-10734400D01*
X13607771Y-10720114D01*
X13664914Y-10720114D01*
X13693486Y-10734400D01*
X13707771Y-10762972D01*
X13707771Y-10791543D01*
X13564914Y-10820114D01*
X13822057Y-10905829D02*
X13850628Y-10920114D01*
X13907771Y-10920114D01*
X13936343Y-10905829D01*
X13950628Y-10877257D01*
X13950628Y-10862972D01*
X13936343Y-10834400D01*
X13907771Y-10820114D01*
X13864914Y-10820114D01*
X13836343Y-10805829D01*
X13822057Y-10777257D01*
X13822057Y-10762972D01*
X13836343Y-10734400D01*
X13864914Y-10720114D01*
X13907771Y-10720114D01*
X13936343Y-10734400D01*
X14307771Y-10805829D02*
X14536343Y-10805829D01*
X14422057Y-10920114D02*
X14422057Y-10691543D01*
X14879200Y-10620114D02*
X15064914Y-10620114D01*
X14964914Y-10734400D01*
X15007771Y-10734400D01*
X15036343Y-10748686D01*
X15050628Y-10762972D01*
X15064914Y-10791543D01*
X15064914Y-10862972D01*
X15050628Y-10891543D01*
X15036343Y-10905829D01*
X15007771Y-10920114D01*
X14922057Y-10920114D01*
X14893486Y-10905829D01*
X14879200Y-10891543D01*
X15407771Y-10905829D02*
X15436343Y-10920114D01*
X15493486Y-10920114D01*
X15522057Y-10905829D01*
X15536343Y-10877257D01*
X15536343Y-10862972D01*
X15522057Y-10834400D01*
X15493486Y-10820114D01*
X15450628Y-10820114D01*
X15422057Y-10805829D01*
X15407771Y-10777257D01*
X15407771Y-10762972D01*
X15422057Y-10734400D01*
X15450628Y-10720114D01*
X15493486Y-10720114D01*
X15522057Y-10734400D01*
X15707771Y-10920114D02*
X15679200Y-10905829D01*
X15664914Y-10877257D01*
X15664914Y-10620114D01*
X15864914Y-10920114D02*
X15836343Y-10905829D01*
X15822057Y-10891543D01*
X15807771Y-10862972D01*
X15807771Y-10777257D01*
X15822057Y-10748686D01*
X15836343Y-10734400D01*
X15864914Y-10720114D01*
X15907771Y-10720114D01*
X15936343Y-10734400D01*
X15950628Y-10748686D01*
X15964914Y-10777257D01*
X15964914Y-10862972D01*
X15950628Y-10891543D01*
X15936343Y-10905829D01*
X15907771Y-10920114D01*
X15864914Y-10920114D01*
X16050628Y-10720114D02*
X16164914Y-10720114D01*
X16093486Y-10620114D02*
X16093486Y-10877257D01*
X16107771Y-10905829D01*
X16136343Y-10920114D01*
X16164914Y-10920114D01*
X16250628Y-10905829D02*
X16279200Y-10920114D01*
X16336343Y-10920114D01*
X16364914Y-10905829D01*
X16379200Y-10877257D01*
X16379200Y-10862972D01*
X16364914Y-10834400D01*
X16336343Y-10820114D01*
X16293486Y-10820114D01*
X16264914Y-10805829D01*
X16250628Y-10777257D01*
X16250628Y-10762972D01*
X16264914Y-10734400D01*
X16293486Y-10720114D01*
X16336343Y-10720114D01*
X16364914Y-10734400D01*
X16479200Y-11034400D02*
X16493486Y-11020114D01*
X16522057Y-10977257D01*
X16536343Y-10948686D01*
X16550628Y-10905829D01*
X16564914Y-10834400D01*
X16564914Y-10777257D01*
X16550628Y-10705829D01*
X16536343Y-10662972D01*
X16522057Y-10634400D01*
X16493486Y-10591543D01*
X16479200Y-10577257D01*
X7534200Y-11150400D02*
X7534200Y-11210400D01*
X7504200Y-11180400D02*
X7564200Y-11180400D01*
X7907771Y-11016114D02*
X7936343Y-11016114D01*
X7964914Y-11030400D01*
X7979200Y-11044686D01*
X7993486Y-11073257D01*
X8007771Y-11130400D01*
X8007771Y-11201829D01*
X7993486Y-11258971D01*
X7979200Y-11287543D01*
X7964914Y-11301829D01*
X7936343Y-11316114D01*
X7907771Y-11316114D01*
X7879200Y-11301829D01*
X7864914Y-11287543D01*
X7850628Y-11258971D01*
X7836343Y-11201829D01*
X7836343Y-11130400D01*
X7850628Y-11073257D01*
X7864914Y-11044686D01*
X7879200Y-11030400D01*
X7907771Y-11016114D01*
X8136343Y-11287543D02*
X8150628Y-11301829D01*
X8136343Y-11316114D01*
X8122057Y-11301829D01*
X8136343Y-11287543D01*
X8136343Y-11316114D01*
X8407771Y-11016114D02*
X8350628Y-11016114D01*
X8322057Y-11030400D01*
X8307771Y-11044686D01*
X8279200Y-11087543D01*
X8264914Y-11144686D01*
X8264914Y-11258971D01*
X8279200Y-11287543D01*
X8293486Y-11301829D01*
X8322057Y-11316114D01*
X8379200Y-11316114D01*
X8407771Y-11301829D01*
X8422057Y-11287543D01*
X8436343Y-11258971D01*
X8436343Y-11187543D01*
X8422057Y-11158972D01*
X8407771Y-11144686D01*
X8379200Y-11130400D01*
X8322057Y-11130400D01*
X8293486Y-11144686D01*
X8279200Y-11158972D01*
X8264914Y-11187543D01*
X8622057Y-11016114D02*
X8650628Y-11016114D01*
X8679200Y-11030400D01*
X8693486Y-11044686D01*
X8707771Y-11073257D01*
X8722057Y-11130400D01*
X8722057Y-11201829D01*
X8707771Y-11258971D01*
X8693486Y-11287543D01*
X8679200Y-11301829D01*
X8650628Y-11316114D01*
X8622057Y-11316114D01*
X8593486Y-11301829D01*
X8579200Y-11287543D01*
X8564914Y-11258971D01*
X8550628Y-11201829D01*
X8550628Y-11130400D01*
X8564914Y-11073257D01*
X8579200Y-11044686D01*
X8593486Y-11030400D01*
X8622057Y-11016114D01*
X8850628Y-11316114D02*
X8850628Y-11116114D01*
X8850628Y-11144686D02*
X8864914Y-11130400D01*
X8893486Y-11116114D01*
X8936343Y-11116114D01*
X8964914Y-11130400D01*
X8979200Y-11158972D01*
X8979200Y-11316114D01*
X8979200Y-11158972D02*
X8993486Y-11130400D01*
X9022057Y-11116114D01*
X9064914Y-11116114D01*
X9093486Y-11130400D01*
X9107771Y-11158972D01*
X9107771Y-11316114D01*
X9250628Y-11316114D02*
X9250628Y-11116114D01*
X9250628Y-11144686D02*
X9264914Y-11130400D01*
X9293486Y-11116114D01*
X9336343Y-11116114D01*
X9364914Y-11130400D01*
X9379200Y-11158972D01*
X9379200Y-11316114D01*
X9379200Y-11158972D02*
X9393486Y-11130400D01*
X9422057Y-11116114D01*
X9464914Y-11116114D01*
X9493486Y-11130400D01*
X9507771Y-11158972D01*
X9507771Y-11316114D01*
X10093486Y-11001829D02*
X9836343Y-11387543D01*
X10479200Y-11016114D02*
X10507771Y-11016114D01*
X10536343Y-11030400D01*
X10550628Y-11044686D01*
X10564914Y-11073257D01*
X10579200Y-11130400D01*
X10579200Y-11201829D01*
X10564914Y-11258971D01*
X10550628Y-11287543D01*
X10536343Y-11301829D01*
X10507771Y-11316114D01*
X10479200Y-11316114D01*
X10450628Y-11301829D01*
X10436343Y-11287543D01*
X10422057Y-11258971D01*
X10407771Y-11201829D01*
X10407771Y-11130400D01*
X10422057Y-11073257D01*
X10436343Y-11044686D01*
X10450628Y-11030400D01*
X10479200Y-11016114D01*
X10707771Y-11287543D02*
X10722057Y-11301829D01*
X10707771Y-11316114D01*
X10693486Y-11301829D01*
X10707771Y-11287543D01*
X10707771Y-11316114D01*
X10907771Y-11016114D02*
X10936343Y-11016114D01*
X10964914Y-11030400D01*
X10979200Y-11044686D01*
X10993486Y-11073257D01*
X11007771Y-11130400D01*
X11007771Y-11201829D01*
X10993486Y-11258971D01*
X10979200Y-11287543D01*
X10964914Y-11301829D01*
X10936343Y-11316114D01*
X10907771Y-11316114D01*
X10879200Y-11301829D01*
X10864914Y-11287543D01*
X10850628Y-11258971D01*
X10836343Y-11201829D01*
X10836343Y-11130400D01*
X10850628Y-11073257D01*
X10864914Y-11044686D01*
X10879200Y-11030400D01*
X10907771Y-11016114D01*
X11122057Y-11044686D02*
X11136343Y-11030400D01*
X11164914Y-11016114D01*
X11236343Y-11016114D01*
X11264914Y-11030400D01*
X11279200Y-11044686D01*
X11293486Y-11073257D01*
X11293486Y-11101829D01*
X11279200Y-11144686D01*
X11107771Y-11316114D01*
X11293486Y-11316114D01*
X11550628Y-11116114D02*
X11550628Y-11316114D01*
X11479200Y-11001829D02*
X11407771Y-11216114D01*
X11593486Y-11216114D01*
X11693486Y-11016114D02*
X11693486Y-11073257D01*
X11807771Y-11016114D02*
X11807771Y-11073257D01*
X12250628Y-11430400D02*
X12236343Y-11416114D01*
X12207771Y-11373257D01*
X12193486Y-11344686D01*
X12179200Y-11301829D01*
X12164914Y-11230400D01*
X12164914Y-11173257D01*
X12179200Y-11101829D01*
X12193486Y-11058972D01*
X12207771Y-11030400D01*
X12236343Y-10987543D01*
X12250628Y-10973257D01*
X12350628Y-11044686D02*
X12364914Y-11030400D01*
X12393486Y-11016114D01*
X12464914Y-11016114D01*
X12493486Y-11030400D01*
X12507771Y-11044686D01*
X12522057Y-11073257D01*
X12522057Y-11101829D01*
X12507771Y-11144686D01*
X12336343Y-11316114D01*
X12522057Y-11316114D01*
X12879200Y-11316114D02*
X12879200Y-11016114D01*
X13007771Y-11316114D02*
X13007771Y-11158972D01*
X12993486Y-11130400D01*
X12964914Y-11116114D01*
X12922057Y-11116114D01*
X12893486Y-11130400D01*
X12879200Y-11144686D01*
X13193486Y-11316114D02*
X13164914Y-11301829D01*
X13150628Y-11287543D01*
X13136343Y-11258971D01*
X13136343Y-11173257D01*
X13150628Y-11144686D01*
X13164914Y-11130400D01*
X13193486Y-11116114D01*
X13236343Y-11116114D01*
X13264914Y-11130400D01*
X13279200Y-11144686D01*
X13293486Y-11173257D01*
X13293486Y-11258971D01*
X13279200Y-11287543D01*
X13264914Y-11301829D01*
X13236343Y-11316114D01*
X13193486Y-11316114D01*
X13464914Y-11316114D02*
X13436343Y-11301829D01*
X13422057Y-11273257D01*
X13422057Y-11016114D01*
X13693486Y-11301829D02*
X13664914Y-11316114D01*
X13607771Y-11316114D01*
X13579200Y-11301829D01*
X13564914Y-11273257D01*
X13564914Y-11158972D01*
X13579200Y-11130400D01*
X13607771Y-11116114D01*
X13664914Y-11116114D01*
X13693486Y-11130400D01*
X13707771Y-11158972D01*
X13707771Y-11187543D01*
X13564914Y-11216114D01*
X13822057Y-11301829D02*
X13850628Y-11316114D01*
X13907771Y-11316114D01*
X13936343Y-11301829D01*
X13950628Y-11273257D01*
X13950628Y-11258971D01*
X13936343Y-11230400D01*
X13907771Y-11216114D01*
X13864914Y-11216114D01*
X13836343Y-11201829D01*
X13822057Y-11173257D01*
X13822057Y-11158972D01*
X13836343Y-11130400D01*
X13864914Y-11116114D01*
X13907771Y-11116114D01*
X13936343Y-11130400D01*
X14050628Y-11430400D02*
X14064914Y-11416114D01*
X14093486Y-11373257D01*
X14107771Y-11344686D01*
X14122057Y-11301829D01*
X14136343Y-11230400D01*
X14136343Y-11173257D01*
X14122057Y-11101829D01*
X14107771Y-11058972D01*
X14093486Y-11030400D01*
X14064914Y-10987543D01*
X14050628Y-10973257D01*
X7553217Y-11602917D02*
X7553217Y-11549883D01*
X7500183Y-11549883D01*
X7500183Y-11602917D01*
X7553217Y-11602917D01*
X7907771Y-11412114D02*
X7936343Y-11412114D01*
X7964914Y-11426400D01*
X7979200Y-11440686D01*
X7993486Y-11469257D01*
X8007771Y-11526400D01*
X8007771Y-11597829D01*
X7993486Y-11654971D01*
X7979200Y-11683543D01*
X7964914Y-11697829D01*
X7936343Y-11712114D01*
X7907771Y-11712114D01*
X7879200Y-11697829D01*
X7864914Y-11683543D01*
X7850628Y-11654971D01*
X7836343Y-11597829D01*
X7836343Y-11526400D01*
X7850628Y-11469257D01*
X7864914Y-11440686D01*
X7879200Y-11426400D01*
X7907771Y-11412114D01*
X8136343Y-11683543D02*
X8150628Y-11697829D01*
X8136343Y-11712114D01*
X8122057Y-11697829D01*
X8136343Y-11683543D01*
X8136343Y-11712114D01*
X8250628Y-11412114D02*
X8450628Y-11412114D01*
X8322057Y-11712114D01*
X8707771Y-11412114D02*
X8564914Y-11412114D01*
X8550628Y-11554971D01*
X8564914Y-11540686D01*
X8593486Y-11526400D01*
X8664914Y-11526400D01*
X8693486Y-11540686D01*
X8707771Y-11554971D01*
X8722057Y-11583543D01*
X8722057Y-11654971D01*
X8707771Y-11683543D01*
X8693486Y-11697829D01*
X8664914Y-11712114D01*
X8593486Y-11712114D01*
X8564914Y-11697829D01*
X8550628Y-11683543D01*
X8850628Y-11712114D02*
X8850628Y-11512114D01*
X8850628Y-11540686D02*
X8864914Y-11526400D01*
X8893486Y-11512114D01*
X8936343Y-11512114D01*
X8964914Y-11526400D01*
X8979200Y-11554971D01*
X8979200Y-11712114D01*
X8979200Y-11554971D02*
X8993486Y-11526400D01*
X9022057Y-11512114D01*
X9064914Y-11512114D01*
X9093486Y-11526400D01*
X9107771Y-11554971D01*
X9107771Y-11712114D01*
X9250628Y-11712114D02*
X9250628Y-11512114D01*
X9250628Y-11540686D02*
X9264914Y-11526400D01*
X9293486Y-11512114D01*
X9336343Y-11512114D01*
X9364914Y-11526400D01*
X9379200Y-11554971D01*
X9379200Y-11712114D01*
X9379200Y-11554971D02*
X9393486Y-11526400D01*
X9422057Y-11512114D01*
X9464914Y-11512114D01*
X9493486Y-11526400D01*
X9507771Y-11554971D01*
X9507771Y-11712114D01*
X10093486Y-11397829D02*
X9836343Y-11783543D01*
X10479200Y-11412114D02*
X10507771Y-11412114D01*
X10536343Y-11426400D01*
X10550628Y-11440686D01*
X10564914Y-11469257D01*
X10579200Y-11526400D01*
X10579200Y-11597829D01*
X10564914Y-11654971D01*
X10550628Y-11683543D01*
X10536343Y-11697829D01*
X10507771Y-11712114D01*
X10479200Y-11712114D01*
X10450628Y-11697829D01*
X10436343Y-11683543D01*
X10422057Y-11654971D01*
X10407771Y-11597829D01*
X10407771Y-11526400D01*
X10422057Y-11469257D01*
X10436343Y-11440686D01*
X10450628Y-11426400D01*
X10479200Y-11412114D01*
X10707771Y-11683543D02*
X10722057Y-11697829D01*
X10707771Y-11712114D01*
X10693486Y-11697829D01*
X10707771Y-11683543D01*
X10707771Y-11712114D01*
X10907771Y-11412114D02*
X10936343Y-11412114D01*
X10964914Y-11426400D01*
X10979200Y-11440686D01*
X10993486Y-11469257D01*
X11007771Y-11526400D01*
X11007771Y-11597829D01*
X10993486Y-11654971D01*
X10979200Y-11683543D01*
X10964914Y-11697829D01*
X10936343Y-11712114D01*
X10907771Y-11712114D01*
X10879200Y-11697829D01*
X10864914Y-11683543D01*
X10850628Y-11654971D01*
X10836343Y-11597829D01*
X10836343Y-11526400D01*
X10850628Y-11469257D01*
X10864914Y-11440686D01*
X10879200Y-11426400D01*
X10907771Y-11412114D01*
X11107771Y-11412114D02*
X11293486Y-11412114D01*
X11193486Y-11526400D01*
X11236343Y-11526400D01*
X11264914Y-11540686D01*
X11279200Y-11554971D01*
X11293486Y-11583543D01*
X11293486Y-11654971D01*
X11279200Y-11683543D01*
X11264914Y-11697829D01*
X11236343Y-11712114D01*
X11150628Y-11712114D01*
X11122057Y-11697829D01*
X11107771Y-11683543D01*
X11479200Y-11412114D02*
X11507771Y-11412114D01*
X11536343Y-11426400D01*
X11550628Y-11440686D01*
X11564914Y-11469257D01*
X11579200Y-11526400D01*
X11579200Y-11597829D01*
X11564914Y-11654971D01*
X11550628Y-11683543D01*
X11536343Y-11697829D01*
X11507771Y-11712114D01*
X11479200Y-11712114D01*
X11450628Y-11697829D01*
X11436343Y-11683543D01*
X11422057Y-11654971D01*
X11407771Y-11597829D01*
X11407771Y-11526400D01*
X11422057Y-11469257D01*
X11436343Y-11440686D01*
X11450628Y-11426400D01*
X11479200Y-11412114D01*
X11693486Y-11412114D02*
X11693486Y-11469257D01*
X11807771Y-11412114D02*
X11807771Y-11469257D01*
X12250628Y-11826400D02*
X12236343Y-11812114D01*
X12207771Y-11769257D01*
X12193486Y-11740686D01*
X12179200Y-11697829D01*
X12164914Y-11626400D01*
X12164914Y-11569257D01*
X12179200Y-11497829D01*
X12193486Y-11454971D01*
X12207771Y-11426400D01*
X12236343Y-11383543D01*
X12250628Y-11369257D01*
X12493486Y-11412114D02*
X12436343Y-11412114D01*
X12407771Y-11426400D01*
X12393486Y-11440686D01*
X12364914Y-11483543D01*
X12350628Y-11540686D01*
X12350628Y-11654971D01*
X12364914Y-11683543D01*
X12379200Y-11697829D01*
X12407771Y-11712114D01*
X12464914Y-11712114D01*
X12493486Y-11697829D01*
X12507771Y-11683543D01*
X12522057Y-11654971D01*
X12522057Y-11583543D01*
X12507771Y-11554971D01*
X12493486Y-11540686D01*
X12464914Y-11526400D01*
X12407771Y-11526400D01*
X12379200Y-11540686D01*
X12364914Y-11554971D01*
X12350628Y-11583543D01*
X12879200Y-11712114D02*
X12879200Y-11412114D01*
X13007771Y-11712114D02*
X13007771Y-11554971D01*
X12993486Y-11526400D01*
X12964914Y-11512114D01*
X12922057Y-11512114D01*
X12893486Y-11526400D01*
X12879200Y-11540686D01*
X13193486Y-11712114D02*
X13164914Y-11697829D01*
X13150628Y-11683543D01*
X13136343Y-11654971D01*
X13136343Y-11569257D01*
X13150628Y-11540686D01*
X13164914Y-11526400D01*
X13193486Y-11512114D01*
X13236343Y-11512114D01*
X13264914Y-11526400D01*
X13279200Y-11540686D01*
X13293486Y-11569257D01*
X13293486Y-11654971D01*
X13279200Y-11683543D01*
X13264914Y-11697829D01*
X13236343Y-11712114D01*
X13193486Y-11712114D01*
X13464914Y-11712114D02*
X13436343Y-11697829D01*
X13422057Y-11669257D01*
X13422057Y-11412114D01*
X13693486Y-11697829D02*
X13664914Y-11712114D01*
X13607771Y-11712114D01*
X13579200Y-11697829D01*
X13564914Y-11669257D01*
X13564914Y-11554971D01*
X13579200Y-11526400D01*
X13607771Y-11512114D01*
X13664914Y-11512114D01*
X13693486Y-11526400D01*
X13707771Y-11554971D01*
X13707771Y-11583543D01*
X13564914Y-11612114D01*
X13822057Y-11697829D02*
X13850628Y-11712114D01*
X13907771Y-11712114D01*
X13936343Y-11697829D01*
X13950628Y-11669257D01*
X13950628Y-11654971D01*
X13936343Y-11626400D01*
X13907771Y-11612114D01*
X13864914Y-11612114D01*
X13836343Y-11597829D01*
X13822057Y-11569257D01*
X13822057Y-11554971D01*
X13836343Y-11526400D01*
X13864914Y-11512114D01*
X13907771Y-11512114D01*
X13936343Y-11526400D01*
X14050628Y-11826400D02*
X14064914Y-11812114D01*
X14093486Y-11769257D01*
X14107771Y-11740686D01*
X14122057Y-11697829D01*
X14136343Y-11626400D01*
X14136343Y-11569257D01*
X14122057Y-11497829D01*
X14107771Y-11454971D01*
X14093486Y-11426400D01*
X14064914Y-11383543D01*
X14050628Y-11369257D01*
X7524200Y-12012400D02*
X7564200Y-11972400D01*
X7524200Y-11932400D01*
X7484200Y-11972400D01*
X7524200Y-12012400D01*
X7907771Y-11808114D02*
X7936343Y-11808114D01*
X7964914Y-11822400D01*
X7979200Y-11836686D01*
X7993486Y-11865257D01*
X8007771Y-11922400D01*
X8007771Y-11993829D01*
X7993486Y-12050971D01*
X7979200Y-12079543D01*
X7964914Y-12093829D01*
X7936343Y-12108114D01*
X7907771Y-12108114D01*
X7879200Y-12093829D01*
X7864914Y-12079543D01*
X7850628Y-12050971D01*
X7836343Y-11993829D01*
X7836343Y-11922400D01*
X7850628Y-11865257D01*
X7864914Y-11836686D01*
X7879200Y-11822400D01*
X7907771Y-11808114D01*
X8136343Y-12079543D02*
X8150628Y-12093829D01*
X8136343Y-12108114D01*
X8122057Y-12093829D01*
X8136343Y-12079543D01*
X8136343Y-12108114D01*
X8322057Y-11936686D02*
X8293486Y-11922400D01*
X8279200Y-11908114D01*
X8264914Y-11879543D01*
X8264914Y-11865257D01*
X8279200Y-11836686D01*
X8293486Y-11822400D01*
X8322057Y-11808114D01*
X8379200Y-11808114D01*
X8407771Y-11822400D01*
X8422057Y-11836686D01*
X8436343Y-11865257D01*
X8436343Y-11879543D01*
X8422057Y-11908114D01*
X8407771Y-11922400D01*
X8379200Y-11936686D01*
X8322057Y-11936686D01*
X8293486Y-11950971D01*
X8279200Y-11965257D01*
X8264914Y-11993829D01*
X8264914Y-12050971D01*
X8279200Y-12079543D01*
X8293486Y-12093829D01*
X8322057Y-12108114D01*
X8379200Y-12108114D01*
X8407771Y-12093829D01*
X8422057Y-12079543D01*
X8436343Y-12050971D01*
X8436343Y-11993829D01*
X8422057Y-11965257D01*
X8407771Y-11950971D01*
X8379200Y-11936686D01*
X8622057Y-11808114D02*
X8650628Y-11808114D01*
X8679200Y-11822400D01*
X8693486Y-11836686D01*
X8707771Y-11865257D01*
X8722057Y-11922400D01*
X8722057Y-11993829D01*
X8707771Y-12050971D01*
X8693486Y-12079543D01*
X8679200Y-12093829D01*
X8650628Y-12108114D01*
X8622057Y-12108114D01*
X8593486Y-12093829D01*
X8579200Y-12079543D01*
X8564914Y-12050971D01*
X8550628Y-11993829D01*
X8550628Y-11922400D01*
X8564914Y-11865257D01*
X8579200Y-11836686D01*
X8593486Y-11822400D01*
X8622057Y-11808114D01*
X8850628Y-12108114D02*
X8850628Y-11908114D01*
X8850628Y-11936686D02*
X8864914Y-11922400D01*
X8893486Y-11908114D01*
X8936343Y-11908114D01*
X8964914Y-11922400D01*
X8979200Y-11950971D01*
X8979200Y-12108114D01*
X8979200Y-11950971D02*
X8993486Y-11922400D01*
X9022057Y-11908114D01*
X9064914Y-11908114D01*
X9093486Y-11922400D01*
X9107771Y-11950971D01*
X9107771Y-12108114D01*
X9250628Y-12108114D02*
X9250628Y-11908114D01*
X9250628Y-11936686D02*
X9264914Y-11922400D01*
X9293486Y-11908114D01*
X9336343Y-11908114D01*
X9364914Y-11922400D01*
X9379200Y-11950971D01*
X9379200Y-12108114D01*
X9379200Y-11950971D02*
X9393486Y-11922400D01*
X9422057Y-11908114D01*
X9464914Y-11908114D01*
X9493486Y-11922400D01*
X9507771Y-11950971D01*
X9507771Y-12108114D01*
X10093486Y-11793829D02*
X9836343Y-12179543D01*
X10479200Y-11808114D02*
X10507771Y-11808114D01*
X10536343Y-11822400D01*
X10550628Y-11836686D01*
X10564914Y-11865257D01*
X10579200Y-11922400D01*
X10579200Y-11993829D01*
X10564914Y-12050971D01*
X10550628Y-12079543D01*
X10536343Y-12093829D01*
X10507771Y-12108114D01*
X10479200Y-12108114D01*
X10450628Y-12093829D01*
X10436343Y-12079543D01*
X10422057Y-12050971D01*
X10407771Y-11993829D01*
X10407771Y-11922400D01*
X10422057Y-11865257D01*
X10436343Y-11836686D01*
X10450628Y-11822400D01*
X10479200Y-11808114D01*
X10707771Y-12079543D02*
X10722057Y-12093829D01*
X10707771Y-12108114D01*
X10693486Y-12093829D01*
X10707771Y-12079543D01*
X10707771Y-12108114D01*
X10907771Y-11808114D02*
X10936343Y-11808114D01*
X10964914Y-11822400D01*
X10979200Y-11836686D01*
X10993486Y-11865257D01*
X11007771Y-11922400D01*
X11007771Y-11993829D01*
X10993486Y-12050971D01*
X10979200Y-12079543D01*
X10964914Y-12093829D01*
X10936343Y-12108114D01*
X10907771Y-12108114D01*
X10879200Y-12093829D01*
X10864914Y-12079543D01*
X10850628Y-12050971D01*
X10836343Y-11993829D01*
X10836343Y-11922400D01*
X10850628Y-11865257D01*
X10864914Y-11836686D01*
X10879200Y-11822400D01*
X10907771Y-11808114D01*
X11107771Y-11808114D02*
X11293486Y-11808114D01*
X11193486Y-11922400D01*
X11236343Y-11922400D01*
X11264914Y-11936686D01*
X11279200Y-11950971D01*
X11293486Y-11979543D01*
X11293486Y-12050971D01*
X11279200Y-12079543D01*
X11264914Y-12093829D01*
X11236343Y-12108114D01*
X11150628Y-12108114D01*
X11122057Y-12093829D01*
X11107771Y-12079543D01*
X11579200Y-12108114D02*
X11407771Y-12108114D01*
X11493486Y-12108114D02*
X11493486Y-11808114D01*
X11464914Y-11850971D01*
X11436343Y-11879543D01*
X11407771Y-11893829D01*
X11693486Y-11808114D02*
X11693486Y-11865257D01*
X11807771Y-11808114D02*
X11807771Y-11865257D01*
X12250628Y-12222400D02*
X12236343Y-12208114D01*
X12207771Y-12165257D01*
X12193486Y-12136686D01*
X12179200Y-12093829D01*
X12164914Y-12022400D01*
X12164914Y-11965257D01*
X12179200Y-11893829D01*
X12193486Y-11850971D01*
X12207771Y-11822400D01*
X12236343Y-11779543D01*
X12250628Y-11765257D01*
X12379200Y-12108114D02*
X12436343Y-12108114D01*
X12464914Y-12093829D01*
X12479200Y-12079543D01*
X12507771Y-12036686D01*
X12522057Y-11979543D01*
X12522057Y-11865257D01*
X12507771Y-11836686D01*
X12493486Y-11822400D01*
X12464914Y-11808114D01*
X12407771Y-11808114D01*
X12379200Y-11822400D01*
X12364914Y-11836686D01*
X12350628Y-11865257D01*
X12350628Y-11936686D01*
X12364914Y-11965257D01*
X12379200Y-11979543D01*
X12407771Y-11993829D01*
X12464914Y-11993829D01*
X12493486Y-11979543D01*
X12507771Y-11965257D01*
X12522057Y-11936686D01*
X12779200Y-11808114D02*
X12722057Y-11808114D01*
X12693486Y-11822400D01*
X12679200Y-11836686D01*
X12650628Y-11879543D01*
X12636343Y-11936686D01*
X12636343Y-12050971D01*
X12650628Y-12079543D01*
X12664914Y-12093829D01*
X12693486Y-12108114D01*
X12750628Y-12108114D01*
X12779200Y-12093829D01*
X12793486Y-12079543D01*
X12807771Y-12050971D01*
X12807771Y-11979543D01*
X12793486Y-11950971D01*
X12779200Y-11936686D01*
X12750628Y-11922400D01*
X12693486Y-11922400D01*
X12664914Y-11936686D01*
X12650628Y-11950971D01*
X12636343Y-11979543D01*
X13164914Y-12108114D02*
X13164914Y-11808114D01*
X13293486Y-12108114D02*
X13293486Y-11950971D01*
X13279200Y-11922400D01*
X13250628Y-11908114D01*
X13207771Y-11908114D01*
X13179200Y-11922400D01*
X13164914Y-11936686D01*
X13479200Y-12108114D02*
X13450628Y-12093829D01*
X13436343Y-12079543D01*
X13422057Y-12050971D01*
X13422057Y-11965257D01*
X13436343Y-11936686D01*
X13450628Y-11922400D01*
X13479200Y-11908114D01*
X13522057Y-11908114D01*
X13550628Y-11922400D01*
X13564914Y-11936686D01*
X13579200Y-11965257D01*
X13579200Y-12050971D01*
X13564914Y-12079543D01*
X13550628Y-12093829D01*
X13522057Y-12108114D01*
X13479200Y-12108114D01*
X13750628Y-12108114D02*
X13722057Y-12093829D01*
X13707771Y-12065257D01*
X13707771Y-11808114D01*
X13979200Y-12093829D02*
X13950628Y-12108114D01*
X13893486Y-12108114D01*
X13864914Y-12093829D01*
X13850628Y-12065257D01*
X13850628Y-11950971D01*
X13864914Y-11922400D01*
X13893486Y-11908114D01*
X13950628Y-11908114D01*
X13979200Y-11922400D01*
X13993486Y-11950971D01*
X13993486Y-11979543D01*
X13850628Y-12008114D01*
X14107771Y-12093829D02*
X14136343Y-12108114D01*
X14193486Y-12108114D01*
X14222057Y-12093829D01*
X14236343Y-12065257D01*
X14236343Y-12050971D01*
X14222057Y-12022400D01*
X14193486Y-12008114D01*
X14150628Y-12008114D01*
X14122057Y-11993829D01*
X14107771Y-11965257D01*
X14107771Y-11950971D01*
X14122057Y-11922400D01*
X14150628Y-11908114D01*
X14193486Y-11908114D01*
X14222057Y-11922400D01*
X14336343Y-12222400D02*
X14350628Y-12208114D01*
X14379200Y-12165257D01*
X14393486Y-12136686D01*
X14407771Y-12093829D01*
X14422057Y-12022400D01*
X14422057Y-11965257D01*
X14407771Y-11893829D01*
X14393486Y-11850971D01*
X14379200Y-11822400D01*
X14350628Y-11779543D01*
X14336343Y-11765257D01*
X7464200Y-12318400D02*
X7564200Y-12418400D01*
X7564200Y-12318400D02*
X7464200Y-12418400D01*
X7564200Y-12368400D02*
G75*
G03*
X7564200Y-12368400I-50000J0D01*
G01*
X8007771Y-12504114D02*
X7836343Y-12504114D01*
X7922057Y-12504114D02*
X7922057Y-12204114D01*
X7893486Y-12246971D01*
X7864914Y-12275543D01*
X7836343Y-12289829D01*
X8136343Y-12475543D02*
X8150628Y-12489829D01*
X8136343Y-12504114D01*
X8122057Y-12489829D01*
X8136343Y-12475543D01*
X8136343Y-12504114D01*
X8336343Y-12204114D02*
X8364914Y-12204114D01*
X8393486Y-12218400D01*
X8407771Y-12232686D01*
X8422057Y-12261257D01*
X8436343Y-12318400D01*
X8436343Y-12389829D01*
X8422057Y-12446971D01*
X8407771Y-12475543D01*
X8393486Y-12489829D01*
X8364914Y-12504114D01*
X8336343Y-12504114D01*
X8307771Y-12489829D01*
X8293486Y-12475543D01*
X8279200Y-12446971D01*
X8264914Y-12389829D01*
X8264914Y-12318400D01*
X8279200Y-12261257D01*
X8293486Y-12232686D01*
X8307771Y-12218400D01*
X8336343Y-12204114D01*
X8622057Y-12204114D02*
X8650628Y-12204114D01*
X8679200Y-12218400D01*
X8693486Y-12232686D01*
X8707771Y-12261257D01*
X8722057Y-12318400D01*
X8722057Y-12389829D01*
X8707771Y-12446971D01*
X8693486Y-12475543D01*
X8679200Y-12489829D01*
X8650628Y-12504114D01*
X8622057Y-12504114D01*
X8593486Y-12489829D01*
X8579200Y-12475543D01*
X8564914Y-12446971D01*
X8550628Y-12389829D01*
X8550628Y-12318400D01*
X8564914Y-12261257D01*
X8579200Y-12232686D01*
X8593486Y-12218400D01*
X8622057Y-12204114D01*
X8850628Y-12504114D02*
X8850628Y-12304114D01*
X8850628Y-12332686D02*
X8864914Y-12318400D01*
X8893486Y-12304114D01*
X8936343Y-12304114D01*
X8964914Y-12318400D01*
X8979200Y-12346971D01*
X8979200Y-12504114D01*
X8979200Y-12346971D02*
X8993486Y-12318400D01*
X9022057Y-12304114D01*
X9064914Y-12304114D01*
X9093486Y-12318400D01*
X9107771Y-12346971D01*
X9107771Y-12504114D01*
X9250628Y-12504114D02*
X9250628Y-12304114D01*
X9250628Y-12332686D02*
X9264914Y-12318400D01*
X9293486Y-12304114D01*
X9336343Y-12304114D01*
X9364914Y-12318400D01*
X9379200Y-12346971D01*
X9379200Y-12504114D01*
X9379200Y-12346971D02*
X9393486Y-12318400D01*
X9422057Y-12304114D01*
X9464914Y-12304114D01*
X9493486Y-12318400D01*
X9507771Y-12346971D01*
X9507771Y-12504114D01*
X10093486Y-12189829D02*
X9836343Y-12575543D01*
X10479200Y-12204114D02*
X10507771Y-12204114D01*
X10536343Y-12218400D01*
X10550628Y-12232686D01*
X10564914Y-12261257D01*
X10579200Y-12318400D01*
X10579200Y-12389829D01*
X10564914Y-12446971D01*
X10550628Y-12475543D01*
X10536343Y-12489829D01*
X10507771Y-12504114D01*
X10479200Y-12504114D01*
X10450628Y-12489829D01*
X10436343Y-12475543D01*
X10422057Y-12446971D01*
X10407771Y-12389829D01*
X10407771Y-12318400D01*
X10422057Y-12261257D01*
X10436343Y-12232686D01*
X10450628Y-12218400D01*
X10479200Y-12204114D01*
X10707771Y-12475543D02*
X10722057Y-12489829D01*
X10707771Y-12504114D01*
X10693486Y-12489829D01*
X10707771Y-12475543D01*
X10707771Y-12504114D01*
X10907771Y-12204114D02*
X10936343Y-12204114D01*
X10964914Y-12218400D01*
X10979200Y-12232686D01*
X10993486Y-12261257D01*
X11007771Y-12318400D01*
X11007771Y-12389829D01*
X10993486Y-12446971D01*
X10979200Y-12475543D01*
X10964914Y-12489829D01*
X10936343Y-12504114D01*
X10907771Y-12504114D01*
X10879200Y-12489829D01*
X10864914Y-12475543D01*
X10850628Y-12446971D01*
X10836343Y-12389829D01*
X10836343Y-12318400D01*
X10850628Y-12261257D01*
X10864914Y-12232686D01*
X10879200Y-12218400D01*
X10907771Y-12204114D01*
X11107771Y-12204114D02*
X11293486Y-12204114D01*
X11193486Y-12318400D01*
X11236343Y-12318400D01*
X11264914Y-12332686D01*
X11279200Y-12346971D01*
X11293486Y-12375543D01*
X11293486Y-12446971D01*
X11279200Y-12475543D01*
X11264914Y-12489829D01*
X11236343Y-12504114D01*
X11150628Y-12504114D01*
X11122057Y-12489829D01*
X11107771Y-12475543D01*
X11436343Y-12504114D02*
X11493486Y-12504114D01*
X11522057Y-12489829D01*
X11536343Y-12475543D01*
X11564914Y-12432686D01*
X11579200Y-12375543D01*
X11579200Y-12261257D01*
X11564914Y-12232686D01*
X11550628Y-12218400D01*
X11522057Y-12204114D01*
X11464914Y-12204114D01*
X11436343Y-12218400D01*
X11422057Y-12232686D01*
X11407771Y-12261257D01*
X11407771Y-12332686D01*
X11422057Y-12361257D01*
X11436343Y-12375543D01*
X11464914Y-12389829D01*
X11522057Y-12389829D01*
X11550628Y-12375543D01*
X11564914Y-12361257D01*
X11579200Y-12332686D01*
X11693486Y-12204114D02*
X11693486Y-12261257D01*
X11807771Y-12204114D02*
X11807771Y-12261257D01*
X12250628Y-12618400D02*
X12236343Y-12604114D01*
X12207771Y-12561257D01*
X12193486Y-12532686D01*
X12179200Y-12489829D01*
X12164914Y-12418400D01*
X12164914Y-12361257D01*
X12179200Y-12289829D01*
X12193486Y-12246971D01*
X12207771Y-12218400D01*
X12236343Y-12175543D01*
X12250628Y-12161257D01*
X12522057Y-12504114D02*
X12350628Y-12504114D01*
X12436343Y-12504114D02*
X12436343Y-12204114D01*
X12407771Y-12246971D01*
X12379200Y-12275543D01*
X12350628Y-12289829D01*
X12622057Y-12204114D02*
X12807771Y-12204114D01*
X12707771Y-12318400D01*
X12750628Y-12318400D01*
X12779200Y-12332686D01*
X12793486Y-12346971D01*
X12807771Y-12375543D01*
X12807771Y-12446971D01*
X12793486Y-12475543D01*
X12779200Y-12489829D01*
X12750628Y-12504114D01*
X12664914Y-12504114D01*
X12636343Y-12489829D01*
X12622057Y-12475543D01*
X13164914Y-12504114D02*
X13164914Y-12204114D01*
X13293486Y-12504114D02*
X13293486Y-12346971D01*
X13279200Y-12318400D01*
X13250628Y-12304114D01*
X13207771Y-12304114D01*
X13179200Y-12318400D01*
X13164914Y-12332686D01*
X13479200Y-12504114D02*
X13450628Y-12489829D01*
X13436343Y-12475543D01*
X13422057Y-12446971D01*
X13422057Y-12361257D01*
X13436343Y-12332686D01*
X13450628Y-12318400D01*
X13479200Y-12304114D01*
X13522057Y-12304114D01*
X13550628Y-12318400D01*
X13564914Y-12332686D01*
X13579200Y-12361257D01*
X13579200Y-12446971D01*
X13564914Y-12475543D01*
X13550628Y-12489829D01*
X13522057Y-12504114D01*
X13479200Y-12504114D01*
X13750628Y-12504114D02*
X13722057Y-12489829D01*
X13707771Y-12461257D01*
X13707771Y-12204114D01*
X13979200Y-12489829D02*
X13950628Y-12504114D01*
X13893486Y-12504114D01*
X13864914Y-12489829D01*
X13850628Y-12461257D01*
X13850628Y-12346971D01*
X13864914Y-12318400D01*
X13893486Y-12304114D01*
X13950628Y-12304114D01*
X13979200Y-12318400D01*
X13993486Y-12346971D01*
X13993486Y-12375543D01*
X13850628Y-12404114D01*
X14107771Y-12489829D02*
X14136343Y-12504114D01*
X14193486Y-12504114D01*
X14222057Y-12489829D01*
X14236343Y-12461257D01*
X14236343Y-12446971D01*
X14222057Y-12418400D01*
X14193486Y-12404114D01*
X14150628Y-12404114D01*
X14122057Y-12389829D01*
X14107771Y-12361257D01*
X14107771Y-12346971D01*
X14122057Y-12318400D01*
X14150628Y-12304114D01*
X14193486Y-12304114D01*
X14222057Y-12318400D01*
X14336343Y-12618400D02*
X14350628Y-12604114D01*
X14379200Y-12561257D01*
X14393486Y-12532686D01*
X14407771Y-12489829D01*
X14422057Y-12418400D01*
X14422057Y-12361257D01*
X14407771Y-12289829D01*
X14393486Y-12246971D01*
X14379200Y-12218400D01*
X14350628Y-12175543D01*
X14336343Y-12161257D01*
X7454200Y-12709400D02*
X7564200Y-12819400D01*
X7564200Y-12709400D02*
X7454200Y-12819400D01*
X7509200Y-12709400D02*
X7509200Y-12819400D01*
X7454200Y-12764400D02*
X7564200Y-12764400D01*
X8007771Y-12900114D02*
X7836343Y-12900114D01*
X7922057Y-12900114D02*
X7922057Y-12600114D01*
X7893486Y-12642971D01*
X7864914Y-12671543D01*
X7836343Y-12685829D01*
X8136343Y-12871543D02*
X8150628Y-12885829D01*
X8136343Y-12900114D01*
X8122057Y-12885829D01*
X8136343Y-12871543D01*
X8136343Y-12900114D01*
X8436343Y-12900114D02*
X8264914Y-12900114D01*
X8350628Y-12900114D02*
X8350628Y-12600114D01*
X8322057Y-12642971D01*
X8293486Y-12671543D01*
X8264914Y-12685829D01*
X8622057Y-12600114D02*
X8650628Y-12600114D01*
X8679200Y-12614400D01*
X8693486Y-12628686D01*
X8707771Y-12657257D01*
X8722057Y-12714400D01*
X8722057Y-12785829D01*
X8707771Y-12842971D01*
X8693486Y-12871543D01*
X8679200Y-12885829D01*
X8650628Y-12900114D01*
X8622057Y-12900114D01*
X8593486Y-12885829D01*
X8579200Y-12871543D01*
X8564914Y-12842971D01*
X8550628Y-12785829D01*
X8550628Y-12714400D01*
X8564914Y-12657257D01*
X8579200Y-12628686D01*
X8593486Y-12614400D01*
X8622057Y-12600114D01*
X8850628Y-12900114D02*
X8850628Y-12700114D01*
X8850628Y-12728686D02*
X8864914Y-12714400D01*
X8893486Y-12700114D01*
X8936343Y-12700114D01*
X8964914Y-12714400D01*
X8979200Y-12742971D01*
X8979200Y-12900114D01*
X8979200Y-12742971D02*
X8993486Y-12714400D01*
X9022057Y-12700114D01*
X9064914Y-12700114D01*
X9093486Y-12714400D01*
X9107771Y-12742971D01*
X9107771Y-12900114D01*
X9250628Y-12900114D02*
X9250628Y-12700114D01*
X9250628Y-12728686D02*
X9264914Y-12714400D01*
X9293486Y-12700114D01*
X9336343Y-12700114D01*
X9364914Y-12714400D01*
X9379200Y-12742971D01*
X9379200Y-12900114D01*
X9379200Y-12742971D02*
X9393486Y-12714400D01*
X9422057Y-12700114D01*
X9464914Y-12700114D01*
X9493486Y-12714400D01*
X9507771Y-12742971D01*
X9507771Y-12900114D01*
X10093486Y-12585829D02*
X9836343Y-12971543D01*
X10479200Y-12600114D02*
X10507771Y-12600114D01*
X10536343Y-12614400D01*
X10550628Y-12628686D01*
X10564914Y-12657257D01*
X10579200Y-12714400D01*
X10579200Y-12785829D01*
X10564914Y-12842971D01*
X10550628Y-12871543D01*
X10536343Y-12885829D01*
X10507771Y-12900114D01*
X10479200Y-12900114D01*
X10450628Y-12885829D01*
X10436343Y-12871543D01*
X10422057Y-12842971D01*
X10407771Y-12785829D01*
X10407771Y-12714400D01*
X10422057Y-12657257D01*
X10436343Y-12628686D01*
X10450628Y-12614400D01*
X10479200Y-12600114D01*
X10707771Y-12871543D02*
X10722057Y-12885829D01*
X10707771Y-12900114D01*
X10693486Y-12885829D01*
X10707771Y-12871543D01*
X10707771Y-12900114D01*
X10907771Y-12600114D02*
X10936343Y-12600114D01*
X10964914Y-12614400D01*
X10979200Y-12628686D01*
X10993486Y-12657257D01*
X11007771Y-12714400D01*
X11007771Y-12785829D01*
X10993486Y-12842971D01*
X10979200Y-12871543D01*
X10964914Y-12885829D01*
X10936343Y-12900114D01*
X10907771Y-12900114D01*
X10879200Y-12885829D01*
X10864914Y-12871543D01*
X10850628Y-12842971D01*
X10836343Y-12785829D01*
X10836343Y-12714400D01*
X10850628Y-12657257D01*
X10864914Y-12628686D01*
X10879200Y-12614400D01*
X10907771Y-12600114D01*
X11264914Y-12700114D02*
X11264914Y-12900114D01*
X11193486Y-12585829D02*
X11122057Y-12800114D01*
X11307771Y-12800114D01*
X11393486Y-12600114D02*
X11579200Y-12600114D01*
X11479200Y-12714400D01*
X11522057Y-12714400D01*
X11550628Y-12728686D01*
X11564914Y-12742971D01*
X11579200Y-12771543D01*
X11579200Y-12842971D01*
X11564914Y-12871543D01*
X11550628Y-12885829D01*
X11522057Y-12900114D01*
X11436343Y-12900114D01*
X11407771Y-12885829D01*
X11393486Y-12871543D01*
X11693486Y-12600114D02*
X11693486Y-12657257D01*
X11807771Y-12600114D02*
X11807771Y-12657257D01*
X12250628Y-13014400D02*
X12236343Y-13000114D01*
X12207771Y-12957257D01*
X12193486Y-12928686D01*
X12179200Y-12885829D01*
X12164914Y-12814400D01*
X12164914Y-12757257D01*
X12179200Y-12685829D01*
X12193486Y-12642971D01*
X12207771Y-12614400D01*
X12236343Y-12571543D01*
X12250628Y-12557257D01*
X12350628Y-12628686D02*
X12364914Y-12614400D01*
X12393486Y-12600114D01*
X12464914Y-12600114D01*
X12493486Y-12614400D01*
X12507771Y-12628686D01*
X12522057Y-12657257D01*
X12522057Y-12685829D01*
X12507771Y-12728686D01*
X12336343Y-12900114D01*
X12522057Y-12900114D01*
X12879200Y-12900114D02*
X12879200Y-12600114D01*
X13007771Y-12900114D02*
X13007771Y-12742971D01*
X12993486Y-12714400D01*
X12964914Y-12700114D01*
X12922057Y-12700114D01*
X12893486Y-12714400D01*
X12879200Y-12728686D01*
X13193486Y-12900114D02*
X13164914Y-12885829D01*
X13150628Y-12871543D01*
X13136343Y-12842971D01*
X13136343Y-12757257D01*
X13150628Y-12728686D01*
X13164914Y-12714400D01*
X13193486Y-12700114D01*
X13236343Y-12700114D01*
X13264914Y-12714400D01*
X13279200Y-12728686D01*
X13293486Y-12757257D01*
X13293486Y-12842971D01*
X13279200Y-12871543D01*
X13264914Y-12885829D01*
X13236343Y-12900114D01*
X13193486Y-12900114D01*
X13464914Y-12900114D02*
X13436343Y-12885829D01*
X13422057Y-12857257D01*
X13422057Y-12600114D01*
X13693486Y-12885829D02*
X13664914Y-12900114D01*
X13607771Y-12900114D01*
X13579200Y-12885829D01*
X13564914Y-12857257D01*
X13564914Y-12742971D01*
X13579200Y-12714400D01*
X13607771Y-12700114D01*
X13664914Y-12700114D01*
X13693486Y-12714400D01*
X13707771Y-12742971D01*
X13707771Y-12771543D01*
X13564914Y-12800114D01*
X13822057Y-12885829D02*
X13850628Y-12900114D01*
X13907771Y-12900114D01*
X13936343Y-12885829D01*
X13950628Y-12857257D01*
X13950628Y-12842971D01*
X13936343Y-12814400D01*
X13907771Y-12800114D01*
X13864914Y-12800114D01*
X13836343Y-12785829D01*
X13822057Y-12757257D01*
X13822057Y-12742971D01*
X13836343Y-12714400D01*
X13864914Y-12700114D01*
X13907771Y-12700114D01*
X13936343Y-12714400D01*
X14050628Y-13014400D02*
X14064914Y-13000114D01*
X14093486Y-12957257D01*
X14107771Y-12928686D01*
X14122057Y-12885829D01*
X14136343Y-12814400D01*
X14136343Y-12757257D01*
X14122057Y-12685829D01*
X14107771Y-12642971D01*
X14093486Y-12614400D01*
X14064914Y-12571543D01*
X14050628Y-12557257D01*
X7244200Y-13000400D02*
X7564200Y-13320400D01*
X7564200Y-13000400D02*
X7244200Y-13320400D01*
X7517338Y-13273538D02*
X7517338Y-13047262D01*
X7291062Y-13047262D01*
X7291062Y-13273538D01*
X7517338Y-13273538D01*
X7822057Y-12996114D02*
X8007771Y-12996114D01*
X7907771Y-13110400D01*
X7950628Y-13110400D01*
X7979200Y-13124686D01*
X7993486Y-13138971D01*
X8007771Y-13167543D01*
X8007771Y-13238971D01*
X7993486Y-13267543D01*
X7979200Y-13281829D01*
X7950628Y-13296114D01*
X7864914Y-13296114D01*
X7836343Y-13281829D01*
X7822057Y-13267543D01*
X8136343Y-13267543D02*
X8150628Y-13281829D01*
X8136343Y-13296114D01*
X8122057Y-13281829D01*
X8136343Y-13267543D01*
X8136343Y-13296114D01*
X8264914Y-13024686D02*
X8279200Y-13010400D01*
X8307771Y-12996114D01*
X8379200Y-12996114D01*
X8407771Y-13010400D01*
X8422057Y-13024686D01*
X8436343Y-13053257D01*
X8436343Y-13081829D01*
X8422057Y-13124686D01*
X8250628Y-13296114D01*
X8436343Y-13296114D01*
X8622057Y-12996114D02*
X8650628Y-12996114D01*
X8679200Y-13010400D01*
X8693486Y-13024686D01*
X8707771Y-13053257D01*
X8722057Y-13110400D01*
X8722057Y-13181829D01*
X8707771Y-13238971D01*
X8693486Y-13267543D01*
X8679200Y-13281829D01*
X8650628Y-13296114D01*
X8622057Y-13296114D01*
X8593486Y-13281829D01*
X8579200Y-13267543D01*
X8564914Y-13238971D01*
X8550628Y-13181829D01*
X8550628Y-13110400D01*
X8564914Y-13053257D01*
X8579200Y-13024686D01*
X8593486Y-13010400D01*
X8622057Y-12996114D01*
X8850628Y-13296114D02*
X8850628Y-13096114D01*
X8850628Y-13124686D02*
X8864914Y-13110400D01*
X8893486Y-13096114D01*
X8936343Y-13096114D01*
X8964914Y-13110400D01*
X8979200Y-13138971D01*
X8979200Y-13296114D01*
X8979200Y-13138971D02*
X8993486Y-13110400D01*
X9022057Y-13096114D01*
X9064914Y-13096114D01*
X9093486Y-13110400D01*
X9107771Y-13138971D01*
X9107771Y-13296114D01*
X9250628Y-13296114D02*
X9250628Y-13096114D01*
X9250628Y-13124686D02*
X9264914Y-13110400D01*
X9293486Y-13096114D01*
X9336343Y-13096114D01*
X9364914Y-13110400D01*
X9379200Y-13138971D01*
X9379200Y-13296114D01*
X9379200Y-13138971D02*
X9393486Y-13110400D01*
X9422057Y-13096114D01*
X9464914Y-13096114D01*
X9493486Y-13110400D01*
X9507771Y-13138971D01*
X9507771Y-13296114D01*
X10093486Y-12981829D02*
X9836343Y-13367543D01*
X10479200Y-12996114D02*
X10507771Y-12996114D01*
X10536343Y-13010400D01*
X10550628Y-13024686D01*
X10564914Y-13053257D01*
X10579200Y-13110400D01*
X10579200Y-13181829D01*
X10564914Y-13238971D01*
X10550628Y-13267543D01*
X10536343Y-13281829D01*
X10507771Y-13296114D01*
X10479200Y-13296114D01*
X10450628Y-13281829D01*
X10436343Y-13267543D01*
X10422057Y-13238971D01*
X10407771Y-13181829D01*
X10407771Y-13110400D01*
X10422057Y-13053257D01*
X10436343Y-13024686D01*
X10450628Y-13010400D01*
X10479200Y-12996114D01*
X10707771Y-13267543D02*
X10722057Y-13281829D01*
X10707771Y-13296114D01*
X10693486Y-13281829D01*
X10707771Y-13267543D01*
X10707771Y-13296114D01*
X11007771Y-13296114D02*
X10836343Y-13296114D01*
X10922057Y-13296114D02*
X10922057Y-12996114D01*
X10893486Y-13038971D01*
X10864914Y-13067543D01*
X10836343Y-13081829D01*
X11122057Y-13024686D02*
X11136343Y-13010400D01*
X11164914Y-12996114D01*
X11236343Y-12996114D01*
X11264914Y-13010400D01*
X11279200Y-13024686D01*
X11293486Y-13053257D01*
X11293486Y-13081829D01*
X11279200Y-13124686D01*
X11107771Y-13296114D01*
X11293486Y-13296114D01*
X11550628Y-12996114D02*
X11493486Y-12996114D01*
X11464914Y-13010400D01*
X11450628Y-13024686D01*
X11422057Y-13067543D01*
X11407771Y-13124686D01*
X11407771Y-13238971D01*
X11422057Y-13267543D01*
X11436343Y-13281829D01*
X11464914Y-13296114D01*
X11522057Y-13296114D01*
X11550628Y-13281829D01*
X11564914Y-13267543D01*
X11579200Y-13238971D01*
X11579200Y-13167543D01*
X11564914Y-13138971D01*
X11550628Y-13124686D01*
X11522057Y-13110400D01*
X11464914Y-13110400D01*
X11436343Y-13124686D01*
X11422057Y-13138971D01*
X11407771Y-13167543D01*
X11693486Y-12996114D02*
X11693486Y-13053257D01*
X11807771Y-12996114D02*
X11807771Y-13053257D01*
X12250628Y-13410400D02*
X12236343Y-13396114D01*
X12207771Y-13353257D01*
X12193486Y-13324686D01*
X12179200Y-13281829D01*
X12164914Y-13210400D01*
X12164914Y-13153257D01*
X12179200Y-13081829D01*
X12193486Y-13038971D01*
X12207771Y-13010400D01*
X12236343Y-12967543D01*
X12250628Y-12953257D01*
X12493486Y-13096114D02*
X12493486Y-13296114D01*
X12422057Y-12981829D02*
X12350628Y-13196114D01*
X12536343Y-13196114D01*
X12879200Y-13296114D02*
X12879200Y-12996114D01*
X13007771Y-13296114D02*
X13007771Y-13138971D01*
X12993486Y-13110400D01*
X12964914Y-13096114D01*
X12922057Y-13096114D01*
X12893486Y-13110400D01*
X12879200Y-13124686D01*
X13193486Y-13296114D02*
X13164914Y-13281829D01*
X13150628Y-13267543D01*
X13136343Y-13238971D01*
X13136343Y-13153257D01*
X13150628Y-13124686D01*
X13164914Y-13110400D01*
X13193486Y-13096114D01*
X13236343Y-13096114D01*
X13264914Y-13110400D01*
X13279200Y-13124686D01*
X13293486Y-13153257D01*
X13293486Y-13238971D01*
X13279200Y-13267543D01*
X13264914Y-13281829D01*
X13236343Y-13296114D01*
X13193486Y-13296114D01*
X13464914Y-13296114D02*
X13436343Y-13281829D01*
X13422057Y-13253257D01*
X13422057Y-12996114D01*
X13693486Y-13281829D02*
X13664914Y-13296114D01*
X13607771Y-13296114D01*
X13579200Y-13281829D01*
X13564914Y-13253257D01*
X13564914Y-13138971D01*
X13579200Y-13110400D01*
X13607771Y-13096114D01*
X13664914Y-13096114D01*
X13693486Y-13110400D01*
X13707771Y-13138971D01*
X13707771Y-13167543D01*
X13564914Y-13196114D01*
X13822057Y-13281829D02*
X13850628Y-13296114D01*
X13907771Y-13296114D01*
X13936343Y-13281829D01*
X13950628Y-13253257D01*
X13950628Y-13238971D01*
X13936343Y-13210400D01*
X13907771Y-13196114D01*
X13864914Y-13196114D01*
X13836343Y-13181829D01*
X13822057Y-13153257D01*
X13822057Y-13138971D01*
X13836343Y-13110400D01*
X13864914Y-13096114D01*
X13907771Y-13096114D01*
X13936343Y-13110400D01*
X14050628Y-13410400D02*
X14064914Y-13396114D01*
X14093486Y-13353257D01*
X14107771Y-13324686D01*
X14122057Y-13281829D01*
X14136343Y-13210400D01*
X14136343Y-13153257D01*
X14122057Y-13081829D01*
X14107771Y-13038971D01*
X14093486Y-13010400D01*
X14064914Y-12967543D01*
X14050628Y-12953257D01*
M02*
