%FSLAX45Y45*%
G04 Gerber Fmt 4.5, Leading zero omitted, Abs format (unit mm)*
G04 Created by KiCad (PCBNEW (6.0.0-0)) date 2021-12-28 15:21:58*
%MOMM*%
%LPD*%
G01*
G04 APERTURE LIST*
%TA.AperFunction,Profile*%
%ADD10C,0.050000*%
%TD*%
%ADD11C,0.200000*%
G04 APERTURE END LIST*
D10*
X12065000Y-10299700D02*
X14312900Y-10299700D01*
X14312900Y-10299700D02*
X14312900Y-12814300D01*
X12065000Y-12814300D02*
X12065000Y-10299700D01*
X14312900Y-12814300D02*
X12065000Y-12814300D01*
D11*
X12320119Y-13127276D02*
X12320119Y-12927276D01*
X12367738Y-12927276D01*
X12396309Y-12936800D01*
X12415357Y-12955848D01*
X12424881Y-12974895D01*
X12434405Y-13012990D01*
X12434405Y-13041562D01*
X12424881Y-13079657D01*
X12415357Y-13098705D01*
X12396309Y-13117752D01*
X12367738Y-13127276D01*
X12320119Y-13127276D01*
X12520119Y-13127276D02*
X12520119Y-12993943D01*
X12520119Y-13032038D02*
X12529643Y-13012990D01*
X12539167Y-13003467D01*
X12558214Y-12993943D01*
X12577262Y-12993943D01*
X12643928Y-13127276D02*
X12643928Y-12993943D01*
X12643928Y-12927276D02*
X12634405Y-12936800D01*
X12643928Y-12946324D01*
X12653452Y-12936800D01*
X12643928Y-12927276D01*
X12643928Y-12946324D01*
X12767738Y-13127276D02*
X12748690Y-13117752D01*
X12739167Y-13098705D01*
X12739167Y-12927276D01*
X12872500Y-13127276D02*
X12853452Y-13117752D01*
X12843928Y-13098705D01*
X12843928Y-12927276D01*
X13101071Y-13127276D02*
X13101071Y-12927276D01*
X13167738Y-13070133D01*
X13234405Y-12927276D01*
X13234405Y-13127276D01*
X13415357Y-13127276D02*
X13415357Y-13022514D01*
X13405833Y-13003467D01*
X13386786Y-12993943D01*
X13348690Y-12993943D01*
X13329643Y-13003467D01*
X13415357Y-13117752D02*
X13396309Y-13127276D01*
X13348690Y-13127276D01*
X13329643Y-13117752D01*
X13320119Y-13098705D01*
X13320119Y-13079657D01*
X13329643Y-13060609D01*
X13348690Y-13051086D01*
X13396309Y-13051086D01*
X13415357Y-13041562D01*
X13510595Y-12993943D02*
X13510595Y-13193943D01*
X13510595Y-13003467D02*
X13529643Y-12993943D01*
X13567738Y-12993943D01*
X13586786Y-13003467D01*
X13596309Y-13012990D01*
X13605833Y-13032038D01*
X13605833Y-13089181D01*
X13596309Y-13108228D01*
X13586786Y-13117752D01*
X13567738Y-13127276D01*
X13529643Y-13127276D01*
X13510595Y-13117752D01*
X13691548Y-13108228D02*
X13701071Y-13117752D01*
X13691548Y-13127276D01*
X13682024Y-13117752D01*
X13691548Y-13108228D01*
X13691548Y-13127276D01*
X13691548Y-13003467D02*
X13701071Y-13012990D01*
X13691548Y-13022514D01*
X13682024Y-13012990D01*
X13691548Y-13003467D01*
X13691548Y-13022514D01*
M02*
