G04 #@! TF.GenerationSoftware,KiCad,Pcbnew,(5.1.10-1-10_14)*
G04 #@! TF.CreationDate,2021-12-19T23:04:46+01:00*
G04 #@! TF.ProjectId,7segment,37736567-6d65-46e7-942e-6b696361645f,rev?*
G04 #@! TF.SameCoordinates,Original*
G04 #@! TF.FileFunction,Legend,Bot*
G04 #@! TF.FilePolarity,Positive*
%FSLAX46Y46*%
G04 Gerber Fmt 4.6, Leading zero omitted, Abs format (unit mm)*
G04 Created by KiCad (PCBNEW (5.1.10-1-10_14)) date 2021-12-19 23:04:46*
%MOMM*%
%LPD*%
G01*
G04 APERTURE LIST*
%ADD10C,0.120000*%
%ADD11C,0.153000*%
%ADD12C,0.150000*%
%ADD13O,1.801600X1.801600*%
%ADD14C,0.100000*%
%ADD15C,1.801600*%
G04 APERTURE END LIST*
D10*
X139954000Y-104013000D02*
X139954000Y-104902000D01*
D11*
X124118666Y-109831761D02*
X124118666Y-110307952D01*
X124404380Y-109736523D02*
X123404380Y-110069857D01*
X124404380Y-110403190D01*
X124309142Y-110736523D02*
X124356761Y-110784142D01*
X124404380Y-110736523D01*
X124356761Y-110688904D01*
X124309142Y-110736523D01*
X124404380Y-110736523D01*
X124404380Y-111212714D02*
X123404380Y-111212714D01*
X124404380Y-111784142D02*
X123832952Y-111355571D01*
X123404380Y-111784142D02*
X123975809Y-111212714D01*
X124404380Y-112355571D02*
X124356761Y-112260333D01*
X124309142Y-112212714D01*
X124213904Y-112165095D01*
X123928190Y-112165095D01*
X123832952Y-112212714D01*
X123785333Y-112260333D01*
X123737714Y-112355571D01*
X123737714Y-112498428D01*
X123785333Y-112593666D01*
X123832952Y-112641285D01*
X123928190Y-112688904D01*
X124213904Y-112688904D01*
X124309142Y-112641285D01*
X124356761Y-112593666D01*
X124404380Y-112498428D01*
X124404380Y-112355571D01*
X124404380Y-113117476D02*
X123404380Y-113117476D01*
X124404380Y-113546047D02*
X123880571Y-113546047D01*
X123785333Y-113498428D01*
X123737714Y-113403190D01*
X123737714Y-113260333D01*
X123785333Y-113165095D01*
X123832952Y-113117476D01*
X124404380Y-114165095D02*
X124356761Y-114069857D01*
X124261523Y-114022238D01*
X123404380Y-114022238D01*
X124404380Y-114546047D02*
X123404380Y-114546047D01*
X123785333Y-114546047D02*
X123737714Y-114641285D01*
X123737714Y-114831761D01*
X123785333Y-114927000D01*
X123832952Y-114974619D01*
X123928190Y-115022238D01*
X124213904Y-115022238D01*
X124309142Y-114974619D01*
X124356761Y-114927000D01*
X124404380Y-114831761D01*
X124404380Y-114641285D01*
X124356761Y-114546047D01*
X124356761Y-115831761D02*
X124404380Y-115736523D01*
X124404380Y-115546047D01*
X124356761Y-115450809D01*
X124261523Y-115403190D01*
X123880571Y-115403190D01*
X123785333Y-115450809D01*
X123737714Y-115546047D01*
X123737714Y-115736523D01*
X123785333Y-115831761D01*
X123880571Y-115879380D01*
X123975809Y-115879380D01*
X124071047Y-115403190D01*
X124356761Y-116736523D02*
X124404380Y-116641285D01*
X124404380Y-116450809D01*
X124356761Y-116355571D01*
X124309142Y-116307952D01*
X124213904Y-116260333D01*
X123928190Y-116260333D01*
X123832952Y-116307952D01*
X123785333Y-116355571D01*
X123737714Y-116450809D01*
X123737714Y-116641285D01*
X123785333Y-116736523D01*
X124404380Y-117165095D02*
X123404380Y-117165095D01*
X124023428Y-117260333D02*
X124404380Y-117546047D01*
X123737714Y-117546047D02*
X124118666Y-117165095D01*
X124356761Y-118355571D02*
X124404380Y-118260333D01*
X124404380Y-118069857D01*
X124356761Y-117974619D01*
X124261523Y-117927000D01*
X123880571Y-117927000D01*
X123785333Y-117974619D01*
X123737714Y-118069857D01*
X123737714Y-118260333D01*
X123785333Y-118355571D01*
X123880571Y-118403190D01*
X123975809Y-118403190D01*
X124071047Y-117927000D01*
X124404380Y-118831761D02*
X123737714Y-118831761D01*
X123928190Y-118831761D02*
X123832952Y-118879380D01*
X123785333Y-118927000D01*
X123737714Y-119022238D01*
X123737714Y-119117476D01*
D12*
X134302476Y-121118380D02*
X134778666Y-121118380D01*
X134826285Y-121594571D01*
X134778666Y-121546952D01*
X134683428Y-121499333D01*
X134445333Y-121499333D01*
X134350095Y-121546952D01*
X134302476Y-121594571D01*
X134254857Y-121689809D01*
X134254857Y-121927904D01*
X134302476Y-122023142D01*
X134350095Y-122070761D01*
X134445333Y-122118380D01*
X134683428Y-122118380D01*
X134778666Y-122070761D01*
X134826285Y-122023142D01*
X133969142Y-121118380D02*
X133635809Y-122118380D01*
X133302476Y-121118380D01*
D11*
X142152523Y-127706380D02*
X142485857Y-127230190D01*
X142723952Y-127706380D02*
X142723952Y-126706380D01*
X142343000Y-126706380D01*
X142247761Y-126754000D01*
X142200142Y-126801619D01*
X142152523Y-126896857D01*
X142152523Y-127039714D01*
X142200142Y-127134952D01*
X142247761Y-127182571D01*
X142343000Y-127230190D01*
X142723952Y-127230190D01*
X141343000Y-127658761D02*
X141438238Y-127706380D01*
X141628714Y-127706380D01*
X141723952Y-127658761D01*
X141771571Y-127563523D01*
X141771571Y-127182571D01*
X141723952Y-127087333D01*
X141628714Y-127039714D01*
X141438238Y-127039714D01*
X141343000Y-127087333D01*
X141295380Y-127182571D01*
X141295380Y-127277809D01*
X141771571Y-127373047D01*
X140962047Y-127039714D02*
X140723952Y-127706380D01*
X140485857Y-127039714D01*
X139390619Y-127420666D02*
X138914428Y-127420666D01*
X139485857Y-127706380D02*
X139152523Y-126706380D01*
X138819190Y-127706380D01*
X123499619Y-120332785D02*
X123452000Y-120380404D01*
X123404380Y-120475642D01*
X123404380Y-120713737D01*
X123452000Y-120808975D01*
X123499619Y-120856594D01*
X123594857Y-120904213D01*
X123690095Y-120904213D01*
X123832952Y-120856594D01*
X124404380Y-120285166D01*
X124404380Y-120904213D01*
X123404380Y-121523261D02*
X123404380Y-121618499D01*
X123452000Y-121713737D01*
X123499619Y-121761356D01*
X123594857Y-121808975D01*
X123785333Y-121856594D01*
X124023428Y-121856594D01*
X124213904Y-121808975D01*
X124309142Y-121761356D01*
X124356761Y-121713737D01*
X124404380Y-121618499D01*
X124404380Y-121523261D01*
X124356761Y-121428023D01*
X124309142Y-121380404D01*
X124213904Y-121332785D01*
X124023428Y-121285166D01*
X123785333Y-121285166D01*
X123594857Y-121332785D01*
X123499619Y-121380404D01*
X123452000Y-121428023D01*
X123404380Y-121523261D01*
X123499619Y-122237547D02*
X123452000Y-122285166D01*
X123404380Y-122380404D01*
X123404380Y-122618499D01*
X123452000Y-122713737D01*
X123499619Y-122761356D01*
X123594857Y-122808975D01*
X123690095Y-122808975D01*
X123832952Y-122761356D01*
X124404380Y-122189928D01*
X124404380Y-122808975D01*
X124404380Y-123761356D02*
X124404380Y-123189928D01*
X124404380Y-123475642D02*
X123404380Y-123475642D01*
X123547238Y-123380404D01*
X123642476Y-123285166D01*
X123690095Y-123189928D01*
X124404380Y-124713737D02*
X124404380Y-124142309D01*
X124404380Y-124428023D02*
X123404380Y-124428023D01*
X123547238Y-124332785D01*
X123642476Y-124237547D01*
X123690095Y-124142309D01*
X123499619Y-125094690D02*
X123452000Y-125142309D01*
X123404380Y-125237547D01*
X123404380Y-125475642D01*
X123452000Y-125570880D01*
X123499619Y-125618499D01*
X123594857Y-125666118D01*
X123690095Y-125666118D01*
X123832952Y-125618499D01*
X124404380Y-125047071D01*
X124404380Y-125666118D01*
X124404380Y-126618499D02*
X124404380Y-126047071D01*
X124404380Y-126332785D02*
X123404380Y-126332785D01*
X123547238Y-126237547D01*
X123642476Y-126142309D01*
X123690095Y-126047071D01*
X123404380Y-126951833D02*
X123404380Y-127618499D01*
X124404380Y-127189928D01*
X126777523Y-104338380D02*
X126777523Y-103338380D01*
X126444190Y-104052666D01*
X126110857Y-103338380D01*
X126110857Y-104338380D01*
X125444190Y-103338380D02*
X125253714Y-103338380D01*
X125158476Y-103386000D01*
X125063238Y-103481238D01*
X125015619Y-103671714D01*
X125015619Y-104005047D01*
X125063238Y-104195523D01*
X125158476Y-104290761D01*
X125253714Y-104338380D01*
X125444190Y-104338380D01*
X125539428Y-104290761D01*
X125634666Y-104195523D01*
X125682285Y-104005047D01*
X125682285Y-103671714D01*
X125634666Y-103481238D01*
X125539428Y-103386000D01*
X125444190Y-103338380D01*
X124587047Y-104338380D02*
X124587047Y-103338380D01*
X124348952Y-103338380D01*
X124206095Y-103386000D01*
X124110857Y-103481238D01*
X124063238Y-103576476D01*
X124015619Y-103766952D01*
X124015619Y-103909809D01*
X124063238Y-104100285D01*
X124110857Y-104195523D01*
X124206095Y-104290761D01*
X124348952Y-104338380D01*
X124587047Y-104338380D01*
X123587047Y-103814571D02*
X123253714Y-103814571D01*
X123110857Y-104338380D02*
X123587047Y-104338380D01*
X123587047Y-103338380D01*
X123110857Y-103338380D01*
D12*
X134326190Y-127833380D02*
X134326190Y-126833380D01*
X133897619Y-127785761D02*
X133754761Y-127833380D01*
X133516666Y-127833380D01*
X133421428Y-127785761D01*
X133373809Y-127738142D01*
X133326190Y-127642904D01*
X133326190Y-127547666D01*
X133373809Y-127452428D01*
X133421428Y-127404809D01*
X133516666Y-127357190D01*
X133707142Y-127309571D01*
X133802380Y-127261952D01*
X133850000Y-127214333D01*
X133897619Y-127119095D01*
X133897619Y-127023857D01*
X133850000Y-126928619D01*
X133802380Y-126881000D01*
X133707142Y-126833380D01*
X133469047Y-126833380D01*
X133326190Y-126881000D01*
X132897619Y-127833380D02*
X132897619Y-126833380D01*
X132516666Y-126833380D01*
X132421428Y-126881000D01*
X132373809Y-126928619D01*
X132326190Y-127023857D01*
X132326190Y-127166714D01*
X132373809Y-127261952D01*
X132421428Y-127309571D01*
X132516666Y-127357190D01*
X132897619Y-127357190D01*
D10*
X137287000Y-106426000D02*
G75*
G03*
X137287000Y-106426000I-127000J0D01*
G01*
X126744000Y-114264221D02*
X126744000Y-114589779D01*
X127764000Y-114264221D02*
X127764000Y-114589779D01*
X126894000Y-111994836D02*
X126894000Y-111779164D01*
X127614000Y-111994836D02*
X127614000Y-111779164D01*
X139676000Y-103671000D02*
X139676000Y-105371000D01*
X139676000Y-105371000D02*
X137126000Y-105371000D01*
X139676000Y-103671000D02*
X137126000Y-103671000D01*
X136511420Y-117223000D02*
X136792580Y-117223000D01*
X136511420Y-116203000D02*
X136792580Y-116203000D01*
X132394000Y-121793000D02*
X132394000Y-120463000D01*
X132394000Y-120463000D02*
X131064000Y-120463000D01*
D12*
X136975000Y-106963000D02*
X138400000Y-106963000D01*
X129725000Y-106738000D02*
X130050000Y-106738000D01*
X129725000Y-113988000D02*
X130050000Y-113988000D01*
X136975000Y-113988000D02*
X136650000Y-113988000D01*
X136975000Y-106738000D02*
X136650000Y-106738000D01*
X136975000Y-113988000D02*
X136975000Y-113663000D01*
X129725000Y-113988000D02*
X129725000Y-113663000D01*
X129725000Y-106738000D02*
X129725000Y-107063000D01*
X136975000Y-106738000D02*
X136975000Y-106963000D01*
D10*
X129924000Y-104221000D02*
G75*
G03*
X129224000Y-103521000I-700000J0D01*
G01*
X129224000Y-105521000D02*
G75*
G03*
X129924000Y-104821000I0J700000D01*
G01*
X127124000Y-104821000D02*
G75*
G03*
X127824000Y-105521000I700000J0D01*
G01*
X127824000Y-103521000D02*
G75*
G03*
X127124000Y-104221000I0J-700000D01*
G01*
X129924000Y-104821000D02*
X129924000Y-104221000D01*
X127824000Y-105521000D02*
X129224000Y-105521000D01*
X127124000Y-104221000D02*
X127124000Y-104821000D01*
X129224000Y-103521000D02*
X127824000Y-103521000D01*
X133376641Y-104014000D02*
X133069359Y-104014000D01*
X133376641Y-104774000D02*
X133069359Y-104774000D01*
X135147164Y-104754000D02*
X135362836Y-104754000D01*
X135147164Y-104034000D02*
X135362836Y-104034000D01*
X138959000Y-111486836D02*
X138959000Y-111271164D01*
X139679000Y-111486836D02*
X139679000Y-111271164D01*
X130938000Y-119025641D02*
X130938000Y-118718359D01*
X131698000Y-119025641D02*
X131698000Y-118718359D01*
X128652000Y-119025641D02*
X128652000Y-118718359D01*
X129412000Y-119025641D02*
X129412000Y-118718359D01*
X128652000Y-116993641D02*
X128652000Y-116686359D01*
X129412000Y-116993641D02*
X129412000Y-116686359D01*
X129795000Y-116993641D02*
X129795000Y-116686359D01*
X130555000Y-116993641D02*
X130555000Y-116686359D01*
X130938000Y-116993641D02*
X130938000Y-116686359D01*
X131698000Y-116993641D02*
X131698000Y-116686359D01*
X138809000Y-123261000D02*
X137349000Y-123261000D01*
X138809000Y-126421000D02*
X136649000Y-126421000D01*
X138809000Y-126421000D02*
X138809000Y-125491000D01*
X138809000Y-123261000D02*
X138809000Y-124191000D01*
X126894000Y-109835836D02*
X126894000Y-109620164D01*
X127614000Y-109835836D02*
X127614000Y-109620164D01*
X138959000Y-109581836D02*
X138959000Y-109366164D01*
X139679000Y-109581836D02*
X139679000Y-109366164D01*
X134960000Y-118050000D02*
X138070000Y-118050000D01*
X137500000Y-120710000D02*
X138070000Y-120710000D01*
X132870000Y-118050000D02*
X133440000Y-118050000D01*
X133440000Y-118050000D02*
X133440000Y-116530000D01*
X132870000Y-120710000D02*
X135980000Y-120710000D01*
X138070000Y-118050000D02*
X138070000Y-120710000D01*
X132870000Y-118050000D02*
X132870000Y-120710000D01*
X134745000Y-123261000D02*
X133285000Y-123261000D01*
X134745000Y-126421000D02*
X132585000Y-126421000D01*
X134745000Y-126421000D02*
X134745000Y-125491000D01*
X134745000Y-123261000D02*
X134745000Y-124191000D01*
%LPC*%
G36*
G01*
X126972350Y-114726200D02*
X127535650Y-114726200D01*
G75*
G02*
X127779800Y-114970350I0J-244150D01*
G01*
X127779800Y-115458650D01*
G75*
G02*
X127535650Y-115702800I-244150J0D01*
G01*
X126972350Y-115702800D01*
G75*
G02*
X126728200Y-115458650I0J244150D01*
G01*
X126728200Y-114970350D01*
G75*
G02*
X126972350Y-114726200I244150J0D01*
G01*
G37*
G36*
G01*
X126972350Y-113151200D02*
X127535650Y-113151200D01*
G75*
G02*
X127779800Y-113395350I0J-244150D01*
G01*
X127779800Y-113883650D01*
G75*
G02*
X127535650Y-114127800I-244150J0D01*
G01*
X126972350Y-114127800D01*
G75*
G02*
X126728200Y-113883650I0J244150D01*
G01*
X126728200Y-113395350D01*
G75*
G02*
X126972350Y-113151200I244150J0D01*
G01*
G37*
G36*
G01*
X127449400Y-111737800D02*
X127058600Y-111737800D01*
G75*
G02*
X126893200Y-111572400I0J165400D01*
G01*
X126893200Y-111241600D01*
G75*
G02*
X127058600Y-111076200I165400J0D01*
G01*
X127449400Y-111076200D01*
G75*
G02*
X127614800Y-111241600I0J-165400D01*
G01*
X127614800Y-111572400D01*
G75*
G02*
X127449400Y-111737800I-165400J0D01*
G01*
G37*
G36*
G01*
X127449400Y-112697800D02*
X127058600Y-112697800D01*
G75*
G02*
X126893200Y-112532400I0J165400D01*
G01*
X126893200Y-112201600D01*
G75*
G02*
X127058600Y-112036200I165400J0D01*
G01*
X127449400Y-112036200D01*
G75*
G02*
X127614800Y-112201600I0J-165400D01*
G01*
X127614800Y-112532400D01*
G75*
G02*
X127449400Y-112697800I-165400J0D01*
G01*
G37*
D13*
X121920000Y-104140000D03*
X121920000Y-106680000D03*
X121920000Y-109220000D03*
X121920000Y-111760000D03*
X121920000Y-114300000D03*
X121920000Y-116840000D03*
X121920000Y-119380000D03*
X121920000Y-121920000D03*
X121920000Y-124460000D03*
G36*
G01*
X121019200Y-127850000D02*
X121019200Y-126150000D01*
G75*
G02*
X121070000Y-126099200I50800J0D01*
G01*
X122770000Y-126099200D01*
G75*
G02*
X122820800Y-126150000I0J-50800D01*
G01*
X122820800Y-127850000D01*
G75*
G02*
X122770000Y-127900800I-50800J0D01*
G01*
X121070000Y-127900800D01*
G75*
G02*
X121019200Y-127850000I0J50800D01*
G01*
G37*
G36*
G01*
X137376800Y-104270999D02*
X137376800Y-104771001D01*
G75*
G02*
X137326001Y-104821800I-50799J0D01*
G01*
X136825999Y-104821800D01*
G75*
G02*
X136775200Y-104771001I0J50799D01*
G01*
X136775200Y-104270999D01*
G75*
G02*
X136825999Y-104220200I50799J0D01*
G01*
X137326001Y-104220200D01*
G75*
G02*
X137376800Y-104270999I0J-50799D01*
G01*
G37*
G36*
G01*
X139576800Y-104270999D02*
X139576800Y-104771001D01*
G75*
G02*
X139526001Y-104821800I-50799J0D01*
G01*
X139025999Y-104821800D01*
G75*
G02*
X138975200Y-104771001I0J50799D01*
G01*
X138975200Y-104270999D01*
G75*
G02*
X139025999Y-104220200I50799J0D01*
G01*
X139526001Y-104220200D01*
G75*
G02*
X139576800Y-104270999I0J-50799D01*
G01*
G37*
G36*
G01*
X136926200Y-116988400D02*
X136926200Y-116437600D01*
G75*
G02*
X137176600Y-116187200I250400J0D01*
G01*
X137677400Y-116187200D01*
G75*
G02*
X137927800Y-116437600I0J-250400D01*
G01*
X137927800Y-116988400D01*
G75*
G02*
X137677400Y-117238800I-250400J0D01*
G01*
X137176600Y-117238800D01*
G75*
G02*
X136926200Y-116988400I0J250400D01*
G01*
G37*
G36*
G01*
X135376200Y-116988400D02*
X135376200Y-116437600D01*
G75*
G02*
X135626600Y-116187200I250400J0D01*
G01*
X136127400Y-116187200D01*
G75*
G02*
X136377800Y-116437600I0J-250400D01*
G01*
X136377800Y-116988400D01*
G75*
G02*
X136127400Y-117238800I-250400J0D01*
G01*
X135626600Y-117238800D01*
G75*
G02*
X135376200Y-116988400I0J250400D01*
G01*
G37*
X128524000Y-126873000D03*
X131064000Y-126873000D03*
X128524000Y-124333000D03*
X131064000Y-124333000D03*
X128524000Y-121793000D03*
G36*
G01*
X131964800Y-120943000D02*
X131964800Y-122643000D01*
G75*
G02*
X131914000Y-122693800I-50800J0D01*
G01*
X130214000Y-122693800D01*
G75*
G02*
X130163200Y-122643000I0J50800D01*
G01*
X130163200Y-120943000D01*
G75*
G02*
X130214000Y-120892200I50800J0D01*
G01*
X131914000Y-120892200D01*
G75*
G02*
X131964800Y-120943000I0J-50800D01*
G01*
G37*
G36*
G01*
X138450800Y-107288000D02*
X138450800Y-107838000D01*
G75*
G02*
X138400000Y-107888800I-50800J0D01*
G01*
X136800000Y-107888800D01*
G75*
G02*
X136749200Y-107838000I0J50800D01*
G01*
X136749200Y-107288000D01*
G75*
G02*
X136800000Y-107237200I50800J0D01*
G01*
X138400000Y-107237200D01*
G75*
G02*
X138450800Y-107288000I0J-50800D01*
G01*
G37*
G36*
G01*
X138450800Y-108088000D02*
X138450800Y-108638000D01*
G75*
G02*
X138400000Y-108688800I-50800J0D01*
G01*
X136800000Y-108688800D01*
G75*
G02*
X136749200Y-108638000I0J50800D01*
G01*
X136749200Y-108088000D01*
G75*
G02*
X136800000Y-108037200I50800J0D01*
G01*
X138400000Y-108037200D01*
G75*
G02*
X138450800Y-108088000I0J-50800D01*
G01*
G37*
G36*
G01*
X138450800Y-108888000D02*
X138450800Y-109438000D01*
G75*
G02*
X138400000Y-109488800I-50800J0D01*
G01*
X136800000Y-109488800D01*
G75*
G02*
X136749200Y-109438000I0J50800D01*
G01*
X136749200Y-108888000D01*
G75*
G02*
X136800000Y-108837200I50800J0D01*
G01*
X138400000Y-108837200D01*
G75*
G02*
X138450800Y-108888000I0J-50800D01*
G01*
G37*
G36*
G01*
X138450800Y-109688000D02*
X138450800Y-110238000D01*
G75*
G02*
X138400000Y-110288800I-50800J0D01*
G01*
X136800000Y-110288800D01*
G75*
G02*
X136749200Y-110238000I0J50800D01*
G01*
X136749200Y-109688000D01*
G75*
G02*
X136800000Y-109637200I50800J0D01*
G01*
X138400000Y-109637200D01*
G75*
G02*
X138450800Y-109688000I0J-50800D01*
G01*
G37*
G36*
G01*
X138450800Y-110488000D02*
X138450800Y-111038000D01*
G75*
G02*
X138400000Y-111088800I-50800J0D01*
G01*
X136800000Y-111088800D01*
G75*
G02*
X136749200Y-111038000I0J50800D01*
G01*
X136749200Y-110488000D01*
G75*
G02*
X136800000Y-110437200I50800J0D01*
G01*
X138400000Y-110437200D01*
G75*
G02*
X138450800Y-110488000I0J-50800D01*
G01*
G37*
G36*
G01*
X138450800Y-111288000D02*
X138450800Y-111838000D01*
G75*
G02*
X138400000Y-111888800I-50800J0D01*
G01*
X136800000Y-111888800D01*
G75*
G02*
X136749200Y-111838000I0J50800D01*
G01*
X136749200Y-111288000D01*
G75*
G02*
X136800000Y-111237200I50800J0D01*
G01*
X138400000Y-111237200D01*
G75*
G02*
X138450800Y-111288000I0J-50800D01*
G01*
G37*
G36*
G01*
X138450800Y-112088000D02*
X138450800Y-112638000D01*
G75*
G02*
X138400000Y-112688800I-50800J0D01*
G01*
X136800000Y-112688800D01*
G75*
G02*
X136749200Y-112638000I0J50800D01*
G01*
X136749200Y-112088000D01*
G75*
G02*
X136800000Y-112037200I50800J0D01*
G01*
X138400000Y-112037200D01*
G75*
G02*
X138450800Y-112088000I0J-50800D01*
G01*
G37*
G36*
G01*
X138450800Y-112888000D02*
X138450800Y-113438000D01*
G75*
G02*
X138400000Y-113488800I-50800J0D01*
G01*
X136800000Y-113488800D01*
G75*
G02*
X136749200Y-113438000I0J50800D01*
G01*
X136749200Y-112888000D01*
G75*
G02*
X136800000Y-112837200I50800J0D01*
G01*
X138400000Y-112837200D01*
G75*
G02*
X138450800Y-112888000I0J-50800D01*
G01*
G37*
G36*
G01*
X136425000Y-115463800D02*
X135875000Y-115463800D01*
G75*
G02*
X135824200Y-115413000I0J50800D01*
G01*
X135824200Y-113813000D01*
G75*
G02*
X135875000Y-113762200I50800J0D01*
G01*
X136425000Y-113762200D01*
G75*
G02*
X136475800Y-113813000I0J-50800D01*
G01*
X136475800Y-115413000D01*
G75*
G02*
X136425000Y-115463800I-50800J0D01*
G01*
G37*
G36*
G01*
X135625000Y-115463800D02*
X135075000Y-115463800D01*
G75*
G02*
X135024200Y-115413000I0J50800D01*
G01*
X135024200Y-113813000D01*
G75*
G02*
X135075000Y-113762200I50800J0D01*
G01*
X135625000Y-113762200D01*
G75*
G02*
X135675800Y-113813000I0J-50800D01*
G01*
X135675800Y-115413000D01*
G75*
G02*
X135625000Y-115463800I-50800J0D01*
G01*
G37*
G36*
G01*
X134825000Y-115463800D02*
X134275000Y-115463800D01*
G75*
G02*
X134224200Y-115413000I0J50800D01*
G01*
X134224200Y-113813000D01*
G75*
G02*
X134275000Y-113762200I50800J0D01*
G01*
X134825000Y-113762200D01*
G75*
G02*
X134875800Y-113813000I0J-50800D01*
G01*
X134875800Y-115413000D01*
G75*
G02*
X134825000Y-115463800I-50800J0D01*
G01*
G37*
G36*
G01*
X134025000Y-115463800D02*
X133475000Y-115463800D01*
G75*
G02*
X133424200Y-115413000I0J50800D01*
G01*
X133424200Y-113813000D01*
G75*
G02*
X133475000Y-113762200I50800J0D01*
G01*
X134025000Y-113762200D01*
G75*
G02*
X134075800Y-113813000I0J-50800D01*
G01*
X134075800Y-115413000D01*
G75*
G02*
X134025000Y-115463800I-50800J0D01*
G01*
G37*
G36*
G01*
X133225000Y-115463800D02*
X132675000Y-115463800D01*
G75*
G02*
X132624200Y-115413000I0J50800D01*
G01*
X132624200Y-113813000D01*
G75*
G02*
X132675000Y-113762200I50800J0D01*
G01*
X133225000Y-113762200D01*
G75*
G02*
X133275800Y-113813000I0J-50800D01*
G01*
X133275800Y-115413000D01*
G75*
G02*
X133225000Y-115463800I-50800J0D01*
G01*
G37*
G36*
G01*
X132425000Y-115463800D02*
X131875000Y-115463800D01*
G75*
G02*
X131824200Y-115413000I0J50800D01*
G01*
X131824200Y-113813000D01*
G75*
G02*
X131875000Y-113762200I50800J0D01*
G01*
X132425000Y-113762200D01*
G75*
G02*
X132475800Y-113813000I0J-50800D01*
G01*
X132475800Y-115413000D01*
G75*
G02*
X132425000Y-115463800I-50800J0D01*
G01*
G37*
G36*
G01*
X131625000Y-115463800D02*
X131075000Y-115463800D01*
G75*
G02*
X131024200Y-115413000I0J50800D01*
G01*
X131024200Y-113813000D01*
G75*
G02*
X131075000Y-113762200I50800J0D01*
G01*
X131625000Y-113762200D01*
G75*
G02*
X131675800Y-113813000I0J-50800D01*
G01*
X131675800Y-115413000D01*
G75*
G02*
X131625000Y-115463800I-50800J0D01*
G01*
G37*
G36*
G01*
X130825000Y-115463800D02*
X130275000Y-115463800D01*
G75*
G02*
X130224200Y-115413000I0J50800D01*
G01*
X130224200Y-113813000D01*
G75*
G02*
X130275000Y-113762200I50800J0D01*
G01*
X130825000Y-113762200D01*
G75*
G02*
X130875800Y-113813000I0J-50800D01*
G01*
X130875800Y-115413000D01*
G75*
G02*
X130825000Y-115463800I-50800J0D01*
G01*
G37*
G36*
G01*
X129950800Y-112888000D02*
X129950800Y-113438000D01*
G75*
G02*
X129900000Y-113488800I-50800J0D01*
G01*
X128300000Y-113488800D01*
G75*
G02*
X128249200Y-113438000I0J50800D01*
G01*
X128249200Y-112888000D01*
G75*
G02*
X128300000Y-112837200I50800J0D01*
G01*
X129900000Y-112837200D01*
G75*
G02*
X129950800Y-112888000I0J-50800D01*
G01*
G37*
G36*
G01*
X129950800Y-112088000D02*
X129950800Y-112638000D01*
G75*
G02*
X129900000Y-112688800I-50800J0D01*
G01*
X128300000Y-112688800D01*
G75*
G02*
X128249200Y-112638000I0J50800D01*
G01*
X128249200Y-112088000D01*
G75*
G02*
X128300000Y-112037200I50800J0D01*
G01*
X129900000Y-112037200D01*
G75*
G02*
X129950800Y-112088000I0J-50800D01*
G01*
G37*
G36*
G01*
X129950800Y-111288000D02*
X129950800Y-111838000D01*
G75*
G02*
X129900000Y-111888800I-50800J0D01*
G01*
X128300000Y-111888800D01*
G75*
G02*
X128249200Y-111838000I0J50800D01*
G01*
X128249200Y-111288000D01*
G75*
G02*
X128300000Y-111237200I50800J0D01*
G01*
X129900000Y-111237200D01*
G75*
G02*
X129950800Y-111288000I0J-50800D01*
G01*
G37*
G36*
G01*
X129950800Y-110488000D02*
X129950800Y-111038000D01*
G75*
G02*
X129900000Y-111088800I-50800J0D01*
G01*
X128300000Y-111088800D01*
G75*
G02*
X128249200Y-111038000I0J50800D01*
G01*
X128249200Y-110488000D01*
G75*
G02*
X128300000Y-110437200I50800J0D01*
G01*
X129900000Y-110437200D01*
G75*
G02*
X129950800Y-110488000I0J-50800D01*
G01*
G37*
G36*
G01*
X129950800Y-109688000D02*
X129950800Y-110238000D01*
G75*
G02*
X129900000Y-110288800I-50800J0D01*
G01*
X128300000Y-110288800D01*
G75*
G02*
X128249200Y-110238000I0J50800D01*
G01*
X128249200Y-109688000D01*
G75*
G02*
X128300000Y-109637200I50800J0D01*
G01*
X129900000Y-109637200D01*
G75*
G02*
X129950800Y-109688000I0J-50800D01*
G01*
G37*
G36*
G01*
X129950800Y-108888000D02*
X129950800Y-109438000D01*
G75*
G02*
X129900000Y-109488800I-50800J0D01*
G01*
X128300000Y-109488800D01*
G75*
G02*
X128249200Y-109438000I0J50800D01*
G01*
X128249200Y-108888000D01*
G75*
G02*
X128300000Y-108837200I50800J0D01*
G01*
X129900000Y-108837200D01*
G75*
G02*
X129950800Y-108888000I0J-50800D01*
G01*
G37*
G36*
G01*
X129950800Y-108088000D02*
X129950800Y-108638000D01*
G75*
G02*
X129900000Y-108688800I-50800J0D01*
G01*
X128300000Y-108688800D01*
G75*
G02*
X128249200Y-108638000I0J50800D01*
G01*
X128249200Y-108088000D01*
G75*
G02*
X128300000Y-108037200I50800J0D01*
G01*
X129900000Y-108037200D01*
G75*
G02*
X129950800Y-108088000I0J-50800D01*
G01*
G37*
G36*
G01*
X129950800Y-107288000D02*
X129950800Y-107838000D01*
G75*
G02*
X129900000Y-107888800I-50800J0D01*
G01*
X128300000Y-107888800D01*
G75*
G02*
X128249200Y-107838000I0J50800D01*
G01*
X128249200Y-107288000D01*
G75*
G02*
X128300000Y-107237200I50800J0D01*
G01*
X129900000Y-107237200D01*
G75*
G02*
X129950800Y-107288000I0J-50800D01*
G01*
G37*
G36*
G01*
X130825000Y-106963800D02*
X130275000Y-106963800D01*
G75*
G02*
X130224200Y-106913000I0J50800D01*
G01*
X130224200Y-105313000D01*
G75*
G02*
X130275000Y-105262200I50800J0D01*
G01*
X130825000Y-105262200D01*
G75*
G02*
X130875800Y-105313000I0J-50800D01*
G01*
X130875800Y-106913000D01*
G75*
G02*
X130825000Y-106963800I-50800J0D01*
G01*
G37*
G36*
G01*
X131625000Y-106963800D02*
X131075000Y-106963800D01*
G75*
G02*
X131024200Y-106913000I0J50800D01*
G01*
X131024200Y-105313000D01*
G75*
G02*
X131075000Y-105262200I50800J0D01*
G01*
X131625000Y-105262200D01*
G75*
G02*
X131675800Y-105313000I0J-50800D01*
G01*
X131675800Y-106913000D01*
G75*
G02*
X131625000Y-106963800I-50800J0D01*
G01*
G37*
G36*
G01*
X132425000Y-106963800D02*
X131875000Y-106963800D01*
G75*
G02*
X131824200Y-106913000I0J50800D01*
G01*
X131824200Y-105313000D01*
G75*
G02*
X131875000Y-105262200I50800J0D01*
G01*
X132425000Y-105262200D01*
G75*
G02*
X132475800Y-105313000I0J-50800D01*
G01*
X132475800Y-106913000D01*
G75*
G02*
X132425000Y-106963800I-50800J0D01*
G01*
G37*
G36*
G01*
X133225000Y-106963800D02*
X132675000Y-106963800D01*
G75*
G02*
X132624200Y-106913000I0J50800D01*
G01*
X132624200Y-105313000D01*
G75*
G02*
X132675000Y-105262200I50800J0D01*
G01*
X133225000Y-105262200D01*
G75*
G02*
X133275800Y-105313000I0J-50800D01*
G01*
X133275800Y-106913000D01*
G75*
G02*
X133225000Y-106963800I-50800J0D01*
G01*
G37*
G36*
G01*
X134025000Y-106963800D02*
X133475000Y-106963800D01*
G75*
G02*
X133424200Y-106913000I0J50800D01*
G01*
X133424200Y-105313000D01*
G75*
G02*
X133475000Y-105262200I50800J0D01*
G01*
X134025000Y-105262200D01*
G75*
G02*
X134075800Y-105313000I0J-50800D01*
G01*
X134075800Y-106913000D01*
G75*
G02*
X134025000Y-106963800I-50800J0D01*
G01*
G37*
G36*
G01*
X134825000Y-106963800D02*
X134275000Y-106963800D01*
G75*
G02*
X134224200Y-106913000I0J50800D01*
G01*
X134224200Y-105313000D01*
G75*
G02*
X134275000Y-105262200I50800J0D01*
G01*
X134825000Y-105262200D01*
G75*
G02*
X134875800Y-105313000I0J-50800D01*
G01*
X134875800Y-106913000D01*
G75*
G02*
X134825000Y-106963800I-50800J0D01*
G01*
G37*
G36*
G01*
X135625000Y-106963800D02*
X135075000Y-106963800D01*
G75*
G02*
X135024200Y-106913000I0J50800D01*
G01*
X135024200Y-105313000D01*
G75*
G02*
X135075000Y-105262200I50800J0D01*
G01*
X135625000Y-105262200D01*
G75*
G02*
X135675800Y-105313000I0J-50800D01*
G01*
X135675800Y-106913000D01*
G75*
G02*
X135625000Y-106963800I-50800J0D01*
G01*
G37*
G36*
G01*
X136425000Y-106963800D02*
X135875000Y-106963800D01*
G75*
G02*
X135824200Y-106913000I0J50800D01*
G01*
X135824200Y-105313000D01*
G75*
G02*
X135875000Y-105262200I50800J0D01*
G01*
X136425000Y-105262200D01*
G75*
G02*
X136475800Y-105313000I0J-50800D01*
G01*
X136475800Y-106913000D01*
G75*
G02*
X136425000Y-106963800I-50800J0D01*
G01*
G37*
D14*
G36*
X127867887Y-105321198D02*
G01*
X127849466Y-105321198D01*
X127844486Y-105320953D01*
X127795655Y-105316143D01*
X127790725Y-105315412D01*
X127742600Y-105305840D01*
X127737763Y-105304628D01*
X127690808Y-105290384D01*
X127686115Y-105288705D01*
X127640782Y-105269928D01*
X127636274Y-105267796D01*
X127593001Y-105244665D01*
X127588727Y-105242103D01*
X127547928Y-105214843D01*
X127543923Y-105211873D01*
X127505994Y-105180745D01*
X127502300Y-105177397D01*
X127467603Y-105142700D01*
X127464255Y-105139006D01*
X127433127Y-105101077D01*
X127430157Y-105097072D01*
X127402897Y-105056273D01*
X127400335Y-105051999D01*
X127377204Y-105008726D01*
X127375072Y-105004218D01*
X127356295Y-104958885D01*
X127354616Y-104954192D01*
X127340372Y-104907237D01*
X127339160Y-104902400D01*
X127329588Y-104854275D01*
X127328857Y-104849345D01*
X127324047Y-104800514D01*
X127323802Y-104795534D01*
X127323802Y-104777113D01*
X127323200Y-104771000D01*
X127323200Y-104271000D01*
X127323802Y-104264887D01*
X127323802Y-104246466D01*
X127324047Y-104241486D01*
X127328857Y-104192655D01*
X127329588Y-104187725D01*
X127339160Y-104139600D01*
X127340372Y-104134763D01*
X127354616Y-104087808D01*
X127356295Y-104083115D01*
X127375072Y-104037782D01*
X127377204Y-104033274D01*
X127400335Y-103990001D01*
X127402897Y-103985727D01*
X127430157Y-103944928D01*
X127433127Y-103940923D01*
X127464255Y-103902994D01*
X127467603Y-103899300D01*
X127502300Y-103864603D01*
X127505994Y-103861255D01*
X127543923Y-103830127D01*
X127547928Y-103827157D01*
X127588727Y-103799897D01*
X127593001Y-103797335D01*
X127636274Y-103774204D01*
X127640782Y-103772072D01*
X127686115Y-103753295D01*
X127690808Y-103751616D01*
X127737763Y-103737372D01*
X127742600Y-103736160D01*
X127790725Y-103726588D01*
X127795655Y-103725857D01*
X127844486Y-103721047D01*
X127849466Y-103720802D01*
X127867887Y-103720802D01*
X127874000Y-103720200D01*
X128374000Y-103720200D01*
X128383911Y-103721176D01*
X128393440Y-103724067D01*
X128402223Y-103728761D01*
X128409921Y-103735079D01*
X128416239Y-103742777D01*
X128420933Y-103751560D01*
X128423824Y-103761089D01*
X128424800Y-103771000D01*
X128424800Y-105271000D01*
X128423824Y-105280911D01*
X128420933Y-105290440D01*
X128416239Y-105299223D01*
X128409921Y-105306921D01*
X128402223Y-105313239D01*
X128393440Y-105317933D01*
X128383911Y-105320824D01*
X128374000Y-105321800D01*
X127874000Y-105321800D01*
X127867887Y-105321198D01*
G37*
G36*
X128664089Y-105320824D02*
G01*
X128654560Y-105317933D01*
X128645777Y-105313239D01*
X128638079Y-105306921D01*
X128631761Y-105299223D01*
X128627067Y-105290440D01*
X128624176Y-105280911D01*
X128623200Y-105271000D01*
X128623200Y-103771000D01*
X128624176Y-103761089D01*
X128627067Y-103751560D01*
X128631761Y-103742777D01*
X128638079Y-103735079D01*
X128645777Y-103728761D01*
X128654560Y-103724067D01*
X128664089Y-103721176D01*
X128674000Y-103720200D01*
X129174000Y-103720200D01*
X129180113Y-103720802D01*
X129198534Y-103720802D01*
X129203514Y-103721047D01*
X129252345Y-103725857D01*
X129257275Y-103726588D01*
X129305400Y-103736160D01*
X129310237Y-103737372D01*
X129357192Y-103751616D01*
X129361885Y-103753295D01*
X129407218Y-103772072D01*
X129411726Y-103774204D01*
X129454999Y-103797335D01*
X129459273Y-103799897D01*
X129500072Y-103827157D01*
X129504077Y-103830127D01*
X129542006Y-103861255D01*
X129545700Y-103864603D01*
X129580397Y-103899300D01*
X129583745Y-103902994D01*
X129614873Y-103940923D01*
X129617843Y-103944928D01*
X129645103Y-103985727D01*
X129647665Y-103990001D01*
X129670796Y-104033274D01*
X129672928Y-104037782D01*
X129691705Y-104083115D01*
X129693384Y-104087808D01*
X129707628Y-104134763D01*
X129708840Y-104139600D01*
X129718412Y-104187725D01*
X129719143Y-104192655D01*
X129723953Y-104241486D01*
X129724198Y-104246466D01*
X129724198Y-104264887D01*
X129724800Y-104271000D01*
X129724800Y-104771000D01*
X129724198Y-104777113D01*
X129724198Y-104795534D01*
X129723953Y-104800514D01*
X129719143Y-104849345D01*
X129718412Y-104854275D01*
X129708840Y-104902400D01*
X129707628Y-104907237D01*
X129693384Y-104954192D01*
X129691705Y-104958885D01*
X129672928Y-105004218D01*
X129670796Y-105008726D01*
X129647665Y-105051999D01*
X129645103Y-105056273D01*
X129617843Y-105097072D01*
X129614873Y-105101077D01*
X129583745Y-105139006D01*
X129580397Y-105142700D01*
X129545700Y-105177397D01*
X129542006Y-105180745D01*
X129504077Y-105211873D01*
X129500072Y-105214843D01*
X129459273Y-105242103D01*
X129454999Y-105244665D01*
X129411726Y-105267796D01*
X129407218Y-105269928D01*
X129361885Y-105288705D01*
X129357192Y-105290384D01*
X129310237Y-105304628D01*
X129305400Y-105305840D01*
X129257275Y-105315412D01*
X129252345Y-105316143D01*
X129203514Y-105320953D01*
X129198534Y-105321198D01*
X129180113Y-105321198D01*
X129174000Y-105321800D01*
X128674000Y-105321800D01*
X128664089Y-105320824D01*
G37*
D15*
X140970000Y-105410000D03*
X140970000Y-107950000D03*
X140970000Y-110490000D03*
X140970000Y-113030000D03*
X140970000Y-115570000D03*
X140970000Y-118110000D03*
X140970000Y-120650000D03*
X140970000Y-123190000D03*
X140970000Y-125730000D03*
X125730000Y-125730000D03*
X125730000Y-123190000D03*
X125730000Y-120650000D03*
X125730000Y-118110000D03*
X125730000Y-115570000D03*
X125730000Y-113030000D03*
X125730000Y-110490000D03*
X125730000Y-107950000D03*
G36*
G01*
X124929200Y-106160000D02*
X124929200Y-104660000D01*
G75*
G02*
X124980000Y-104609200I50800J0D01*
G01*
X126480000Y-104609200D01*
G75*
G02*
X126530800Y-104660000I0J-50800D01*
G01*
X126530800Y-106160000D01*
G75*
G02*
X126480000Y-106210800I-50800J0D01*
G01*
X124980000Y-106210800D01*
G75*
G02*
X124929200Y-106160000I0J50800D01*
G01*
G37*
G36*
G01*
X133033800Y-104183600D02*
X133033800Y-104604400D01*
G75*
G02*
X132873400Y-104764800I-160400J0D01*
G01*
X132552600Y-104764800D01*
G75*
G02*
X132392200Y-104604400I0J160400D01*
G01*
X132392200Y-104183600D01*
G75*
G02*
X132552600Y-104023200I160400J0D01*
G01*
X132873400Y-104023200D01*
G75*
G02*
X133033800Y-104183600I0J-160400D01*
G01*
G37*
G36*
G01*
X134053800Y-104183600D02*
X134053800Y-104604400D01*
G75*
G02*
X133893400Y-104764800I-160400J0D01*
G01*
X133572600Y-104764800D01*
G75*
G02*
X133412200Y-104604400I0J160400D01*
G01*
X133412200Y-104183600D01*
G75*
G02*
X133572600Y-104023200I160400J0D01*
G01*
X133893400Y-104023200D01*
G75*
G02*
X134053800Y-104183600I0J-160400D01*
G01*
G37*
G36*
G01*
X135404200Y-104589400D02*
X135404200Y-104198600D01*
G75*
G02*
X135569600Y-104033200I165400J0D01*
G01*
X135900400Y-104033200D01*
G75*
G02*
X136065800Y-104198600I0J-165400D01*
G01*
X136065800Y-104589400D01*
G75*
G02*
X135900400Y-104754800I-165400J0D01*
G01*
X135569600Y-104754800D01*
G75*
G02*
X135404200Y-104589400I0J165400D01*
G01*
G37*
G36*
G01*
X134444200Y-104589400D02*
X134444200Y-104198600D01*
G75*
G02*
X134609600Y-104033200I165400J0D01*
G01*
X134940400Y-104033200D01*
G75*
G02*
X135105800Y-104198600I0J-165400D01*
G01*
X135105800Y-104589400D01*
G75*
G02*
X134940400Y-104754800I-165400J0D01*
G01*
X134609600Y-104754800D01*
G75*
G02*
X134444200Y-104589400I0J165400D01*
G01*
G37*
G36*
G01*
X139514400Y-111229800D02*
X139123600Y-111229800D01*
G75*
G02*
X138958200Y-111064400I0J165400D01*
G01*
X138958200Y-110733600D01*
G75*
G02*
X139123600Y-110568200I165400J0D01*
G01*
X139514400Y-110568200D01*
G75*
G02*
X139679800Y-110733600I0J-165400D01*
G01*
X139679800Y-111064400D01*
G75*
G02*
X139514400Y-111229800I-165400J0D01*
G01*
G37*
G36*
G01*
X139514400Y-112189800D02*
X139123600Y-112189800D01*
G75*
G02*
X138958200Y-112024400I0J165400D01*
G01*
X138958200Y-111693600D01*
G75*
G02*
X139123600Y-111528200I165400J0D01*
G01*
X139514400Y-111528200D01*
G75*
G02*
X139679800Y-111693600I0J-165400D01*
G01*
X139679800Y-112024400D01*
G75*
G02*
X139514400Y-112189800I-165400J0D01*
G01*
G37*
G36*
G01*
X131528400Y-118682800D02*
X131107600Y-118682800D01*
G75*
G02*
X130947200Y-118522400I0J160400D01*
G01*
X130947200Y-118201600D01*
G75*
G02*
X131107600Y-118041200I160400J0D01*
G01*
X131528400Y-118041200D01*
G75*
G02*
X131688800Y-118201600I0J-160400D01*
G01*
X131688800Y-118522400D01*
G75*
G02*
X131528400Y-118682800I-160400J0D01*
G01*
G37*
G36*
G01*
X131528400Y-119702800D02*
X131107600Y-119702800D01*
G75*
G02*
X130947200Y-119542400I0J160400D01*
G01*
X130947200Y-119221600D01*
G75*
G02*
X131107600Y-119061200I160400J0D01*
G01*
X131528400Y-119061200D01*
G75*
G02*
X131688800Y-119221600I0J-160400D01*
G01*
X131688800Y-119542400D01*
G75*
G02*
X131528400Y-119702800I-160400J0D01*
G01*
G37*
G36*
G01*
X129242400Y-118682800D02*
X128821600Y-118682800D01*
G75*
G02*
X128661200Y-118522400I0J160400D01*
G01*
X128661200Y-118201600D01*
G75*
G02*
X128821600Y-118041200I160400J0D01*
G01*
X129242400Y-118041200D01*
G75*
G02*
X129402800Y-118201600I0J-160400D01*
G01*
X129402800Y-118522400D01*
G75*
G02*
X129242400Y-118682800I-160400J0D01*
G01*
G37*
G36*
G01*
X129242400Y-119702800D02*
X128821600Y-119702800D01*
G75*
G02*
X128661200Y-119542400I0J160400D01*
G01*
X128661200Y-119221600D01*
G75*
G02*
X128821600Y-119061200I160400J0D01*
G01*
X129242400Y-119061200D01*
G75*
G02*
X129402800Y-119221600I0J-160400D01*
G01*
X129402800Y-119542400D01*
G75*
G02*
X129242400Y-119702800I-160400J0D01*
G01*
G37*
G36*
G01*
X129242400Y-116650800D02*
X128821600Y-116650800D01*
G75*
G02*
X128661200Y-116490400I0J160400D01*
G01*
X128661200Y-116169600D01*
G75*
G02*
X128821600Y-116009200I160400J0D01*
G01*
X129242400Y-116009200D01*
G75*
G02*
X129402800Y-116169600I0J-160400D01*
G01*
X129402800Y-116490400D01*
G75*
G02*
X129242400Y-116650800I-160400J0D01*
G01*
G37*
G36*
G01*
X129242400Y-117670800D02*
X128821600Y-117670800D01*
G75*
G02*
X128661200Y-117510400I0J160400D01*
G01*
X128661200Y-117189600D01*
G75*
G02*
X128821600Y-117029200I160400J0D01*
G01*
X129242400Y-117029200D01*
G75*
G02*
X129402800Y-117189600I0J-160400D01*
G01*
X129402800Y-117510400D01*
G75*
G02*
X129242400Y-117670800I-160400J0D01*
G01*
G37*
G36*
G01*
X130385400Y-116650800D02*
X129964600Y-116650800D01*
G75*
G02*
X129804200Y-116490400I0J160400D01*
G01*
X129804200Y-116169600D01*
G75*
G02*
X129964600Y-116009200I160400J0D01*
G01*
X130385400Y-116009200D01*
G75*
G02*
X130545800Y-116169600I0J-160400D01*
G01*
X130545800Y-116490400D01*
G75*
G02*
X130385400Y-116650800I-160400J0D01*
G01*
G37*
G36*
G01*
X130385400Y-117670800D02*
X129964600Y-117670800D01*
G75*
G02*
X129804200Y-117510400I0J160400D01*
G01*
X129804200Y-117189600D01*
G75*
G02*
X129964600Y-117029200I160400J0D01*
G01*
X130385400Y-117029200D01*
G75*
G02*
X130545800Y-117189600I0J-160400D01*
G01*
X130545800Y-117510400D01*
G75*
G02*
X130385400Y-117670800I-160400J0D01*
G01*
G37*
G36*
G01*
X131528400Y-116650800D02*
X131107600Y-116650800D01*
G75*
G02*
X130947200Y-116490400I0J160400D01*
G01*
X130947200Y-116169600D01*
G75*
G02*
X131107600Y-116009200I160400J0D01*
G01*
X131528400Y-116009200D01*
G75*
G02*
X131688800Y-116169600I0J-160400D01*
G01*
X131688800Y-116490400D01*
G75*
G02*
X131528400Y-116650800I-160400J0D01*
G01*
G37*
G36*
G01*
X131528400Y-117670800D02*
X131107600Y-117670800D01*
G75*
G02*
X130947200Y-117510400I0J160400D01*
G01*
X130947200Y-117189600D01*
G75*
G02*
X131107600Y-117029200I160400J0D01*
G01*
X131528400Y-117029200D01*
G75*
G02*
X131688800Y-117189600I0J-160400D01*
G01*
X131688800Y-117510400D01*
G75*
G02*
X131528400Y-117670800I-160400J0D01*
G01*
G37*
G36*
G01*
X138548200Y-125241000D02*
X138548200Y-124441000D01*
G75*
G02*
X138599000Y-124390200I50800J0D01*
G01*
X139499000Y-124390200D01*
G75*
G02*
X139549800Y-124441000I0J-50800D01*
G01*
X139549800Y-125241000D01*
G75*
G02*
X139499000Y-125291800I-50800J0D01*
G01*
X138599000Y-125291800D01*
G75*
G02*
X138548200Y-125241000I0J50800D01*
G01*
G37*
G36*
G01*
X136548200Y-124291000D02*
X136548200Y-123491000D01*
G75*
G02*
X136599000Y-123440200I50800J0D01*
G01*
X137499000Y-123440200D01*
G75*
G02*
X137549800Y-123491000I0J-50800D01*
G01*
X137549800Y-124291000D01*
G75*
G02*
X137499000Y-124341800I-50800J0D01*
G01*
X136599000Y-124341800D01*
G75*
G02*
X136548200Y-124291000I0J50800D01*
G01*
G37*
G36*
G01*
X136548200Y-126191000D02*
X136548200Y-125391000D01*
G75*
G02*
X136599000Y-125340200I50800J0D01*
G01*
X137499000Y-125340200D01*
G75*
G02*
X137549800Y-125391000I0J-50800D01*
G01*
X137549800Y-126191000D01*
G75*
G02*
X137499000Y-126241800I-50800J0D01*
G01*
X136599000Y-126241800D01*
G75*
G02*
X136548200Y-126191000I0J50800D01*
G01*
G37*
G36*
G01*
X127449400Y-109578800D02*
X127058600Y-109578800D01*
G75*
G02*
X126893200Y-109413400I0J165400D01*
G01*
X126893200Y-109082600D01*
G75*
G02*
X127058600Y-108917200I165400J0D01*
G01*
X127449400Y-108917200D01*
G75*
G02*
X127614800Y-109082600I0J-165400D01*
G01*
X127614800Y-109413400D01*
G75*
G02*
X127449400Y-109578800I-165400J0D01*
G01*
G37*
G36*
G01*
X127449400Y-110538800D02*
X127058600Y-110538800D01*
G75*
G02*
X126893200Y-110373400I0J165400D01*
G01*
X126893200Y-110042600D01*
G75*
G02*
X127058600Y-109877200I165400J0D01*
G01*
X127449400Y-109877200D01*
G75*
G02*
X127614800Y-110042600I0J-165400D01*
G01*
X127614800Y-110373400D01*
G75*
G02*
X127449400Y-110538800I-165400J0D01*
G01*
G37*
G36*
G01*
X139514400Y-109324800D02*
X139123600Y-109324800D01*
G75*
G02*
X138958200Y-109159400I0J165400D01*
G01*
X138958200Y-108828600D01*
G75*
G02*
X139123600Y-108663200I165400J0D01*
G01*
X139514400Y-108663200D01*
G75*
G02*
X139679800Y-108828600I0J-165400D01*
G01*
X139679800Y-109159400D01*
G75*
G02*
X139514400Y-109324800I-165400J0D01*
G01*
G37*
G36*
G01*
X139514400Y-110284800D02*
X139123600Y-110284800D01*
G75*
G02*
X138958200Y-110119400I0J165400D01*
G01*
X138958200Y-109788600D01*
G75*
G02*
X139123600Y-109623200I165400J0D01*
G01*
X139514400Y-109623200D01*
G75*
G02*
X139679800Y-109788600I0J-165400D01*
G01*
X139679800Y-110119400D01*
G75*
G02*
X139514400Y-110284800I-165400J0D01*
G01*
G37*
G36*
G01*
X136240000Y-119729200D02*
X137240000Y-119729200D01*
G75*
G02*
X137290800Y-119780000I0J-50800D01*
G01*
X137290800Y-122290000D01*
G75*
G02*
X137240000Y-122340800I-50800J0D01*
G01*
X136240000Y-122340800D01*
G75*
G02*
X136189200Y-122290000I0J50800D01*
G01*
X136189200Y-119780000D01*
G75*
G02*
X136240000Y-119729200I50800J0D01*
G01*
G37*
G36*
G01*
X133700000Y-116419200D02*
X134700000Y-116419200D01*
G75*
G02*
X134750800Y-116470000I0J-50800D01*
G01*
X134750800Y-118980000D01*
G75*
G02*
X134700000Y-119030800I-50800J0D01*
G01*
X133700000Y-119030800D01*
G75*
G02*
X133649200Y-118980000I0J50800D01*
G01*
X133649200Y-116470000D01*
G75*
G02*
X133700000Y-116419200I50800J0D01*
G01*
G37*
G36*
G01*
X134484200Y-125241000D02*
X134484200Y-124441000D01*
G75*
G02*
X134535000Y-124390200I50800J0D01*
G01*
X135435000Y-124390200D01*
G75*
G02*
X135485800Y-124441000I0J-50800D01*
G01*
X135485800Y-125241000D01*
G75*
G02*
X135435000Y-125291800I-50800J0D01*
G01*
X134535000Y-125291800D01*
G75*
G02*
X134484200Y-125241000I0J50800D01*
G01*
G37*
G36*
G01*
X132484200Y-124291000D02*
X132484200Y-123491000D01*
G75*
G02*
X132535000Y-123440200I50800J0D01*
G01*
X133435000Y-123440200D01*
G75*
G02*
X133485800Y-123491000I0J-50800D01*
G01*
X133485800Y-124291000D01*
G75*
G02*
X133435000Y-124341800I-50800J0D01*
G01*
X132535000Y-124341800D01*
G75*
G02*
X132484200Y-124291000I0J50800D01*
G01*
G37*
G36*
G01*
X132484200Y-126191000D02*
X132484200Y-125391000D01*
G75*
G02*
X132535000Y-125340200I50800J0D01*
G01*
X133435000Y-125340200D01*
G75*
G02*
X133485800Y-125391000I0J-50800D01*
G01*
X133485800Y-126191000D01*
G75*
G02*
X133435000Y-126241800I-50800J0D01*
G01*
X132535000Y-126241800D01*
G75*
G02*
X132484200Y-126191000I0J50800D01*
G01*
G37*
M02*
