G04 #@! TF.GenerationSoftware,KiCad,Pcbnew,(5.1.10-1-10_14)*
G04 #@! TF.CreationDate,2021-12-19T23:04:46+01:00*
G04 #@! TF.ProjectId,7segment,37736567-6d65-46e7-942e-6b696361645f,rev?*
G04 #@! TF.SameCoordinates,Original*
G04 #@! TF.FileFunction,Paste,Top*
G04 #@! TF.FilePolarity,Positive*
%FSLAX46Y46*%
G04 Gerber Fmt 4.6, Leading zero omitted, Abs format (unit mm)*
G04 Created by KiCad (PCBNEW (5.1.10-1-10_14)) date 2021-12-19 23:04:46*
%MOMM*%
%LPD*%
G01*
G04 APERTURE LIST*
G04 APERTURE END LIST*
G36*
G01*
X136536000Y-111840714D02*
X136536000Y-110590714D01*
G75*
G02*
X136786000Y-110340714I250000J0D01*
G01*
X137586000Y-110340714D01*
G75*
G02*
X137836000Y-110590714I0J-250000D01*
G01*
X137836000Y-111840714D01*
G75*
G02*
X137586000Y-112090714I-250000J0D01*
G01*
X136786000Y-112090714D01*
G75*
G02*
X136536000Y-111840714I0J250000D01*
G01*
G37*
G36*
G01*
X133436000Y-111840714D02*
X133436000Y-110590714D01*
G75*
G02*
X133686000Y-110340714I250000J0D01*
G01*
X134486000Y-110340714D01*
G75*
G02*
X134736000Y-110590714I0J-250000D01*
G01*
X134736000Y-111840714D01*
G75*
G02*
X134486000Y-112090714I-250000J0D01*
G01*
X133686000Y-112090714D01*
G75*
G02*
X133436000Y-111840714I0J250000D01*
G01*
G37*
G36*
G01*
X136536000Y-120549285D02*
X136536000Y-119299285D01*
G75*
G02*
X136786000Y-119049285I250000J0D01*
G01*
X137586000Y-119049285D01*
G75*
G02*
X137836000Y-119299285I0J-250000D01*
G01*
X137836000Y-120549285D01*
G75*
G02*
X137586000Y-120799285I-250000J0D01*
G01*
X136786000Y-120799285D01*
G75*
G02*
X136536000Y-120549285I0J250000D01*
G01*
G37*
G36*
G01*
X133436000Y-120549285D02*
X133436000Y-119299285D01*
G75*
G02*
X133686000Y-119049285I250000J0D01*
G01*
X134486000Y-119049285D01*
G75*
G02*
X134736000Y-119299285I0J-250000D01*
G01*
X134736000Y-120549285D01*
G75*
G02*
X134486000Y-120799285I-250000J0D01*
G01*
X133686000Y-120799285D01*
G75*
G02*
X133436000Y-120549285I0J250000D01*
G01*
G37*
G36*
G01*
X134736000Y-104785000D02*
X134736000Y-106035000D01*
G75*
G02*
X134486000Y-106285000I-250000J0D01*
G01*
X133686000Y-106285000D01*
G75*
G02*
X133436000Y-106035000I0J250000D01*
G01*
X133436000Y-104785000D01*
G75*
G02*
X133686000Y-104535000I250000J0D01*
G01*
X134486000Y-104535000D01*
G75*
G02*
X134736000Y-104785000I0J-250000D01*
G01*
G37*
G36*
G01*
X137836000Y-104785000D02*
X137836000Y-106035000D01*
G75*
G02*
X137586000Y-106285000I-250000J0D01*
G01*
X136786000Y-106285000D01*
G75*
G02*
X136536000Y-106035000I0J250000D01*
G01*
X136536000Y-104785000D01*
G75*
G02*
X136786000Y-104535000I250000J0D01*
G01*
X137586000Y-104535000D01*
G75*
G02*
X137836000Y-104785000I0J-250000D01*
G01*
G37*
G36*
G01*
X136536000Y-114743571D02*
X136536000Y-113493571D01*
G75*
G02*
X136786000Y-113243571I250000J0D01*
G01*
X137586000Y-113243571D01*
G75*
G02*
X137836000Y-113493571I0J-250000D01*
G01*
X137836000Y-114743571D01*
G75*
G02*
X137586000Y-114993571I-250000J0D01*
G01*
X136786000Y-114993571D01*
G75*
G02*
X136536000Y-114743571I0J250000D01*
G01*
G37*
G36*
G01*
X133436000Y-114743571D02*
X133436000Y-113493571D01*
G75*
G02*
X133686000Y-113243571I250000J0D01*
G01*
X134486000Y-113243571D01*
G75*
G02*
X134736000Y-113493571I0J-250000D01*
G01*
X134736000Y-114743571D01*
G75*
G02*
X134486000Y-114993571I-250000J0D01*
G01*
X133686000Y-114993571D01*
G75*
G02*
X133436000Y-114743571I0J250000D01*
G01*
G37*
G36*
G01*
X136536000Y-117646428D02*
X136536000Y-116396428D01*
G75*
G02*
X136786000Y-116146428I250000J0D01*
G01*
X137586000Y-116146428D01*
G75*
G02*
X137836000Y-116396428I0J-250000D01*
G01*
X137836000Y-117646428D01*
G75*
G02*
X137586000Y-117896428I-250000J0D01*
G01*
X136786000Y-117896428D01*
G75*
G02*
X136536000Y-117646428I0J250000D01*
G01*
G37*
G36*
G01*
X133436000Y-117646428D02*
X133436000Y-116396428D01*
G75*
G02*
X133686000Y-116146428I250000J0D01*
G01*
X134486000Y-116146428D01*
G75*
G02*
X134736000Y-116396428I0J-250000D01*
G01*
X134736000Y-117646428D01*
G75*
G02*
X134486000Y-117896428I-250000J0D01*
G01*
X133686000Y-117896428D01*
G75*
G02*
X133436000Y-117646428I0J250000D01*
G01*
G37*
G36*
G01*
X136536000Y-108937857D02*
X136536000Y-107687857D01*
G75*
G02*
X136786000Y-107437857I250000J0D01*
G01*
X137586000Y-107437857D01*
G75*
G02*
X137836000Y-107687857I0J-250000D01*
G01*
X137836000Y-108937857D01*
G75*
G02*
X137586000Y-109187857I-250000J0D01*
G01*
X136786000Y-109187857D01*
G75*
G02*
X136536000Y-108937857I0J250000D01*
G01*
G37*
G36*
G01*
X133436000Y-108937857D02*
X133436000Y-107687857D01*
G75*
G02*
X133686000Y-107437857I250000J0D01*
G01*
X134486000Y-107437857D01*
G75*
G02*
X134736000Y-107687857I0J-250000D01*
G01*
X134736000Y-108937857D01*
G75*
G02*
X134486000Y-109187857I-250000J0D01*
G01*
X133686000Y-109187857D01*
G75*
G02*
X133436000Y-108937857I0J250000D01*
G01*
G37*
G36*
G01*
X134736000Y-125105000D02*
X134736000Y-126355000D01*
G75*
G02*
X134486000Y-126605000I-250000J0D01*
G01*
X133686000Y-126605000D01*
G75*
G02*
X133436000Y-126355000I0J250000D01*
G01*
X133436000Y-125105000D01*
G75*
G02*
X133686000Y-124855000I250000J0D01*
G01*
X134486000Y-124855000D01*
G75*
G02*
X134736000Y-125105000I0J-250000D01*
G01*
G37*
G36*
G01*
X137836000Y-125105000D02*
X137836000Y-126355000D01*
G75*
G02*
X137586000Y-126605000I-250000J0D01*
G01*
X136786000Y-126605000D01*
G75*
G02*
X136536000Y-126355000I0J250000D01*
G01*
X136536000Y-125105000D01*
G75*
G02*
X136786000Y-124855000I250000J0D01*
G01*
X137586000Y-124855000D01*
G75*
G02*
X137836000Y-125105000I0J-250000D01*
G01*
G37*
G36*
G01*
X134736000Y-122202142D02*
X134736000Y-123452142D01*
G75*
G02*
X134486000Y-123702142I-250000J0D01*
G01*
X133686000Y-123702142D01*
G75*
G02*
X133436000Y-123452142I0J250000D01*
G01*
X133436000Y-122202142D01*
G75*
G02*
X133686000Y-121952142I250000J0D01*
G01*
X134486000Y-121952142D01*
G75*
G02*
X134736000Y-122202142I0J-250000D01*
G01*
G37*
G36*
G01*
X137836000Y-122202142D02*
X137836000Y-123452142D01*
G75*
G02*
X137586000Y-123702142I-250000J0D01*
G01*
X136786000Y-123702142D01*
G75*
G02*
X136536000Y-123452142I0J250000D01*
G01*
X136536000Y-122202142D01*
G75*
G02*
X136786000Y-121952142I250000J0D01*
G01*
X137586000Y-121952142D01*
G75*
G02*
X137836000Y-122202142I0J-250000D01*
G01*
G37*
M02*
