G04 #@! TF.GenerationSoftware,KiCad,Pcbnew,(6.0.0-0)*
G04 #@! TF.CreationDate,2021-12-28T15:21:01+01:00*
G04 #@! TF.ProjectId,7segment,37736567-6d65-46e7-942e-6b696361645f,rev?*
G04 #@! TF.SameCoordinates,Original*
G04 #@! TF.FileFunction,Legend,Bot*
G04 #@! TF.FilePolarity,Positive*
%FSLAX46Y46*%
G04 Gerber Fmt 4.6, Leading zero omitted, Abs format (unit mm)*
G04 Created by KiCad (PCBNEW (6.0.0-0)) date 2021-12-28 15:21:01*
%MOMM*%
%LPD*%
G01*
G04 APERTURE LIST*
G04 Aperture macros list*
%AMRoundRect*
0 Rectangle with rounded corners*
0 $1 Rounding radius*
0 $2 $3 $4 $5 $6 $7 $8 $9 X,Y pos of 4 corners*
0 Add a 4 corners polygon primitive as box body*
4,1,4,$2,$3,$4,$5,$6,$7,$8,$9,$2,$3,0*
0 Add four circle primitives for the rounded corners*
1,1,$1+$1,$2,$3*
1,1,$1+$1,$4,$5*
1,1,$1+$1,$6,$7*
1,1,$1+$1,$8,$9*
0 Add four rect primitives between the rounded corners*
20,1,$1+$1,$2,$3,$4,$5,0*
20,1,$1+$1,$4,$5,$6,$7,0*
20,1,$1+$1,$6,$7,$8,$9,0*
20,1,$1+$1,$8,$9,$2,$3,0*%
%AMFreePoly0*
4,1,20,0.000000,0.744959,0.073905,0.744508,0.209726,0.703889,0.328688,0.626782,0.421226,0.519385,0.479903,0.390333,0.500000,0.250000,0.500000,-0.250000,0.499851,-0.262216,0.476331,-0.402017,0.414519,-0.529596,0.319384,-0.634700,0.198574,-0.708877,0.061801,-0.746166,0.000000,-0.745033,0.000000,-0.750000,-0.500000,-0.750000,-0.500000,0.750000,0.000000,0.750000,0.000000,0.744959,
0.000000,0.744959,$1*%
%AMFreePoly1*
4,1,22,0.500000,-0.750000,0.000000,-0.750000,0.000000,-0.745033,-0.079941,-0.743568,-0.215256,-0.701293,-0.333266,-0.622738,-0.424486,-0.514219,-0.481581,-0.384460,-0.499164,-0.250000,-0.500000,-0.250000,-0.500000,0.250000,-0.499164,0.250000,-0.499963,0.256109,-0.478152,0.396186,-0.417904,0.524511,-0.324060,0.630769,-0.204165,0.706417,-0.067858,0.745374,0.000000,0.744959,0.000000,0.750000,
0.500000,0.750000,0.500000,-0.750000,0.500000,-0.750000,$1*%
G04 Aperture macros list end*
%ADD10C,0.120000*%
%ADD11C,0.153000*%
%ADD12C,0.150000*%
%ADD13C,1.700000*%
%ADD14R,1.500000X1.500000*%
%ADD15R,0.900000X0.800000*%
%ADD16R,1.000000X2.510000*%
%ADD17O,1.700000X1.700000*%
%ADD18R,1.700000X1.700000*%
%ADD19RoundRect,0.135000X0.185000X-0.135000X0.185000X0.135000X-0.185000X0.135000X-0.185000X-0.135000X0*%
%ADD20RoundRect,0.140000X-0.140000X-0.170000X0.140000X-0.170000X0.140000X0.170000X-0.140000X0.170000X0*%
%ADD21R,0.500000X0.500000*%
%ADD22RoundRect,0.135000X0.135000X0.185000X-0.135000X0.185000X-0.135000X-0.185000X0.135000X-0.185000X0*%
%ADD23FreePoly0,180.000000*%
%ADD24FreePoly1,180.000000*%
%ADD25RoundRect,0.225000X-0.225000X-0.250000X0.225000X-0.250000X0.225000X0.250000X-0.225000X0.250000X0*%
%ADD26RoundRect,0.140000X0.170000X-0.140000X0.170000X0.140000X-0.170000X0.140000X-0.170000X-0.140000X0*%
%ADD27RoundRect,0.218750X-0.256250X0.218750X-0.256250X-0.218750X0.256250X-0.218750X0.256250X0.218750X0*%
%ADD28R,0.550000X1.600000*%
%ADD29R,1.600000X0.550000*%
G04 APERTURE END LIST*
D10*
X137287000Y-106426000D02*
G75*
G03*
X137287000Y-106426000I-127000J0D01*
G01*
X139954000Y-104013000D02*
X139954000Y-104902000D01*
D11*
X124118666Y-109831761D02*
X124118666Y-110307952D01*
X124404380Y-109736523D02*
X123404380Y-110069857D01*
X124404380Y-110403190D01*
X124309142Y-110736523D02*
X124356761Y-110784142D01*
X124404380Y-110736523D01*
X124356761Y-110688904D01*
X124309142Y-110736523D01*
X124404380Y-110736523D01*
X124404380Y-111212714D02*
X123404380Y-111212714D01*
X124404380Y-111784142D02*
X123832952Y-111355571D01*
X123404380Y-111784142D02*
X123975809Y-111212714D01*
X124404380Y-112355571D02*
X124356761Y-112260333D01*
X124309142Y-112212714D01*
X124213904Y-112165095D01*
X123928190Y-112165095D01*
X123832952Y-112212714D01*
X123785333Y-112260333D01*
X123737714Y-112355571D01*
X123737714Y-112498428D01*
X123785333Y-112593666D01*
X123832952Y-112641285D01*
X123928190Y-112688904D01*
X124213904Y-112688904D01*
X124309142Y-112641285D01*
X124356761Y-112593666D01*
X124404380Y-112498428D01*
X124404380Y-112355571D01*
X124404380Y-113117476D02*
X123404380Y-113117476D01*
X124404380Y-113546047D02*
X123880571Y-113546047D01*
X123785333Y-113498428D01*
X123737714Y-113403190D01*
X123737714Y-113260333D01*
X123785333Y-113165095D01*
X123832952Y-113117476D01*
X124404380Y-114165095D02*
X124356761Y-114069857D01*
X124261523Y-114022238D01*
X123404380Y-114022238D01*
X124404380Y-114546047D02*
X123404380Y-114546047D01*
X123785333Y-114546047D02*
X123737714Y-114641285D01*
X123737714Y-114831761D01*
X123785333Y-114927000D01*
X123832952Y-114974619D01*
X123928190Y-115022238D01*
X124213904Y-115022238D01*
X124309142Y-114974619D01*
X124356761Y-114927000D01*
X124404380Y-114831761D01*
X124404380Y-114641285D01*
X124356761Y-114546047D01*
X124356761Y-115831761D02*
X124404380Y-115736523D01*
X124404380Y-115546047D01*
X124356761Y-115450809D01*
X124261523Y-115403190D01*
X123880571Y-115403190D01*
X123785333Y-115450809D01*
X123737714Y-115546047D01*
X123737714Y-115736523D01*
X123785333Y-115831761D01*
X123880571Y-115879380D01*
X123975809Y-115879380D01*
X124071047Y-115403190D01*
X124356761Y-116736523D02*
X124404380Y-116641285D01*
X124404380Y-116450809D01*
X124356761Y-116355571D01*
X124309142Y-116307952D01*
X124213904Y-116260333D01*
X123928190Y-116260333D01*
X123832952Y-116307952D01*
X123785333Y-116355571D01*
X123737714Y-116450809D01*
X123737714Y-116641285D01*
X123785333Y-116736523D01*
X124404380Y-117165095D02*
X123404380Y-117165095D01*
X124023428Y-117260333D02*
X124404380Y-117546047D01*
X123737714Y-117546047D02*
X124118666Y-117165095D01*
X124356761Y-118355571D02*
X124404380Y-118260333D01*
X124404380Y-118069857D01*
X124356761Y-117974619D01*
X124261523Y-117927000D01*
X123880571Y-117927000D01*
X123785333Y-117974619D01*
X123737714Y-118069857D01*
X123737714Y-118260333D01*
X123785333Y-118355571D01*
X123880571Y-118403190D01*
X123975809Y-118403190D01*
X124071047Y-117927000D01*
X124404380Y-118831761D02*
X123737714Y-118831761D01*
X123928190Y-118831761D02*
X123832952Y-118879380D01*
X123785333Y-118927000D01*
X123737714Y-119022238D01*
X123737714Y-119117476D01*
X123499619Y-120332785D02*
X123452000Y-120380404D01*
X123404380Y-120475642D01*
X123404380Y-120713737D01*
X123452000Y-120808975D01*
X123499619Y-120856594D01*
X123594857Y-120904213D01*
X123690095Y-120904213D01*
X123832952Y-120856594D01*
X124404380Y-120285166D01*
X124404380Y-120904213D01*
X123404380Y-121523261D02*
X123404380Y-121618499D01*
X123452000Y-121713737D01*
X123499619Y-121761356D01*
X123594857Y-121808975D01*
X123785333Y-121856594D01*
X124023428Y-121856594D01*
X124213904Y-121808975D01*
X124309142Y-121761356D01*
X124356761Y-121713737D01*
X124404380Y-121618499D01*
X124404380Y-121523261D01*
X124356761Y-121428023D01*
X124309142Y-121380404D01*
X124213904Y-121332785D01*
X124023428Y-121285166D01*
X123785333Y-121285166D01*
X123594857Y-121332785D01*
X123499619Y-121380404D01*
X123452000Y-121428023D01*
X123404380Y-121523261D01*
X123499619Y-122237547D02*
X123452000Y-122285166D01*
X123404380Y-122380404D01*
X123404380Y-122618499D01*
X123452000Y-122713737D01*
X123499619Y-122761356D01*
X123594857Y-122808975D01*
X123690095Y-122808975D01*
X123832952Y-122761356D01*
X124404380Y-122189928D01*
X124404380Y-122808975D01*
X124404380Y-123761356D02*
X124404380Y-123189928D01*
X124404380Y-123475642D02*
X123404380Y-123475642D01*
X123547238Y-123380404D01*
X123642476Y-123285166D01*
X123690095Y-123189928D01*
X124404380Y-124713737D02*
X124404380Y-124142309D01*
X124404380Y-124428023D02*
X123404380Y-124428023D01*
X123547238Y-124332785D01*
X123642476Y-124237547D01*
X123690095Y-124142309D01*
X123499619Y-125094690D02*
X123452000Y-125142309D01*
X123404380Y-125237547D01*
X123404380Y-125475642D01*
X123452000Y-125570880D01*
X123499619Y-125618499D01*
X123594857Y-125666118D01*
X123690095Y-125666118D01*
X123832952Y-125618499D01*
X124404380Y-125047071D01*
X124404380Y-125666118D01*
X124404380Y-126618499D02*
X124404380Y-126047071D01*
X124404380Y-126332785D02*
X123404380Y-126332785D01*
X123547238Y-126237547D01*
X123642476Y-126142309D01*
X123690095Y-126047071D01*
X123404380Y-126951833D02*
X123404380Y-127618499D01*
X124404380Y-127189928D01*
D12*
X134326190Y-127833380D02*
X134326190Y-126833380D01*
X133897619Y-127785761D02*
X133754761Y-127833380D01*
X133516666Y-127833380D01*
X133421428Y-127785761D01*
X133373809Y-127738142D01*
X133326190Y-127642904D01*
X133326190Y-127547666D01*
X133373809Y-127452428D01*
X133421428Y-127404809D01*
X133516666Y-127357190D01*
X133707142Y-127309571D01*
X133802380Y-127261952D01*
X133850000Y-127214333D01*
X133897619Y-127119095D01*
X133897619Y-127023857D01*
X133850000Y-126928619D01*
X133802380Y-126881000D01*
X133707142Y-126833380D01*
X133469047Y-126833380D01*
X133326190Y-126881000D01*
X132897619Y-127833380D02*
X132897619Y-126833380D01*
X132516666Y-126833380D01*
X132421428Y-126881000D01*
X132373809Y-126928619D01*
X132326190Y-127023857D01*
X132326190Y-127166714D01*
X132373809Y-127261952D01*
X132421428Y-127309571D01*
X132516666Y-127357190D01*
X132897619Y-127357190D01*
D11*
X142152523Y-127706380D02*
X142485857Y-127230190D01*
X142723952Y-127706380D02*
X142723952Y-126706380D01*
X142343000Y-126706380D01*
X142247761Y-126754000D01*
X142200142Y-126801619D01*
X142152523Y-126896857D01*
X142152523Y-127039714D01*
X142200142Y-127134952D01*
X142247761Y-127182571D01*
X142343000Y-127230190D01*
X142723952Y-127230190D01*
X141343000Y-127658761D02*
X141438238Y-127706380D01*
X141628714Y-127706380D01*
X141723952Y-127658761D01*
X141771571Y-127563523D01*
X141771571Y-127182571D01*
X141723952Y-127087333D01*
X141628714Y-127039714D01*
X141438238Y-127039714D01*
X141343000Y-127087333D01*
X141295380Y-127182571D01*
X141295380Y-127277809D01*
X141771571Y-127373047D01*
X140962047Y-127039714D02*
X140723952Y-127706380D01*
X140485857Y-127039714D01*
X139390619Y-127420666D02*
X138914428Y-127420666D01*
X139485857Y-127706380D02*
X139152523Y-126706380D01*
X138819190Y-127706380D01*
D12*
X134302476Y-121118380D02*
X134778666Y-121118380D01*
X134826285Y-121594571D01*
X134778666Y-121546952D01*
X134683428Y-121499333D01*
X134445333Y-121499333D01*
X134350095Y-121546952D01*
X134302476Y-121594571D01*
X134254857Y-121689809D01*
X134254857Y-121927904D01*
X134302476Y-122023142D01*
X134350095Y-122070761D01*
X134445333Y-122118380D01*
X134683428Y-122118380D01*
X134778666Y-122070761D01*
X134826285Y-122023142D01*
X133969142Y-121118380D02*
X133635809Y-122118380D01*
X133302476Y-121118380D01*
D11*
X126777523Y-104338380D02*
X126777523Y-103338380D01*
X126444190Y-104052666D01*
X126110857Y-103338380D01*
X126110857Y-104338380D01*
X125444190Y-103338380D02*
X125253714Y-103338380D01*
X125158476Y-103386000D01*
X125063238Y-103481238D01*
X125015619Y-103671714D01*
X125015619Y-104005047D01*
X125063238Y-104195523D01*
X125158476Y-104290761D01*
X125253714Y-104338380D01*
X125444190Y-104338380D01*
X125539428Y-104290761D01*
X125634666Y-104195523D01*
X125682285Y-104005047D01*
X125682285Y-103671714D01*
X125634666Y-103481238D01*
X125539428Y-103386000D01*
X125444190Y-103338380D01*
X124587047Y-104338380D02*
X124587047Y-103338380D01*
X124348952Y-103338380D01*
X124206095Y-103386000D01*
X124110857Y-103481238D01*
X124063238Y-103576476D01*
X124015619Y-103766952D01*
X124015619Y-103909809D01*
X124063238Y-104100285D01*
X124110857Y-104195523D01*
X124206095Y-104290761D01*
X124348952Y-104338380D01*
X124587047Y-104338380D01*
X123587047Y-103814571D02*
X123253714Y-103814571D01*
X123110857Y-104338380D02*
X123587047Y-104338380D01*
X123587047Y-103338380D01*
X123110857Y-103338380D01*
D10*
X134745000Y-123261000D02*
X133285000Y-123261000D01*
X134745000Y-126421000D02*
X134745000Y-125491000D01*
X134745000Y-126421000D02*
X132585000Y-126421000D01*
X134745000Y-123261000D02*
X134745000Y-124191000D01*
X138070000Y-118050000D02*
X138070000Y-120710000D01*
X132870000Y-120710000D02*
X135980000Y-120710000D01*
X134960000Y-118050000D02*
X138070000Y-118050000D01*
X132870000Y-118050000D02*
X132870000Y-120710000D01*
X133440000Y-118050000D02*
X133440000Y-116530000D01*
X137500000Y-120710000D02*
X138070000Y-120710000D01*
X132870000Y-118050000D02*
X133440000Y-118050000D01*
X138809000Y-126421000D02*
X138809000Y-125491000D01*
X138809000Y-123261000D02*
X138809000Y-124191000D01*
X138809000Y-123261000D02*
X137349000Y-123261000D01*
X138809000Y-126421000D02*
X136649000Y-126421000D01*
X130555000Y-116993641D02*
X130555000Y-116686359D01*
X129795000Y-116993641D02*
X129795000Y-116686359D01*
X129412000Y-119025641D02*
X129412000Y-118718359D01*
X128652000Y-119025641D02*
X128652000Y-118718359D01*
X131698000Y-116993641D02*
X131698000Y-116686359D01*
X130938000Y-116993641D02*
X130938000Y-116686359D01*
X131698000Y-119025641D02*
X131698000Y-118718359D01*
X130938000Y-119025641D02*
X130938000Y-118718359D01*
X135147164Y-104754000D02*
X135362836Y-104754000D01*
X135147164Y-104034000D02*
X135362836Y-104034000D01*
X139676000Y-103671000D02*
X137126000Y-103671000D01*
X139676000Y-105371000D02*
X137126000Y-105371000D01*
X139676000Y-103671000D02*
X139676000Y-105371000D01*
X133376641Y-104014000D02*
X133069359Y-104014000D01*
X133376641Y-104774000D02*
X133069359Y-104774000D01*
X127824000Y-103521000D02*
G75*
G03*
X127124000Y-104221000I-1J-699999D01*
G01*
X127124000Y-104821000D02*
G75*
G03*
X127824000Y-105521000I699999J-1D01*
G01*
X129924000Y-104221000D02*
G75*
G03*
X129224000Y-103521000I-699999J1D01*
G01*
X129224000Y-105521000D02*
G75*
G03*
X129924000Y-104821000I1J699999D01*
G01*
X127124000Y-104221000D02*
X127124000Y-104821000D01*
X127824000Y-105521000D02*
X129224000Y-105521000D01*
X129224000Y-103521000D02*
X127824000Y-103521000D01*
X129924000Y-104821000D02*
X129924000Y-104221000D01*
X132394000Y-121793000D02*
X132394000Y-120463000D01*
X132394000Y-120463000D02*
X131064000Y-120463000D01*
X136511420Y-116203000D02*
X136792580Y-116203000D01*
X136511420Y-117223000D02*
X136792580Y-117223000D01*
X129412000Y-116993641D02*
X129412000Y-116686359D01*
X128652000Y-116993641D02*
X128652000Y-116686359D01*
X127614000Y-111994836D02*
X127614000Y-111779164D01*
X126894000Y-111994836D02*
X126894000Y-111779164D01*
X138959000Y-111486836D02*
X138959000Y-111271164D01*
X139679000Y-111486836D02*
X139679000Y-111271164D01*
X126894000Y-109835836D02*
X126894000Y-109620164D01*
X127614000Y-109835836D02*
X127614000Y-109620164D01*
X127764000Y-114264221D02*
X127764000Y-114589779D01*
X126744000Y-114264221D02*
X126744000Y-114589779D01*
X139679000Y-109581836D02*
X139679000Y-109366164D01*
X138959000Y-109581836D02*
X138959000Y-109366164D01*
D12*
X136975000Y-113988000D02*
X136975000Y-113663000D01*
X136975000Y-106963000D02*
X138400000Y-106963000D01*
X136975000Y-113988000D02*
X136650000Y-113988000D01*
X129725000Y-113988000D02*
X129725000Y-113663000D01*
X129725000Y-106738000D02*
X129725000Y-107063000D01*
X129725000Y-113988000D02*
X130050000Y-113988000D01*
X136975000Y-106738000D02*
X136650000Y-106738000D01*
X129725000Y-106738000D02*
X130050000Y-106738000D01*
X136975000Y-106738000D02*
X136975000Y-106963000D01*
%LPC*%
D13*
X140970000Y-105410000D03*
X140970000Y-107950000D03*
X140970000Y-110490000D03*
X140970000Y-113030000D03*
X140970000Y-115570000D03*
X140970000Y-118110000D03*
X140970000Y-120650000D03*
X140970000Y-123190000D03*
X140970000Y-125730000D03*
X125730000Y-125730000D03*
X125730000Y-123190000D03*
X125730000Y-120650000D03*
X125730000Y-118110000D03*
X125730000Y-115570000D03*
X125730000Y-113030000D03*
X125730000Y-110490000D03*
X125730000Y-107950000D03*
D14*
X125730000Y-105410000D03*
D15*
X132985000Y-125791000D03*
X132985000Y-123891000D03*
X134985000Y-124841000D03*
D16*
X136740000Y-121035000D03*
X134200000Y-117725000D03*
D17*
X121920000Y-104140000D03*
X121920000Y-106680000D03*
X121920000Y-109220000D03*
X121920000Y-111760000D03*
X121920000Y-114300000D03*
X121920000Y-116840000D03*
X121920000Y-119380000D03*
X121920000Y-121920000D03*
X121920000Y-124460000D03*
D18*
X121920000Y-127000000D03*
D15*
X137049000Y-125791000D03*
X137049000Y-123891000D03*
X139049000Y-124841000D03*
D19*
X130175000Y-116330000D03*
X130175000Y-117350000D03*
X129032000Y-119382000D03*
X129032000Y-118362000D03*
X131318000Y-116330000D03*
X131318000Y-117350000D03*
X131318000Y-119382000D03*
X131318000Y-118362000D03*
D20*
X135735000Y-104394000D03*
X134775000Y-104394000D03*
D21*
X137076000Y-104521000D03*
X139276000Y-104521000D03*
D22*
X132713000Y-104394000D03*
X133733000Y-104394000D03*
D23*
X127874000Y-104521000D03*
D24*
X129174000Y-104521000D03*
D17*
X128524000Y-126873000D03*
X131064000Y-126873000D03*
X128524000Y-124333000D03*
X131064000Y-124333000D03*
X128524000Y-121793000D03*
D18*
X131064000Y-121793000D03*
D25*
X135877000Y-116713000D03*
X137427000Y-116713000D03*
D19*
X129032000Y-116330000D03*
X129032000Y-117350000D03*
D26*
X127254000Y-111407000D03*
X127254000Y-112367000D03*
X139319000Y-110899000D03*
X139319000Y-111859000D03*
X127254000Y-109248000D03*
X127254000Y-110208000D03*
D27*
X127254000Y-115214500D03*
X127254000Y-113639500D03*
D26*
X139319000Y-108994000D03*
X139319000Y-109954000D03*
D28*
X136150000Y-106113000D03*
X135350000Y-106113000D03*
X134550000Y-106113000D03*
X133750000Y-106113000D03*
X132950000Y-106113000D03*
X132150000Y-106113000D03*
X131350000Y-106113000D03*
X130550000Y-106113000D03*
D29*
X129100000Y-107563000D03*
X129100000Y-108363000D03*
X129100000Y-109163000D03*
X129100000Y-109963000D03*
X129100000Y-110763000D03*
X129100000Y-111563000D03*
X129100000Y-112363000D03*
X129100000Y-113163000D03*
D28*
X130550000Y-114613000D03*
X131350000Y-114613000D03*
X132150000Y-114613000D03*
X132950000Y-114613000D03*
X133750000Y-114613000D03*
X134550000Y-114613000D03*
X135350000Y-114613000D03*
X136150000Y-114613000D03*
D29*
X137600000Y-113163000D03*
X137600000Y-112363000D03*
X137600000Y-111563000D03*
X137600000Y-110763000D03*
X137600000Y-109963000D03*
X137600000Y-109163000D03*
X137600000Y-108363000D03*
X137600000Y-107563000D03*
M02*
