M48
; DRILL file {KiCad (6.0.0-0)} date 2021 December 28, Tuesday 15:21:58
; FORMAT={-:-/ absolute / metric / decimal}
; #@! TF.CreationDate,2021-12-28T15:21:58+01:00
; #@! TF.GenerationSoftware,Kicad,Pcbnew,(6.0.0-0)
; #@! TF.FileFunction,Plated,1,4,PTH
FMAT,2
METRIC
; #@! TA.AperFunction,Plated,PTH,ViaDrill
T1C0.200
; #@! TA.AperFunction,Plated,PTH,ViaDrill
T2C0.400
; #@! TA.AperFunction,Plated,PTH,ComponentDrill
T3C1.000
%
G90
G05
T1
X122.428Y-115.57
X123.444Y-112.649
X123.444Y-115.443
X123.88Y-113.537
X124.137Y-116.078
X124.181Y-118.638
X124.46Y-117.094
X126.622Y-106.577
X127.0Y-116.078
X127.508Y-116.967
X128.146Y-116.459
X128.558Y-117.746
X130.175Y-118.733
X131.93Y-115.671
X131.953Y-113.411
X132.081Y-118.032
X132.46Y-117.094
X132.477Y-107.31
X132.588Y-108.331
X132.715Y-122.555
X132.969Y-115.697
X133.096Y-109.22
X133.987Y-115.69
X134.989Y-115.804
X135.111Y-107.427
X135.128Y-119.888
X135.485Y-108.795
X136.017Y-107.95
X136.791Y-115.575
X137.033Y-106.807
X137.287Y-118.618
X138.811Y-107.569
X139.319Y-114.3
X139.827Y-116.713
X141.732Y-117.094
X141.998Y-119.495
T2
X126.492Y-111.76
X126.782Y-103.768
X127.127Y-126.873
X127.254Y-108.458
X128.397Y-114.935
X128.524Y-120.574
X132.715Y-103.622
X132.829Y-124.791
X135.763Y-103.622
X135.89Y-123.971
X136.144Y-118.237
X138.011Y-121.451
X138.574Y-116.67
X139.319Y-103.632
X139.319Y-108.204
X139.319Y-112.649
X140.27Y-109.22
X140.27Y-111.76
T3
X121.92Y-104.14
X121.92Y-106.68
X121.92Y-109.22
X121.92Y-111.76
X121.92Y-114.3
X121.92Y-116.84
X121.92Y-119.38
X121.92Y-121.92
X121.92Y-124.46
X121.92Y-127.0
X125.73Y-105.41
X125.73Y-107.95
X125.73Y-110.49
X125.73Y-113.03
X125.73Y-115.57
X125.73Y-118.11
X125.73Y-120.65
X125.73Y-123.19
X125.73Y-125.73
X128.524Y-121.793
X128.524Y-124.333
X128.524Y-126.873
X131.064Y-121.793
X131.064Y-124.333
X131.064Y-126.873
X140.97Y-105.41
X140.97Y-107.95
X140.97Y-110.49
X140.97Y-113.03
X140.97Y-115.57
X140.97Y-118.11
X140.97Y-120.65
X140.97Y-123.19
X140.97Y-125.73
T0
M30
