G04 #@! TF.GenerationSoftware,KiCad,Pcbnew,(6.0.0-0)*
G04 #@! TF.CreationDate,2021-12-28T15:21:01+01:00*
G04 #@! TF.ProjectId,7segment,37736567-6d65-46e7-942e-6b696361645f,rev?*
G04 #@! TF.SameCoordinates,Original*
G04 #@! TF.FileFunction,Copper,L4,Bot*
G04 #@! TF.FilePolarity,Positive*
%FSLAX46Y46*%
G04 Gerber Fmt 4.6, Leading zero omitted, Abs format (unit mm)*
G04 Created by KiCad (PCBNEW (6.0.0-0)) date 2021-12-28 15:21:01*
%MOMM*%
%LPD*%
G01*
G04 APERTURE LIST*
G04 Aperture macros list*
%AMRoundRect*
0 Rectangle with rounded corners*
0 $1 Rounding radius*
0 $2 $3 $4 $5 $6 $7 $8 $9 X,Y pos of 4 corners*
0 Add a 4 corners polygon primitive as box body*
4,1,4,$2,$3,$4,$5,$6,$7,$8,$9,$2,$3,0*
0 Add four circle primitives for the rounded corners*
1,1,$1+$1,$2,$3*
1,1,$1+$1,$4,$5*
1,1,$1+$1,$6,$7*
1,1,$1+$1,$8,$9*
0 Add four rect primitives between the rounded corners*
20,1,$1+$1,$2,$3,$4,$5,0*
20,1,$1+$1,$4,$5,$6,$7,0*
20,1,$1+$1,$6,$7,$8,$9,0*
20,1,$1+$1,$8,$9,$2,$3,0*%
%AMFreePoly0*
4,1,20,0.000000,0.744959,0.073905,0.744508,0.209726,0.703889,0.328688,0.626782,0.421226,0.519385,0.479903,0.390333,0.500000,0.250000,0.500000,-0.250000,0.499851,-0.262216,0.476331,-0.402017,0.414519,-0.529596,0.319384,-0.634700,0.198574,-0.708877,0.061801,-0.746166,0.000000,-0.745033,0.000000,-0.750000,-0.500000,-0.750000,-0.500000,0.750000,0.000000,0.750000,0.000000,0.744959,
0.000000,0.744959,$1*%
%AMFreePoly1*
4,1,22,0.500000,-0.750000,0.000000,-0.750000,0.000000,-0.745033,-0.079941,-0.743568,-0.215256,-0.701293,-0.333266,-0.622738,-0.424486,-0.514219,-0.481581,-0.384460,-0.499164,-0.250000,-0.500000,-0.250000,-0.500000,0.250000,-0.499164,0.250000,-0.499963,0.256109,-0.478152,0.396186,-0.417904,0.524511,-0.324060,0.630769,-0.204165,0.706417,-0.067858,0.745374,0.000000,0.744959,0.000000,0.750000,
0.500000,0.750000,0.500000,-0.750000,0.500000,-0.750000,$1*%
G04 Aperture macros list end*
G04 #@! TA.AperFunction,ComponentPad*
%ADD10C,1.700000*%
G04 #@! TD*
G04 #@! TA.AperFunction,ComponentPad*
%ADD11R,1.500000X1.500000*%
G04 #@! TD*
G04 #@! TA.AperFunction,SMDPad,CuDef*
%ADD12R,0.900000X0.800000*%
G04 #@! TD*
G04 #@! TA.AperFunction,SMDPad,CuDef*
%ADD13R,1.000000X2.510000*%
G04 #@! TD*
G04 #@! TA.AperFunction,ComponentPad*
%ADD14O,1.700000X1.700000*%
G04 #@! TD*
G04 #@! TA.AperFunction,ComponentPad*
%ADD15R,1.700000X1.700000*%
G04 #@! TD*
G04 #@! TA.AperFunction,SMDPad,CuDef*
%ADD16RoundRect,0.135000X0.185000X-0.135000X0.185000X0.135000X-0.185000X0.135000X-0.185000X-0.135000X0*%
G04 #@! TD*
G04 #@! TA.AperFunction,SMDPad,CuDef*
%ADD17RoundRect,0.140000X-0.140000X-0.170000X0.140000X-0.170000X0.140000X0.170000X-0.140000X0.170000X0*%
G04 #@! TD*
G04 #@! TA.AperFunction,SMDPad,CuDef*
%ADD18R,0.500000X0.500000*%
G04 #@! TD*
G04 #@! TA.AperFunction,SMDPad,CuDef*
%ADD19RoundRect,0.135000X0.135000X0.185000X-0.135000X0.185000X-0.135000X-0.185000X0.135000X-0.185000X0*%
G04 #@! TD*
G04 #@! TA.AperFunction,SMDPad,CuDef*
%ADD20FreePoly0,180.000000*%
G04 #@! TD*
G04 #@! TA.AperFunction,SMDPad,CuDef*
%ADD21FreePoly1,180.000000*%
G04 #@! TD*
G04 #@! TA.AperFunction,SMDPad,CuDef*
%ADD22RoundRect,0.225000X-0.225000X-0.250000X0.225000X-0.250000X0.225000X0.250000X-0.225000X0.250000X0*%
G04 #@! TD*
G04 #@! TA.AperFunction,SMDPad,CuDef*
%ADD23RoundRect,0.140000X0.170000X-0.140000X0.170000X0.140000X-0.170000X0.140000X-0.170000X-0.140000X0*%
G04 #@! TD*
G04 #@! TA.AperFunction,SMDPad,CuDef*
%ADD24RoundRect,0.218750X-0.256250X0.218750X-0.256250X-0.218750X0.256250X-0.218750X0.256250X0.218750X0*%
G04 #@! TD*
G04 #@! TA.AperFunction,SMDPad,CuDef*
%ADD25R,0.550000X1.600000*%
G04 #@! TD*
G04 #@! TA.AperFunction,SMDPad,CuDef*
%ADD26R,1.600000X0.550000*%
G04 #@! TD*
G04 #@! TA.AperFunction,ViaPad*
%ADD27C,0.800000*%
G04 #@! TD*
G04 #@! TA.AperFunction,ViaPad*
%ADD28C,0.450000*%
G04 #@! TD*
G04 #@! TA.AperFunction,Conductor*
%ADD29C,0.500000*%
G04 #@! TD*
G04 #@! TA.AperFunction,Conductor*
%ADD30C,0.100000*%
G04 #@! TD*
G04 APERTURE END LIST*
D10*
X140970000Y-105410000D03*
X140970000Y-107950000D03*
X140970000Y-110490000D03*
X140970000Y-113030000D03*
X140970000Y-115570000D03*
X140970000Y-118110000D03*
X140970000Y-120650000D03*
X140970000Y-123190000D03*
X140970000Y-125730000D03*
X125730000Y-125730000D03*
X125730000Y-123190000D03*
X125730000Y-120650000D03*
X125730000Y-118110000D03*
X125730000Y-115570000D03*
X125730000Y-113030000D03*
X125730000Y-110490000D03*
X125730000Y-107950000D03*
D11*
X125730000Y-105410000D03*
D12*
X132985000Y-125791000D03*
X132985000Y-123891000D03*
X134985000Y-124841000D03*
D13*
X136740000Y-121035000D03*
X134200000Y-117725000D03*
D14*
X121920000Y-104140000D03*
X121920000Y-106680000D03*
X121920000Y-109220000D03*
X121920000Y-111760000D03*
X121920000Y-114300000D03*
X121920000Y-116840000D03*
X121920000Y-119380000D03*
X121920000Y-121920000D03*
X121920000Y-124460000D03*
D15*
X121920000Y-127000000D03*
D12*
X137049000Y-125791000D03*
X137049000Y-123891000D03*
X139049000Y-124841000D03*
D16*
X130175000Y-116330000D03*
X130175000Y-117350000D03*
X129032000Y-119382000D03*
X129032000Y-118362000D03*
X131318000Y-116330000D03*
X131318000Y-117350000D03*
X131318000Y-119382000D03*
X131318000Y-118362000D03*
D17*
X135735000Y-104394000D03*
X134775000Y-104394000D03*
D18*
X137076000Y-104521000D03*
X139276000Y-104521000D03*
D19*
X132713000Y-104394000D03*
X133733000Y-104394000D03*
D20*
X127874000Y-104521000D03*
D21*
X129174000Y-104521000D03*
D14*
X128524000Y-126873000D03*
X131064000Y-126873000D03*
X128524000Y-124333000D03*
X131064000Y-124333000D03*
X128524000Y-121793000D03*
D15*
X131064000Y-121793000D03*
D22*
X135877000Y-116713000D03*
X137427000Y-116713000D03*
D16*
X129032000Y-116330000D03*
X129032000Y-117350000D03*
D23*
X127254000Y-111407000D03*
X127254000Y-112367000D03*
X139319000Y-110899000D03*
X139319000Y-111859000D03*
X127254000Y-109248000D03*
X127254000Y-110208000D03*
D24*
X127254000Y-115214500D03*
X127254000Y-113639500D03*
D23*
X139319000Y-108994000D03*
X139319000Y-109954000D03*
D25*
X136150000Y-106113000D03*
X135350000Y-106113000D03*
X134550000Y-106113000D03*
X133750000Y-106113000D03*
X132950000Y-106113000D03*
X132150000Y-106113000D03*
X131350000Y-106113000D03*
X130550000Y-106113000D03*
D26*
X129100000Y-107563000D03*
X129100000Y-108363000D03*
X129100000Y-109163000D03*
X129100000Y-109963000D03*
X129100000Y-110763000D03*
X129100000Y-111563000D03*
X129100000Y-112363000D03*
X129100000Y-113163000D03*
D25*
X130550000Y-114613000D03*
X131350000Y-114613000D03*
X132150000Y-114613000D03*
X132950000Y-114613000D03*
X133750000Y-114613000D03*
X134550000Y-114613000D03*
X135350000Y-114613000D03*
X136150000Y-114613000D03*
D26*
X137600000Y-113163000D03*
X137600000Y-112363000D03*
X137600000Y-111563000D03*
X137600000Y-110763000D03*
X137600000Y-109963000D03*
X137600000Y-109163000D03*
X137600000Y-108363000D03*
X137600000Y-107563000D03*
D27*
X126492000Y-111760000D03*
X127127000Y-126873000D03*
X126782026Y-103768045D03*
X135763000Y-103622000D03*
X138574262Y-116669647D03*
X139319000Y-108204000D03*
X138010797Y-121451176D03*
X127254000Y-108458000D03*
X132828760Y-124790988D03*
X135890000Y-123971067D03*
X140270283Y-111760001D03*
X132715000Y-103622000D03*
X139319000Y-112649000D03*
X128397000Y-114935000D03*
X139319000Y-103632000D03*
X136144000Y-118236994D03*
X128524000Y-120574295D03*
X140270272Y-109219994D03*
D28*
X132715000Y-122555000D03*
X122428000Y-115570000D03*
X132588000Y-108331000D03*
X133096000Y-109220000D03*
X128558032Y-117746143D03*
X130175000Y-118733033D03*
X132080589Y-118031745D03*
X124460000Y-117094000D03*
X127000000Y-116078000D03*
X131930285Y-115671478D03*
X127508000Y-116966994D03*
X132969017Y-115696983D03*
X133986903Y-115690492D03*
X128146396Y-116459000D03*
X126621702Y-106577288D03*
X139827000Y-116713000D03*
X135111432Y-107426502D03*
X141997979Y-119495021D03*
X135484677Y-108795345D03*
X141732000Y-117094000D03*
X137033000Y-106807000D03*
X124180929Y-118637620D03*
X136017000Y-107950000D03*
X124136990Y-116078000D03*
X138811000Y-107569000D03*
X123879978Y-113536931D03*
X132476920Y-107309618D03*
X137287000Y-118618000D03*
X139319000Y-114300000D03*
X135128000Y-119888000D03*
X134989052Y-115803673D03*
X136790654Y-115575168D03*
X123444000Y-115443000D03*
X123444000Y-112649000D03*
X131953000Y-113411000D03*
X132459836Y-117094000D03*
D29*
X135735000Y-104394000D02*
X135735000Y-103650000D01*
X126845000Y-111407000D02*
X126492000Y-111760000D01*
X137427000Y-116713000D02*
X138530909Y-116713000D01*
X139503402Y-110899000D02*
X140270283Y-111665881D01*
X137594621Y-121035000D02*
X138010797Y-121451176D01*
X135970067Y-123891000D02*
X135890000Y-123971067D01*
X140270283Y-111665881D02*
X140270283Y-111760001D01*
X129100000Y-109963000D02*
X128153402Y-109963000D01*
X127874000Y-104521000D02*
X127121045Y-103768045D01*
X139183000Y-110763000D02*
X139319000Y-110899000D01*
X137600000Y-110763000D02*
X139183000Y-110763000D01*
X132985000Y-123891000D02*
X132985000Y-124634748D01*
X139150000Y-109163000D02*
X139319000Y-108994000D01*
X127438402Y-109248000D02*
X127254000Y-109248000D01*
X132985000Y-124634748D02*
X132828760Y-124790988D01*
X139319000Y-110899000D02*
X139503402Y-110899000D01*
X128524000Y-126873000D02*
X127127000Y-126873000D01*
X138530909Y-116713000D02*
X138574262Y-116669647D01*
X127254000Y-111407000D02*
X126845000Y-111407000D01*
X127254000Y-109248000D02*
X127254000Y-108458000D01*
X136740000Y-121035000D02*
X137594621Y-121035000D01*
X128153402Y-109963000D02*
X127438402Y-109248000D01*
X127121045Y-103768045D02*
X126782026Y-103768045D01*
X137049000Y-123891000D02*
X135970067Y-123891000D01*
X139319000Y-108994000D02*
X139319000Y-108204000D01*
X135735000Y-103650000D02*
X135763000Y-103622000D01*
X137600000Y-109163000D02*
X139150000Y-109163000D01*
X132713000Y-103624000D02*
X132715000Y-103622000D01*
X135877000Y-116713000D02*
X135877000Y-117969994D01*
X139276000Y-104521000D02*
X139276000Y-103675000D01*
X135877000Y-117969994D02*
X136144000Y-118236994D01*
X135212000Y-116713000D02*
X134200000Y-117725000D01*
X139276000Y-103675000D02*
X139319000Y-103632000D01*
X139319000Y-109954000D02*
X139536266Y-109954000D01*
X138713000Y-111563000D02*
X139009000Y-111859000D01*
X137600000Y-111563000D02*
X138713000Y-111563000D01*
X139310000Y-109963000D02*
X139319000Y-109954000D01*
X132713000Y-104394000D02*
X132713000Y-103624000D01*
X139319000Y-111859000D02*
X139319000Y-112649000D01*
X128117500Y-115214500D02*
X128397000Y-114935000D01*
X127254000Y-115214500D02*
X128117500Y-115214500D01*
X139009000Y-111859000D02*
X139319000Y-111859000D01*
D30*
X127349998Y-115570000D02*
X127381000Y-115570000D01*
D29*
X137600000Y-109963000D02*
X139310000Y-109963000D01*
X139536266Y-109954000D02*
X140270272Y-109219994D01*
X135877000Y-116713000D02*
X135212000Y-116713000D01*
D30*
X129100000Y-110763000D02*
X127809000Y-110763000D01*
X127809000Y-110763000D02*
X127254000Y-110208000D01*
X140437003Y-104309999D02*
X139726001Y-105021001D01*
X141455002Y-126873000D02*
X142748000Y-125580002D01*
X134775000Y-104394000D02*
X135335010Y-104954010D01*
X133733000Y-104394000D02*
X134775000Y-104394000D01*
X139726001Y-105021001D02*
X137576001Y-105021001D01*
X133750000Y-104411000D02*
X133733000Y-104394000D01*
X142748000Y-125580002D02*
X142748000Y-117592560D01*
X133750000Y-106113000D02*
X133750000Y-104411000D01*
X131064000Y-126873000D02*
X141455002Y-126873000D01*
X136642990Y-104954010D02*
X137076000Y-104521000D01*
X135335010Y-104954010D02*
X136642990Y-104954010D01*
X142748000Y-116214440D02*
X142748000Y-105029000D01*
X137576001Y-105021001D02*
X137076000Y-104521000D01*
X142782023Y-116248463D02*
X142748000Y-116214440D01*
X142028999Y-104309999D02*
X140437003Y-104309999D01*
X142748000Y-105029000D02*
X142028999Y-104309999D01*
X142782023Y-117558537D02*
X142782023Y-116248463D01*
X142748000Y-117592560D02*
X142782023Y-117558537D01*
X132498998Y-116528002D02*
X132803018Y-116528002D01*
X132914999Y-116639983D02*
X132914999Y-122355001D01*
X131318000Y-116330000D02*
X132300996Y-116330000D01*
X131350000Y-114613000D02*
X131350000Y-116298000D01*
X132803018Y-116528002D02*
X132914999Y-116639983D01*
X132300996Y-116330000D02*
X132498998Y-116528002D01*
X132914999Y-122355001D02*
X132715000Y-122555000D01*
X131350000Y-116298000D02*
X131318000Y-116330000D01*
X129032000Y-116330000D02*
X128258013Y-117103987D01*
X129100000Y-116262000D02*
X129100000Y-113163000D01*
X128792010Y-119902010D02*
X129624001Y-120734001D01*
X128108022Y-119322510D02*
X128687522Y-119902010D01*
X128258013Y-117103987D02*
X128258013Y-117307264D01*
X129861919Y-124333000D02*
X131064000Y-124333000D01*
X129624001Y-124095082D02*
X129861919Y-124333000D01*
X129624001Y-120734001D02*
X129624001Y-124095082D01*
X128258013Y-117307264D02*
X128108022Y-117457255D01*
X129032000Y-116330000D02*
X129100000Y-116262000D01*
X128687522Y-119902010D02*
X128792010Y-119902010D01*
X128108022Y-117457255D02*
X128108022Y-119322510D01*
X130550000Y-115955000D02*
X130175000Y-116330000D01*
X130747990Y-121476990D02*
X130747990Y-116902990D01*
X130747990Y-116902990D02*
X130175000Y-116330000D01*
X130550000Y-114613000D02*
X130550000Y-115955000D01*
X131064000Y-121793000D02*
X130747990Y-121476990D01*
X129963999Y-119930999D02*
X129963999Y-122843001D01*
X132155185Y-124478986D02*
X132155185Y-125511185D01*
X129415000Y-119382000D02*
X129963999Y-119930999D01*
X129032000Y-119382000D02*
X129415000Y-119382000D01*
X129963999Y-122843001D02*
X130353997Y-123232999D01*
X132164001Y-124470170D02*
X132155185Y-124478986D01*
X132155185Y-125511185D02*
X132435000Y-125791000D01*
X132164001Y-123804999D02*
X132164001Y-124470170D01*
X130353997Y-123232999D02*
X131592001Y-123232999D01*
X131592001Y-123232999D02*
X132164001Y-123804999D01*
X132435000Y-125791000D02*
X132985000Y-125791000D01*
X137049000Y-125791000D02*
X134634998Y-125791000D01*
X132164001Y-120228001D02*
X132164001Y-122893001D01*
X133858000Y-123463998D02*
X133584002Y-123190000D01*
X133858000Y-125014002D02*
X133858000Y-123463998D01*
X133584002Y-123190000D02*
X132461000Y-123190000D01*
X131318000Y-119382000D02*
X132164001Y-120228001D01*
X132461000Y-123190000D02*
X132164001Y-122893001D01*
X134634998Y-125791000D02*
X133858000Y-125014002D01*
X126730001Y-104459999D02*
X126680001Y-104409999D01*
X126730001Y-105193001D02*
X126730001Y-104459999D01*
X123063000Y-112363998D02*
X122924988Y-112502010D01*
X123063000Y-114935000D02*
X122428000Y-115570000D01*
X124779999Y-104409999D02*
X123063000Y-106126998D01*
X123063000Y-113124293D02*
X123063000Y-114935000D01*
X122924988Y-112986281D02*
X123063000Y-113124293D01*
X122924988Y-112502010D02*
X122924988Y-112986281D01*
X123063000Y-106126998D02*
X123063000Y-112363998D01*
X129100000Y-107563000D02*
X126730001Y-105193001D01*
X126680001Y-104409999D02*
X124779999Y-104409999D01*
X136658000Y-113163000D02*
X136392998Y-113163000D01*
X136658000Y-113163000D02*
X136652001Y-113157001D01*
X132588000Y-109358002D02*
X132588000Y-108331000D01*
X137600000Y-113163000D02*
X136658000Y-113163000D01*
X136392998Y-113163000D02*
X132588000Y-109358002D01*
X136549999Y-112038001D02*
X136549999Y-111629157D01*
X137600000Y-112363000D02*
X136874998Y-112363000D01*
X136549999Y-111629157D02*
X134140842Y-109220000D01*
X136874998Y-112363000D02*
X136549999Y-112038001D01*
X134140842Y-109220000D02*
X133096000Y-109220000D01*
X129032000Y-117350000D02*
X128954175Y-117350000D01*
X128954175Y-117350000D02*
X128558032Y-117746143D01*
X130175000Y-117350000D02*
X130175000Y-118733033D01*
X124206000Y-116840000D02*
X124460000Y-117094000D01*
X131999745Y-118031745D02*
X132080589Y-118031745D01*
X121920000Y-116840000D02*
X124206000Y-116840000D01*
X131318000Y-117350000D02*
X131999745Y-118031745D01*
X126800001Y-116277999D02*
X127000000Y-116078000D01*
X132150000Y-114613000D02*
X132150000Y-115451763D01*
X126830001Y-117157682D02*
X126800001Y-117127682D01*
X126800001Y-117127682D02*
X126800001Y-116277999D01*
X126280999Y-119210001D02*
X126830001Y-118660999D01*
X122089999Y-119210001D02*
X126280999Y-119210001D01*
X121920000Y-119380000D02*
X122089999Y-119210001D01*
X132150000Y-115451763D02*
X131930285Y-115671478D01*
X126830001Y-118660999D02*
X126830001Y-117157682D01*
X132950000Y-114613000D02*
X132950000Y-115677966D01*
X127508000Y-118407279D02*
X127508000Y-116966994D01*
X132950000Y-115677966D02*
X132969017Y-115696983D01*
X126405267Y-119510012D02*
X127508000Y-118407279D01*
X124329988Y-119510012D02*
X126405267Y-119510012D01*
X121920000Y-121920000D02*
X124329988Y-119510012D01*
X127808011Y-117332987D02*
X127958002Y-117182996D01*
X133750000Y-115335000D02*
X134112000Y-115697000D01*
X121920000Y-124460000D02*
X124329988Y-122050012D01*
X133750000Y-114613000D02*
X133750000Y-115335000D01*
X127958002Y-116647394D02*
X128146396Y-116459000D01*
X127519987Y-118819571D02*
X127808011Y-118531547D01*
X127958002Y-117182996D02*
X127958002Y-116647394D01*
X124329988Y-122050012D02*
X126382269Y-122050012D01*
X127808011Y-118531547D02*
X127808011Y-117332987D01*
X127519987Y-120912294D02*
X127519987Y-118819571D01*
X126382269Y-122050012D02*
X127519987Y-120912294D01*
X128407414Y-108363000D02*
X126621702Y-106577288D01*
X129100000Y-108363000D02*
X128407414Y-108363000D01*
X139827000Y-116995842D02*
X139827000Y-116713000D01*
X139399989Y-122811732D02*
X139399989Y-119255732D01*
X137370721Y-124841000D02*
X139399989Y-122811732D01*
X134985000Y-124841000D02*
X137370721Y-124841000D01*
X139827000Y-118828721D02*
X139827000Y-116995842D01*
X139399989Y-119255732D02*
X139827000Y-118828721D01*
X139700000Y-119380000D02*
X140970000Y-118110000D01*
X139700000Y-124740000D02*
X139700000Y-119380000D01*
X139049000Y-124841000D02*
X139599000Y-124841000D01*
X139599000Y-124841000D02*
X139700000Y-124740000D01*
X134550000Y-106865070D02*
X135111432Y-107426502D01*
X134550000Y-106113000D02*
X134550000Y-106865070D01*
X142113000Y-119380000D02*
X141997979Y-119495021D01*
X142147978Y-111667978D02*
X142147978Y-116462976D01*
X142113000Y-117379002D02*
X142113000Y-119380000D01*
X140970000Y-110490000D02*
X142147978Y-111667978D01*
X142147978Y-116462976D02*
X142182001Y-116496999D01*
X142182001Y-116496999D02*
X142182001Y-117310001D01*
X142182001Y-117310001D02*
X142113000Y-117379002D01*
X135439998Y-107733998D02*
X135439998Y-108750666D01*
X135439998Y-108750666D02*
X135484677Y-108795345D01*
X135578002Y-106341002D02*
X135578002Y-107595994D01*
X135350000Y-106113000D02*
X135578002Y-106341002D01*
X135578002Y-107595994D02*
X135439998Y-107733998D01*
X139869999Y-114130001D02*
X139869999Y-116098001D01*
X140665999Y-116894001D02*
X141532001Y-116894001D01*
X141532001Y-116894001D02*
X141732000Y-117094000D01*
X140970000Y-113030000D02*
X139869999Y-114130001D01*
X139869999Y-116098001D02*
X140665999Y-116894001D01*
X137033000Y-106807000D02*
X136339000Y-106113000D01*
X136339000Y-106113000D02*
X136150000Y-106113000D01*
X124180929Y-118637620D02*
X124180929Y-118008071D01*
X124629999Y-111590001D02*
X124725011Y-111494989D01*
X124629999Y-116363995D02*
X124629999Y-111590001D01*
X124968000Y-117252002D02*
X124968000Y-116713000D01*
X124973502Y-116707498D02*
X124629999Y-116363995D01*
X124676001Y-117544001D02*
X124968000Y-117252002D01*
X124725011Y-111494989D02*
X125730000Y-110490000D01*
X124180929Y-118008071D02*
X124644999Y-117544001D01*
X124968000Y-116713000D02*
X124973502Y-116707498D01*
X124644999Y-117544001D02*
X124676001Y-117544001D01*
X137600000Y-107563000D02*
X136404000Y-107563000D01*
X136404000Y-107563000D02*
X136017000Y-107950000D01*
X124329988Y-109350012D02*
X124329988Y-115602160D01*
X124136990Y-115795158D02*
X124136990Y-116078000D01*
X124329988Y-115602160D02*
X124136990Y-115795158D01*
X125730000Y-107950000D02*
X124329988Y-109350012D01*
X138650001Y-107729999D02*
X138650001Y-108212999D01*
X138650001Y-108212999D02*
X138500000Y-108363000D01*
X138500000Y-108363000D02*
X137600000Y-108363000D01*
X138811000Y-107569000D02*
X138650001Y-107729999D01*
X123894010Y-106395990D02*
X123894010Y-113522899D01*
X123894010Y-113522899D02*
X123879978Y-113536931D01*
X125730000Y-105410000D02*
X124880000Y-105410000D01*
X124880000Y-105410000D02*
X123894010Y-106395990D01*
X134832000Y-112395000D02*
X134112000Y-112395000D01*
X132080000Y-107715489D02*
X132061811Y-107733678D01*
X132080000Y-107706538D02*
X132080000Y-107715489D01*
X136150000Y-113713000D02*
X134832000Y-112395000D01*
X136150000Y-114613000D02*
X136150000Y-113713000D01*
X132061811Y-110344811D02*
X134112000Y-112395000D01*
X132476920Y-107309618D02*
X132080000Y-107706538D01*
X132061811Y-107733678D02*
X132061811Y-110344811D01*
X142447989Y-106887989D02*
X142447989Y-116338708D01*
X142447989Y-116338708D02*
X142482012Y-116372731D01*
X142030660Y-120650000D02*
X140970000Y-120650000D01*
X142447989Y-120232671D02*
X142030660Y-120650000D01*
X142482012Y-117434269D02*
X142447989Y-117468292D01*
X142447989Y-117468292D02*
X142447989Y-120232671D01*
X140970000Y-105410000D02*
X142447989Y-106887989D01*
X142482012Y-116372731D02*
X142482012Y-117434269D01*
X135350000Y-114613000D02*
X135350000Y-115513000D01*
X136577010Y-116025169D02*
X136577010Y-117625168D01*
X135719748Y-115882748D02*
X136434589Y-115882748D01*
X135350000Y-115513000D02*
X135719748Y-115882748D01*
X136577010Y-117625168D02*
X137287000Y-118335158D01*
X137287000Y-118335158D02*
X137287000Y-118618000D01*
X136434589Y-115882748D02*
X136577010Y-116025169D01*
X139272989Y-114628853D02*
X139319000Y-114582842D01*
X138303000Y-119126000D02*
X139272989Y-118156011D01*
X135890000Y-119126000D02*
X138303000Y-119126000D01*
X139319000Y-114582842D02*
X139319000Y-114300000D01*
X139272989Y-118156011D02*
X139272989Y-114628853D01*
X135128000Y-119888000D02*
X135890000Y-119126000D01*
X134550000Y-114613000D02*
X134550000Y-115364621D01*
X134550000Y-115364621D02*
X134989052Y-115803673D01*
X123444000Y-112649000D02*
X123429977Y-112663023D01*
X123429977Y-112663023D02*
X123429977Y-115428977D01*
X123429977Y-115428977D02*
X123444000Y-115443000D01*
X129604990Y-117643244D02*
X129604990Y-117789010D01*
X129604990Y-117789010D02*
X129032000Y-118362000D01*
X131350000Y-106113000D02*
X131350000Y-112363000D01*
X131350000Y-112363000D02*
X129604990Y-114108010D01*
X129604990Y-114108010D02*
X129604990Y-117643244D01*
X129324706Y-118347806D02*
X129324706Y-118388734D01*
X131318000Y-118362000D02*
X131437747Y-118481747D01*
X131753001Y-107609258D02*
X131906989Y-107455270D01*
X131953000Y-113411000D02*
X131753001Y-113211001D01*
X131437747Y-118481747D02*
X132296591Y-118481747D01*
X132530591Y-118247747D02*
X132530591Y-117164755D01*
X132296591Y-118481747D02*
X132530591Y-118247747D01*
X131906989Y-107455270D02*
X131906989Y-106356011D01*
X131753001Y-113211001D02*
X131753001Y-107609258D01*
X131906989Y-106356011D02*
X132150000Y-106113000D01*
X132530591Y-117164755D02*
X132459836Y-117094000D01*
D29*
X127254000Y-112367000D02*
X127254000Y-113157000D01*
X127258000Y-112363000D02*
X127254000Y-112367000D01*
X127254000Y-113157000D02*
X127254000Y-113434000D01*
X129100000Y-112363000D02*
X127258000Y-112363000D01*
X127254000Y-113157000D02*
X127254000Y-113639500D01*
D30*
X129174000Y-104521000D02*
X130550000Y-105897000D01*
X130550000Y-105897000D02*
X130550000Y-106113000D01*
M02*
