G04 #@! TF.GenerationSoftware,KiCad,Pcbnew,(5.1.10-1-10_14)*
G04 #@! TF.CreationDate,2021-12-19T23:04:46+01:00*
G04 #@! TF.ProjectId,7segment,37736567-6d65-46e7-942e-6b696361645f,rev?*
G04 #@! TF.SameCoordinates,Original*
G04 #@! TF.FileFunction,Soldermask,Top*
G04 #@! TF.FilePolarity,Negative*
%FSLAX46Y46*%
G04 Gerber Fmt 4.6, Leading zero omitted, Abs format (unit mm)*
G04 Created by KiCad (PCBNEW (5.1.10-1-10_14)) date 2021-12-19 23:04:46*
%MOMM*%
%LPD*%
G01*
G04 APERTURE LIST*
%ADD10O,1.801600X1.801600*%
%ADD11C,1.801600*%
G04 APERTURE END LIST*
D10*
X121920000Y-104140000D03*
X121920000Y-106680000D03*
X121920000Y-109220000D03*
X121920000Y-111760000D03*
X121920000Y-114300000D03*
X121920000Y-116840000D03*
X121920000Y-119380000D03*
X121920000Y-121920000D03*
X121920000Y-124460000D03*
G36*
G01*
X121019200Y-127850000D02*
X121019200Y-126150000D01*
G75*
G02*
X121070000Y-126099200I50800J0D01*
G01*
X122770000Y-126099200D01*
G75*
G02*
X122820800Y-126150000I0J-50800D01*
G01*
X122820800Y-127850000D01*
G75*
G02*
X122770000Y-127900800I-50800J0D01*
G01*
X121070000Y-127900800D01*
G75*
G02*
X121019200Y-127850000I0J50800D01*
G01*
G37*
G36*
G01*
X136485200Y-111871976D02*
X136485200Y-110559452D01*
G75*
G02*
X136754738Y-110289914I269538J0D01*
G01*
X137617262Y-110289914D01*
G75*
G02*
X137886800Y-110559452I0J-269538D01*
G01*
X137886800Y-111871976D01*
G75*
G02*
X137617262Y-112141514I-269538J0D01*
G01*
X136754738Y-112141514D01*
G75*
G02*
X136485200Y-111871976I0J269538D01*
G01*
G37*
G36*
G01*
X133385200Y-111871976D02*
X133385200Y-110559452D01*
G75*
G02*
X133654738Y-110289914I269538J0D01*
G01*
X134517262Y-110289914D01*
G75*
G02*
X134786800Y-110559452I0J-269538D01*
G01*
X134786800Y-111871976D01*
G75*
G02*
X134517262Y-112141514I-269538J0D01*
G01*
X133654738Y-112141514D01*
G75*
G02*
X133385200Y-111871976I0J269538D01*
G01*
G37*
G36*
G01*
X136485200Y-120580547D02*
X136485200Y-119268023D01*
G75*
G02*
X136754738Y-118998485I269538J0D01*
G01*
X137617262Y-118998485D01*
G75*
G02*
X137886800Y-119268023I0J-269538D01*
G01*
X137886800Y-120580547D01*
G75*
G02*
X137617262Y-120850085I-269538J0D01*
G01*
X136754738Y-120850085D01*
G75*
G02*
X136485200Y-120580547I0J269538D01*
G01*
G37*
G36*
G01*
X133385200Y-120580547D02*
X133385200Y-119268023D01*
G75*
G02*
X133654738Y-118998485I269538J0D01*
G01*
X134517262Y-118998485D01*
G75*
G02*
X134786800Y-119268023I0J-269538D01*
G01*
X134786800Y-120580547D01*
G75*
G02*
X134517262Y-120850085I-269538J0D01*
G01*
X133654738Y-120850085D01*
G75*
G02*
X133385200Y-120580547I0J269538D01*
G01*
G37*
G36*
G01*
X134786800Y-104753738D02*
X134786800Y-106066262D01*
G75*
G02*
X134517262Y-106335800I-269538J0D01*
G01*
X133654738Y-106335800D01*
G75*
G02*
X133385200Y-106066262I0J269538D01*
G01*
X133385200Y-104753738D01*
G75*
G02*
X133654738Y-104484200I269538J0D01*
G01*
X134517262Y-104484200D01*
G75*
G02*
X134786800Y-104753738I0J-269538D01*
G01*
G37*
G36*
G01*
X137886800Y-104753738D02*
X137886800Y-106066262D01*
G75*
G02*
X137617262Y-106335800I-269538J0D01*
G01*
X136754738Y-106335800D01*
G75*
G02*
X136485200Y-106066262I0J269538D01*
G01*
X136485200Y-104753738D01*
G75*
G02*
X136754738Y-104484200I269538J0D01*
G01*
X137617262Y-104484200D01*
G75*
G02*
X137886800Y-104753738I0J-269538D01*
G01*
G37*
G36*
G01*
X136485200Y-114774833D02*
X136485200Y-113462309D01*
G75*
G02*
X136754738Y-113192771I269538J0D01*
G01*
X137617262Y-113192771D01*
G75*
G02*
X137886800Y-113462309I0J-269538D01*
G01*
X137886800Y-114774833D01*
G75*
G02*
X137617262Y-115044371I-269538J0D01*
G01*
X136754738Y-115044371D01*
G75*
G02*
X136485200Y-114774833I0J269538D01*
G01*
G37*
G36*
G01*
X133385200Y-114774833D02*
X133385200Y-113462309D01*
G75*
G02*
X133654738Y-113192771I269538J0D01*
G01*
X134517262Y-113192771D01*
G75*
G02*
X134786800Y-113462309I0J-269538D01*
G01*
X134786800Y-114774833D01*
G75*
G02*
X134517262Y-115044371I-269538J0D01*
G01*
X133654738Y-115044371D01*
G75*
G02*
X133385200Y-114774833I0J269538D01*
G01*
G37*
G36*
G01*
X136485200Y-117677690D02*
X136485200Y-116365166D01*
G75*
G02*
X136754738Y-116095628I269538J0D01*
G01*
X137617262Y-116095628D01*
G75*
G02*
X137886800Y-116365166I0J-269538D01*
G01*
X137886800Y-117677690D01*
G75*
G02*
X137617262Y-117947228I-269538J0D01*
G01*
X136754738Y-117947228D01*
G75*
G02*
X136485200Y-117677690I0J269538D01*
G01*
G37*
G36*
G01*
X133385200Y-117677690D02*
X133385200Y-116365166D01*
G75*
G02*
X133654738Y-116095628I269538J0D01*
G01*
X134517262Y-116095628D01*
G75*
G02*
X134786800Y-116365166I0J-269538D01*
G01*
X134786800Y-117677690D01*
G75*
G02*
X134517262Y-117947228I-269538J0D01*
G01*
X133654738Y-117947228D01*
G75*
G02*
X133385200Y-117677690I0J269538D01*
G01*
G37*
G36*
G01*
X136485200Y-108969119D02*
X136485200Y-107656595D01*
G75*
G02*
X136754738Y-107387057I269538J0D01*
G01*
X137617262Y-107387057D01*
G75*
G02*
X137886800Y-107656595I0J-269538D01*
G01*
X137886800Y-108969119D01*
G75*
G02*
X137617262Y-109238657I-269538J0D01*
G01*
X136754738Y-109238657D01*
G75*
G02*
X136485200Y-108969119I0J269538D01*
G01*
G37*
G36*
G01*
X133385200Y-108969119D02*
X133385200Y-107656595D01*
G75*
G02*
X133654738Y-107387057I269538J0D01*
G01*
X134517262Y-107387057D01*
G75*
G02*
X134786800Y-107656595I0J-269538D01*
G01*
X134786800Y-108969119D01*
G75*
G02*
X134517262Y-109238657I-269538J0D01*
G01*
X133654738Y-109238657D01*
G75*
G02*
X133385200Y-108969119I0J269538D01*
G01*
G37*
G36*
G01*
X134786800Y-125073738D02*
X134786800Y-126386262D01*
G75*
G02*
X134517262Y-126655800I-269538J0D01*
G01*
X133654738Y-126655800D01*
G75*
G02*
X133385200Y-126386262I0J269538D01*
G01*
X133385200Y-125073738D01*
G75*
G02*
X133654738Y-124804200I269538J0D01*
G01*
X134517262Y-124804200D01*
G75*
G02*
X134786800Y-125073738I0J-269538D01*
G01*
G37*
G36*
G01*
X137886800Y-125073738D02*
X137886800Y-126386262D01*
G75*
G02*
X137617262Y-126655800I-269538J0D01*
G01*
X136754738Y-126655800D01*
G75*
G02*
X136485200Y-126386262I0J269538D01*
G01*
X136485200Y-125073738D01*
G75*
G02*
X136754738Y-124804200I269538J0D01*
G01*
X137617262Y-124804200D01*
G75*
G02*
X137886800Y-125073738I0J-269538D01*
G01*
G37*
G36*
G01*
X134786800Y-122170880D02*
X134786800Y-123483404D01*
G75*
G02*
X134517262Y-123752942I-269538J0D01*
G01*
X133654738Y-123752942D01*
G75*
G02*
X133385200Y-123483404I0J269538D01*
G01*
X133385200Y-122170880D01*
G75*
G02*
X133654738Y-121901342I269538J0D01*
G01*
X134517262Y-121901342D01*
G75*
G02*
X134786800Y-122170880I0J-269538D01*
G01*
G37*
G36*
G01*
X137886800Y-122170880D02*
X137886800Y-123483404D01*
G75*
G02*
X137617262Y-123752942I-269538J0D01*
G01*
X136754738Y-123752942D01*
G75*
G02*
X136485200Y-123483404I0J269538D01*
G01*
X136485200Y-122170880D01*
G75*
G02*
X136754738Y-121901342I269538J0D01*
G01*
X137617262Y-121901342D01*
G75*
G02*
X137886800Y-122170880I0J-269538D01*
G01*
G37*
X128524000Y-126873000D03*
X131064000Y-126873000D03*
X128524000Y-124333000D03*
X131064000Y-124333000D03*
X128524000Y-121793000D03*
G36*
G01*
X131964800Y-120943000D02*
X131964800Y-122643000D01*
G75*
G02*
X131914000Y-122693800I-50800J0D01*
G01*
X130214000Y-122693800D01*
G75*
G02*
X130163200Y-122643000I0J50800D01*
G01*
X130163200Y-120943000D01*
G75*
G02*
X130214000Y-120892200I50800J0D01*
G01*
X131914000Y-120892200D01*
G75*
G02*
X131964800Y-120943000I0J-50800D01*
G01*
G37*
D11*
X140970000Y-105410000D03*
X140970000Y-107950000D03*
X140970000Y-110490000D03*
X140970000Y-113030000D03*
X140970000Y-115570000D03*
X140970000Y-118110000D03*
X140970000Y-120650000D03*
X140970000Y-123190000D03*
X140970000Y-125730000D03*
X125730000Y-125730000D03*
X125730000Y-123190000D03*
X125730000Y-120650000D03*
X125730000Y-118110000D03*
X125730000Y-115570000D03*
X125730000Y-113030000D03*
X125730000Y-110490000D03*
X125730000Y-107950000D03*
G36*
G01*
X124929200Y-106160000D02*
X124929200Y-104660000D01*
G75*
G02*
X124980000Y-104609200I50800J0D01*
G01*
X126480000Y-104609200D01*
G75*
G02*
X126530800Y-104660000I0J-50800D01*
G01*
X126530800Y-106160000D01*
G75*
G02*
X126480000Y-106210800I-50800J0D01*
G01*
X124980000Y-106210800D01*
G75*
G02*
X124929200Y-106160000I0J50800D01*
G01*
G37*
M02*
