G04 #@! TF.GenerationSoftware,KiCad,Pcbnew,(5.1.10-1-10_14)*
G04 #@! TF.CreationDate,2021-12-19T23:04:46+01:00*
G04 #@! TF.ProjectId,7segment,37736567-6d65-46e7-942e-6b696361645f,rev?*
G04 #@! TF.SameCoordinates,Original*
G04 #@! TF.FileFunction,Paste,Bot*
G04 #@! TF.FilePolarity,Positive*
%FSLAX46Y46*%
G04 Gerber Fmt 4.6, Leading zero omitted, Abs format (unit mm)*
G04 Created by KiCad (PCBNEW (5.1.10-1-10_14)) date 2021-12-19 23:04:46*
%MOMM*%
%LPD*%
G01*
G04 APERTURE LIST*
%ADD10R,0.500000X0.500000*%
%ADD11R,1.600000X0.550000*%
%ADD12R,0.550000X1.600000*%
%ADD13R,0.900000X0.800000*%
%ADD14R,1.000000X2.510000*%
G04 APERTURE END LIST*
G36*
G01*
X126997750Y-114777000D02*
X127510250Y-114777000D01*
G75*
G02*
X127729000Y-114995750I0J-218750D01*
G01*
X127729000Y-115433250D01*
G75*
G02*
X127510250Y-115652000I-218750J0D01*
G01*
X126997750Y-115652000D01*
G75*
G02*
X126779000Y-115433250I0J218750D01*
G01*
X126779000Y-114995750D01*
G75*
G02*
X126997750Y-114777000I218750J0D01*
G01*
G37*
G36*
G01*
X126997750Y-113202000D02*
X127510250Y-113202000D01*
G75*
G02*
X127729000Y-113420750I0J-218750D01*
G01*
X127729000Y-113858250D01*
G75*
G02*
X127510250Y-114077000I-218750J0D01*
G01*
X126997750Y-114077000D01*
G75*
G02*
X126779000Y-113858250I0J218750D01*
G01*
X126779000Y-113420750D01*
G75*
G02*
X126997750Y-113202000I218750J0D01*
G01*
G37*
G36*
G01*
X127424000Y-111687000D02*
X127084000Y-111687000D01*
G75*
G02*
X126944000Y-111547000I0J140000D01*
G01*
X126944000Y-111267000D01*
G75*
G02*
X127084000Y-111127000I140000J0D01*
G01*
X127424000Y-111127000D01*
G75*
G02*
X127564000Y-111267000I0J-140000D01*
G01*
X127564000Y-111547000D01*
G75*
G02*
X127424000Y-111687000I-140000J0D01*
G01*
G37*
G36*
G01*
X127424000Y-112647000D02*
X127084000Y-112647000D01*
G75*
G02*
X126944000Y-112507000I0J140000D01*
G01*
X126944000Y-112227000D01*
G75*
G02*
X127084000Y-112087000I140000J0D01*
G01*
X127424000Y-112087000D01*
G75*
G02*
X127564000Y-112227000I0J-140000D01*
G01*
X127564000Y-112507000D01*
G75*
G02*
X127424000Y-112647000I-140000J0D01*
G01*
G37*
D10*
X137076000Y-104521000D03*
X139276000Y-104521000D03*
G36*
G01*
X136977000Y-116963000D02*
X136977000Y-116463000D01*
G75*
G02*
X137202000Y-116238000I225000J0D01*
G01*
X137652000Y-116238000D01*
G75*
G02*
X137877000Y-116463000I0J-225000D01*
G01*
X137877000Y-116963000D01*
G75*
G02*
X137652000Y-117188000I-225000J0D01*
G01*
X137202000Y-117188000D01*
G75*
G02*
X136977000Y-116963000I0J225000D01*
G01*
G37*
G36*
G01*
X135427000Y-116963000D02*
X135427000Y-116463000D01*
G75*
G02*
X135652000Y-116238000I225000J0D01*
G01*
X136102000Y-116238000D01*
G75*
G02*
X136327000Y-116463000I0J-225000D01*
G01*
X136327000Y-116963000D01*
G75*
G02*
X136102000Y-117188000I-225000J0D01*
G01*
X135652000Y-117188000D01*
G75*
G02*
X135427000Y-116963000I0J225000D01*
G01*
G37*
D11*
X137600000Y-107563000D03*
X137600000Y-108363000D03*
X137600000Y-109163000D03*
X137600000Y-109963000D03*
X137600000Y-110763000D03*
X137600000Y-111563000D03*
X137600000Y-112363000D03*
X137600000Y-113163000D03*
D12*
X136150000Y-114613000D03*
X135350000Y-114613000D03*
X134550000Y-114613000D03*
X133750000Y-114613000D03*
X132950000Y-114613000D03*
X132150000Y-114613000D03*
X131350000Y-114613000D03*
X130550000Y-114613000D03*
D11*
X129100000Y-113163000D03*
X129100000Y-112363000D03*
X129100000Y-111563000D03*
X129100000Y-110763000D03*
X129100000Y-109963000D03*
X129100000Y-109163000D03*
X129100000Y-108363000D03*
X129100000Y-107563000D03*
D12*
X130550000Y-106113000D03*
X131350000Y-106113000D03*
X132150000Y-106113000D03*
X132950000Y-106113000D03*
X133750000Y-106113000D03*
X134550000Y-106113000D03*
X135350000Y-106113000D03*
X136150000Y-106113000D03*
G36*
G01*
X132983000Y-104209000D02*
X132983000Y-104579000D01*
G75*
G02*
X132848000Y-104714000I-135000J0D01*
G01*
X132578000Y-104714000D01*
G75*
G02*
X132443000Y-104579000I0J135000D01*
G01*
X132443000Y-104209000D01*
G75*
G02*
X132578000Y-104074000I135000J0D01*
G01*
X132848000Y-104074000D01*
G75*
G02*
X132983000Y-104209000I0J-135000D01*
G01*
G37*
G36*
G01*
X134003000Y-104209000D02*
X134003000Y-104579000D01*
G75*
G02*
X133868000Y-104714000I-135000J0D01*
G01*
X133598000Y-104714000D01*
G75*
G02*
X133463000Y-104579000I0J135000D01*
G01*
X133463000Y-104209000D01*
G75*
G02*
X133598000Y-104074000I135000J0D01*
G01*
X133868000Y-104074000D01*
G75*
G02*
X134003000Y-104209000I0J-135000D01*
G01*
G37*
G36*
G01*
X135455000Y-104564000D02*
X135455000Y-104224000D01*
G75*
G02*
X135595000Y-104084000I140000J0D01*
G01*
X135875000Y-104084000D01*
G75*
G02*
X136015000Y-104224000I0J-140000D01*
G01*
X136015000Y-104564000D01*
G75*
G02*
X135875000Y-104704000I-140000J0D01*
G01*
X135595000Y-104704000D01*
G75*
G02*
X135455000Y-104564000I0J140000D01*
G01*
G37*
G36*
G01*
X134495000Y-104564000D02*
X134495000Y-104224000D01*
G75*
G02*
X134635000Y-104084000I140000J0D01*
G01*
X134915000Y-104084000D01*
G75*
G02*
X135055000Y-104224000I0J-140000D01*
G01*
X135055000Y-104564000D01*
G75*
G02*
X134915000Y-104704000I-140000J0D01*
G01*
X134635000Y-104704000D01*
G75*
G02*
X134495000Y-104564000I0J140000D01*
G01*
G37*
G36*
G01*
X139489000Y-111179000D02*
X139149000Y-111179000D01*
G75*
G02*
X139009000Y-111039000I0J140000D01*
G01*
X139009000Y-110759000D01*
G75*
G02*
X139149000Y-110619000I140000J0D01*
G01*
X139489000Y-110619000D01*
G75*
G02*
X139629000Y-110759000I0J-140000D01*
G01*
X139629000Y-111039000D01*
G75*
G02*
X139489000Y-111179000I-140000J0D01*
G01*
G37*
G36*
G01*
X139489000Y-112139000D02*
X139149000Y-112139000D01*
G75*
G02*
X139009000Y-111999000I0J140000D01*
G01*
X139009000Y-111719000D01*
G75*
G02*
X139149000Y-111579000I140000J0D01*
G01*
X139489000Y-111579000D01*
G75*
G02*
X139629000Y-111719000I0J-140000D01*
G01*
X139629000Y-111999000D01*
G75*
G02*
X139489000Y-112139000I-140000J0D01*
G01*
G37*
G36*
G01*
X131503000Y-118632000D02*
X131133000Y-118632000D01*
G75*
G02*
X130998000Y-118497000I0J135000D01*
G01*
X130998000Y-118227000D01*
G75*
G02*
X131133000Y-118092000I135000J0D01*
G01*
X131503000Y-118092000D01*
G75*
G02*
X131638000Y-118227000I0J-135000D01*
G01*
X131638000Y-118497000D01*
G75*
G02*
X131503000Y-118632000I-135000J0D01*
G01*
G37*
G36*
G01*
X131503000Y-119652000D02*
X131133000Y-119652000D01*
G75*
G02*
X130998000Y-119517000I0J135000D01*
G01*
X130998000Y-119247000D01*
G75*
G02*
X131133000Y-119112000I135000J0D01*
G01*
X131503000Y-119112000D01*
G75*
G02*
X131638000Y-119247000I0J-135000D01*
G01*
X131638000Y-119517000D01*
G75*
G02*
X131503000Y-119652000I-135000J0D01*
G01*
G37*
G36*
G01*
X129217000Y-118632000D02*
X128847000Y-118632000D01*
G75*
G02*
X128712000Y-118497000I0J135000D01*
G01*
X128712000Y-118227000D01*
G75*
G02*
X128847000Y-118092000I135000J0D01*
G01*
X129217000Y-118092000D01*
G75*
G02*
X129352000Y-118227000I0J-135000D01*
G01*
X129352000Y-118497000D01*
G75*
G02*
X129217000Y-118632000I-135000J0D01*
G01*
G37*
G36*
G01*
X129217000Y-119652000D02*
X128847000Y-119652000D01*
G75*
G02*
X128712000Y-119517000I0J135000D01*
G01*
X128712000Y-119247000D01*
G75*
G02*
X128847000Y-119112000I135000J0D01*
G01*
X129217000Y-119112000D01*
G75*
G02*
X129352000Y-119247000I0J-135000D01*
G01*
X129352000Y-119517000D01*
G75*
G02*
X129217000Y-119652000I-135000J0D01*
G01*
G37*
G36*
G01*
X129217000Y-116600000D02*
X128847000Y-116600000D01*
G75*
G02*
X128712000Y-116465000I0J135000D01*
G01*
X128712000Y-116195000D01*
G75*
G02*
X128847000Y-116060000I135000J0D01*
G01*
X129217000Y-116060000D01*
G75*
G02*
X129352000Y-116195000I0J-135000D01*
G01*
X129352000Y-116465000D01*
G75*
G02*
X129217000Y-116600000I-135000J0D01*
G01*
G37*
G36*
G01*
X129217000Y-117620000D02*
X128847000Y-117620000D01*
G75*
G02*
X128712000Y-117485000I0J135000D01*
G01*
X128712000Y-117215000D01*
G75*
G02*
X128847000Y-117080000I135000J0D01*
G01*
X129217000Y-117080000D01*
G75*
G02*
X129352000Y-117215000I0J-135000D01*
G01*
X129352000Y-117485000D01*
G75*
G02*
X129217000Y-117620000I-135000J0D01*
G01*
G37*
G36*
G01*
X130360000Y-116600000D02*
X129990000Y-116600000D01*
G75*
G02*
X129855000Y-116465000I0J135000D01*
G01*
X129855000Y-116195000D01*
G75*
G02*
X129990000Y-116060000I135000J0D01*
G01*
X130360000Y-116060000D01*
G75*
G02*
X130495000Y-116195000I0J-135000D01*
G01*
X130495000Y-116465000D01*
G75*
G02*
X130360000Y-116600000I-135000J0D01*
G01*
G37*
G36*
G01*
X130360000Y-117620000D02*
X129990000Y-117620000D01*
G75*
G02*
X129855000Y-117485000I0J135000D01*
G01*
X129855000Y-117215000D01*
G75*
G02*
X129990000Y-117080000I135000J0D01*
G01*
X130360000Y-117080000D01*
G75*
G02*
X130495000Y-117215000I0J-135000D01*
G01*
X130495000Y-117485000D01*
G75*
G02*
X130360000Y-117620000I-135000J0D01*
G01*
G37*
G36*
G01*
X131503000Y-116600000D02*
X131133000Y-116600000D01*
G75*
G02*
X130998000Y-116465000I0J135000D01*
G01*
X130998000Y-116195000D01*
G75*
G02*
X131133000Y-116060000I135000J0D01*
G01*
X131503000Y-116060000D01*
G75*
G02*
X131638000Y-116195000I0J-135000D01*
G01*
X131638000Y-116465000D01*
G75*
G02*
X131503000Y-116600000I-135000J0D01*
G01*
G37*
G36*
G01*
X131503000Y-117620000D02*
X131133000Y-117620000D01*
G75*
G02*
X130998000Y-117485000I0J135000D01*
G01*
X130998000Y-117215000D01*
G75*
G02*
X131133000Y-117080000I135000J0D01*
G01*
X131503000Y-117080000D01*
G75*
G02*
X131638000Y-117215000I0J-135000D01*
G01*
X131638000Y-117485000D01*
G75*
G02*
X131503000Y-117620000I-135000J0D01*
G01*
G37*
D13*
X139049000Y-124841000D03*
X137049000Y-123891000D03*
X137049000Y-125791000D03*
G36*
G01*
X127424000Y-109528000D02*
X127084000Y-109528000D01*
G75*
G02*
X126944000Y-109388000I0J140000D01*
G01*
X126944000Y-109108000D01*
G75*
G02*
X127084000Y-108968000I140000J0D01*
G01*
X127424000Y-108968000D01*
G75*
G02*
X127564000Y-109108000I0J-140000D01*
G01*
X127564000Y-109388000D01*
G75*
G02*
X127424000Y-109528000I-140000J0D01*
G01*
G37*
G36*
G01*
X127424000Y-110488000D02*
X127084000Y-110488000D01*
G75*
G02*
X126944000Y-110348000I0J140000D01*
G01*
X126944000Y-110068000D01*
G75*
G02*
X127084000Y-109928000I140000J0D01*
G01*
X127424000Y-109928000D01*
G75*
G02*
X127564000Y-110068000I0J-140000D01*
G01*
X127564000Y-110348000D01*
G75*
G02*
X127424000Y-110488000I-140000J0D01*
G01*
G37*
G36*
G01*
X139489000Y-109274000D02*
X139149000Y-109274000D01*
G75*
G02*
X139009000Y-109134000I0J140000D01*
G01*
X139009000Y-108854000D01*
G75*
G02*
X139149000Y-108714000I140000J0D01*
G01*
X139489000Y-108714000D01*
G75*
G02*
X139629000Y-108854000I0J-140000D01*
G01*
X139629000Y-109134000D01*
G75*
G02*
X139489000Y-109274000I-140000J0D01*
G01*
G37*
G36*
G01*
X139489000Y-110234000D02*
X139149000Y-110234000D01*
G75*
G02*
X139009000Y-110094000I0J140000D01*
G01*
X139009000Y-109814000D01*
G75*
G02*
X139149000Y-109674000I140000J0D01*
G01*
X139489000Y-109674000D01*
G75*
G02*
X139629000Y-109814000I0J-140000D01*
G01*
X139629000Y-110094000D01*
G75*
G02*
X139489000Y-110234000I-140000J0D01*
G01*
G37*
D14*
X136740000Y-121035000D03*
X134200000Y-117725000D03*
D13*
X134985000Y-124841000D03*
X132985000Y-123891000D03*
X132985000Y-125791000D03*
M02*
