%FSLAX45Y45*%
G04 Gerber Fmt 4.5, Leading zero omitted, Abs format (unit mm)*
G04 Created by KiCad (PCBNEW (5.1.10-1-10_14)) date 2021-12-19 23:04:49*
%MOMM*%
%LPD*%
G01*
G04 APERTURE LIST*
%TA.AperFunction,Profile*%
%ADD10C,0.050000*%
%TD*%
%ADD11C,0.200000*%
%ADD12C,0.300000*%
G04 APERTURE END LIST*
D10*
X14312900Y-12814300D02*
X12065000Y-12814300D01*
X12065000Y-12814300D02*
X12065000Y-10299700D01*
X14312900Y-10299700D02*
X14312900Y-12814300D01*
X12065000Y-10299700D02*
X14312900Y-10299700D01*
D11*
X12232800Y-11547000D02*
X12252800Y-11567000D01*
X12252800Y-11547000D02*
X12232800Y-11567000D01*
X12334400Y-11254900D02*
X12354400Y-11274900D01*
X12354400Y-11254900D02*
X12334400Y-11274900D01*
X12334400Y-11534300D02*
X12354400Y-11554300D01*
X12354400Y-11534300D02*
X12334400Y-11554300D01*
X12377998Y-11343693D02*
X12397998Y-11363693D01*
X12397998Y-11343693D02*
X12377998Y-11363693D01*
X12403699Y-11597800D02*
X12423699Y-11617800D01*
X12423699Y-11597800D02*
X12403699Y-11617800D01*
X12408093Y-11853762D02*
X12428093Y-11873762D01*
X12428093Y-11853762D02*
X12408093Y-11873762D01*
X12436000Y-11699400D02*
X12456000Y-11719400D01*
X12456000Y-11699400D02*
X12436000Y-11719400D01*
X12652170Y-10647729D02*
X12672170Y-10667729D01*
X12672170Y-10647729D02*
X12652170Y-10667729D01*
X12690000Y-11597800D02*
X12710000Y-11617800D01*
X12710000Y-11597800D02*
X12690000Y-11617800D01*
X12740800Y-11686699D02*
X12760800Y-11706699D01*
X12760800Y-11686699D02*
X12740800Y-11706699D01*
X12804640Y-11635900D02*
X12824640Y-11655900D01*
X12824640Y-11635900D02*
X12804640Y-11655900D01*
X12845803Y-11764614D02*
X12865803Y-11784614D01*
X12865803Y-11764614D02*
X12845803Y-11784614D01*
X13007500Y-11863303D02*
X13027500Y-11883303D01*
X13027500Y-11863303D02*
X13007500Y-11883303D01*
X13183028Y-11557148D02*
X13203028Y-11577148D01*
X13203028Y-11557148D02*
X13183028Y-11577148D01*
X13185300Y-11331100D02*
X13205300Y-11351100D01*
X13205300Y-11331100D02*
X13185300Y-11351100D01*
X13198059Y-11793174D02*
X13218059Y-11813174D01*
X13218059Y-11793174D02*
X13198059Y-11813174D01*
X13235984Y-11699400D02*
X13255984Y-11719400D01*
X13255984Y-11699400D02*
X13235984Y-11719400D01*
X13237692Y-10720962D02*
X13257692Y-10740962D01*
X13257692Y-10720962D02*
X13237692Y-10740962D01*
X13248800Y-10823100D02*
X13268800Y-10843100D01*
X13268800Y-10823100D02*
X13248800Y-10843100D01*
X13261500Y-12245500D02*
X13281500Y-12265500D01*
X13281500Y-12245500D02*
X13261500Y-12265500D01*
X13286902Y-11559698D02*
X13306902Y-11579698D01*
X13306902Y-11559698D02*
X13286902Y-11579698D01*
X13299600Y-10912000D02*
X13319600Y-10932000D01*
X13319600Y-10912000D02*
X13299600Y-10932000D01*
X13388690Y-11559049D02*
X13408690Y-11579049D01*
X13408690Y-11559049D02*
X13388690Y-11579049D01*
X13488905Y-11570367D02*
X13508905Y-11590367D01*
X13508905Y-11570367D02*
X13488905Y-11590367D01*
X13501143Y-10732650D02*
X13521143Y-10752650D01*
X13521143Y-10732650D02*
X13501143Y-10752650D01*
X13502800Y-11978800D02*
X13522800Y-11998800D01*
X13522800Y-11978800D02*
X13502800Y-11998800D01*
X13538468Y-10869535D02*
X13558468Y-10889535D01*
X13558468Y-10869535D02*
X13538468Y-10889535D01*
X13591700Y-10785000D02*
X13611700Y-10805000D01*
X13611700Y-10785000D02*
X13591700Y-10805000D01*
X13669065Y-11547517D02*
X13689065Y-11567517D01*
X13689065Y-11547517D02*
X13669065Y-11567517D01*
X13693300Y-10670700D02*
X13713300Y-10690700D01*
X13713300Y-10670700D02*
X13693300Y-10690700D01*
X13718700Y-11851800D02*
X13738700Y-11871800D01*
X13738700Y-11851800D02*
X13718700Y-11871800D01*
X13871100Y-10746900D02*
X13891100Y-10766900D01*
X13891100Y-10746900D02*
X13871100Y-10766900D01*
X13921900Y-11420000D02*
X13941900Y-11440000D01*
X13941900Y-11420000D02*
X13921900Y-11440000D01*
X13972700Y-11661300D02*
X13992700Y-11681300D01*
X13992700Y-11661300D02*
X13972700Y-11681300D01*
X14163200Y-11699400D02*
X14183200Y-11719400D01*
X14183200Y-11699400D02*
X14163200Y-11719400D01*
X14189798Y-11939502D02*
X14209798Y-11959502D01*
X14209798Y-11939502D02*
X14189798Y-11959502D01*
X12669200Y-11176000D02*
G75*
G03*
X12669200Y-11176000I-20000J0D01*
G01*
X12698203Y-10376805D02*
G75*
G03*
X12698203Y-10376805I-20000J0D01*
G01*
X12732700Y-12687300D02*
G75*
G03*
X12732700Y-12687300I-20000J0D01*
G01*
X12745400Y-10845800D02*
G75*
G03*
X12745400Y-10845800I-20000J0D01*
G01*
X12859700Y-11493500D02*
G75*
G03*
X12859700Y-11493500I-20000J0D01*
G01*
X12872400Y-12057429D02*
G75*
G03*
X12872400Y-12057429I-20000J0D01*
G01*
X13291500Y-10362200D02*
G75*
G03*
X13291500Y-10362200I-20000J0D01*
G01*
X13302876Y-12479099D02*
G75*
G03*
X13302876Y-12479099I-20000J0D01*
G01*
X13596300Y-10362200D02*
G75*
G03*
X13596300Y-10362200I-20000J0D01*
G01*
X13609000Y-12397107D02*
G75*
G03*
X13609000Y-12397107I-20000J0D01*
G01*
X13634400Y-11823699D02*
G75*
G03*
X13634400Y-11823699I-20000J0D01*
G01*
X13821080Y-12145118D02*
G75*
G03*
X13821080Y-12145118I-20000J0D01*
G01*
X13877426Y-11666965D02*
G75*
G03*
X13877426Y-11666965I-20000J0D01*
G01*
X13951900Y-10363200D02*
G75*
G03*
X13951900Y-10363200I-20000J0D01*
G01*
X13951900Y-10820400D02*
G75*
G03*
X13951900Y-10820400I-20000J0D01*
G01*
X13951900Y-11264900D02*
G75*
G03*
X13951900Y-11264900I-20000J0D01*
G01*
X14047027Y-10921999D02*
G75*
G03*
X14047027Y-10921999I-20000J0D01*
G01*
X14047028Y-11176000D02*
G75*
G03*
X14047028Y-11176000I-20000J0D01*
G01*
X12192000Y-10364000D02*
X12192000Y-10464000D01*
X12142000Y-10414000D02*
X12242000Y-10414000D01*
X12192000Y-10618000D02*
X12192000Y-10718000D01*
X12142000Y-10668000D02*
X12242000Y-10668000D01*
X12192000Y-10872000D02*
X12192000Y-10972000D01*
X12142000Y-10922000D02*
X12242000Y-10922000D01*
X12192000Y-11126000D02*
X12192000Y-11226000D01*
X12142000Y-11176000D02*
X12242000Y-11176000D01*
X12192000Y-11380000D02*
X12192000Y-11480000D01*
X12142000Y-11430000D02*
X12242000Y-11430000D01*
X12192000Y-11634000D02*
X12192000Y-11734000D01*
X12142000Y-11684000D02*
X12242000Y-11684000D01*
X12192000Y-11888000D02*
X12192000Y-11988000D01*
X12142000Y-11938000D02*
X12242000Y-11938000D01*
X12192000Y-12142000D02*
X12192000Y-12242000D01*
X12142000Y-12192000D02*
X12242000Y-12192000D01*
X12192000Y-12396000D02*
X12192000Y-12496000D01*
X12142000Y-12446000D02*
X12242000Y-12446000D01*
X12192000Y-12650000D02*
X12192000Y-12750000D01*
X12142000Y-12700000D02*
X12242000Y-12700000D01*
X12573000Y-10491000D02*
X12573000Y-10591000D01*
X12523000Y-10541000D02*
X12623000Y-10541000D01*
X12573000Y-10745000D02*
X12573000Y-10845000D01*
X12523000Y-10795000D02*
X12623000Y-10795000D01*
X12573000Y-10999000D02*
X12573000Y-11099000D01*
X12523000Y-11049000D02*
X12623000Y-11049000D01*
X12573000Y-11253000D02*
X12573000Y-11353000D01*
X12523000Y-11303000D02*
X12623000Y-11303000D01*
X12573000Y-11507000D02*
X12573000Y-11607000D01*
X12523000Y-11557000D02*
X12623000Y-11557000D01*
X12573000Y-11761000D02*
X12573000Y-11861000D01*
X12523000Y-11811000D02*
X12623000Y-11811000D01*
X12573000Y-12015000D02*
X12573000Y-12115000D01*
X12523000Y-12065000D02*
X12623000Y-12065000D01*
X12573000Y-12269000D02*
X12573000Y-12369000D01*
X12523000Y-12319000D02*
X12623000Y-12319000D01*
X12573000Y-12523000D02*
X12573000Y-12623000D01*
X12523000Y-12573000D02*
X12623000Y-12573000D01*
X12852400Y-12129300D02*
X12852400Y-12229300D01*
X12802400Y-12179300D02*
X12902400Y-12179300D01*
X12852400Y-12383300D02*
X12852400Y-12483300D01*
X12802400Y-12433300D02*
X12902400Y-12433300D01*
X12852400Y-12637300D02*
X12852400Y-12737300D01*
X12802400Y-12687300D02*
X12902400Y-12687300D01*
X13106400Y-12129300D02*
X13106400Y-12229300D01*
X13056400Y-12179300D02*
X13156400Y-12179300D01*
X13106400Y-12383300D02*
X13106400Y-12483300D01*
X13056400Y-12433300D02*
X13156400Y-12433300D01*
X13106400Y-12637300D02*
X13106400Y-12737300D01*
X13056400Y-12687300D02*
X13156400Y-12687300D01*
X14097000Y-10491000D02*
X14097000Y-10591000D01*
X14047000Y-10541000D02*
X14147000Y-10541000D01*
X14097000Y-10745000D02*
X14097000Y-10845000D01*
X14047000Y-10795000D02*
X14147000Y-10795000D01*
X14097000Y-10999000D02*
X14097000Y-11099000D01*
X14047000Y-11049000D02*
X14147000Y-11049000D01*
X14097000Y-11253000D02*
X14097000Y-11353000D01*
X14047000Y-11303000D02*
X14147000Y-11303000D01*
X14097000Y-11507000D02*
X14097000Y-11607000D01*
X14047000Y-11557000D02*
X14147000Y-11557000D01*
X14097000Y-11761000D02*
X14097000Y-11861000D01*
X14047000Y-11811000D02*
X14147000Y-11811000D01*
X14097000Y-12015000D02*
X14097000Y-12115000D01*
X14047000Y-12065000D02*
X14147000Y-12065000D01*
X14097000Y-12269000D02*
X14097000Y-12369000D01*
X14047000Y-12319000D02*
X14147000Y-12319000D01*
X14097000Y-12523000D02*
X14097000Y-12623000D01*
X14047000Y-12573000D02*
X14147000Y-12573000D01*
D12*
X12348928Y-13282514D02*
X12348928Y-12982514D01*
X12420357Y-12982514D01*
X12463214Y-12996800D01*
X12491786Y-13025371D01*
X12506071Y-13053943D01*
X12520357Y-13111086D01*
X12520357Y-13153943D01*
X12506071Y-13211086D01*
X12491786Y-13239657D01*
X12463214Y-13268229D01*
X12420357Y-13282514D01*
X12348928Y-13282514D01*
X12648928Y-13282514D02*
X12648928Y-13082514D01*
X12648928Y-13139657D02*
X12663214Y-13111086D01*
X12677500Y-13096800D01*
X12706071Y-13082514D01*
X12734643Y-13082514D01*
X12834643Y-13282514D02*
X12834643Y-13082514D01*
X12834643Y-12982514D02*
X12820357Y-12996800D01*
X12834643Y-13011086D01*
X12848928Y-12996800D01*
X12834643Y-12982514D01*
X12834643Y-13011086D01*
X13020357Y-13282514D02*
X12991786Y-13268229D01*
X12977500Y-13239657D01*
X12977500Y-12982514D01*
X13177500Y-13282514D02*
X13148928Y-13268229D01*
X13134643Y-13239657D01*
X13134643Y-12982514D01*
X13520357Y-13282514D02*
X13520357Y-12982514D01*
X13620357Y-13196800D01*
X13720357Y-12982514D01*
X13720357Y-13282514D01*
X13991786Y-13282514D02*
X13991786Y-13125371D01*
X13977500Y-13096800D01*
X13948928Y-13082514D01*
X13891786Y-13082514D01*
X13863214Y-13096800D01*
X13991786Y-13268229D02*
X13963214Y-13282514D01*
X13891786Y-13282514D01*
X13863214Y-13268229D01*
X13848928Y-13239657D01*
X13848928Y-13211086D01*
X13863214Y-13182514D01*
X13891786Y-13168229D01*
X13963214Y-13168229D01*
X13991786Y-13153943D01*
X14134643Y-13082514D02*
X14134643Y-13382514D01*
X14134643Y-13096800D02*
X14163214Y-13082514D01*
X14220357Y-13082514D01*
X14248928Y-13096800D01*
X14263214Y-13111086D01*
X14277500Y-13139657D01*
X14277500Y-13225371D01*
X14263214Y-13253943D01*
X14248928Y-13268229D01*
X14220357Y-13282514D01*
X14163214Y-13282514D01*
X14134643Y-13268229D01*
X14406071Y-13253943D02*
X14420357Y-13268229D01*
X14406071Y-13282514D01*
X14391786Y-13268229D01*
X14406071Y-13253943D01*
X14406071Y-13282514D01*
X14406071Y-13096800D02*
X14420357Y-13111086D01*
X14406071Y-13125371D01*
X14391786Y-13111086D01*
X14406071Y-13096800D01*
X14406071Y-13125371D01*
X12042500Y-13766800D02*
X12062500Y-13786800D01*
X12062500Y-13766800D02*
X12042500Y-13786800D01*
X12406071Y-13612514D02*
X12434643Y-13612514D01*
X12463214Y-13626800D01*
X12477500Y-13641086D01*
X12491786Y-13669657D01*
X12506071Y-13726800D01*
X12506071Y-13798229D01*
X12491786Y-13855371D01*
X12477500Y-13883943D01*
X12463214Y-13898229D01*
X12434643Y-13912514D01*
X12406071Y-13912514D01*
X12377500Y-13898229D01*
X12363214Y-13883943D01*
X12348928Y-13855371D01*
X12334643Y-13798229D01*
X12334643Y-13726800D01*
X12348928Y-13669657D01*
X12363214Y-13641086D01*
X12377500Y-13626800D01*
X12406071Y-13612514D01*
X12634643Y-13883943D02*
X12648928Y-13898229D01*
X12634643Y-13912514D01*
X12620357Y-13898229D01*
X12634643Y-13883943D01*
X12634643Y-13912514D01*
X12763214Y-13641086D02*
X12777500Y-13626800D01*
X12806071Y-13612514D01*
X12877500Y-13612514D01*
X12906071Y-13626800D01*
X12920357Y-13641086D01*
X12934643Y-13669657D01*
X12934643Y-13698229D01*
X12920357Y-13741086D01*
X12748928Y-13912514D01*
X12934643Y-13912514D01*
X13120357Y-13612514D02*
X13148928Y-13612514D01*
X13177500Y-13626800D01*
X13191786Y-13641086D01*
X13206071Y-13669657D01*
X13220357Y-13726800D01*
X13220357Y-13798229D01*
X13206071Y-13855371D01*
X13191786Y-13883943D01*
X13177500Y-13898229D01*
X13148928Y-13912514D01*
X13120357Y-13912514D01*
X13091786Y-13898229D01*
X13077500Y-13883943D01*
X13063214Y-13855371D01*
X13048928Y-13798229D01*
X13048928Y-13726800D01*
X13063214Y-13669657D01*
X13077500Y-13641086D01*
X13091786Y-13626800D01*
X13120357Y-13612514D01*
X13406071Y-13612514D02*
X13434643Y-13612514D01*
X13463214Y-13626800D01*
X13477500Y-13641086D01*
X13491786Y-13669657D01*
X13506071Y-13726800D01*
X13506071Y-13798229D01*
X13491786Y-13855371D01*
X13477500Y-13883943D01*
X13463214Y-13898229D01*
X13434643Y-13912514D01*
X13406071Y-13912514D01*
X13377500Y-13898229D01*
X13363214Y-13883943D01*
X13348928Y-13855371D01*
X13334643Y-13798229D01*
X13334643Y-13726800D01*
X13348928Y-13669657D01*
X13363214Y-13641086D01*
X13377500Y-13626800D01*
X13406071Y-13612514D01*
X13634643Y-13912514D02*
X13634643Y-13712514D01*
X13634643Y-13741086D02*
X13648928Y-13726800D01*
X13677500Y-13712514D01*
X13720357Y-13712514D01*
X13748928Y-13726800D01*
X13763214Y-13755371D01*
X13763214Y-13912514D01*
X13763214Y-13755371D02*
X13777500Y-13726800D01*
X13806071Y-13712514D01*
X13848928Y-13712514D01*
X13877500Y-13726800D01*
X13891786Y-13755371D01*
X13891786Y-13912514D01*
X14034643Y-13912514D02*
X14034643Y-13712514D01*
X14034643Y-13741086D02*
X14048928Y-13726800D01*
X14077500Y-13712514D01*
X14120357Y-13712514D01*
X14148928Y-13726800D01*
X14163214Y-13755371D01*
X14163214Y-13912514D01*
X14163214Y-13755371D02*
X14177500Y-13726800D01*
X14206071Y-13712514D01*
X14248928Y-13712514D01*
X14277500Y-13726800D01*
X14291786Y-13755371D01*
X14291786Y-13912514D01*
X14877500Y-13598229D02*
X14620357Y-13983943D01*
X15263214Y-13612514D02*
X15291786Y-13612514D01*
X15320357Y-13626800D01*
X15334643Y-13641086D01*
X15348928Y-13669657D01*
X15363214Y-13726800D01*
X15363214Y-13798229D01*
X15348928Y-13855371D01*
X15334643Y-13883943D01*
X15320357Y-13898229D01*
X15291786Y-13912514D01*
X15263214Y-13912514D01*
X15234643Y-13898229D01*
X15220357Y-13883943D01*
X15206071Y-13855371D01*
X15191786Y-13798229D01*
X15191786Y-13726800D01*
X15206071Y-13669657D01*
X15220357Y-13641086D01*
X15234643Y-13626800D01*
X15263214Y-13612514D01*
X15491786Y-13883943D02*
X15506071Y-13898229D01*
X15491786Y-13912514D01*
X15477500Y-13898229D01*
X15491786Y-13883943D01*
X15491786Y-13912514D01*
X15691786Y-13612514D02*
X15720357Y-13612514D01*
X15748928Y-13626800D01*
X15763214Y-13641086D01*
X15777500Y-13669657D01*
X15791786Y-13726800D01*
X15791786Y-13798229D01*
X15777500Y-13855371D01*
X15763214Y-13883943D01*
X15748928Y-13898229D01*
X15720357Y-13912514D01*
X15691786Y-13912514D01*
X15663214Y-13898229D01*
X15648928Y-13883943D01*
X15634643Y-13855371D01*
X15620357Y-13798229D01*
X15620357Y-13726800D01*
X15634643Y-13669657D01*
X15648928Y-13641086D01*
X15663214Y-13626800D01*
X15691786Y-13612514D01*
X15977500Y-13612514D02*
X16006071Y-13612514D01*
X16034643Y-13626800D01*
X16048928Y-13641086D01*
X16063214Y-13669657D01*
X16077500Y-13726800D01*
X16077500Y-13798229D01*
X16063214Y-13855371D01*
X16048928Y-13883943D01*
X16034643Y-13898229D01*
X16006071Y-13912514D01*
X15977500Y-13912514D01*
X15948928Y-13898229D01*
X15934643Y-13883943D01*
X15920357Y-13855371D01*
X15906071Y-13798229D01*
X15906071Y-13726800D01*
X15920357Y-13669657D01*
X15934643Y-13641086D01*
X15948928Y-13626800D01*
X15977500Y-13612514D01*
X16177500Y-13612514D02*
X16377500Y-13612514D01*
X16248928Y-13912514D01*
X16506071Y-13912514D02*
X16563214Y-13912514D01*
X16591786Y-13898229D01*
X16606071Y-13883943D01*
X16634643Y-13841086D01*
X16648928Y-13783943D01*
X16648928Y-13669657D01*
X16634643Y-13641086D01*
X16620357Y-13626800D01*
X16591786Y-13612514D01*
X16534643Y-13612514D01*
X16506071Y-13626800D01*
X16491786Y-13641086D01*
X16477500Y-13669657D01*
X16477500Y-13741086D01*
X16491786Y-13769657D01*
X16506071Y-13783943D01*
X16534643Y-13798229D01*
X16591786Y-13798229D01*
X16620357Y-13783943D01*
X16634643Y-13769657D01*
X16648928Y-13741086D01*
X16763214Y-13612514D02*
X16763214Y-13669657D01*
X16877500Y-13612514D02*
X16877500Y-13669657D01*
X17320357Y-14026800D02*
X17306071Y-14012514D01*
X17277500Y-13969657D01*
X17263214Y-13941086D01*
X17248928Y-13898229D01*
X17234643Y-13826800D01*
X17234643Y-13769657D01*
X17248928Y-13698229D01*
X17263214Y-13655371D01*
X17277500Y-13626800D01*
X17306071Y-13583943D01*
X17320357Y-13569657D01*
X17406071Y-13612514D02*
X17591786Y-13612514D01*
X17491786Y-13726800D01*
X17534643Y-13726800D01*
X17563214Y-13741086D01*
X17577500Y-13755371D01*
X17591786Y-13783943D01*
X17591786Y-13855371D01*
X17577500Y-13883943D01*
X17563214Y-13898229D01*
X17534643Y-13912514D01*
X17448928Y-13912514D01*
X17420357Y-13898229D01*
X17406071Y-13883943D01*
X17848928Y-13612514D02*
X17791786Y-13612514D01*
X17763214Y-13626800D01*
X17748928Y-13641086D01*
X17720357Y-13683943D01*
X17706071Y-13741086D01*
X17706071Y-13855371D01*
X17720357Y-13883943D01*
X17734643Y-13898229D01*
X17763214Y-13912514D01*
X17820357Y-13912514D01*
X17848928Y-13898229D01*
X17863214Y-13883943D01*
X17877500Y-13855371D01*
X17877500Y-13783943D01*
X17863214Y-13755371D01*
X17848928Y-13741086D01*
X17820357Y-13726800D01*
X17763214Y-13726800D01*
X17734643Y-13741086D01*
X17720357Y-13755371D01*
X17706071Y-13783943D01*
X18234643Y-13912514D02*
X18234643Y-13612514D01*
X18363214Y-13912514D02*
X18363214Y-13755371D01*
X18348928Y-13726800D01*
X18320357Y-13712514D01*
X18277500Y-13712514D01*
X18248928Y-13726800D01*
X18234643Y-13741086D01*
X18548928Y-13912514D02*
X18520357Y-13898229D01*
X18506071Y-13883943D01*
X18491786Y-13855371D01*
X18491786Y-13769657D01*
X18506071Y-13741086D01*
X18520357Y-13726800D01*
X18548928Y-13712514D01*
X18591786Y-13712514D01*
X18620357Y-13726800D01*
X18634643Y-13741086D01*
X18648928Y-13769657D01*
X18648928Y-13855371D01*
X18634643Y-13883943D01*
X18620357Y-13898229D01*
X18591786Y-13912514D01*
X18548928Y-13912514D01*
X18820357Y-13912514D02*
X18791786Y-13898229D01*
X18777500Y-13869657D01*
X18777500Y-13612514D01*
X19048928Y-13898229D02*
X19020357Y-13912514D01*
X18963214Y-13912514D01*
X18934643Y-13898229D01*
X18920357Y-13869657D01*
X18920357Y-13755371D01*
X18934643Y-13726800D01*
X18963214Y-13712514D01*
X19020357Y-13712514D01*
X19048928Y-13726800D01*
X19063214Y-13755371D01*
X19063214Y-13783943D01*
X18920357Y-13812514D01*
X19177500Y-13898229D02*
X19206071Y-13912514D01*
X19263214Y-13912514D01*
X19291786Y-13898229D01*
X19306071Y-13869657D01*
X19306071Y-13855371D01*
X19291786Y-13826800D01*
X19263214Y-13812514D01*
X19220357Y-13812514D01*
X19191786Y-13798229D01*
X19177500Y-13769657D01*
X19177500Y-13755371D01*
X19191786Y-13726800D01*
X19220357Y-13712514D01*
X19263214Y-13712514D01*
X19291786Y-13726800D01*
X19406071Y-14026800D02*
X19420357Y-14012514D01*
X19448928Y-13969657D01*
X19463214Y-13941086D01*
X19477500Y-13898229D01*
X19491786Y-13826800D01*
X19491786Y-13769657D01*
X19477500Y-13698229D01*
X19463214Y-13655371D01*
X19448928Y-13626800D01*
X19420357Y-13583943D01*
X19406071Y-13569657D01*
X12062500Y-14172800D02*
G75*
G03*
X12062500Y-14172800I-20000J0D01*
G01*
X12406071Y-14008514D02*
X12434643Y-14008514D01*
X12463214Y-14022800D01*
X12477500Y-14037086D01*
X12491786Y-14065657D01*
X12506071Y-14122800D01*
X12506071Y-14194229D01*
X12491786Y-14251371D01*
X12477500Y-14279943D01*
X12463214Y-14294229D01*
X12434643Y-14308514D01*
X12406071Y-14308514D01*
X12377500Y-14294229D01*
X12363214Y-14279943D01*
X12348928Y-14251371D01*
X12334643Y-14194229D01*
X12334643Y-14122800D01*
X12348928Y-14065657D01*
X12363214Y-14037086D01*
X12377500Y-14022800D01*
X12406071Y-14008514D01*
X12634643Y-14279943D02*
X12648928Y-14294229D01*
X12634643Y-14308514D01*
X12620357Y-14294229D01*
X12634643Y-14279943D01*
X12634643Y-14308514D01*
X12906071Y-14108514D02*
X12906071Y-14308514D01*
X12834643Y-13994229D02*
X12763214Y-14208514D01*
X12948928Y-14208514D01*
X13120357Y-14008514D02*
X13148928Y-14008514D01*
X13177500Y-14022800D01*
X13191786Y-14037086D01*
X13206071Y-14065657D01*
X13220357Y-14122800D01*
X13220357Y-14194229D01*
X13206071Y-14251371D01*
X13191786Y-14279943D01*
X13177500Y-14294229D01*
X13148928Y-14308514D01*
X13120357Y-14308514D01*
X13091786Y-14294229D01*
X13077500Y-14279943D01*
X13063214Y-14251371D01*
X13048928Y-14194229D01*
X13048928Y-14122800D01*
X13063214Y-14065657D01*
X13077500Y-14037086D01*
X13091786Y-14022800D01*
X13120357Y-14008514D01*
X13406071Y-14008514D02*
X13434643Y-14008514D01*
X13463214Y-14022800D01*
X13477500Y-14037086D01*
X13491786Y-14065657D01*
X13506071Y-14122800D01*
X13506071Y-14194229D01*
X13491786Y-14251371D01*
X13477500Y-14279943D01*
X13463214Y-14294229D01*
X13434643Y-14308514D01*
X13406071Y-14308514D01*
X13377500Y-14294229D01*
X13363214Y-14279943D01*
X13348928Y-14251371D01*
X13334643Y-14194229D01*
X13334643Y-14122800D01*
X13348928Y-14065657D01*
X13363214Y-14037086D01*
X13377500Y-14022800D01*
X13406071Y-14008514D01*
X13634643Y-14308514D02*
X13634643Y-14108514D01*
X13634643Y-14137086D02*
X13648928Y-14122800D01*
X13677500Y-14108514D01*
X13720357Y-14108514D01*
X13748928Y-14122800D01*
X13763214Y-14151371D01*
X13763214Y-14308514D01*
X13763214Y-14151371D02*
X13777500Y-14122800D01*
X13806071Y-14108514D01*
X13848928Y-14108514D01*
X13877500Y-14122800D01*
X13891786Y-14151371D01*
X13891786Y-14308514D01*
X14034643Y-14308514D02*
X14034643Y-14108514D01*
X14034643Y-14137086D02*
X14048928Y-14122800D01*
X14077500Y-14108514D01*
X14120357Y-14108514D01*
X14148928Y-14122800D01*
X14163214Y-14151371D01*
X14163214Y-14308514D01*
X14163214Y-14151371D02*
X14177500Y-14122800D01*
X14206071Y-14108514D01*
X14248928Y-14108514D01*
X14277500Y-14122800D01*
X14291786Y-14151371D01*
X14291786Y-14308514D01*
X14877500Y-13994229D02*
X14620357Y-14379943D01*
X15263214Y-14008514D02*
X15291786Y-14008514D01*
X15320357Y-14022800D01*
X15334643Y-14037086D01*
X15348928Y-14065657D01*
X15363214Y-14122800D01*
X15363214Y-14194229D01*
X15348928Y-14251371D01*
X15334643Y-14279943D01*
X15320357Y-14294229D01*
X15291786Y-14308514D01*
X15263214Y-14308514D01*
X15234643Y-14294229D01*
X15220357Y-14279943D01*
X15206071Y-14251371D01*
X15191786Y-14194229D01*
X15191786Y-14122800D01*
X15206071Y-14065657D01*
X15220357Y-14037086D01*
X15234643Y-14022800D01*
X15263214Y-14008514D01*
X15491786Y-14279943D02*
X15506071Y-14294229D01*
X15491786Y-14308514D01*
X15477500Y-14294229D01*
X15491786Y-14279943D01*
X15491786Y-14308514D01*
X15691786Y-14008514D02*
X15720357Y-14008514D01*
X15748928Y-14022800D01*
X15763214Y-14037086D01*
X15777500Y-14065657D01*
X15791786Y-14122800D01*
X15791786Y-14194229D01*
X15777500Y-14251371D01*
X15763214Y-14279943D01*
X15748928Y-14294229D01*
X15720357Y-14308514D01*
X15691786Y-14308514D01*
X15663214Y-14294229D01*
X15648928Y-14279943D01*
X15634643Y-14251371D01*
X15620357Y-14194229D01*
X15620357Y-14122800D01*
X15634643Y-14065657D01*
X15648928Y-14037086D01*
X15663214Y-14022800D01*
X15691786Y-14008514D01*
X16077500Y-14308514D02*
X15906071Y-14308514D01*
X15991786Y-14308514D02*
X15991786Y-14008514D01*
X15963214Y-14051371D01*
X15934643Y-14079943D01*
X15906071Y-14094229D01*
X16348928Y-14008514D02*
X16206071Y-14008514D01*
X16191786Y-14151371D01*
X16206071Y-14137086D01*
X16234643Y-14122800D01*
X16306071Y-14122800D01*
X16334643Y-14137086D01*
X16348928Y-14151371D01*
X16363214Y-14179943D01*
X16363214Y-14251371D01*
X16348928Y-14279943D01*
X16334643Y-14294229D01*
X16306071Y-14308514D01*
X16234643Y-14308514D01*
X16206071Y-14294229D01*
X16191786Y-14279943D01*
X16463214Y-14008514D02*
X16663214Y-14008514D01*
X16534643Y-14308514D01*
X16763214Y-14008514D02*
X16763214Y-14065657D01*
X16877500Y-14008514D02*
X16877500Y-14065657D01*
X17320357Y-14422800D02*
X17306071Y-14408514D01*
X17277500Y-14365657D01*
X17263214Y-14337086D01*
X17248928Y-14294229D01*
X17234643Y-14222800D01*
X17234643Y-14165657D01*
X17248928Y-14094229D01*
X17263214Y-14051371D01*
X17277500Y-14022800D01*
X17306071Y-13979943D01*
X17320357Y-13965657D01*
X17591786Y-14308514D02*
X17420357Y-14308514D01*
X17506071Y-14308514D02*
X17506071Y-14008514D01*
X17477500Y-14051371D01*
X17448928Y-14079943D01*
X17420357Y-14094229D01*
X17763214Y-14137086D02*
X17734643Y-14122800D01*
X17720357Y-14108514D01*
X17706071Y-14079943D01*
X17706071Y-14065657D01*
X17720357Y-14037086D01*
X17734643Y-14022800D01*
X17763214Y-14008514D01*
X17820357Y-14008514D01*
X17848928Y-14022800D01*
X17863214Y-14037086D01*
X17877500Y-14065657D01*
X17877500Y-14079943D01*
X17863214Y-14108514D01*
X17848928Y-14122800D01*
X17820357Y-14137086D01*
X17763214Y-14137086D01*
X17734643Y-14151371D01*
X17720357Y-14165657D01*
X17706071Y-14194229D01*
X17706071Y-14251371D01*
X17720357Y-14279943D01*
X17734643Y-14294229D01*
X17763214Y-14308514D01*
X17820357Y-14308514D01*
X17848928Y-14294229D01*
X17863214Y-14279943D01*
X17877500Y-14251371D01*
X17877500Y-14194229D01*
X17863214Y-14165657D01*
X17848928Y-14151371D01*
X17820357Y-14137086D01*
X18234643Y-14308514D02*
X18234643Y-14008514D01*
X18363214Y-14308514D02*
X18363214Y-14151371D01*
X18348928Y-14122800D01*
X18320357Y-14108514D01*
X18277500Y-14108514D01*
X18248928Y-14122800D01*
X18234643Y-14137086D01*
X18548928Y-14308514D02*
X18520357Y-14294229D01*
X18506071Y-14279943D01*
X18491786Y-14251371D01*
X18491786Y-14165657D01*
X18506071Y-14137086D01*
X18520357Y-14122800D01*
X18548928Y-14108514D01*
X18591786Y-14108514D01*
X18620357Y-14122800D01*
X18634643Y-14137086D01*
X18648928Y-14165657D01*
X18648928Y-14251371D01*
X18634643Y-14279943D01*
X18620357Y-14294229D01*
X18591786Y-14308514D01*
X18548928Y-14308514D01*
X18820357Y-14308514D02*
X18791786Y-14294229D01*
X18777500Y-14265657D01*
X18777500Y-14008514D01*
X19048928Y-14294229D02*
X19020357Y-14308514D01*
X18963214Y-14308514D01*
X18934643Y-14294229D01*
X18920357Y-14265657D01*
X18920357Y-14151371D01*
X18934643Y-14122800D01*
X18963214Y-14108514D01*
X19020357Y-14108514D01*
X19048928Y-14122800D01*
X19063214Y-14151371D01*
X19063214Y-14179943D01*
X18920357Y-14208514D01*
X19177500Y-14294229D02*
X19206071Y-14308514D01*
X19263214Y-14308514D01*
X19291786Y-14294229D01*
X19306071Y-14265657D01*
X19306071Y-14251371D01*
X19291786Y-14222800D01*
X19263214Y-14208514D01*
X19220357Y-14208514D01*
X19191786Y-14194229D01*
X19177500Y-14165657D01*
X19177500Y-14151371D01*
X19191786Y-14122800D01*
X19220357Y-14108514D01*
X19263214Y-14108514D01*
X19291786Y-14122800D01*
X19406071Y-14422800D02*
X19420357Y-14408514D01*
X19448928Y-14365657D01*
X19463214Y-14337086D01*
X19477500Y-14294229D01*
X19491786Y-14222800D01*
X19491786Y-14165657D01*
X19477500Y-14094229D01*
X19463214Y-14051371D01*
X19448928Y-14022800D01*
X19420357Y-13979943D01*
X19406071Y-13965657D01*
X12012500Y-14518800D02*
X12012500Y-14618800D01*
X11962500Y-14568800D02*
X12062500Y-14568800D01*
X12506071Y-14704514D02*
X12334643Y-14704514D01*
X12420357Y-14704514D02*
X12420357Y-14404514D01*
X12391786Y-14447371D01*
X12363214Y-14475943D01*
X12334643Y-14490229D01*
X12634643Y-14675943D02*
X12648928Y-14690229D01*
X12634643Y-14704514D01*
X12620357Y-14690229D01*
X12634643Y-14675943D01*
X12634643Y-14704514D01*
X12834643Y-14404514D02*
X12863214Y-14404514D01*
X12891786Y-14418800D01*
X12906071Y-14433086D01*
X12920357Y-14461657D01*
X12934643Y-14518800D01*
X12934643Y-14590229D01*
X12920357Y-14647371D01*
X12906071Y-14675943D01*
X12891786Y-14690229D01*
X12863214Y-14704514D01*
X12834643Y-14704514D01*
X12806071Y-14690229D01*
X12791786Y-14675943D01*
X12777500Y-14647371D01*
X12763214Y-14590229D01*
X12763214Y-14518800D01*
X12777500Y-14461657D01*
X12791786Y-14433086D01*
X12806071Y-14418800D01*
X12834643Y-14404514D01*
X13120357Y-14404514D02*
X13148928Y-14404514D01*
X13177500Y-14418800D01*
X13191786Y-14433086D01*
X13206071Y-14461657D01*
X13220357Y-14518800D01*
X13220357Y-14590229D01*
X13206071Y-14647371D01*
X13191786Y-14675943D01*
X13177500Y-14690229D01*
X13148928Y-14704514D01*
X13120357Y-14704514D01*
X13091786Y-14690229D01*
X13077500Y-14675943D01*
X13063214Y-14647371D01*
X13048928Y-14590229D01*
X13048928Y-14518800D01*
X13063214Y-14461657D01*
X13077500Y-14433086D01*
X13091786Y-14418800D01*
X13120357Y-14404514D01*
X13406071Y-14404514D02*
X13434643Y-14404514D01*
X13463214Y-14418800D01*
X13477500Y-14433086D01*
X13491786Y-14461657D01*
X13506071Y-14518800D01*
X13506071Y-14590229D01*
X13491786Y-14647371D01*
X13477500Y-14675943D01*
X13463214Y-14690229D01*
X13434643Y-14704514D01*
X13406071Y-14704514D01*
X13377500Y-14690229D01*
X13363214Y-14675943D01*
X13348928Y-14647371D01*
X13334643Y-14590229D01*
X13334643Y-14518800D01*
X13348928Y-14461657D01*
X13363214Y-14433086D01*
X13377500Y-14418800D01*
X13406071Y-14404514D01*
X13634643Y-14704514D02*
X13634643Y-14504514D01*
X13634643Y-14533086D02*
X13648928Y-14518800D01*
X13677500Y-14504514D01*
X13720357Y-14504514D01*
X13748928Y-14518800D01*
X13763214Y-14547371D01*
X13763214Y-14704514D01*
X13763214Y-14547371D02*
X13777500Y-14518800D01*
X13806071Y-14504514D01*
X13848928Y-14504514D01*
X13877500Y-14518800D01*
X13891786Y-14547371D01*
X13891786Y-14704514D01*
X14034643Y-14704514D02*
X14034643Y-14504514D01*
X14034643Y-14533086D02*
X14048928Y-14518800D01*
X14077500Y-14504514D01*
X14120357Y-14504514D01*
X14148928Y-14518800D01*
X14163214Y-14547371D01*
X14163214Y-14704514D01*
X14163214Y-14547371D02*
X14177500Y-14518800D01*
X14206071Y-14504514D01*
X14248928Y-14504514D01*
X14277500Y-14518800D01*
X14291786Y-14547371D01*
X14291786Y-14704514D01*
X14877500Y-14390229D02*
X14620357Y-14775943D01*
X15263214Y-14404514D02*
X15291786Y-14404514D01*
X15320357Y-14418800D01*
X15334643Y-14433086D01*
X15348928Y-14461657D01*
X15363214Y-14518800D01*
X15363214Y-14590229D01*
X15348928Y-14647371D01*
X15334643Y-14675943D01*
X15320357Y-14690229D01*
X15291786Y-14704514D01*
X15263214Y-14704514D01*
X15234643Y-14690229D01*
X15220357Y-14675943D01*
X15206071Y-14647371D01*
X15191786Y-14590229D01*
X15191786Y-14518800D01*
X15206071Y-14461657D01*
X15220357Y-14433086D01*
X15234643Y-14418800D01*
X15263214Y-14404514D01*
X15491786Y-14675943D02*
X15506071Y-14690229D01*
X15491786Y-14704514D01*
X15477500Y-14690229D01*
X15491786Y-14675943D01*
X15491786Y-14704514D01*
X15691786Y-14404514D02*
X15720357Y-14404514D01*
X15748928Y-14418800D01*
X15763214Y-14433086D01*
X15777500Y-14461657D01*
X15791786Y-14518800D01*
X15791786Y-14590229D01*
X15777500Y-14647371D01*
X15763214Y-14675943D01*
X15748928Y-14690229D01*
X15720357Y-14704514D01*
X15691786Y-14704514D01*
X15663214Y-14690229D01*
X15648928Y-14675943D01*
X15634643Y-14647371D01*
X15620357Y-14590229D01*
X15620357Y-14518800D01*
X15634643Y-14461657D01*
X15648928Y-14433086D01*
X15663214Y-14418800D01*
X15691786Y-14404514D01*
X15891786Y-14404514D02*
X16077500Y-14404514D01*
X15977500Y-14518800D01*
X16020357Y-14518800D01*
X16048928Y-14533086D01*
X16063214Y-14547371D01*
X16077500Y-14575943D01*
X16077500Y-14647371D01*
X16063214Y-14675943D01*
X16048928Y-14690229D01*
X16020357Y-14704514D01*
X15934643Y-14704514D01*
X15906071Y-14690229D01*
X15891786Y-14675943D01*
X16220357Y-14704514D02*
X16277500Y-14704514D01*
X16306071Y-14690229D01*
X16320357Y-14675943D01*
X16348928Y-14633086D01*
X16363214Y-14575943D01*
X16363214Y-14461657D01*
X16348928Y-14433086D01*
X16334643Y-14418800D01*
X16306071Y-14404514D01*
X16248928Y-14404514D01*
X16220357Y-14418800D01*
X16206071Y-14433086D01*
X16191786Y-14461657D01*
X16191786Y-14533086D01*
X16206071Y-14561657D01*
X16220357Y-14575943D01*
X16248928Y-14590229D01*
X16306071Y-14590229D01*
X16334643Y-14575943D01*
X16348928Y-14561657D01*
X16363214Y-14533086D01*
X16620357Y-14504514D02*
X16620357Y-14704514D01*
X16548928Y-14390229D02*
X16477500Y-14604514D01*
X16663214Y-14604514D01*
X16763214Y-14404514D02*
X16763214Y-14461657D01*
X16877500Y-14404514D02*
X16877500Y-14461657D01*
X17320357Y-14818800D02*
X17306071Y-14804514D01*
X17277500Y-14761657D01*
X17263214Y-14733086D01*
X17248928Y-14690229D01*
X17234643Y-14618800D01*
X17234643Y-14561657D01*
X17248928Y-14490229D01*
X17263214Y-14447371D01*
X17277500Y-14418800D01*
X17306071Y-14375943D01*
X17320357Y-14361657D01*
X17406071Y-14404514D02*
X17591786Y-14404514D01*
X17491786Y-14518800D01*
X17534643Y-14518800D01*
X17563214Y-14533086D01*
X17577500Y-14547371D01*
X17591786Y-14575943D01*
X17591786Y-14647371D01*
X17577500Y-14675943D01*
X17563214Y-14690229D01*
X17534643Y-14704514D01*
X17448928Y-14704514D01*
X17420357Y-14690229D01*
X17406071Y-14675943D01*
X17848928Y-14504514D02*
X17848928Y-14704514D01*
X17777500Y-14390229D02*
X17706071Y-14604514D01*
X17891786Y-14604514D01*
X18234643Y-14704514D02*
X18234643Y-14404514D01*
X18363214Y-14704514D02*
X18363214Y-14547371D01*
X18348928Y-14518800D01*
X18320357Y-14504514D01*
X18277500Y-14504514D01*
X18248928Y-14518800D01*
X18234643Y-14533086D01*
X18548928Y-14704514D02*
X18520357Y-14690229D01*
X18506071Y-14675943D01*
X18491786Y-14647371D01*
X18491786Y-14561657D01*
X18506071Y-14533086D01*
X18520357Y-14518800D01*
X18548928Y-14504514D01*
X18591786Y-14504514D01*
X18620357Y-14518800D01*
X18634643Y-14533086D01*
X18648928Y-14561657D01*
X18648928Y-14647371D01*
X18634643Y-14675943D01*
X18620357Y-14690229D01*
X18591786Y-14704514D01*
X18548928Y-14704514D01*
X18820357Y-14704514D02*
X18791786Y-14690229D01*
X18777500Y-14661657D01*
X18777500Y-14404514D01*
X19048928Y-14690229D02*
X19020357Y-14704514D01*
X18963214Y-14704514D01*
X18934643Y-14690229D01*
X18920357Y-14661657D01*
X18920357Y-14547371D01*
X18934643Y-14518800D01*
X18963214Y-14504514D01*
X19020357Y-14504514D01*
X19048928Y-14518800D01*
X19063214Y-14547371D01*
X19063214Y-14575943D01*
X18920357Y-14604514D01*
X19177500Y-14690229D02*
X19206071Y-14704514D01*
X19263214Y-14704514D01*
X19291786Y-14690229D01*
X19306071Y-14661657D01*
X19306071Y-14647371D01*
X19291786Y-14618800D01*
X19263214Y-14604514D01*
X19220357Y-14604514D01*
X19191786Y-14590229D01*
X19177500Y-14561657D01*
X19177500Y-14547371D01*
X19191786Y-14518800D01*
X19220357Y-14504514D01*
X19263214Y-14504514D01*
X19291786Y-14518800D01*
X19406071Y-14818800D02*
X19420357Y-14804514D01*
X19448928Y-14761657D01*
X19463214Y-14733086D01*
X19477500Y-14690229D01*
X19491786Y-14618800D01*
X19491786Y-14561657D01*
X19477500Y-14490229D01*
X19463214Y-14447371D01*
X19448928Y-14418800D01*
X19420357Y-14375943D01*
X19406071Y-14361657D01*
M02*
