G04 #@! TF.GenerationSoftware,KiCad,Pcbnew,(6.0.0-0)*
G04 #@! TF.CreationDate,2021-12-28T15:21:01+01:00*
G04 #@! TF.ProjectId,7segment,37736567-6d65-46e7-942e-6b696361645f,rev?*
G04 #@! TF.SameCoordinates,Original*
G04 #@! TF.FileFunction,Legend,Top*
G04 #@! TF.FilePolarity,Positive*
%FSLAX46Y46*%
G04 Gerber Fmt 4.6, Leading zero omitted, Abs format (unit mm)*
G04 Created by KiCad (PCBNEW (6.0.0-0)) date 2021-12-28 15:21:01*
%MOMM*%
%LPD*%
G01*
G04 APERTURE LIST*
G04 Aperture macros list*
%AMRoundRect*
0 Rectangle with rounded corners*
0 $1 Rounding radius*
0 $2 $3 $4 $5 $6 $7 $8 $9 X,Y pos of 4 corners*
0 Add a 4 corners polygon primitive as box body*
4,1,4,$2,$3,$4,$5,$6,$7,$8,$9,$2,$3,0*
0 Add four circle primitives for the rounded corners*
1,1,$1+$1,$2,$3*
1,1,$1+$1,$4,$5*
1,1,$1+$1,$6,$7*
1,1,$1+$1,$8,$9*
0 Add four rect primitives between the rounded corners*
20,1,$1+$1,$2,$3,$4,$5,0*
20,1,$1+$1,$4,$5,$6,$7,0*
20,1,$1+$1,$6,$7,$8,$9,0*
20,1,$1+$1,$8,$9,$2,$3,0*%
G04 Aperture macros list end*
%ADD10C,0.150000*%
%ADD11C,0.120000*%
%ADD12C,1.700000*%
%ADD13R,1.500000X1.500000*%
%ADD14RoundRect,0.250000X0.400000X0.625000X-0.400000X0.625000X-0.400000X-0.625000X0.400000X-0.625000X0*%
%ADD15RoundRect,0.250000X-0.400000X-0.625000X0.400000X-0.625000X0.400000X0.625000X-0.400000X0.625000X0*%
%ADD16O,1.700000X1.700000*%
%ADD17R,1.700000X1.700000*%
G04 APERTURE END LIST*
D10*
X130516380Y-119046047D02*
X131230666Y-119046047D01*
X131373523Y-119093666D01*
X131468761Y-119188904D01*
X131516380Y-119331761D01*
X131516380Y-119427000D01*
X131516380Y-118093666D02*
X131516380Y-118569857D01*
X130516380Y-118569857D01*
X131421142Y-117188904D02*
X131468761Y-117236523D01*
X131516380Y-117379380D01*
X131516380Y-117474619D01*
X131468761Y-117617476D01*
X131373523Y-117712714D01*
X131278285Y-117760333D01*
X131087809Y-117807952D01*
X130944952Y-117807952D01*
X130754476Y-117760333D01*
X130659238Y-117712714D01*
X130564000Y-117617476D01*
X130516380Y-117474619D01*
X130516380Y-117379380D01*
X130564000Y-117236523D01*
X130611619Y-117188904D01*
X130516380Y-116474619D02*
X131230666Y-116474619D01*
X131373523Y-116522238D01*
X131468761Y-116617476D01*
X131516380Y-116760333D01*
X131516380Y-116855571D01*
X131516380Y-115522238D02*
X131516380Y-115998428D01*
X130516380Y-115998428D01*
X131421142Y-114617476D02*
X131468761Y-114665095D01*
X131516380Y-114807952D01*
X131516380Y-114903190D01*
X131468761Y-115046047D01*
X131373523Y-115141285D01*
X131278285Y-115188904D01*
X131087809Y-115236523D01*
X130944952Y-115236523D01*
X130754476Y-115188904D01*
X130659238Y-115141285D01*
X130564000Y-115046047D01*
X130516380Y-114903190D01*
X130516380Y-114807952D01*
X130564000Y-114665095D01*
X130611619Y-114617476D01*
X130516380Y-113903190D02*
X131230666Y-113903190D01*
X131373523Y-113950809D01*
X131468761Y-114046047D01*
X131516380Y-114188904D01*
X131516380Y-114284142D01*
X131516380Y-112950809D02*
X131516380Y-113427000D01*
X130516380Y-113427000D01*
X131421142Y-112046047D02*
X131468761Y-112093666D01*
X131516380Y-112236523D01*
X131516380Y-112331761D01*
X131468761Y-112474619D01*
X131373523Y-112569857D01*
X131278285Y-112617476D01*
X131087809Y-112665095D01*
X130944952Y-112665095D01*
X130754476Y-112617476D01*
X130659238Y-112569857D01*
X130564000Y-112474619D01*
X130516380Y-112331761D01*
X130516380Y-112236523D01*
X130564000Y-112093666D01*
X130611619Y-112046047D01*
X130516380Y-111331761D02*
X131230666Y-111331761D01*
X131373523Y-111379380D01*
X131468761Y-111474619D01*
X131516380Y-111617476D01*
X131516380Y-111712714D01*
X131516380Y-110379380D02*
X131516380Y-110855571D01*
X130516380Y-110855571D01*
X131421142Y-109474619D02*
X131468761Y-109522238D01*
X131516380Y-109665095D01*
X131516380Y-109760333D01*
X131468761Y-109903190D01*
X131373523Y-109998428D01*
X131278285Y-110046047D01*
X131087809Y-110093666D01*
X130944952Y-110093666D01*
X130754476Y-110046047D01*
X130659238Y-109998428D01*
X130564000Y-109903190D01*
X130516380Y-109760333D01*
X130516380Y-109665095D01*
X130564000Y-109522238D01*
X130611619Y-109474619D01*
D11*
X136363064Y-121917142D02*
X134908936Y-121917142D01*
X136363064Y-123737142D02*
X134908936Y-123737142D01*
X136363064Y-124820000D02*
X134908936Y-124820000D01*
X136363064Y-126640000D02*
X134908936Y-126640000D01*
X134908936Y-107402857D02*
X136363064Y-107402857D01*
X134908936Y-109222857D02*
X136363064Y-109222857D01*
X134908936Y-116111428D02*
X136363064Y-116111428D01*
X134908936Y-117931428D02*
X136363064Y-117931428D01*
X136363064Y-104500000D02*
X134908936Y-104500000D01*
X136363064Y-106320000D02*
X134908936Y-106320000D01*
X134908936Y-120834285D02*
X136363064Y-120834285D01*
X134908936Y-119014285D02*
X136363064Y-119014285D01*
X134908936Y-110305714D02*
X136363064Y-110305714D01*
X134908936Y-112125714D02*
X136363064Y-112125714D01*
X134908936Y-113208571D02*
X136363064Y-113208571D01*
X134908936Y-115028571D02*
X136363064Y-115028571D01*
%LPC*%
D12*
X140970000Y-105410000D03*
X140970000Y-107950000D03*
X140970000Y-110490000D03*
X140970000Y-113030000D03*
X140970000Y-115570000D03*
X140970000Y-118110000D03*
X140970000Y-120650000D03*
X140970000Y-123190000D03*
X140970000Y-125730000D03*
X125730000Y-125730000D03*
X125730000Y-123190000D03*
X125730000Y-120650000D03*
X125730000Y-118110000D03*
X125730000Y-115570000D03*
X125730000Y-113030000D03*
X125730000Y-110490000D03*
X125730000Y-107950000D03*
D13*
X125730000Y-105410000D03*
D14*
X137186000Y-122827142D03*
X134086000Y-122827142D03*
X137186000Y-125730000D03*
X134086000Y-125730000D03*
D15*
X134086000Y-108312857D03*
X137186000Y-108312857D03*
X134086000Y-117021428D03*
X137186000Y-117021428D03*
D14*
X137186000Y-105410000D03*
X134086000Y-105410000D03*
D15*
X134086000Y-119924285D03*
X137186000Y-119924285D03*
X134086000Y-111215714D03*
X137186000Y-111215714D03*
X134086000Y-114118571D03*
X137186000Y-114118571D03*
D16*
X121920000Y-104140000D03*
X121920000Y-106680000D03*
X121920000Y-109220000D03*
X121920000Y-111760000D03*
X121920000Y-114300000D03*
X121920000Y-116840000D03*
X121920000Y-119380000D03*
X121920000Y-121920000D03*
X121920000Y-124460000D03*
D17*
X121920000Y-127000000D03*
D16*
X128524000Y-126873000D03*
X131064000Y-126873000D03*
X128524000Y-124333000D03*
X131064000Y-124333000D03*
X128524000Y-121793000D03*
D17*
X131064000Y-121793000D03*
M02*
