G04 #@! TF.GenerationSoftware,KiCad,Pcbnew,(6.0.0-0)*
G04 #@! TF.CreationDate,2021-12-28T15:21:01+01:00*
G04 #@! TF.ProjectId,7segment,37736567-6d65-46e7-942e-6b696361645f,rev?*
G04 #@! TF.SameCoordinates,Original*
G04 #@! TF.FileFunction,Soldermask,Bot*
G04 #@! TF.FilePolarity,Negative*
%FSLAX46Y46*%
G04 Gerber Fmt 4.6, Leading zero omitted, Abs format (unit mm)*
G04 Created by KiCad (PCBNEW (6.0.0-0)) date 2021-12-28 15:21:01*
%MOMM*%
%LPD*%
G01*
G04 APERTURE LIST*
G04 Aperture macros list*
%AMRoundRect*
0 Rectangle with rounded corners*
0 $1 Rounding radius*
0 $2 $3 $4 $5 $6 $7 $8 $9 X,Y pos of 4 corners*
0 Add a 4 corners polygon primitive as box body*
4,1,4,$2,$3,$4,$5,$6,$7,$8,$9,$2,$3,0*
0 Add four circle primitives for the rounded corners*
1,1,$1+$1,$2,$3*
1,1,$1+$1,$4,$5*
1,1,$1+$1,$6,$7*
1,1,$1+$1,$8,$9*
0 Add four rect primitives between the rounded corners*
20,1,$1+$1,$2,$3,$4,$5,0*
20,1,$1+$1,$4,$5,$6,$7,0*
20,1,$1+$1,$6,$7,$8,$9,0*
20,1,$1+$1,$8,$9,$2,$3,0*%
%AMFreePoly0*
4,1,20,0.000000,0.744959,0.073905,0.744508,0.209726,0.703889,0.328688,0.626782,0.421226,0.519385,0.479903,0.390333,0.500000,0.250000,0.500000,-0.250000,0.499851,-0.262216,0.476331,-0.402017,0.414519,-0.529596,0.319384,-0.634700,0.198574,-0.708877,0.061801,-0.746166,0.000000,-0.745033,0.000000,-0.750000,-0.500000,-0.750000,-0.500000,0.750000,0.000000,0.750000,0.000000,0.744959,
0.000000,0.744959,$1*%
%AMFreePoly1*
4,1,22,0.500000,-0.750000,0.000000,-0.750000,0.000000,-0.745033,-0.079941,-0.743568,-0.215256,-0.701293,-0.333266,-0.622738,-0.424486,-0.514219,-0.481581,-0.384460,-0.499164,-0.250000,-0.500000,-0.250000,-0.500000,0.250000,-0.499164,0.250000,-0.499963,0.256109,-0.478152,0.396186,-0.417904,0.524511,-0.324060,0.630769,-0.204165,0.706417,-0.067858,0.745374,0.000000,0.744959,0.000000,0.750000,
0.500000,0.750000,0.500000,-0.750000,0.500000,-0.750000,$1*%
G04 Aperture macros list end*
%ADD10C,1.700000*%
%ADD11R,1.500000X1.500000*%
%ADD12R,0.900000X0.800000*%
%ADD13R,1.000000X2.510000*%
%ADD14O,1.700000X1.700000*%
%ADD15R,1.700000X1.700000*%
%ADD16RoundRect,0.135000X0.185000X-0.135000X0.185000X0.135000X-0.185000X0.135000X-0.185000X-0.135000X0*%
%ADD17RoundRect,0.140000X-0.140000X-0.170000X0.140000X-0.170000X0.140000X0.170000X-0.140000X0.170000X0*%
%ADD18R,0.500000X0.500000*%
%ADD19RoundRect,0.135000X0.135000X0.185000X-0.135000X0.185000X-0.135000X-0.185000X0.135000X-0.185000X0*%
%ADD20FreePoly0,180.000000*%
%ADD21FreePoly1,180.000000*%
%ADD22RoundRect,0.225000X-0.225000X-0.250000X0.225000X-0.250000X0.225000X0.250000X-0.225000X0.250000X0*%
%ADD23RoundRect,0.140000X0.170000X-0.140000X0.170000X0.140000X-0.170000X0.140000X-0.170000X-0.140000X0*%
%ADD24RoundRect,0.218750X-0.256250X0.218750X-0.256250X-0.218750X0.256250X-0.218750X0.256250X0.218750X0*%
%ADD25R,0.550000X1.600000*%
%ADD26R,1.600000X0.550000*%
G04 APERTURE END LIST*
D10*
X140970000Y-105410000D03*
X140970000Y-107950000D03*
X140970000Y-110490000D03*
X140970000Y-113030000D03*
X140970000Y-115570000D03*
X140970000Y-118110000D03*
X140970000Y-120650000D03*
X140970000Y-123190000D03*
X140970000Y-125730000D03*
X125730000Y-125730000D03*
X125730000Y-123190000D03*
X125730000Y-120650000D03*
X125730000Y-118110000D03*
X125730000Y-115570000D03*
X125730000Y-113030000D03*
X125730000Y-110490000D03*
X125730000Y-107950000D03*
D11*
X125730000Y-105410000D03*
D12*
X132985000Y-125791000D03*
X132985000Y-123891000D03*
X134985000Y-124841000D03*
D13*
X136740000Y-121035000D03*
X134200000Y-117725000D03*
D14*
X121920000Y-104140000D03*
X121920000Y-106680000D03*
X121920000Y-109220000D03*
X121920000Y-111760000D03*
X121920000Y-114300000D03*
X121920000Y-116840000D03*
X121920000Y-119380000D03*
X121920000Y-121920000D03*
X121920000Y-124460000D03*
D15*
X121920000Y-127000000D03*
D12*
X137049000Y-125791000D03*
X137049000Y-123891000D03*
X139049000Y-124841000D03*
D16*
X130175000Y-116330000D03*
X130175000Y-117350000D03*
X129032000Y-119382000D03*
X129032000Y-118362000D03*
X131318000Y-116330000D03*
X131318000Y-117350000D03*
X131318000Y-119382000D03*
X131318000Y-118362000D03*
D17*
X135735000Y-104394000D03*
X134775000Y-104394000D03*
D18*
X137076000Y-104521000D03*
X139276000Y-104521000D03*
D19*
X132713000Y-104394000D03*
X133733000Y-104394000D03*
D20*
X127874000Y-104521000D03*
D21*
X129174000Y-104521000D03*
D14*
X128524000Y-126873000D03*
X131064000Y-126873000D03*
X128524000Y-124333000D03*
X131064000Y-124333000D03*
X128524000Y-121793000D03*
D15*
X131064000Y-121793000D03*
D22*
X135877000Y-116713000D03*
X137427000Y-116713000D03*
D16*
X129032000Y-116330000D03*
X129032000Y-117350000D03*
D23*
X127254000Y-111407000D03*
X127254000Y-112367000D03*
X139319000Y-110899000D03*
X139319000Y-111859000D03*
X127254000Y-109248000D03*
X127254000Y-110208000D03*
D24*
X127254000Y-115214500D03*
X127254000Y-113639500D03*
D23*
X139319000Y-108994000D03*
X139319000Y-109954000D03*
D25*
X136150000Y-106113000D03*
X135350000Y-106113000D03*
X134550000Y-106113000D03*
X133750000Y-106113000D03*
X132950000Y-106113000D03*
X132150000Y-106113000D03*
X131350000Y-106113000D03*
X130550000Y-106113000D03*
D26*
X129100000Y-107563000D03*
X129100000Y-108363000D03*
X129100000Y-109163000D03*
X129100000Y-109963000D03*
X129100000Y-110763000D03*
X129100000Y-111563000D03*
X129100000Y-112363000D03*
X129100000Y-113163000D03*
D25*
X130550000Y-114613000D03*
X131350000Y-114613000D03*
X132150000Y-114613000D03*
X132950000Y-114613000D03*
X133750000Y-114613000D03*
X134550000Y-114613000D03*
X135350000Y-114613000D03*
X136150000Y-114613000D03*
D26*
X137600000Y-113163000D03*
X137600000Y-112363000D03*
X137600000Y-111563000D03*
X137600000Y-110763000D03*
X137600000Y-109963000D03*
X137600000Y-109163000D03*
X137600000Y-108363000D03*
X137600000Y-107563000D03*
M02*
