G04 #@! TF.GenerationSoftware,KiCad,Pcbnew,(5.1.10-1-10_14)*
G04 #@! TF.CreationDate,2021-12-19T23:04:46+01:00*
G04 #@! TF.ProjectId,7segment,37736567-6d65-46e7-942e-6b696361645f,rev?*
G04 #@! TF.SameCoordinates,Original*
G04 #@! TF.FileFunction,Copper,L3,Inr*
G04 #@! TF.FilePolarity,Positive*
%FSLAX46Y46*%
G04 Gerber Fmt 4.6, Leading zero omitted, Abs format (unit mm)*
G04 Created by KiCad (PCBNEW (5.1.10-1-10_14)) date 2021-12-19 23:04:46*
%MOMM*%
%LPD*%
G01*
G04 APERTURE LIST*
G04 #@! TA.AperFunction,ComponentPad*
%ADD10O,1.700000X1.700000*%
G04 #@! TD*
G04 #@! TA.AperFunction,ComponentPad*
%ADD11R,1.700000X1.700000*%
G04 #@! TD*
G04 #@! TA.AperFunction,ComponentPad*
%ADD12C,1.700000*%
G04 #@! TD*
G04 #@! TA.AperFunction,ComponentPad*
%ADD13R,1.500000X1.500000*%
G04 #@! TD*
G04 #@! TA.AperFunction,ViaPad*
%ADD14C,0.800000*%
G04 #@! TD*
G04 #@! TA.AperFunction,ViaPad*
%ADD15C,0.400000*%
G04 #@! TD*
G04 #@! TA.AperFunction,Conductor*
%ADD16C,0.200000*%
G04 #@! TD*
G04 #@! TA.AperFunction,Conductor*
%ADD17C,0.100000*%
G04 #@! TD*
G04 APERTURE END LIST*
D10*
X121920000Y-104140000D03*
X121920000Y-106680000D03*
X121920000Y-109220000D03*
X121920000Y-111760000D03*
X121920000Y-114300000D03*
X121920000Y-116840000D03*
X121920000Y-119380000D03*
X121920000Y-121920000D03*
X121920000Y-124460000D03*
D11*
X121920000Y-127000000D03*
D10*
X128524000Y-126873000D03*
X131064000Y-126873000D03*
X128524000Y-124333000D03*
X131064000Y-124333000D03*
X128524000Y-121793000D03*
D11*
X131064000Y-121793000D03*
D12*
X140970000Y-105410000D03*
X140970000Y-107950000D03*
X140970000Y-110490000D03*
X140970000Y-113030000D03*
X140970000Y-115570000D03*
X140970000Y-118110000D03*
X140970000Y-120650000D03*
X140970000Y-123190000D03*
X140970000Y-125730000D03*
X125730000Y-125730000D03*
X125730000Y-123190000D03*
X125730000Y-120650000D03*
X125730000Y-118110000D03*
X125730000Y-115570000D03*
X125730000Y-113030000D03*
X125730000Y-110490000D03*
X125730000Y-107950000D03*
D13*
X125730000Y-105410000D03*
D14*
X135763000Y-103622000D03*
X139319000Y-108204000D03*
X127127000Y-126873000D03*
X138010797Y-121451176D03*
X138574262Y-116669647D03*
X127254000Y-108458000D03*
X135890000Y-123971067D03*
X132828760Y-124790988D03*
X126782026Y-103768045D03*
X140270283Y-111760001D03*
X126492000Y-111760000D03*
X132715000Y-103622000D03*
X139319000Y-103632000D03*
X128524000Y-120574295D03*
X136144000Y-118236994D03*
X139319000Y-112649000D03*
X140270272Y-109219994D03*
D15*
X132715000Y-122555000D03*
X122428000Y-115570000D03*
X132588000Y-108331000D03*
X133096000Y-109220000D03*
X130175000Y-118733033D03*
X132080589Y-118031745D03*
X124460000Y-117094000D03*
X131930285Y-115671478D03*
D14*
X128397000Y-114935000D03*
D15*
X128558032Y-117746143D03*
X127000000Y-116078000D03*
X132969017Y-115696983D03*
X127508000Y-116966994D03*
X133986903Y-115690492D03*
X128146396Y-116459000D03*
X126621702Y-106577288D03*
X139827000Y-116713000D03*
X135111432Y-107426502D03*
X141997979Y-119495021D03*
X135484677Y-108795345D03*
X141732000Y-117094000D03*
X137033000Y-106807000D03*
X124180929Y-118637620D03*
X136017000Y-107950000D03*
X124136990Y-116078000D03*
X138811000Y-107569000D03*
X123879978Y-113536931D03*
X132476920Y-107309618D03*
X137287000Y-118618000D03*
X135128000Y-119888000D03*
X139319000Y-114300000D03*
X136790654Y-115575168D03*
X134989052Y-115803673D03*
X123444000Y-112649000D03*
X123444000Y-115443000D03*
X131953000Y-113411000D03*
X132459836Y-117094000D03*
D16*
X132041901Y-103417818D02*
X132015000Y-103553056D01*
X132015000Y-103690944D01*
X132041901Y-103826182D01*
X132094668Y-103953574D01*
X132171274Y-104068224D01*
X132268776Y-104165726D01*
X132383426Y-104242332D01*
X132510818Y-104295099D01*
X132646056Y-104322000D01*
X132783944Y-104322000D01*
X132919182Y-104295099D01*
X133046574Y-104242332D01*
X133161224Y-104165726D01*
X133258726Y-104068224D01*
X133335332Y-103953574D01*
X133388099Y-103826182D01*
X133415000Y-103690944D01*
X133415000Y-103553056D01*
X133388099Y-103417818D01*
X133348410Y-103322000D01*
X138689732Y-103322000D01*
X138645901Y-103427818D01*
X138619000Y-103563056D01*
X138619000Y-103700944D01*
X138645901Y-103836182D01*
X138698668Y-103963574D01*
X138775274Y-104078224D01*
X138872776Y-104175726D01*
X138987426Y-104252332D01*
X139114818Y-104305099D01*
X139250056Y-104332000D01*
X139387944Y-104332000D01*
X139523182Y-104305099D01*
X139650574Y-104252332D01*
X139765224Y-104175726D01*
X139862726Y-104078224D01*
X139939332Y-103963574D01*
X139992099Y-103836182D01*
X140019000Y-103700944D01*
X140019000Y-103563056D01*
X139992099Y-103427818D01*
X139948268Y-103322000D01*
X142804000Y-103322000D01*
X142804001Y-127818000D01*
X131719652Y-127818000D01*
X131797082Y-127766263D01*
X131957263Y-127606082D01*
X132083116Y-127417729D01*
X132169806Y-127208443D01*
X132214000Y-126986265D01*
X132214000Y-126759735D01*
X132169806Y-126537557D01*
X132083116Y-126328271D01*
X131957263Y-126139918D01*
X131797082Y-125979737D01*
X131608729Y-125853884D01*
X131399443Y-125767194D01*
X131177265Y-125723000D01*
X130950735Y-125723000D01*
X130728557Y-125767194D01*
X130519271Y-125853884D01*
X130330918Y-125979737D01*
X130170737Y-126139918D01*
X130044884Y-126328271D01*
X129958194Y-126537557D01*
X129922103Y-126718998D01*
X129820890Y-126718998D01*
X129931903Y-126494090D01*
X129905146Y-126405861D01*
X129787473Y-126145389D01*
X129621246Y-125912878D01*
X129412852Y-125717264D01*
X129251585Y-125616735D01*
X139820000Y-125616735D01*
X139820000Y-125843265D01*
X139864194Y-126065443D01*
X139950884Y-126274729D01*
X140076737Y-126463082D01*
X140236918Y-126623263D01*
X140425271Y-126749116D01*
X140634557Y-126835806D01*
X140856735Y-126880000D01*
X141083265Y-126880000D01*
X141305443Y-126835806D01*
X141514729Y-126749116D01*
X141703082Y-126623263D01*
X141863263Y-126463082D01*
X141989116Y-126274729D01*
X142075806Y-126065443D01*
X142120000Y-125843265D01*
X142120000Y-125616735D01*
X142075806Y-125394557D01*
X141989116Y-125185271D01*
X141863263Y-124996918D01*
X141703082Y-124836737D01*
X141514729Y-124710884D01*
X141305443Y-124624194D01*
X141083265Y-124580000D01*
X140856735Y-124580000D01*
X140634557Y-124624194D01*
X140425271Y-124710884D01*
X140236918Y-124836737D01*
X140076737Y-124996918D01*
X139950884Y-125185271D01*
X139864194Y-125394557D01*
X139820000Y-125616735D01*
X129251585Y-125616735D01*
X129170300Y-125566065D01*
X128902911Y-125465091D01*
X128678002Y-125575149D01*
X128678002Y-125474897D01*
X128859443Y-125438806D01*
X129068729Y-125352116D01*
X129257082Y-125226263D01*
X129417263Y-125066082D01*
X129543116Y-124877729D01*
X129629806Y-124668443D01*
X129674000Y-124446265D01*
X129674000Y-124219735D01*
X129914000Y-124219735D01*
X129914000Y-124446265D01*
X129958194Y-124668443D01*
X130044884Y-124877729D01*
X130170737Y-125066082D01*
X130330918Y-125226263D01*
X130519271Y-125352116D01*
X130728557Y-125438806D01*
X130950735Y-125483000D01*
X131177265Y-125483000D01*
X131399443Y-125438806D01*
X131608729Y-125352116D01*
X131797082Y-125226263D01*
X131957263Y-125066082D01*
X132083116Y-124877729D01*
X132169806Y-124668443D01*
X132214000Y-124446265D01*
X132214000Y-124219735D01*
X132169806Y-123997557D01*
X132083116Y-123788271D01*
X131957263Y-123599918D01*
X131797082Y-123439737D01*
X131608729Y-123313884D01*
X131399443Y-123227194D01*
X131177265Y-123183000D01*
X130950735Y-123183000D01*
X130728557Y-123227194D01*
X130519271Y-123313884D01*
X130330918Y-123439737D01*
X130170737Y-123599918D01*
X130044884Y-123788271D01*
X129958194Y-123997557D01*
X129914000Y-124219735D01*
X129674000Y-124219735D01*
X129629806Y-123997557D01*
X129543116Y-123788271D01*
X129417263Y-123599918D01*
X129257082Y-123439737D01*
X129068729Y-123313884D01*
X128859443Y-123227194D01*
X128637265Y-123183000D01*
X128410735Y-123183000D01*
X128188557Y-123227194D01*
X127979271Y-123313884D01*
X127790918Y-123439737D01*
X127630737Y-123599918D01*
X127504884Y-123788271D01*
X127418194Y-123997557D01*
X127374000Y-124219735D01*
X127374000Y-124446265D01*
X127418194Y-124668443D01*
X127504884Y-124877729D01*
X127630737Y-125066082D01*
X127790918Y-125226263D01*
X127979271Y-125352116D01*
X128188557Y-125438806D01*
X128369998Y-125474897D01*
X128369998Y-125575149D01*
X128145089Y-125465091D01*
X127877700Y-125566065D01*
X127635148Y-125717264D01*
X127426754Y-125912878D01*
X127260527Y-126145389D01*
X127142854Y-126405861D01*
X127116097Y-126494090D01*
X127227111Y-126719000D01*
X128370000Y-126719000D01*
X128370000Y-126699000D01*
X128678000Y-126699000D01*
X128678000Y-126719000D01*
X128698000Y-126719000D01*
X128698000Y-127027000D01*
X128678000Y-127027000D01*
X128678000Y-127047000D01*
X128370000Y-127047000D01*
X128370000Y-127027000D01*
X127227111Y-127027000D01*
X127116097Y-127251910D01*
X127142854Y-127340139D01*
X127260527Y-127600611D01*
X127415943Y-127818000D01*
X123071451Y-127818000D01*
X123071451Y-126150000D01*
X123065659Y-126091190D01*
X123048504Y-126034640D01*
X123020647Y-125982523D01*
X122983158Y-125936842D01*
X122937477Y-125899353D01*
X122885360Y-125871496D01*
X122828810Y-125854341D01*
X122770000Y-125848549D01*
X121070000Y-125848549D01*
X121011190Y-125854341D01*
X120975000Y-125865320D01*
X120975000Y-125616735D01*
X124580000Y-125616735D01*
X124580000Y-125843265D01*
X124624194Y-126065443D01*
X124710884Y-126274729D01*
X124836737Y-126463082D01*
X124996918Y-126623263D01*
X125185271Y-126749116D01*
X125394557Y-126835806D01*
X125616735Y-126880000D01*
X125843265Y-126880000D01*
X126065443Y-126835806D01*
X126274729Y-126749116D01*
X126463082Y-126623263D01*
X126623263Y-126463082D01*
X126749116Y-126274729D01*
X126835806Y-126065443D01*
X126880000Y-125843265D01*
X126880000Y-125616735D01*
X126835806Y-125394557D01*
X126749116Y-125185271D01*
X126623263Y-124996918D01*
X126463082Y-124836737D01*
X126274729Y-124710884D01*
X126065443Y-124624194D01*
X125843265Y-124580000D01*
X125616735Y-124580000D01*
X125394557Y-124624194D01*
X125185271Y-124710884D01*
X124996918Y-124836737D01*
X124836737Y-124996918D01*
X124710884Y-125185271D01*
X124624194Y-125394557D01*
X124580000Y-125616735D01*
X120975000Y-125616735D01*
X120975000Y-125115652D01*
X121026737Y-125193082D01*
X121186918Y-125353263D01*
X121375271Y-125479116D01*
X121584557Y-125565806D01*
X121806735Y-125610000D01*
X122033265Y-125610000D01*
X122255443Y-125565806D01*
X122464729Y-125479116D01*
X122653082Y-125353263D01*
X122813263Y-125193082D01*
X122939116Y-125004729D01*
X123025806Y-124795443D01*
X123070000Y-124573265D01*
X123070000Y-124346735D01*
X123025806Y-124124557D01*
X122939116Y-123915271D01*
X122813263Y-123726918D01*
X122653082Y-123566737D01*
X122464729Y-123440884D01*
X122255443Y-123354194D01*
X122033265Y-123310000D01*
X121806735Y-123310000D01*
X121584557Y-123354194D01*
X121375271Y-123440884D01*
X121186918Y-123566737D01*
X121026737Y-123726918D01*
X120975000Y-123804348D01*
X120975000Y-123076735D01*
X124580000Y-123076735D01*
X124580000Y-123303265D01*
X124624194Y-123525443D01*
X124710884Y-123734729D01*
X124836737Y-123923082D01*
X124996918Y-124083263D01*
X125185271Y-124209116D01*
X125394557Y-124295806D01*
X125616735Y-124340000D01*
X125843265Y-124340000D01*
X126065443Y-124295806D01*
X126274729Y-124209116D01*
X126463082Y-124083263D01*
X126623263Y-123923082D01*
X126749116Y-123734729D01*
X126835806Y-123525443D01*
X126880000Y-123303265D01*
X126880000Y-123076735D01*
X139820000Y-123076735D01*
X139820000Y-123303265D01*
X139864194Y-123525443D01*
X139950884Y-123734729D01*
X140076737Y-123923082D01*
X140236918Y-124083263D01*
X140425271Y-124209116D01*
X140634557Y-124295806D01*
X140856735Y-124340000D01*
X141083265Y-124340000D01*
X141305443Y-124295806D01*
X141514729Y-124209116D01*
X141703082Y-124083263D01*
X141863263Y-123923082D01*
X141989116Y-123734729D01*
X142075806Y-123525443D01*
X142120000Y-123303265D01*
X142120000Y-123076735D01*
X142075806Y-122854557D01*
X141989116Y-122645271D01*
X141863263Y-122456918D01*
X141703082Y-122296737D01*
X141514729Y-122170884D01*
X141305443Y-122084194D01*
X141083265Y-122040000D01*
X140856735Y-122040000D01*
X140634557Y-122084194D01*
X140425271Y-122170884D01*
X140236918Y-122296737D01*
X140076737Y-122456918D01*
X139950884Y-122645271D01*
X139864194Y-122854557D01*
X139820000Y-123076735D01*
X126880000Y-123076735D01*
X126835806Y-122854557D01*
X126749116Y-122645271D01*
X126623263Y-122456918D01*
X126463082Y-122296737D01*
X126274729Y-122170884D01*
X126065443Y-122084194D01*
X125843265Y-122040000D01*
X125616735Y-122040000D01*
X125394557Y-122084194D01*
X125185271Y-122170884D01*
X124996918Y-122296737D01*
X124836737Y-122456918D01*
X124710884Y-122645271D01*
X124624194Y-122854557D01*
X124580000Y-123076735D01*
X120975000Y-123076735D01*
X120975000Y-122575652D01*
X121026737Y-122653082D01*
X121186918Y-122813263D01*
X121375271Y-122939116D01*
X121584557Y-123025806D01*
X121806735Y-123070000D01*
X122033265Y-123070000D01*
X122255443Y-123025806D01*
X122464729Y-122939116D01*
X122653082Y-122813263D01*
X122813263Y-122653082D01*
X122939116Y-122464729D01*
X123025806Y-122255443D01*
X123070000Y-122033265D01*
X123070000Y-121806735D01*
X123025806Y-121584557D01*
X122939116Y-121375271D01*
X122813263Y-121186918D01*
X122653082Y-121026737D01*
X122464729Y-120900884D01*
X122255443Y-120814194D01*
X122033265Y-120770000D01*
X121806735Y-120770000D01*
X121584557Y-120814194D01*
X121375271Y-120900884D01*
X121186918Y-121026737D01*
X121026737Y-121186918D01*
X120975000Y-121264348D01*
X120975000Y-120536735D01*
X124580000Y-120536735D01*
X124580000Y-120763265D01*
X124624194Y-120985443D01*
X124710884Y-121194729D01*
X124836737Y-121383082D01*
X124996918Y-121543263D01*
X125185271Y-121669116D01*
X125394557Y-121755806D01*
X125616735Y-121800000D01*
X125843265Y-121800000D01*
X126065443Y-121755806D01*
X126249092Y-121679735D01*
X127374000Y-121679735D01*
X127374000Y-121906265D01*
X127418194Y-122128443D01*
X127504884Y-122337729D01*
X127630737Y-122526082D01*
X127790918Y-122686263D01*
X127979271Y-122812116D01*
X128188557Y-122898806D01*
X128410735Y-122943000D01*
X128637265Y-122943000D01*
X128859443Y-122898806D01*
X129068729Y-122812116D01*
X129257082Y-122686263D01*
X129417263Y-122526082D01*
X129543116Y-122337729D01*
X129629806Y-122128443D01*
X129674000Y-121906265D01*
X129674000Y-121679735D01*
X129629806Y-121457557D01*
X129543116Y-121248271D01*
X129417263Y-121059918D01*
X129300345Y-120943000D01*
X129912549Y-120943000D01*
X129912549Y-122643000D01*
X129918341Y-122701810D01*
X129935496Y-122758360D01*
X129963353Y-122810477D01*
X130000842Y-122856158D01*
X130046523Y-122893647D01*
X130098640Y-122921504D01*
X130155190Y-122938659D01*
X130214000Y-122944451D01*
X131914000Y-122944451D01*
X131972810Y-122938659D01*
X132029360Y-122921504D01*
X132081477Y-122893647D01*
X132127158Y-122856158D01*
X132164647Y-122810477D01*
X132192504Y-122758360D01*
X132209659Y-122701810D01*
X132215451Y-122643000D01*
X132215451Y-122606513D01*
X132234215Y-122700845D01*
X132271906Y-122791839D01*
X132326625Y-122873731D01*
X132396269Y-122943375D01*
X132478161Y-122998094D01*
X132569155Y-123035785D01*
X132665754Y-123055000D01*
X132764246Y-123055000D01*
X132860845Y-123035785D01*
X132951839Y-122998094D01*
X133033731Y-122943375D01*
X133103375Y-122873731D01*
X133158094Y-122791839D01*
X133195785Y-122700845D01*
X133215000Y-122604246D01*
X133215000Y-122505754D01*
X133195785Y-122409155D01*
X133158094Y-122318161D01*
X133103375Y-122236269D01*
X133033731Y-122166625D01*
X132951839Y-122111906D01*
X132860845Y-122074215D01*
X132764246Y-122055000D01*
X132665754Y-122055000D01*
X132569155Y-122074215D01*
X132478161Y-122111906D01*
X132396269Y-122166625D01*
X132326625Y-122236269D01*
X132271906Y-122318161D01*
X132234215Y-122409155D01*
X132215451Y-122503487D01*
X132215451Y-120943000D01*
X132209659Y-120884190D01*
X132192504Y-120827640D01*
X132164647Y-120775523D01*
X132127158Y-120729842D01*
X132081477Y-120692353D01*
X132029360Y-120664496D01*
X131972810Y-120647341D01*
X131914000Y-120641549D01*
X130214000Y-120641549D01*
X130155190Y-120647341D01*
X130098640Y-120664496D01*
X130046523Y-120692353D01*
X130000842Y-120729842D01*
X129963353Y-120775523D01*
X129935496Y-120827640D01*
X129918341Y-120884190D01*
X129912549Y-120943000D01*
X129300345Y-120943000D01*
X129257082Y-120899737D01*
X129170762Y-120842060D01*
X129197099Y-120778477D01*
X129224000Y-120643239D01*
X129224000Y-120536735D01*
X139820000Y-120536735D01*
X139820000Y-120763265D01*
X139864194Y-120985443D01*
X139950884Y-121194729D01*
X140076737Y-121383082D01*
X140236918Y-121543263D01*
X140425271Y-121669116D01*
X140634557Y-121755806D01*
X140856735Y-121800000D01*
X141083265Y-121800000D01*
X141305443Y-121755806D01*
X141514729Y-121669116D01*
X141703082Y-121543263D01*
X141863263Y-121383082D01*
X141989116Y-121194729D01*
X142075806Y-120985443D01*
X142120000Y-120763265D01*
X142120000Y-120536735D01*
X142075806Y-120314557D01*
X141989116Y-120105271D01*
X141910348Y-119987386D01*
X141948733Y-119995021D01*
X142047225Y-119995021D01*
X142143824Y-119975806D01*
X142234818Y-119938115D01*
X142316710Y-119883396D01*
X142386354Y-119813752D01*
X142441073Y-119731860D01*
X142478764Y-119640866D01*
X142497979Y-119544267D01*
X142497979Y-119445775D01*
X142478764Y-119349176D01*
X142441073Y-119258182D01*
X142386354Y-119176290D01*
X142316710Y-119106646D01*
X142234818Y-119051927D01*
X142143824Y-119014236D01*
X142047225Y-118995021D01*
X141948733Y-118995021D01*
X141852134Y-119014236D01*
X141761140Y-119051927D01*
X141679248Y-119106646D01*
X141609604Y-119176290D01*
X141554885Y-119258182D01*
X141517194Y-119349176D01*
X141497979Y-119445775D01*
X141497979Y-119544267D01*
X141515282Y-119631253D01*
X141514729Y-119630884D01*
X141305443Y-119544194D01*
X141083265Y-119500000D01*
X140856735Y-119500000D01*
X140634557Y-119544194D01*
X140425271Y-119630884D01*
X140236918Y-119756737D01*
X140076737Y-119916918D01*
X139950884Y-120105271D01*
X139864194Y-120314557D01*
X139820000Y-120536735D01*
X129224000Y-120536735D01*
X129224000Y-120505351D01*
X129197099Y-120370113D01*
X129144332Y-120242721D01*
X129067726Y-120128071D01*
X128970224Y-120030569D01*
X128855574Y-119953963D01*
X128728182Y-119901196D01*
X128592944Y-119874295D01*
X128455056Y-119874295D01*
X128319818Y-119901196D01*
X128192426Y-119953963D01*
X128077776Y-120030569D01*
X127980274Y-120128071D01*
X127903668Y-120242721D01*
X127850901Y-120370113D01*
X127824000Y-120505351D01*
X127824000Y-120643239D01*
X127850901Y-120778477D01*
X127877238Y-120842060D01*
X127790918Y-120899737D01*
X127630737Y-121059918D01*
X127504884Y-121248271D01*
X127418194Y-121457557D01*
X127374000Y-121679735D01*
X126249092Y-121679735D01*
X126274729Y-121669116D01*
X126463082Y-121543263D01*
X126623263Y-121383082D01*
X126749116Y-121194729D01*
X126835806Y-120985443D01*
X126880000Y-120763265D01*
X126880000Y-120536735D01*
X126835806Y-120314557D01*
X126749116Y-120105271D01*
X126623263Y-119916918D01*
X126545099Y-119838754D01*
X134628000Y-119838754D01*
X134628000Y-119937246D01*
X134647215Y-120033845D01*
X134684906Y-120124839D01*
X134739625Y-120206731D01*
X134809269Y-120276375D01*
X134891161Y-120331094D01*
X134982155Y-120368785D01*
X135078754Y-120388000D01*
X135177246Y-120388000D01*
X135273845Y-120368785D01*
X135364839Y-120331094D01*
X135446731Y-120276375D01*
X135516375Y-120206731D01*
X135571094Y-120124839D01*
X135608785Y-120033845D01*
X135628000Y-119937246D01*
X135628000Y-119838754D01*
X135608785Y-119742155D01*
X135571094Y-119651161D01*
X135516375Y-119569269D01*
X135446731Y-119499625D01*
X135364839Y-119444906D01*
X135273845Y-119407215D01*
X135177246Y-119388000D01*
X135078754Y-119388000D01*
X134982155Y-119407215D01*
X134891161Y-119444906D01*
X134809269Y-119499625D01*
X134739625Y-119569269D01*
X134684906Y-119651161D01*
X134647215Y-119742155D01*
X134628000Y-119838754D01*
X126545099Y-119838754D01*
X126463082Y-119756737D01*
X126274729Y-119630884D01*
X126065443Y-119544194D01*
X125843265Y-119500000D01*
X125616735Y-119500000D01*
X125394557Y-119544194D01*
X125185271Y-119630884D01*
X124996918Y-119756737D01*
X124836737Y-119916918D01*
X124710884Y-120105271D01*
X124624194Y-120314557D01*
X124580000Y-120536735D01*
X120975000Y-120536735D01*
X120975000Y-120035652D01*
X121026737Y-120113082D01*
X121186918Y-120273263D01*
X121375271Y-120399116D01*
X121584557Y-120485806D01*
X121806735Y-120530000D01*
X122033265Y-120530000D01*
X122255443Y-120485806D01*
X122464729Y-120399116D01*
X122653082Y-120273263D01*
X122813263Y-120113082D01*
X122939116Y-119924729D01*
X123025806Y-119715443D01*
X123070000Y-119493265D01*
X123070000Y-119266735D01*
X123025806Y-119044557D01*
X122939116Y-118835271D01*
X122813263Y-118646918D01*
X122754719Y-118588374D01*
X123680929Y-118588374D01*
X123680929Y-118686866D01*
X123700144Y-118783465D01*
X123737835Y-118874459D01*
X123792554Y-118956351D01*
X123862198Y-119025995D01*
X123944090Y-119080714D01*
X124035084Y-119118405D01*
X124131683Y-119137620D01*
X124230175Y-119137620D01*
X124326774Y-119118405D01*
X124417768Y-119080714D01*
X124499660Y-119025995D01*
X124569304Y-118956351D01*
X124624023Y-118874459D01*
X124661714Y-118783465D01*
X124680929Y-118686866D01*
X124680929Y-118588374D01*
X124678647Y-118576904D01*
X124710884Y-118654729D01*
X124836737Y-118843082D01*
X124996918Y-119003263D01*
X125185271Y-119129116D01*
X125394557Y-119215806D01*
X125616735Y-119260000D01*
X125843265Y-119260000D01*
X126065443Y-119215806D01*
X126274729Y-119129116D01*
X126463082Y-119003263D01*
X126623263Y-118843082D01*
X126729700Y-118683787D01*
X129675000Y-118683787D01*
X129675000Y-118782279D01*
X129694215Y-118878878D01*
X129731906Y-118969872D01*
X129786625Y-119051764D01*
X129856269Y-119121408D01*
X129938161Y-119176127D01*
X130029155Y-119213818D01*
X130125754Y-119233033D01*
X130224246Y-119233033D01*
X130320845Y-119213818D01*
X130411839Y-119176127D01*
X130493731Y-119121408D01*
X130563375Y-119051764D01*
X130618094Y-118969872D01*
X130655785Y-118878878D01*
X130675000Y-118782279D01*
X130675000Y-118683787D01*
X130655785Y-118587188D01*
X130618094Y-118496194D01*
X130563375Y-118414302D01*
X130493731Y-118344658D01*
X130411839Y-118289939D01*
X130320845Y-118252248D01*
X130224246Y-118233033D01*
X130125754Y-118233033D01*
X130029155Y-118252248D01*
X129938161Y-118289939D01*
X129856269Y-118344658D01*
X129786625Y-118414302D01*
X129731906Y-118496194D01*
X129694215Y-118587188D01*
X129675000Y-118683787D01*
X126729700Y-118683787D01*
X126749116Y-118654729D01*
X126835806Y-118445443D01*
X126880000Y-118223265D01*
X126880000Y-117996735D01*
X126835806Y-117774557D01*
X126803638Y-117696897D01*
X128058032Y-117696897D01*
X128058032Y-117795389D01*
X128077247Y-117891988D01*
X128114938Y-117982982D01*
X128169657Y-118064874D01*
X128239301Y-118134518D01*
X128321193Y-118189237D01*
X128412187Y-118226928D01*
X128508786Y-118246143D01*
X128607278Y-118246143D01*
X128703877Y-118226928D01*
X128794871Y-118189237D01*
X128876763Y-118134518D01*
X128946407Y-118064874D01*
X129001126Y-117982982D01*
X129001326Y-117982499D01*
X131580589Y-117982499D01*
X131580589Y-118080991D01*
X131599804Y-118177590D01*
X131637495Y-118268584D01*
X131692214Y-118350476D01*
X131761858Y-118420120D01*
X131843750Y-118474839D01*
X131934744Y-118512530D01*
X132031343Y-118531745D01*
X132129835Y-118531745D01*
X132226434Y-118512530D01*
X132317428Y-118474839D01*
X132399320Y-118420120D01*
X132468964Y-118350476D01*
X132523683Y-118268584D01*
X132561374Y-118177590D01*
X132563271Y-118168050D01*
X135444000Y-118168050D01*
X135444000Y-118305938D01*
X135470901Y-118441176D01*
X135523668Y-118568568D01*
X135600274Y-118683218D01*
X135697776Y-118780720D01*
X135812426Y-118857326D01*
X135939818Y-118910093D01*
X136075056Y-118936994D01*
X136212944Y-118936994D01*
X136348182Y-118910093D01*
X136475574Y-118857326D01*
X136590224Y-118780720D01*
X136687726Y-118683218D01*
X136764207Y-118568754D01*
X136787000Y-118568754D01*
X136787000Y-118667246D01*
X136806215Y-118763845D01*
X136843906Y-118854839D01*
X136898625Y-118936731D01*
X136968269Y-119006375D01*
X137050161Y-119061094D01*
X137141155Y-119098785D01*
X137237754Y-119118000D01*
X137336246Y-119118000D01*
X137432845Y-119098785D01*
X137523839Y-119061094D01*
X137605731Y-119006375D01*
X137675375Y-118936731D01*
X137730094Y-118854839D01*
X137767785Y-118763845D01*
X137787000Y-118667246D01*
X137787000Y-118568754D01*
X137767785Y-118472155D01*
X137730094Y-118381161D01*
X137675375Y-118299269D01*
X137605731Y-118229625D01*
X137523839Y-118174906D01*
X137432845Y-118137215D01*
X137336246Y-118118000D01*
X137237754Y-118118000D01*
X137141155Y-118137215D01*
X137050161Y-118174906D01*
X136968269Y-118229625D01*
X136898625Y-118299269D01*
X136843906Y-118381161D01*
X136806215Y-118472155D01*
X136787000Y-118568754D01*
X136764207Y-118568754D01*
X136764332Y-118568568D01*
X136817099Y-118441176D01*
X136844000Y-118305938D01*
X136844000Y-118168050D01*
X136817099Y-118032812D01*
X136802156Y-117996735D01*
X139820000Y-117996735D01*
X139820000Y-118223265D01*
X139864194Y-118445443D01*
X139950884Y-118654729D01*
X140076737Y-118843082D01*
X140236918Y-119003263D01*
X140425271Y-119129116D01*
X140634557Y-119215806D01*
X140856735Y-119260000D01*
X141083265Y-119260000D01*
X141305443Y-119215806D01*
X141514729Y-119129116D01*
X141703082Y-119003263D01*
X141863263Y-118843082D01*
X141989116Y-118654729D01*
X142075806Y-118445443D01*
X142120000Y-118223265D01*
X142120000Y-117996735D01*
X142075806Y-117774557D01*
X141989116Y-117565271D01*
X141969841Y-117536424D01*
X142050731Y-117482375D01*
X142120375Y-117412731D01*
X142175094Y-117330839D01*
X142212785Y-117239845D01*
X142232000Y-117143246D01*
X142232000Y-117044754D01*
X142212785Y-116948155D01*
X142175094Y-116857161D01*
X142120375Y-116775269D01*
X142050731Y-116705625D01*
X141968839Y-116650906D01*
X141877845Y-116613215D01*
X141781246Y-116594000D01*
X141682754Y-116594000D01*
X141586155Y-116613215D01*
X141495161Y-116650906D01*
X141413269Y-116705625D01*
X141343625Y-116775269D01*
X141288906Y-116857161D01*
X141251215Y-116948155D01*
X141242556Y-116991685D01*
X141083265Y-116960000D01*
X140856735Y-116960000D01*
X140634557Y-117004194D01*
X140425271Y-117090884D01*
X140236918Y-117216737D01*
X140076737Y-117376918D01*
X139950884Y-117565271D01*
X139864194Y-117774557D01*
X139820000Y-117996735D01*
X136802156Y-117996735D01*
X136764332Y-117905420D01*
X136687726Y-117790770D01*
X136590224Y-117693268D01*
X136475574Y-117616662D01*
X136348182Y-117563895D01*
X136212944Y-117536994D01*
X136075056Y-117536994D01*
X135939818Y-117563895D01*
X135812426Y-117616662D01*
X135697776Y-117693268D01*
X135600274Y-117790770D01*
X135523668Y-117905420D01*
X135470901Y-118032812D01*
X135444000Y-118168050D01*
X132563271Y-118168050D01*
X132580589Y-118080991D01*
X132580589Y-117982499D01*
X132561374Y-117885900D01*
X132523683Y-117794906D01*
X132468964Y-117713014D01*
X132399320Y-117643370D01*
X132317428Y-117588651D01*
X132226434Y-117550960D01*
X132129835Y-117531745D01*
X132031343Y-117531745D01*
X131934744Y-117550960D01*
X131843750Y-117588651D01*
X131761858Y-117643370D01*
X131692214Y-117713014D01*
X131637495Y-117794906D01*
X131599804Y-117885900D01*
X131580589Y-117982499D01*
X129001326Y-117982499D01*
X129038817Y-117891988D01*
X129058032Y-117795389D01*
X129058032Y-117696897D01*
X129038817Y-117600298D01*
X129001126Y-117509304D01*
X128946407Y-117427412D01*
X128876763Y-117357768D01*
X128794871Y-117303049D01*
X128703877Y-117265358D01*
X128607278Y-117246143D01*
X128508786Y-117246143D01*
X128412187Y-117265358D01*
X128321193Y-117303049D01*
X128239301Y-117357768D01*
X128169657Y-117427412D01*
X128114938Y-117509304D01*
X128077247Y-117600298D01*
X128058032Y-117696897D01*
X126803638Y-117696897D01*
X126749116Y-117565271D01*
X126623263Y-117376918D01*
X126463082Y-117216737D01*
X126274729Y-117090884D01*
X126065443Y-117004194D01*
X125843265Y-116960000D01*
X125616735Y-116960000D01*
X125394557Y-117004194D01*
X125185271Y-117090884D01*
X124996918Y-117216737D01*
X124917433Y-117296222D01*
X124940785Y-117239845D01*
X124960000Y-117143246D01*
X124960000Y-117044754D01*
X124940785Y-116948155D01*
X124928190Y-116917748D01*
X127008000Y-116917748D01*
X127008000Y-117016240D01*
X127027215Y-117112839D01*
X127064906Y-117203833D01*
X127119625Y-117285725D01*
X127189269Y-117355369D01*
X127271161Y-117410088D01*
X127362155Y-117447779D01*
X127458754Y-117466994D01*
X127557246Y-117466994D01*
X127653845Y-117447779D01*
X127744839Y-117410088D01*
X127826731Y-117355369D01*
X127896375Y-117285725D01*
X127951094Y-117203833D01*
X127988785Y-117112839D01*
X128002328Y-117044754D01*
X131959836Y-117044754D01*
X131959836Y-117143246D01*
X131979051Y-117239845D01*
X132016742Y-117330839D01*
X132071461Y-117412731D01*
X132141105Y-117482375D01*
X132222997Y-117537094D01*
X132313991Y-117574785D01*
X132410590Y-117594000D01*
X132509082Y-117594000D01*
X132605681Y-117574785D01*
X132696675Y-117537094D01*
X132778567Y-117482375D01*
X132848211Y-117412731D01*
X132902930Y-117330839D01*
X132940621Y-117239845D01*
X132959836Y-117143246D01*
X132959836Y-117044754D01*
X132940621Y-116948155D01*
X132902930Y-116857161D01*
X132848211Y-116775269D01*
X132778567Y-116705625D01*
X132715904Y-116663754D01*
X139327000Y-116663754D01*
X139327000Y-116762246D01*
X139346215Y-116858845D01*
X139383906Y-116949839D01*
X139438625Y-117031731D01*
X139508269Y-117101375D01*
X139590161Y-117156094D01*
X139681155Y-117193785D01*
X139777754Y-117213000D01*
X139876246Y-117213000D01*
X139972845Y-117193785D01*
X140063839Y-117156094D01*
X140145731Y-117101375D01*
X140215375Y-117031731D01*
X140270094Y-116949839D01*
X140307785Y-116858845D01*
X140327000Y-116762246D01*
X140327000Y-116663754D01*
X140307785Y-116567155D01*
X140275403Y-116488978D01*
X140425271Y-116589116D01*
X140634557Y-116675806D01*
X140856735Y-116720000D01*
X141083265Y-116720000D01*
X141305443Y-116675806D01*
X141514729Y-116589116D01*
X141703082Y-116463263D01*
X141863263Y-116303082D01*
X141989116Y-116114729D01*
X142075806Y-115905443D01*
X142120000Y-115683265D01*
X142120000Y-115456735D01*
X142075806Y-115234557D01*
X141989116Y-115025271D01*
X141863263Y-114836918D01*
X141703082Y-114676737D01*
X141514729Y-114550884D01*
X141305443Y-114464194D01*
X141083265Y-114420000D01*
X140856735Y-114420000D01*
X140634557Y-114464194D01*
X140425271Y-114550884D01*
X140236918Y-114676737D01*
X140076737Y-114836918D01*
X139950884Y-115025271D01*
X139864194Y-115234557D01*
X139820000Y-115456735D01*
X139820000Y-115683265D01*
X139864194Y-115905443D01*
X139950884Y-116114729D01*
X140051022Y-116264597D01*
X139972845Y-116232215D01*
X139876246Y-116213000D01*
X139777754Y-116213000D01*
X139681155Y-116232215D01*
X139590161Y-116269906D01*
X139508269Y-116324625D01*
X139438625Y-116394269D01*
X139383906Y-116476161D01*
X139346215Y-116567155D01*
X139327000Y-116663754D01*
X132715904Y-116663754D01*
X132696675Y-116650906D01*
X132605681Y-116613215D01*
X132509082Y-116594000D01*
X132410590Y-116594000D01*
X132313991Y-116613215D01*
X132222997Y-116650906D01*
X132141105Y-116705625D01*
X132071461Y-116775269D01*
X132016742Y-116857161D01*
X131979051Y-116948155D01*
X131959836Y-117044754D01*
X128002328Y-117044754D01*
X128008000Y-117016240D01*
X128008000Y-116941267D01*
X128097150Y-116959000D01*
X128195642Y-116959000D01*
X128292241Y-116939785D01*
X128383235Y-116902094D01*
X128465127Y-116847375D01*
X128534771Y-116777731D01*
X128589490Y-116695839D01*
X128627181Y-116604845D01*
X128646396Y-116508246D01*
X128646396Y-116409754D01*
X128627181Y-116313155D01*
X128589490Y-116222161D01*
X128534771Y-116140269D01*
X128465127Y-116070625D01*
X128383235Y-116015906D01*
X128292241Y-115978215D01*
X128195642Y-115959000D01*
X128097150Y-115959000D01*
X128000551Y-115978215D01*
X127909557Y-116015906D01*
X127827665Y-116070625D01*
X127758021Y-116140269D01*
X127703302Y-116222161D01*
X127665611Y-116313155D01*
X127646396Y-116409754D01*
X127646396Y-116484727D01*
X127557246Y-116466994D01*
X127458754Y-116466994D01*
X127362155Y-116486209D01*
X127271161Y-116523900D01*
X127189269Y-116578619D01*
X127119625Y-116648263D01*
X127064906Y-116730155D01*
X127027215Y-116821149D01*
X127008000Y-116917748D01*
X124928190Y-116917748D01*
X124903094Y-116857161D01*
X124848375Y-116775269D01*
X124778731Y-116705625D01*
X124696839Y-116650906D01*
X124605845Y-116613215D01*
X124509246Y-116594000D01*
X124410754Y-116594000D01*
X124314155Y-116613215D01*
X124223161Y-116650906D01*
X124141269Y-116705625D01*
X124071625Y-116775269D01*
X124016906Y-116857161D01*
X123979215Y-116948155D01*
X123960000Y-117044754D01*
X123960000Y-117143246D01*
X123979215Y-117239845D01*
X124016906Y-117330839D01*
X124071625Y-117412731D01*
X124141269Y-117482375D01*
X124223161Y-117537094D01*
X124314155Y-117574785D01*
X124410754Y-117594000D01*
X124509246Y-117594000D01*
X124605845Y-117574785D01*
X124696839Y-117537094D01*
X124756225Y-117497413D01*
X124710884Y-117565271D01*
X124624194Y-117774557D01*
X124580000Y-117996735D01*
X124580000Y-118223265D01*
X124611617Y-118382214D01*
X124569304Y-118318889D01*
X124499660Y-118249245D01*
X124417768Y-118194526D01*
X124326774Y-118156835D01*
X124230175Y-118137620D01*
X124131683Y-118137620D01*
X124035084Y-118156835D01*
X123944090Y-118194526D01*
X123862198Y-118249245D01*
X123792554Y-118318889D01*
X123737835Y-118400781D01*
X123700144Y-118491775D01*
X123680929Y-118588374D01*
X122754719Y-118588374D01*
X122653082Y-118486737D01*
X122464729Y-118360884D01*
X122255443Y-118274194D01*
X122033265Y-118230000D01*
X121806735Y-118230000D01*
X121584557Y-118274194D01*
X121375271Y-118360884D01*
X121186918Y-118486737D01*
X121026737Y-118646918D01*
X120975000Y-118724348D01*
X120975000Y-117495652D01*
X121026737Y-117573082D01*
X121186918Y-117733263D01*
X121375271Y-117859116D01*
X121584557Y-117945806D01*
X121806735Y-117990000D01*
X122033265Y-117990000D01*
X122255443Y-117945806D01*
X122464729Y-117859116D01*
X122653082Y-117733263D01*
X122813263Y-117573082D01*
X122939116Y-117384729D01*
X123025806Y-117175443D01*
X123070000Y-116953265D01*
X123070000Y-116726735D01*
X123025806Y-116504557D01*
X122939116Y-116295271D01*
X122813263Y-116106918D01*
X122697569Y-115991224D01*
X122746731Y-115958375D01*
X122816375Y-115888731D01*
X122871094Y-115806839D01*
X122908785Y-115715845D01*
X122928000Y-115619246D01*
X122928000Y-115520754D01*
X122908785Y-115424155D01*
X122896193Y-115393754D01*
X122944000Y-115393754D01*
X122944000Y-115492246D01*
X122963215Y-115588845D01*
X123000906Y-115679839D01*
X123055625Y-115761731D01*
X123125269Y-115831375D01*
X123207161Y-115886094D01*
X123298155Y-115923785D01*
X123394754Y-115943000D01*
X123493246Y-115943000D01*
X123589845Y-115923785D01*
X123674134Y-115888871D01*
X123656205Y-115932155D01*
X123636990Y-116028754D01*
X123636990Y-116127246D01*
X123656205Y-116223845D01*
X123693896Y-116314839D01*
X123748615Y-116396731D01*
X123818259Y-116466375D01*
X123900151Y-116521094D01*
X123991145Y-116558785D01*
X124087744Y-116578000D01*
X124186236Y-116578000D01*
X124282835Y-116558785D01*
X124373829Y-116521094D01*
X124455721Y-116466375D01*
X124525365Y-116396731D01*
X124580084Y-116314839D01*
X124617775Y-116223845D01*
X124636990Y-116127246D01*
X124636990Y-116028754D01*
X124617775Y-115932155D01*
X124580084Y-115841161D01*
X124525365Y-115759269D01*
X124455721Y-115689625D01*
X124373829Y-115634906D01*
X124282835Y-115597215D01*
X124186236Y-115578000D01*
X124087744Y-115578000D01*
X123991145Y-115597215D01*
X123906856Y-115632129D01*
X123924785Y-115588845D01*
X123944000Y-115492246D01*
X123944000Y-115456735D01*
X124580000Y-115456735D01*
X124580000Y-115683265D01*
X124624194Y-115905443D01*
X124710884Y-116114729D01*
X124836737Y-116303082D01*
X124996918Y-116463263D01*
X125185271Y-116589116D01*
X125394557Y-116675806D01*
X125616735Y-116720000D01*
X125843265Y-116720000D01*
X126065443Y-116675806D01*
X126274729Y-116589116D01*
X126463082Y-116463263D01*
X126578776Y-116347569D01*
X126611625Y-116396731D01*
X126681269Y-116466375D01*
X126763161Y-116521094D01*
X126854155Y-116558785D01*
X126950754Y-116578000D01*
X127049246Y-116578000D01*
X127145845Y-116558785D01*
X127236839Y-116521094D01*
X127318731Y-116466375D01*
X127388375Y-116396731D01*
X127443094Y-116314839D01*
X127480785Y-116223845D01*
X127500000Y-116127246D01*
X127500000Y-116028754D01*
X127480785Y-115932155D01*
X127443094Y-115841161D01*
X127388375Y-115759269D01*
X127318731Y-115689625D01*
X127236839Y-115634906D01*
X127145845Y-115597215D01*
X127049246Y-115578000D01*
X126950754Y-115578000D01*
X126880000Y-115592074D01*
X126880000Y-115456735D01*
X126835806Y-115234557D01*
X126749116Y-115025271D01*
X126642733Y-114866056D01*
X127697000Y-114866056D01*
X127697000Y-115003944D01*
X127723901Y-115139182D01*
X127776668Y-115266574D01*
X127853274Y-115381224D01*
X127950776Y-115478726D01*
X128065426Y-115555332D01*
X128192818Y-115608099D01*
X128328056Y-115635000D01*
X128465944Y-115635000D01*
X128530131Y-115622232D01*
X131430285Y-115622232D01*
X131430285Y-115720724D01*
X131449500Y-115817323D01*
X131487191Y-115908317D01*
X131541910Y-115990209D01*
X131611554Y-116059853D01*
X131693446Y-116114572D01*
X131784440Y-116152263D01*
X131881039Y-116171478D01*
X131979531Y-116171478D01*
X132076130Y-116152263D01*
X132167124Y-116114572D01*
X132249016Y-116059853D01*
X132318660Y-115990209D01*
X132373379Y-115908317D01*
X132411070Y-115817323D01*
X132430285Y-115720724D01*
X132430285Y-115647737D01*
X132469017Y-115647737D01*
X132469017Y-115746229D01*
X132488232Y-115842828D01*
X132525923Y-115933822D01*
X132580642Y-116015714D01*
X132650286Y-116085358D01*
X132732178Y-116140077D01*
X132823172Y-116177768D01*
X132919771Y-116196983D01*
X133018263Y-116196983D01*
X133114862Y-116177768D01*
X133205856Y-116140077D01*
X133287748Y-116085358D01*
X133357392Y-116015714D01*
X133412111Y-115933822D01*
X133449802Y-115842828D01*
X133469017Y-115746229D01*
X133469017Y-115647737D01*
X133467726Y-115641246D01*
X133486903Y-115641246D01*
X133486903Y-115739738D01*
X133506118Y-115836337D01*
X133543809Y-115927331D01*
X133598528Y-116009223D01*
X133668172Y-116078867D01*
X133750064Y-116133586D01*
X133841058Y-116171277D01*
X133937657Y-116190492D01*
X134036149Y-116190492D01*
X134132748Y-116171277D01*
X134223742Y-116133586D01*
X134305634Y-116078867D01*
X134375278Y-116009223D01*
X134429997Y-115927331D01*
X134467688Y-115836337D01*
X134483981Y-115754427D01*
X134489052Y-115754427D01*
X134489052Y-115852919D01*
X134508267Y-115949518D01*
X134545958Y-116040512D01*
X134600677Y-116122404D01*
X134670321Y-116192048D01*
X134752213Y-116246767D01*
X134843207Y-116284458D01*
X134939806Y-116303673D01*
X135038298Y-116303673D01*
X135134897Y-116284458D01*
X135225891Y-116246767D01*
X135307783Y-116192048D01*
X135377427Y-116122404D01*
X135432146Y-116040512D01*
X135469837Y-115949518D01*
X135489052Y-115852919D01*
X135489052Y-115754427D01*
X135469837Y-115657828D01*
X135432146Y-115566834D01*
X135404810Y-115525922D01*
X136290654Y-115525922D01*
X136290654Y-115624414D01*
X136309869Y-115721013D01*
X136347560Y-115812007D01*
X136402279Y-115893899D01*
X136471923Y-115963543D01*
X136553815Y-116018262D01*
X136644809Y-116055953D01*
X136741408Y-116075168D01*
X136839900Y-116075168D01*
X136936499Y-116055953D01*
X137027493Y-116018262D01*
X137109385Y-115963543D01*
X137179029Y-115893899D01*
X137233748Y-115812007D01*
X137271439Y-115721013D01*
X137290654Y-115624414D01*
X137290654Y-115525922D01*
X137271439Y-115429323D01*
X137233748Y-115338329D01*
X137179029Y-115256437D01*
X137109385Y-115186793D01*
X137027493Y-115132074D01*
X136936499Y-115094383D01*
X136839900Y-115075168D01*
X136741408Y-115075168D01*
X136644809Y-115094383D01*
X136553815Y-115132074D01*
X136471923Y-115186793D01*
X136402279Y-115256437D01*
X136347560Y-115338329D01*
X136309869Y-115429323D01*
X136290654Y-115525922D01*
X135404810Y-115525922D01*
X135377427Y-115484942D01*
X135307783Y-115415298D01*
X135225891Y-115360579D01*
X135134897Y-115322888D01*
X135038298Y-115303673D01*
X134939806Y-115303673D01*
X134843207Y-115322888D01*
X134752213Y-115360579D01*
X134670321Y-115415298D01*
X134600677Y-115484942D01*
X134545958Y-115566834D01*
X134508267Y-115657828D01*
X134489052Y-115754427D01*
X134483981Y-115754427D01*
X134486903Y-115739738D01*
X134486903Y-115641246D01*
X134467688Y-115544647D01*
X134429997Y-115453653D01*
X134375278Y-115371761D01*
X134305634Y-115302117D01*
X134223742Y-115247398D01*
X134132748Y-115209707D01*
X134036149Y-115190492D01*
X133937657Y-115190492D01*
X133841058Y-115209707D01*
X133750064Y-115247398D01*
X133668172Y-115302117D01*
X133598528Y-115371761D01*
X133543809Y-115453653D01*
X133506118Y-115544647D01*
X133486903Y-115641246D01*
X133467726Y-115641246D01*
X133449802Y-115551138D01*
X133412111Y-115460144D01*
X133357392Y-115378252D01*
X133287748Y-115308608D01*
X133205856Y-115253889D01*
X133114862Y-115216198D01*
X133018263Y-115196983D01*
X132919771Y-115196983D01*
X132823172Y-115216198D01*
X132732178Y-115253889D01*
X132650286Y-115308608D01*
X132580642Y-115378252D01*
X132525923Y-115460144D01*
X132488232Y-115551138D01*
X132469017Y-115647737D01*
X132430285Y-115647737D01*
X132430285Y-115622232D01*
X132411070Y-115525633D01*
X132373379Y-115434639D01*
X132318660Y-115352747D01*
X132249016Y-115283103D01*
X132167124Y-115228384D01*
X132076130Y-115190693D01*
X131979531Y-115171478D01*
X131881039Y-115171478D01*
X131784440Y-115190693D01*
X131693446Y-115228384D01*
X131611554Y-115283103D01*
X131541910Y-115352747D01*
X131487191Y-115434639D01*
X131449500Y-115525633D01*
X131430285Y-115622232D01*
X128530131Y-115622232D01*
X128601182Y-115608099D01*
X128728574Y-115555332D01*
X128843224Y-115478726D01*
X128940726Y-115381224D01*
X129017332Y-115266574D01*
X129070099Y-115139182D01*
X129097000Y-115003944D01*
X129097000Y-114866056D01*
X129070099Y-114730818D01*
X129017332Y-114603426D01*
X128940726Y-114488776D01*
X128843224Y-114391274D01*
X128728574Y-114314668D01*
X128601182Y-114261901D01*
X128545144Y-114250754D01*
X138819000Y-114250754D01*
X138819000Y-114349246D01*
X138838215Y-114445845D01*
X138875906Y-114536839D01*
X138930625Y-114618731D01*
X139000269Y-114688375D01*
X139082161Y-114743094D01*
X139173155Y-114780785D01*
X139269754Y-114800000D01*
X139368246Y-114800000D01*
X139464845Y-114780785D01*
X139555839Y-114743094D01*
X139637731Y-114688375D01*
X139707375Y-114618731D01*
X139762094Y-114536839D01*
X139799785Y-114445845D01*
X139819000Y-114349246D01*
X139819000Y-114250754D01*
X139799785Y-114154155D01*
X139762094Y-114063161D01*
X139707375Y-113981269D01*
X139637731Y-113911625D01*
X139555839Y-113856906D01*
X139464845Y-113819215D01*
X139368246Y-113800000D01*
X139269754Y-113800000D01*
X139173155Y-113819215D01*
X139082161Y-113856906D01*
X139000269Y-113911625D01*
X138930625Y-113981269D01*
X138875906Y-114063161D01*
X138838215Y-114154155D01*
X138819000Y-114250754D01*
X128545144Y-114250754D01*
X128465944Y-114235000D01*
X128328056Y-114235000D01*
X128192818Y-114261901D01*
X128065426Y-114314668D01*
X127950776Y-114391274D01*
X127853274Y-114488776D01*
X127776668Y-114603426D01*
X127723901Y-114730818D01*
X127697000Y-114866056D01*
X126642733Y-114866056D01*
X126623263Y-114836918D01*
X126463082Y-114676737D01*
X126274729Y-114550884D01*
X126065443Y-114464194D01*
X125843265Y-114420000D01*
X125616735Y-114420000D01*
X125394557Y-114464194D01*
X125185271Y-114550884D01*
X124996918Y-114676737D01*
X124836737Y-114836918D01*
X124710884Y-115025271D01*
X124624194Y-115234557D01*
X124580000Y-115456735D01*
X123944000Y-115456735D01*
X123944000Y-115393754D01*
X123924785Y-115297155D01*
X123887094Y-115206161D01*
X123832375Y-115124269D01*
X123762731Y-115054625D01*
X123680839Y-114999906D01*
X123589845Y-114962215D01*
X123493246Y-114943000D01*
X123394754Y-114943000D01*
X123298155Y-114962215D01*
X123207161Y-114999906D01*
X123125269Y-115054625D01*
X123055625Y-115124269D01*
X123000906Y-115206161D01*
X122963215Y-115297155D01*
X122944000Y-115393754D01*
X122896193Y-115393754D01*
X122871094Y-115333161D01*
X122816375Y-115251269D01*
X122746731Y-115181625D01*
X122697569Y-115148776D01*
X122813263Y-115033082D01*
X122939116Y-114844729D01*
X123025806Y-114635443D01*
X123070000Y-114413265D01*
X123070000Y-114186735D01*
X123025806Y-113964557D01*
X122939116Y-113755271D01*
X122813263Y-113566918D01*
X122653082Y-113406737D01*
X122464729Y-113280884D01*
X122255443Y-113194194D01*
X122033265Y-113150000D01*
X121806735Y-113150000D01*
X121584557Y-113194194D01*
X121375271Y-113280884D01*
X121186918Y-113406737D01*
X121026737Y-113566918D01*
X120975000Y-113644348D01*
X120975000Y-112415652D01*
X121026737Y-112493082D01*
X121186918Y-112653263D01*
X121375271Y-112779116D01*
X121584557Y-112865806D01*
X121806735Y-112910000D01*
X122033265Y-112910000D01*
X122255443Y-112865806D01*
X122464729Y-112779116D01*
X122653082Y-112653263D01*
X122706591Y-112599754D01*
X122944000Y-112599754D01*
X122944000Y-112698246D01*
X122963215Y-112794845D01*
X123000906Y-112885839D01*
X123055625Y-112967731D01*
X123125269Y-113037375D01*
X123207161Y-113092094D01*
X123298155Y-113129785D01*
X123394754Y-113149000D01*
X123493246Y-113149000D01*
X123589125Y-113129928D01*
X123561247Y-113148556D01*
X123491603Y-113218200D01*
X123436884Y-113300092D01*
X123399193Y-113391086D01*
X123379978Y-113487685D01*
X123379978Y-113586177D01*
X123399193Y-113682776D01*
X123436884Y-113773770D01*
X123491603Y-113855662D01*
X123561247Y-113925306D01*
X123643139Y-113980025D01*
X123734133Y-114017716D01*
X123830732Y-114036931D01*
X123929224Y-114036931D01*
X124025823Y-114017716D01*
X124116817Y-113980025D01*
X124198709Y-113925306D01*
X124268353Y-113855662D01*
X124323072Y-113773770D01*
X124360763Y-113682776D01*
X124379978Y-113586177D01*
X124379978Y-113487685D01*
X124360763Y-113391086D01*
X124323072Y-113300092D01*
X124268353Y-113218200D01*
X124198709Y-113148556D01*
X124116817Y-113093837D01*
X124025823Y-113056146D01*
X123929224Y-113036931D01*
X123830732Y-113036931D01*
X123734853Y-113056003D01*
X123762731Y-113037375D01*
X123832375Y-112967731D01*
X123866449Y-112916735D01*
X124580000Y-112916735D01*
X124580000Y-113143265D01*
X124624194Y-113365443D01*
X124710884Y-113574729D01*
X124836737Y-113763082D01*
X124996918Y-113923263D01*
X125185271Y-114049116D01*
X125394557Y-114135806D01*
X125616735Y-114180000D01*
X125843265Y-114180000D01*
X126065443Y-114135806D01*
X126274729Y-114049116D01*
X126463082Y-113923263D01*
X126623263Y-113763082D01*
X126749116Y-113574729D01*
X126835806Y-113365443D01*
X126836539Y-113361754D01*
X131453000Y-113361754D01*
X131453000Y-113460246D01*
X131472215Y-113556845D01*
X131509906Y-113647839D01*
X131564625Y-113729731D01*
X131634269Y-113799375D01*
X131716161Y-113854094D01*
X131807155Y-113891785D01*
X131903754Y-113911000D01*
X132002246Y-113911000D01*
X132098845Y-113891785D01*
X132189839Y-113854094D01*
X132271731Y-113799375D01*
X132341375Y-113729731D01*
X132396094Y-113647839D01*
X132433785Y-113556845D01*
X132453000Y-113460246D01*
X132453000Y-113361754D01*
X132433785Y-113265155D01*
X132396094Y-113174161D01*
X132341375Y-113092269D01*
X132271731Y-113022625D01*
X132189839Y-112967906D01*
X132098845Y-112930215D01*
X132002246Y-112911000D01*
X131903754Y-112911000D01*
X131807155Y-112930215D01*
X131716161Y-112967906D01*
X131634269Y-113022625D01*
X131564625Y-113092269D01*
X131509906Y-113174161D01*
X131472215Y-113265155D01*
X131453000Y-113361754D01*
X126836539Y-113361754D01*
X126880000Y-113143265D01*
X126880000Y-112916735D01*
X126835806Y-112694557D01*
X126788378Y-112580056D01*
X138619000Y-112580056D01*
X138619000Y-112717944D01*
X138645901Y-112853182D01*
X138698668Y-112980574D01*
X138775274Y-113095224D01*
X138872776Y-113192726D01*
X138987426Y-113269332D01*
X139114818Y-113322099D01*
X139250056Y-113349000D01*
X139387944Y-113349000D01*
X139523182Y-113322099D01*
X139650574Y-113269332D01*
X139765224Y-113192726D01*
X139820000Y-113137950D01*
X139820000Y-113143265D01*
X139864194Y-113365443D01*
X139950884Y-113574729D01*
X140076737Y-113763082D01*
X140236918Y-113923263D01*
X140425271Y-114049116D01*
X140634557Y-114135806D01*
X140856735Y-114180000D01*
X141083265Y-114180000D01*
X141305443Y-114135806D01*
X141514729Y-114049116D01*
X141703082Y-113923263D01*
X141863263Y-113763082D01*
X141989116Y-113574729D01*
X142075806Y-113365443D01*
X142120000Y-113143265D01*
X142120000Y-112916735D01*
X142075806Y-112694557D01*
X141989116Y-112485271D01*
X141863263Y-112296918D01*
X141703082Y-112136737D01*
X141514729Y-112010884D01*
X141305443Y-111924194D01*
X141083265Y-111880000D01*
X140856735Y-111880000D01*
X140634557Y-111924194D01*
X140425271Y-112010884D01*
X140236918Y-112136737D01*
X140076737Y-112296918D01*
X139986671Y-112431712D01*
X139939332Y-112317426D01*
X139862726Y-112202776D01*
X139765224Y-112105274D01*
X139650574Y-112028668D01*
X139523182Y-111975901D01*
X139387944Y-111949000D01*
X139250056Y-111949000D01*
X139114818Y-111975901D01*
X138987426Y-112028668D01*
X138872776Y-112105274D01*
X138775274Y-112202776D01*
X138698668Y-112317426D01*
X138645901Y-112444818D01*
X138619000Y-112580056D01*
X126788378Y-112580056D01*
X126749116Y-112485271D01*
X126623263Y-112296918D01*
X126463082Y-112136737D01*
X126274729Y-112010884D01*
X126065443Y-111924194D01*
X125843265Y-111880000D01*
X125616735Y-111880000D01*
X125394557Y-111924194D01*
X125185271Y-112010884D01*
X124996918Y-112136737D01*
X124836737Y-112296918D01*
X124710884Y-112485271D01*
X124624194Y-112694557D01*
X124580000Y-112916735D01*
X123866449Y-112916735D01*
X123887094Y-112885839D01*
X123924785Y-112794845D01*
X123944000Y-112698246D01*
X123944000Y-112599754D01*
X123924785Y-112503155D01*
X123887094Y-112412161D01*
X123832375Y-112330269D01*
X123762731Y-112260625D01*
X123680839Y-112205906D01*
X123589845Y-112168215D01*
X123493246Y-112149000D01*
X123394754Y-112149000D01*
X123298155Y-112168215D01*
X123207161Y-112205906D01*
X123125269Y-112260625D01*
X123055625Y-112330269D01*
X123000906Y-112412161D01*
X122963215Y-112503155D01*
X122944000Y-112599754D01*
X122706591Y-112599754D01*
X122813263Y-112493082D01*
X122939116Y-112304729D01*
X123025806Y-112095443D01*
X123070000Y-111873265D01*
X123070000Y-111646735D01*
X123025806Y-111424557D01*
X122939116Y-111215271D01*
X122813263Y-111026918D01*
X122653082Y-110866737D01*
X122464729Y-110740884D01*
X122255443Y-110654194D01*
X122033265Y-110610000D01*
X121806735Y-110610000D01*
X121584557Y-110654194D01*
X121375271Y-110740884D01*
X121186918Y-110866737D01*
X121026737Y-111026918D01*
X120975000Y-111104348D01*
X120975000Y-110376735D01*
X124580000Y-110376735D01*
X124580000Y-110603265D01*
X124624194Y-110825443D01*
X124710884Y-111034729D01*
X124836737Y-111223082D01*
X124996918Y-111383263D01*
X125185271Y-111509116D01*
X125394557Y-111595806D01*
X125616735Y-111640000D01*
X125843265Y-111640000D01*
X126065443Y-111595806D01*
X126274729Y-111509116D01*
X126463082Y-111383263D01*
X126623263Y-111223082D01*
X126749116Y-111034729D01*
X126835806Y-110825443D01*
X126880000Y-110603265D01*
X126880000Y-110376735D01*
X126835806Y-110154557D01*
X126749116Y-109945271D01*
X126623263Y-109756918D01*
X126463082Y-109596737D01*
X126274729Y-109470884D01*
X126065443Y-109384194D01*
X125843265Y-109340000D01*
X125616735Y-109340000D01*
X125394557Y-109384194D01*
X125185271Y-109470884D01*
X124996918Y-109596737D01*
X124836737Y-109756918D01*
X124710884Y-109945271D01*
X124624194Y-110154557D01*
X124580000Y-110376735D01*
X120975000Y-110376735D01*
X120975000Y-109875652D01*
X121026737Y-109953082D01*
X121186918Y-110113263D01*
X121375271Y-110239116D01*
X121584557Y-110325806D01*
X121806735Y-110370000D01*
X122033265Y-110370000D01*
X122255443Y-110325806D01*
X122464729Y-110239116D01*
X122653082Y-110113263D01*
X122813263Y-109953082D01*
X122939116Y-109764729D01*
X123025806Y-109555443D01*
X123070000Y-109333265D01*
X123070000Y-109170754D01*
X132596000Y-109170754D01*
X132596000Y-109269246D01*
X132615215Y-109365845D01*
X132652906Y-109456839D01*
X132707625Y-109538731D01*
X132777269Y-109608375D01*
X132859161Y-109663094D01*
X132950155Y-109700785D01*
X133046754Y-109720000D01*
X133145246Y-109720000D01*
X133241845Y-109700785D01*
X133332839Y-109663094D01*
X133414731Y-109608375D01*
X133484375Y-109538731D01*
X133539094Y-109456839D01*
X133576785Y-109365845D01*
X133596000Y-109269246D01*
X133596000Y-109170754D01*
X133576785Y-109074155D01*
X133539094Y-108983161D01*
X133484375Y-108901269D01*
X133414731Y-108831625D01*
X133332839Y-108776906D01*
X133258465Y-108746099D01*
X134984677Y-108746099D01*
X134984677Y-108844591D01*
X135003892Y-108941190D01*
X135041583Y-109032184D01*
X135096302Y-109114076D01*
X135165946Y-109183720D01*
X135247838Y-109238439D01*
X135338832Y-109276130D01*
X135435431Y-109295345D01*
X135533923Y-109295345D01*
X135630522Y-109276130D01*
X135721516Y-109238439D01*
X135803408Y-109183720D01*
X135836078Y-109151050D01*
X139570272Y-109151050D01*
X139570272Y-109288938D01*
X139597173Y-109424176D01*
X139649940Y-109551568D01*
X139726546Y-109666218D01*
X139824048Y-109763720D01*
X139938698Y-109840326D01*
X140003164Y-109867028D01*
X139950884Y-109945271D01*
X139864194Y-110154557D01*
X139820000Y-110376735D01*
X139820000Y-110603265D01*
X139864194Y-110825443D01*
X139950884Y-111034729D01*
X140076737Y-111223082D01*
X140236918Y-111383263D01*
X140425271Y-111509116D01*
X140634557Y-111595806D01*
X140856735Y-111640000D01*
X141083265Y-111640000D01*
X141305443Y-111595806D01*
X141514729Y-111509116D01*
X141703082Y-111383263D01*
X141863263Y-111223082D01*
X141989116Y-111034729D01*
X142075806Y-110825443D01*
X142120000Y-110603265D01*
X142120000Y-110376735D01*
X142075806Y-110154557D01*
X141989116Y-109945271D01*
X141863263Y-109756918D01*
X141703082Y-109596737D01*
X141514729Y-109470884D01*
X141305443Y-109384194D01*
X141083265Y-109340000D01*
X140960115Y-109340000D01*
X140970272Y-109288938D01*
X140970272Y-109151050D01*
X140960117Y-109100000D01*
X141083265Y-109100000D01*
X141305443Y-109055806D01*
X141514729Y-108969116D01*
X141703082Y-108843263D01*
X141863263Y-108683082D01*
X141989116Y-108494729D01*
X142075806Y-108285443D01*
X142120000Y-108063265D01*
X142120000Y-107836735D01*
X142075806Y-107614557D01*
X141989116Y-107405271D01*
X141863263Y-107216918D01*
X141703082Y-107056737D01*
X141514729Y-106930884D01*
X141305443Y-106844194D01*
X141083265Y-106800000D01*
X140856735Y-106800000D01*
X140634557Y-106844194D01*
X140425271Y-106930884D01*
X140236918Y-107056737D01*
X140076737Y-107216918D01*
X139950884Y-107405271D01*
X139864194Y-107614557D01*
X139820000Y-107836735D01*
X139820000Y-108063265D01*
X139864194Y-108285443D01*
X139950884Y-108494729D01*
X140003158Y-108572962D01*
X139938698Y-108599662D01*
X139824048Y-108676268D01*
X139726546Y-108773770D01*
X139649940Y-108888420D01*
X139597173Y-109015812D01*
X139570272Y-109151050D01*
X135836078Y-109151050D01*
X135873052Y-109114076D01*
X135927771Y-109032184D01*
X135965462Y-108941190D01*
X135984677Y-108844591D01*
X135984677Y-108746099D01*
X135965462Y-108649500D01*
X135927771Y-108558506D01*
X135873052Y-108476614D01*
X135803408Y-108406970D01*
X135786687Y-108395797D01*
X135871155Y-108430785D01*
X135967754Y-108450000D01*
X136066246Y-108450000D01*
X136162845Y-108430785D01*
X136253839Y-108393094D01*
X136335731Y-108338375D01*
X136405375Y-108268731D01*
X136460094Y-108186839D01*
X136497785Y-108095845D01*
X136517000Y-107999246D01*
X136517000Y-107900754D01*
X136497785Y-107804155D01*
X136460094Y-107713161D01*
X136405375Y-107631269D01*
X136335731Y-107561625D01*
X136273068Y-107519754D01*
X138311000Y-107519754D01*
X138311000Y-107618246D01*
X138330215Y-107714845D01*
X138367906Y-107805839D01*
X138422625Y-107887731D01*
X138492269Y-107957375D01*
X138574161Y-108012094D01*
X138665155Y-108049785D01*
X138761754Y-108069000D01*
X138860246Y-108069000D01*
X138956845Y-108049785D01*
X139047839Y-108012094D01*
X139129731Y-107957375D01*
X139199375Y-107887731D01*
X139254094Y-107805839D01*
X139291785Y-107714845D01*
X139311000Y-107618246D01*
X139311000Y-107519754D01*
X139291785Y-107423155D01*
X139254094Y-107332161D01*
X139199375Y-107250269D01*
X139129731Y-107180625D01*
X139047839Y-107125906D01*
X138956845Y-107088215D01*
X138860246Y-107069000D01*
X138761754Y-107069000D01*
X138665155Y-107088215D01*
X138574161Y-107125906D01*
X138492269Y-107180625D01*
X138422625Y-107250269D01*
X138367906Y-107332161D01*
X138330215Y-107423155D01*
X138311000Y-107519754D01*
X136273068Y-107519754D01*
X136253839Y-107506906D01*
X136162845Y-107469215D01*
X136066246Y-107450000D01*
X135967754Y-107450000D01*
X135871155Y-107469215D01*
X135780161Y-107506906D01*
X135698269Y-107561625D01*
X135628625Y-107631269D01*
X135573906Y-107713161D01*
X135536215Y-107804155D01*
X135517000Y-107900754D01*
X135517000Y-107999246D01*
X135536215Y-108095845D01*
X135573906Y-108186839D01*
X135628625Y-108268731D01*
X135698269Y-108338375D01*
X135714990Y-108349548D01*
X135630522Y-108314560D01*
X135533923Y-108295345D01*
X135435431Y-108295345D01*
X135338832Y-108314560D01*
X135247838Y-108352251D01*
X135165946Y-108406970D01*
X135096302Y-108476614D01*
X135041583Y-108558506D01*
X135003892Y-108649500D01*
X134984677Y-108746099D01*
X133258465Y-108746099D01*
X133241845Y-108739215D01*
X133145246Y-108720000D01*
X133046754Y-108720000D01*
X132950155Y-108739215D01*
X132859161Y-108776906D01*
X132777269Y-108831625D01*
X132707625Y-108901269D01*
X132652906Y-108983161D01*
X132615215Y-109074155D01*
X132596000Y-109170754D01*
X123070000Y-109170754D01*
X123070000Y-109106735D01*
X123025806Y-108884557D01*
X122939116Y-108675271D01*
X122813263Y-108486918D01*
X122653082Y-108326737D01*
X122464729Y-108200884D01*
X122255443Y-108114194D01*
X122033265Y-108070000D01*
X121806735Y-108070000D01*
X121584557Y-108114194D01*
X121375271Y-108200884D01*
X121186918Y-108326737D01*
X121026737Y-108486918D01*
X120975000Y-108564348D01*
X120975000Y-107836735D01*
X124580000Y-107836735D01*
X124580000Y-108063265D01*
X124624194Y-108285443D01*
X124710884Y-108494729D01*
X124836737Y-108683082D01*
X124996918Y-108843263D01*
X125185271Y-108969116D01*
X125394557Y-109055806D01*
X125616735Y-109100000D01*
X125843265Y-109100000D01*
X126065443Y-109055806D01*
X126274729Y-108969116D01*
X126463082Y-108843263D01*
X126623263Y-108683082D01*
X126749116Y-108494729D01*
X126835806Y-108285443D01*
X126836539Y-108281754D01*
X132088000Y-108281754D01*
X132088000Y-108380246D01*
X132107215Y-108476845D01*
X132144906Y-108567839D01*
X132199625Y-108649731D01*
X132269269Y-108719375D01*
X132351161Y-108774094D01*
X132442155Y-108811785D01*
X132538754Y-108831000D01*
X132637246Y-108831000D01*
X132733845Y-108811785D01*
X132824839Y-108774094D01*
X132906731Y-108719375D01*
X132976375Y-108649731D01*
X133031094Y-108567839D01*
X133068785Y-108476845D01*
X133088000Y-108380246D01*
X133088000Y-108281754D01*
X133068785Y-108185155D01*
X133031094Y-108094161D01*
X132976375Y-108012269D01*
X132906731Y-107942625D01*
X132824839Y-107887906D01*
X132733845Y-107850215D01*
X132637246Y-107831000D01*
X132538754Y-107831000D01*
X132442155Y-107850215D01*
X132351161Y-107887906D01*
X132269269Y-107942625D01*
X132199625Y-108012269D01*
X132144906Y-108094161D01*
X132107215Y-108185155D01*
X132088000Y-108281754D01*
X126836539Y-108281754D01*
X126880000Y-108063265D01*
X126880000Y-107836735D01*
X126835806Y-107614557D01*
X126749116Y-107405271D01*
X126652298Y-107260372D01*
X131976920Y-107260372D01*
X131976920Y-107358864D01*
X131996135Y-107455463D01*
X132033826Y-107546457D01*
X132088545Y-107628349D01*
X132158189Y-107697993D01*
X132240081Y-107752712D01*
X132331075Y-107790403D01*
X132427674Y-107809618D01*
X132526166Y-107809618D01*
X132622765Y-107790403D01*
X132713759Y-107752712D01*
X132795651Y-107697993D01*
X132865295Y-107628349D01*
X132920014Y-107546457D01*
X132957705Y-107455463D01*
X132973261Y-107377256D01*
X134611432Y-107377256D01*
X134611432Y-107475748D01*
X134630647Y-107572347D01*
X134668338Y-107663341D01*
X134723057Y-107745233D01*
X134792701Y-107814877D01*
X134874593Y-107869596D01*
X134965587Y-107907287D01*
X135062186Y-107926502D01*
X135160678Y-107926502D01*
X135257277Y-107907287D01*
X135348271Y-107869596D01*
X135430163Y-107814877D01*
X135499807Y-107745233D01*
X135554526Y-107663341D01*
X135592217Y-107572347D01*
X135611432Y-107475748D01*
X135611432Y-107377256D01*
X135592217Y-107280657D01*
X135554526Y-107189663D01*
X135499807Y-107107771D01*
X135430163Y-107038127D01*
X135348271Y-106983408D01*
X135257277Y-106945717D01*
X135160678Y-106926502D01*
X135062186Y-106926502D01*
X134965587Y-106945717D01*
X134874593Y-106983408D01*
X134792701Y-107038127D01*
X134723057Y-107107771D01*
X134668338Y-107189663D01*
X134630647Y-107280657D01*
X134611432Y-107377256D01*
X132973261Y-107377256D01*
X132976920Y-107358864D01*
X132976920Y-107260372D01*
X132957705Y-107163773D01*
X132920014Y-107072779D01*
X132865295Y-106990887D01*
X132795651Y-106921243D01*
X132713759Y-106866524D01*
X132622765Y-106828833D01*
X132526166Y-106809618D01*
X132427674Y-106809618D01*
X132331075Y-106828833D01*
X132240081Y-106866524D01*
X132158189Y-106921243D01*
X132088545Y-106990887D01*
X132033826Y-107072779D01*
X131996135Y-107163773D01*
X131976920Y-107260372D01*
X126652298Y-107260372D01*
X126623263Y-107216918D01*
X126463082Y-107056737D01*
X126447507Y-107046330D01*
X126475857Y-107058073D01*
X126572456Y-107077288D01*
X126670948Y-107077288D01*
X126767547Y-107058073D01*
X126858541Y-107020382D01*
X126940433Y-106965663D01*
X127010077Y-106896019D01*
X127064796Y-106814127D01*
X127088146Y-106757754D01*
X136533000Y-106757754D01*
X136533000Y-106856246D01*
X136552215Y-106952845D01*
X136589906Y-107043839D01*
X136644625Y-107125731D01*
X136714269Y-107195375D01*
X136796161Y-107250094D01*
X136887155Y-107287785D01*
X136983754Y-107307000D01*
X137082246Y-107307000D01*
X137178845Y-107287785D01*
X137269839Y-107250094D01*
X137351731Y-107195375D01*
X137421375Y-107125731D01*
X137476094Y-107043839D01*
X137513785Y-106952845D01*
X137533000Y-106856246D01*
X137533000Y-106757754D01*
X137513785Y-106661155D01*
X137476094Y-106570161D01*
X137421375Y-106488269D01*
X137351731Y-106418625D01*
X137269839Y-106363906D01*
X137178845Y-106326215D01*
X137082246Y-106307000D01*
X136983754Y-106307000D01*
X136887155Y-106326215D01*
X136796161Y-106363906D01*
X136714269Y-106418625D01*
X136644625Y-106488269D01*
X136589906Y-106570161D01*
X136552215Y-106661155D01*
X136533000Y-106757754D01*
X127088146Y-106757754D01*
X127102487Y-106723133D01*
X127121702Y-106626534D01*
X127121702Y-106528042D01*
X127102487Y-106431443D01*
X127064796Y-106340449D01*
X127010077Y-106258557D01*
X126940433Y-106188913D01*
X126858541Y-106134194D01*
X126781451Y-106102262D01*
X126781451Y-105296735D01*
X139820000Y-105296735D01*
X139820000Y-105523265D01*
X139864194Y-105745443D01*
X139950884Y-105954729D01*
X140076737Y-106143082D01*
X140236918Y-106303263D01*
X140425271Y-106429116D01*
X140634557Y-106515806D01*
X140856735Y-106560000D01*
X141083265Y-106560000D01*
X141305443Y-106515806D01*
X141514729Y-106429116D01*
X141703082Y-106303263D01*
X141863263Y-106143082D01*
X141989116Y-105954729D01*
X142075806Y-105745443D01*
X142120000Y-105523265D01*
X142120000Y-105296735D01*
X142075806Y-105074557D01*
X141989116Y-104865271D01*
X141863263Y-104676918D01*
X141703082Y-104516737D01*
X141514729Y-104390884D01*
X141305443Y-104304194D01*
X141083265Y-104260000D01*
X140856735Y-104260000D01*
X140634557Y-104304194D01*
X140425271Y-104390884D01*
X140236918Y-104516737D01*
X140076737Y-104676918D01*
X139950884Y-104865271D01*
X139864194Y-105074557D01*
X139820000Y-105296735D01*
X126781451Y-105296735D01*
X126781451Y-104660000D01*
X126775659Y-104601190D01*
X126758504Y-104544640D01*
X126730647Y-104492523D01*
X126693158Y-104446842D01*
X126647477Y-104409353D01*
X126595360Y-104381496D01*
X126538810Y-104364341D01*
X126480000Y-104358549D01*
X124980000Y-104358549D01*
X124921190Y-104364341D01*
X124864640Y-104381496D01*
X124812523Y-104409353D01*
X124766842Y-104446842D01*
X124729353Y-104492523D01*
X124701496Y-104544640D01*
X124684341Y-104601190D01*
X124678549Y-104660000D01*
X124678549Y-106160000D01*
X124684341Y-106218810D01*
X124701496Y-106275360D01*
X124729353Y-106327477D01*
X124766842Y-106373158D01*
X124812523Y-106410647D01*
X124864640Y-106438504D01*
X124921190Y-106455659D01*
X124980000Y-106461451D01*
X126134948Y-106461451D01*
X126121702Y-106528042D01*
X126121702Y-106626534D01*
X126140917Y-106723133D01*
X126178608Y-106814127D01*
X126233327Y-106896019D01*
X126263570Y-106926262D01*
X126065443Y-106844194D01*
X125843265Y-106800000D01*
X125616735Y-106800000D01*
X125394557Y-106844194D01*
X125185271Y-106930884D01*
X124996918Y-107056737D01*
X124836737Y-107216918D01*
X124710884Y-107405271D01*
X124624194Y-107614557D01*
X124580000Y-107836735D01*
X120975000Y-107836735D01*
X120975000Y-107335652D01*
X121026737Y-107413082D01*
X121186918Y-107573263D01*
X121375271Y-107699116D01*
X121584557Y-107785806D01*
X121806735Y-107830000D01*
X122033265Y-107830000D01*
X122255443Y-107785806D01*
X122464729Y-107699116D01*
X122653082Y-107573263D01*
X122813263Y-107413082D01*
X122939116Y-107224729D01*
X123025806Y-107015443D01*
X123070000Y-106793265D01*
X123070000Y-106566735D01*
X123025806Y-106344557D01*
X122939116Y-106135271D01*
X122813263Y-105946918D01*
X122653082Y-105786737D01*
X122464729Y-105660884D01*
X122255443Y-105574194D01*
X122033265Y-105530000D01*
X121806735Y-105530000D01*
X121584557Y-105574194D01*
X121375271Y-105660884D01*
X121186918Y-105786737D01*
X121026737Y-105946918D01*
X120975000Y-106024348D01*
X120975000Y-104795652D01*
X121026737Y-104873082D01*
X121186918Y-105033263D01*
X121375271Y-105159116D01*
X121584557Y-105245806D01*
X121806735Y-105290000D01*
X122033265Y-105290000D01*
X122255443Y-105245806D01*
X122464729Y-105159116D01*
X122653082Y-105033263D01*
X122813263Y-104873082D01*
X122939116Y-104684729D01*
X123025806Y-104475443D01*
X123070000Y-104253265D01*
X123070000Y-104026735D01*
X123025806Y-103804557D01*
X122939116Y-103595271D01*
X122813263Y-103406918D01*
X122728345Y-103322000D01*
X132081590Y-103322000D01*
X132041901Y-103417818D01*
G04 #@! TA.AperFunction,Conductor*
D17*
G36*
X132041901Y-103417818D02*
G01*
X132015000Y-103553056D01*
X132015000Y-103690944D01*
X132041901Y-103826182D01*
X132094668Y-103953574D01*
X132171274Y-104068224D01*
X132268776Y-104165726D01*
X132383426Y-104242332D01*
X132510818Y-104295099D01*
X132646056Y-104322000D01*
X132783944Y-104322000D01*
X132919182Y-104295099D01*
X133046574Y-104242332D01*
X133161224Y-104165726D01*
X133258726Y-104068224D01*
X133335332Y-103953574D01*
X133388099Y-103826182D01*
X133415000Y-103690944D01*
X133415000Y-103553056D01*
X133388099Y-103417818D01*
X133348410Y-103322000D01*
X138689732Y-103322000D01*
X138645901Y-103427818D01*
X138619000Y-103563056D01*
X138619000Y-103700944D01*
X138645901Y-103836182D01*
X138698668Y-103963574D01*
X138775274Y-104078224D01*
X138872776Y-104175726D01*
X138987426Y-104252332D01*
X139114818Y-104305099D01*
X139250056Y-104332000D01*
X139387944Y-104332000D01*
X139523182Y-104305099D01*
X139650574Y-104252332D01*
X139765224Y-104175726D01*
X139862726Y-104078224D01*
X139939332Y-103963574D01*
X139992099Y-103836182D01*
X140019000Y-103700944D01*
X140019000Y-103563056D01*
X139992099Y-103427818D01*
X139948268Y-103322000D01*
X142804000Y-103322000D01*
X142804001Y-127818000D01*
X131719652Y-127818000D01*
X131797082Y-127766263D01*
X131957263Y-127606082D01*
X132083116Y-127417729D01*
X132169806Y-127208443D01*
X132214000Y-126986265D01*
X132214000Y-126759735D01*
X132169806Y-126537557D01*
X132083116Y-126328271D01*
X131957263Y-126139918D01*
X131797082Y-125979737D01*
X131608729Y-125853884D01*
X131399443Y-125767194D01*
X131177265Y-125723000D01*
X130950735Y-125723000D01*
X130728557Y-125767194D01*
X130519271Y-125853884D01*
X130330918Y-125979737D01*
X130170737Y-126139918D01*
X130044884Y-126328271D01*
X129958194Y-126537557D01*
X129922103Y-126718998D01*
X129820890Y-126718998D01*
X129931903Y-126494090D01*
X129905146Y-126405861D01*
X129787473Y-126145389D01*
X129621246Y-125912878D01*
X129412852Y-125717264D01*
X129251585Y-125616735D01*
X139820000Y-125616735D01*
X139820000Y-125843265D01*
X139864194Y-126065443D01*
X139950884Y-126274729D01*
X140076737Y-126463082D01*
X140236918Y-126623263D01*
X140425271Y-126749116D01*
X140634557Y-126835806D01*
X140856735Y-126880000D01*
X141083265Y-126880000D01*
X141305443Y-126835806D01*
X141514729Y-126749116D01*
X141703082Y-126623263D01*
X141863263Y-126463082D01*
X141989116Y-126274729D01*
X142075806Y-126065443D01*
X142120000Y-125843265D01*
X142120000Y-125616735D01*
X142075806Y-125394557D01*
X141989116Y-125185271D01*
X141863263Y-124996918D01*
X141703082Y-124836737D01*
X141514729Y-124710884D01*
X141305443Y-124624194D01*
X141083265Y-124580000D01*
X140856735Y-124580000D01*
X140634557Y-124624194D01*
X140425271Y-124710884D01*
X140236918Y-124836737D01*
X140076737Y-124996918D01*
X139950884Y-125185271D01*
X139864194Y-125394557D01*
X139820000Y-125616735D01*
X129251585Y-125616735D01*
X129170300Y-125566065D01*
X128902911Y-125465091D01*
X128678002Y-125575149D01*
X128678002Y-125474897D01*
X128859443Y-125438806D01*
X129068729Y-125352116D01*
X129257082Y-125226263D01*
X129417263Y-125066082D01*
X129543116Y-124877729D01*
X129629806Y-124668443D01*
X129674000Y-124446265D01*
X129674000Y-124219735D01*
X129914000Y-124219735D01*
X129914000Y-124446265D01*
X129958194Y-124668443D01*
X130044884Y-124877729D01*
X130170737Y-125066082D01*
X130330918Y-125226263D01*
X130519271Y-125352116D01*
X130728557Y-125438806D01*
X130950735Y-125483000D01*
X131177265Y-125483000D01*
X131399443Y-125438806D01*
X131608729Y-125352116D01*
X131797082Y-125226263D01*
X131957263Y-125066082D01*
X132083116Y-124877729D01*
X132169806Y-124668443D01*
X132214000Y-124446265D01*
X132214000Y-124219735D01*
X132169806Y-123997557D01*
X132083116Y-123788271D01*
X131957263Y-123599918D01*
X131797082Y-123439737D01*
X131608729Y-123313884D01*
X131399443Y-123227194D01*
X131177265Y-123183000D01*
X130950735Y-123183000D01*
X130728557Y-123227194D01*
X130519271Y-123313884D01*
X130330918Y-123439737D01*
X130170737Y-123599918D01*
X130044884Y-123788271D01*
X129958194Y-123997557D01*
X129914000Y-124219735D01*
X129674000Y-124219735D01*
X129629806Y-123997557D01*
X129543116Y-123788271D01*
X129417263Y-123599918D01*
X129257082Y-123439737D01*
X129068729Y-123313884D01*
X128859443Y-123227194D01*
X128637265Y-123183000D01*
X128410735Y-123183000D01*
X128188557Y-123227194D01*
X127979271Y-123313884D01*
X127790918Y-123439737D01*
X127630737Y-123599918D01*
X127504884Y-123788271D01*
X127418194Y-123997557D01*
X127374000Y-124219735D01*
X127374000Y-124446265D01*
X127418194Y-124668443D01*
X127504884Y-124877729D01*
X127630737Y-125066082D01*
X127790918Y-125226263D01*
X127979271Y-125352116D01*
X128188557Y-125438806D01*
X128369998Y-125474897D01*
X128369998Y-125575149D01*
X128145089Y-125465091D01*
X127877700Y-125566065D01*
X127635148Y-125717264D01*
X127426754Y-125912878D01*
X127260527Y-126145389D01*
X127142854Y-126405861D01*
X127116097Y-126494090D01*
X127227111Y-126719000D01*
X128370000Y-126719000D01*
X128370000Y-126699000D01*
X128678000Y-126699000D01*
X128678000Y-126719000D01*
X128698000Y-126719000D01*
X128698000Y-127027000D01*
X128678000Y-127027000D01*
X128678000Y-127047000D01*
X128370000Y-127047000D01*
X128370000Y-127027000D01*
X127227111Y-127027000D01*
X127116097Y-127251910D01*
X127142854Y-127340139D01*
X127260527Y-127600611D01*
X127415943Y-127818000D01*
X123071451Y-127818000D01*
X123071451Y-126150000D01*
X123065659Y-126091190D01*
X123048504Y-126034640D01*
X123020647Y-125982523D01*
X122983158Y-125936842D01*
X122937477Y-125899353D01*
X122885360Y-125871496D01*
X122828810Y-125854341D01*
X122770000Y-125848549D01*
X121070000Y-125848549D01*
X121011190Y-125854341D01*
X120975000Y-125865320D01*
X120975000Y-125616735D01*
X124580000Y-125616735D01*
X124580000Y-125843265D01*
X124624194Y-126065443D01*
X124710884Y-126274729D01*
X124836737Y-126463082D01*
X124996918Y-126623263D01*
X125185271Y-126749116D01*
X125394557Y-126835806D01*
X125616735Y-126880000D01*
X125843265Y-126880000D01*
X126065443Y-126835806D01*
X126274729Y-126749116D01*
X126463082Y-126623263D01*
X126623263Y-126463082D01*
X126749116Y-126274729D01*
X126835806Y-126065443D01*
X126880000Y-125843265D01*
X126880000Y-125616735D01*
X126835806Y-125394557D01*
X126749116Y-125185271D01*
X126623263Y-124996918D01*
X126463082Y-124836737D01*
X126274729Y-124710884D01*
X126065443Y-124624194D01*
X125843265Y-124580000D01*
X125616735Y-124580000D01*
X125394557Y-124624194D01*
X125185271Y-124710884D01*
X124996918Y-124836737D01*
X124836737Y-124996918D01*
X124710884Y-125185271D01*
X124624194Y-125394557D01*
X124580000Y-125616735D01*
X120975000Y-125616735D01*
X120975000Y-125115652D01*
X121026737Y-125193082D01*
X121186918Y-125353263D01*
X121375271Y-125479116D01*
X121584557Y-125565806D01*
X121806735Y-125610000D01*
X122033265Y-125610000D01*
X122255443Y-125565806D01*
X122464729Y-125479116D01*
X122653082Y-125353263D01*
X122813263Y-125193082D01*
X122939116Y-125004729D01*
X123025806Y-124795443D01*
X123070000Y-124573265D01*
X123070000Y-124346735D01*
X123025806Y-124124557D01*
X122939116Y-123915271D01*
X122813263Y-123726918D01*
X122653082Y-123566737D01*
X122464729Y-123440884D01*
X122255443Y-123354194D01*
X122033265Y-123310000D01*
X121806735Y-123310000D01*
X121584557Y-123354194D01*
X121375271Y-123440884D01*
X121186918Y-123566737D01*
X121026737Y-123726918D01*
X120975000Y-123804348D01*
X120975000Y-123076735D01*
X124580000Y-123076735D01*
X124580000Y-123303265D01*
X124624194Y-123525443D01*
X124710884Y-123734729D01*
X124836737Y-123923082D01*
X124996918Y-124083263D01*
X125185271Y-124209116D01*
X125394557Y-124295806D01*
X125616735Y-124340000D01*
X125843265Y-124340000D01*
X126065443Y-124295806D01*
X126274729Y-124209116D01*
X126463082Y-124083263D01*
X126623263Y-123923082D01*
X126749116Y-123734729D01*
X126835806Y-123525443D01*
X126880000Y-123303265D01*
X126880000Y-123076735D01*
X139820000Y-123076735D01*
X139820000Y-123303265D01*
X139864194Y-123525443D01*
X139950884Y-123734729D01*
X140076737Y-123923082D01*
X140236918Y-124083263D01*
X140425271Y-124209116D01*
X140634557Y-124295806D01*
X140856735Y-124340000D01*
X141083265Y-124340000D01*
X141305443Y-124295806D01*
X141514729Y-124209116D01*
X141703082Y-124083263D01*
X141863263Y-123923082D01*
X141989116Y-123734729D01*
X142075806Y-123525443D01*
X142120000Y-123303265D01*
X142120000Y-123076735D01*
X142075806Y-122854557D01*
X141989116Y-122645271D01*
X141863263Y-122456918D01*
X141703082Y-122296737D01*
X141514729Y-122170884D01*
X141305443Y-122084194D01*
X141083265Y-122040000D01*
X140856735Y-122040000D01*
X140634557Y-122084194D01*
X140425271Y-122170884D01*
X140236918Y-122296737D01*
X140076737Y-122456918D01*
X139950884Y-122645271D01*
X139864194Y-122854557D01*
X139820000Y-123076735D01*
X126880000Y-123076735D01*
X126835806Y-122854557D01*
X126749116Y-122645271D01*
X126623263Y-122456918D01*
X126463082Y-122296737D01*
X126274729Y-122170884D01*
X126065443Y-122084194D01*
X125843265Y-122040000D01*
X125616735Y-122040000D01*
X125394557Y-122084194D01*
X125185271Y-122170884D01*
X124996918Y-122296737D01*
X124836737Y-122456918D01*
X124710884Y-122645271D01*
X124624194Y-122854557D01*
X124580000Y-123076735D01*
X120975000Y-123076735D01*
X120975000Y-122575652D01*
X121026737Y-122653082D01*
X121186918Y-122813263D01*
X121375271Y-122939116D01*
X121584557Y-123025806D01*
X121806735Y-123070000D01*
X122033265Y-123070000D01*
X122255443Y-123025806D01*
X122464729Y-122939116D01*
X122653082Y-122813263D01*
X122813263Y-122653082D01*
X122939116Y-122464729D01*
X123025806Y-122255443D01*
X123070000Y-122033265D01*
X123070000Y-121806735D01*
X123025806Y-121584557D01*
X122939116Y-121375271D01*
X122813263Y-121186918D01*
X122653082Y-121026737D01*
X122464729Y-120900884D01*
X122255443Y-120814194D01*
X122033265Y-120770000D01*
X121806735Y-120770000D01*
X121584557Y-120814194D01*
X121375271Y-120900884D01*
X121186918Y-121026737D01*
X121026737Y-121186918D01*
X120975000Y-121264348D01*
X120975000Y-120536735D01*
X124580000Y-120536735D01*
X124580000Y-120763265D01*
X124624194Y-120985443D01*
X124710884Y-121194729D01*
X124836737Y-121383082D01*
X124996918Y-121543263D01*
X125185271Y-121669116D01*
X125394557Y-121755806D01*
X125616735Y-121800000D01*
X125843265Y-121800000D01*
X126065443Y-121755806D01*
X126249092Y-121679735D01*
X127374000Y-121679735D01*
X127374000Y-121906265D01*
X127418194Y-122128443D01*
X127504884Y-122337729D01*
X127630737Y-122526082D01*
X127790918Y-122686263D01*
X127979271Y-122812116D01*
X128188557Y-122898806D01*
X128410735Y-122943000D01*
X128637265Y-122943000D01*
X128859443Y-122898806D01*
X129068729Y-122812116D01*
X129257082Y-122686263D01*
X129417263Y-122526082D01*
X129543116Y-122337729D01*
X129629806Y-122128443D01*
X129674000Y-121906265D01*
X129674000Y-121679735D01*
X129629806Y-121457557D01*
X129543116Y-121248271D01*
X129417263Y-121059918D01*
X129300345Y-120943000D01*
X129912549Y-120943000D01*
X129912549Y-122643000D01*
X129918341Y-122701810D01*
X129935496Y-122758360D01*
X129963353Y-122810477D01*
X130000842Y-122856158D01*
X130046523Y-122893647D01*
X130098640Y-122921504D01*
X130155190Y-122938659D01*
X130214000Y-122944451D01*
X131914000Y-122944451D01*
X131972810Y-122938659D01*
X132029360Y-122921504D01*
X132081477Y-122893647D01*
X132127158Y-122856158D01*
X132164647Y-122810477D01*
X132192504Y-122758360D01*
X132209659Y-122701810D01*
X132215451Y-122643000D01*
X132215451Y-122606513D01*
X132234215Y-122700845D01*
X132271906Y-122791839D01*
X132326625Y-122873731D01*
X132396269Y-122943375D01*
X132478161Y-122998094D01*
X132569155Y-123035785D01*
X132665754Y-123055000D01*
X132764246Y-123055000D01*
X132860845Y-123035785D01*
X132951839Y-122998094D01*
X133033731Y-122943375D01*
X133103375Y-122873731D01*
X133158094Y-122791839D01*
X133195785Y-122700845D01*
X133215000Y-122604246D01*
X133215000Y-122505754D01*
X133195785Y-122409155D01*
X133158094Y-122318161D01*
X133103375Y-122236269D01*
X133033731Y-122166625D01*
X132951839Y-122111906D01*
X132860845Y-122074215D01*
X132764246Y-122055000D01*
X132665754Y-122055000D01*
X132569155Y-122074215D01*
X132478161Y-122111906D01*
X132396269Y-122166625D01*
X132326625Y-122236269D01*
X132271906Y-122318161D01*
X132234215Y-122409155D01*
X132215451Y-122503487D01*
X132215451Y-120943000D01*
X132209659Y-120884190D01*
X132192504Y-120827640D01*
X132164647Y-120775523D01*
X132127158Y-120729842D01*
X132081477Y-120692353D01*
X132029360Y-120664496D01*
X131972810Y-120647341D01*
X131914000Y-120641549D01*
X130214000Y-120641549D01*
X130155190Y-120647341D01*
X130098640Y-120664496D01*
X130046523Y-120692353D01*
X130000842Y-120729842D01*
X129963353Y-120775523D01*
X129935496Y-120827640D01*
X129918341Y-120884190D01*
X129912549Y-120943000D01*
X129300345Y-120943000D01*
X129257082Y-120899737D01*
X129170762Y-120842060D01*
X129197099Y-120778477D01*
X129224000Y-120643239D01*
X129224000Y-120536735D01*
X139820000Y-120536735D01*
X139820000Y-120763265D01*
X139864194Y-120985443D01*
X139950884Y-121194729D01*
X140076737Y-121383082D01*
X140236918Y-121543263D01*
X140425271Y-121669116D01*
X140634557Y-121755806D01*
X140856735Y-121800000D01*
X141083265Y-121800000D01*
X141305443Y-121755806D01*
X141514729Y-121669116D01*
X141703082Y-121543263D01*
X141863263Y-121383082D01*
X141989116Y-121194729D01*
X142075806Y-120985443D01*
X142120000Y-120763265D01*
X142120000Y-120536735D01*
X142075806Y-120314557D01*
X141989116Y-120105271D01*
X141910348Y-119987386D01*
X141948733Y-119995021D01*
X142047225Y-119995021D01*
X142143824Y-119975806D01*
X142234818Y-119938115D01*
X142316710Y-119883396D01*
X142386354Y-119813752D01*
X142441073Y-119731860D01*
X142478764Y-119640866D01*
X142497979Y-119544267D01*
X142497979Y-119445775D01*
X142478764Y-119349176D01*
X142441073Y-119258182D01*
X142386354Y-119176290D01*
X142316710Y-119106646D01*
X142234818Y-119051927D01*
X142143824Y-119014236D01*
X142047225Y-118995021D01*
X141948733Y-118995021D01*
X141852134Y-119014236D01*
X141761140Y-119051927D01*
X141679248Y-119106646D01*
X141609604Y-119176290D01*
X141554885Y-119258182D01*
X141517194Y-119349176D01*
X141497979Y-119445775D01*
X141497979Y-119544267D01*
X141515282Y-119631253D01*
X141514729Y-119630884D01*
X141305443Y-119544194D01*
X141083265Y-119500000D01*
X140856735Y-119500000D01*
X140634557Y-119544194D01*
X140425271Y-119630884D01*
X140236918Y-119756737D01*
X140076737Y-119916918D01*
X139950884Y-120105271D01*
X139864194Y-120314557D01*
X139820000Y-120536735D01*
X129224000Y-120536735D01*
X129224000Y-120505351D01*
X129197099Y-120370113D01*
X129144332Y-120242721D01*
X129067726Y-120128071D01*
X128970224Y-120030569D01*
X128855574Y-119953963D01*
X128728182Y-119901196D01*
X128592944Y-119874295D01*
X128455056Y-119874295D01*
X128319818Y-119901196D01*
X128192426Y-119953963D01*
X128077776Y-120030569D01*
X127980274Y-120128071D01*
X127903668Y-120242721D01*
X127850901Y-120370113D01*
X127824000Y-120505351D01*
X127824000Y-120643239D01*
X127850901Y-120778477D01*
X127877238Y-120842060D01*
X127790918Y-120899737D01*
X127630737Y-121059918D01*
X127504884Y-121248271D01*
X127418194Y-121457557D01*
X127374000Y-121679735D01*
X126249092Y-121679735D01*
X126274729Y-121669116D01*
X126463082Y-121543263D01*
X126623263Y-121383082D01*
X126749116Y-121194729D01*
X126835806Y-120985443D01*
X126880000Y-120763265D01*
X126880000Y-120536735D01*
X126835806Y-120314557D01*
X126749116Y-120105271D01*
X126623263Y-119916918D01*
X126545099Y-119838754D01*
X134628000Y-119838754D01*
X134628000Y-119937246D01*
X134647215Y-120033845D01*
X134684906Y-120124839D01*
X134739625Y-120206731D01*
X134809269Y-120276375D01*
X134891161Y-120331094D01*
X134982155Y-120368785D01*
X135078754Y-120388000D01*
X135177246Y-120388000D01*
X135273845Y-120368785D01*
X135364839Y-120331094D01*
X135446731Y-120276375D01*
X135516375Y-120206731D01*
X135571094Y-120124839D01*
X135608785Y-120033845D01*
X135628000Y-119937246D01*
X135628000Y-119838754D01*
X135608785Y-119742155D01*
X135571094Y-119651161D01*
X135516375Y-119569269D01*
X135446731Y-119499625D01*
X135364839Y-119444906D01*
X135273845Y-119407215D01*
X135177246Y-119388000D01*
X135078754Y-119388000D01*
X134982155Y-119407215D01*
X134891161Y-119444906D01*
X134809269Y-119499625D01*
X134739625Y-119569269D01*
X134684906Y-119651161D01*
X134647215Y-119742155D01*
X134628000Y-119838754D01*
X126545099Y-119838754D01*
X126463082Y-119756737D01*
X126274729Y-119630884D01*
X126065443Y-119544194D01*
X125843265Y-119500000D01*
X125616735Y-119500000D01*
X125394557Y-119544194D01*
X125185271Y-119630884D01*
X124996918Y-119756737D01*
X124836737Y-119916918D01*
X124710884Y-120105271D01*
X124624194Y-120314557D01*
X124580000Y-120536735D01*
X120975000Y-120536735D01*
X120975000Y-120035652D01*
X121026737Y-120113082D01*
X121186918Y-120273263D01*
X121375271Y-120399116D01*
X121584557Y-120485806D01*
X121806735Y-120530000D01*
X122033265Y-120530000D01*
X122255443Y-120485806D01*
X122464729Y-120399116D01*
X122653082Y-120273263D01*
X122813263Y-120113082D01*
X122939116Y-119924729D01*
X123025806Y-119715443D01*
X123070000Y-119493265D01*
X123070000Y-119266735D01*
X123025806Y-119044557D01*
X122939116Y-118835271D01*
X122813263Y-118646918D01*
X122754719Y-118588374D01*
X123680929Y-118588374D01*
X123680929Y-118686866D01*
X123700144Y-118783465D01*
X123737835Y-118874459D01*
X123792554Y-118956351D01*
X123862198Y-119025995D01*
X123944090Y-119080714D01*
X124035084Y-119118405D01*
X124131683Y-119137620D01*
X124230175Y-119137620D01*
X124326774Y-119118405D01*
X124417768Y-119080714D01*
X124499660Y-119025995D01*
X124569304Y-118956351D01*
X124624023Y-118874459D01*
X124661714Y-118783465D01*
X124680929Y-118686866D01*
X124680929Y-118588374D01*
X124678647Y-118576904D01*
X124710884Y-118654729D01*
X124836737Y-118843082D01*
X124996918Y-119003263D01*
X125185271Y-119129116D01*
X125394557Y-119215806D01*
X125616735Y-119260000D01*
X125843265Y-119260000D01*
X126065443Y-119215806D01*
X126274729Y-119129116D01*
X126463082Y-119003263D01*
X126623263Y-118843082D01*
X126729700Y-118683787D01*
X129675000Y-118683787D01*
X129675000Y-118782279D01*
X129694215Y-118878878D01*
X129731906Y-118969872D01*
X129786625Y-119051764D01*
X129856269Y-119121408D01*
X129938161Y-119176127D01*
X130029155Y-119213818D01*
X130125754Y-119233033D01*
X130224246Y-119233033D01*
X130320845Y-119213818D01*
X130411839Y-119176127D01*
X130493731Y-119121408D01*
X130563375Y-119051764D01*
X130618094Y-118969872D01*
X130655785Y-118878878D01*
X130675000Y-118782279D01*
X130675000Y-118683787D01*
X130655785Y-118587188D01*
X130618094Y-118496194D01*
X130563375Y-118414302D01*
X130493731Y-118344658D01*
X130411839Y-118289939D01*
X130320845Y-118252248D01*
X130224246Y-118233033D01*
X130125754Y-118233033D01*
X130029155Y-118252248D01*
X129938161Y-118289939D01*
X129856269Y-118344658D01*
X129786625Y-118414302D01*
X129731906Y-118496194D01*
X129694215Y-118587188D01*
X129675000Y-118683787D01*
X126729700Y-118683787D01*
X126749116Y-118654729D01*
X126835806Y-118445443D01*
X126880000Y-118223265D01*
X126880000Y-117996735D01*
X126835806Y-117774557D01*
X126803638Y-117696897D01*
X128058032Y-117696897D01*
X128058032Y-117795389D01*
X128077247Y-117891988D01*
X128114938Y-117982982D01*
X128169657Y-118064874D01*
X128239301Y-118134518D01*
X128321193Y-118189237D01*
X128412187Y-118226928D01*
X128508786Y-118246143D01*
X128607278Y-118246143D01*
X128703877Y-118226928D01*
X128794871Y-118189237D01*
X128876763Y-118134518D01*
X128946407Y-118064874D01*
X129001126Y-117982982D01*
X129001326Y-117982499D01*
X131580589Y-117982499D01*
X131580589Y-118080991D01*
X131599804Y-118177590D01*
X131637495Y-118268584D01*
X131692214Y-118350476D01*
X131761858Y-118420120D01*
X131843750Y-118474839D01*
X131934744Y-118512530D01*
X132031343Y-118531745D01*
X132129835Y-118531745D01*
X132226434Y-118512530D01*
X132317428Y-118474839D01*
X132399320Y-118420120D01*
X132468964Y-118350476D01*
X132523683Y-118268584D01*
X132561374Y-118177590D01*
X132563271Y-118168050D01*
X135444000Y-118168050D01*
X135444000Y-118305938D01*
X135470901Y-118441176D01*
X135523668Y-118568568D01*
X135600274Y-118683218D01*
X135697776Y-118780720D01*
X135812426Y-118857326D01*
X135939818Y-118910093D01*
X136075056Y-118936994D01*
X136212944Y-118936994D01*
X136348182Y-118910093D01*
X136475574Y-118857326D01*
X136590224Y-118780720D01*
X136687726Y-118683218D01*
X136764207Y-118568754D01*
X136787000Y-118568754D01*
X136787000Y-118667246D01*
X136806215Y-118763845D01*
X136843906Y-118854839D01*
X136898625Y-118936731D01*
X136968269Y-119006375D01*
X137050161Y-119061094D01*
X137141155Y-119098785D01*
X137237754Y-119118000D01*
X137336246Y-119118000D01*
X137432845Y-119098785D01*
X137523839Y-119061094D01*
X137605731Y-119006375D01*
X137675375Y-118936731D01*
X137730094Y-118854839D01*
X137767785Y-118763845D01*
X137787000Y-118667246D01*
X137787000Y-118568754D01*
X137767785Y-118472155D01*
X137730094Y-118381161D01*
X137675375Y-118299269D01*
X137605731Y-118229625D01*
X137523839Y-118174906D01*
X137432845Y-118137215D01*
X137336246Y-118118000D01*
X137237754Y-118118000D01*
X137141155Y-118137215D01*
X137050161Y-118174906D01*
X136968269Y-118229625D01*
X136898625Y-118299269D01*
X136843906Y-118381161D01*
X136806215Y-118472155D01*
X136787000Y-118568754D01*
X136764207Y-118568754D01*
X136764332Y-118568568D01*
X136817099Y-118441176D01*
X136844000Y-118305938D01*
X136844000Y-118168050D01*
X136817099Y-118032812D01*
X136802156Y-117996735D01*
X139820000Y-117996735D01*
X139820000Y-118223265D01*
X139864194Y-118445443D01*
X139950884Y-118654729D01*
X140076737Y-118843082D01*
X140236918Y-119003263D01*
X140425271Y-119129116D01*
X140634557Y-119215806D01*
X140856735Y-119260000D01*
X141083265Y-119260000D01*
X141305443Y-119215806D01*
X141514729Y-119129116D01*
X141703082Y-119003263D01*
X141863263Y-118843082D01*
X141989116Y-118654729D01*
X142075806Y-118445443D01*
X142120000Y-118223265D01*
X142120000Y-117996735D01*
X142075806Y-117774557D01*
X141989116Y-117565271D01*
X141969841Y-117536424D01*
X142050731Y-117482375D01*
X142120375Y-117412731D01*
X142175094Y-117330839D01*
X142212785Y-117239845D01*
X142232000Y-117143246D01*
X142232000Y-117044754D01*
X142212785Y-116948155D01*
X142175094Y-116857161D01*
X142120375Y-116775269D01*
X142050731Y-116705625D01*
X141968839Y-116650906D01*
X141877845Y-116613215D01*
X141781246Y-116594000D01*
X141682754Y-116594000D01*
X141586155Y-116613215D01*
X141495161Y-116650906D01*
X141413269Y-116705625D01*
X141343625Y-116775269D01*
X141288906Y-116857161D01*
X141251215Y-116948155D01*
X141242556Y-116991685D01*
X141083265Y-116960000D01*
X140856735Y-116960000D01*
X140634557Y-117004194D01*
X140425271Y-117090884D01*
X140236918Y-117216737D01*
X140076737Y-117376918D01*
X139950884Y-117565271D01*
X139864194Y-117774557D01*
X139820000Y-117996735D01*
X136802156Y-117996735D01*
X136764332Y-117905420D01*
X136687726Y-117790770D01*
X136590224Y-117693268D01*
X136475574Y-117616662D01*
X136348182Y-117563895D01*
X136212944Y-117536994D01*
X136075056Y-117536994D01*
X135939818Y-117563895D01*
X135812426Y-117616662D01*
X135697776Y-117693268D01*
X135600274Y-117790770D01*
X135523668Y-117905420D01*
X135470901Y-118032812D01*
X135444000Y-118168050D01*
X132563271Y-118168050D01*
X132580589Y-118080991D01*
X132580589Y-117982499D01*
X132561374Y-117885900D01*
X132523683Y-117794906D01*
X132468964Y-117713014D01*
X132399320Y-117643370D01*
X132317428Y-117588651D01*
X132226434Y-117550960D01*
X132129835Y-117531745D01*
X132031343Y-117531745D01*
X131934744Y-117550960D01*
X131843750Y-117588651D01*
X131761858Y-117643370D01*
X131692214Y-117713014D01*
X131637495Y-117794906D01*
X131599804Y-117885900D01*
X131580589Y-117982499D01*
X129001326Y-117982499D01*
X129038817Y-117891988D01*
X129058032Y-117795389D01*
X129058032Y-117696897D01*
X129038817Y-117600298D01*
X129001126Y-117509304D01*
X128946407Y-117427412D01*
X128876763Y-117357768D01*
X128794871Y-117303049D01*
X128703877Y-117265358D01*
X128607278Y-117246143D01*
X128508786Y-117246143D01*
X128412187Y-117265358D01*
X128321193Y-117303049D01*
X128239301Y-117357768D01*
X128169657Y-117427412D01*
X128114938Y-117509304D01*
X128077247Y-117600298D01*
X128058032Y-117696897D01*
X126803638Y-117696897D01*
X126749116Y-117565271D01*
X126623263Y-117376918D01*
X126463082Y-117216737D01*
X126274729Y-117090884D01*
X126065443Y-117004194D01*
X125843265Y-116960000D01*
X125616735Y-116960000D01*
X125394557Y-117004194D01*
X125185271Y-117090884D01*
X124996918Y-117216737D01*
X124917433Y-117296222D01*
X124940785Y-117239845D01*
X124960000Y-117143246D01*
X124960000Y-117044754D01*
X124940785Y-116948155D01*
X124928190Y-116917748D01*
X127008000Y-116917748D01*
X127008000Y-117016240D01*
X127027215Y-117112839D01*
X127064906Y-117203833D01*
X127119625Y-117285725D01*
X127189269Y-117355369D01*
X127271161Y-117410088D01*
X127362155Y-117447779D01*
X127458754Y-117466994D01*
X127557246Y-117466994D01*
X127653845Y-117447779D01*
X127744839Y-117410088D01*
X127826731Y-117355369D01*
X127896375Y-117285725D01*
X127951094Y-117203833D01*
X127988785Y-117112839D01*
X128002328Y-117044754D01*
X131959836Y-117044754D01*
X131959836Y-117143246D01*
X131979051Y-117239845D01*
X132016742Y-117330839D01*
X132071461Y-117412731D01*
X132141105Y-117482375D01*
X132222997Y-117537094D01*
X132313991Y-117574785D01*
X132410590Y-117594000D01*
X132509082Y-117594000D01*
X132605681Y-117574785D01*
X132696675Y-117537094D01*
X132778567Y-117482375D01*
X132848211Y-117412731D01*
X132902930Y-117330839D01*
X132940621Y-117239845D01*
X132959836Y-117143246D01*
X132959836Y-117044754D01*
X132940621Y-116948155D01*
X132902930Y-116857161D01*
X132848211Y-116775269D01*
X132778567Y-116705625D01*
X132715904Y-116663754D01*
X139327000Y-116663754D01*
X139327000Y-116762246D01*
X139346215Y-116858845D01*
X139383906Y-116949839D01*
X139438625Y-117031731D01*
X139508269Y-117101375D01*
X139590161Y-117156094D01*
X139681155Y-117193785D01*
X139777754Y-117213000D01*
X139876246Y-117213000D01*
X139972845Y-117193785D01*
X140063839Y-117156094D01*
X140145731Y-117101375D01*
X140215375Y-117031731D01*
X140270094Y-116949839D01*
X140307785Y-116858845D01*
X140327000Y-116762246D01*
X140327000Y-116663754D01*
X140307785Y-116567155D01*
X140275403Y-116488978D01*
X140425271Y-116589116D01*
X140634557Y-116675806D01*
X140856735Y-116720000D01*
X141083265Y-116720000D01*
X141305443Y-116675806D01*
X141514729Y-116589116D01*
X141703082Y-116463263D01*
X141863263Y-116303082D01*
X141989116Y-116114729D01*
X142075806Y-115905443D01*
X142120000Y-115683265D01*
X142120000Y-115456735D01*
X142075806Y-115234557D01*
X141989116Y-115025271D01*
X141863263Y-114836918D01*
X141703082Y-114676737D01*
X141514729Y-114550884D01*
X141305443Y-114464194D01*
X141083265Y-114420000D01*
X140856735Y-114420000D01*
X140634557Y-114464194D01*
X140425271Y-114550884D01*
X140236918Y-114676737D01*
X140076737Y-114836918D01*
X139950884Y-115025271D01*
X139864194Y-115234557D01*
X139820000Y-115456735D01*
X139820000Y-115683265D01*
X139864194Y-115905443D01*
X139950884Y-116114729D01*
X140051022Y-116264597D01*
X139972845Y-116232215D01*
X139876246Y-116213000D01*
X139777754Y-116213000D01*
X139681155Y-116232215D01*
X139590161Y-116269906D01*
X139508269Y-116324625D01*
X139438625Y-116394269D01*
X139383906Y-116476161D01*
X139346215Y-116567155D01*
X139327000Y-116663754D01*
X132715904Y-116663754D01*
X132696675Y-116650906D01*
X132605681Y-116613215D01*
X132509082Y-116594000D01*
X132410590Y-116594000D01*
X132313991Y-116613215D01*
X132222997Y-116650906D01*
X132141105Y-116705625D01*
X132071461Y-116775269D01*
X132016742Y-116857161D01*
X131979051Y-116948155D01*
X131959836Y-117044754D01*
X128002328Y-117044754D01*
X128008000Y-117016240D01*
X128008000Y-116941267D01*
X128097150Y-116959000D01*
X128195642Y-116959000D01*
X128292241Y-116939785D01*
X128383235Y-116902094D01*
X128465127Y-116847375D01*
X128534771Y-116777731D01*
X128589490Y-116695839D01*
X128627181Y-116604845D01*
X128646396Y-116508246D01*
X128646396Y-116409754D01*
X128627181Y-116313155D01*
X128589490Y-116222161D01*
X128534771Y-116140269D01*
X128465127Y-116070625D01*
X128383235Y-116015906D01*
X128292241Y-115978215D01*
X128195642Y-115959000D01*
X128097150Y-115959000D01*
X128000551Y-115978215D01*
X127909557Y-116015906D01*
X127827665Y-116070625D01*
X127758021Y-116140269D01*
X127703302Y-116222161D01*
X127665611Y-116313155D01*
X127646396Y-116409754D01*
X127646396Y-116484727D01*
X127557246Y-116466994D01*
X127458754Y-116466994D01*
X127362155Y-116486209D01*
X127271161Y-116523900D01*
X127189269Y-116578619D01*
X127119625Y-116648263D01*
X127064906Y-116730155D01*
X127027215Y-116821149D01*
X127008000Y-116917748D01*
X124928190Y-116917748D01*
X124903094Y-116857161D01*
X124848375Y-116775269D01*
X124778731Y-116705625D01*
X124696839Y-116650906D01*
X124605845Y-116613215D01*
X124509246Y-116594000D01*
X124410754Y-116594000D01*
X124314155Y-116613215D01*
X124223161Y-116650906D01*
X124141269Y-116705625D01*
X124071625Y-116775269D01*
X124016906Y-116857161D01*
X123979215Y-116948155D01*
X123960000Y-117044754D01*
X123960000Y-117143246D01*
X123979215Y-117239845D01*
X124016906Y-117330839D01*
X124071625Y-117412731D01*
X124141269Y-117482375D01*
X124223161Y-117537094D01*
X124314155Y-117574785D01*
X124410754Y-117594000D01*
X124509246Y-117594000D01*
X124605845Y-117574785D01*
X124696839Y-117537094D01*
X124756225Y-117497413D01*
X124710884Y-117565271D01*
X124624194Y-117774557D01*
X124580000Y-117996735D01*
X124580000Y-118223265D01*
X124611617Y-118382214D01*
X124569304Y-118318889D01*
X124499660Y-118249245D01*
X124417768Y-118194526D01*
X124326774Y-118156835D01*
X124230175Y-118137620D01*
X124131683Y-118137620D01*
X124035084Y-118156835D01*
X123944090Y-118194526D01*
X123862198Y-118249245D01*
X123792554Y-118318889D01*
X123737835Y-118400781D01*
X123700144Y-118491775D01*
X123680929Y-118588374D01*
X122754719Y-118588374D01*
X122653082Y-118486737D01*
X122464729Y-118360884D01*
X122255443Y-118274194D01*
X122033265Y-118230000D01*
X121806735Y-118230000D01*
X121584557Y-118274194D01*
X121375271Y-118360884D01*
X121186918Y-118486737D01*
X121026737Y-118646918D01*
X120975000Y-118724348D01*
X120975000Y-117495652D01*
X121026737Y-117573082D01*
X121186918Y-117733263D01*
X121375271Y-117859116D01*
X121584557Y-117945806D01*
X121806735Y-117990000D01*
X122033265Y-117990000D01*
X122255443Y-117945806D01*
X122464729Y-117859116D01*
X122653082Y-117733263D01*
X122813263Y-117573082D01*
X122939116Y-117384729D01*
X123025806Y-117175443D01*
X123070000Y-116953265D01*
X123070000Y-116726735D01*
X123025806Y-116504557D01*
X122939116Y-116295271D01*
X122813263Y-116106918D01*
X122697569Y-115991224D01*
X122746731Y-115958375D01*
X122816375Y-115888731D01*
X122871094Y-115806839D01*
X122908785Y-115715845D01*
X122928000Y-115619246D01*
X122928000Y-115520754D01*
X122908785Y-115424155D01*
X122896193Y-115393754D01*
X122944000Y-115393754D01*
X122944000Y-115492246D01*
X122963215Y-115588845D01*
X123000906Y-115679839D01*
X123055625Y-115761731D01*
X123125269Y-115831375D01*
X123207161Y-115886094D01*
X123298155Y-115923785D01*
X123394754Y-115943000D01*
X123493246Y-115943000D01*
X123589845Y-115923785D01*
X123674134Y-115888871D01*
X123656205Y-115932155D01*
X123636990Y-116028754D01*
X123636990Y-116127246D01*
X123656205Y-116223845D01*
X123693896Y-116314839D01*
X123748615Y-116396731D01*
X123818259Y-116466375D01*
X123900151Y-116521094D01*
X123991145Y-116558785D01*
X124087744Y-116578000D01*
X124186236Y-116578000D01*
X124282835Y-116558785D01*
X124373829Y-116521094D01*
X124455721Y-116466375D01*
X124525365Y-116396731D01*
X124580084Y-116314839D01*
X124617775Y-116223845D01*
X124636990Y-116127246D01*
X124636990Y-116028754D01*
X124617775Y-115932155D01*
X124580084Y-115841161D01*
X124525365Y-115759269D01*
X124455721Y-115689625D01*
X124373829Y-115634906D01*
X124282835Y-115597215D01*
X124186236Y-115578000D01*
X124087744Y-115578000D01*
X123991145Y-115597215D01*
X123906856Y-115632129D01*
X123924785Y-115588845D01*
X123944000Y-115492246D01*
X123944000Y-115456735D01*
X124580000Y-115456735D01*
X124580000Y-115683265D01*
X124624194Y-115905443D01*
X124710884Y-116114729D01*
X124836737Y-116303082D01*
X124996918Y-116463263D01*
X125185271Y-116589116D01*
X125394557Y-116675806D01*
X125616735Y-116720000D01*
X125843265Y-116720000D01*
X126065443Y-116675806D01*
X126274729Y-116589116D01*
X126463082Y-116463263D01*
X126578776Y-116347569D01*
X126611625Y-116396731D01*
X126681269Y-116466375D01*
X126763161Y-116521094D01*
X126854155Y-116558785D01*
X126950754Y-116578000D01*
X127049246Y-116578000D01*
X127145845Y-116558785D01*
X127236839Y-116521094D01*
X127318731Y-116466375D01*
X127388375Y-116396731D01*
X127443094Y-116314839D01*
X127480785Y-116223845D01*
X127500000Y-116127246D01*
X127500000Y-116028754D01*
X127480785Y-115932155D01*
X127443094Y-115841161D01*
X127388375Y-115759269D01*
X127318731Y-115689625D01*
X127236839Y-115634906D01*
X127145845Y-115597215D01*
X127049246Y-115578000D01*
X126950754Y-115578000D01*
X126880000Y-115592074D01*
X126880000Y-115456735D01*
X126835806Y-115234557D01*
X126749116Y-115025271D01*
X126642733Y-114866056D01*
X127697000Y-114866056D01*
X127697000Y-115003944D01*
X127723901Y-115139182D01*
X127776668Y-115266574D01*
X127853274Y-115381224D01*
X127950776Y-115478726D01*
X128065426Y-115555332D01*
X128192818Y-115608099D01*
X128328056Y-115635000D01*
X128465944Y-115635000D01*
X128530131Y-115622232D01*
X131430285Y-115622232D01*
X131430285Y-115720724D01*
X131449500Y-115817323D01*
X131487191Y-115908317D01*
X131541910Y-115990209D01*
X131611554Y-116059853D01*
X131693446Y-116114572D01*
X131784440Y-116152263D01*
X131881039Y-116171478D01*
X131979531Y-116171478D01*
X132076130Y-116152263D01*
X132167124Y-116114572D01*
X132249016Y-116059853D01*
X132318660Y-115990209D01*
X132373379Y-115908317D01*
X132411070Y-115817323D01*
X132430285Y-115720724D01*
X132430285Y-115647737D01*
X132469017Y-115647737D01*
X132469017Y-115746229D01*
X132488232Y-115842828D01*
X132525923Y-115933822D01*
X132580642Y-116015714D01*
X132650286Y-116085358D01*
X132732178Y-116140077D01*
X132823172Y-116177768D01*
X132919771Y-116196983D01*
X133018263Y-116196983D01*
X133114862Y-116177768D01*
X133205856Y-116140077D01*
X133287748Y-116085358D01*
X133357392Y-116015714D01*
X133412111Y-115933822D01*
X133449802Y-115842828D01*
X133469017Y-115746229D01*
X133469017Y-115647737D01*
X133467726Y-115641246D01*
X133486903Y-115641246D01*
X133486903Y-115739738D01*
X133506118Y-115836337D01*
X133543809Y-115927331D01*
X133598528Y-116009223D01*
X133668172Y-116078867D01*
X133750064Y-116133586D01*
X133841058Y-116171277D01*
X133937657Y-116190492D01*
X134036149Y-116190492D01*
X134132748Y-116171277D01*
X134223742Y-116133586D01*
X134305634Y-116078867D01*
X134375278Y-116009223D01*
X134429997Y-115927331D01*
X134467688Y-115836337D01*
X134483981Y-115754427D01*
X134489052Y-115754427D01*
X134489052Y-115852919D01*
X134508267Y-115949518D01*
X134545958Y-116040512D01*
X134600677Y-116122404D01*
X134670321Y-116192048D01*
X134752213Y-116246767D01*
X134843207Y-116284458D01*
X134939806Y-116303673D01*
X135038298Y-116303673D01*
X135134897Y-116284458D01*
X135225891Y-116246767D01*
X135307783Y-116192048D01*
X135377427Y-116122404D01*
X135432146Y-116040512D01*
X135469837Y-115949518D01*
X135489052Y-115852919D01*
X135489052Y-115754427D01*
X135469837Y-115657828D01*
X135432146Y-115566834D01*
X135404810Y-115525922D01*
X136290654Y-115525922D01*
X136290654Y-115624414D01*
X136309869Y-115721013D01*
X136347560Y-115812007D01*
X136402279Y-115893899D01*
X136471923Y-115963543D01*
X136553815Y-116018262D01*
X136644809Y-116055953D01*
X136741408Y-116075168D01*
X136839900Y-116075168D01*
X136936499Y-116055953D01*
X137027493Y-116018262D01*
X137109385Y-115963543D01*
X137179029Y-115893899D01*
X137233748Y-115812007D01*
X137271439Y-115721013D01*
X137290654Y-115624414D01*
X137290654Y-115525922D01*
X137271439Y-115429323D01*
X137233748Y-115338329D01*
X137179029Y-115256437D01*
X137109385Y-115186793D01*
X137027493Y-115132074D01*
X136936499Y-115094383D01*
X136839900Y-115075168D01*
X136741408Y-115075168D01*
X136644809Y-115094383D01*
X136553815Y-115132074D01*
X136471923Y-115186793D01*
X136402279Y-115256437D01*
X136347560Y-115338329D01*
X136309869Y-115429323D01*
X136290654Y-115525922D01*
X135404810Y-115525922D01*
X135377427Y-115484942D01*
X135307783Y-115415298D01*
X135225891Y-115360579D01*
X135134897Y-115322888D01*
X135038298Y-115303673D01*
X134939806Y-115303673D01*
X134843207Y-115322888D01*
X134752213Y-115360579D01*
X134670321Y-115415298D01*
X134600677Y-115484942D01*
X134545958Y-115566834D01*
X134508267Y-115657828D01*
X134489052Y-115754427D01*
X134483981Y-115754427D01*
X134486903Y-115739738D01*
X134486903Y-115641246D01*
X134467688Y-115544647D01*
X134429997Y-115453653D01*
X134375278Y-115371761D01*
X134305634Y-115302117D01*
X134223742Y-115247398D01*
X134132748Y-115209707D01*
X134036149Y-115190492D01*
X133937657Y-115190492D01*
X133841058Y-115209707D01*
X133750064Y-115247398D01*
X133668172Y-115302117D01*
X133598528Y-115371761D01*
X133543809Y-115453653D01*
X133506118Y-115544647D01*
X133486903Y-115641246D01*
X133467726Y-115641246D01*
X133449802Y-115551138D01*
X133412111Y-115460144D01*
X133357392Y-115378252D01*
X133287748Y-115308608D01*
X133205856Y-115253889D01*
X133114862Y-115216198D01*
X133018263Y-115196983D01*
X132919771Y-115196983D01*
X132823172Y-115216198D01*
X132732178Y-115253889D01*
X132650286Y-115308608D01*
X132580642Y-115378252D01*
X132525923Y-115460144D01*
X132488232Y-115551138D01*
X132469017Y-115647737D01*
X132430285Y-115647737D01*
X132430285Y-115622232D01*
X132411070Y-115525633D01*
X132373379Y-115434639D01*
X132318660Y-115352747D01*
X132249016Y-115283103D01*
X132167124Y-115228384D01*
X132076130Y-115190693D01*
X131979531Y-115171478D01*
X131881039Y-115171478D01*
X131784440Y-115190693D01*
X131693446Y-115228384D01*
X131611554Y-115283103D01*
X131541910Y-115352747D01*
X131487191Y-115434639D01*
X131449500Y-115525633D01*
X131430285Y-115622232D01*
X128530131Y-115622232D01*
X128601182Y-115608099D01*
X128728574Y-115555332D01*
X128843224Y-115478726D01*
X128940726Y-115381224D01*
X129017332Y-115266574D01*
X129070099Y-115139182D01*
X129097000Y-115003944D01*
X129097000Y-114866056D01*
X129070099Y-114730818D01*
X129017332Y-114603426D01*
X128940726Y-114488776D01*
X128843224Y-114391274D01*
X128728574Y-114314668D01*
X128601182Y-114261901D01*
X128545144Y-114250754D01*
X138819000Y-114250754D01*
X138819000Y-114349246D01*
X138838215Y-114445845D01*
X138875906Y-114536839D01*
X138930625Y-114618731D01*
X139000269Y-114688375D01*
X139082161Y-114743094D01*
X139173155Y-114780785D01*
X139269754Y-114800000D01*
X139368246Y-114800000D01*
X139464845Y-114780785D01*
X139555839Y-114743094D01*
X139637731Y-114688375D01*
X139707375Y-114618731D01*
X139762094Y-114536839D01*
X139799785Y-114445845D01*
X139819000Y-114349246D01*
X139819000Y-114250754D01*
X139799785Y-114154155D01*
X139762094Y-114063161D01*
X139707375Y-113981269D01*
X139637731Y-113911625D01*
X139555839Y-113856906D01*
X139464845Y-113819215D01*
X139368246Y-113800000D01*
X139269754Y-113800000D01*
X139173155Y-113819215D01*
X139082161Y-113856906D01*
X139000269Y-113911625D01*
X138930625Y-113981269D01*
X138875906Y-114063161D01*
X138838215Y-114154155D01*
X138819000Y-114250754D01*
X128545144Y-114250754D01*
X128465944Y-114235000D01*
X128328056Y-114235000D01*
X128192818Y-114261901D01*
X128065426Y-114314668D01*
X127950776Y-114391274D01*
X127853274Y-114488776D01*
X127776668Y-114603426D01*
X127723901Y-114730818D01*
X127697000Y-114866056D01*
X126642733Y-114866056D01*
X126623263Y-114836918D01*
X126463082Y-114676737D01*
X126274729Y-114550884D01*
X126065443Y-114464194D01*
X125843265Y-114420000D01*
X125616735Y-114420000D01*
X125394557Y-114464194D01*
X125185271Y-114550884D01*
X124996918Y-114676737D01*
X124836737Y-114836918D01*
X124710884Y-115025271D01*
X124624194Y-115234557D01*
X124580000Y-115456735D01*
X123944000Y-115456735D01*
X123944000Y-115393754D01*
X123924785Y-115297155D01*
X123887094Y-115206161D01*
X123832375Y-115124269D01*
X123762731Y-115054625D01*
X123680839Y-114999906D01*
X123589845Y-114962215D01*
X123493246Y-114943000D01*
X123394754Y-114943000D01*
X123298155Y-114962215D01*
X123207161Y-114999906D01*
X123125269Y-115054625D01*
X123055625Y-115124269D01*
X123000906Y-115206161D01*
X122963215Y-115297155D01*
X122944000Y-115393754D01*
X122896193Y-115393754D01*
X122871094Y-115333161D01*
X122816375Y-115251269D01*
X122746731Y-115181625D01*
X122697569Y-115148776D01*
X122813263Y-115033082D01*
X122939116Y-114844729D01*
X123025806Y-114635443D01*
X123070000Y-114413265D01*
X123070000Y-114186735D01*
X123025806Y-113964557D01*
X122939116Y-113755271D01*
X122813263Y-113566918D01*
X122653082Y-113406737D01*
X122464729Y-113280884D01*
X122255443Y-113194194D01*
X122033265Y-113150000D01*
X121806735Y-113150000D01*
X121584557Y-113194194D01*
X121375271Y-113280884D01*
X121186918Y-113406737D01*
X121026737Y-113566918D01*
X120975000Y-113644348D01*
X120975000Y-112415652D01*
X121026737Y-112493082D01*
X121186918Y-112653263D01*
X121375271Y-112779116D01*
X121584557Y-112865806D01*
X121806735Y-112910000D01*
X122033265Y-112910000D01*
X122255443Y-112865806D01*
X122464729Y-112779116D01*
X122653082Y-112653263D01*
X122706591Y-112599754D01*
X122944000Y-112599754D01*
X122944000Y-112698246D01*
X122963215Y-112794845D01*
X123000906Y-112885839D01*
X123055625Y-112967731D01*
X123125269Y-113037375D01*
X123207161Y-113092094D01*
X123298155Y-113129785D01*
X123394754Y-113149000D01*
X123493246Y-113149000D01*
X123589125Y-113129928D01*
X123561247Y-113148556D01*
X123491603Y-113218200D01*
X123436884Y-113300092D01*
X123399193Y-113391086D01*
X123379978Y-113487685D01*
X123379978Y-113586177D01*
X123399193Y-113682776D01*
X123436884Y-113773770D01*
X123491603Y-113855662D01*
X123561247Y-113925306D01*
X123643139Y-113980025D01*
X123734133Y-114017716D01*
X123830732Y-114036931D01*
X123929224Y-114036931D01*
X124025823Y-114017716D01*
X124116817Y-113980025D01*
X124198709Y-113925306D01*
X124268353Y-113855662D01*
X124323072Y-113773770D01*
X124360763Y-113682776D01*
X124379978Y-113586177D01*
X124379978Y-113487685D01*
X124360763Y-113391086D01*
X124323072Y-113300092D01*
X124268353Y-113218200D01*
X124198709Y-113148556D01*
X124116817Y-113093837D01*
X124025823Y-113056146D01*
X123929224Y-113036931D01*
X123830732Y-113036931D01*
X123734853Y-113056003D01*
X123762731Y-113037375D01*
X123832375Y-112967731D01*
X123866449Y-112916735D01*
X124580000Y-112916735D01*
X124580000Y-113143265D01*
X124624194Y-113365443D01*
X124710884Y-113574729D01*
X124836737Y-113763082D01*
X124996918Y-113923263D01*
X125185271Y-114049116D01*
X125394557Y-114135806D01*
X125616735Y-114180000D01*
X125843265Y-114180000D01*
X126065443Y-114135806D01*
X126274729Y-114049116D01*
X126463082Y-113923263D01*
X126623263Y-113763082D01*
X126749116Y-113574729D01*
X126835806Y-113365443D01*
X126836539Y-113361754D01*
X131453000Y-113361754D01*
X131453000Y-113460246D01*
X131472215Y-113556845D01*
X131509906Y-113647839D01*
X131564625Y-113729731D01*
X131634269Y-113799375D01*
X131716161Y-113854094D01*
X131807155Y-113891785D01*
X131903754Y-113911000D01*
X132002246Y-113911000D01*
X132098845Y-113891785D01*
X132189839Y-113854094D01*
X132271731Y-113799375D01*
X132341375Y-113729731D01*
X132396094Y-113647839D01*
X132433785Y-113556845D01*
X132453000Y-113460246D01*
X132453000Y-113361754D01*
X132433785Y-113265155D01*
X132396094Y-113174161D01*
X132341375Y-113092269D01*
X132271731Y-113022625D01*
X132189839Y-112967906D01*
X132098845Y-112930215D01*
X132002246Y-112911000D01*
X131903754Y-112911000D01*
X131807155Y-112930215D01*
X131716161Y-112967906D01*
X131634269Y-113022625D01*
X131564625Y-113092269D01*
X131509906Y-113174161D01*
X131472215Y-113265155D01*
X131453000Y-113361754D01*
X126836539Y-113361754D01*
X126880000Y-113143265D01*
X126880000Y-112916735D01*
X126835806Y-112694557D01*
X126788378Y-112580056D01*
X138619000Y-112580056D01*
X138619000Y-112717944D01*
X138645901Y-112853182D01*
X138698668Y-112980574D01*
X138775274Y-113095224D01*
X138872776Y-113192726D01*
X138987426Y-113269332D01*
X139114818Y-113322099D01*
X139250056Y-113349000D01*
X139387944Y-113349000D01*
X139523182Y-113322099D01*
X139650574Y-113269332D01*
X139765224Y-113192726D01*
X139820000Y-113137950D01*
X139820000Y-113143265D01*
X139864194Y-113365443D01*
X139950884Y-113574729D01*
X140076737Y-113763082D01*
X140236918Y-113923263D01*
X140425271Y-114049116D01*
X140634557Y-114135806D01*
X140856735Y-114180000D01*
X141083265Y-114180000D01*
X141305443Y-114135806D01*
X141514729Y-114049116D01*
X141703082Y-113923263D01*
X141863263Y-113763082D01*
X141989116Y-113574729D01*
X142075806Y-113365443D01*
X142120000Y-113143265D01*
X142120000Y-112916735D01*
X142075806Y-112694557D01*
X141989116Y-112485271D01*
X141863263Y-112296918D01*
X141703082Y-112136737D01*
X141514729Y-112010884D01*
X141305443Y-111924194D01*
X141083265Y-111880000D01*
X140856735Y-111880000D01*
X140634557Y-111924194D01*
X140425271Y-112010884D01*
X140236918Y-112136737D01*
X140076737Y-112296918D01*
X139986671Y-112431712D01*
X139939332Y-112317426D01*
X139862726Y-112202776D01*
X139765224Y-112105274D01*
X139650574Y-112028668D01*
X139523182Y-111975901D01*
X139387944Y-111949000D01*
X139250056Y-111949000D01*
X139114818Y-111975901D01*
X138987426Y-112028668D01*
X138872776Y-112105274D01*
X138775274Y-112202776D01*
X138698668Y-112317426D01*
X138645901Y-112444818D01*
X138619000Y-112580056D01*
X126788378Y-112580056D01*
X126749116Y-112485271D01*
X126623263Y-112296918D01*
X126463082Y-112136737D01*
X126274729Y-112010884D01*
X126065443Y-111924194D01*
X125843265Y-111880000D01*
X125616735Y-111880000D01*
X125394557Y-111924194D01*
X125185271Y-112010884D01*
X124996918Y-112136737D01*
X124836737Y-112296918D01*
X124710884Y-112485271D01*
X124624194Y-112694557D01*
X124580000Y-112916735D01*
X123866449Y-112916735D01*
X123887094Y-112885839D01*
X123924785Y-112794845D01*
X123944000Y-112698246D01*
X123944000Y-112599754D01*
X123924785Y-112503155D01*
X123887094Y-112412161D01*
X123832375Y-112330269D01*
X123762731Y-112260625D01*
X123680839Y-112205906D01*
X123589845Y-112168215D01*
X123493246Y-112149000D01*
X123394754Y-112149000D01*
X123298155Y-112168215D01*
X123207161Y-112205906D01*
X123125269Y-112260625D01*
X123055625Y-112330269D01*
X123000906Y-112412161D01*
X122963215Y-112503155D01*
X122944000Y-112599754D01*
X122706591Y-112599754D01*
X122813263Y-112493082D01*
X122939116Y-112304729D01*
X123025806Y-112095443D01*
X123070000Y-111873265D01*
X123070000Y-111646735D01*
X123025806Y-111424557D01*
X122939116Y-111215271D01*
X122813263Y-111026918D01*
X122653082Y-110866737D01*
X122464729Y-110740884D01*
X122255443Y-110654194D01*
X122033265Y-110610000D01*
X121806735Y-110610000D01*
X121584557Y-110654194D01*
X121375271Y-110740884D01*
X121186918Y-110866737D01*
X121026737Y-111026918D01*
X120975000Y-111104348D01*
X120975000Y-110376735D01*
X124580000Y-110376735D01*
X124580000Y-110603265D01*
X124624194Y-110825443D01*
X124710884Y-111034729D01*
X124836737Y-111223082D01*
X124996918Y-111383263D01*
X125185271Y-111509116D01*
X125394557Y-111595806D01*
X125616735Y-111640000D01*
X125843265Y-111640000D01*
X126065443Y-111595806D01*
X126274729Y-111509116D01*
X126463082Y-111383263D01*
X126623263Y-111223082D01*
X126749116Y-111034729D01*
X126835806Y-110825443D01*
X126880000Y-110603265D01*
X126880000Y-110376735D01*
X126835806Y-110154557D01*
X126749116Y-109945271D01*
X126623263Y-109756918D01*
X126463082Y-109596737D01*
X126274729Y-109470884D01*
X126065443Y-109384194D01*
X125843265Y-109340000D01*
X125616735Y-109340000D01*
X125394557Y-109384194D01*
X125185271Y-109470884D01*
X124996918Y-109596737D01*
X124836737Y-109756918D01*
X124710884Y-109945271D01*
X124624194Y-110154557D01*
X124580000Y-110376735D01*
X120975000Y-110376735D01*
X120975000Y-109875652D01*
X121026737Y-109953082D01*
X121186918Y-110113263D01*
X121375271Y-110239116D01*
X121584557Y-110325806D01*
X121806735Y-110370000D01*
X122033265Y-110370000D01*
X122255443Y-110325806D01*
X122464729Y-110239116D01*
X122653082Y-110113263D01*
X122813263Y-109953082D01*
X122939116Y-109764729D01*
X123025806Y-109555443D01*
X123070000Y-109333265D01*
X123070000Y-109170754D01*
X132596000Y-109170754D01*
X132596000Y-109269246D01*
X132615215Y-109365845D01*
X132652906Y-109456839D01*
X132707625Y-109538731D01*
X132777269Y-109608375D01*
X132859161Y-109663094D01*
X132950155Y-109700785D01*
X133046754Y-109720000D01*
X133145246Y-109720000D01*
X133241845Y-109700785D01*
X133332839Y-109663094D01*
X133414731Y-109608375D01*
X133484375Y-109538731D01*
X133539094Y-109456839D01*
X133576785Y-109365845D01*
X133596000Y-109269246D01*
X133596000Y-109170754D01*
X133576785Y-109074155D01*
X133539094Y-108983161D01*
X133484375Y-108901269D01*
X133414731Y-108831625D01*
X133332839Y-108776906D01*
X133258465Y-108746099D01*
X134984677Y-108746099D01*
X134984677Y-108844591D01*
X135003892Y-108941190D01*
X135041583Y-109032184D01*
X135096302Y-109114076D01*
X135165946Y-109183720D01*
X135247838Y-109238439D01*
X135338832Y-109276130D01*
X135435431Y-109295345D01*
X135533923Y-109295345D01*
X135630522Y-109276130D01*
X135721516Y-109238439D01*
X135803408Y-109183720D01*
X135836078Y-109151050D01*
X139570272Y-109151050D01*
X139570272Y-109288938D01*
X139597173Y-109424176D01*
X139649940Y-109551568D01*
X139726546Y-109666218D01*
X139824048Y-109763720D01*
X139938698Y-109840326D01*
X140003164Y-109867028D01*
X139950884Y-109945271D01*
X139864194Y-110154557D01*
X139820000Y-110376735D01*
X139820000Y-110603265D01*
X139864194Y-110825443D01*
X139950884Y-111034729D01*
X140076737Y-111223082D01*
X140236918Y-111383263D01*
X140425271Y-111509116D01*
X140634557Y-111595806D01*
X140856735Y-111640000D01*
X141083265Y-111640000D01*
X141305443Y-111595806D01*
X141514729Y-111509116D01*
X141703082Y-111383263D01*
X141863263Y-111223082D01*
X141989116Y-111034729D01*
X142075806Y-110825443D01*
X142120000Y-110603265D01*
X142120000Y-110376735D01*
X142075806Y-110154557D01*
X141989116Y-109945271D01*
X141863263Y-109756918D01*
X141703082Y-109596737D01*
X141514729Y-109470884D01*
X141305443Y-109384194D01*
X141083265Y-109340000D01*
X140960115Y-109340000D01*
X140970272Y-109288938D01*
X140970272Y-109151050D01*
X140960117Y-109100000D01*
X141083265Y-109100000D01*
X141305443Y-109055806D01*
X141514729Y-108969116D01*
X141703082Y-108843263D01*
X141863263Y-108683082D01*
X141989116Y-108494729D01*
X142075806Y-108285443D01*
X142120000Y-108063265D01*
X142120000Y-107836735D01*
X142075806Y-107614557D01*
X141989116Y-107405271D01*
X141863263Y-107216918D01*
X141703082Y-107056737D01*
X141514729Y-106930884D01*
X141305443Y-106844194D01*
X141083265Y-106800000D01*
X140856735Y-106800000D01*
X140634557Y-106844194D01*
X140425271Y-106930884D01*
X140236918Y-107056737D01*
X140076737Y-107216918D01*
X139950884Y-107405271D01*
X139864194Y-107614557D01*
X139820000Y-107836735D01*
X139820000Y-108063265D01*
X139864194Y-108285443D01*
X139950884Y-108494729D01*
X140003158Y-108572962D01*
X139938698Y-108599662D01*
X139824048Y-108676268D01*
X139726546Y-108773770D01*
X139649940Y-108888420D01*
X139597173Y-109015812D01*
X139570272Y-109151050D01*
X135836078Y-109151050D01*
X135873052Y-109114076D01*
X135927771Y-109032184D01*
X135965462Y-108941190D01*
X135984677Y-108844591D01*
X135984677Y-108746099D01*
X135965462Y-108649500D01*
X135927771Y-108558506D01*
X135873052Y-108476614D01*
X135803408Y-108406970D01*
X135786687Y-108395797D01*
X135871155Y-108430785D01*
X135967754Y-108450000D01*
X136066246Y-108450000D01*
X136162845Y-108430785D01*
X136253839Y-108393094D01*
X136335731Y-108338375D01*
X136405375Y-108268731D01*
X136460094Y-108186839D01*
X136497785Y-108095845D01*
X136517000Y-107999246D01*
X136517000Y-107900754D01*
X136497785Y-107804155D01*
X136460094Y-107713161D01*
X136405375Y-107631269D01*
X136335731Y-107561625D01*
X136273068Y-107519754D01*
X138311000Y-107519754D01*
X138311000Y-107618246D01*
X138330215Y-107714845D01*
X138367906Y-107805839D01*
X138422625Y-107887731D01*
X138492269Y-107957375D01*
X138574161Y-108012094D01*
X138665155Y-108049785D01*
X138761754Y-108069000D01*
X138860246Y-108069000D01*
X138956845Y-108049785D01*
X139047839Y-108012094D01*
X139129731Y-107957375D01*
X139199375Y-107887731D01*
X139254094Y-107805839D01*
X139291785Y-107714845D01*
X139311000Y-107618246D01*
X139311000Y-107519754D01*
X139291785Y-107423155D01*
X139254094Y-107332161D01*
X139199375Y-107250269D01*
X139129731Y-107180625D01*
X139047839Y-107125906D01*
X138956845Y-107088215D01*
X138860246Y-107069000D01*
X138761754Y-107069000D01*
X138665155Y-107088215D01*
X138574161Y-107125906D01*
X138492269Y-107180625D01*
X138422625Y-107250269D01*
X138367906Y-107332161D01*
X138330215Y-107423155D01*
X138311000Y-107519754D01*
X136273068Y-107519754D01*
X136253839Y-107506906D01*
X136162845Y-107469215D01*
X136066246Y-107450000D01*
X135967754Y-107450000D01*
X135871155Y-107469215D01*
X135780161Y-107506906D01*
X135698269Y-107561625D01*
X135628625Y-107631269D01*
X135573906Y-107713161D01*
X135536215Y-107804155D01*
X135517000Y-107900754D01*
X135517000Y-107999246D01*
X135536215Y-108095845D01*
X135573906Y-108186839D01*
X135628625Y-108268731D01*
X135698269Y-108338375D01*
X135714990Y-108349548D01*
X135630522Y-108314560D01*
X135533923Y-108295345D01*
X135435431Y-108295345D01*
X135338832Y-108314560D01*
X135247838Y-108352251D01*
X135165946Y-108406970D01*
X135096302Y-108476614D01*
X135041583Y-108558506D01*
X135003892Y-108649500D01*
X134984677Y-108746099D01*
X133258465Y-108746099D01*
X133241845Y-108739215D01*
X133145246Y-108720000D01*
X133046754Y-108720000D01*
X132950155Y-108739215D01*
X132859161Y-108776906D01*
X132777269Y-108831625D01*
X132707625Y-108901269D01*
X132652906Y-108983161D01*
X132615215Y-109074155D01*
X132596000Y-109170754D01*
X123070000Y-109170754D01*
X123070000Y-109106735D01*
X123025806Y-108884557D01*
X122939116Y-108675271D01*
X122813263Y-108486918D01*
X122653082Y-108326737D01*
X122464729Y-108200884D01*
X122255443Y-108114194D01*
X122033265Y-108070000D01*
X121806735Y-108070000D01*
X121584557Y-108114194D01*
X121375271Y-108200884D01*
X121186918Y-108326737D01*
X121026737Y-108486918D01*
X120975000Y-108564348D01*
X120975000Y-107836735D01*
X124580000Y-107836735D01*
X124580000Y-108063265D01*
X124624194Y-108285443D01*
X124710884Y-108494729D01*
X124836737Y-108683082D01*
X124996918Y-108843263D01*
X125185271Y-108969116D01*
X125394557Y-109055806D01*
X125616735Y-109100000D01*
X125843265Y-109100000D01*
X126065443Y-109055806D01*
X126274729Y-108969116D01*
X126463082Y-108843263D01*
X126623263Y-108683082D01*
X126749116Y-108494729D01*
X126835806Y-108285443D01*
X126836539Y-108281754D01*
X132088000Y-108281754D01*
X132088000Y-108380246D01*
X132107215Y-108476845D01*
X132144906Y-108567839D01*
X132199625Y-108649731D01*
X132269269Y-108719375D01*
X132351161Y-108774094D01*
X132442155Y-108811785D01*
X132538754Y-108831000D01*
X132637246Y-108831000D01*
X132733845Y-108811785D01*
X132824839Y-108774094D01*
X132906731Y-108719375D01*
X132976375Y-108649731D01*
X133031094Y-108567839D01*
X133068785Y-108476845D01*
X133088000Y-108380246D01*
X133088000Y-108281754D01*
X133068785Y-108185155D01*
X133031094Y-108094161D01*
X132976375Y-108012269D01*
X132906731Y-107942625D01*
X132824839Y-107887906D01*
X132733845Y-107850215D01*
X132637246Y-107831000D01*
X132538754Y-107831000D01*
X132442155Y-107850215D01*
X132351161Y-107887906D01*
X132269269Y-107942625D01*
X132199625Y-108012269D01*
X132144906Y-108094161D01*
X132107215Y-108185155D01*
X132088000Y-108281754D01*
X126836539Y-108281754D01*
X126880000Y-108063265D01*
X126880000Y-107836735D01*
X126835806Y-107614557D01*
X126749116Y-107405271D01*
X126652298Y-107260372D01*
X131976920Y-107260372D01*
X131976920Y-107358864D01*
X131996135Y-107455463D01*
X132033826Y-107546457D01*
X132088545Y-107628349D01*
X132158189Y-107697993D01*
X132240081Y-107752712D01*
X132331075Y-107790403D01*
X132427674Y-107809618D01*
X132526166Y-107809618D01*
X132622765Y-107790403D01*
X132713759Y-107752712D01*
X132795651Y-107697993D01*
X132865295Y-107628349D01*
X132920014Y-107546457D01*
X132957705Y-107455463D01*
X132973261Y-107377256D01*
X134611432Y-107377256D01*
X134611432Y-107475748D01*
X134630647Y-107572347D01*
X134668338Y-107663341D01*
X134723057Y-107745233D01*
X134792701Y-107814877D01*
X134874593Y-107869596D01*
X134965587Y-107907287D01*
X135062186Y-107926502D01*
X135160678Y-107926502D01*
X135257277Y-107907287D01*
X135348271Y-107869596D01*
X135430163Y-107814877D01*
X135499807Y-107745233D01*
X135554526Y-107663341D01*
X135592217Y-107572347D01*
X135611432Y-107475748D01*
X135611432Y-107377256D01*
X135592217Y-107280657D01*
X135554526Y-107189663D01*
X135499807Y-107107771D01*
X135430163Y-107038127D01*
X135348271Y-106983408D01*
X135257277Y-106945717D01*
X135160678Y-106926502D01*
X135062186Y-106926502D01*
X134965587Y-106945717D01*
X134874593Y-106983408D01*
X134792701Y-107038127D01*
X134723057Y-107107771D01*
X134668338Y-107189663D01*
X134630647Y-107280657D01*
X134611432Y-107377256D01*
X132973261Y-107377256D01*
X132976920Y-107358864D01*
X132976920Y-107260372D01*
X132957705Y-107163773D01*
X132920014Y-107072779D01*
X132865295Y-106990887D01*
X132795651Y-106921243D01*
X132713759Y-106866524D01*
X132622765Y-106828833D01*
X132526166Y-106809618D01*
X132427674Y-106809618D01*
X132331075Y-106828833D01*
X132240081Y-106866524D01*
X132158189Y-106921243D01*
X132088545Y-106990887D01*
X132033826Y-107072779D01*
X131996135Y-107163773D01*
X131976920Y-107260372D01*
X126652298Y-107260372D01*
X126623263Y-107216918D01*
X126463082Y-107056737D01*
X126447507Y-107046330D01*
X126475857Y-107058073D01*
X126572456Y-107077288D01*
X126670948Y-107077288D01*
X126767547Y-107058073D01*
X126858541Y-107020382D01*
X126940433Y-106965663D01*
X127010077Y-106896019D01*
X127064796Y-106814127D01*
X127088146Y-106757754D01*
X136533000Y-106757754D01*
X136533000Y-106856246D01*
X136552215Y-106952845D01*
X136589906Y-107043839D01*
X136644625Y-107125731D01*
X136714269Y-107195375D01*
X136796161Y-107250094D01*
X136887155Y-107287785D01*
X136983754Y-107307000D01*
X137082246Y-107307000D01*
X137178845Y-107287785D01*
X137269839Y-107250094D01*
X137351731Y-107195375D01*
X137421375Y-107125731D01*
X137476094Y-107043839D01*
X137513785Y-106952845D01*
X137533000Y-106856246D01*
X137533000Y-106757754D01*
X137513785Y-106661155D01*
X137476094Y-106570161D01*
X137421375Y-106488269D01*
X137351731Y-106418625D01*
X137269839Y-106363906D01*
X137178845Y-106326215D01*
X137082246Y-106307000D01*
X136983754Y-106307000D01*
X136887155Y-106326215D01*
X136796161Y-106363906D01*
X136714269Y-106418625D01*
X136644625Y-106488269D01*
X136589906Y-106570161D01*
X136552215Y-106661155D01*
X136533000Y-106757754D01*
X127088146Y-106757754D01*
X127102487Y-106723133D01*
X127121702Y-106626534D01*
X127121702Y-106528042D01*
X127102487Y-106431443D01*
X127064796Y-106340449D01*
X127010077Y-106258557D01*
X126940433Y-106188913D01*
X126858541Y-106134194D01*
X126781451Y-106102262D01*
X126781451Y-105296735D01*
X139820000Y-105296735D01*
X139820000Y-105523265D01*
X139864194Y-105745443D01*
X139950884Y-105954729D01*
X140076737Y-106143082D01*
X140236918Y-106303263D01*
X140425271Y-106429116D01*
X140634557Y-106515806D01*
X140856735Y-106560000D01*
X141083265Y-106560000D01*
X141305443Y-106515806D01*
X141514729Y-106429116D01*
X141703082Y-106303263D01*
X141863263Y-106143082D01*
X141989116Y-105954729D01*
X142075806Y-105745443D01*
X142120000Y-105523265D01*
X142120000Y-105296735D01*
X142075806Y-105074557D01*
X141989116Y-104865271D01*
X141863263Y-104676918D01*
X141703082Y-104516737D01*
X141514729Y-104390884D01*
X141305443Y-104304194D01*
X141083265Y-104260000D01*
X140856735Y-104260000D01*
X140634557Y-104304194D01*
X140425271Y-104390884D01*
X140236918Y-104516737D01*
X140076737Y-104676918D01*
X139950884Y-104865271D01*
X139864194Y-105074557D01*
X139820000Y-105296735D01*
X126781451Y-105296735D01*
X126781451Y-104660000D01*
X126775659Y-104601190D01*
X126758504Y-104544640D01*
X126730647Y-104492523D01*
X126693158Y-104446842D01*
X126647477Y-104409353D01*
X126595360Y-104381496D01*
X126538810Y-104364341D01*
X126480000Y-104358549D01*
X124980000Y-104358549D01*
X124921190Y-104364341D01*
X124864640Y-104381496D01*
X124812523Y-104409353D01*
X124766842Y-104446842D01*
X124729353Y-104492523D01*
X124701496Y-104544640D01*
X124684341Y-104601190D01*
X124678549Y-104660000D01*
X124678549Y-106160000D01*
X124684341Y-106218810D01*
X124701496Y-106275360D01*
X124729353Y-106327477D01*
X124766842Y-106373158D01*
X124812523Y-106410647D01*
X124864640Y-106438504D01*
X124921190Y-106455659D01*
X124980000Y-106461451D01*
X126134948Y-106461451D01*
X126121702Y-106528042D01*
X126121702Y-106626534D01*
X126140917Y-106723133D01*
X126178608Y-106814127D01*
X126233327Y-106896019D01*
X126263570Y-106926262D01*
X126065443Y-106844194D01*
X125843265Y-106800000D01*
X125616735Y-106800000D01*
X125394557Y-106844194D01*
X125185271Y-106930884D01*
X124996918Y-107056737D01*
X124836737Y-107216918D01*
X124710884Y-107405271D01*
X124624194Y-107614557D01*
X124580000Y-107836735D01*
X120975000Y-107836735D01*
X120975000Y-107335652D01*
X121026737Y-107413082D01*
X121186918Y-107573263D01*
X121375271Y-107699116D01*
X121584557Y-107785806D01*
X121806735Y-107830000D01*
X122033265Y-107830000D01*
X122255443Y-107785806D01*
X122464729Y-107699116D01*
X122653082Y-107573263D01*
X122813263Y-107413082D01*
X122939116Y-107224729D01*
X123025806Y-107015443D01*
X123070000Y-106793265D01*
X123070000Y-106566735D01*
X123025806Y-106344557D01*
X122939116Y-106135271D01*
X122813263Y-105946918D01*
X122653082Y-105786737D01*
X122464729Y-105660884D01*
X122255443Y-105574194D01*
X122033265Y-105530000D01*
X121806735Y-105530000D01*
X121584557Y-105574194D01*
X121375271Y-105660884D01*
X121186918Y-105786737D01*
X121026737Y-105946918D01*
X120975000Y-106024348D01*
X120975000Y-104795652D01*
X121026737Y-104873082D01*
X121186918Y-105033263D01*
X121375271Y-105159116D01*
X121584557Y-105245806D01*
X121806735Y-105290000D01*
X122033265Y-105290000D01*
X122255443Y-105245806D01*
X122464729Y-105159116D01*
X122653082Y-105033263D01*
X122813263Y-104873082D01*
X122939116Y-104684729D01*
X123025806Y-104475443D01*
X123070000Y-104253265D01*
X123070000Y-104026735D01*
X123025806Y-103804557D01*
X122939116Y-103595271D01*
X122813263Y-103406918D01*
X122728345Y-103322000D01*
X132081590Y-103322000D01*
X132041901Y-103417818D01*
G37*
G04 #@! TD.AperFunction*
M02*
