%FSLAX45Y45*%
G04 Gerber Fmt 4.5, Leading zero omitted, Abs format (unit mm)*
G04 Created by KiCad (PCBNEW (5.1.10-1-10_14)) date 2021-12-19 23:04:49*
%MOMM*%
%LPD*%
G01*
G04 APERTURE LIST*
%TA.AperFunction,Profile*%
%ADD10C,0.050000*%
%TD*%
%ADD11C,0.200000*%
%ADD12C,0.300000*%
G04 APERTURE END LIST*
D10*
X14312900Y-12814300D02*
X12065000Y-12814300D01*
X12065000Y-12814300D02*
X12065000Y-10299700D01*
X14312900Y-10299700D02*
X14312900Y-12814300D01*
X12065000Y-10299700D02*
X14312900Y-10299700D01*
D11*
D12*
X12348928Y-13282514D02*
X12348928Y-12982514D01*
X12420357Y-12982514D01*
X12463214Y-12996800D01*
X12491786Y-13025371D01*
X12506071Y-13053943D01*
X12520357Y-13111086D01*
X12520357Y-13153943D01*
X12506071Y-13211086D01*
X12491786Y-13239657D01*
X12463214Y-13268229D01*
X12420357Y-13282514D01*
X12348928Y-13282514D01*
X12648928Y-13282514D02*
X12648928Y-13082514D01*
X12648928Y-13139657D02*
X12663214Y-13111086D01*
X12677500Y-13096800D01*
X12706071Y-13082514D01*
X12734643Y-13082514D01*
X12834643Y-13282514D02*
X12834643Y-13082514D01*
X12834643Y-12982514D02*
X12820357Y-12996800D01*
X12834643Y-13011086D01*
X12848928Y-12996800D01*
X12834643Y-12982514D01*
X12834643Y-13011086D01*
X13020357Y-13282514D02*
X12991786Y-13268229D01*
X12977500Y-13239657D01*
X12977500Y-12982514D01*
X13177500Y-13282514D02*
X13148928Y-13268229D01*
X13134643Y-13239657D01*
X13134643Y-12982514D01*
X13520357Y-13282514D02*
X13520357Y-12982514D01*
X13620357Y-13196800D01*
X13720357Y-12982514D01*
X13720357Y-13282514D01*
X13991786Y-13282514D02*
X13991786Y-13125371D01*
X13977500Y-13096800D01*
X13948928Y-13082514D01*
X13891786Y-13082514D01*
X13863214Y-13096800D01*
X13991786Y-13268229D02*
X13963214Y-13282514D01*
X13891786Y-13282514D01*
X13863214Y-13268229D01*
X13848928Y-13239657D01*
X13848928Y-13211086D01*
X13863214Y-13182514D01*
X13891786Y-13168229D01*
X13963214Y-13168229D01*
X13991786Y-13153943D01*
X14134643Y-13082514D02*
X14134643Y-13382514D01*
X14134643Y-13096800D02*
X14163214Y-13082514D01*
X14220357Y-13082514D01*
X14248928Y-13096800D01*
X14263214Y-13111086D01*
X14277500Y-13139657D01*
X14277500Y-13225371D01*
X14263214Y-13253943D01*
X14248928Y-13268229D01*
X14220357Y-13282514D01*
X14163214Y-13282514D01*
X14134643Y-13268229D01*
X14406071Y-13253943D02*
X14420357Y-13268229D01*
X14406071Y-13282514D01*
X14391786Y-13268229D01*
X14406071Y-13253943D01*
X14406071Y-13282514D01*
X14406071Y-13096800D02*
X14420357Y-13111086D01*
X14406071Y-13125371D01*
X14391786Y-13111086D01*
X14406071Y-13096800D01*
X14406071Y-13125371D01*
M02*
