G04 #@! TF.GenerationSoftware,KiCad,Pcbnew,(6.0.0-0)*
G04 #@! TF.CreationDate,2021-12-28T15:21:01+01:00*
G04 #@! TF.ProjectId,7segment,37736567-6d65-46e7-942e-6b696361645f,rev?*
G04 #@! TF.SameCoordinates,Original*
G04 #@! TF.FileFunction,Paste,Bot*
G04 #@! TF.FilePolarity,Positive*
%FSLAX46Y46*%
G04 Gerber Fmt 4.6, Leading zero omitted, Abs format (unit mm)*
G04 Created by KiCad (PCBNEW (6.0.0-0)) date 2021-12-28 15:21:01*
%MOMM*%
%LPD*%
G01*
G04 APERTURE LIST*
G04 Aperture macros list*
%AMRoundRect*
0 Rectangle with rounded corners*
0 $1 Rounding radius*
0 $2 $3 $4 $5 $6 $7 $8 $9 X,Y pos of 4 corners*
0 Add a 4 corners polygon primitive as box body*
4,1,4,$2,$3,$4,$5,$6,$7,$8,$9,$2,$3,0*
0 Add four circle primitives for the rounded corners*
1,1,$1+$1,$2,$3*
1,1,$1+$1,$4,$5*
1,1,$1+$1,$6,$7*
1,1,$1+$1,$8,$9*
0 Add four rect primitives between the rounded corners*
20,1,$1+$1,$2,$3,$4,$5,0*
20,1,$1+$1,$4,$5,$6,$7,0*
20,1,$1+$1,$6,$7,$8,$9,0*
20,1,$1+$1,$8,$9,$2,$3,0*%
G04 Aperture macros list end*
%ADD10R,0.900000X0.800000*%
%ADD11R,1.000000X2.510000*%
%ADD12RoundRect,0.135000X0.185000X-0.135000X0.185000X0.135000X-0.185000X0.135000X-0.185000X-0.135000X0*%
%ADD13RoundRect,0.140000X-0.140000X-0.170000X0.140000X-0.170000X0.140000X0.170000X-0.140000X0.170000X0*%
%ADD14R,0.500000X0.500000*%
%ADD15RoundRect,0.135000X0.135000X0.185000X-0.135000X0.185000X-0.135000X-0.185000X0.135000X-0.185000X0*%
%ADD16RoundRect,0.225000X-0.225000X-0.250000X0.225000X-0.250000X0.225000X0.250000X-0.225000X0.250000X0*%
%ADD17RoundRect,0.140000X0.170000X-0.140000X0.170000X0.140000X-0.170000X0.140000X-0.170000X-0.140000X0*%
%ADD18RoundRect,0.218750X-0.256250X0.218750X-0.256250X-0.218750X0.256250X-0.218750X0.256250X0.218750X0*%
%ADD19R,0.550000X1.600000*%
%ADD20R,1.600000X0.550000*%
G04 APERTURE END LIST*
D10*
X132985000Y-125791000D03*
X132985000Y-123891000D03*
X134985000Y-124841000D03*
D11*
X136740000Y-121035000D03*
X134200000Y-117725000D03*
D10*
X137049000Y-125791000D03*
X137049000Y-123891000D03*
X139049000Y-124841000D03*
D12*
X130175000Y-116330000D03*
X130175000Y-117350000D03*
X129032000Y-119382000D03*
X129032000Y-118362000D03*
X131318000Y-116330000D03*
X131318000Y-117350000D03*
X131318000Y-119382000D03*
X131318000Y-118362000D03*
D13*
X135735000Y-104394000D03*
X134775000Y-104394000D03*
D14*
X137076000Y-104521000D03*
X139276000Y-104521000D03*
D15*
X132713000Y-104394000D03*
X133733000Y-104394000D03*
D16*
X135877000Y-116713000D03*
X137427000Y-116713000D03*
D12*
X129032000Y-116330000D03*
X129032000Y-117350000D03*
D17*
X127254000Y-111407000D03*
X127254000Y-112367000D03*
X139319000Y-110899000D03*
X139319000Y-111859000D03*
X127254000Y-109248000D03*
X127254000Y-110208000D03*
D18*
X127254000Y-115214500D03*
X127254000Y-113639500D03*
D17*
X139319000Y-108994000D03*
X139319000Y-109954000D03*
D19*
X136150000Y-106113000D03*
X135350000Y-106113000D03*
X134550000Y-106113000D03*
X133750000Y-106113000D03*
X132950000Y-106113000D03*
X132150000Y-106113000D03*
X131350000Y-106113000D03*
X130550000Y-106113000D03*
D20*
X129100000Y-107563000D03*
X129100000Y-108363000D03*
X129100000Y-109163000D03*
X129100000Y-109963000D03*
X129100000Y-110763000D03*
X129100000Y-111563000D03*
X129100000Y-112363000D03*
X129100000Y-113163000D03*
D19*
X130550000Y-114613000D03*
X131350000Y-114613000D03*
X132150000Y-114613000D03*
X132950000Y-114613000D03*
X133750000Y-114613000D03*
X134550000Y-114613000D03*
X135350000Y-114613000D03*
X136150000Y-114613000D03*
D20*
X137600000Y-113163000D03*
X137600000Y-112363000D03*
X137600000Y-111563000D03*
X137600000Y-110763000D03*
X137600000Y-109963000D03*
X137600000Y-109163000D03*
X137600000Y-108363000D03*
X137600000Y-107563000D03*
M02*
