G04 #@! TF.GenerationSoftware,KiCad,Pcbnew,(5.1.10-1-10_14)*
G04 #@! TF.CreationDate,2021-11-19T10:18:53+01:00*
G04 #@! TF.ProjectId,lcd,6c63642e-6b69-4636-9164-5f7063625858,rev?*
G04 #@! TF.SameCoordinates,Original*
G04 #@! TF.FileFunction,Copper,L1,Top*
G04 #@! TF.FilePolarity,Positive*
%FSLAX46Y46*%
G04 Gerber Fmt 4.6, Leading zero omitted, Abs format (unit mm)*
G04 Created by KiCad (PCBNEW (5.1.10-1-10_14)) date 2021-11-19 10:18:53*
%MOMM*%
%LPD*%
G01*
G04 APERTURE LIST*
G04 #@! TA.AperFunction,ComponentPad*
%ADD10R,1.200000X1.200000*%
G04 #@! TD*
G04 #@! TA.AperFunction,ComponentPad*
%ADD11C,1.200000*%
G04 #@! TD*
G04 #@! TA.AperFunction,ComponentPad*
%ADD12C,1.303000*%
G04 #@! TD*
G04 #@! TA.AperFunction,ComponentPad*
%ADD13O,1.700000X1.700000*%
G04 #@! TD*
G04 #@! TA.AperFunction,ComponentPad*
%ADD14R,1.700000X1.700000*%
G04 #@! TD*
G04 #@! TA.AperFunction,ComponentPad*
%ADD15C,3.000000*%
G04 #@! TD*
G04 #@! TA.AperFunction,ComponentPad*
%ADD16O,1.800000X2.600000*%
G04 #@! TD*
G04 #@! TA.AperFunction,ComponentPad*
%ADD17R,1.800000X2.600000*%
G04 #@! TD*
G04 #@! TA.AperFunction,ComponentPad*
%ADD18C,1.600000*%
G04 #@! TD*
G04 #@! TA.AperFunction,ViaPad*
%ADD19C,0.800000*%
G04 #@! TD*
G04 #@! TA.AperFunction,Conductor*
%ADD20C,1.000000*%
G04 #@! TD*
G04 #@! TA.AperFunction,Conductor*
%ADD21C,0.250000*%
G04 #@! TD*
G04 #@! TA.AperFunction,Conductor*
%ADD22C,0.254000*%
G04 #@! TD*
G04 #@! TA.AperFunction,Conductor*
%ADD23C,0.100000*%
G04 #@! TD*
G04 APERTURE END LIST*
D10*
X112776000Y-92456000D03*
D11*
X110776000Y-92456000D03*
D12*
X156464000Y-89916000D03*
X153924000Y-89916000D03*
X151384000Y-89916000D03*
D13*
X147320000Y-91440000D03*
X144780000Y-91440000D03*
X142240000Y-91440000D03*
X139700000Y-91440000D03*
X137160000Y-91440000D03*
X134620000Y-91440000D03*
X132080000Y-91440000D03*
X129540000Y-91440000D03*
X127000000Y-91440000D03*
X124460000Y-91440000D03*
X121920000Y-91440000D03*
X119380000Y-91440000D03*
D14*
X116840000Y-91440000D03*
D15*
X174601000Y-98461000D03*
X174600480Y-129461700D03*
X99601900Y-129461700D03*
X99601900Y-98461000D03*
D16*
X143201000Y-98461000D03*
X140661000Y-98461000D03*
X138121000Y-98461000D03*
X135581000Y-98461000D03*
X133041000Y-98461000D03*
X130501000Y-98461000D03*
X127961000Y-98461000D03*
X125421000Y-98461000D03*
X122881000Y-98461000D03*
X120341000Y-98461000D03*
X117801000Y-98461000D03*
X115261000Y-98461000D03*
X112721000Y-98461000D03*
X110181000Y-98461000D03*
X107641000Y-98461000D03*
D17*
X105101000Y-98461000D03*
D18*
X105196000Y-92456000D03*
X107696000Y-92456000D03*
D19*
X175260000Y-101600000D03*
X175260000Y-114300000D03*
X175260000Y-124460000D03*
X165100000Y-129540000D03*
X147320000Y-129540000D03*
X132080000Y-129540000D03*
X119380000Y-129540000D03*
X104140000Y-129540000D03*
X99060000Y-124460000D03*
X99060000Y-111760000D03*
X99060000Y-101600000D03*
X99060000Y-91440000D03*
X160020000Y-93980000D03*
X154940000Y-93980000D03*
X106680000Y-101600000D03*
X119380000Y-101600000D03*
X137160000Y-101600000D03*
X152400000Y-101600000D03*
X170180000Y-101600000D03*
X165100000Y-114300000D03*
X144780000Y-114300000D03*
X132080000Y-114300000D03*
X114300000Y-114300000D03*
X114808000Y-94996000D03*
X113538000Y-89662000D03*
X102362000Y-92456000D03*
X102616000Y-96266000D03*
X109728000Y-95758000D03*
X145288000Y-94488000D03*
X150876000Y-91948000D03*
X117856000Y-94488000D03*
X120142000Y-94742000D03*
X122936000Y-94742000D03*
X125476000Y-94742000D03*
X129540000Y-94488000D03*
X133096000Y-94488000D03*
X135382000Y-94742000D03*
X139192000Y-94742000D03*
D20*
X108996001Y-91155999D02*
X107696000Y-92456000D01*
X111475999Y-91155999D02*
X108996001Y-91155999D01*
X112776000Y-92456000D02*
X111475999Y-91155999D01*
X107696000Y-98406000D02*
X107641000Y-98461000D01*
X107696000Y-92456000D02*
X107696000Y-98406000D01*
X119032080Y-89889999D02*
X115342001Y-89889999D01*
X119380000Y-91440000D02*
X119380000Y-90237919D01*
X119380000Y-90237919D02*
X119032080Y-89889999D01*
X115342001Y-89889999D02*
X112776000Y-92456000D01*
X119380000Y-90237919D02*
X119727920Y-89889999D01*
X142561000Y-96161000D02*
X140661000Y-98061000D01*
X119727920Y-89889999D02*
X148064001Y-89889999D01*
X148870001Y-90695999D02*
X148870001Y-93803259D01*
X140661000Y-98061000D02*
X140661000Y-98461000D01*
X148064001Y-89889999D02*
X148870001Y-90695999D01*
X148870001Y-93803259D02*
X146512260Y-96161000D01*
X146512260Y-96161000D02*
X142561000Y-96161000D01*
D21*
X143966999Y-92615001D02*
X138121000Y-98461000D01*
X146144999Y-92615001D02*
X143966999Y-92615001D01*
X147320000Y-91440000D02*
X146144999Y-92615001D01*
X138583012Y-96835990D02*
X137206010Y-96835990D01*
X143979002Y-91440000D02*
X138583012Y-96835990D01*
X137206010Y-96835990D02*
X135581000Y-98461000D01*
X144780000Y-91440000D02*
X143979002Y-91440000D01*
X140614988Y-93065012D02*
X138436988Y-93065012D01*
X142240000Y-91440000D02*
X140614988Y-93065012D01*
X138436988Y-93065012D02*
X133041000Y-98461000D01*
X139700000Y-91440000D02*
X138524999Y-92615001D01*
X135896988Y-93065012D02*
X130501000Y-98461000D01*
X136621409Y-92615001D02*
X136171399Y-93065012D01*
X138524999Y-92615001D02*
X136621409Y-92615001D01*
X136171399Y-93065012D02*
X135896988Y-93065012D01*
X137160000Y-91440000D02*
X135984999Y-92615001D01*
X135984999Y-92615001D02*
X134081409Y-92615001D01*
X134081409Y-92615001D02*
X133631399Y-93065012D01*
X133631399Y-93065012D02*
X133356988Y-93065012D01*
X133356988Y-93065012D02*
X127961000Y-98461000D01*
X133444999Y-92615001D02*
X131541409Y-92615001D01*
X131541409Y-92615001D02*
X131091399Y-93065012D01*
X129266988Y-93065012D02*
X125421000Y-96911000D01*
X125421000Y-96911000D02*
X125421000Y-98461000D01*
X131091399Y-93065012D02*
X129266988Y-93065012D01*
X134620000Y-91440000D02*
X133444999Y-92615001D01*
X132080000Y-91440000D02*
X130904999Y-92615001D01*
X130904999Y-92615001D02*
X129001409Y-92615001D01*
X128276988Y-93065012D02*
X122881000Y-98461000D01*
X129001409Y-92615001D02*
X128551399Y-93065012D01*
X128551399Y-93065012D02*
X128276988Y-93065012D01*
X125736988Y-93065012D02*
X120341000Y-98461000D01*
X128364999Y-92615001D02*
X126461409Y-92615001D01*
X129540000Y-91440000D02*
X128364999Y-92615001D01*
X126461409Y-92615001D02*
X126011399Y-93065012D01*
X126011399Y-93065012D02*
X125736988Y-93065012D01*
X123196988Y-93065012D02*
X117801000Y-98461000D01*
X123471399Y-93065012D02*
X123196988Y-93065012D01*
X127000000Y-91440000D02*
X125824999Y-92615001D01*
X125824999Y-92615001D02*
X123921409Y-92615001D01*
X123921409Y-92615001D02*
X123471399Y-93065012D01*
X120202833Y-93793577D02*
X119928423Y-93793577D01*
X124460000Y-91440000D02*
X123284999Y-92615001D01*
X119928423Y-93793577D02*
X115261000Y-98461000D01*
X123284999Y-92615001D02*
X121381409Y-92615001D01*
X121381409Y-92615001D02*
X120202833Y-93793577D01*
X120744999Y-92615001D02*
X118566999Y-92615001D01*
X121920000Y-91440000D02*
X120744999Y-92615001D01*
X118566999Y-92615001D02*
X112721000Y-98461000D01*
X111806010Y-100086010D02*
X143753990Y-100086010D01*
X143753990Y-100086010D02*
X153924000Y-89916000D01*
X110181000Y-98461000D02*
X111806010Y-100086010D01*
D22*
X112776000Y-90850869D02*
X112317995Y-90392864D01*
X112282448Y-90349550D01*
X112109622Y-90207715D01*
X111912446Y-90102323D01*
X111698498Y-90037422D01*
X111531751Y-90020999D01*
X111531750Y-90020999D01*
X111475999Y-90015508D01*
X111420248Y-90020999D01*
X109051752Y-90020999D01*
X108996000Y-90015508D01*
X108940249Y-90020999D01*
X108773502Y-90037422D01*
X108559554Y-90102323D01*
X108362378Y-90207715D01*
X108189552Y-90349550D01*
X108154009Y-90392859D01*
X107518718Y-91028150D01*
X107277426Y-91076147D01*
X107016273Y-91184320D01*
X106781241Y-91341363D01*
X106581363Y-91541241D01*
X106447308Y-91741869D01*
X106432671Y-91714486D01*
X106188702Y-91642903D01*
X105375605Y-92456000D01*
X106188702Y-93269097D01*
X106432671Y-93197514D01*
X106446324Y-93168659D01*
X106561000Y-93340284D01*
X106561001Y-96861628D01*
X106531537Y-96806506D01*
X106452185Y-96709815D01*
X106355494Y-96630463D01*
X106245180Y-96571498D01*
X106125482Y-96535188D01*
X106001000Y-96522928D01*
X105386750Y-96526000D01*
X105228000Y-96684750D01*
X105228000Y-98334000D01*
X105248000Y-98334000D01*
X105248000Y-98588000D01*
X105228000Y-98588000D01*
X105228000Y-100237250D01*
X105386750Y-100396000D01*
X106001000Y-100399072D01*
X106125482Y-100386812D01*
X106245180Y-100350502D01*
X106355494Y-100291537D01*
X106452185Y-100212185D01*
X106531537Y-100115494D01*
X106590502Y-100005180D01*
X106595495Y-99988720D01*
X106784074Y-100143481D01*
X107050740Y-100286017D01*
X107340088Y-100373790D01*
X107641000Y-100403427D01*
X107941913Y-100373790D01*
X108231261Y-100286017D01*
X108497927Y-100143481D01*
X108731661Y-99951661D01*
X108911000Y-99733135D01*
X109090339Y-99951661D01*
X109324074Y-100143481D01*
X109590740Y-100286017D01*
X109880088Y-100373790D01*
X110181000Y-100403427D01*
X110481913Y-100373790D01*
X110771261Y-100286017D01*
X110875499Y-100230301D01*
X111242211Y-100597013D01*
X111266009Y-100626011D01*
X111381734Y-100720984D01*
X111513763Y-100791556D01*
X111657024Y-100835013D01*
X111768677Y-100846010D01*
X111768686Y-100846010D01*
X111806009Y-100849686D01*
X111843332Y-100846010D01*
X143716668Y-100846010D01*
X143753990Y-100849686D01*
X143791312Y-100846010D01*
X143791323Y-100846010D01*
X143902976Y-100835013D01*
X144046237Y-100791556D01*
X144178266Y-100720984D01*
X144293991Y-100626011D01*
X144317794Y-100597007D01*
X146664080Y-98250721D01*
X172466000Y-98250721D01*
X172466000Y-98671279D01*
X172548047Y-99083756D01*
X172708988Y-99472302D01*
X172942637Y-99821983D01*
X173240017Y-100119363D01*
X173589698Y-100353012D01*
X173978244Y-100513953D01*
X174390721Y-100596000D01*
X174811279Y-100596000D01*
X175223756Y-100513953D01*
X175612302Y-100353012D01*
X175961983Y-100119363D01*
X176259363Y-99821983D01*
X176493012Y-99472302D01*
X176653953Y-99083756D01*
X176736000Y-98671279D01*
X176736000Y-98250721D01*
X176653953Y-97838244D01*
X176493012Y-97449698D01*
X176259363Y-97100017D01*
X175961983Y-96802637D01*
X175612302Y-96568988D01*
X175223756Y-96408047D01*
X174811279Y-96326000D01*
X174390721Y-96326000D01*
X173978244Y-96408047D01*
X173589698Y-96568988D01*
X173240017Y-96802637D01*
X172942637Y-97100017D01*
X172708988Y-97449698D01*
X172548047Y-97838244D01*
X172466000Y-98250721D01*
X146664080Y-98250721D01*
X153726402Y-91188400D01*
X153797291Y-91202500D01*
X154050709Y-91202500D01*
X154299258Y-91153061D01*
X154533386Y-91056082D01*
X154744096Y-90915290D01*
X154856787Y-90802599D01*
X155757006Y-90802599D01*
X155810576Y-91031426D01*
X156040740Y-91137470D01*
X156287170Y-91196574D01*
X156540396Y-91206466D01*
X156790685Y-91166765D01*
X157028420Y-91078999D01*
X157117424Y-91031426D01*
X157170994Y-90802599D01*
X156464000Y-90095605D01*
X155757006Y-90802599D01*
X154856787Y-90802599D01*
X154923290Y-90736096D01*
X155064082Y-90525386D01*
X155161061Y-90291258D01*
X155194374Y-90123780D01*
X155213235Y-90242685D01*
X155301001Y-90480420D01*
X155348574Y-90569424D01*
X155577401Y-90622994D01*
X156284395Y-89916000D01*
X156270253Y-89901858D01*
X156449858Y-89722253D01*
X156464000Y-89736395D01*
X156478143Y-89722253D01*
X156657748Y-89901858D01*
X156643605Y-89916000D01*
X157350599Y-90622994D01*
X157579426Y-90569424D01*
X157685470Y-90339260D01*
X157744574Y-90092830D01*
X157754466Y-89839604D01*
X157714765Y-89589315D01*
X157703943Y-89560000D01*
X159187015Y-89560000D01*
X164035631Y-95863200D01*
X164040575Y-95872450D01*
X164075208Y-95914650D01*
X164088634Y-95932104D01*
X164095770Y-95939705D01*
X164123052Y-95972948D01*
X164140165Y-95986992D01*
X164155323Y-96003138D01*
X164190309Y-96028145D01*
X164223550Y-96055425D01*
X164243083Y-96065865D01*
X164261091Y-96078737D01*
X164300272Y-96096434D01*
X164338207Y-96116710D01*
X164359398Y-96123138D01*
X164379574Y-96132251D01*
X164421453Y-96141963D01*
X164462617Y-96154450D01*
X164484662Y-96156621D01*
X164506222Y-96161621D01*
X164549187Y-96162976D01*
X164559581Y-96164000D01*
X164581640Y-96164000D01*
X164636167Y-96165720D01*
X164646507Y-96164000D01*
X177140000Y-96164000D01*
X177140001Y-131928000D01*
X97180000Y-131928000D01*
X97180000Y-129251421D01*
X97466900Y-129251421D01*
X97466900Y-129671979D01*
X97548947Y-130084456D01*
X97709888Y-130473002D01*
X97943537Y-130822683D01*
X98240917Y-131120063D01*
X98590598Y-131353712D01*
X98979144Y-131514653D01*
X99391621Y-131596700D01*
X99812179Y-131596700D01*
X100224656Y-131514653D01*
X100613202Y-131353712D01*
X100962883Y-131120063D01*
X101260263Y-130822683D01*
X101493912Y-130473002D01*
X101654853Y-130084456D01*
X101736900Y-129671979D01*
X101736900Y-129251421D01*
X172465480Y-129251421D01*
X172465480Y-129671979D01*
X172547527Y-130084456D01*
X172708468Y-130473002D01*
X172942117Y-130822683D01*
X173239497Y-131120063D01*
X173589178Y-131353712D01*
X173977724Y-131514653D01*
X174390201Y-131596700D01*
X174810759Y-131596700D01*
X175223236Y-131514653D01*
X175611782Y-131353712D01*
X175961463Y-131120063D01*
X176258843Y-130822683D01*
X176492492Y-130473002D01*
X176653433Y-130084456D01*
X176735480Y-129671979D01*
X176735480Y-129251421D01*
X176653433Y-128838944D01*
X176492492Y-128450398D01*
X176258843Y-128100717D01*
X175961463Y-127803337D01*
X175611782Y-127569688D01*
X175223236Y-127408747D01*
X174810759Y-127326700D01*
X174390201Y-127326700D01*
X173977724Y-127408747D01*
X173589178Y-127569688D01*
X173239497Y-127803337D01*
X172942117Y-128100717D01*
X172708468Y-128450398D01*
X172547527Y-128838944D01*
X172465480Y-129251421D01*
X101736900Y-129251421D01*
X101654853Y-128838944D01*
X101493912Y-128450398D01*
X101260263Y-128100717D01*
X100962883Y-127803337D01*
X100613202Y-127569688D01*
X100224656Y-127408747D01*
X99812179Y-127326700D01*
X99391621Y-127326700D01*
X98979144Y-127408747D01*
X98590598Y-127569688D01*
X98240917Y-127803337D01*
X97943537Y-128100717D01*
X97709888Y-128450398D01*
X97548947Y-128838944D01*
X97466900Y-129251421D01*
X97180000Y-129251421D01*
X97180000Y-98250721D01*
X97466900Y-98250721D01*
X97466900Y-98671279D01*
X97548947Y-99083756D01*
X97709888Y-99472302D01*
X97943537Y-99821983D01*
X98240917Y-100119363D01*
X98590598Y-100353012D01*
X98979144Y-100513953D01*
X99391621Y-100596000D01*
X99812179Y-100596000D01*
X100224656Y-100513953D01*
X100613202Y-100353012D01*
X100962883Y-100119363D01*
X101260263Y-99821983D01*
X101301010Y-99761000D01*
X103562928Y-99761000D01*
X103575188Y-99885482D01*
X103611498Y-100005180D01*
X103670463Y-100115494D01*
X103749815Y-100212185D01*
X103846506Y-100291537D01*
X103956820Y-100350502D01*
X104076518Y-100386812D01*
X104201000Y-100399072D01*
X104815250Y-100396000D01*
X104974000Y-100237250D01*
X104974000Y-98588000D01*
X103724750Y-98588000D01*
X103566000Y-98746750D01*
X103562928Y-99761000D01*
X101301010Y-99761000D01*
X101493912Y-99472302D01*
X101654853Y-99083756D01*
X101736900Y-98671279D01*
X101736900Y-98250721D01*
X101654853Y-97838244D01*
X101493912Y-97449698D01*
X101301011Y-97161000D01*
X103562928Y-97161000D01*
X103566000Y-98175250D01*
X103724750Y-98334000D01*
X104974000Y-98334000D01*
X104974000Y-96684750D01*
X104815250Y-96526000D01*
X104201000Y-96522928D01*
X104076518Y-96535188D01*
X103956820Y-96571498D01*
X103846506Y-96630463D01*
X103749815Y-96709815D01*
X103670463Y-96806506D01*
X103611498Y-96916820D01*
X103575188Y-97036518D01*
X103562928Y-97161000D01*
X101301011Y-97161000D01*
X101260263Y-97100017D01*
X100962883Y-96802637D01*
X100613202Y-96568988D01*
X100224656Y-96408047D01*
X99812179Y-96326000D01*
X99391621Y-96326000D01*
X98979144Y-96408047D01*
X98590598Y-96568988D01*
X98240917Y-96802637D01*
X97943537Y-97100017D01*
X97709888Y-97449698D01*
X97548947Y-97838244D01*
X97466900Y-98250721D01*
X97180000Y-98250721D01*
X97180000Y-93448702D01*
X104382903Y-93448702D01*
X104454486Y-93692671D01*
X104709996Y-93813571D01*
X104984184Y-93882300D01*
X105266512Y-93896217D01*
X105546130Y-93854787D01*
X105812292Y-93759603D01*
X105937514Y-93692671D01*
X106009097Y-93448702D01*
X105196000Y-92635605D01*
X104382903Y-93448702D01*
X97180000Y-93448702D01*
X97180000Y-92526512D01*
X103755783Y-92526512D01*
X103797213Y-92806130D01*
X103892397Y-93072292D01*
X103959329Y-93197514D01*
X104203298Y-93269097D01*
X105016395Y-92456000D01*
X104203298Y-91642903D01*
X103959329Y-91714486D01*
X103838429Y-91969996D01*
X103769700Y-92244184D01*
X103755783Y-92526512D01*
X97180000Y-92526512D01*
X97180000Y-91463298D01*
X104382903Y-91463298D01*
X105196000Y-92276395D01*
X106009097Y-91463298D01*
X105937514Y-91219329D01*
X105682004Y-91098429D01*
X105407816Y-91029700D01*
X105125488Y-91015783D01*
X104845870Y-91057213D01*
X104579708Y-91152397D01*
X104454486Y-91219329D01*
X104382903Y-91463298D01*
X97180000Y-91463298D01*
X97180000Y-89560000D01*
X114066868Y-89560000D01*
X112776000Y-90850869D01*
G04 #@! TA.AperFunction,Conductor*
D23*
G36*
X112776000Y-90850869D02*
G01*
X112317995Y-90392864D01*
X112282448Y-90349550D01*
X112109622Y-90207715D01*
X111912446Y-90102323D01*
X111698498Y-90037422D01*
X111531751Y-90020999D01*
X111531750Y-90020999D01*
X111475999Y-90015508D01*
X111420248Y-90020999D01*
X109051752Y-90020999D01*
X108996000Y-90015508D01*
X108940249Y-90020999D01*
X108773502Y-90037422D01*
X108559554Y-90102323D01*
X108362378Y-90207715D01*
X108189552Y-90349550D01*
X108154009Y-90392859D01*
X107518718Y-91028150D01*
X107277426Y-91076147D01*
X107016273Y-91184320D01*
X106781241Y-91341363D01*
X106581363Y-91541241D01*
X106447308Y-91741869D01*
X106432671Y-91714486D01*
X106188702Y-91642903D01*
X105375605Y-92456000D01*
X106188702Y-93269097D01*
X106432671Y-93197514D01*
X106446324Y-93168659D01*
X106561000Y-93340284D01*
X106561001Y-96861628D01*
X106531537Y-96806506D01*
X106452185Y-96709815D01*
X106355494Y-96630463D01*
X106245180Y-96571498D01*
X106125482Y-96535188D01*
X106001000Y-96522928D01*
X105386750Y-96526000D01*
X105228000Y-96684750D01*
X105228000Y-98334000D01*
X105248000Y-98334000D01*
X105248000Y-98588000D01*
X105228000Y-98588000D01*
X105228000Y-100237250D01*
X105386750Y-100396000D01*
X106001000Y-100399072D01*
X106125482Y-100386812D01*
X106245180Y-100350502D01*
X106355494Y-100291537D01*
X106452185Y-100212185D01*
X106531537Y-100115494D01*
X106590502Y-100005180D01*
X106595495Y-99988720D01*
X106784074Y-100143481D01*
X107050740Y-100286017D01*
X107340088Y-100373790D01*
X107641000Y-100403427D01*
X107941913Y-100373790D01*
X108231261Y-100286017D01*
X108497927Y-100143481D01*
X108731661Y-99951661D01*
X108911000Y-99733135D01*
X109090339Y-99951661D01*
X109324074Y-100143481D01*
X109590740Y-100286017D01*
X109880088Y-100373790D01*
X110181000Y-100403427D01*
X110481913Y-100373790D01*
X110771261Y-100286017D01*
X110875499Y-100230301D01*
X111242211Y-100597013D01*
X111266009Y-100626011D01*
X111381734Y-100720984D01*
X111513763Y-100791556D01*
X111657024Y-100835013D01*
X111768677Y-100846010D01*
X111768686Y-100846010D01*
X111806009Y-100849686D01*
X111843332Y-100846010D01*
X143716668Y-100846010D01*
X143753990Y-100849686D01*
X143791312Y-100846010D01*
X143791323Y-100846010D01*
X143902976Y-100835013D01*
X144046237Y-100791556D01*
X144178266Y-100720984D01*
X144293991Y-100626011D01*
X144317794Y-100597007D01*
X146664080Y-98250721D01*
X172466000Y-98250721D01*
X172466000Y-98671279D01*
X172548047Y-99083756D01*
X172708988Y-99472302D01*
X172942637Y-99821983D01*
X173240017Y-100119363D01*
X173589698Y-100353012D01*
X173978244Y-100513953D01*
X174390721Y-100596000D01*
X174811279Y-100596000D01*
X175223756Y-100513953D01*
X175612302Y-100353012D01*
X175961983Y-100119363D01*
X176259363Y-99821983D01*
X176493012Y-99472302D01*
X176653953Y-99083756D01*
X176736000Y-98671279D01*
X176736000Y-98250721D01*
X176653953Y-97838244D01*
X176493012Y-97449698D01*
X176259363Y-97100017D01*
X175961983Y-96802637D01*
X175612302Y-96568988D01*
X175223756Y-96408047D01*
X174811279Y-96326000D01*
X174390721Y-96326000D01*
X173978244Y-96408047D01*
X173589698Y-96568988D01*
X173240017Y-96802637D01*
X172942637Y-97100017D01*
X172708988Y-97449698D01*
X172548047Y-97838244D01*
X172466000Y-98250721D01*
X146664080Y-98250721D01*
X153726402Y-91188400D01*
X153797291Y-91202500D01*
X154050709Y-91202500D01*
X154299258Y-91153061D01*
X154533386Y-91056082D01*
X154744096Y-90915290D01*
X154856787Y-90802599D01*
X155757006Y-90802599D01*
X155810576Y-91031426D01*
X156040740Y-91137470D01*
X156287170Y-91196574D01*
X156540396Y-91206466D01*
X156790685Y-91166765D01*
X157028420Y-91078999D01*
X157117424Y-91031426D01*
X157170994Y-90802599D01*
X156464000Y-90095605D01*
X155757006Y-90802599D01*
X154856787Y-90802599D01*
X154923290Y-90736096D01*
X155064082Y-90525386D01*
X155161061Y-90291258D01*
X155194374Y-90123780D01*
X155213235Y-90242685D01*
X155301001Y-90480420D01*
X155348574Y-90569424D01*
X155577401Y-90622994D01*
X156284395Y-89916000D01*
X156270253Y-89901858D01*
X156449858Y-89722253D01*
X156464000Y-89736395D01*
X156478143Y-89722253D01*
X156657748Y-89901858D01*
X156643605Y-89916000D01*
X157350599Y-90622994D01*
X157579426Y-90569424D01*
X157685470Y-90339260D01*
X157744574Y-90092830D01*
X157754466Y-89839604D01*
X157714765Y-89589315D01*
X157703943Y-89560000D01*
X159187015Y-89560000D01*
X164035631Y-95863200D01*
X164040575Y-95872450D01*
X164075208Y-95914650D01*
X164088634Y-95932104D01*
X164095770Y-95939705D01*
X164123052Y-95972948D01*
X164140165Y-95986992D01*
X164155323Y-96003138D01*
X164190309Y-96028145D01*
X164223550Y-96055425D01*
X164243083Y-96065865D01*
X164261091Y-96078737D01*
X164300272Y-96096434D01*
X164338207Y-96116710D01*
X164359398Y-96123138D01*
X164379574Y-96132251D01*
X164421453Y-96141963D01*
X164462617Y-96154450D01*
X164484662Y-96156621D01*
X164506222Y-96161621D01*
X164549187Y-96162976D01*
X164559581Y-96164000D01*
X164581640Y-96164000D01*
X164636167Y-96165720D01*
X164646507Y-96164000D01*
X177140000Y-96164000D01*
X177140001Y-131928000D01*
X97180000Y-131928000D01*
X97180000Y-129251421D01*
X97466900Y-129251421D01*
X97466900Y-129671979D01*
X97548947Y-130084456D01*
X97709888Y-130473002D01*
X97943537Y-130822683D01*
X98240917Y-131120063D01*
X98590598Y-131353712D01*
X98979144Y-131514653D01*
X99391621Y-131596700D01*
X99812179Y-131596700D01*
X100224656Y-131514653D01*
X100613202Y-131353712D01*
X100962883Y-131120063D01*
X101260263Y-130822683D01*
X101493912Y-130473002D01*
X101654853Y-130084456D01*
X101736900Y-129671979D01*
X101736900Y-129251421D01*
X172465480Y-129251421D01*
X172465480Y-129671979D01*
X172547527Y-130084456D01*
X172708468Y-130473002D01*
X172942117Y-130822683D01*
X173239497Y-131120063D01*
X173589178Y-131353712D01*
X173977724Y-131514653D01*
X174390201Y-131596700D01*
X174810759Y-131596700D01*
X175223236Y-131514653D01*
X175611782Y-131353712D01*
X175961463Y-131120063D01*
X176258843Y-130822683D01*
X176492492Y-130473002D01*
X176653433Y-130084456D01*
X176735480Y-129671979D01*
X176735480Y-129251421D01*
X176653433Y-128838944D01*
X176492492Y-128450398D01*
X176258843Y-128100717D01*
X175961463Y-127803337D01*
X175611782Y-127569688D01*
X175223236Y-127408747D01*
X174810759Y-127326700D01*
X174390201Y-127326700D01*
X173977724Y-127408747D01*
X173589178Y-127569688D01*
X173239497Y-127803337D01*
X172942117Y-128100717D01*
X172708468Y-128450398D01*
X172547527Y-128838944D01*
X172465480Y-129251421D01*
X101736900Y-129251421D01*
X101654853Y-128838944D01*
X101493912Y-128450398D01*
X101260263Y-128100717D01*
X100962883Y-127803337D01*
X100613202Y-127569688D01*
X100224656Y-127408747D01*
X99812179Y-127326700D01*
X99391621Y-127326700D01*
X98979144Y-127408747D01*
X98590598Y-127569688D01*
X98240917Y-127803337D01*
X97943537Y-128100717D01*
X97709888Y-128450398D01*
X97548947Y-128838944D01*
X97466900Y-129251421D01*
X97180000Y-129251421D01*
X97180000Y-98250721D01*
X97466900Y-98250721D01*
X97466900Y-98671279D01*
X97548947Y-99083756D01*
X97709888Y-99472302D01*
X97943537Y-99821983D01*
X98240917Y-100119363D01*
X98590598Y-100353012D01*
X98979144Y-100513953D01*
X99391621Y-100596000D01*
X99812179Y-100596000D01*
X100224656Y-100513953D01*
X100613202Y-100353012D01*
X100962883Y-100119363D01*
X101260263Y-99821983D01*
X101301010Y-99761000D01*
X103562928Y-99761000D01*
X103575188Y-99885482D01*
X103611498Y-100005180D01*
X103670463Y-100115494D01*
X103749815Y-100212185D01*
X103846506Y-100291537D01*
X103956820Y-100350502D01*
X104076518Y-100386812D01*
X104201000Y-100399072D01*
X104815250Y-100396000D01*
X104974000Y-100237250D01*
X104974000Y-98588000D01*
X103724750Y-98588000D01*
X103566000Y-98746750D01*
X103562928Y-99761000D01*
X101301010Y-99761000D01*
X101493912Y-99472302D01*
X101654853Y-99083756D01*
X101736900Y-98671279D01*
X101736900Y-98250721D01*
X101654853Y-97838244D01*
X101493912Y-97449698D01*
X101301011Y-97161000D01*
X103562928Y-97161000D01*
X103566000Y-98175250D01*
X103724750Y-98334000D01*
X104974000Y-98334000D01*
X104974000Y-96684750D01*
X104815250Y-96526000D01*
X104201000Y-96522928D01*
X104076518Y-96535188D01*
X103956820Y-96571498D01*
X103846506Y-96630463D01*
X103749815Y-96709815D01*
X103670463Y-96806506D01*
X103611498Y-96916820D01*
X103575188Y-97036518D01*
X103562928Y-97161000D01*
X101301011Y-97161000D01*
X101260263Y-97100017D01*
X100962883Y-96802637D01*
X100613202Y-96568988D01*
X100224656Y-96408047D01*
X99812179Y-96326000D01*
X99391621Y-96326000D01*
X98979144Y-96408047D01*
X98590598Y-96568988D01*
X98240917Y-96802637D01*
X97943537Y-97100017D01*
X97709888Y-97449698D01*
X97548947Y-97838244D01*
X97466900Y-98250721D01*
X97180000Y-98250721D01*
X97180000Y-93448702D01*
X104382903Y-93448702D01*
X104454486Y-93692671D01*
X104709996Y-93813571D01*
X104984184Y-93882300D01*
X105266512Y-93896217D01*
X105546130Y-93854787D01*
X105812292Y-93759603D01*
X105937514Y-93692671D01*
X106009097Y-93448702D01*
X105196000Y-92635605D01*
X104382903Y-93448702D01*
X97180000Y-93448702D01*
X97180000Y-92526512D01*
X103755783Y-92526512D01*
X103797213Y-92806130D01*
X103892397Y-93072292D01*
X103959329Y-93197514D01*
X104203298Y-93269097D01*
X105016395Y-92456000D01*
X104203298Y-91642903D01*
X103959329Y-91714486D01*
X103838429Y-91969996D01*
X103769700Y-92244184D01*
X103755783Y-92526512D01*
X97180000Y-92526512D01*
X97180000Y-91463298D01*
X104382903Y-91463298D01*
X105196000Y-92276395D01*
X106009097Y-91463298D01*
X105937514Y-91219329D01*
X105682004Y-91098429D01*
X105407816Y-91029700D01*
X105125488Y-91015783D01*
X104845870Y-91057213D01*
X104579708Y-91152397D01*
X104454486Y-91219329D01*
X104382903Y-91463298D01*
X97180000Y-91463298D01*
X97180000Y-89560000D01*
X114066868Y-89560000D01*
X112776000Y-90850869D01*
G37*
G04 #@! TD.AperFunction*
D22*
X143328000Y-98334000D02*
X143348000Y-98334000D01*
X143348000Y-98588000D01*
X143328000Y-98588000D01*
X143328000Y-98608000D01*
X143074000Y-98608000D01*
X143074000Y-98588000D01*
X143054000Y-98588000D01*
X143054000Y-98334000D01*
X143074000Y-98334000D01*
X143074000Y-98314000D01*
X143328000Y-98314000D01*
X143328000Y-98334000D01*
G04 #@! TA.AperFunction,Conductor*
D23*
G36*
X143328000Y-98334000D02*
G01*
X143348000Y-98334000D01*
X143348000Y-98588000D01*
X143328000Y-98588000D01*
X143328000Y-98608000D01*
X143074000Y-98608000D01*
X143074000Y-98588000D01*
X143054000Y-98588000D01*
X143054000Y-98334000D01*
X143074000Y-98334000D01*
X143074000Y-98314000D01*
X143328000Y-98314000D01*
X143328000Y-98334000D01*
G37*
G04 #@! TD.AperFunction*
D22*
X128655499Y-96691700D02*
X128551260Y-96635983D01*
X128261912Y-96548210D01*
X127961000Y-96518573D01*
X127660087Y-96548210D01*
X127370739Y-96635983D01*
X127104073Y-96778519D01*
X126870339Y-96970339D01*
X126691000Y-97188865D01*
X126511661Y-96970339D01*
X126470358Y-96936443D01*
X129581791Y-93825012D01*
X131054074Y-93825012D01*
X131091399Y-93828688D01*
X131128722Y-93825012D01*
X131128732Y-93825012D01*
X131240385Y-93814015D01*
X131383646Y-93770558D01*
X131515675Y-93699986D01*
X131631400Y-93605013D01*
X131655199Y-93576014D01*
X131856211Y-93375001D01*
X131972196Y-93375001D01*
X128655499Y-96691700D01*
G04 #@! TA.AperFunction,Conductor*
D23*
G36*
X128655499Y-96691700D02*
G01*
X128551260Y-96635983D01*
X128261912Y-96548210D01*
X127961000Y-96518573D01*
X127660087Y-96548210D01*
X127370739Y-96635983D01*
X127104073Y-96778519D01*
X126870339Y-96970339D01*
X126691000Y-97188865D01*
X126511661Y-96970339D01*
X126470358Y-96936443D01*
X129581791Y-93825012D01*
X131054074Y-93825012D01*
X131091399Y-93828688D01*
X131128722Y-93825012D01*
X131128732Y-93825012D01*
X131240385Y-93814015D01*
X131383646Y-93770558D01*
X131515675Y-93699986D01*
X131631400Y-93605013D01*
X131655199Y-93576014D01*
X131856211Y-93375001D01*
X131972196Y-93375001D01*
X128655499Y-96691700D01*
G37*
G04 #@! TD.AperFunction*
D22*
X116967000Y-91313000D02*
X116987000Y-91313000D01*
X116987000Y-91567000D01*
X116967000Y-91567000D01*
X116967000Y-92766250D01*
X117125750Y-92925000D01*
X117181892Y-92925306D01*
X113415499Y-96691700D01*
X113311260Y-96635983D01*
X113021912Y-96548210D01*
X112721000Y-96518573D01*
X112420087Y-96548210D01*
X112130739Y-96635983D01*
X111864073Y-96778519D01*
X111630339Y-96970339D01*
X111451000Y-97188865D01*
X111271661Y-96970339D01*
X111037926Y-96778519D01*
X110771260Y-96635983D01*
X110481912Y-96548210D01*
X110181000Y-96518573D01*
X109880087Y-96548210D01*
X109590739Y-96635983D01*
X109324073Y-96778519D01*
X109090339Y-96970339D01*
X108911000Y-97188865D01*
X108831000Y-97091384D01*
X108831000Y-93340284D01*
X108967680Y-93135727D01*
X109075853Y-92874574D01*
X109123850Y-92633282D01*
X109466133Y-92290999D01*
X109546074Y-92290999D01*
X109546000Y-92291313D01*
X109537505Y-92534438D01*
X109576605Y-92774549D01*
X109661798Y-93002418D01*
X109702652Y-93078852D01*
X109926236Y-93126159D01*
X110596395Y-92456000D01*
X110582253Y-92441858D01*
X110733111Y-92290999D01*
X110818889Y-92290999D01*
X110969748Y-92441858D01*
X110955605Y-92456000D01*
X110969748Y-92470143D01*
X110790143Y-92649748D01*
X110776000Y-92635605D01*
X110105841Y-93305764D01*
X110153148Y-93529348D01*
X110374516Y-93630237D01*
X110611313Y-93686000D01*
X110854438Y-93694495D01*
X111094549Y-93655395D01*
X111322418Y-93570202D01*
X111398852Y-93529348D01*
X111446158Y-93305766D01*
X111563264Y-93422872D01*
X111621142Y-93364994D01*
X111645463Y-93410494D01*
X111724815Y-93507185D01*
X111821506Y-93586537D01*
X111931820Y-93645502D01*
X112051518Y-93681812D01*
X112176000Y-93694072D01*
X113376000Y-93694072D01*
X113500482Y-93681812D01*
X113620180Y-93645502D01*
X113730494Y-93586537D01*
X113827185Y-93507185D01*
X113906537Y-93410494D01*
X113965502Y-93300180D01*
X114001812Y-93180482D01*
X114014072Y-93056000D01*
X114014072Y-92823059D01*
X115355000Y-91482132D01*
X115355000Y-91567002D01*
X115513748Y-91567002D01*
X115355000Y-91725750D01*
X115351928Y-92290000D01*
X115364188Y-92414482D01*
X115400498Y-92534180D01*
X115459463Y-92644494D01*
X115538815Y-92741185D01*
X115635506Y-92820537D01*
X115745820Y-92879502D01*
X115865518Y-92915812D01*
X115990000Y-92928072D01*
X116554250Y-92925000D01*
X116713000Y-92766250D01*
X116713000Y-91567000D01*
X116693000Y-91567000D01*
X116693000Y-91313000D01*
X116713000Y-91313000D01*
X116713000Y-91293000D01*
X116967000Y-91293000D01*
X116967000Y-91313000D01*
G04 #@! TA.AperFunction,Conductor*
D23*
G36*
X116967000Y-91313000D02*
G01*
X116987000Y-91313000D01*
X116987000Y-91567000D01*
X116967000Y-91567000D01*
X116967000Y-92766250D01*
X117125750Y-92925000D01*
X117181892Y-92925306D01*
X113415499Y-96691700D01*
X113311260Y-96635983D01*
X113021912Y-96548210D01*
X112721000Y-96518573D01*
X112420087Y-96548210D01*
X112130739Y-96635983D01*
X111864073Y-96778519D01*
X111630339Y-96970339D01*
X111451000Y-97188865D01*
X111271661Y-96970339D01*
X111037926Y-96778519D01*
X110771260Y-96635983D01*
X110481912Y-96548210D01*
X110181000Y-96518573D01*
X109880087Y-96548210D01*
X109590739Y-96635983D01*
X109324073Y-96778519D01*
X109090339Y-96970339D01*
X108911000Y-97188865D01*
X108831000Y-97091384D01*
X108831000Y-93340284D01*
X108967680Y-93135727D01*
X109075853Y-92874574D01*
X109123850Y-92633282D01*
X109466133Y-92290999D01*
X109546074Y-92290999D01*
X109546000Y-92291313D01*
X109537505Y-92534438D01*
X109576605Y-92774549D01*
X109661798Y-93002418D01*
X109702652Y-93078852D01*
X109926236Y-93126159D01*
X110596395Y-92456000D01*
X110582253Y-92441858D01*
X110733111Y-92290999D01*
X110818889Y-92290999D01*
X110969748Y-92441858D01*
X110955605Y-92456000D01*
X110969748Y-92470143D01*
X110790143Y-92649748D01*
X110776000Y-92635605D01*
X110105841Y-93305764D01*
X110153148Y-93529348D01*
X110374516Y-93630237D01*
X110611313Y-93686000D01*
X110854438Y-93694495D01*
X111094549Y-93655395D01*
X111322418Y-93570202D01*
X111398852Y-93529348D01*
X111446158Y-93305766D01*
X111563264Y-93422872D01*
X111621142Y-93364994D01*
X111645463Y-93410494D01*
X111724815Y-93507185D01*
X111821506Y-93586537D01*
X111931820Y-93645502D01*
X112051518Y-93681812D01*
X112176000Y-93694072D01*
X113376000Y-93694072D01*
X113500482Y-93681812D01*
X113620180Y-93645502D01*
X113730494Y-93586537D01*
X113827185Y-93507185D01*
X113906537Y-93410494D01*
X113965502Y-93300180D01*
X114001812Y-93180482D01*
X114014072Y-93056000D01*
X114014072Y-92823059D01*
X115355000Y-91482132D01*
X115355000Y-91567002D01*
X115513748Y-91567002D01*
X115355000Y-91725750D01*
X115351928Y-92290000D01*
X115364188Y-92414482D01*
X115400498Y-92534180D01*
X115459463Y-92644494D01*
X115538815Y-92741185D01*
X115635506Y-92820537D01*
X115745820Y-92879502D01*
X115865518Y-92915812D01*
X115990000Y-92928072D01*
X116554250Y-92925000D01*
X116713000Y-92766250D01*
X116713000Y-91567000D01*
X116693000Y-91567000D01*
X116693000Y-91313000D01*
X116713000Y-91313000D01*
X116713000Y-91293000D01*
X116967000Y-91293000D01*
X116967000Y-91313000D01*
G37*
G04 #@! TD.AperFunction*
D22*
X115955499Y-96691700D02*
X115851260Y-96635983D01*
X115674453Y-96582349D01*
X118881801Y-93375001D01*
X119272197Y-93375001D01*
X115955499Y-96691700D01*
G04 #@! TA.AperFunction,Conductor*
D23*
G36*
X115955499Y-96691700D02*
G01*
X115851260Y-96635983D01*
X115674453Y-96582349D01*
X118881801Y-93375001D01*
X119272197Y-93375001D01*
X115955499Y-96691700D01*
G37*
G04 #@! TD.AperFunction*
D22*
X118495499Y-96691700D02*
X118391260Y-96635983D01*
X118214453Y-96582349D01*
X120243559Y-94553243D01*
X120351819Y-94542580D01*
X120495080Y-94499123D01*
X120627109Y-94428551D01*
X120742834Y-94333578D01*
X120766637Y-94304574D01*
X121696211Y-93375001D01*
X121812196Y-93375001D01*
X118495499Y-96691700D01*
G04 #@! TA.AperFunction,Conductor*
D23*
G36*
X118495499Y-96691700D02*
G01*
X118391260Y-96635983D01*
X118214453Y-96582349D01*
X120243559Y-94553243D01*
X120351819Y-94542580D01*
X120495080Y-94499123D01*
X120627109Y-94428551D01*
X120742834Y-94333578D01*
X120766637Y-94304574D01*
X121696211Y-93375001D01*
X121812196Y-93375001D01*
X118495499Y-96691700D01*
G37*
G04 #@! TD.AperFunction*
D22*
X121035499Y-96691700D02*
X120931260Y-96635983D01*
X120754453Y-96582349D01*
X123512125Y-93824678D01*
X123620385Y-93814015D01*
X123763646Y-93770558D01*
X123895675Y-93699986D01*
X124011400Y-93605013D01*
X124035199Y-93576014D01*
X124236211Y-93375001D01*
X124352196Y-93375001D01*
X121035499Y-96691700D01*
G04 #@! TA.AperFunction,Conductor*
D23*
G36*
X121035499Y-96691700D02*
G01*
X120931260Y-96635983D01*
X120754453Y-96582349D01*
X123512125Y-93824678D01*
X123620385Y-93814015D01*
X123763646Y-93770558D01*
X123895675Y-93699986D01*
X124011400Y-93605013D01*
X124035199Y-93576014D01*
X124236211Y-93375001D01*
X124352196Y-93375001D01*
X121035499Y-96691700D01*
G37*
G04 #@! TD.AperFunction*
D22*
X138268211Y-96075990D02*
X137243332Y-96075990D01*
X137206009Y-96072314D01*
X137168686Y-96075990D01*
X137168677Y-96075990D01*
X137057024Y-96086987D01*
X136913763Y-96130444D01*
X136781734Y-96201016D01*
X136666009Y-96295989D01*
X136642211Y-96324987D01*
X136275499Y-96691700D01*
X136171260Y-96635983D01*
X135994453Y-96582349D01*
X138751791Y-93825012D01*
X140519189Y-93825012D01*
X138268211Y-96075990D01*
G04 #@! TA.AperFunction,Conductor*
D23*
G36*
X138268211Y-96075990D02*
G01*
X137243332Y-96075990D01*
X137206009Y-96072314D01*
X137168686Y-96075990D01*
X137168677Y-96075990D01*
X137057024Y-96086987D01*
X136913763Y-96130444D01*
X136781734Y-96201016D01*
X136666009Y-96295989D01*
X136642211Y-96324987D01*
X136275499Y-96691700D01*
X136171260Y-96635983D01*
X135994453Y-96582349D01*
X138751791Y-93825012D01*
X140519189Y-93825012D01*
X138268211Y-96075990D01*
G37*
G04 #@! TD.AperFunction*
D22*
X133735499Y-96691700D02*
X133631260Y-96635983D01*
X133454453Y-96582349D01*
X136212125Y-93824678D01*
X136320385Y-93814015D01*
X136463646Y-93770558D01*
X136595675Y-93699986D01*
X136711400Y-93605013D01*
X136735199Y-93576014D01*
X136936211Y-93375001D01*
X137052196Y-93375001D01*
X133735499Y-96691700D01*
G04 #@! TA.AperFunction,Conductor*
D23*
G36*
X133735499Y-96691700D02*
G01*
X133631260Y-96635983D01*
X133454453Y-96582349D01*
X136212125Y-93824678D01*
X136320385Y-93814015D01*
X136463646Y-93770558D01*
X136595675Y-93699986D01*
X136711400Y-93605013D01*
X136735199Y-93576014D01*
X136936211Y-93375001D01*
X137052196Y-93375001D01*
X133735499Y-96691700D01*
G37*
G04 #@! TD.AperFunction*
D22*
X131195499Y-96691700D02*
X131091260Y-96635983D01*
X130914453Y-96582349D01*
X133672125Y-93824678D01*
X133780385Y-93814015D01*
X133923646Y-93770558D01*
X134055675Y-93699986D01*
X134171400Y-93605013D01*
X134195199Y-93576014D01*
X134396211Y-93375001D01*
X134512196Y-93375001D01*
X131195499Y-96691700D01*
G04 #@! TA.AperFunction,Conductor*
D23*
G36*
X131195499Y-96691700D02*
G01*
X131091260Y-96635983D01*
X130914453Y-96582349D01*
X133672125Y-93824678D01*
X133780385Y-93814015D01*
X133923646Y-93770558D01*
X134055675Y-93699986D01*
X134171400Y-93605013D01*
X134195199Y-93576014D01*
X134396211Y-93375001D01*
X134512196Y-93375001D01*
X131195499Y-96691700D01*
G37*
G04 #@! TD.AperFunction*
D22*
X123575499Y-96691700D02*
X123471260Y-96635983D01*
X123294453Y-96582349D01*
X126052125Y-93824678D01*
X126160385Y-93814015D01*
X126303646Y-93770558D01*
X126435675Y-93699986D01*
X126551400Y-93605013D01*
X126575199Y-93576014D01*
X126776211Y-93375001D01*
X126892196Y-93375001D01*
X123575499Y-96691700D01*
G04 #@! TA.AperFunction,Conductor*
D23*
G36*
X123575499Y-96691700D02*
G01*
X123471260Y-96635983D01*
X123294453Y-96582349D01*
X126052125Y-93824678D01*
X126160385Y-93814015D01*
X126303646Y-93770558D01*
X126435675Y-93699986D01*
X126551400Y-93605013D01*
X126575199Y-93576014D01*
X126776211Y-93375001D01*
X126892196Y-93375001D01*
X123575499Y-96691700D01*
G37*
G04 #@! TD.AperFunction*
D22*
X147735002Y-93333126D02*
X146042129Y-95026000D01*
X142630802Y-95026000D01*
X144281801Y-93375001D01*
X146107677Y-93375001D01*
X146144999Y-93378677D01*
X146182321Y-93375001D01*
X146182332Y-93375001D01*
X146293985Y-93364004D01*
X146437246Y-93320547D01*
X146569275Y-93249975D01*
X146685000Y-93155002D01*
X146708803Y-93125998D01*
X146953592Y-92881209D01*
X147173740Y-92925000D01*
X147466260Y-92925000D01*
X147735002Y-92871544D01*
X147735002Y-93333126D01*
G04 #@! TA.AperFunction,Conductor*
D23*
G36*
X147735002Y-93333126D02*
G01*
X146042129Y-95026000D01*
X142630802Y-95026000D01*
X144281801Y-93375001D01*
X146107677Y-93375001D01*
X146144999Y-93378677D01*
X146182321Y-93375001D01*
X146182332Y-93375001D01*
X146293985Y-93364004D01*
X146437246Y-93320547D01*
X146569275Y-93249975D01*
X146685000Y-93155002D01*
X146708803Y-93125998D01*
X146953592Y-92881209D01*
X147173740Y-92925000D01*
X147466260Y-92925000D01*
X147735002Y-92871544D01*
X147735002Y-93333126D01*
G37*
G04 #@! TD.AperFunction*
D22*
X150097500Y-89789291D02*
X150097500Y-90042709D01*
X150146939Y-90291258D01*
X150243918Y-90525386D01*
X150384710Y-90736096D01*
X150563904Y-90915290D01*
X150774614Y-91056082D01*
X151008742Y-91153061D01*
X151257291Y-91202500D01*
X151510709Y-91202500D01*
X151575607Y-91189591D01*
X150005001Y-92760197D01*
X150005001Y-90751750D01*
X150010492Y-90695998D01*
X149988578Y-90473499D01*
X149950978Y-90349551D01*
X149923677Y-90259552D01*
X149818285Y-90062376D01*
X149676450Y-89889550D01*
X149633141Y-89854007D01*
X149339134Y-89560000D01*
X150143108Y-89560000D01*
X150097500Y-89789291D01*
G04 #@! TA.AperFunction,Conductor*
D23*
G36*
X150097500Y-89789291D02*
G01*
X150097500Y-90042709D01*
X150146939Y-90291258D01*
X150243918Y-90525386D01*
X150384710Y-90736096D01*
X150563904Y-90915290D01*
X150774614Y-91056082D01*
X151008742Y-91153061D01*
X151257291Y-91202500D01*
X151510709Y-91202500D01*
X151575607Y-91189591D01*
X150005001Y-92760197D01*
X150005001Y-90751750D01*
X150010492Y-90695998D01*
X149988578Y-90473499D01*
X149950978Y-90349551D01*
X149923677Y-90259552D01*
X149818285Y-90062376D01*
X149676450Y-89889550D01*
X149633141Y-89854007D01*
X149339134Y-89560000D01*
X150143108Y-89560000D01*
X150097500Y-89789291D01*
G37*
G04 #@! TD.AperFunction*
M02*
