G04 #@! TF.GenerationSoftware,KiCad,Pcbnew,(5.1.10-1-10_14)*
G04 #@! TF.CreationDate,2021-11-19T10:18:53+01:00*
G04 #@! TF.ProjectId,lcd,6c63642e-6b69-4636-9164-5f7063625858,rev?*
G04 #@! TF.SameCoordinates,Original*
G04 #@! TF.FileFunction,Legend,Top*
G04 #@! TF.FilePolarity,Positive*
%FSLAX46Y46*%
G04 Gerber Fmt 4.6, Leading zero omitted, Abs format (unit mm)*
G04 Created by KiCad (PCBNEW (5.1.10-1-10_14)) date 2021-11-19 10:18:53*
%MOMM*%
%LPD*%
G01*
G04 APERTURE LIST*
%ADD10C,0.150000*%
%ADD11C,0.120000*%
%ADD12C,0.200000*%
%ADD13C,0.100000*%
%ADD14C,0.254000*%
%ADD15R,1.200000X1.200000*%
%ADD16C,1.200000*%
%ADD17C,1.303000*%
%ADD18O,1.700000X1.700000*%
%ADD19R,1.700000X1.700000*%
%ADD20C,3.000000*%
%ADD21O,1.800000X2.600000*%
%ADD22R,1.800000X2.600000*%
%ADD23C,1.600000*%
G04 APERTURE END LIST*
D10*
X147772380Y-94972095D02*
X146772380Y-94972095D01*
X146772380Y-94734000D01*
X146820000Y-94591142D01*
X146915238Y-94495904D01*
X147010476Y-94448285D01*
X147200952Y-94400666D01*
X147343809Y-94400666D01*
X147534285Y-94448285D01*
X147629523Y-94495904D01*
X147724761Y-94591142D01*
X147772380Y-94734000D01*
X147772380Y-94972095D01*
X146772380Y-94067333D02*
X146772380Y-93400666D01*
X147772380Y-93829238D01*
X145232380Y-94972095D02*
X144232380Y-94972095D01*
X144232380Y-94734000D01*
X144280000Y-94591142D01*
X144375238Y-94495904D01*
X144470476Y-94448285D01*
X144660952Y-94400666D01*
X144803809Y-94400666D01*
X144994285Y-94448285D01*
X145089523Y-94495904D01*
X145184761Y-94591142D01*
X145232380Y-94734000D01*
X145232380Y-94972095D01*
X144232380Y-93543523D02*
X144232380Y-93734000D01*
X144280000Y-93829238D01*
X144327619Y-93876857D01*
X144470476Y-93972095D01*
X144660952Y-94019714D01*
X145041904Y-94019714D01*
X145137142Y-93972095D01*
X145184761Y-93924476D01*
X145232380Y-93829238D01*
X145232380Y-93638761D01*
X145184761Y-93543523D01*
X145137142Y-93495904D01*
X145041904Y-93448285D01*
X144803809Y-93448285D01*
X144708571Y-93495904D01*
X144660952Y-93543523D01*
X144613333Y-93638761D01*
X144613333Y-93829238D01*
X144660952Y-93924476D01*
X144708571Y-93972095D01*
X144803809Y-94019714D01*
X142692380Y-95099095D02*
X141692380Y-95099095D01*
X141692380Y-94861000D01*
X141740000Y-94718142D01*
X141835238Y-94622904D01*
X141930476Y-94575285D01*
X142120952Y-94527666D01*
X142263809Y-94527666D01*
X142454285Y-94575285D01*
X142549523Y-94622904D01*
X142644761Y-94718142D01*
X142692380Y-94861000D01*
X142692380Y-95099095D01*
X141692380Y-93622904D02*
X141692380Y-94099095D01*
X142168571Y-94146714D01*
X142120952Y-94099095D01*
X142073333Y-94003857D01*
X142073333Y-93765761D01*
X142120952Y-93670523D01*
X142168571Y-93622904D01*
X142263809Y-93575285D01*
X142501904Y-93575285D01*
X142597142Y-93622904D01*
X142644761Y-93670523D01*
X142692380Y-93765761D01*
X142692380Y-94003857D01*
X142644761Y-94099095D01*
X142597142Y-94146714D01*
X140152380Y-95099095D02*
X139152380Y-95099095D01*
X139152380Y-94861000D01*
X139200000Y-94718142D01*
X139295238Y-94622904D01*
X139390476Y-94575285D01*
X139580952Y-94527666D01*
X139723809Y-94527666D01*
X139914285Y-94575285D01*
X140009523Y-94622904D01*
X140104761Y-94718142D01*
X140152380Y-94861000D01*
X140152380Y-95099095D01*
X139485714Y-93670523D02*
X140152380Y-93670523D01*
X139104761Y-93908619D02*
X139819047Y-94146714D01*
X139819047Y-93527666D01*
X137612380Y-94972095D02*
X136612380Y-94972095D01*
X136612380Y-94734000D01*
X136660000Y-94591142D01*
X136755238Y-94495904D01*
X136850476Y-94448285D01*
X137040952Y-94400666D01*
X137183809Y-94400666D01*
X137374285Y-94448285D01*
X137469523Y-94495904D01*
X137564761Y-94591142D01*
X137612380Y-94734000D01*
X137612380Y-94972095D01*
X136612380Y-94067333D02*
X136612380Y-93448285D01*
X136993333Y-93781619D01*
X136993333Y-93638761D01*
X137040952Y-93543523D01*
X137088571Y-93495904D01*
X137183809Y-93448285D01*
X137421904Y-93448285D01*
X137517142Y-93495904D01*
X137564761Y-93543523D01*
X137612380Y-93638761D01*
X137612380Y-93924476D01*
X137564761Y-94019714D01*
X137517142Y-94067333D01*
X135072380Y-94972095D02*
X134072380Y-94972095D01*
X134072380Y-94734000D01*
X134120000Y-94591142D01*
X134215238Y-94495904D01*
X134310476Y-94448285D01*
X134500952Y-94400666D01*
X134643809Y-94400666D01*
X134834285Y-94448285D01*
X134929523Y-94495904D01*
X135024761Y-94591142D01*
X135072380Y-94734000D01*
X135072380Y-94972095D01*
X134167619Y-94019714D02*
X134120000Y-93972095D01*
X134072380Y-93876857D01*
X134072380Y-93638761D01*
X134120000Y-93543523D01*
X134167619Y-93495904D01*
X134262857Y-93448285D01*
X134358095Y-93448285D01*
X134500952Y-93495904D01*
X135072380Y-94067333D01*
X135072380Y-93448285D01*
X132532380Y-94972095D02*
X131532380Y-94972095D01*
X131532380Y-94734000D01*
X131580000Y-94591142D01*
X131675238Y-94495904D01*
X131770476Y-94448285D01*
X131960952Y-94400666D01*
X132103809Y-94400666D01*
X132294285Y-94448285D01*
X132389523Y-94495904D01*
X132484761Y-94591142D01*
X132532380Y-94734000D01*
X132532380Y-94972095D01*
X132532380Y-93448285D02*
X132532380Y-94019714D01*
X132532380Y-93734000D02*
X131532380Y-93734000D01*
X131675238Y-93829238D01*
X131770476Y-93924476D01*
X131818095Y-94019714D01*
X129992380Y-94972095D02*
X128992380Y-94972095D01*
X128992380Y-94734000D01*
X129040000Y-94591142D01*
X129135238Y-94495904D01*
X129230476Y-94448285D01*
X129420952Y-94400666D01*
X129563809Y-94400666D01*
X129754285Y-94448285D01*
X129849523Y-94495904D01*
X129944761Y-94591142D01*
X129992380Y-94734000D01*
X129992380Y-94972095D01*
X128992380Y-93781619D02*
X128992380Y-93686380D01*
X129040000Y-93591142D01*
X129087619Y-93543523D01*
X129182857Y-93495904D01*
X129373333Y-93448285D01*
X129611428Y-93448285D01*
X129801904Y-93495904D01*
X129897142Y-93543523D01*
X129944761Y-93591142D01*
X129992380Y-93686380D01*
X129992380Y-93781619D01*
X129944761Y-93876857D01*
X129897142Y-93924476D01*
X129801904Y-93972095D01*
X129611428Y-94019714D01*
X129373333Y-94019714D01*
X129182857Y-93972095D01*
X129087619Y-93924476D01*
X129040000Y-93876857D01*
X128992380Y-93781619D01*
X126928571Y-94448285D02*
X126928571Y-94114952D01*
X127452380Y-93972095D02*
X127452380Y-94448285D01*
X126452380Y-94448285D01*
X126452380Y-93972095D01*
X124912380Y-94495904D02*
X124436190Y-94829238D01*
X124912380Y-95067333D02*
X123912380Y-95067333D01*
X123912380Y-94686380D01*
X123960000Y-94591142D01*
X124007619Y-94543523D01*
X124102857Y-94495904D01*
X124245714Y-94495904D01*
X124340952Y-94543523D01*
X124388571Y-94591142D01*
X124436190Y-94686380D01*
X124436190Y-95067333D01*
X123912380Y-94162571D02*
X124912380Y-93924476D01*
X124198095Y-93734000D01*
X124912380Y-93543523D01*
X123912380Y-93305428D01*
X122372380Y-94400666D02*
X121896190Y-94734000D01*
X122372380Y-94972095D02*
X121372380Y-94972095D01*
X121372380Y-94591142D01*
X121420000Y-94495904D01*
X121467619Y-94448285D01*
X121562857Y-94400666D01*
X121705714Y-94400666D01*
X121800952Y-94448285D01*
X121848571Y-94495904D01*
X121896190Y-94591142D01*
X121896190Y-94972095D01*
X122324761Y-94019714D02*
X122372380Y-93876857D01*
X122372380Y-93638761D01*
X122324761Y-93543523D01*
X122277142Y-93495904D01*
X122181904Y-93448285D01*
X122086666Y-93448285D01*
X121991428Y-93495904D01*
X121943809Y-93543523D01*
X121896190Y-93638761D01*
X121848571Y-93829238D01*
X121800952Y-93924476D01*
X121753333Y-93972095D01*
X121658095Y-94019714D01*
X121562857Y-94019714D01*
X121467619Y-93972095D01*
X121420000Y-93924476D01*
X121372380Y-93829238D01*
X121372380Y-93591142D01*
X121420000Y-93448285D01*
X118832380Y-95567333D02*
X119832380Y-95234000D01*
X118832380Y-94900666D01*
X119737142Y-93995904D02*
X119784761Y-94043523D01*
X119832380Y-94186380D01*
X119832380Y-94281619D01*
X119784761Y-94424476D01*
X119689523Y-94519714D01*
X119594285Y-94567333D01*
X119403809Y-94614952D01*
X119260952Y-94614952D01*
X119070476Y-94567333D01*
X118975238Y-94519714D01*
X118880000Y-94424476D01*
X118832380Y-94281619D01*
X118832380Y-94186380D01*
X118880000Y-94043523D01*
X118927619Y-93995904D01*
X119737142Y-92995904D02*
X119784761Y-93043523D01*
X119832380Y-93186380D01*
X119832380Y-93281619D01*
X119784761Y-93424476D01*
X119689523Y-93519714D01*
X119594285Y-93567333D01*
X119403809Y-93614952D01*
X119260952Y-93614952D01*
X119070476Y-93567333D01*
X118975238Y-93519714D01*
X118880000Y-93424476D01*
X118832380Y-93281619D01*
X118832380Y-93186380D01*
X118880000Y-93043523D01*
X118927619Y-92995904D01*
X116340000Y-94995904D02*
X116292380Y-95091142D01*
X116292380Y-95234000D01*
X116340000Y-95376857D01*
X116435238Y-95472095D01*
X116530476Y-95519714D01*
X116720952Y-95567333D01*
X116863809Y-95567333D01*
X117054285Y-95519714D01*
X117149523Y-95472095D01*
X117244761Y-95376857D01*
X117292380Y-95234000D01*
X117292380Y-95138761D01*
X117244761Y-94995904D01*
X117197142Y-94948285D01*
X116863809Y-94948285D01*
X116863809Y-95138761D01*
X117292380Y-94519714D02*
X116292380Y-94519714D01*
X117292380Y-93948285D01*
X116292380Y-93948285D01*
X117292380Y-93472095D02*
X116292380Y-93472095D01*
X116292380Y-93234000D01*
X116340000Y-93091142D01*
X116435238Y-92995904D01*
X116530476Y-92948285D01*
X116720952Y-92900666D01*
X116863809Y-92900666D01*
X117054285Y-92948285D01*
X117149523Y-92995904D01*
X117244761Y-93091142D01*
X117292380Y-93234000D01*
X117292380Y-93472095D01*
X149685952Y-98385380D02*
X149685952Y-99099666D01*
X149638333Y-99242523D01*
X149543095Y-99337761D01*
X149400238Y-99385380D01*
X149305000Y-99385380D01*
X150638333Y-99385380D02*
X150162142Y-99385380D01*
X150162142Y-98385380D01*
X151543095Y-99290142D02*
X151495476Y-99337761D01*
X151352619Y-99385380D01*
X151257380Y-99385380D01*
X151114523Y-99337761D01*
X151019285Y-99242523D01*
X150971666Y-99147285D01*
X150924047Y-98956809D01*
X150924047Y-98813952D01*
X150971666Y-98623476D01*
X151019285Y-98528238D01*
X151114523Y-98433000D01*
X151257380Y-98385380D01*
X151352619Y-98385380D01*
X151495476Y-98433000D01*
X151543095Y-98480619D01*
X152257380Y-98385380D02*
X152257380Y-99099666D01*
X152209761Y-99242523D01*
X152114523Y-99337761D01*
X151971666Y-99385380D01*
X151876428Y-99385380D01*
X153209761Y-99385380D02*
X152733571Y-99385380D01*
X152733571Y-98385380D01*
X154114523Y-99290142D02*
X154066904Y-99337761D01*
X153924047Y-99385380D01*
X153828809Y-99385380D01*
X153685952Y-99337761D01*
X153590714Y-99242523D01*
X153543095Y-99147285D01*
X153495476Y-98956809D01*
X153495476Y-98813952D01*
X153543095Y-98623476D01*
X153590714Y-98528238D01*
X153685952Y-98433000D01*
X153828809Y-98385380D01*
X153924047Y-98385380D01*
X154066904Y-98433000D01*
X154114523Y-98480619D01*
X154828809Y-98385380D02*
X154828809Y-99099666D01*
X154781190Y-99242523D01*
X154685952Y-99337761D01*
X154543095Y-99385380D01*
X154447857Y-99385380D01*
X155781190Y-99385380D02*
X155305000Y-99385380D01*
X155305000Y-98385380D01*
X156685952Y-99290142D02*
X156638333Y-99337761D01*
X156495476Y-99385380D01*
X156400238Y-99385380D01*
X156257380Y-99337761D01*
X156162142Y-99242523D01*
X156114523Y-99147285D01*
X156066904Y-98956809D01*
X156066904Y-98813952D01*
X156114523Y-98623476D01*
X156162142Y-98528238D01*
X156257380Y-98433000D01*
X156400238Y-98385380D01*
X156495476Y-98385380D01*
X156638333Y-98433000D01*
X156685952Y-98480619D01*
X157400238Y-98385380D02*
X157400238Y-99099666D01*
X157352619Y-99242523D01*
X157257380Y-99337761D01*
X157114523Y-99385380D01*
X157019285Y-99385380D01*
X158352619Y-99385380D02*
X157876428Y-99385380D01*
X157876428Y-98385380D01*
X159257380Y-99290142D02*
X159209761Y-99337761D01*
X159066904Y-99385380D01*
X158971666Y-99385380D01*
X158828809Y-99337761D01*
X158733571Y-99242523D01*
X158685952Y-99147285D01*
X158638333Y-98956809D01*
X158638333Y-98813952D01*
X158685952Y-98623476D01*
X158733571Y-98528238D01*
X158828809Y-98433000D01*
X158971666Y-98385380D01*
X159066904Y-98385380D01*
X159209761Y-98433000D01*
X159257380Y-98480619D01*
D11*
X113896000Y-92456000D02*
G75*
G03*
X113896000Y-92456000I-2120000J0D01*
G01*
X111776000Y-94536000D02*
X111776000Y-90376000D01*
X111736000Y-94536000D02*
X111736000Y-90376000D01*
X111696000Y-94535000D02*
X111696000Y-90377000D01*
X111656000Y-94533000D02*
X111656000Y-90379000D01*
X111616000Y-94530000D02*
X111616000Y-90382000D01*
X111576000Y-94527000D02*
X111576000Y-93296000D01*
X111576000Y-91616000D02*
X111576000Y-90385000D01*
X111536000Y-94523000D02*
X111536000Y-93296000D01*
X111536000Y-91616000D02*
X111536000Y-90389000D01*
X111496000Y-94518000D02*
X111496000Y-93296000D01*
X111496000Y-91616000D02*
X111496000Y-90394000D01*
X111456000Y-94512000D02*
X111456000Y-93296000D01*
X111456000Y-91616000D02*
X111456000Y-90400000D01*
X111416000Y-94506000D02*
X111416000Y-93296000D01*
X111416000Y-91616000D02*
X111416000Y-90406000D01*
X111376000Y-94498000D02*
X111376000Y-93296000D01*
X111376000Y-91616000D02*
X111376000Y-90414000D01*
X111336000Y-94490000D02*
X111336000Y-93296000D01*
X111336000Y-91616000D02*
X111336000Y-90422000D01*
X111296000Y-94481000D02*
X111296000Y-93296000D01*
X111296000Y-91616000D02*
X111296000Y-90431000D01*
X111256000Y-94472000D02*
X111256000Y-93296000D01*
X111256000Y-91616000D02*
X111256000Y-90440000D01*
X111216000Y-94461000D02*
X111216000Y-93296000D01*
X111216000Y-91616000D02*
X111216000Y-90451000D01*
X111176000Y-94450000D02*
X111176000Y-93296000D01*
X111176000Y-91616000D02*
X111176000Y-90462000D01*
X111136000Y-94438000D02*
X111136000Y-93296000D01*
X111136000Y-91616000D02*
X111136000Y-90474000D01*
X111096000Y-94424000D02*
X111096000Y-93296000D01*
X111096000Y-91616000D02*
X111096000Y-90488000D01*
X111055000Y-94410000D02*
X111055000Y-93296000D01*
X111055000Y-91616000D02*
X111055000Y-90502000D01*
X111015000Y-94396000D02*
X111015000Y-93296000D01*
X111015000Y-91616000D02*
X111015000Y-90516000D01*
X110975000Y-94380000D02*
X110975000Y-93296000D01*
X110975000Y-91616000D02*
X110975000Y-90532000D01*
X110935000Y-94363000D02*
X110935000Y-93296000D01*
X110935000Y-91616000D02*
X110935000Y-90549000D01*
X110895000Y-94345000D02*
X110895000Y-93296000D01*
X110895000Y-91616000D02*
X110895000Y-90567000D01*
X110855000Y-94326000D02*
X110855000Y-93296000D01*
X110855000Y-91616000D02*
X110855000Y-90586000D01*
X110815000Y-94307000D02*
X110815000Y-93296000D01*
X110815000Y-91616000D02*
X110815000Y-90605000D01*
X110775000Y-94286000D02*
X110775000Y-93296000D01*
X110775000Y-91616000D02*
X110775000Y-90626000D01*
X110735000Y-94264000D02*
X110735000Y-93296000D01*
X110735000Y-91616000D02*
X110735000Y-90648000D01*
X110695000Y-94241000D02*
X110695000Y-93296000D01*
X110695000Y-91616000D02*
X110695000Y-90671000D01*
X110655000Y-94216000D02*
X110655000Y-93296000D01*
X110655000Y-91616000D02*
X110655000Y-90696000D01*
X110615000Y-94191000D02*
X110615000Y-93296000D01*
X110615000Y-91616000D02*
X110615000Y-90721000D01*
X110575000Y-94164000D02*
X110575000Y-93296000D01*
X110575000Y-91616000D02*
X110575000Y-90748000D01*
X110535000Y-94136000D02*
X110535000Y-93296000D01*
X110535000Y-91616000D02*
X110535000Y-90776000D01*
X110495000Y-94106000D02*
X110495000Y-93296000D01*
X110495000Y-91616000D02*
X110495000Y-90806000D01*
X110455000Y-94075000D02*
X110455000Y-93296000D01*
X110455000Y-91616000D02*
X110455000Y-90837000D01*
X110415000Y-94043000D02*
X110415000Y-93296000D01*
X110415000Y-91616000D02*
X110415000Y-90869000D01*
X110375000Y-94008000D02*
X110375000Y-93296000D01*
X110375000Y-91616000D02*
X110375000Y-90904000D01*
X110335000Y-93972000D02*
X110335000Y-93296000D01*
X110335000Y-91616000D02*
X110335000Y-90940000D01*
X110295000Y-93934000D02*
X110295000Y-93296000D01*
X110295000Y-91616000D02*
X110295000Y-90978000D01*
X110255000Y-93894000D02*
X110255000Y-93296000D01*
X110255000Y-91616000D02*
X110255000Y-91018000D01*
X110215000Y-93852000D02*
X110215000Y-93296000D01*
X110215000Y-91616000D02*
X110215000Y-91060000D01*
X110175000Y-93807000D02*
X110175000Y-93296000D01*
X110175000Y-91616000D02*
X110175000Y-91105000D01*
X110135000Y-93760000D02*
X110135000Y-93296000D01*
X110135000Y-91616000D02*
X110135000Y-91152000D01*
X110095000Y-93710000D02*
X110095000Y-93296000D01*
X110095000Y-91616000D02*
X110095000Y-91202000D01*
X110055000Y-93656000D02*
X110055000Y-93296000D01*
X110055000Y-91616000D02*
X110055000Y-91256000D01*
X110015000Y-93598000D02*
X110015000Y-93296000D01*
X110015000Y-91616000D02*
X110015000Y-91314000D01*
X109975000Y-93536000D02*
X109975000Y-93296000D01*
X109975000Y-91616000D02*
X109975000Y-91376000D01*
X109935000Y-93469000D02*
X109935000Y-91443000D01*
X109895000Y-93396000D02*
X109895000Y-91516000D01*
X109855000Y-93315000D02*
X109855000Y-91597000D01*
X109815000Y-93224000D02*
X109815000Y-91688000D01*
X109775000Y-93120000D02*
X109775000Y-91792000D01*
X109735000Y-92993000D02*
X109735000Y-91919000D01*
X109695000Y-92826000D02*
X109695000Y-92086000D01*
X114045801Y-93651000D02*
X113645801Y-93651000D01*
X113845801Y-93851000D02*
X113845801Y-93451000D01*
D12*
X157964000Y-89916000D02*
X157964000Y-89916000D01*
X157964000Y-90016000D02*
X157964000Y-90016000D01*
X157964000Y-89916000D02*
X157964000Y-89916000D01*
D13*
X157734000Y-94996000D02*
X157734000Y-91186000D01*
X150114000Y-94996000D02*
X157734000Y-94996000D01*
X150114000Y-91186000D02*
X150114000Y-94996000D01*
X157734000Y-91186000D02*
X150114000Y-91186000D01*
D12*
X157964000Y-90016000D02*
G75*
G02*
X157964000Y-89916000I0J50000D01*
G01*
X157964000Y-89916000D02*
G75*
G02*
X157964000Y-90016000I0J-50000D01*
G01*
X157964000Y-90016000D02*
G75*
G02*
X157964000Y-89916000I0J50000D01*
G01*
D11*
X115510000Y-91440000D02*
X115510000Y-90110000D01*
X115510000Y-90110000D02*
X116840000Y-90110000D01*
X118110000Y-90110000D02*
X148650000Y-90110000D01*
X148650000Y-92770000D02*
X148650000Y-90110000D01*
X118110000Y-92770000D02*
X148650000Y-92770000D01*
X118110000Y-92770000D02*
X118110000Y-90110000D01*
X100101000Y-126461000D02*
X100101000Y-101461000D01*
X173101000Y-126461000D02*
X100101000Y-126461000D01*
X173101000Y-101461000D02*
X173101000Y-126461000D01*
X100101000Y-101461000D02*
X173101000Y-101461000D01*
X169301000Y-106961000D02*
X169301000Y-120961000D01*
X168801660Y-121461000D02*
X105301000Y-121461000D01*
X104801280Y-120960320D02*
X104801280Y-106961000D01*
X105301000Y-106461000D02*
X168801000Y-106461000D01*
X103601000Y-95461000D02*
X106601000Y-95461000D01*
X96971000Y-95821000D02*
X97761000Y-95821000D01*
X96961000Y-95821000D02*
X96961000Y-132101000D01*
X177241000Y-95821000D02*
X97761000Y-95821000D01*
X177241000Y-132101000D02*
X177241000Y-95821000D01*
X96961000Y-132101000D02*
X177241000Y-132101000D01*
X105301660Y-106459460D02*
G75*
G03*
X104801280Y-106959840I0J-500380D01*
G01*
X104801280Y-120960320D02*
G75*
G03*
X105301660Y-121460700I500380J0D01*
G01*
X168801660Y-121460700D02*
G75*
G03*
X169302040Y-120960320I0J500380D01*
G01*
X169301000Y-106961000D02*
G75*
G03*
X168801000Y-106461000I-500000J0D01*
G01*
X104626000Y-91531000D02*
X104626000Y-91286000D01*
X104626000Y-93626000D02*
X104626000Y-93381000D01*
X108266000Y-91531000D02*
X108266000Y-91286000D01*
X108266000Y-93626000D02*
X108266000Y-93381000D01*
X108266000Y-91286000D02*
X104626000Y-91286000D01*
X108266000Y-93626000D02*
X104626000Y-93626000D01*
D14*
X153308047Y-92704523D02*
X152582333Y-92704523D01*
X152945190Y-92704523D02*
X152945190Y-91434523D01*
X152824238Y-91615952D01*
X152703285Y-91736904D01*
X152582333Y-91797380D01*
X154094238Y-91434523D02*
X154215190Y-91434523D01*
X154336142Y-91495000D01*
X154396619Y-91555476D01*
X154457095Y-91676428D01*
X154517571Y-91918333D01*
X154517571Y-92220714D01*
X154457095Y-92462619D01*
X154396619Y-92583571D01*
X154336142Y-92644047D01*
X154215190Y-92704523D01*
X154094238Y-92704523D01*
X153973285Y-92644047D01*
X153912809Y-92583571D01*
X153852333Y-92462619D01*
X153791857Y-92220714D01*
X153791857Y-91918333D01*
X153852333Y-91676428D01*
X153912809Y-91555476D01*
X153973285Y-91495000D01*
X154094238Y-91434523D01*
X155061857Y-92704523D02*
X155061857Y-91434523D01*
X155182809Y-92220714D02*
X155545666Y-92704523D01*
X155545666Y-91857857D02*
X155061857Y-92341666D01*
%LPC*%
D15*
X112776000Y-92456000D03*
D16*
X110776000Y-92456000D03*
D17*
X156464000Y-89916000D03*
X153924000Y-89916000D03*
X151384000Y-89916000D03*
D18*
X147320000Y-91440000D03*
X144780000Y-91440000D03*
X142240000Y-91440000D03*
X139700000Y-91440000D03*
X137160000Y-91440000D03*
X134620000Y-91440000D03*
X132080000Y-91440000D03*
X129540000Y-91440000D03*
X127000000Y-91440000D03*
X124460000Y-91440000D03*
X121920000Y-91440000D03*
X119380000Y-91440000D03*
D19*
X116840000Y-91440000D03*
D20*
X174601000Y-98461000D03*
X174600480Y-129461700D03*
X99601900Y-129461700D03*
X99601900Y-98461000D03*
D21*
X143201000Y-98461000D03*
X140661000Y-98461000D03*
X138121000Y-98461000D03*
X135581000Y-98461000D03*
X133041000Y-98461000D03*
X130501000Y-98461000D03*
X127961000Y-98461000D03*
X125421000Y-98461000D03*
X122881000Y-98461000D03*
X120341000Y-98461000D03*
X117801000Y-98461000D03*
X115261000Y-98461000D03*
X112721000Y-98461000D03*
X110181000Y-98461000D03*
X107641000Y-98461000D03*
D22*
X105101000Y-98461000D03*
D23*
X105196000Y-92456000D03*
X107696000Y-92456000D03*
M02*
