G04 #@! TF.GenerationSoftware,KiCad,Pcbnew,(5.1.10-1-10_14)*
G04 #@! TF.CreationDate,2021-10-29T14:21:52+02:00*
G04 #@! TF.ProjectId,lcd,6c63642e-6b69-4636-9164-5f7063625858,rev?*
G04 #@! TF.SameCoordinates,Original*
G04 #@! TF.FileFunction,Soldermask,Top*
G04 #@! TF.FilePolarity,Negative*
%FSLAX46Y46*%
G04 Gerber Fmt 4.6, Leading zero omitted, Abs format (unit mm)*
G04 Created by KiCad (PCBNEW (5.1.10-1-10_14)) date 2021-10-29 14:21:52*
%MOMM*%
%LPD*%
G01*
G04 APERTURE LIST*
%ADD10R,1.200000X1.200000*%
%ADD11C,1.200000*%
%ADD12C,1.303000*%
%ADD13O,1.700000X1.700000*%
%ADD14R,1.700000X1.700000*%
%ADD15C,3.000000*%
%ADD16O,1.800000X2.600000*%
%ADD17R,1.800000X2.600000*%
%ADD18C,1.600000*%
G04 APERTURE END LIST*
D10*
X112776000Y-92456000D03*
D11*
X110776000Y-92456000D03*
D12*
X156464000Y-89916000D03*
X153924000Y-89916000D03*
X151384000Y-89916000D03*
D13*
X147320000Y-91440000D03*
X144780000Y-91440000D03*
X142240000Y-91440000D03*
X139700000Y-91440000D03*
X137160000Y-91440000D03*
X134620000Y-91440000D03*
X132080000Y-91440000D03*
X129540000Y-91440000D03*
X127000000Y-91440000D03*
X124460000Y-91440000D03*
X121920000Y-91440000D03*
X119380000Y-91440000D03*
D14*
X116840000Y-91440000D03*
D15*
X174601000Y-98461000D03*
X174600480Y-129461700D03*
X99601900Y-129461700D03*
X99601900Y-98461000D03*
D16*
X143201000Y-98461000D03*
X140661000Y-98461000D03*
X138121000Y-98461000D03*
X135581000Y-98461000D03*
X133041000Y-98461000D03*
X130501000Y-98461000D03*
X127961000Y-98461000D03*
X125421000Y-98461000D03*
X122881000Y-98461000D03*
X120341000Y-98461000D03*
X117801000Y-98461000D03*
X115261000Y-98461000D03*
X112721000Y-98461000D03*
X110181000Y-98461000D03*
X107641000Y-98461000D03*
D17*
X105101000Y-98461000D03*
D18*
X105196000Y-92456000D03*
X107696000Y-92456000D03*
M02*
