%FSLAX45Y45*%
G04 Gerber Fmt 4.5, Leading zero omitted, Abs format (unit mm)*
G04 Created by KiCad (PCBNEW (5.1.10-1-10_14)) date 2021-10-29 14:21:57*
%MOMM*%
%LPD*%
G01*
G04 APERTURE LIST*
%TA.AperFunction,Profile*%
%ADD10C,0.050000*%
%TD*%
%ADD11C,0.200000*%
%ADD12C,0.300000*%
G04 APERTURE END LIST*
D10*
X16459200Y-9550400D02*
X17780000Y-9550400D01*
X15951200Y-8890000D02*
X16459200Y-9550400D01*
X17780000Y-13258800D02*
X9652000Y-13258800D01*
X17780000Y-9550400D02*
X17780000Y-13258800D01*
X9652000Y-8890000D02*
X15951200Y-8890000D01*
X9652000Y-13258800D02*
X9652000Y-8890000D01*
D11*
X9886000Y-9124000D02*
X9926000Y-9164000D01*
X9926000Y-9124000D02*
X9886000Y-9164000D01*
X9886000Y-10140000D02*
X9926000Y-10180000D01*
X9926000Y-10140000D02*
X9886000Y-10180000D01*
X9886000Y-11156000D02*
X9926000Y-11196000D01*
X9926000Y-11156000D02*
X9886000Y-11196000D01*
X9886000Y-12426000D02*
X9926000Y-12466000D01*
X9926000Y-12426000D02*
X9886000Y-12466000D01*
X10216200Y-9225600D02*
X10256200Y-9265600D01*
X10256200Y-9225600D02*
X10216200Y-9265600D01*
X10241600Y-9606600D02*
X10281600Y-9646600D01*
X10281600Y-9606600D02*
X10241600Y-9646600D01*
X10394000Y-12934000D02*
X10434000Y-12974000D01*
X10434000Y-12934000D02*
X10394000Y-12974000D01*
X10648000Y-10140000D02*
X10688000Y-10180000D01*
X10688000Y-10140000D02*
X10648000Y-10180000D01*
X10952800Y-9555800D02*
X10992800Y-9595800D01*
X10992800Y-9555800D02*
X10952800Y-9595800D01*
X11333800Y-8946200D02*
X11373800Y-8986200D01*
X11373800Y-8946200D02*
X11333800Y-8986200D01*
X11410000Y-11410000D02*
X11450000Y-11450000D01*
X11450000Y-11410000D02*
X11410000Y-11450000D01*
X11460800Y-9479600D02*
X11500800Y-9519600D01*
X11500800Y-9479600D02*
X11460800Y-9519600D01*
X11765600Y-9428800D02*
X11805600Y-9468800D01*
X11805600Y-9428800D02*
X11765600Y-9468800D01*
X11918000Y-10140000D02*
X11958000Y-10180000D01*
X11958000Y-10140000D02*
X11918000Y-10180000D01*
X11918000Y-12934000D02*
X11958000Y-12974000D01*
X11958000Y-12934000D02*
X11918000Y-12974000D01*
X11994200Y-9454200D02*
X12034200Y-9494200D01*
X12034200Y-9454200D02*
X11994200Y-9494200D01*
X12273600Y-9454200D02*
X12313600Y-9494200D01*
X12313600Y-9454200D02*
X12273600Y-9494200D01*
X12527600Y-9454200D02*
X12567600Y-9494200D01*
X12567600Y-9454200D02*
X12527600Y-9494200D01*
X12934000Y-9428800D02*
X12974000Y-9468800D01*
X12974000Y-9428800D02*
X12934000Y-9468800D01*
X13188000Y-11410000D02*
X13228000Y-11450000D01*
X13228000Y-11410000D02*
X13188000Y-11450000D01*
X13188000Y-12934000D02*
X13228000Y-12974000D01*
X13228000Y-12934000D02*
X13188000Y-12974000D01*
X13289600Y-9428800D02*
X13329600Y-9468800D01*
X13329600Y-9428800D02*
X13289600Y-9468800D01*
X13518200Y-9454200D02*
X13558200Y-9494200D01*
X13558200Y-9454200D02*
X13518200Y-9494200D01*
X13696000Y-10140000D02*
X13736000Y-10180000D01*
X13736000Y-10140000D02*
X13696000Y-10180000D01*
X13899200Y-9454200D02*
X13939200Y-9494200D01*
X13939200Y-9454200D02*
X13899200Y-9494200D01*
X14458000Y-11410000D02*
X14498000Y-11450000D01*
X14498000Y-11410000D02*
X14458000Y-11450000D01*
X14508800Y-9428800D02*
X14548800Y-9468800D01*
X14548800Y-9428800D02*
X14508800Y-9468800D01*
X14712000Y-12934000D02*
X14752000Y-12974000D01*
X14752000Y-12934000D02*
X14712000Y-12974000D01*
X15067600Y-9174800D02*
X15107600Y-9214800D01*
X15107600Y-9174800D02*
X15067600Y-9214800D01*
X15220000Y-10140000D02*
X15260000Y-10180000D01*
X15260000Y-10140000D02*
X15220000Y-10180000D01*
X15474000Y-9378000D02*
X15514000Y-9418000D01*
X15514000Y-9378000D02*
X15474000Y-9418000D01*
X15982000Y-9378000D02*
X16022000Y-9418000D01*
X16022000Y-9378000D02*
X15982000Y-9418000D01*
X16490000Y-11410000D02*
X16530000Y-11450000D01*
X16530000Y-11410000D02*
X16490000Y-11450000D01*
X16490000Y-12934000D02*
X16530000Y-12974000D01*
X16530000Y-12934000D02*
X16490000Y-12974000D01*
X16998000Y-10140000D02*
X17038000Y-10180000D01*
X17038000Y-10140000D02*
X16998000Y-10180000D01*
X17506000Y-10140000D02*
X17546000Y-10180000D01*
X17546000Y-10140000D02*
X17506000Y-10180000D01*
X17506000Y-11410000D02*
X17546000Y-11450000D01*
X17546000Y-11410000D02*
X17506000Y-11450000D01*
X17506000Y-12426000D02*
X17546000Y-12466000D01*
X17546000Y-12426000D02*
X17506000Y-12466000D01*
X11107600Y-9245600D02*
G75*
G03*
X11107600Y-9245600I-30000J0D01*
G01*
X11307600Y-9245600D02*
G75*
G03*
X11307600Y-9245600I-30000J0D01*
G01*
X15138400Y-8953600D02*
X15138400Y-9029600D01*
X15100400Y-8991600D02*
X15176400Y-8991600D01*
X15392400Y-8953600D02*
X15392400Y-9029600D01*
X15354400Y-8991600D02*
X15430400Y-8991600D01*
X15646400Y-8953600D02*
X15646400Y-9029600D01*
X15608400Y-8991600D02*
X15684400Y-8991600D01*
X10547885Y-9273885D02*
X10547885Y-9217316D01*
X10491316Y-9217316D01*
X10491316Y-9273885D01*
X10547885Y-9273885D01*
X10797885Y-9273885D02*
X10797885Y-9217316D01*
X10741316Y-9217316D01*
X10741316Y-9273885D01*
X10797885Y-9273885D01*
X11684000Y-9194000D02*
X11734000Y-9144000D01*
X11684000Y-9094000D01*
X11634000Y-9144000D01*
X11684000Y-9194000D01*
X11938000Y-9194000D02*
X11988000Y-9144000D01*
X11938000Y-9094000D01*
X11888000Y-9144000D01*
X11938000Y-9194000D01*
X12192000Y-9194000D02*
X12242000Y-9144000D01*
X12192000Y-9094000D01*
X12142000Y-9144000D01*
X12192000Y-9194000D01*
X12446000Y-9194000D02*
X12496000Y-9144000D01*
X12446000Y-9094000D01*
X12396000Y-9144000D01*
X12446000Y-9194000D01*
X12700000Y-9194000D02*
X12750000Y-9144000D01*
X12700000Y-9094000D01*
X12650000Y-9144000D01*
X12700000Y-9194000D01*
X12954000Y-9194000D02*
X13004000Y-9144000D01*
X12954000Y-9094000D01*
X12904000Y-9144000D01*
X12954000Y-9194000D01*
X13208000Y-9194000D02*
X13258000Y-9144000D01*
X13208000Y-9094000D01*
X13158000Y-9144000D01*
X13208000Y-9194000D01*
X13462000Y-9194000D02*
X13512000Y-9144000D01*
X13462000Y-9094000D01*
X13412000Y-9144000D01*
X13462000Y-9194000D01*
X13716000Y-9194000D02*
X13766000Y-9144000D01*
X13716000Y-9094000D01*
X13666000Y-9144000D01*
X13716000Y-9194000D01*
X13970000Y-9194000D02*
X14020000Y-9144000D01*
X13970000Y-9094000D01*
X13920000Y-9144000D01*
X13970000Y-9194000D01*
X14224000Y-9194000D02*
X14274000Y-9144000D01*
X14224000Y-9094000D01*
X14174000Y-9144000D01*
X14224000Y-9194000D01*
X14478000Y-9194000D02*
X14528000Y-9144000D01*
X14478000Y-9094000D01*
X14428000Y-9144000D01*
X14478000Y-9194000D01*
X14732000Y-9194000D02*
X14782000Y-9144000D01*
X14732000Y-9094000D01*
X14682000Y-9144000D01*
X14732000Y-9194000D01*
X10450100Y-9786100D02*
X10570100Y-9906100D01*
X10570100Y-9786100D02*
X10450100Y-9906100D01*
X10570100Y-9846100D02*
G75*
G03*
X10570100Y-9846100I-60000J0D01*
G01*
X10704100Y-9786100D02*
X10824100Y-9906100D01*
X10824100Y-9786100D02*
X10704100Y-9906100D01*
X10824100Y-9846100D02*
G75*
G03*
X10824100Y-9846100I-60000J0D01*
G01*
X10958100Y-9786100D02*
X11078100Y-9906100D01*
X11078100Y-9786100D02*
X10958100Y-9906100D01*
X11078100Y-9846100D02*
G75*
G03*
X11078100Y-9846100I-60000J0D01*
G01*
X11212100Y-9786100D02*
X11332100Y-9906100D01*
X11332100Y-9786100D02*
X11212100Y-9906100D01*
X11332100Y-9846100D02*
G75*
G03*
X11332100Y-9846100I-60000J0D01*
G01*
X11466100Y-9786100D02*
X11586100Y-9906100D01*
X11586100Y-9786100D02*
X11466100Y-9906100D01*
X11586100Y-9846100D02*
G75*
G03*
X11586100Y-9846100I-60000J0D01*
G01*
X11720100Y-9786100D02*
X11840100Y-9906100D01*
X11840100Y-9786100D02*
X11720100Y-9906100D01*
X11840100Y-9846100D02*
G75*
G03*
X11840100Y-9846100I-60000J0D01*
G01*
X11974100Y-9786100D02*
X12094100Y-9906100D01*
X12094100Y-9786100D02*
X11974100Y-9906100D01*
X12094100Y-9846100D02*
G75*
G03*
X12094100Y-9846100I-60000J0D01*
G01*
X12228100Y-9786100D02*
X12348100Y-9906100D01*
X12348100Y-9786100D02*
X12228100Y-9906100D01*
X12348100Y-9846100D02*
G75*
G03*
X12348100Y-9846100I-60000J0D01*
G01*
X12482100Y-9786100D02*
X12602100Y-9906100D01*
X12602100Y-9786100D02*
X12482100Y-9906100D01*
X12602100Y-9846100D02*
G75*
G03*
X12602100Y-9846100I-60000J0D01*
G01*
X12736100Y-9786100D02*
X12856100Y-9906100D01*
X12856100Y-9786100D02*
X12736100Y-9906100D01*
X12856100Y-9846100D02*
G75*
G03*
X12856100Y-9846100I-60000J0D01*
G01*
X12990100Y-9786100D02*
X13110100Y-9906100D01*
X13110100Y-9786100D02*
X12990100Y-9906100D01*
X13110100Y-9846100D02*
G75*
G03*
X13110100Y-9846100I-60000J0D01*
G01*
X13244100Y-9786100D02*
X13364100Y-9906100D01*
X13364100Y-9786100D02*
X13244100Y-9906100D01*
X13364100Y-9846100D02*
G75*
G03*
X13364100Y-9846100I-60000J0D01*
G01*
X13498100Y-9786100D02*
X13618100Y-9906100D01*
X13618100Y-9786100D02*
X13498100Y-9906100D01*
X13618100Y-9846100D02*
G75*
G03*
X13618100Y-9846100I-60000J0D01*
G01*
X13752100Y-9786100D02*
X13872100Y-9906100D01*
X13872100Y-9786100D02*
X13752100Y-9906100D01*
X13872100Y-9846100D02*
G75*
G03*
X13872100Y-9846100I-60000J0D01*
G01*
X14006100Y-9786100D02*
X14126100Y-9906100D01*
X14126100Y-9786100D02*
X14006100Y-9906100D01*
X14126100Y-9846100D02*
G75*
G03*
X14126100Y-9846100I-60000J0D01*
G01*
X14260100Y-9786100D02*
X14380100Y-9906100D01*
X14380100Y-9786100D02*
X14260100Y-9906100D01*
X14380100Y-9846100D02*
G75*
G03*
X14380100Y-9846100I-60000J0D01*
G01*
X9835190Y-9721100D02*
X10085190Y-9971100D01*
X10085190Y-9721100D02*
X9835190Y-9971100D01*
X9960190Y-9721100D02*
X9960190Y-9971100D01*
X9835190Y-9846100D02*
X10085190Y-9846100D01*
X9835190Y-12821170D02*
X10085190Y-13071170D01*
X10085190Y-12821170D02*
X9835190Y-13071170D01*
X9960190Y-12821170D02*
X9960190Y-13071170D01*
X9835190Y-12946170D02*
X10085190Y-12946170D01*
X17335048Y-12821170D02*
X17585048Y-13071170D01*
X17585048Y-12821170D02*
X17335048Y-13071170D01*
X17460048Y-12821170D02*
X17460048Y-13071170D01*
X17335048Y-12946170D02*
X17585048Y-12946170D01*
X17335100Y-9721100D02*
X17585100Y-9971100D01*
X17585100Y-9721100D02*
X17335100Y-9971100D01*
X17460100Y-9721100D02*
X17460100Y-9971100D01*
X17335100Y-9846100D02*
X17585100Y-9846100D01*
D12*
X9935928Y-13727014D02*
X9935928Y-13427014D01*
X10007357Y-13427014D01*
X10050214Y-13441300D01*
X10078786Y-13469871D01*
X10093071Y-13498443D01*
X10107357Y-13555586D01*
X10107357Y-13598443D01*
X10093071Y-13655586D01*
X10078786Y-13684157D01*
X10050214Y-13712729D01*
X10007357Y-13727014D01*
X9935928Y-13727014D01*
X10235928Y-13727014D02*
X10235928Y-13527014D01*
X10235928Y-13584157D02*
X10250214Y-13555586D01*
X10264500Y-13541300D01*
X10293071Y-13527014D01*
X10321643Y-13527014D01*
X10421643Y-13727014D02*
X10421643Y-13527014D01*
X10421643Y-13427014D02*
X10407357Y-13441300D01*
X10421643Y-13455586D01*
X10435928Y-13441300D01*
X10421643Y-13427014D01*
X10421643Y-13455586D01*
X10607357Y-13727014D02*
X10578786Y-13712729D01*
X10564500Y-13684157D01*
X10564500Y-13427014D01*
X10764500Y-13727014D02*
X10735928Y-13712729D01*
X10721643Y-13684157D01*
X10721643Y-13427014D01*
X11107357Y-13727014D02*
X11107357Y-13427014D01*
X11207357Y-13641300D01*
X11307357Y-13427014D01*
X11307357Y-13727014D01*
X11578786Y-13727014D02*
X11578786Y-13569871D01*
X11564500Y-13541300D01*
X11535928Y-13527014D01*
X11478786Y-13527014D01*
X11450214Y-13541300D01*
X11578786Y-13712729D02*
X11550214Y-13727014D01*
X11478786Y-13727014D01*
X11450214Y-13712729D01*
X11435928Y-13684157D01*
X11435928Y-13655586D01*
X11450214Y-13627014D01*
X11478786Y-13612729D01*
X11550214Y-13612729D01*
X11578786Y-13598443D01*
X11721643Y-13527014D02*
X11721643Y-13827014D01*
X11721643Y-13541300D02*
X11750214Y-13527014D01*
X11807357Y-13527014D01*
X11835928Y-13541300D01*
X11850214Y-13555586D01*
X11864500Y-13584157D01*
X11864500Y-13669871D01*
X11850214Y-13698443D01*
X11835928Y-13712729D01*
X11807357Y-13727014D01*
X11750214Y-13727014D01*
X11721643Y-13712729D01*
X11993071Y-13698443D02*
X12007357Y-13712729D01*
X11993071Y-13727014D01*
X11978786Y-13712729D01*
X11993071Y-13698443D01*
X11993071Y-13727014D01*
X11993071Y-13541300D02*
X12007357Y-13555586D01*
X11993071Y-13569871D01*
X11978786Y-13555586D01*
X11993071Y-13541300D01*
X11993071Y-13569871D01*
X9609500Y-14201300D02*
X9649500Y-14241300D01*
X9649500Y-14201300D02*
X9609500Y-14241300D01*
X9993071Y-14057014D02*
X10021643Y-14057014D01*
X10050214Y-14071300D01*
X10064500Y-14085586D01*
X10078786Y-14114157D01*
X10093071Y-14171300D01*
X10093071Y-14242729D01*
X10078786Y-14299871D01*
X10064500Y-14328443D01*
X10050214Y-14342729D01*
X10021643Y-14357014D01*
X9993071Y-14357014D01*
X9964500Y-14342729D01*
X9950214Y-14328443D01*
X9935928Y-14299871D01*
X9921643Y-14242729D01*
X9921643Y-14171300D01*
X9935928Y-14114157D01*
X9950214Y-14085586D01*
X9964500Y-14071300D01*
X9993071Y-14057014D01*
X10221643Y-14328443D02*
X10235928Y-14342729D01*
X10221643Y-14357014D01*
X10207357Y-14342729D01*
X10221643Y-14328443D01*
X10221643Y-14357014D01*
X10493071Y-14157014D02*
X10493071Y-14357014D01*
X10421643Y-14042729D02*
X10350214Y-14257014D01*
X10535928Y-14257014D01*
X10707357Y-14057014D02*
X10735928Y-14057014D01*
X10764500Y-14071300D01*
X10778786Y-14085586D01*
X10793071Y-14114157D01*
X10807357Y-14171300D01*
X10807357Y-14242729D01*
X10793071Y-14299871D01*
X10778786Y-14328443D01*
X10764500Y-14342729D01*
X10735928Y-14357014D01*
X10707357Y-14357014D01*
X10678786Y-14342729D01*
X10664500Y-14328443D01*
X10650214Y-14299871D01*
X10635928Y-14242729D01*
X10635928Y-14171300D01*
X10650214Y-14114157D01*
X10664500Y-14085586D01*
X10678786Y-14071300D01*
X10707357Y-14057014D01*
X10993071Y-14057014D02*
X11021643Y-14057014D01*
X11050214Y-14071300D01*
X11064500Y-14085586D01*
X11078786Y-14114157D01*
X11093071Y-14171300D01*
X11093071Y-14242729D01*
X11078786Y-14299871D01*
X11064500Y-14328443D01*
X11050214Y-14342729D01*
X11021643Y-14357014D01*
X10993071Y-14357014D01*
X10964500Y-14342729D01*
X10950214Y-14328443D01*
X10935928Y-14299871D01*
X10921643Y-14242729D01*
X10921643Y-14171300D01*
X10935928Y-14114157D01*
X10950214Y-14085586D01*
X10964500Y-14071300D01*
X10993071Y-14057014D01*
X11221643Y-14357014D02*
X11221643Y-14157014D01*
X11221643Y-14185586D02*
X11235928Y-14171300D01*
X11264500Y-14157014D01*
X11307357Y-14157014D01*
X11335928Y-14171300D01*
X11350214Y-14199871D01*
X11350214Y-14357014D01*
X11350214Y-14199871D02*
X11364500Y-14171300D01*
X11393071Y-14157014D01*
X11435928Y-14157014D01*
X11464500Y-14171300D01*
X11478786Y-14199871D01*
X11478786Y-14357014D01*
X11621643Y-14357014D02*
X11621643Y-14157014D01*
X11621643Y-14185586D02*
X11635928Y-14171300D01*
X11664500Y-14157014D01*
X11707357Y-14157014D01*
X11735928Y-14171300D01*
X11750214Y-14199871D01*
X11750214Y-14357014D01*
X11750214Y-14199871D02*
X11764500Y-14171300D01*
X11793071Y-14157014D01*
X11835928Y-14157014D01*
X11864500Y-14171300D01*
X11878786Y-14199871D01*
X11878786Y-14357014D01*
X12464500Y-14042729D02*
X12207357Y-14428443D01*
X12850214Y-14057014D02*
X12878786Y-14057014D01*
X12907357Y-14071300D01*
X12921643Y-14085586D01*
X12935928Y-14114157D01*
X12950214Y-14171300D01*
X12950214Y-14242729D01*
X12935928Y-14299871D01*
X12921643Y-14328443D01*
X12907357Y-14342729D01*
X12878786Y-14357014D01*
X12850214Y-14357014D01*
X12821643Y-14342729D01*
X12807357Y-14328443D01*
X12793071Y-14299871D01*
X12778786Y-14242729D01*
X12778786Y-14171300D01*
X12793071Y-14114157D01*
X12807357Y-14085586D01*
X12821643Y-14071300D01*
X12850214Y-14057014D01*
X13078786Y-14328443D02*
X13093071Y-14342729D01*
X13078786Y-14357014D01*
X13064500Y-14342729D01*
X13078786Y-14328443D01*
X13078786Y-14357014D01*
X13278786Y-14057014D02*
X13307357Y-14057014D01*
X13335928Y-14071300D01*
X13350214Y-14085586D01*
X13364500Y-14114157D01*
X13378786Y-14171300D01*
X13378786Y-14242729D01*
X13364500Y-14299871D01*
X13350214Y-14328443D01*
X13335928Y-14342729D01*
X13307357Y-14357014D01*
X13278786Y-14357014D01*
X13250214Y-14342729D01*
X13235928Y-14328443D01*
X13221643Y-14299871D01*
X13207357Y-14242729D01*
X13207357Y-14171300D01*
X13221643Y-14114157D01*
X13235928Y-14085586D01*
X13250214Y-14071300D01*
X13278786Y-14057014D01*
X13664500Y-14357014D02*
X13493071Y-14357014D01*
X13578786Y-14357014D02*
X13578786Y-14057014D01*
X13550214Y-14099871D01*
X13521643Y-14128443D01*
X13493071Y-14142729D01*
X13935928Y-14057014D02*
X13793071Y-14057014D01*
X13778786Y-14199871D01*
X13793071Y-14185586D01*
X13821643Y-14171300D01*
X13893071Y-14171300D01*
X13921643Y-14185586D01*
X13935928Y-14199871D01*
X13950214Y-14228443D01*
X13950214Y-14299871D01*
X13935928Y-14328443D01*
X13921643Y-14342729D01*
X13893071Y-14357014D01*
X13821643Y-14357014D01*
X13793071Y-14342729D01*
X13778786Y-14328443D01*
X14050214Y-14057014D02*
X14250214Y-14057014D01*
X14121643Y-14357014D01*
X14350214Y-14057014D02*
X14350214Y-14114157D01*
X14464500Y-14057014D02*
X14464500Y-14114157D01*
X14907357Y-14471300D02*
X14893071Y-14457014D01*
X14864500Y-14414157D01*
X14850214Y-14385586D01*
X14835928Y-14342729D01*
X14821643Y-14271300D01*
X14821643Y-14214157D01*
X14835928Y-14142729D01*
X14850214Y-14099871D01*
X14864500Y-14071300D01*
X14893071Y-14028443D01*
X14907357Y-14014157D01*
X14993071Y-14057014D02*
X15178786Y-14057014D01*
X15078786Y-14171300D01*
X15121643Y-14171300D01*
X15150214Y-14185586D01*
X15164500Y-14199871D01*
X15178786Y-14228443D01*
X15178786Y-14299871D01*
X15164500Y-14328443D01*
X15150214Y-14342729D01*
X15121643Y-14357014D01*
X15035928Y-14357014D01*
X15007357Y-14342729D01*
X14993071Y-14328443D01*
X15350214Y-14185586D02*
X15321643Y-14171300D01*
X15307357Y-14157014D01*
X15293071Y-14128443D01*
X15293071Y-14114157D01*
X15307357Y-14085586D01*
X15321643Y-14071300D01*
X15350214Y-14057014D01*
X15407357Y-14057014D01*
X15435928Y-14071300D01*
X15450214Y-14085586D01*
X15464500Y-14114157D01*
X15464500Y-14128443D01*
X15450214Y-14157014D01*
X15435928Y-14171300D01*
X15407357Y-14185586D01*
X15350214Y-14185586D01*
X15321643Y-14199871D01*
X15307357Y-14214157D01*
X15293071Y-14242729D01*
X15293071Y-14299871D01*
X15307357Y-14328443D01*
X15321643Y-14342729D01*
X15350214Y-14357014D01*
X15407357Y-14357014D01*
X15435928Y-14342729D01*
X15450214Y-14328443D01*
X15464500Y-14299871D01*
X15464500Y-14242729D01*
X15450214Y-14214157D01*
X15435928Y-14199871D01*
X15407357Y-14185586D01*
X15821643Y-14357014D02*
X15821643Y-14057014D01*
X15950214Y-14357014D02*
X15950214Y-14199871D01*
X15935928Y-14171300D01*
X15907357Y-14157014D01*
X15864500Y-14157014D01*
X15835928Y-14171300D01*
X15821643Y-14185586D01*
X16135928Y-14357014D02*
X16107357Y-14342729D01*
X16093071Y-14328443D01*
X16078786Y-14299871D01*
X16078786Y-14214157D01*
X16093071Y-14185586D01*
X16107357Y-14171300D01*
X16135928Y-14157014D01*
X16178786Y-14157014D01*
X16207357Y-14171300D01*
X16221643Y-14185586D01*
X16235928Y-14214157D01*
X16235928Y-14299871D01*
X16221643Y-14328443D01*
X16207357Y-14342729D01*
X16178786Y-14357014D01*
X16135928Y-14357014D01*
X16407357Y-14357014D02*
X16378786Y-14342729D01*
X16364500Y-14314157D01*
X16364500Y-14057014D01*
X16635928Y-14342729D02*
X16607357Y-14357014D01*
X16550214Y-14357014D01*
X16521643Y-14342729D01*
X16507357Y-14314157D01*
X16507357Y-14199871D01*
X16521643Y-14171300D01*
X16550214Y-14157014D01*
X16607357Y-14157014D01*
X16635928Y-14171300D01*
X16650214Y-14199871D01*
X16650214Y-14228443D01*
X16507357Y-14257014D01*
X16764500Y-14342729D02*
X16793071Y-14357014D01*
X16850214Y-14357014D01*
X16878786Y-14342729D01*
X16893071Y-14314157D01*
X16893071Y-14299871D01*
X16878786Y-14271300D01*
X16850214Y-14257014D01*
X16807357Y-14257014D01*
X16778786Y-14242729D01*
X16764500Y-14214157D01*
X16764500Y-14199871D01*
X16778786Y-14171300D01*
X16807357Y-14157014D01*
X16850214Y-14157014D01*
X16878786Y-14171300D01*
X16993071Y-14471300D02*
X17007357Y-14457014D01*
X17035928Y-14414157D01*
X17050214Y-14385586D01*
X17064500Y-14342729D01*
X17078786Y-14271300D01*
X17078786Y-14214157D01*
X17064500Y-14142729D01*
X17050214Y-14099871D01*
X17035928Y-14071300D01*
X17007357Y-14028443D01*
X16993071Y-14014157D01*
X9649500Y-14617300D02*
G75*
G03*
X9649500Y-14617300I-30000J0D01*
G01*
X9993071Y-14453014D02*
X10021643Y-14453014D01*
X10050214Y-14467300D01*
X10064500Y-14481586D01*
X10078786Y-14510157D01*
X10093071Y-14567300D01*
X10093071Y-14638729D01*
X10078786Y-14695871D01*
X10064500Y-14724443D01*
X10050214Y-14738729D01*
X10021643Y-14753014D01*
X9993071Y-14753014D01*
X9964500Y-14738729D01*
X9950214Y-14724443D01*
X9935928Y-14695871D01*
X9921643Y-14638729D01*
X9921643Y-14567300D01*
X9935928Y-14510157D01*
X9950214Y-14481586D01*
X9964500Y-14467300D01*
X9993071Y-14453014D01*
X10221643Y-14724443D02*
X10235928Y-14738729D01*
X10221643Y-14753014D01*
X10207357Y-14738729D01*
X10221643Y-14724443D01*
X10221643Y-14753014D01*
X10493071Y-14453014D02*
X10435928Y-14453014D01*
X10407357Y-14467300D01*
X10393071Y-14481586D01*
X10364500Y-14524443D01*
X10350214Y-14581586D01*
X10350214Y-14695871D01*
X10364500Y-14724443D01*
X10378786Y-14738729D01*
X10407357Y-14753014D01*
X10464500Y-14753014D01*
X10493071Y-14738729D01*
X10507357Y-14724443D01*
X10521643Y-14695871D01*
X10521643Y-14624443D01*
X10507357Y-14595871D01*
X10493071Y-14581586D01*
X10464500Y-14567300D01*
X10407357Y-14567300D01*
X10378786Y-14581586D01*
X10364500Y-14595871D01*
X10350214Y-14624443D01*
X10707357Y-14453014D02*
X10735928Y-14453014D01*
X10764500Y-14467300D01*
X10778786Y-14481586D01*
X10793071Y-14510157D01*
X10807357Y-14567300D01*
X10807357Y-14638729D01*
X10793071Y-14695871D01*
X10778786Y-14724443D01*
X10764500Y-14738729D01*
X10735928Y-14753014D01*
X10707357Y-14753014D01*
X10678786Y-14738729D01*
X10664500Y-14724443D01*
X10650214Y-14695871D01*
X10635928Y-14638729D01*
X10635928Y-14567300D01*
X10650214Y-14510157D01*
X10664500Y-14481586D01*
X10678786Y-14467300D01*
X10707357Y-14453014D01*
X10993071Y-14453014D02*
X11021643Y-14453014D01*
X11050214Y-14467300D01*
X11064500Y-14481586D01*
X11078786Y-14510157D01*
X11093071Y-14567300D01*
X11093071Y-14638729D01*
X11078786Y-14695871D01*
X11064500Y-14724443D01*
X11050214Y-14738729D01*
X11021643Y-14753014D01*
X10993071Y-14753014D01*
X10964500Y-14738729D01*
X10950214Y-14724443D01*
X10935928Y-14695871D01*
X10921643Y-14638729D01*
X10921643Y-14567300D01*
X10935928Y-14510157D01*
X10950214Y-14481586D01*
X10964500Y-14467300D01*
X10993071Y-14453014D01*
X11221643Y-14753014D02*
X11221643Y-14553014D01*
X11221643Y-14581586D02*
X11235928Y-14567300D01*
X11264500Y-14553014D01*
X11307357Y-14553014D01*
X11335928Y-14567300D01*
X11350214Y-14595871D01*
X11350214Y-14753014D01*
X11350214Y-14595871D02*
X11364500Y-14567300D01*
X11393071Y-14553014D01*
X11435928Y-14553014D01*
X11464500Y-14567300D01*
X11478786Y-14595871D01*
X11478786Y-14753014D01*
X11621643Y-14753014D02*
X11621643Y-14553014D01*
X11621643Y-14581586D02*
X11635928Y-14567300D01*
X11664500Y-14553014D01*
X11707357Y-14553014D01*
X11735928Y-14567300D01*
X11750214Y-14595871D01*
X11750214Y-14753014D01*
X11750214Y-14595871D02*
X11764500Y-14567300D01*
X11793071Y-14553014D01*
X11835928Y-14553014D01*
X11864500Y-14567300D01*
X11878786Y-14595871D01*
X11878786Y-14753014D01*
X12464500Y-14438729D02*
X12207357Y-14824443D01*
X12850214Y-14453014D02*
X12878786Y-14453014D01*
X12907357Y-14467300D01*
X12921643Y-14481586D01*
X12935928Y-14510157D01*
X12950214Y-14567300D01*
X12950214Y-14638729D01*
X12935928Y-14695871D01*
X12921643Y-14724443D01*
X12907357Y-14738729D01*
X12878786Y-14753014D01*
X12850214Y-14753014D01*
X12821643Y-14738729D01*
X12807357Y-14724443D01*
X12793071Y-14695871D01*
X12778786Y-14638729D01*
X12778786Y-14567300D01*
X12793071Y-14510157D01*
X12807357Y-14481586D01*
X12821643Y-14467300D01*
X12850214Y-14453014D01*
X13078786Y-14724443D02*
X13093071Y-14738729D01*
X13078786Y-14753014D01*
X13064500Y-14738729D01*
X13078786Y-14724443D01*
X13078786Y-14753014D01*
X13278786Y-14453014D02*
X13307357Y-14453014D01*
X13335928Y-14467300D01*
X13350214Y-14481586D01*
X13364500Y-14510157D01*
X13378786Y-14567300D01*
X13378786Y-14638729D01*
X13364500Y-14695871D01*
X13350214Y-14724443D01*
X13335928Y-14738729D01*
X13307357Y-14753014D01*
X13278786Y-14753014D01*
X13250214Y-14738729D01*
X13235928Y-14724443D01*
X13221643Y-14695871D01*
X13207357Y-14638729D01*
X13207357Y-14567300D01*
X13221643Y-14510157D01*
X13235928Y-14481586D01*
X13250214Y-14467300D01*
X13278786Y-14453014D01*
X13493071Y-14481586D02*
X13507357Y-14467300D01*
X13535928Y-14453014D01*
X13607357Y-14453014D01*
X13635928Y-14467300D01*
X13650214Y-14481586D01*
X13664500Y-14510157D01*
X13664500Y-14538729D01*
X13650214Y-14581586D01*
X13478786Y-14753014D01*
X13664500Y-14753014D01*
X13764500Y-14453014D02*
X13950214Y-14453014D01*
X13850214Y-14567300D01*
X13893071Y-14567300D01*
X13921643Y-14581586D01*
X13935928Y-14595871D01*
X13950214Y-14624443D01*
X13950214Y-14695871D01*
X13935928Y-14724443D01*
X13921643Y-14738729D01*
X13893071Y-14753014D01*
X13807357Y-14753014D01*
X13778786Y-14738729D01*
X13764500Y-14724443D01*
X14207357Y-14453014D02*
X14150214Y-14453014D01*
X14121643Y-14467300D01*
X14107357Y-14481586D01*
X14078786Y-14524443D01*
X14064500Y-14581586D01*
X14064500Y-14695871D01*
X14078786Y-14724443D01*
X14093071Y-14738729D01*
X14121643Y-14753014D01*
X14178786Y-14753014D01*
X14207357Y-14738729D01*
X14221643Y-14724443D01*
X14235928Y-14695871D01*
X14235928Y-14624443D01*
X14221643Y-14595871D01*
X14207357Y-14581586D01*
X14178786Y-14567300D01*
X14121643Y-14567300D01*
X14093071Y-14581586D01*
X14078786Y-14595871D01*
X14064500Y-14624443D01*
X14350214Y-14453014D02*
X14350214Y-14510157D01*
X14464500Y-14453014D02*
X14464500Y-14510157D01*
X14907357Y-14867300D02*
X14893071Y-14853014D01*
X14864500Y-14810157D01*
X14850214Y-14781586D01*
X14835928Y-14738729D01*
X14821643Y-14667300D01*
X14821643Y-14610157D01*
X14835928Y-14538729D01*
X14850214Y-14495871D01*
X14864500Y-14467300D01*
X14893071Y-14424443D01*
X14907357Y-14410157D01*
X15007357Y-14481586D02*
X15021643Y-14467300D01*
X15050214Y-14453014D01*
X15121643Y-14453014D01*
X15150214Y-14467300D01*
X15164500Y-14481586D01*
X15178786Y-14510157D01*
X15178786Y-14538729D01*
X15164500Y-14581586D01*
X14993071Y-14753014D01*
X15178786Y-14753014D01*
X15535928Y-14753014D02*
X15535928Y-14453014D01*
X15664500Y-14753014D02*
X15664500Y-14595871D01*
X15650214Y-14567300D01*
X15621643Y-14553014D01*
X15578786Y-14553014D01*
X15550214Y-14567300D01*
X15535928Y-14581586D01*
X15850214Y-14753014D02*
X15821643Y-14738729D01*
X15807357Y-14724443D01*
X15793071Y-14695871D01*
X15793071Y-14610157D01*
X15807357Y-14581586D01*
X15821643Y-14567300D01*
X15850214Y-14553014D01*
X15893071Y-14553014D01*
X15921643Y-14567300D01*
X15935928Y-14581586D01*
X15950214Y-14610157D01*
X15950214Y-14695871D01*
X15935928Y-14724443D01*
X15921643Y-14738729D01*
X15893071Y-14753014D01*
X15850214Y-14753014D01*
X16121643Y-14753014D02*
X16093071Y-14738729D01*
X16078786Y-14710157D01*
X16078786Y-14453014D01*
X16350214Y-14738729D02*
X16321643Y-14753014D01*
X16264500Y-14753014D01*
X16235928Y-14738729D01*
X16221643Y-14710157D01*
X16221643Y-14595871D01*
X16235928Y-14567300D01*
X16264500Y-14553014D01*
X16321643Y-14553014D01*
X16350214Y-14567300D01*
X16364500Y-14595871D01*
X16364500Y-14624443D01*
X16221643Y-14653014D01*
X16478786Y-14738729D02*
X16507357Y-14753014D01*
X16564500Y-14753014D01*
X16593071Y-14738729D01*
X16607357Y-14710157D01*
X16607357Y-14695871D01*
X16593071Y-14667300D01*
X16564500Y-14653014D01*
X16521643Y-14653014D01*
X16493071Y-14638729D01*
X16478786Y-14610157D01*
X16478786Y-14595871D01*
X16493071Y-14567300D01*
X16521643Y-14553014D01*
X16564500Y-14553014D01*
X16593071Y-14567300D01*
X16707357Y-14867300D02*
X16721643Y-14853014D01*
X16750214Y-14810157D01*
X16764500Y-14781586D01*
X16778786Y-14738729D01*
X16793071Y-14667300D01*
X16793071Y-14610157D01*
X16778786Y-14538729D01*
X16764500Y-14495871D01*
X16750214Y-14467300D01*
X16721643Y-14424443D01*
X16707357Y-14410157D01*
X9611500Y-14975300D02*
X9611500Y-15051300D01*
X9573500Y-15013300D02*
X9649500Y-15013300D01*
X9993071Y-14849014D02*
X10021643Y-14849014D01*
X10050214Y-14863300D01*
X10064500Y-14877586D01*
X10078786Y-14906157D01*
X10093071Y-14963300D01*
X10093071Y-15034729D01*
X10078786Y-15091871D01*
X10064500Y-15120443D01*
X10050214Y-15134729D01*
X10021643Y-15149014D01*
X9993071Y-15149014D01*
X9964500Y-15134729D01*
X9950214Y-15120443D01*
X9935928Y-15091871D01*
X9921643Y-15034729D01*
X9921643Y-14963300D01*
X9935928Y-14906157D01*
X9950214Y-14877586D01*
X9964500Y-14863300D01*
X9993071Y-14849014D01*
X10221643Y-15120443D02*
X10235928Y-15134729D01*
X10221643Y-15149014D01*
X10207357Y-15134729D01*
X10221643Y-15120443D01*
X10221643Y-15149014D01*
X10335928Y-14849014D02*
X10535928Y-14849014D01*
X10407357Y-15149014D01*
X10778786Y-14849014D02*
X10721643Y-14849014D01*
X10693071Y-14863300D01*
X10678786Y-14877586D01*
X10650214Y-14920443D01*
X10635928Y-14977586D01*
X10635928Y-15091871D01*
X10650214Y-15120443D01*
X10664500Y-15134729D01*
X10693071Y-15149014D01*
X10750214Y-15149014D01*
X10778786Y-15134729D01*
X10793071Y-15120443D01*
X10807357Y-15091871D01*
X10807357Y-15020443D01*
X10793071Y-14991871D01*
X10778786Y-14977586D01*
X10750214Y-14963300D01*
X10693071Y-14963300D01*
X10664500Y-14977586D01*
X10650214Y-14991871D01*
X10635928Y-15020443D01*
X10993071Y-14849014D02*
X11021643Y-14849014D01*
X11050214Y-14863300D01*
X11064500Y-14877586D01*
X11078786Y-14906157D01*
X11093071Y-14963300D01*
X11093071Y-15034729D01*
X11078786Y-15091871D01*
X11064500Y-15120443D01*
X11050214Y-15134729D01*
X11021643Y-15149014D01*
X10993071Y-15149014D01*
X10964500Y-15134729D01*
X10950214Y-15120443D01*
X10935928Y-15091871D01*
X10921643Y-15034729D01*
X10921643Y-14963300D01*
X10935928Y-14906157D01*
X10950214Y-14877586D01*
X10964500Y-14863300D01*
X10993071Y-14849014D01*
X11221643Y-15149014D02*
X11221643Y-14949014D01*
X11221643Y-14977586D02*
X11235928Y-14963300D01*
X11264500Y-14949014D01*
X11307357Y-14949014D01*
X11335928Y-14963300D01*
X11350214Y-14991871D01*
X11350214Y-15149014D01*
X11350214Y-14991871D02*
X11364500Y-14963300D01*
X11393071Y-14949014D01*
X11435928Y-14949014D01*
X11464500Y-14963300D01*
X11478786Y-14991871D01*
X11478786Y-15149014D01*
X11621643Y-15149014D02*
X11621643Y-14949014D01*
X11621643Y-14977586D02*
X11635928Y-14963300D01*
X11664500Y-14949014D01*
X11707357Y-14949014D01*
X11735928Y-14963300D01*
X11750214Y-14991871D01*
X11750214Y-15149014D01*
X11750214Y-14991871D02*
X11764500Y-14963300D01*
X11793071Y-14949014D01*
X11835928Y-14949014D01*
X11864500Y-14963300D01*
X11878786Y-14991871D01*
X11878786Y-15149014D01*
X12464500Y-14834729D02*
X12207357Y-15220443D01*
X12850214Y-14849014D02*
X12878786Y-14849014D01*
X12907357Y-14863300D01*
X12921643Y-14877586D01*
X12935928Y-14906157D01*
X12950214Y-14963300D01*
X12950214Y-15034729D01*
X12935928Y-15091871D01*
X12921643Y-15120443D01*
X12907357Y-15134729D01*
X12878786Y-15149014D01*
X12850214Y-15149014D01*
X12821643Y-15134729D01*
X12807357Y-15120443D01*
X12793071Y-15091871D01*
X12778786Y-15034729D01*
X12778786Y-14963300D01*
X12793071Y-14906157D01*
X12807357Y-14877586D01*
X12821643Y-14863300D01*
X12850214Y-14849014D01*
X13078786Y-15120443D02*
X13093071Y-15134729D01*
X13078786Y-15149014D01*
X13064500Y-15134729D01*
X13078786Y-15120443D01*
X13078786Y-15149014D01*
X13278786Y-14849014D02*
X13307357Y-14849014D01*
X13335928Y-14863300D01*
X13350214Y-14877586D01*
X13364500Y-14906157D01*
X13378786Y-14963300D01*
X13378786Y-15034729D01*
X13364500Y-15091871D01*
X13350214Y-15120443D01*
X13335928Y-15134729D01*
X13307357Y-15149014D01*
X13278786Y-15149014D01*
X13250214Y-15134729D01*
X13235928Y-15120443D01*
X13221643Y-15091871D01*
X13207357Y-15034729D01*
X13207357Y-14963300D01*
X13221643Y-14906157D01*
X13235928Y-14877586D01*
X13250214Y-14863300D01*
X13278786Y-14849014D01*
X13493071Y-14877586D02*
X13507357Y-14863300D01*
X13535928Y-14849014D01*
X13607357Y-14849014D01*
X13635928Y-14863300D01*
X13650214Y-14877586D01*
X13664500Y-14906157D01*
X13664500Y-14934729D01*
X13650214Y-14977586D01*
X13478786Y-15149014D01*
X13664500Y-15149014D01*
X13807357Y-15149014D02*
X13864500Y-15149014D01*
X13893071Y-15134729D01*
X13907357Y-15120443D01*
X13935928Y-15077586D01*
X13950214Y-15020443D01*
X13950214Y-14906157D01*
X13935928Y-14877586D01*
X13921643Y-14863300D01*
X13893071Y-14849014D01*
X13835928Y-14849014D01*
X13807357Y-14863300D01*
X13793071Y-14877586D01*
X13778786Y-14906157D01*
X13778786Y-14977586D01*
X13793071Y-15006157D01*
X13807357Y-15020443D01*
X13835928Y-15034729D01*
X13893071Y-15034729D01*
X13921643Y-15020443D01*
X13935928Y-15006157D01*
X13950214Y-14977586D01*
X14093071Y-15149014D02*
X14150214Y-15149014D01*
X14178786Y-15134729D01*
X14193071Y-15120443D01*
X14221643Y-15077586D01*
X14235928Y-15020443D01*
X14235928Y-14906157D01*
X14221643Y-14877586D01*
X14207357Y-14863300D01*
X14178786Y-14849014D01*
X14121643Y-14849014D01*
X14093071Y-14863300D01*
X14078786Y-14877586D01*
X14064500Y-14906157D01*
X14064500Y-14977586D01*
X14078786Y-15006157D01*
X14093071Y-15020443D01*
X14121643Y-15034729D01*
X14178786Y-15034729D01*
X14207357Y-15020443D01*
X14221643Y-15006157D01*
X14235928Y-14977586D01*
X14350214Y-14849014D02*
X14350214Y-14906157D01*
X14464500Y-14849014D02*
X14464500Y-14906157D01*
X14907357Y-15263300D02*
X14893071Y-15249014D01*
X14864500Y-15206157D01*
X14850214Y-15177586D01*
X14835928Y-15134729D01*
X14821643Y-15063300D01*
X14821643Y-15006157D01*
X14835928Y-14934729D01*
X14850214Y-14891871D01*
X14864500Y-14863300D01*
X14893071Y-14820443D01*
X14907357Y-14806157D01*
X14993071Y-14849014D02*
X15178786Y-14849014D01*
X15078786Y-14963300D01*
X15121643Y-14963300D01*
X15150214Y-14977586D01*
X15164500Y-14991871D01*
X15178786Y-15020443D01*
X15178786Y-15091871D01*
X15164500Y-15120443D01*
X15150214Y-15134729D01*
X15121643Y-15149014D01*
X15035928Y-15149014D01*
X15007357Y-15134729D01*
X14993071Y-15120443D01*
X15535928Y-15149014D02*
X15535928Y-14849014D01*
X15664500Y-15149014D02*
X15664500Y-14991871D01*
X15650214Y-14963300D01*
X15621643Y-14949014D01*
X15578786Y-14949014D01*
X15550214Y-14963300D01*
X15535928Y-14977586D01*
X15850214Y-15149014D02*
X15821643Y-15134729D01*
X15807357Y-15120443D01*
X15793071Y-15091871D01*
X15793071Y-15006157D01*
X15807357Y-14977586D01*
X15821643Y-14963300D01*
X15850214Y-14949014D01*
X15893071Y-14949014D01*
X15921643Y-14963300D01*
X15935928Y-14977586D01*
X15950214Y-15006157D01*
X15950214Y-15091871D01*
X15935928Y-15120443D01*
X15921643Y-15134729D01*
X15893071Y-15149014D01*
X15850214Y-15149014D01*
X16121643Y-15149014D02*
X16093071Y-15134729D01*
X16078786Y-15106157D01*
X16078786Y-14849014D01*
X16350214Y-15134729D02*
X16321643Y-15149014D01*
X16264500Y-15149014D01*
X16235928Y-15134729D01*
X16221643Y-15106157D01*
X16221643Y-14991871D01*
X16235928Y-14963300D01*
X16264500Y-14949014D01*
X16321643Y-14949014D01*
X16350214Y-14963300D01*
X16364500Y-14991871D01*
X16364500Y-15020443D01*
X16221643Y-15049014D01*
X16478786Y-15134729D02*
X16507357Y-15149014D01*
X16564500Y-15149014D01*
X16593071Y-15134729D01*
X16607357Y-15106157D01*
X16607357Y-15091871D01*
X16593071Y-15063300D01*
X16564500Y-15049014D01*
X16521643Y-15049014D01*
X16493071Y-15034729D01*
X16478786Y-15006157D01*
X16478786Y-14991871D01*
X16493071Y-14963300D01*
X16521643Y-14949014D01*
X16564500Y-14949014D01*
X16593071Y-14963300D01*
X16707357Y-15263300D02*
X16721643Y-15249014D01*
X16750214Y-15206157D01*
X16764500Y-15177586D01*
X16778786Y-15134729D01*
X16793071Y-15063300D01*
X16793071Y-15006157D01*
X16778786Y-14934729D01*
X16764500Y-14891871D01*
X16750214Y-14863300D01*
X16721643Y-14820443D01*
X16707357Y-14806157D01*
X9637784Y-15437585D02*
X9637784Y-15381016D01*
X9581215Y-15381016D01*
X9581215Y-15437585D01*
X9637784Y-15437585D01*
X9993071Y-15245014D02*
X10021643Y-15245014D01*
X10050214Y-15259300D01*
X10064500Y-15273586D01*
X10078786Y-15302157D01*
X10093071Y-15359300D01*
X10093071Y-15430729D01*
X10078786Y-15487871D01*
X10064500Y-15516443D01*
X10050214Y-15530729D01*
X10021643Y-15545014D01*
X9993071Y-15545014D01*
X9964500Y-15530729D01*
X9950214Y-15516443D01*
X9935928Y-15487871D01*
X9921643Y-15430729D01*
X9921643Y-15359300D01*
X9935928Y-15302157D01*
X9950214Y-15273586D01*
X9964500Y-15259300D01*
X9993071Y-15245014D01*
X10221643Y-15516443D02*
X10235928Y-15530729D01*
X10221643Y-15545014D01*
X10207357Y-15530729D01*
X10221643Y-15516443D01*
X10221643Y-15545014D01*
X10407357Y-15373586D02*
X10378786Y-15359300D01*
X10364500Y-15345014D01*
X10350214Y-15316443D01*
X10350214Y-15302157D01*
X10364500Y-15273586D01*
X10378786Y-15259300D01*
X10407357Y-15245014D01*
X10464500Y-15245014D01*
X10493071Y-15259300D01*
X10507357Y-15273586D01*
X10521643Y-15302157D01*
X10521643Y-15316443D01*
X10507357Y-15345014D01*
X10493071Y-15359300D01*
X10464500Y-15373586D01*
X10407357Y-15373586D01*
X10378786Y-15387871D01*
X10364500Y-15402157D01*
X10350214Y-15430729D01*
X10350214Y-15487871D01*
X10364500Y-15516443D01*
X10378786Y-15530729D01*
X10407357Y-15545014D01*
X10464500Y-15545014D01*
X10493071Y-15530729D01*
X10507357Y-15516443D01*
X10521643Y-15487871D01*
X10521643Y-15430729D01*
X10507357Y-15402157D01*
X10493071Y-15387871D01*
X10464500Y-15373586D01*
X10707357Y-15245014D02*
X10735928Y-15245014D01*
X10764500Y-15259300D01*
X10778786Y-15273586D01*
X10793071Y-15302157D01*
X10807357Y-15359300D01*
X10807357Y-15430729D01*
X10793071Y-15487871D01*
X10778786Y-15516443D01*
X10764500Y-15530729D01*
X10735928Y-15545014D01*
X10707357Y-15545014D01*
X10678786Y-15530729D01*
X10664500Y-15516443D01*
X10650214Y-15487871D01*
X10635928Y-15430729D01*
X10635928Y-15359300D01*
X10650214Y-15302157D01*
X10664500Y-15273586D01*
X10678786Y-15259300D01*
X10707357Y-15245014D01*
X10993071Y-15245014D02*
X11021643Y-15245014D01*
X11050214Y-15259300D01*
X11064500Y-15273586D01*
X11078786Y-15302157D01*
X11093071Y-15359300D01*
X11093071Y-15430729D01*
X11078786Y-15487871D01*
X11064500Y-15516443D01*
X11050214Y-15530729D01*
X11021643Y-15545014D01*
X10993071Y-15545014D01*
X10964500Y-15530729D01*
X10950214Y-15516443D01*
X10935928Y-15487871D01*
X10921643Y-15430729D01*
X10921643Y-15359300D01*
X10935928Y-15302157D01*
X10950214Y-15273586D01*
X10964500Y-15259300D01*
X10993071Y-15245014D01*
X11221643Y-15545014D02*
X11221643Y-15345014D01*
X11221643Y-15373586D02*
X11235928Y-15359300D01*
X11264500Y-15345014D01*
X11307357Y-15345014D01*
X11335928Y-15359300D01*
X11350214Y-15387871D01*
X11350214Y-15545014D01*
X11350214Y-15387871D02*
X11364500Y-15359300D01*
X11393071Y-15345014D01*
X11435928Y-15345014D01*
X11464500Y-15359300D01*
X11478786Y-15387871D01*
X11478786Y-15545014D01*
X11621643Y-15545014D02*
X11621643Y-15345014D01*
X11621643Y-15373586D02*
X11635928Y-15359300D01*
X11664500Y-15345014D01*
X11707357Y-15345014D01*
X11735928Y-15359300D01*
X11750214Y-15387871D01*
X11750214Y-15545014D01*
X11750214Y-15387871D02*
X11764500Y-15359300D01*
X11793071Y-15345014D01*
X11835928Y-15345014D01*
X11864500Y-15359300D01*
X11878786Y-15387871D01*
X11878786Y-15545014D01*
X12464500Y-15230729D02*
X12207357Y-15616443D01*
X12850214Y-15245014D02*
X12878786Y-15245014D01*
X12907357Y-15259300D01*
X12921643Y-15273586D01*
X12935928Y-15302157D01*
X12950214Y-15359300D01*
X12950214Y-15430729D01*
X12935928Y-15487871D01*
X12921643Y-15516443D01*
X12907357Y-15530729D01*
X12878786Y-15545014D01*
X12850214Y-15545014D01*
X12821643Y-15530729D01*
X12807357Y-15516443D01*
X12793071Y-15487871D01*
X12778786Y-15430729D01*
X12778786Y-15359300D01*
X12793071Y-15302157D01*
X12807357Y-15273586D01*
X12821643Y-15259300D01*
X12850214Y-15245014D01*
X13078786Y-15516443D02*
X13093071Y-15530729D01*
X13078786Y-15545014D01*
X13064500Y-15530729D01*
X13078786Y-15516443D01*
X13078786Y-15545014D01*
X13278786Y-15245014D02*
X13307357Y-15245014D01*
X13335928Y-15259300D01*
X13350214Y-15273586D01*
X13364500Y-15302157D01*
X13378786Y-15359300D01*
X13378786Y-15430729D01*
X13364500Y-15487871D01*
X13350214Y-15516443D01*
X13335928Y-15530729D01*
X13307357Y-15545014D01*
X13278786Y-15545014D01*
X13250214Y-15530729D01*
X13235928Y-15516443D01*
X13221643Y-15487871D01*
X13207357Y-15430729D01*
X13207357Y-15359300D01*
X13221643Y-15302157D01*
X13235928Y-15273586D01*
X13250214Y-15259300D01*
X13278786Y-15245014D01*
X13478786Y-15245014D02*
X13664500Y-15245014D01*
X13564500Y-15359300D01*
X13607357Y-15359300D01*
X13635928Y-15373586D01*
X13650214Y-15387871D01*
X13664500Y-15416443D01*
X13664500Y-15487871D01*
X13650214Y-15516443D01*
X13635928Y-15530729D01*
X13607357Y-15545014D01*
X13521643Y-15545014D01*
X13493071Y-15530729D01*
X13478786Y-15516443D01*
X13950214Y-15545014D02*
X13778786Y-15545014D01*
X13864500Y-15545014D02*
X13864500Y-15245014D01*
X13835928Y-15287871D01*
X13807357Y-15316443D01*
X13778786Y-15330729D01*
X14221643Y-15245014D02*
X14078786Y-15245014D01*
X14064500Y-15387871D01*
X14078786Y-15373586D01*
X14107357Y-15359300D01*
X14178786Y-15359300D01*
X14207357Y-15373586D01*
X14221643Y-15387871D01*
X14235928Y-15416443D01*
X14235928Y-15487871D01*
X14221643Y-15516443D01*
X14207357Y-15530729D01*
X14178786Y-15545014D01*
X14107357Y-15545014D01*
X14078786Y-15530729D01*
X14064500Y-15516443D01*
X14350214Y-15245014D02*
X14350214Y-15302157D01*
X14464500Y-15245014D02*
X14464500Y-15302157D01*
X14907357Y-15659300D02*
X14893071Y-15645014D01*
X14864500Y-15602157D01*
X14850214Y-15573586D01*
X14835928Y-15530729D01*
X14821643Y-15459300D01*
X14821643Y-15402157D01*
X14835928Y-15330729D01*
X14850214Y-15287871D01*
X14864500Y-15259300D01*
X14893071Y-15216443D01*
X14907357Y-15202157D01*
X15007357Y-15273586D02*
X15021643Y-15259300D01*
X15050214Y-15245014D01*
X15121643Y-15245014D01*
X15150214Y-15259300D01*
X15164500Y-15273586D01*
X15178786Y-15302157D01*
X15178786Y-15330729D01*
X15164500Y-15373586D01*
X14993071Y-15545014D01*
X15178786Y-15545014D01*
X15535928Y-15545014D02*
X15535928Y-15245014D01*
X15664500Y-15545014D02*
X15664500Y-15387871D01*
X15650214Y-15359300D01*
X15621643Y-15345014D01*
X15578786Y-15345014D01*
X15550214Y-15359300D01*
X15535928Y-15373586D01*
X15850214Y-15545014D02*
X15821643Y-15530729D01*
X15807357Y-15516443D01*
X15793071Y-15487871D01*
X15793071Y-15402157D01*
X15807357Y-15373586D01*
X15821643Y-15359300D01*
X15850214Y-15345014D01*
X15893071Y-15345014D01*
X15921643Y-15359300D01*
X15935928Y-15373586D01*
X15950214Y-15402157D01*
X15950214Y-15487871D01*
X15935928Y-15516443D01*
X15921643Y-15530729D01*
X15893071Y-15545014D01*
X15850214Y-15545014D01*
X16121643Y-15545014D02*
X16093071Y-15530729D01*
X16078786Y-15502157D01*
X16078786Y-15245014D01*
X16350214Y-15530729D02*
X16321643Y-15545014D01*
X16264500Y-15545014D01*
X16235928Y-15530729D01*
X16221643Y-15502157D01*
X16221643Y-15387871D01*
X16235928Y-15359300D01*
X16264500Y-15345014D01*
X16321643Y-15345014D01*
X16350214Y-15359300D01*
X16364500Y-15387871D01*
X16364500Y-15416443D01*
X16221643Y-15445014D01*
X16478786Y-15530729D02*
X16507357Y-15545014D01*
X16564500Y-15545014D01*
X16593071Y-15530729D01*
X16607357Y-15502157D01*
X16607357Y-15487871D01*
X16593071Y-15459300D01*
X16564500Y-15445014D01*
X16521643Y-15445014D01*
X16493071Y-15430729D01*
X16478786Y-15402157D01*
X16478786Y-15387871D01*
X16493071Y-15359300D01*
X16521643Y-15345014D01*
X16564500Y-15345014D01*
X16593071Y-15359300D01*
X16707357Y-15659300D02*
X16721643Y-15645014D01*
X16750214Y-15602157D01*
X16764500Y-15573586D01*
X16778786Y-15530729D01*
X16793071Y-15459300D01*
X16793071Y-15402157D01*
X16778786Y-15330729D01*
X16764500Y-15287871D01*
X16750214Y-15259300D01*
X16721643Y-15216443D01*
X16707357Y-15202157D01*
X9599500Y-15855300D02*
X9649500Y-15805300D01*
X9599500Y-15755300D01*
X9549500Y-15805300D01*
X9599500Y-15855300D01*
X10093071Y-15941014D02*
X9921643Y-15941014D01*
X10007357Y-15941014D02*
X10007357Y-15641014D01*
X9978786Y-15683871D01*
X9950214Y-15712443D01*
X9921643Y-15726729D01*
X10221643Y-15912443D02*
X10235928Y-15926729D01*
X10221643Y-15941014D01*
X10207357Y-15926729D01*
X10221643Y-15912443D01*
X10221643Y-15941014D01*
X10421643Y-15641014D02*
X10450214Y-15641014D01*
X10478786Y-15655300D01*
X10493071Y-15669586D01*
X10507357Y-15698157D01*
X10521643Y-15755300D01*
X10521643Y-15826729D01*
X10507357Y-15883871D01*
X10493071Y-15912443D01*
X10478786Y-15926729D01*
X10450214Y-15941014D01*
X10421643Y-15941014D01*
X10393071Y-15926729D01*
X10378786Y-15912443D01*
X10364500Y-15883871D01*
X10350214Y-15826729D01*
X10350214Y-15755300D01*
X10364500Y-15698157D01*
X10378786Y-15669586D01*
X10393071Y-15655300D01*
X10421643Y-15641014D01*
X10707357Y-15641014D02*
X10735928Y-15641014D01*
X10764500Y-15655300D01*
X10778786Y-15669586D01*
X10793071Y-15698157D01*
X10807357Y-15755300D01*
X10807357Y-15826729D01*
X10793071Y-15883871D01*
X10778786Y-15912443D01*
X10764500Y-15926729D01*
X10735928Y-15941014D01*
X10707357Y-15941014D01*
X10678786Y-15926729D01*
X10664500Y-15912443D01*
X10650214Y-15883871D01*
X10635928Y-15826729D01*
X10635928Y-15755300D01*
X10650214Y-15698157D01*
X10664500Y-15669586D01*
X10678786Y-15655300D01*
X10707357Y-15641014D01*
X10993071Y-15641014D02*
X11021643Y-15641014D01*
X11050214Y-15655300D01*
X11064500Y-15669586D01*
X11078786Y-15698157D01*
X11093071Y-15755300D01*
X11093071Y-15826729D01*
X11078786Y-15883871D01*
X11064500Y-15912443D01*
X11050214Y-15926729D01*
X11021643Y-15941014D01*
X10993071Y-15941014D01*
X10964500Y-15926729D01*
X10950214Y-15912443D01*
X10935928Y-15883871D01*
X10921643Y-15826729D01*
X10921643Y-15755300D01*
X10935928Y-15698157D01*
X10950214Y-15669586D01*
X10964500Y-15655300D01*
X10993071Y-15641014D01*
X11221643Y-15941014D02*
X11221643Y-15741014D01*
X11221643Y-15769586D02*
X11235928Y-15755300D01*
X11264500Y-15741014D01*
X11307357Y-15741014D01*
X11335928Y-15755300D01*
X11350214Y-15783871D01*
X11350214Y-15941014D01*
X11350214Y-15783871D02*
X11364500Y-15755300D01*
X11393071Y-15741014D01*
X11435928Y-15741014D01*
X11464500Y-15755300D01*
X11478786Y-15783871D01*
X11478786Y-15941014D01*
X11621643Y-15941014D02*
X11621643Y-15741014D01*
X11621643Y-15769586D02*
X11635928Y-15755300D01*
X11664500Y-15741014D01*
X11707357Y-15741014D01*
X11735928Y-15755300D01*
X11750214Y-15783871D01*
X11750214Y-15941014D01*
X11750214Y-15783871D02*
X11764500Y-15755300D01*
X11793071Y-15741014D01*
X11835928Y-15741014D01*
X11864500Y-15755300D01*
X11878786Y-15783871D01*
X11878786Y-15941014D01*
X12464500Y-15626729D02*
X12207357Y-16012443D01*
X12850214Y-15641014D02*
X12878786Y-15641014D01*
X12907357Y-15655300D01*
X12921643Y-15669586D01*
X12935928Y-15698157D01*
X12950214Y-15755300D01*
X12950214Y-15826729D01*
X12935928Y-15883871D01*
X12921643Y-15912443D01*
X12907357Y-15926729D01*
X12878786Y-15941014D01*
X12850214Y-15941014D01*
X12821643Y-15926729D01*
X12807357Y-15912443D01*
X12793071Y-15883871D01*
X12778786Y-15826729D01*
X12778786Y-15755300D01*
X12793071Y-15698157D01*
X12807357Y-15669586D01*
X12821643Y-15655300D01*
X12850214Y-15641014D01*
X13078786Y-15912443D02*
X13093071Y-15926729D01*
X13078786Y-15941014D01*
X13064500Y-15926729D01*
X13078786Y-15912443D01*
X13078786Y-15941014D01*
X13278786Y-15641014D02*
X13307357Y-15641014D01*
X13335928Y-15655300D01*
X13350214Y-15669586D01*
X13364500Y-15698157D01*
X13378786Y-15755300D01*
X13378786Y-15826729D01*
X13364500Y-15883871D01*
X13350214Y-15912443D01*
X13335928Y-15926729D01*
X13307357Y-15941014D01*
X13278786Y-15941014D01*
X13250214Y-15926729D01*
X13235928Y-15912443D01*
X13221643Y-15883871D01*
X13207357Y-15826729D01*
X13207357Y-15755300D01*
X13221643Y-15698157D01*
X13235928Y-15669586D01*
X13250214Y-15655300D01*
X13278786Y-15641014D01*
X13478786Y-15641014D02*
X13664500Y-15641014D01*
X13564500Y-15755300D01*
X13607357Y-15755300D01*
X13635928Y-15769586D01*
X13650214Y-15783871D01*
X13664500Y-15812443D01*
X13664500Y-15883871D01*
X13650214Y-15912443D01*
X13635928Y-15926729D01*
X13607357Y-15941014D01*
X13521643Y-15941014D01*
X13493071Y-15926729D01*
X13478786Y-15912443D01*
X13807357Y-15941014D02*
X13864500Y-15941014D01*
X13893071Y-15926729D01*
X13907357Y-15912443D01*
X13935928Y-15869586D01*
X13950214Y-15812443D01*
X13950214Y-15698157D01*
X13935928Y-15669586D01*
X13921643Y-15655300D01*
X13893071Y-15641014D01*
X13835928Y-15641014D01*
X13807357Y-15655300D01*
X13793071Y-15669586D01*
X13778786Y-15698157D01*
X13778786Y-15769586D01*
X13793071Y-15798157D01*
X13807357Y-15812443D01*
X13835928Y-15826729D01*
X13893071Y-15826729D01*
X13921643Y-15812443D01*
X13935928Y-15798157D01*
X13950214Y-15769586D01*
X14207357Y-15741014D02*
X14207357Y-15941014D01*
X14135928Y-15626729D02*
X14064500Y-15841014D01*
X14250214Y-15841014D01*
X14350214Y-15641014D02*
X14350214Y-15698157D01*
X14464500Y-15641014D02*
X14464500Y-15698157D01*
X14907357Y-16055300D02*
X14893071Y-16041014D01*
X14864500Y-15998157D01*
X14850214Y-15969586D01*
X14835928Y-15926729D01*
X14821643Y-15855300D01*
X14821643Y-15798157D01*
X14835928Y-15726729D01*
X14850214Y-15683871D01*
X14864500Y-15655300D01*
X14893071Y-15612443D01*
X14907357Y-15598157D01*
X15178786Y-15941014D02*
X15007357Y-15941014D01*
X15093071Y-15941014D02*
X15093071Y-15641014D01*
X15064500Y-15683871D01*
X15035928Y-15712443D01*
X15007357Y-15726729D01*
X15278786Y-15641014D02*
X15464500Y-15641014D01*
X15364500Y-15755300D01*
X15407357Y-15755300D01*
X15435928Y-15769586D01*
X15450214Y-15783871D01*
X15464500Y-15812443D01*
X15464500Y-15883871D01*
X15450214Y-15912443D01*
X15435928Y-15926729D01*
X15407357Y-15941014D01*
X15321643Y-15941014D01*
X15293071Y-15926729D01*
X15278786Y-15912443D01*
X15821643Y-15941014D02*
X15821643Y-15641014D01*
X15950214Y-15941014D02*
X15950214Y-15783871D01*
X15935928Y-15755300D01*
X15907357Y-15741014D01*
X15864500Y-15741014D01*
X15835928Y-15755300D01*
X15821643Y-15769586D01*
X16135928Y-15941014D02*
X16107357Y-15926729D01*
X16093071Y-15912443D01*
X16078786Y-15883871D01*
X16078786Y-15798157D01*
X16093071Y-15769586D01*
X16107357Y-15755300D01*
X16135928Y-15741014D01*
X16178786Y-15741014D01*
X16207357Y-15755300D01*
X16221643Y-15769586D01*
X16235928Y-15798157D01*
X16235928Y-15883871D01*
X16221643Y-15912443D01*
X16207357Y-15926729D01*
X16178786Y-15941014D01*
X16135928Y-15941014D01*
X16407357Y-15941014D02*
X16378786Y-15926729D01*
X16364500Y-15898157D01*
X16364500Y-15641014D01*
X16635928Y-15926729D02*
X16607357Y-15941014D01*
X16550214Y-15941014D01*
X16521643Y-15926729D01*
X16507357Y-15898157D01*
X16507357Y-15783871D01*
X16521643Y-15755300D01*
X16550214Y-15741014D01*
X16607357Y-15741014D01*
X16635928Y-15755300D01*
X16650214Y-15783871D01*
X16650214Y-15812443D01*
X16507357Y-15841014D01*
X16764500Y-15926729D02*
X16793071Y-15941014D01*
X16850214Y-15941014D01*
X16878786Y-15926729D01*
X16893071Y-15898157D01*
X16893071Y-15883871D01*
X16878786Y-15855300D01*
X16850214Y-15841014D01*
X16807357Y-15841014D01*
X16778786Y-15826729D01*
X16764500Y-15798157D01*
X16764500Y-15783871D01*
X16778786Y-15755300D01*
X16807357Y-15741014D01*
X16850214Y-15741014D01*
X16878786Y-15755300D01*
X16993071Y-16055300D02*
X17007357Y-16041014D01*
X17035928Y-15998157D01*
X17050214Y-15969586D01*
X17064500Y-15926729D01*
X17078786Y-15855300D01*
X17078786Y-15798157D01*
X17064500Y-15726729D01*
X17050214Y-15683871D01*
X17035928Y-15655300D01*
X17007357Y-15612443D01*
X16993071Y-15598157D01*
X9529500Y-16141300D02*
X9649500Y-16261300D01*
X9649500Y-16141300D02*
X9529500Y-16261300D01*
X9649500Y-16201300D02*
G75*
G03*
X9649500Y-16201300I-60000J0D01*
G01*
X10093071Y-16337014D02*
X9921643Y-16337014D01*
X10007357Y-16337014D02*
X10007357Y-16037014D01*
X9978786Y-16079871D01*
X9950214Y-16108443D01*
X9921643Y-16122729D01*
X10221643Y-16308443D02*
X10235928Y-16322729D01*
X10221643Y-16337014D01*
X10207357Y-16322729D01*
X10221643Y-16308443D01*
X10221643Y-16337014D01*
X10350214Y-16065586D02*
X10364500Y-16051300D01*
X10393071Y-16037014D01*
X10464500Y-16037014D01*
X10493071Y-16051300D01*
X10507357Y-16065586D01*
X10521643Y-16094157D01*
X10521643Y-16122729D01*
X10507357Y-16165586D01*
X10335928Y-16337014D01*
X10521643Y-16337014D01*
X10707357Y-16037014D02*
X10735928Y-16037014D01*
X10764500Y-16051300D01*
X10778786Y-16065586D01*
X10793071Y-16094157D01*
X10807357Y-16151300D01*
X10807357Y-16222729D01*
X10793071Y-16279871D01*
X10778786Y-16308443D01*
X10764500Y-16322729D01*
X10735928Y-16337014D01*
X10707357Y-16337014D01*
X10678786Y-16322729D01*
X10664500Y-16308443D01*
X10650214Y-16279871D01*
X10635928Y-16222729D01*
X10635928Y-16151300D01*
X10650214Y-16094157D01*
X10664500Y-16065586D01*
X10678786Y-16051300D01*
X10707357Y-16037014D01*
X10993071Y-16037014D02*
X11021643Y-16037014D01*
X11050214Y-16051300D01*
X11064500Y-16065586D01*
X11078786Y-16094157D01*
X11093071Y-16151300D01*
X11093071Y-16222729D01*
X11078786Y-16279871D01*
X11064500Y-16308443D01*
X11050214Y-16322729D01*
X11021643Y-16337014D01*
X10993071Y-16337014D01*
X10964500Y-16322729D01*
X10950214Y-16308443D01*
X10935928Y-16279871D01*
X10921643Y-16222729D01*
X10921643Y-16151300D01*
X10935928Y-16094157D01*
X10950214Y-16065586D01*
X10964500Y-16051300D01*
X10993071Y-16037014D01*
X11221643Y-16337014D02*
X11221643Y-16137014D01*
X11221643Y-16165586D02*
X11235928Y-16151300D01*
X11264500Y-16137014D01*
X11307357Y-16137014D01*
X11335928Y-16151300D01*
X11350214Y-16179871D01*
X11350214Y-16337014D01*
X11350214Y-16179871D02*
X11364500Y-16151300D01*
X11393071Y-16137014D01*
X11435928Y-16137014D01*
X11464500Y-16151300D01*
X11478786Y-16179871D01*
X11478786Y-16337014D01*
X11621643Y-16337014D02*
X11621643Y-16137014D01*
X11621643Y-16165586D02*
X11635928Y-16151300D01*
X11664500Y-16137014D01*
X11707357Y-16137014D01*
X11735928Y-16151300D01*
X11750214Y-16179871D01*
X11750214Y-16337014D01*
X11750214Y-16179871D02*
X11764500Y-16151300D01*
X11793071Y-16137014D01*
X11835928Y-16137014D01*
X11864500Y-16151300D01*
X11878786Y-16179871D01*
X11878786Y-16337014D01*
X12464500Y-16022729D02*
X12207357Y-16408443D01*
X12850214Y-16037014D02*
X12878786Y-16037014D01*
X12907357Y-16051300D01*
X12921643Y-16065586D01*
X12935928Y-16094157D01*
X12950214Y-16151300D01*
X12950214Y-16222729D01*
X12935928Y-16279871D01*
X12921643Y-16308443D01*
X12907357Y-16322729D01*
X12878786Y-16337014D01*
X12850214Y-16337014D01*
X12821643Y-16322729D01*
X12807357Y-16308443D01*
X12793071Y-16279871D01*
X12778786Y-16222729D01*
X12778786Y-16151300D01*
X12793071Y-16094157D01*
X12807357Y-16065586D01*
X12821643Y-16051300D01*
X12850214Y-16037014D01*
X13078786Y-16308443D02*
X13093071Y-16322729D01*
X13078786Y-16337014D01*
X13064500Y-16322729D01*
X13078786Y-16308443D01*
X13078786Y-16337014D01*
X13278786Y-16037014D02*
X13307357Y-16037014D01*
X13335928Y-16051300D01*
X13350214Y-16065586D01*
X13364500Y-16094157D01*
X13378786Y-16151300D01*
X13378786Y-16222729D01*
X13364500Y-16279871D01*
X13350214Y-16308443D01*
X13335928Y-16322729D01*
X13307357Y-16337014D01*
X13278786Y-16337014D01*
X13250214Y-16322729D01*
X13235928Y-16308443D01*
X13221643Y-16279871D01*
X13207357Y-16222729D01*
X13207357Y-16151300D01*
X13221643Y-16094157D01*
X13235928Y-16065586D01*
X13250214Y-16051300D01*
X13278786Y-16037014D01*
X13635928Y-16137014D02*
X13635928Y-16337014D01*
X13564500Y-16022729D02*
X13493071Y-16237014D01*
X13678786Y-16237014D01*
X13764500Y-16037014D02*
X13964500Y-16037014D01*
X13835928Y-16337014D01*
X14064500Y-16065586D02*
X14078786Y-16051300D01*
X14107357Y-16037014D01*
X14178786Y-16037014D01*
X14207357Y-16051300D01*
X14221643Y-16065586D01*
X14235928Y-16094157D01*
X14235928Y-16122729D01*
X14221643Y-16165586D01*
X14050214Y-16337014D01*
X14235928Y-16337014D01*
X14350214Y-16037014D02*
X14350214Y-16094157D01*
X14464500Y-16037014D02*
X14464500Y-16094157D01*
X14907357Y-16451300D02*
X14893071Y-16437014D01*
X14864500Y-16394157D01*
X14850214Y-16365586D01*
X14835928Y-16322729D01*
X14821643Y-16251300D01*
X14821643Y-16194157D01*
X14835928Y-16122729D01*
X14850214Y-16079871D01*
X14864500Y-16051300D01*
X14893071Y-16008443D01*
X14907357Y-15994157D01*
X15178786Y-16337014D02*
X15007357Y-16337014D01*
X15093071Y-16337014D02*
X15093071Y-16037014D01*
X15064500Y-16079871D01*
X15035928Y-16108443D01*
X15007357Y-16122729D01*
X15435928Y-16037014D02*
X15378786Y-16037014D01*
X15350214Y-16051300D01*
X15335928Y-16065586D01*
X15307357Y-16108443D01*
X15293071Y-16165586D01*
X15293071Y-16279871D01*
X15307357Y-16308443D01*
X15321643Y-16322729D01*
X15350214Y-16337014D01*
X15407357Y-16337014D01*
X15435928Y-16322729D01*
X15450214Y-16308443D01*
X15464500Y-16279871D01*
X15464500Y-16208443D01*
X15450214Y-16179871D01*
X15435928Y-16165586D01*
X15407357Y-16151300D01*
X15350214Y-16151300D01*
X15321643Y-16165586D01*
X15307357Y-16179871D01*
X15293071Y-16208443D01*
X15821643Y-16337014D02*
X15821643Y-16037014D01*
X15950214Y-16337014D02*
X15950214Y-16179871D01*
X15935928Y-16151300D01*
X15907357Y-16137014D01*
X15864500Y-16137014D01*
X15835928Y-16151300D01*
X15821643Y-16165586D01*
X16135928Y-16337014D02*
X16107357Y-16322729D01*
X16093071Y-16308443D01*
X16078786Y-16279871D01*
X16078786Y-16194157D01*
X16093071Y-16165586D01*
X16107357Y-16151300D01*
X16135928Y-16137014D01*
X16178786Y-16137014D01*
X16207357Y-16151300D01*
X16221643Y-16165586D01*
X16235928Y-16194157D01*
X16235928Y-16279871D01*
X16221643Y-16308443D01*
X16207357Y-16322729D01*
X16178786Y-16337014D01*
X16135928Y-16337014D01*
X16407357Y-16337014D02*
X16378786Y-16322729D01*
X16364500Y-16294157D01*
X16364500Y-16037014D01*
X16635928Y-16322729D02*
X16607357Y-16337014D01*
X16550214Y-16337014D01*
X16521643Y-16322729D01*
X16507357Y-16294157D01*
X16507357Y-16179871D01*
X16521643Y-16151300D01*
X16550214Y-16137014D01*
X16607357Y-16137014D01*
X16635928Y-16151300D01*
X16650214Y-16179871D01*
X16650214Y-16208443D01*
X16507357Y-16237014D01*
X16764500Y-16322729D02*
X16793071Y-16337014D01*
X16850214Y-16337014D01*
X16878786Y-16322729D01*
X16893071Y-16294157D01*
X16893071Y-16279871D01*
X16878786Y-16251300D01*
X16850214Y-16237014D01*
X16807357Y-16237014D01*
X16778786Y-16222729D01*
X16764500Y-16194157D01*
X16764500Y-16179871D01*
X16778786Y-16151300D01*
X16807357Y-16137014D01*
X16850214Y-16137014D01*
X16878786Y-16151300D01*
X16993071Y-16451300D02*
X17007357Y-16437014D01*
X17035928Y-16394157D01*
X17050214Y-16365586D01*
X17064500Y-16322729D01*
X17078786Y-16251300D01*
X17078786Y-16194157D01*
X17064500Y-16122729D01*
X17050214Y-16079871D01*
X17035928Y-16051300D01*
X17007357Y-16008443D01*
X16993071Y-15994157D01*
X9399500Y-16472300D02*
X9649500Y-16722300D01*
X9649500Y-16472300D02*
X9399500Y-16722300D01*
X9524500Y-16472300D02*
X9524500Y-16722300D01*
X9399500Y-16597300D02*
X9649500Y-16597300D01*
X9921643Y-16461586D02*
X9935928Y-16447300D01*
X9964500Y-16433014D01*
X10035928Y-16433014D01*
X10064500Y-16447300D01*
X10078786Y-16461586D01*
X10093071Y-16490157D01*
X10093071Y-16518729D01*
X10078786Y-16561586D01*
X9907357Y-16733014D01*
X10093071Y-16733014D01*
X10221643Y-16704443D02*
X10235928Y-16718729D01*
X10221643Y-16733014D01*
X10207357Y-16718729D01*
X10221643Y-16704443D01*
X10221643Y-16733014D01*
X10507357Y-16433014D02*
X10364500Y-16433014D01*
X10350214Y-16575871D01*
X10364500Y-16561586D01*
X10393071Y-16547300D01*
X10464500Y-16547300D01*
X10493071Y-16561586D01*
X10507357Y-16575871D01*
X10521643Y-16604443D01*
X10521643Y-16675871D01*
X10507357Y-16704443D01*
X10493071Y-16718729D01*
X10464500Y-16733014D01*
X10393071Y-16733014D01*
X10364500Y-16718729D01*
X10350214Y-16704443D01*
X10707357Y-16433014D02*
X10735928Y-16433014D01*
X10764500Y-16447300D01*
X10778786Y-16461586D01*
X10793071Y-16490157D01*
X10807357Y-16547300D01*
X10807357Y-16618729D01*
X10793071Y-16675871D01*
X10778786Y-16704443D01*
X10764500Y-16718729D01*
X10735928Y-16733014D01*
X10707357Y-16733014D01*
X10678786Y-16718729D01*
X10664500Y-16704443D01*
X10650214Y-16675871D01*
X10635928Y-16618729D01*
X10635928Y-16547300D01*
X10650214Y-16490157D01*
X10664500Y-16461586D01*
X10678786Y-16447300D01*
X10707357Y-16433014D01*
X10993071Y-16433014D02*
X11021643Y-16433014D01*
X11050214Y-16447300D01*
X11064500Y-16461586D01*
X11078786Y-16490157D01*
X11093071Y-16547300D01*
X11093071Y-16618729D01*
X11078786Y-16675871D01*
X11064500Y-16704443D01*
X11050214Y-16718729D01*
X11021643Y-16733014D01*
X10993071Y-16733014D01*
X10964500Y-16718729D01*
X10950214Y-16704443D01*
X10935928Y-16675871D01*
X10921643Y-16618729D01*
X10921643Y-16547300D01*
X10935928Y-16490157D01*
X10950214Y-16461586D01*
X10964500Y-16447300D01*
X10993071Y-16433014D01*
X11221643Y-16733014D02*
X11221643Y-16533014D01*
X11221643Y-16561586D02*
X11235928Y-16547300D01*
X11264500Y-16533014D01*
X11307357Y-16533014D01*
X11335928Y-16547300D01*
X11350214Y-16575871D01*
X11350214Y-16733014D01*
X11350214Y-16575871D02*
X11364500Y-16547300D01*
X11393071Y-16533014D01*
X11435928Y-16533014D01*
X11464500Y-16547300D01*
X11478786Y-16575871D01*
X11478786Y-16733014D01*
X11621643Y-16733014D02*
X11621643Y-16533014D01*
X11621643Y-16561586D02*
X11635928Y-16547300D01*
X11664500Y-16533014D01*
X11707357Y-16533014D01*
X11735928Y-16547300D01*
X11750214Y-16575871D01*
X11750214Y-16733014D01*
X11750214Y-16575871D02*
X11764500Y-16547300D01*
X11793071Y-16533014D01*
X11835928Y-16533014D01*
X11864500Y-16547300D01*
X11878786Y-16575871D01*
X11878786Y-16733014D01*
X12464500Y-16418729D02*
X12207357Y-16804443D01*
X12850214Y-16433014D02*
X12878786Y-16433014D01*
X12907357Y-16447300D01*
X12921643Y-16461586D01*
X12935928Y-16490157D01*
X12950214Y-16547300D01*
X12950214Y-16618729D01*
X12935928Y-16675871D01*
X12921643Y-16704443D01*
X12907357Y-16718729D01*
X12878786Y-16733014D01*
X12850214Y-16733014D01*
X12821643Y-16718729D01*
X12807357Y-16704443D01*
X12793071Y-16675871D01*
X12778786Y-16618729D01*
X12778786Y-16547300D01*
X12793071Y-16490157D01*
X12807357Y-16461586D01*
X12821643Y-16447300D01*
X12850214Y-16433014D01*
X13078786Y-16704443D02*
X13093071Y-16718729D01*
X13078786Y-16733014D01*
X13064500Y-16718729D01*
X13078786Y-16704443D01*
X13078786Y-16733014D01*
X13278786Y-16433014D02*
X13307357Y-16433014D01*
X13335928Y-16447300D01*
X13350214Y-16461586D01*
X13364500Y-16490157D01*
X13378786Y-16547300D01*
X13378786Y-16618729D01*
X13364500Y-16675871D01*
X13350214Y-16704443D01*
X13335928Y-16718729D01*
X13307357Y-16733014D01*
X13278786Y-16733014D01*
X13250214Y-16718729D01*
X13235928Y-16704443D01*
X13221643Y-16675871D01*
X13207357Y-16618729D01*
X13207357Y-16547300D01*
X13221643Y-16490157D01*
X13235928Y-16461586D01*
X13250214Y-16447300D01*
X13278786Y-16433014D01*
X13521643Y-16733014D02*
X13578786Y-16733014D01*
X13607357Y-16718729D01*
X13621643Y-16704443D01*
X13650214Y-16661586D01*
X13664500Y-16604443D01*
X13664500Y-16490157D01*
X13650214Y-16461586D01*
X13635928Y-16447300D01*
X13607357Y-16433014D01*
X13550214Y-16433014D01*
X13521643Y-16447300D01*
X13507357Y-16461586D01*
X13493071Y-16490157D01*
X13493071Y-16561586D01*
X13507357Y-16590157D01*
X13521643Y-16604443D01*
X13550214Y-16618729D01*
X13607357Y-16618729D01*
X13635928Y-16604443D01*
X13650214Y-16590157D01*
X13664500Y-16561586D01*
X13835928Y-16561586D02*
X13807357Y-16547300D01*
X13793071Y-16533014D01*
X13778786Y-16504443D01*
X13778786Y-16490157D01*
X13793071Y-16461586D01*
X13807357Y-16447300D01*
X13835928Y-16433014D01*
X13893071Y-16433014D01*
X13921643Y-16447300D01*
X13935928Y-16461586D01*
X13950214Y-16490157D01*
X13950214Y-16504443D01*
X13935928Y-16533014D01*
X13921643Y-16547300D01*
X13893071Y-16561586D01*
X13835928Y-16561586D01*
X13807357Y-16575871D01*
X13793071Y-16590157D01*
X13778786Y-16618729D01*
X13778786Y-16675871D01*
X13793071Y-16704443D01*
X13807357Y-16718729D01*
X13835928Y-16733014D01*
X13893071Y-16733014D01*
X13921643Y-16718729D01*
X13935928Y-16704443D01*
X13950214Y-16675871D01*
X13950214Y-16618729D01*
X13935928Y-16590157D01*
X13921643Y-16575871D01*
X13893071Y-16561586D01*
X14207357Y-16533014D02*
X14207357Y-16733014D01*
X14135928Y-16418729D02*
X14064500Y-16633014D01*
X14250214Y-16633014D01*
X14350214Y-16433014D02*
X14350214Y-16490157D01*
X14464500Y-16433014D02*
X14464500Y-16490157D01*
X14907357Y-16847300D02*
X14893071Y-16833014D01*
X14864500Y-16790157D01*
X14850214Y-16761586D01*
X14835928Y-16718729D01*
X14821643Y-16647300D01*
X14821643Y-16590157D01*
X14835928Y-16518729D01*
X14850214Y-16475871D01*
X14864500Y-16447300D01*
X14893071Y-16404443D01*
X14907357Y-16390157D01*
X15150214Y-16533014D02*
X15150214Y-16733014D01*
X15078786Y-16418729D02*
X15007357Y-16633014D01*
X15193071Y-16633014D01*
X15535928Y-16733014D02*
X15535928Y-16433014D01*
X15664500Y-16733014D02*
X15664500Y-16575871D01*
X15650214Y-16547300D01*
X15621643Y-16533014D01*
X15578786Y-16533014D01*
X15550214Y-16547300D01*
X15535928Y-16561586D01*
X15850214Y-16733014D02*
X15821643Y-16718729D01*
X15807357Y-16704443D01*
X15793071Y-16675871D01*
X15793071Y-16590157D01*
X15807357Y-16561586D01*
X15821643Y-16547300D01*
X15850214Y-16533014D01*
X15893071Y-16533014D01*
X15921643Y-16547300D01*
X15935928Y-16561586D01*
X15950214Y-16590157D01*
X15950214Y-16675871D01*
X15935928Y-16704443D01*
X15921643Y-16718729D01*
X15893071Y-16733014D01*
X15850214Y-16733014D01*
X16121643Y-16733014D02*
X16093071Y-16718729D01*
X16078786Y-16690157D01*
X16078786Y-16433014D01*
X16350214Y-16718729D02*
X16321643Y-16733014D01*
X16264500Y-16733014D01*
X16235928Y-16718729D01*
X16221643Y-16690157D01*
X16221643Y-16575871D01*
X16235928Y-16547300D01*
X16264500Y-16533014D01*
X16321643Y-16533014D01*
X16350214Y-16547300D01*
X16364500Y-16575871D01*
X16364500Y-16604443D01*
X16221643Y-16633014D01*
X16478786Y-16718729D02*
X16507357Y-16733014D01*
X16564500Y-16733014D01*
X16593071Y-16718729D01*
X16607357Y-16690157D01*
X16607357Y-16675871D01*
X16593071Y-16647300D01*
X16564500Y-16633014D01*
X16521643Y-16633014D01*
X16493071Y-16618729D01*
X16478786Y-16590157D01*
X16478786Y-16575871D01*
X16493071Y-16547300D01*
X16521643Y-16533014D01*
X16564500Y-16533014D01*
X16593071Y-16547300D01*
X16707357Y-16847300D02*
X16721643Y-16833014D01*
X16750214Y-16790157D01*
X16764500Y-16761586D01*
X16778786Y-16718729D01*
X16793071Y-16647300D01*
X16793071Y-16590157D01*
X16778786Y-16518729D01*
X16764500Y-16475871D01*
X16750214Y-16447300D01*
X16721643Y-16404443D01*
X16707357Y-16390157D01*
M02*
