%FSLAX45Y45*%
G04 Gerber Fmt 4.5, Leading zero omitted, Abs format (unit mm)*
G04 Created by KiCad (PCBNEW (5.1.10-1-10_14)) date 2021-10-29 14:21:57*
%MOMM*%
%LPD*%
G01*
G04 APERTURE LIST*
%TA.AperFunction,Profile*%
%ADD10C,0.050000*%
%TD*%
%ADD11C,0.200000*%
%ADD12C,0.300000*%
G04 APERTURE END LIST*
D10*
X16459200Y-9550400D02*
X17780000Y-9550400D01*
X15951200Y-8890000D02*
X16459200Y-9550400D01*
X17780000Y-13258800D02*
X9652000Y-13258800D01*
X17780000Y-9550400D02*
X17780000Y-13258800D01*
X9652000Y-8890000D02*
X15951200Y-8890000D01*
X9652000Y-13258800D02*
X9652000Y-8890000D01*
D11*
D12*
X9935928Y-13727014D02*
X9935928Y-13427014D01*
X10007357Y-13427014D01*
X10050214Y-13441300D01*
X10078786Y-13469871D01*
X10093071Y-13498443D01*
X10107357Y-13555586D01*
X10107357Y-13598443D01*
X10093071Y-13655586D01*
X10078786Y-13684157D01*
X10050214Y-13712729D01*
X10007357Y-13727014D01*
X9935928Y-13727014D01*
X10235928Y-13727014D02*
X10235928Y-13527014D01*
X10235928Y-13584157D02*
X10250214Y-13555586D01*
X10264500Y-13541300D01*
X10293071Y-13527014D01*
X10321643Y-13527014D01*
X10421643Y-13727014D02*
X10421643Y-13527014D01*
X10421643Y-13427014D02*
X10407357Y-13441300D01*
X10421643Y-13455586D01*
X10435928Y-13441300D01*
X10421643Y-13427014D01*
X10421643Y-13455586D01*
X10607357Y-13727014D02*
X10578786Y-13712729D01*
X10564500Y-13684157D01*
X10564500Y-13427014D01*
X10764500Y-13727014D02*
X10735928Y-13712729D01*
X10721643Y-13684157D01*
X10721643Y-13427014D01*
X11107357Y-13727014D02*
X11107357Y-13427014D01*
X11207357Y-13641300D01*
X11307357Y-13427014D01*
X11307357Y-13727014D01*
X11578786Y-13727014D02*
X11578786Y-13569871D01*
X11564500Y-13541300D01*
X11535928Y-13527014D01*
X11478786Y-13527014D01*
X11450214Y-13541300D01*
X11578786Y-13712729D02*
X11550214Y-13727014D01*
X11478786Y-13727014D01*
X11450214Y-13712729D01*
X11435928Y-13684157D01*
X11435928Y-13655586D01*
X11450214Y-13627014D01*
X11478786Y-13612729D01*
X11550214Y-13612729D01*
X11578786Y-13598443D01*
X11721643Y-13527014D02*
X11721643Y-13827014D01*
X11721643Y-13541300D02*
X11750214Y-13527014D01*
X11807357Y-13527014D01*
X11835928Y-13541300D01*
X11850214Y-13555586D01*
X11864500Y-13584157D01*
X11864500Y-13669871D01*
X11850214Y-13698443D01*
X11835928Y-13712729D01*
X11807357Y-13727014D01*
X11750214Y-13727014D01*
X11721643Y-13712729D01*
X11993071Y-13698443D02*
X12007357Y-13712729D01*
X11993071Y-13727014D01*
X11978786Y-13712729D01*
X11993071Y-13698443D01*
X11993071Y-13727014D01*
X11993071Y-13541300D02*
X12007357Y-13555586D01*
X11993071Y-13569871D01*
X11978786Y-13555586D01*
X11993071Y-13541300D01*
X11993071Y-13569871D01*
M02*
