G04 #@! TF.GenerationSoftware,KiCad,Pcbnew,(5.1.10-1-10_14)*
G04 #@! TF.CreationDate,2021-11-19T10:18:53+01:00*
G04 #@! TF.ProjectId,lcd,6c63642e-6b69-4636-9164-5f7063625858,rev?*
G04 #@! TF.SameCoordinates,Original*
G04 #@! TF.FileFunction,Copper,L2,Bot*
G04 #@! TF.FilePolarity,Positive*
%FSLAX46Y46*%
G04 Gerber Fmt 4.6, Leading zero omitted, Abs format (unit mm)*
G04 Created by KiCad (PCBNEW (5.1.10-1-10_14)) date 2021-11-19 10:18:53*
%MOMM*%
%LPD*%
G01*
G04 APERTURE LIST*
G04 #@! TA.AperFunction,ComponentPad*
%ADD10R,1.200000X1.200000*%
G04 #@! TD*
G04 #@! TA.AperFunction,ComponentPad*
%ADD11C,1.200000*%
G04 #@! TD*
G04 #@! TA.AperFunction,ComponentPad*
%ADD12C,1.303000*%
G04 #@! TD*
G04 #@! TA.AperFunction,ComponentPad*
%ADD13O,1.700000X1.700000*%
G04 #@! TD*
G04 #@! TA.AperFunction,ComponentPad*
%ADD14R,1.700000X1.700000*%
G04 #@! TD*
G04 #@! TA.AperFunction,ComponentPad*
%ADD15C,3.000000*%
G04 #@! TD*
G04 #@! TA.AperFunction,ComponentPad*
%ADD16O,1.800000X2.600000*%
G04 #@! TD*
G04 #@! TA.AperFunction,ComponentPad*
%ADD17R,1.800000X2.600000*%
G04 #@! TD*
G04 #@! TA.AperFunction,ComponentPad*
%ADD18C,1.600000*%
G04 #@! TD*
G04 #@! TA.AperFunction,ViaPad*
%ADD19C,0.800000*%
G04 #@! TD*
G04 #@! TA.AperFunction,Conductor*
%ADD20C,0.254000*%
G04 #@! TD*
G04 #@! TA.AperFunction,Conductor*
%ADD21C,0.100000*%
G04 #@! TD*
G04 APERTURE END LIST*
D10*
X112776000Y-92456000D03*
D11*
X110776000Y-92456000D03*
D12*
X156464000Y-89916000D03*
X153924000Y-89916000D03*
X151384000Y-89916000D03*
D13*
X147320000Y-91440000D03*
X144780000Y-91440000D03*
X142240000Y-91440000D03*
X139700000Y-91440000D03*
X137160000Y-91440000D03*
X134620000Y-91440000D03*
X132080000Y-91440000D03*
X129540000Y-91440000D03*
X127000000Y-91440000D03*
X124460000Y-91440000D03*
X121920000Y-91440000D03*
X119380000Y-91440000D03*
D14*
X116840000Y-91440000D03*
D15*
X174601000Y-98461000D03*
X174600480Y-129461700D03*
X99601900Y-129461700D03*
X99601900Y-98461000D03*
D16*
X143201000Y-98461000D03*
X140661000Y-98461000D03*
X138121000Y-98461000D03*
X135581000Y-98461000D03*
X133041000Y-98461000D03*
X130501000Y-98461000D03*
X127961000Y-98461000D03*
X125421000Y-98461000D03*
X122881000Y-98461000D03*
X120341000Y-98461000D03*
X117801000Y-98461000D03*
X115261000Y-98461000D03*
X112721000Y-98461000D03*
X110181000Y-98461000D03*
X107641000Y-98461000D03*
D17*
X105101000Y-98461000D03*
D18*
X105196000Y-92456000D03*
X107696000Y-92456000D03*
D19*
X175260000Y-101600000D03*
X175260000Y-114300000D03*
X175260000Y-124460000D03*
X165100000Y-129540000D03*
X147320000Y-129540000D03*
X132080000Y-129540000D03*
X119380000Y-129540000D03*
X104140000Y-129540000D03*
X99060000Y-124460000D03*
X99060000Y-111760000D03*
X99060000Y-101600000D03*
X99060000Y-91440000D03*
X160020000Y-93980000D03*
X154940000Y-93980000D03*
X106680000Y-101600000D03*
X119380000Y-101600000D03*
X137160000Y-101600000D03*
X152400000Y-101600000D03*
X170180000Y-101600000D03*
X165100000Y-114300000D03*
X144780000Y-114300000D03*
X132080000Y-114300000D03*
X114300000Y-114300000D03*
X114808000Y-94996000D03*
X113538000Y-89662000D03*
X102362000Y-92456000D03*
X102616000Y-96266000D03*
X109728000Y-95758000D03*
X145288000Y-94488000D03*
X150876000Y-91948000D03*
X117856000Y-94488000D03*
X120142000Y-94742000D03*
X122936000Y-94742000D03*
X125476000Y-94742000D03*
X129540000Y-94488000D03*
X133096000Y-94488000D03*
X135382000Y-94742000D03*
X139192000Y-94742000D03*
D20*
X150097500Y-89789291D02*
X150097500Y-90042709D01*
X150146939Y-90291258D01*
X150243918Y-90525386D01*
X150384710Y-90736096D01*
X150563904Y-90915290D01*
X150774614Y-91056082D01*
X151008742Y-91153061D01*
X151257291Y-91202500D01*
X151510709Y-91202500D01*
X151759258Y-91153061D01*
X151993386Y-91056082D01*
X152204096Y-90915290D01*
X152383290Y-90736096D01*
X152524082Y-90525386D01*
X152621061Y-90291258D01*
X152654000Y-90125661D01*
X152686939Y-90291258D01*
X152783918Y-90525386D01*
X152924710Y-90736096D01*
X153103904Y-90915290D01*
X153314614Y-91056082D01*
X153548742Y-91153061D01*
X153797291Y-91202500D01*
X154050709Y-91202500D01*
X154299258Y-91153061D01*
X154533386Y-91056082D01*
X154744096Y-90915290D01*
X154856787Y-90802599D01*
X155757006Y-90802599D01*
X155810576Y-91031426D01*
X156040740Y-91137470D01*
X156287170Y-91196574D01*
X156540396Y-91206466D01*
X156790685Y-91166765D01*
X157028420Y-91078999D01*
X157117424Y-91031426D01*
X157170994Y-90802599D01*
X156464000Y-90095605D01*
X155757006Y-90802599D01*
X154856787Y-90802599D01*
X154923290Y-90736096D01*
X155064082Y-90525386D01*
X155161061Y-90291258D01*
X155194374Y-90123780D01*
X155213235Y-90242685D01*
X155301001Y-90480420D01*
X155348574Y-90569424D01*
X155577401Y-90622994D01*
X156284395Y-89916000D01*
X156270253Y-89901858D01*
X156449858Y-89722253D01*
X156464000Y-89736395D01*
X156478143Y-89722253D01*
X156657748Y-89901858D01*
X156643605Y-89916000D01*
X157350599Y-90622994D01*
X157579426Y-90569424D01*
X157685470Y-90339260D01*
X157744574Y-90092830D01*
X157754466Y-89839604D01*
X157714765Y-89589315D01*
X157703943Y-89560000D01*
X159187015Y-89560000D01*
X164035631Y-95863200D01*
X164040575Y-95872450D01*
X164075208Y-95914650D01*
X164088634Y-95932104D01*
X164095770Y-95939705D01*
X164123052Y-95972948D01*
X164140165Y-95986992D01*
X164155323Y-96003138D01*
X164190309Y-96028145D01*
X164223550Y-96055425D01*
X164243083Y-96065865D01*
X164261091Y-96078737D01*
X164300272Y-96096434D01*
X164338207Y-96116710D01*
X164359398Y-96123138D01*
X164379574Y-96132251D01*
X164421453Y-96141963D01*
X164462617Y-96154450D01*
X164484662Y-96156621D01*
X164506222Y-96161621D01*
X164549187Y-96162976D01*
X164559581Y-96164000D01*
X164581640Y-96164000D01*
X164636167Y-96165720D01*
X164646507Y-96164000D01*
X177140000Y-96164000D01*
X177140001Y-131928000D01*
X97180000Y-131928000D01*
X97180000Y-129251421D01*
X97466900Y-129251421D01*
X97466900Y-129671979D01*
X97548947Y-130084456D01*
X97709888Y-130473002D01*
X97943537Y-130822683D01*
X98240917Y-131120063D01*
X98590598Y-131353712D01*
X98979144Y-131514653D01*
X99391621Y-131596700D01*
X99812179Y-131596700D01*
X100224656Y-131514653D01*
X100613202Y-131353712D01*
X100962883Y-131120063D01*
X101260263Y-130822683D01*
X101493912Y-130473002D01*
X101654853Y-130084456D01*
X101736900Y-129671979D01*
X101736900Y-129251421D01*
X172465480Y-129251421D01*
X172465480Y-129671979D01*
X172547527Y-130084456D01*
X172708468Y-130473002D01*
X172942117Y-130822683D01*
X173239497Y-131120063D01*
X173589178Y-131353712D01*
X173977724Y-131514653D01*
X174390201Y-131596700D01*
X174810759Y-131596700D01*
X175223236Y-131514653D01*
X175611782Y-131353712D01*
X175961463Y-131120063D01*
X176258843Y-130822683D01*
X176492492Y-130473002D01*
X176653433Y-130084456D01*
X176735480Y-129671979D01*
X176735480Y-129251421D01*
X176653433Y-128838944D01*
X176492492Y-128450398D01*
X176258843Y-128100717D01*
X175961463Y-127803337D01*
X175611782Y-127569688D01*
X175223236Y-127408747D01*
X174810759Y-127326700D01*
X174390201Y-127326700D01*
X173977724Y-127408747D01*
X173589178Y-127569688D01*
X173239497Y-127803337D01*
X172942117Y-128100717D01*
X172708468Y-128450398D01*
X172547527Y-128838944D01*
X172465480Y-129251421D01*
X101736900Y-129251421D01*
X101654853Y-128838944D01*
X101493912Y-128450398D01*
X101260263Y-128100717D01*
X100962883Y-127803337D01*
X100613202Y-127569688D01*
X100224656Y-127408747D01*
X99812179Y-127326700D01*
X99391621Y-127326700D01*
X98979144Y-127408747D01*
X98590598Y-127569688D01*
X98240917Y-127803337D01*
X97943537Y-128100717D01*
X97709888Y-128450398D01*
X97548947Y-128838944D01*
X97466900Y-129251421D01*
X97180000Y-129251421D01*
X97180000Y-98250721D01*
X97466900Y-98250721D01*
X97466900Y-98671279D01*
X97548947Y-99083756D01*
X97709888Y-99472302D01*
X97943537Y-99821983D01*
X98240917Y-100119363D01*
X98590598Y-100353012D01*
X98979144Y-100513953D01*
X99391621Y-100596000D01*
X99812179Y-100596000D01*
X100224656Y-100513953D01*
X100613202Y-100353012D01*
X100962883Y-100119363D01*
X101260263Y-99821983D01*
X101301010Y-99761000D01*
X103562928Y-99761000D01*
X103575188Y-99885482D01*
X103611498Y-100005180D01*
X103670463Y-100115494D01*
X103749815Y-100212185D01*
X103846506Y-100291537D01*
X103956820Y-100350502D01*
X104076518Y-100386812D01*
X104201000Y-100399072D01*
X104815250Y-100396000D01*
X104974000Y-100237250D01*
X104974000Y-98588000D01*
X103724750Y-98588000D01*
X103566000Y-98746750D01*
X103562928Y-99761000D01*
X101301010Y-99761000D01*
X101493912Y-99472302D01*
X101654853Y-99083756D01*
X101736900Y-98671279D01*
X101736900Y-98250721D01*
X101654853Y-97838244D01*
X101493912Y-97449698D01*
X101301011Y-97161000D01*
X103562928Y-97161000D01*
X103566000Y-98175250D01*
X103724750Y-98334000D01*
X104974000Y-98334000D01*
X104974000Y-96684750D01*
X105228000Y-96684750D01*
X105228000Y-98334000D01*
X105248000Y-98334000D01*
X105248000Y-98588000D01*
X105228000Y-98588000D01*
X105228000Y-100237250D01*
X105386750Y-100396000D01*
X106001000Y-100399072D01*
X106125482Y-100386812D01*
X106245180Y-100350502D01*
X106355494Y-100291537D01*
X106452185Y-100212185D01*
X106531537Y-100115494D01*
X106590502Y-100005180D01*
X106595495Y-99988720D01*
X106784074Y-100143481D01*
X107050740Y-100286017D01*
X107340088Y-100373790D01*
X107641000Y-100403427D01*
X107941913Y-100373790D01*
X108231261Y-100286017D01*
X108497927Y-100143481D01*
X108731661Y-99951661D01*
X108911000Y-99733135D01*
X109090339Y-99951661D01*
X109324074Y-100143481D01*
X109590740Y-100286017D01*
X109880088Y-100373790D01*
X110181000Y-100403427D01*
X110481913Y-100373790D01*
X110771261Y-100286017D01*
X111037927Y-100143481D01*
X111271661Y-99951661D01*
X111451000Y-99733135D01*
X111630339Y-99951661D01*
X111864074Y-100143481D01*
X112130740Y-100286017D01*
X112420088Y-100373790D01*
X112721000Y-100403427D01*
X113021913Y-100373790D01*
X113311261Y-100286017D01*
X113577927Y-100143481D01*
X113811661Y-99951661D01*
X113991000Y-99733135D01*
X114170339Y-99951661D01*
X114404074Y-100143481D01*
X114670740Y-100286017D01*
X114960088Y-100373790D01*
X115261000Y-100403427D01*
X115561913Y-100373790D01*
X115851261Y-100286017D01*
X116117927Y-100143481D01*
X116351661Y-99951661D01*
X116531000Y-99733135D01*
X116710339Y-99951661D01*
X116944074Y-100143481D01*
X117210740Y-100286017D01*
X117500088Y-100373790D01*
X117801000Y-100403427D01*
X118101913Y-100373790D01*
X118391261Y-100286017D01*
X118657927Y-100143481D01*
X118891661Y-99951661D01*
X119071000Y-99733135D01*
X119250339Y-99951661D01*
X119484074Y-100143481D01*
X119750740Y-100286017D01*
X120040088Y-100373790D01*
X120341000Y-100403427D01*
X120641913Y-100373790D01*
X120931261Y-100286017D01*
X121197927Y-100143481D01*
X121431661Y-99951661D01*
X121611000Y-99733135D01*
X121790339Y-99951661D01*
X122024074Y-100143481D01*
X122290740Y-100286017D01*
X122580088Y-100373790D01*
X122881000Y-100403427D01*
X123181913Y-100373790D01*
X123471261Y-100286017D01*
X123737927Y-100143481D01*
X123971661Y-99951661D01*
X124151000Y-99733135D01*
X124330339Y-99951661D01*
X124564074Y-100143481D01*
X124830740Y-100286017D01*
X125120088Y-100373790D01*
X125421000Y-100403427D01*
X125721913Y-100373790D01*
X126011261Y-100286017D01*
X126277927Y-100143481D01*
X126511661Y-99951661D01*
X126691000Y-99733135D01*
X126870339Y-99951661D01*
X127104074Y-100143481D01*
X127370740Y-100286017D01*
X127660088Y-100373790D01*
X127961000Y-100403427D01*
X128261913Y-100373790D01*
X128551261Y-100286017D01*
X128817927Y-100143481D01*
X129051661Y-99951661D01*
X129231000Y-99733135D01*
X129410339Y-99951661D01*
X129644074Y-100143481D01*
X129910740Y-100286017D01*
X130200088Y-100373790D01*
X130501000Y-100403427D01*
X130801913Y-100373790D01*
X131091261Y-100286017D01*
X131357927Y-100143481D01*
X131591661Y-99951661D01*
X131771000Y-99733135D01*
X131950339Y-99951661D01*
X132184074Y-100143481D01*
X132450740Y-100286017D01*
X132740088Y-100373790D01*
X133041000Y-100403427D01*
X133341913Y-100373790D01*
X133631261Y-100286017D01*
X133897927Y-100143481D01*
X134131661Y-99951661D01*
X134311000Y-99733135D01*
X134490339Y-99951661D01*
X134724074Y-100143481D01*
X134990740Y-100286017D01*
X135280088Y-100373790D01*
X135581000Y-100403427D01*
X135881913Y-100373790D01*
X136171261Y-100286017D01*
X136437927Y-100143481D01*
X136671661Y-99951661D01*
X136851000Y-99733135D01*
X137030339Y-99951661D01*
X137264074Y-100143481D01*
X137530740Y-100286017D01*
X137820088Y-100373790D01*
X138121000Y-100403427D01*
X138421913Y-100373790D01*
X138711261Y-100286017D01*
X138977927Y-100143481D01*
X139211661Y-99951661D01*
X139391000Y-99733135D01*
X139570339Y-99951661D01*
X139804074Y-100143481D01*
X140070740Y-100286017D01*
X140360088Y-100373790D01*
X140661000Y-100403427D01*
X140961913Y-100373790D01*
X141251261Y-100286017D01*
X141517927Y-100143481D01*
X141751661Y-99951661D01*
X141935781Y-99727309D01*
X141995252Y-99819396D01*
X142205394Y-100036210D01*
X142453796Y-100207862D01*
X142730913Y-100327755D01*
X142836260Y-100352036D01*
X143074000Y-100231378D01*
X143074000Y-98588000D01*
X143328000Y-98588000D01*
X143328000Y-100231378D01*
X143565740Y-100352036D01*
X143671087Y-100327755D01*
X143948204Y-100207862D01*
X144196606Y-100036210D01*
X144406748Y-99819396D01*
X144570554Y-99565751D01*
X144681729Y-99285023D01*
X144736000Y-98988000D01*
X144736000Y-98588000D01*
X143328000Y-98588000D01*
X143074000Y-98588000D01*
X143054000Y-98588000D01*
X143054000Y-98334000D01*
X143074000Y-98334000D01*
X143074000Y-96690622D01*
X143328000Y-96690622D01*
X143328000Y-98334000D01*
X144736000Y-98334000D01*
X144736000Y-98250721D01*
X172466000Y-98250721D01*
X172466000Y-98671279D01*
X172548047Y-99083756D01*
X172708988Y-99472302D01*
X172942637Y-99821983D01*
X173240017Y-100119363D01*
X173589698Y-100353012D01*
X173978244Y-100513953D01*
X174390721Y-100596000D01*
X174811279Y-100596000D01*
X175223756Y-100513953D01*
X175612302Y-100353012D01*
X175961983Y-100119363D01*
X176259363Y-99821983D01*
X176493012Y-99472302D01*
X176653953Y-99083756D01*
X176736000Y-98671279D01*
X176736000Y-98250721D01*
X176653953Y-97838244D01*
X176493012Y-97449698D01*
X176259363Y-97100017D01*
X175961983Y-96802637D01*
X175612302Y-96568988D01*
X175223756Y-96408047D01*
X174811279Y-96326000D01*
X174390721Y-96326000D01*
X173978244Y-96408047D01*
X173589698Y-96568988D01*
X173240017Y-96802637D01*
X172942637Y-97100017D01*
X172708988Y-97449698D01*
X172548047Y-97838244D01*
X172466000Y-98250721D01*
X144736000Y-98250721D01*
X144736000Y-97934000D01*
X144681729Y-97636977D01*
X144570554Y-97356249D01*
X144406748Y-97102604D01*
X144196606Y-96885790D01*
X143948204Y-96714138D01*
X143671087Y-96594245D01*
X143565740Y-96569964D01*
X143328000Y-96690622D01*
X143074000Y-96690622D01*
X142836260Y-96569964D01*
X142730913Y-96594245D01*
X142453796Y-96714138D01*
X142205394Y-96885790D01*
X141995252Y-97102604D01*
X141935781Y-97194691D01*
X141751661Y-96970339D01*
X141517926Y-96778519D01*
X141251260Y-96635983D01*
X140961912Y-96548210D01*
X140661000Y-96518573D01*
X140360087Y-96548210D01*
X140070739Y-96635983D01*
X139804073Y-96778519D01*
X139570339Y-96970339D01*
X139391000Y-97188865D01*
X139211661Y-96970339D01*
X138977926Y-96778519D01*
X138711260Y-96635983D01*
X138421912Y-96548210D01*
X138121000Y-96518573D01*
X137820087Y-96548210D01*
X137530739Y-96635983D01*
X137264073Y-96778519D01*
X137030339Y-96970339D01*
X136851000Y-97188865D01*
X136671661Y-96970339D01*
X136437926Y-96778519D01*
X136171260Y-96635983D01*
X135881912Y-96548210D01*
X135581000Y-96518573D01*
X135280087Y-96548210D01*
X134990739Y-96635983D01*
X134724073Y-96778519D01*
X134490339Y-96970339D01*
X134311000Y-97188865D01*
X134131661Y-96970339D01*
X133897926Y-96778519D01*
X133631260Y-96635983D01*
X133341912Y-96548210D01*
X133041000Y-96518573D01*
X132740087Y-96548210D01*
X132450739Y-96635983D01*
X132184073Y-96778519D01*
X131950339Y-96970339D01*
X131771000Y-97188865D01*
X131591661Y-96970339D01*
X131357926Y-96778519D01*
X131091260Y-96635983D01*
X130801912Y-96548210D01*
X130501000Y-96518573D01*
X130200087Y-96548210D01*
X129910739Y-96635983D01*
X129644073Y-96778519D01*
X129410339Y-96970339D01*
X129231000Y-97188865D01*
X129051661Y-96970339D01*
X128817926Y-96778519D01*
X128551260Y-96635983D01*
X128261912Y-96548210D01*
X127961000Y-96518573D01*
X127660087Y-96548210D01*
X127370739Y-96635983D01*
X127104073Y-96778519D01*
X126870339Y-96970339D01*
X126691000Y-97188865D01*
X126511661Y-96970339D01*
X126277926Y-96778519D01*
X126011260Y-96635983D01*
X125721912Y-96548210D01*
X125421000Y-96518573D01*
X125120087Y-96548210D01*
X124830739Y-96635983D01*
X124564073Y-96778519D01*
X124330339Y-96970339D01*
X124151000Y-97188865D01*
X123971661Y-96970339D01*
X123737926Y-96778519D01*
X123471260Y-96635983D01*
X123181912Y-96548210D01*
X122881000Y-96518573D01*
X122580087Y-96548210D01*
X122290739Y-96635983D01*
X122024073Y-96778519D01*
X121790339Y-96970339D01*
X121611000Y-97188865D01*
X121431661Y-96970339D01*
X121197926Y-96778519D01*
X120931260Y-96635983D01*
X120641912Y-96548210D01*
X120341000Y-96518573D01*
X120040087Y-96548210D01*
X119750739Y-96635983D01*
X119484073Y-96778519D01*
X119250339Y-96970339D01*
X119071000Y-97188865D01*
X118891661Y-96970339D01*
X118657926Y-96778519D01*
X118391260Y-96635983D01*
X118101912Y-96548210D01*
X117801000Y-96518573D01*
X117500087Y-96548210D01*
X117210739Y-96635983D01*
X116944073Y-96778519D01*
X116710339Y-96970339D01*
X116531000Y-97188865D01*
X116351661Y-96970339D01*
X116117926Y-96778519D01*
X115851260Y-96635983D01*
X115561912Y-96548210D01*
X115261000Y-96518573D01*
X114960087Y-96548210D01*
X114670739Y-96635983D01*
X114404073Y-96778519D01*
X114170339Y-96970339D01*
X113991000Y-97188865D01*
X113811661Y-96970339D01*
X113577926Y-96778519D01*
X113311260Y-96635983D01*
X113021912Y-96548210D01*
X112721000Y-96518573D01*
X112420087Y-96548210D01*
X112130739Y-96635983D01*
X111864073Y-96778519D01*
X111630339Y-96970339D01*
X111451000Y-97188865D01*
X111271661Y-96970339D01*
X111037926Y-96778519D01*
X110771260Y-96635983D01*
X110481912Y-96548210D01*
X110181000Y-96518573D01*
X109880087Y-96548210D01*
X109590739Y-96635983D01*
X109324073Y-96778519D01*
X109090339Y-96970339D01*
X108911000Y-97188865D01*
X108731661Y-96970339D01*
X108497926Y-96778519D01*
X108231260Y-96635983D01*
X107941912Y-96548210D01*
X107641000Y-96518573D01*
X107340087Y-96548210D01*
X107050739Y-96635983D01*
X106784073Y-96778519D01*
X106595495Y-96933280D01*
X106590502Y-96916820D01*
X106531537Y-96806506D01*
X106452185Y-96709815D01*
X106355494Y-96630463D01*
X106245180Y-96571498D01*
X106125482Y-96535188D01*
X106001000Y-96522928D01*
X105386750Y-96526000D01*
X105228000Y-96684750D01*
X104974000Y-96684750D01*
X104815250Y-96526000D01*
X104201000Y-96522928D01*
X104076518Y-96535188D01*
X103956820Y-96571498D01*
X103846506Y-96630463D01*
X103749815Y-96709815D01*
X103670463Y-96806506D01*
X103611498Y-96916820D01*
X103575188Y-97036518D01*
X103562928Y-97161000D01*
X101301011Y-97161000D01*
X101260263Y-97100017D01*
X100962883Y-96802637D01*
X100613202Y-96568988D01*
X100224656Y-96408047D01*
X99812179Y-96326000D01*
X99391621Y-96326000D01*
X98979144Y-96408047D01*
X98590598Y-96568988D01*
X98240917Y-96802637D01*
X97943537Y-97100017D01*
X97709888Y-97449698D01*
X97548947Y-97838244D01*
X97466900Y-98250721D01*
X97180000Y-98250721D01*
X97180000Y-93448702D01*
X104382903Y-93448702D01*
X104454486Y-93692671D01*
X104709996Y-93813571D01*
X104984184Y-93882300D01*
X105266512Y-93896217D01*
X105546130Y-93854787D01*
X105812292Y-93759603D01*
X105937514Y-93692671D01*
X106009097Y-93448702D01*
X105196000Y-92635605D01*
X104382903Y-93448702D01*
X97180000Y-93448702D01*
X97180000Y-92526512D01*
X103755783Y-92526512D01*
X103797213Y-92806130D01*
X103892397Y-93072292D01*
X103959329Y-93197514D01*
X104203298Y-93269097D01*
X105016395Y-92456000D01*
X105375605Y-92456000D01*
X106188702Y-93269097D01*
X106432671Y-93197514D01*
X106446324Y-93168659D01*
X106581363Y-93370759D01*
X106781241Y-93570637D01*
X107016273Y-93727680D01*
X107277426Y-93835853D01*
X107554665Y-93891000D01*
X107837335Y-93891000D01*
X108114574Y-93835853D01*
X108375727Y-93727680D01*
X108610759Y-93570637D01*
X108810637Y-93370759D01*
X108967680Y-93135727D01*
X109075853Y-92874574D01*
X109131000Y-92597335D01*
X109131000Y-92534438D01*
X109537505Y-92534438D01*
X109576605Y-92774549D01*
X109661798Y-93002418D01*
X109702652Y-93078852D01*
X109926236Y-93126159D01*
X110596395Y-92456000D01*
X109926236Y-91785841D01*
X109702652Y-91833148D01*
X109601763Y-92054516D01*
X109546000Y-92291313D01*
X109537505Y-92534438D01*
X109131000Y-92534438D01*
X109131000Y-92314665D01*
X109075853Y-92037426D01*
X108967680Y-91776273D01*
X108854066Y-91606236D01*
X110105841Y-91606236D01*
X110776000Y-92276395D01*
X110790143Y-92262253D01*
X110969748Y-92441858D01*
X110955605Y-92456000D01*
X110969748Y-92470143D01*
X110790143Y-92649748D01*
X110776000Y-92635605D01*
X110105841Y-93305764D01*
X110153148Y-93529348D01*
X110374516Y-93630237D01*
X110611313Y-93686000D01*
X110854438Y-93694495D01*
X111094549Y-93655395D01*
X111322418Y-93570202D01*
X111398852Y-93529348D01*
X111446158Y-93305766D01*
X111563264Y-93422872D01*
X111621142Y-93364994D01*
X111645463Y-93410494D01*
X111724815Y-93507185D01*
X111821506Y-93586537D01*
X111931820Y-93645502D01*
X112051518Y-93681812D01*
X112176000Y-93694072D01*
X113376000Y-93694072D01*
X113500482Y-93681812D01*
X113620180Y-93645502D01*
X113730494Y-93586537D01*
X113827185Y-93507185D01*
X113906537Y-93410494D01*
X113965502Y-93300180D01*
X114001812Y-93180482D01*
X114014072Y-93056000D01*
X114014072Y-92290000D01*
X115351928Y-92290000D01*
X115364188Y-92414482D01*
X115400498Y-92534180D01*
X115459463Y-92644494D01*
X115538815Y-92741185D01*
X115635506Y-92820537D01*
X115745820Y-92879502D01*
X115865518Y-92915812D01*
X115990000Y-92928072D01*
X116554250Y-92925000D01*
X116713000Y-92766250D01*
X116713000Y-91567000D01*
X115513750Y-91567000D01*
X115355000Y-91725750D01*
X115351928Y-92290000D01*
X114014072Y-92290000D01*
X114014072Y-91856000D01*
X114001812Y-91731518D01*
X113965502Y-91611820D01*
X113906537Y-91501506D01*
X113827185Y-91404815D01*
X113730494Y-91325463D01*
X113620180Y-91266498D01*
X113500482Y-91230188D01*
X113376000Y-91217928D01*
X112176000Y-91217928D01*
X112051518Y-91230188D01*
X111931820Y-91266498D01*
X111821506Y-91325463D01*
X111724815Y-91404815D01*
X111645463Y-91501506D01*
X111621142Y-91547006D01*
X111563264Y-91489128D01*
X111446158Y-91606234D01*
X111398852Y-91382652D01*
X111177484Y-91281763D01*
X110940687Y-91226000D01*
X110697562Y-91217505D01*
X110457451Y-91256605D01*
X110229582Y-91341798D01*
X110153148Y-91382652D01*
X110105841Y-91606236D01*
X108854066Y-91606236D01*
X108810637Y-91541241D01*
X108610759Y-91341363D01*
X108375727Y-91184320D01*
X108114574Y-91076147D01*
X107837335Y-91021000D01*
X107554665Y-91021000D01*
X107277426Y-91076147D01*
X107016273Y-91184320D01*
X106781241Y-91341363D01*
X106581363Y-91541241D01*
X106447308Y-91741869D01*
X106432671Y-91714486D01*
X106188702Y-91642903D01*
X105375605Y-92456000D01*
X105016395Y-92456000D01*
X104203298Y-91642903D01*
X103959329Y-91714486D01*
X103838429Y-91969996D01*
X103769700Y-92244184D01*
X103755783Y-92526512D01*
X97180000Y-92526512D01*
X97180000Y-91463298D01*
X104382903Y-91463298D01*
X105196000Y-92276395D01*
X106009097Y-91463298D01*
X105937514Y-91219329D01*
X105682004Y-91098429D01*
X105407816Y-91029700D01*
X105125488Y-91015783D01*
X104845870Y-91057213D01*
X104579708Y-91152397D01*
X104454486Y-91219329D01*
X104382903Y-91463298D01*
X97180000Y-91463298D01*
X97180000Y-90590000D01*
X115351928Y-90590000D01*
X115355000Y-91154250D01*
X115513750Y-91313000D01*
X116713000Y-91313000D01*
X116713000Y-90113750D01*
X116967000Y-90113750D01*
X116967000Y-91313000D01*
X116987000Y-91313000D01*
X116987000Y-91567000D01*
X116967000Y-91567000D01*
X116967000Y-92766250D01*
X117125750Y-92925000D01*
X117690000Y-92928072D01*
X117814482Y-92915812D01*
X117934180Y-92879502D01*
X118044494Y-92820537D01*
X118141185Y-92741185D01*
X118220537Y-92644494D01*
X118279502Y-92534180D01*
X118301513Y-92461620D01*
X118433368Y-92593475D01*
X118676589Y-92755990D01*
X118946842Y-92867932D01*
X119233740Y-92925000D01*
X119526260Y-92925000D01*
X119813158Y-92867932D01*
X120083411Y-92755990D01*
X120326632Y-92593475D01*
X120533475Y-92386632D01*
X120650000Y-92212240D01*
X120766525Y-92386632D01*
X120973368Y-92593475D01*
X121216589Y-92755990D01*
X121486842Y-92867932D01*
X121773740Y-92925000D01*
X122066260Y-92925000D01*
X122353158Y-92867932D01*
X122623411Y-92755990D01*
X122866632Y-92593475D01*
X123073475Y-92386632D01*
X123190000Y-92212240D01*
X123306525Y-92386632D01*
X123513368Y-92593475D01*
X123756589Y-92755990D01*
X124026842Y-92867932D01*
X124313740Y-92925000D01*
X124606260Y-92925000D01*
X124893158Y-92867932D01*
X125163411Y-92755990D01*
X125406632Y-92593475D01*
X125613475Y-92386632D01*
X125730000Y-92212240D01*
X125846525Y-92386632D01*
X126053368Y-92593475D01*
X126296589Y-92755990D01*
X126566842Y-92867932D01*
X126853740Y-92925000D01*
X127146260Y-92925000D01*
X127433158Y-92867932D01*
X127703411Y-92755990D01*
X127946632Y-92593475D01*
X128153475Y-92386632D01*
X128270000Y-92212240D01*
X128386525Y-92386632D01*
X128593368Y-92593475D01*
X128836589Y-92755990D01*
X129106842Y-92867932D01*
X129393740Y-92925000D01*
X129686260Y-92925000D01*
X129973158Y-92867932D01*
X130243411Y-92755990D01*
X130486632Y-92593475D01*
X130693475Y-92386632D01*
X130810000Y-92212240D01*
X130926525Y-92386632D01*
X131133368Y-92593475D01*
X131376589Y-92755990D01*
X131646842Y-92867932D01*
X131933740Y-92925000D01*
X132226260Y-92925000D01*
X132513158Y-92867932D01*
X132783411Y-92755990D01*
X133026632Y-92593475D01*
X133233475Y-92386632D01*
X133350000Y-92212240D01*
X133466525Y-92386632D01*
X133673368Y-92593475D01*
X133916589Y-92755990D01*
X134186842Y-92867932D01*
X134473740Y-92925000D01*
X134766260Y-92925000D01*
X135053158Y-92867932D01*
X135323411Y-92755990D01*
X135566632Y-92593475D01*
X135773475Y-92386632D01*
X135890000Y-92212240D01*
X136006525Y-92386632D01*
X136213368Y-92593475D01*
X136456589Y-92755990D01*
X136726842Y-92867932D01*
X137013740Y-92925000D01*
X137306260Y-92925000D01*
X137593158Y-92867932D01*
X137863411Y-92755990D01*
X138106632Y-92593475D01*
X138313475Y-92386632D01*
X138430000Y-92212240D01*
X138546525Y-92386632D01*
X138753368Y-92593475D01*
X138996589Y-92755990D01*
X139266842Y-92867932D01*
X139553740Y-92925000D01*
X139846260Y-92925000D01*
X140133158Y-92867932D01*
X140403411Y-92755990D01*
X140646632Y-92593475D01*
X140853475Y-92386632D01*
X140970000Y-92212240D01*
X141086525Y-92386632D01*
X141293368Y-92593475D01*
X141536589Y-92755990D01*
X141806842Y-92867932D01*
X142093740Y-92925000D01*
X142386260Y-92925000D01*
X142673158Y-92867932D01*
X142943411Y-92755990D01*
X143186632Y-92593475D01*
X143393475Y-92386632D01*
X143510000Y-92212240D01*
X143626525Y-92386632D01*
X143833368Y-92593475D01*
X144076589Y-92755990D01*
X144346842Y-92867932D01*
X144633740Y-92925000D01*
X144926260Y-92925000D01*
X145213158Y-92867932D01*
X145483411Y-92755990D01*
X145726632Y-92593475D01*
X145933475Y-92386632D01*
X146050000Y-92212240D01*
X146166525Y-92386632D01*
X146373368Y-92593475D01*
X146616589Y-92755990D01*
X146886842Y-92867932D01*
X147173740Y-92925000D01*
X147466260Y-92925000D01*
X147753158Y-92867932D01*
X148023411Y-92755990D01*
X148266632Y-92593475D01*
X148473475Y-92386632D01*
X148635990Y-92143411D01*
X148747932Y-91873158D01*
X148805000Y-91586260D01*
X148805000Y-91293740D01*
X148747932Y-91006842D01*
X148635990Y-90736589D01*
X148473475Y-90493368D01*
X148266632Y-90286525D01*
X148023411Y-90124010D01*
X147753158Y-90012068D01*
X147466260Y-89955000D01*
X147173740Y-89955000D01*
X146886842Y-90012068D01*
X146616589Y-90124010D01*
X146373368Y-90286525D01*
X146166525Y-90493368D01*
X146050000Y-90667760D01*
X145933475Y-90493368D01*
X145726632Y-90286525D01*
X145483411Y-90124010D01*
X145213158Y-90012068D01*
X144926260Y-89955000D01*
X144633740Y-89955000D01*
X144346842Y-90012068D01*
X144076589Y-90124010D01*
X143833368Y-90286525D01*
X143626525Y-90493368D01*
X143510000Y-90667760D01*
X143393475Y-90493368D01*
X143186632Y-90286525D01*
X142943411Y-90124010D01*
X142673158Y-90012068D01*
X142386260Y-89955000D01*
X142093740Y-89955000D01*
X141806842Y-90012068D01*
X141536589Y-90124010D01*
X141293368Y-90286525D01*
X141086525Y-90493368D01*
X140970000Y-90667760D01*
X140853475Y-90493368D01*
X140646632Y-90286525D01*
X140403411Y-90124010D01*
X140133158Y-90012068D01*
X139846260Y-89955000D01*
X139553740Y-89955000D01*
X139266842Y-90012068D01*
X138996589Y-90124010D01*
X138753368Y-90286525D01*
X138546525Y-90493368D01*
X138430000Y-90667760D01*
X138313475Y-90493368D01*
X138106632Y-90286525D01*
X137863411Y-90124010D01*
X137593158Y-90012068D01*
X137306260Y-89955000D01*
X137013740Y-89955000D01*
X136726842Y-90012068D01*
X136456589Y-90124010D01*
X136213368Y-90286525D01*
X136006525Y-90493368D01*
X135890000Y-90667760D01*
X135773475Y-90493368D01*
X135566632Y-90286525D01*
X135323411Y-90124010D01*
X135053158Y-90012068D01*
X134766260Y-89955000D01*
X134473740Y-89955000D01*
X134186842Y-90012068D01*
X133916589Y-90124010D01*
X133673368Y-90286525D01*
X133466525Y-90493368D01*
X133350000Y-90667760D01*
X133233475Y-90493368D01*
X133026632Y-90286525D01*
X132783411Y-90124010D01*
X132513158Y-90012068D01*
X132226260Y-89955000D01*
X131933740Y-89955000D01*
X131646842Y-90012068D01*
X131376589Y-90124010D01*
X131133368Y-90286525D01*
X130926525Y-90493368D01*
X130810000Y-90667760D01*
X130693475Y-90493368D01*
X130486632Y-90286525D01*
X130243411Y-90124010D01*
X129973158Y-90012068D01*
X129686260Y-89955000D01*
X129393740Y-89955000D01*
X129106842Y-90012068D01*
X128836589Y-90124010D01*
X128593368Y-90286525D01*
X128386525Y-90493368D01*
X128270000Y-90667760D01*
X128153475Y-90493368D01*
X127946632Y-90286525D01*
X127703411Y-90124010D01*
X127433158Y-90012068D01*
X127146260Y-89955000D01*
X126853740Y-89955000D01*
X126566842Y-90012068D01*
X126296589Y-90124010D01*
X126053368Y-90286525D01*
X125846525Y-90493368D01*
X125730000Y-90667760D01*
X125613475Y-90493368D01*
X125406632Y-90286525D01*
X125163411Y-90124010D01*
X124893158Y-90012068D01*
X124606260Y-89955000D01*
X124313740Y-89955000D01*
X124026842Y-90012068D01*
X123756589Y-90124010D01*
X123513368Y-90286525D01*
X123306525Y-90493368D01*
X123190000Y-90667760D01*
X123073475Y-90493368D01*
X122866632Y-90286525D01*
X122623411Y-90124010D01*
X122353158Y-90012068D01*
X122066260Y-89955000D01*
X121773740Y-89955000D01*
X121486842Y-90012068D01*
X121216589Y-90124010D01*
X120973368Y-90286525D01*
X120766525Y-90493368D01*
X120650000Y-90667760D01*
X120533475Y-90493368D01*
X120326632Y-90286525D01*
X120083411Y-90124010D01*
X119813158Y-90012068D01*
X119526260Y-89955000D01*
X119233740Y-89955000D01*
X118946842Y-90012068D01*
X118676589Y-90124010D01*
X118433368Y-90286525D01*
X118301513Y-90418380D01*
X118279502Y-90345820D01*
X118220537Y-90235506D01*
X118141185Y-90138815D01*
X118044494Y-90059463D01*
X117934180Y-90000498D01*
X117814482Y-89964188D01*
X117690000Y-89951928D01*
X117125750Y-89955000D01*
X116967000Y-90113750D01*
X116713000Y-90113750D01*
X116554250Y-89955000D01*
X115990000Y-89951928D01*
X115865518Y-89964188D01*
X115745820Y-90000498D01*
X115635506Y-90059463D01*
X115538815Y-90138815D01*
X115459463Y-90235506D01*
X115400498Y-90345820D01*
X115364188Y-90465518D01*
X115351928Y-90590000D01*
X97180000Y-90590000D01*
X97180000Y-89560000D01*
X150143108Y-89560000D01*
X150097500Y-89789291D01*
G04 #@! TA.AperFunction,Conductor*
D21*
G36*
X150097500Y-89789291D02*
G01*
X150097500Y-90042709D01*
X150146939Y-90291258D01*
X150243918Y-90525386D01*
X150384710Y-90736096D01*
X150563904Y-90915290D01*
X150774614Y-91056082D01*
X151008742Y-91153061D01*
X151257291Y-91202500D01*
X151510709Y-91202500D01*
X151759258Y-91153061D01*
X151993386Y-91056082D01*
X152204096Y-90915290D01*
X152383290Y-90736096D01*
X152524082Y-90525386D01*
X152621061Y-90291258D01*
X152654000Y-90125661D01*
X152686939Y-90291258D01*
X152783918Y-90525386D01*
X152924710Y-90736096D01*
X153103904Y-90915290D01*
X153314614Y-91056082D01*
X153548742Y-91153061D01*
X153797291Y-91202500D01*
X154050709Y-91202500D01*
X154299258Y-91153061D01*
X154533386Y-91056082D01*
X154744096Y-90915290D01*
X154856787Y-90802599D01*
X155757006Y-90802599D01*
X155810576Y-91031426D01*
X156040740Y-91137470D01*
X156287170Y-91196574D01*
X156540396Y-91206466D01*
X156790685Y-91166765D01*
X157028420Y-91078999D01*
X157117424Y-91031426D01*
X157170994Y-90802599D01*
X156464000Y-90095605D01*
X155757006Y-90802599D01*
X154856787Y-90802599D01*
X154923290Y-90736096D01*
X155064082Y-90525386D01*
X155161061Y-90291258D01*
X155194374Y-90123780D01*
X155213235Y-90242685D01*
X155301001Y-90480420D01*
X155348574Y-90569424D01*
X155577401Y-90622994D01*
X156284395Y-89916000D01*
X156270253Y-89901858D01*
X156449858Y-89722253D01*
X156464000Y-89736395D01*
X156478143Y-89722253D01*
X156657748Y-89901858D01*
X156643605Y-89916000D01*
X157350599Y-90622994D01*
X157579426Y-90569424D01*
X157685470Y-90339260D01*
X157744574Y-90092830D01*
X157754466Y-89839604D01*
X157714765Y-89589315D01*
X157703943Y-89560000D01*
X159187015Y-89560000D01*
X164035631Y-95863200D01*
X164040575Y-95872450D01*
X164075208Y-95914650D01*
X164088634Y-95932104D01*
X164095770Y-95939705D01*
X164123052Y-95972948D01*
X164140165Y-95986992D01*
X164155323Y-96003138D01*
X164190309Y-96028145D01*
X164223550Y-96055425D01*
X164243083Y-96065865D01*
X164261091Y-96078737D01*
X164300272Y-96096434D01*
X164338207Y-96116710D01*
X164359398Y-96123138D01*
X164379574Y-96132251D01*
X164421453Y-96141963D01*
X164462617Y-96154450D01*
X164484662Y-96156621D01*
X164506222Y-96161621D01*
X164549187Y-96162976D01*
X164559581Y-96164000D01*
X164581640Y-96164000D01*
X164636167Y-96165720D01*
X164646507Y-96164000D01*
X177140000Y-96164000D01*
X177140001Y-131928000D01*
X97180000Y-131928000D01*
X97180000Y-129251421D01*
X97466900Y-129251421D01*
X97466900Y-129671979D01*
X97548947Y-130084456D01*
X97709888Y-130473002D01*
X97943537Y-130822683D01*
X98240917Y-131120063D01*
X98590598Y-131353712D01*
X98979144Y-131514653D01*
X99391621Y-131596700D01*
X99812179Y-131596700D01*
X100224656Y-131514653D01*
X100613202Y-131353712D01*
X100962883Y-131120063D01*
X101260263Y-130822683D01*
X101493912Y-130473002D01*
X101654853Y-130084456D01*
X101736900Y-129671979D01*
X101736900Y-129251421D01*
X172465480Y-129251421D01*
X172465480Y-129671979D01*
X172547527Y-130084456D01*
X172708468Y-130473002D01*
X172942117Y-130822683D01*
X173239497Y-131120063D01*
X173589178Y-131353712D01*
X173977724Y-131514653D01*
X174390201Y-131596700D01*
X174810759Y-131596700D01*
X175223236Y-131514653D01*
X175611782Y-131353712D01*
X175961463Y-131120063D01*
X176258843Y-130822683D01*
X176492492Y-130473002D01*
X176653433Y-130084456D01*
X176735480Y-129671979D01*
X176735480Y-129251421D01*
X176653433Y-128838944D01*
X176492492Y-128450398D01*
X176258843Y-128100717D01*
X175961463Y-127803337D01*
X175611782Y-127569688D01*
X175223236Y-127408747D01*
X174810759Y-127326700D01*
X174390201Y-127326700D01*
X173977724Y-127408747D01*
X173589178Y-127569688D01*
X173239497Y-127803337D01*
X172942117Y-128100717D01*
X172708468Y-128450398D01*
X172547527Y-128838944D01*
X172465480Y-129251421D01*
X101736900Y-129251421D01*
X101654853Y-128838944D01*
X101493912Y-128450398D01*
X101260263Y-128100717D01*
X100962883Y-127803337D01*
X100613202Y-127569688D01*
X100224656Y-127408747D01*
X99812179Y-127326700D01*
X99391621Y-127326700D01*
X98979144Y-127408747D01*
X98590598Y-127569688D01*
X98240917Y-127803337D01*
X97943537Y-128100717D01*
X97709888Y-128450398D01*
X97548947Y-128838944D01*
X97466900Y-129251421D01*
X97180000Y-129251421D01*
X97180000Y-98250721D01*
X97466900Y-98250721D01*
X97466900Y-98671279D01*
X97548947Y-99083756D01*
X97709888Y-99472302D01*
X97943537Y-99821983D01*
X98240917Y-100119363D01*
X98590598Y-100353012D01*
X98979144Y-100513953D01*
X99391621Y-100596000D01*
X99812179Y-100596000D01*
X100224656Y-100513953D01*
X100613202Y-100353012D01*
X100962883Y-100119363D01*
X101260263Y-99821983D01*
X101301010Y-99761000D01*
X103562928Y-99761000D01*
X103575188Y-99885482D01*
X103611498Y-100005180D01*
X103670463Y-100115494D01*
X103749815Y-100212185D01*
X103846506Y-100291537D01*
X103956820Y-100350502D01*
X104076518Y-100386812D01*
X104201000Y-100399072D01*
X104815250Y-100396000D01*
X104974000Y-100237250D01*
X104974000Y-98588000D01*
X103724750Y-98588000D01*
X103566000Y-98746750D01*
X103562928Y-99761000D01*
X101301010Y-99761000D01*
X101493912Y-99472302D01*
X101654853Y-99083756D01*
X101736900Y-98671279D01*
X101736900Y-98250721D01*
X101654853Y-97838244D01*
X101493912Y-97449698D01*
X101301011Y-97161000D01*
X103562928Y-97161000D01*
X103566000Y-98175250D01*
X103724750Y-98334000D01*
X104974000Y-98334000D01*
X104974000Y-96684750D01*
X105228000Y-96684750D01*
X105228000Y-98334000D01*
X105248000Y-98334000D01*
X105248000Y-98588000D01*
X105228000Y-98588000D01*
X105228000Y-100237250D01*
X105386750Y-100396000D01*
X106001000Y-100399072D01*
X106125482Y-100386812D01*
X106245180Y-100350502D01*
X106355494Y-100291537D01*
X106452185Y-100212185D01*
X106531537Y-100115494D01*
X106590502Y-100005180D01*
X106595495Y-99988720D01*
X106784074Y-100143481D01*
X107050740Y-100286017D01*
X107340088Y-100373790D01*
X107641000Y-100403427D01*
X107941913Y-100373790D01*
X108231261Y-100286017D01*
X108497927Y-100143481D01*
X108731661Y-99951661D01*
X108911000Y-99733135D01*
X109090339Y-99951661D01*
X109324074Y-100143481D01*
X109590740Y-100286017D01*
X109880088Y-100373790D01*
X110181000Y-100403427D01*
X110481913Y-100373790D01*
X110771261Y-100286017D01*
X111037927Y-100143481D01*
X111271661Y-99951661D01*
X111451000Y-99733135D01*
X111630339Y-99951661D01*
X111864074Y-100143481D01*
X112130740Y-100286017D01*
X112420088Y-100373790D01*
X112721000Y-100403427D01*
X113021913Y-100373790D01*
X113311261Y-100286017D01*
X113577927Y-100143481D01*
X113811661Y-99951661D01*
X113991000Y-99733135D01*
X114170339Y-99951661D01*
X114404074Y-100143481D01*
X114670740Y-100286017D01*
X114960088Y-100373790D01*
X115261000Y-100403427D01*
X115561913Y-100373790D01*
X115851261Y-100286017D01*
X116117927Y-100143481D01*
X116351661Y-99951661D01*
X116531000Y-99733135D01*
X116710339Y-99951661D01*
X116944074Y-100143481D01*
X117210740Y-100286017D01*
X117500088Y-100373790D01*
X117801000Y-100403427D01*
X118101913Y-100373790D01*
X118391261Y-100286017D01*
X118657927Y-100143481D01*
X118891661Y-99951661D01*
X119071000Y-99733135D01*
X119250339Y-99951661D01*
X119484074Y-100143481D01*
X119750740Y-100286017D01*
X120040088Y-100373790D01*
X120341000Y-100403427D01*
X120641913Y-100373790D01*
X120931261Y-100286017D01*
X121197927Y-100143481D01*
X121431661Y-99951661D01*
X121611000Y-99733135D01*
X121790339Y-99951661D01*
X122024074Y-100143481D01*
X122290740Y-100286017D01*
X122580088Y-100373790D01*
X122881000Y-100403427D01*
X123181913Y-100373790D01*
X123471261Y-100286017D01*
X123737927Y-100143481D01*
X123971661Y-99951661D01*
X124151000Y-99733135D01*
X124330339Y-99951661D01*
X124564074Y-100143481D01*
X124830740Y-100286017D01*
X125120088Y-100373790D01*
X125421000Y-100403427D01*
X125721913Y-100373790D01*
X126011261Y-100286017D01*
X126277927Y-100143481D01*
X126511661Y-99951661D01*
X126691000Y-99733135D01*
X126870339Y-99951661D01*
X127104074Y-100143481D01*
X127370740Y-100286017D01*
X127660088Y-100373790D01*
X127961000Y-100403427D01*
X128261913Y-100373790D01*
X128551261Y-100286017D01*
X128817927Y-100143481D01*
X129051661Y-99951661D01*
X129231000Y-99733135D01*
X129410339Y-99951661D01*
X129644074Y-100143481D01*
X129910740Y-100286017D01*
X130200088Y-100373790D01*
X130501000Y-100403427D01*
X130801913Y-100373790D01*
X131091261Y-100286017D01*
X131357927Y-100143481D01*
X131591661Y-99951661D01*
X131771000Y-99733135D01*
X131950339Y-99951661D01*
X132184074Y-100143481D01*
X132450740Y-100286017D01*
X132740088Y-100373790D01*
X133041000Y-100403427D01*
X133341913Y-100373790D01*
X133631261Y-100286017D01*
X133897927Y-100143481D01*
X134131661Y-99951661D01*
X134311000Y-99733135D01*
X134490339Y-99951661D01*
X134724074Y-100143481D01*
X134990740Y-100286017D01*
X135280088Y-100373790D01*
X135581000Y-100403427D01*
X135881913Y-100373790D01*
X136171261Y-100286017D01*
X136437927Y-100143481D01*
X136671661Y-99951661D01*
X136851000Y-99733135D01*
X137030339Y-99951661D01*
X137264074Y-100143481D01*
X137530740Y-100286017D01*
X137820088Y-100373790D01*
X138121000Y-100403427D01*
X138421913Y-100373790D01*
X138711261Y-100286017D01*
X138977927Y-100143481D01*
X139211661Y-99951661D01*
X139391000Y-99733135D01*
X139570339Y-99951661D01*
X139804074Y-100143481D01*
X140070740Y-100286017D01*
X140360088Y-100373790D01*
X140661000Y-100403427D01*
X140961913Y-100373790D01*
X141251261Y-100286017D01*
X141517927Y-100143481D01*
X141751661Y-99951661D01*
X141935781Y-99727309D01*
X141995252Y-99819396D01*
X142205394Y-100036210D01*
X142453796Y-100207862D01*
X142730913Y-100327755D01*
X142836260Y-100352036D01*
X143074000Y-100231378D01*
X143074000Y-98588000D01*
X143328000Y-98588000D01*
X143328000Y-100231378D01*
X143565740Y-100352036D01*
X143671087Y-100327755D01*
X143948204Y-100207862D01*
X144196606Y-100036210D01*
X144406748Y-99819396D01*
X144570554Y-99565751D01*
X144681729Y-99285023D01*
X144736000Y-98988000D01*
X144736000Y-98588000D01*
X143328000Y-98588000D01*
X143074000Y-98588000D01*
X143054000Y-98588000D01*
X143054000Y-98334000D01*
X143074000Y-98334000D01*
X143074000Y-96690622D01*
X143328000Y-96690622D01*
X143328000Y-98334000D01*
X144736000Y-98334000D01*
X144736000Y-98250721D01*
X172466000Y-98250721D01*
X172466000Y-98671279D01*
X172548047Y-99083756D01*
X172708988Y-99472302D01*
X172942637Y-99821983D01*
X173240017Y-100119363D01*
X173589698Y-100353012D01*
X173978244Y-100513953D01*
X174390721Y-100596000D01*
X174811279Y-100596000D01*
X175223756Y-100513953D01*
X175612302Y-100353012D01*
X175961983Y-100119363D01*
X176259363Y-99821983D01*
X176493012Y-99472302D01*
X176653953Y-99083756D01*
X176736000Y-98671279D01*
X176736000Y-98250721D01*
X176653953Y-97838244D01*
X176493012Y-97449698D01*
X176259363Y-97100017D01*
X175961983Y-96802637D01*
X175612302Y-96568988D01*
X175223756Y-96408047D01*
X174811279Y-96326000D01*
X174390721Y-96326000D01*
X173978244Y-96408047D01*
X173589698Y-96568988D01*
X173240017Y-96802637D01*
X172942637Y-97100017D01*
X172708988Y-97449698D01*
X172548047Y-97838244D01*
X172466000Y-98250721D01*
X144736000Y-98250721D01*
X144736000Y-97934000D01*
X144681729Y-97636977D01*
X144570554Y-97356249D01*
X144406748Y-97102604D01*
X144196606Y-96885790D01*
X143948204Y-96714138D01*
X143671087Y-96594245D01*
X143565740Y-96569964D01*
X143328000Y-96690622D01*
X143074000Y-96690622D01*
X142836260Y-96569964D01*
X142730913Y-96594245D01*
X142453796Y-96714138D01*
X142205394Y-96885790D01*
X141995252Y-97102604D01*
X141935781Y-97194691D01*
X141751661Y-96970339D01*
X141517926Y-96778519D01*
X141251260Y-96635983D01*
X140961912Y-96548210D01*
X140661000Y-96518573D01*
X140360087Y-96548210D01*
X140070739Y-96635983D01*
X139804073Y-96778519D01*
X139570339Y-96970339D01*
X139391000Y-97188865D01*
X139211661Y-96970339D01*
X138977926Y-96778519D01*
X138711260Y-96635983D01*
X138421912Y-96548210D01*
X138121000Y-96518573D01*
X137820087Y-96548210D01*
X137530739Y-96635983D01*
X137264073Y-96778519D01*
X137030339Y-96970339D01*
X136851000Y-97188865D01*
X136671661Y-96970339D01*
X136437926Y-96778519D01*
X136171260Y-96635983D01*
X135881912Y-96548210D01*
X135581000Y-96518573D01*
X135280087Y-96548210D01*
X134990739Y-96635983D01*
X134724073Y-96778519D01*
X134490339Y-96970339D01*
X134311000Y-97188865D01*
X134131661Y-96970339D01*
X133897926Y-96778519D01*
X133631260Y-96635983D01*
X133341912Y-96548210D01*
X133041000Y-96518573D01*
X132740087Y-96548210D01*
X132450739Y-96635983D01*
X132184073Y-96778519D01*
X131950339Y-96970339D01*
X131771000Y-97188865D01*
X131591661Y-96970339D01*
X131357926Y-96778519D01*
X131091260Y-96635983D01*
X130801912Y-96548210D01*
X130501000Y-96518573D01*
X130200087Y-96548210D01*
X129910739Y-96635983D01*
X129644073Y-96778519D01*
X129410339Y-96970339D01*
X129231000Y-97188865D01*
X129051661Y-96970339D01*
X128817926Y-96778519D01*
X128551260Y-96635983D01*
X128261912Y-96548210D01*
X127961000Y-96518573D01*
X127660087Y-96548210D01*
X127370739Y-96635983D01*
X127104073Y-96778519D01*
X126870339Y-96970339D01*
X126691000Y-97188865D01*
X126511661Y-96970339D01*
X126277926Y-96778519D01*
X126011260Y-96635983D01*
X125721912Y-96548210D01*
X125421000Y-96518573D01*
X125120087Y-96548210D01*
X124830739Y-96635983D01*
X124564073Y-96778519D01*
X124330339Y-96970339D01*
X124151000Y-97188865D01*
X123971661Y-96970339D01*
X123737926Y-96778519D01*
X123471260Y-96635983D01*
X123181912Y-96548210D01*
X122881000Y-96518573D01*
X122580087Y-96548210D01*
X122290739Y-96635983D01*
X122024073Y-96778519D01*
X121790339Y-96970339D01*
X121611000Y-97188865D01*
X121431661Y-96970339D01*
X121197926Y-96778519D01*
X120931260Y-96635983D01*
X120641912Y-96548210D01*
X120341000Y-96518573D01*
X120040087Y-96548210D01*
X119750739Y-96635983D01*
X119484073Y-96778519D01*
X119250339Y-96970339D01*
X119071000Y-97188865D01*
X118891661Y-96970339D01*
X118657926Y-96778519D01*
X118391260Y-96635983D01*
X118101912Y-96548210D01*
X117801000Y-96518573D01*
X117500087Y-96548210D01*
X117210739Y-96635983D01*
X116944073Y-96778519D01*
X116710339Y-96970339D01*
X116531000Y-97188865D01*
X116351661Y-96970339D01*
X116117926Y-96778519D01*
X115851260Y-96635983D01*
X115561912Y-96548210D01*
X115261000Y-96518573D01*
X114960087Y-96548210D01*
X114670739Y-96635983D01*
X114404073Y-96778519D01*
X114170339Y-96970339D01*
X113991000Y-97188865D01*
X113811661Y-96970339D01*
X113577926Y-96778519D01*
X113311260Y-96635983D01*
X113021912Y-96548210D01*
X112721000Y-96518573D01*
X112420087Y-96548210D01*
X112130739Y-96635983D01*
X111864073Y-96778519D01*
X111630339Y-96970339D01*
X111451000Y-97188865D01*
X111271661Y-96970339D01*
X111037926Y-96778519D01*
X110771260Y-96635983D01*
X110481912Y-96548210D01*
X110181000Y-96518573D01*
X109880087Y-96548210D01*
X109590739Y-96635983D01*
X109324073Y-96778519D01*
X109090339Y-96970339D01*
X108911000Y-97188865D01*
X108731661Y-96970339D01*
X108497926Y-96778519D01*
X108231260Y-96635983D01*
X107941912Y-96548210D01*
X107641000Y-96518573D01*
X107340087Y-96548210D01*
X107050739Y-96635983D01*
X106784073Y-96778519D01*
X106595495Y-96933280D01*
X106590502Y-96916820D01*
X106531537Y-96806506D01*
X106452185Y-96709815D01*
X106355494Y-96630463D01*
X106245180Y-96571498D01*
X106125482Y-96535188D01*
X106001000Y-96522928D01*
X105386750Y-96526000D01*
X105228000Y-96684750D01*
X104974000Y-96684750D01*
X104815250Y-96526000D01*
X104201000Y-96522928D01*
X104076518Y-96535188D01*
X103956820Y-96571498D01*
X103846506Y-96630463D01*
X103749815Y-96709815D01*
X103670463Y-96806506D01*
X103611498Y-96916820D01*
X103575188Y-97036518D01*
X103562928Y-97161000D01*
X101301011Y-97161000D01*
X101260263Y-97100017D01*
X100962883Y-96802637D01*
X100613202Y-96568988D01*
X100224656Y-96408047D01*
X99812179Y-96326000D01*
X99391621Y-96326000D01*
X98979144Y-96408047D01*
X98590598Y-96568988D01*
X98240917Y-96802637D01*
X97943537Y-97100017D01*
X97709888Y-97449698D01*
X97548947Y-97838244D01*
X97466900Y-98250721D01*
X97180000Y-98250721D01*
X97180000Y-93448702D01*
X104382903Y-93448702D01*
X104454486Y-93692671D01*
X104709996Y-93813571D01*
X104984184Y-93882300D01*
X105266512Y-93896217D01*
X105546130Y-93854787D01*
X105812292Y-93759603D01*
X105937514Y-93692671D01*
X106009097Y-93448702D01*
X105196000Y-92635605D01*
X104382903Y-93448702D01*
X97180000Y-93448702D01*
X97180000Y-92526512D01*
X103755783Y-92526512D01*
X103797213Y-92806130D01*
X103892397Y-93072292D01*
X103959329Y-93197514D01*
X104203298Y-93269097D01*
X105016395Y-92456000D01*
X105375605Y-92456000D01*
X106188702Y-93269097D01*
X106432671Y-93197514D01*
X106446324Y-93168659D01*
X106581363Y-93370759D01*
X106781241Y-93570637D01*
X107016273Y-93727680D01*
X107277426Y-93835853D01*
X107554665Y-93891000D01*
X107837335Y-93891000D01*
X108114574Y-93835853D01*
X108375727Y-93727680D01*
X108610759Y-93570637D01*
X108810637Y-93370759D01*
X108967680Y-93135727D01*
X109075853Y-92874574D01*
X109131000Y-92597335D01*
X109131000Y-92534438D01*
X109537505Y-92534438D01*
X109576605Y-92774549D01*
X109661798Y-93002418D01*
X109702652Y-93078852D01*
X109926236Y-93126159D01*
X110596395Y-92456000D01*
X109926236Y-91785841D01*
X109702652Y-91833148D01*
X109601763Y-92054516D01*
X109546000Y-92291313D01*
X109537505Y-92534438D01*
X109131000Y-92534438D01*
X109131000Y-92314665D01*
X109075853Y-92037426D01*
X108967680Y-91776273D01*
X108854066Y-91606236D01*
X110105841Y-91606236D01*
X110776000Y-92276395D01*
X110790143Y-92262253D01*
X110969748Y-92441858D01*
X110955605Y-92456000D01*
X110969748Y-92470143D01*
X110790143Y-92649748D01*
X110776000Y-92635605D01*
X110105841Y-93305764D01*
X110153148Y-93529348D01*
X110374516Y-93630237D01*
X110611313Y-93686000D01*
X110854438Y-93694495D01*
X111094549Y-93655395D01*
X111322418Y-93570202D01*
X111398852Y-93529348D01*
X111446158Y-93305766D01*
X111563264Y-93422872D01*
X111621142Y-93364994D01*
X111645463Y-93410494D01*
X111724815Y-93507185D01*
X111821506Y-93586537D01*
X111931820Y-93645502D01*
X112051518Y-93681812D01*
X112176000Y-93694072D01*
X113376000Y-93694072D01*
X113500482Y-93681812D01*
X113620180Y-93645502D01*
X113730494Y-93586537D01*
X113827185Y-93507185D01*
X113906537Y-93410494D01*
X113965502Y-93300180D01*
X114001812Y-93180482D01*
X114014072Y-93056000D01*
X114014072Y-92290000D01*
X115351928Y-92290000D01*
X115364188Y-92414482D01*
X115400498Y-92534180D01*
X115459463Y-92644494D01*
X115538815Y-92741185D01*
X115635506Y-92820537D01*
X115745820Y-92879502D01*
X115865518Y-92915812D01*
X115990000Y-92928072D01*
X116554250Y-92925000D01*
X116713000Y-92766250D01*
X116713000Y-91567000D01*
X115513750Y-91567000D01*
X115355000Y-91725750D01*
X115351928Y-92290000D01*
X114014072Y-92290000D01*
X114014072Y-91856000D01*
X114001812Y-91731518D01*
X113965502Y-91611820D01*
X113906537Y-91501506D01*
X113827185Y-91404815D01*
X113730494Y-91325463D01*
X113620180Y-91266498D01*
X113500482Y-91230188D01*
X113376000Y-91217928D01*
X112176000Y-91217928D01*
X112051518Y-91230188D01*
X111931820Y-91266498D01*
X111821506Y-91325463D01*
X111724815Y-91404815D01*
X111645463Y-91501506D01*
X111621142Y-91547006D01*
X111563264Y-91489128D01*
X111446158Y-91606234D01*
X111398852Y-91382652D01*
X111177484Y-91281763D01*
X110940687Y-91226000D01*
X110697562Y-91217505D01*
X110457451Y-91256605D01*
X110229582Y-91341798D01*
X110153148Y-91382652D01*
X110105841Y-91606236D01*
X108854066Y-91606236D01*
X108810637Y-91541241D01*
X108610759Y-91341363D01*
X108375727Y-91184320D01*
X108114574Y-91076147D01*
X107837335Y-91021000D01*
X107554665Y-91021000D01*
X107277426Y-91076147D01*
X107016273Y-91184320D01*
X106781241Y-91341363D01*
X106581363Y-91541241D01*
X106447308Y-91741869D01*
X106432671Y-91714486D01*
X106188702Y-91642903D01*
X105375605Y-92456000D01*
X105016395Y-92456000D01*
X104203298Y-91642903D01*
X103959329Y-91714486D01*
X103838429Y-91969996D01*
X103769700Y-92244184D01*
X103755783Y-92526512D01*
X97180000Y-92526512D01*
X97180000Y-91463298D01*
X104382903Y-91463298D01*
X105196000Y-92276395D01*
X106009097Y-91463298D01*
X105937514Y-91219329D01*
X105682004Y-91098429D01*
X105407816Y-91029700D01*
X105125488Y-91015783D01*
X104845870Y-91057213D01*
X104579708Y-91152397D01*
X104454486Y-91219329D01*
X104382903Y-91463298D01*
X97180000Y-91463298D01*
X97180000Y-90590000D01*
X115351928Y-90590000D01*
X115355000Y-91154250D01*
X115513750Y-91313000D01*
X116713000Y-91313000D01*
X116713000Y-90113750D01*
X116967000Y-90113750D01*
X116967000Y-91313000D01*
X116987000Y-91313000D01*
X116987000Y-91567000D01*
X116967000Y-91567000D01*
X116967000Y-92766250D01*
X117125750Y-92925000D01*
X117690000Y-92928072D01*
X117814482Y-92915812D01*
X117934180Y-92879502D01*
X118044494Y-92820537D01*
X118141185Y-92741185D01*
X118220537Y-92644494D01*
X118279502Y-92534180D01*
X118301513Y-92461620D01*
X118433368Y-92593475D01*
X118676589Y-92755990D01*
X118946842Y-92867932D01*
X119233740Y-92925000D01*
X119526260Y-92925000D01*
X119813158Y-92867932D01*
X120083411Y-92755990D01*
X120326632Y-92593475D01*
X120533475Y-92386632D01*
X120650000Y-92212240D01*
X120766525Y-92386632D01*
X120973368Y-92593475D01*
X121216589Y-92755990D01*
X121486842Y-92867932D01*
X121773740Y-92925000D01*
X122066260Y-92925000D01*
X122353158Y-92867932D01*
X122623411Y-92755990D01*
X122866632Y-92593475D01*
X123073475Y-92386632D01*
X123190000Y-92212240D01*
X123306525Y-92386632D01*
X123513368Y-92593475D01*
X123756589Y-92755990D01*
X124026842Y-92867932D01*
X124313740Y-92925000D01*
X124606260Y-92925000D01*
X124893158Y-92867932D01*
X125163411Y-92755990D01*
X125406632Y-92593475D01*
X125613475Y-92386632D01*
X125730000Y-92212240D01*
X125846525Y-92386632D01*
X126053368Y-92593475D01*
X126296589Y-92755990D01*
X126566842Y-92867932D01*
X126853740Y-92925000D01*
X127146260Y-92925000D01*
X127433158Y-92867932D01*
X127703411Y-92755990D01*
X127946632Y-92593475D01*
X128153475Y-92386632D01*
X128270000Y-92212240D01*
X128386525Y-92386632D01*
X128593368Y-92593475D01*
X128836589Y-92755990D01*
X129106842Y-92867932D01*
X129393740Y-92925000D01*
X129686260Y-92925000D01*
X129973158Y-92867932D01*
X130243411Y-92755990D01*
X130486632Y-92593475D01*
X130693475Y-92386632D01*
X130810000Y-92212240D01*
X130926525Y-92386632D01*
X131133368Y-92593475D01*
X131376589Y-92755990D01*
X131646842Y-92867932D01*
X131933740Y-92925000D01*
X132226260Y-92925000D01*
X132513158Y-92867932D01*
X132783411Y-92755990D01*
X133026632Y-92593475D01*
X133233475Y-92386632D01*
X133350000Y-92212240D01*
X133466525Y-92386632D01*
X133673368Y-92593475D01*
X133916589Y-92755990D01*
X134186842Y-92867932D01*
X134473740Y-92925000D01*
X134766260Y-92925000D01*
X135053158Y-92867932D01*
X135323411Y-92755990D01*
X135566632Y-92593475D01*
X135773475Y-92386632D01*
X135890000Y-92212240D01*
X136006525Y-92386632D01*
X136213368Y-92593475D01*
X136456589Y-92755990D01*
X136726842Y-92867932D01*
X137013740Y-92925000D01*
X137306260Y-92925000D01*
X137593158Y-92867932D01*
X137863411Y-92755990D01*
X138106632Y-92593475D01*
X138313475Y-92386632D01*
X138430000Y-92212240D01*
X138546525Y-92386632D01*
X138753368Y-92593475D01*
X138996589Y-92755990D01*
X139266842Y-92867932D01*
X139553740Y-92925000D01*
X139846260Y-92925000D01*
X140133158Y-92867932D01*
X140403411Y-92755990D01*
X140646632Y-92593475D01*
X140853475Y-92386632D01*
X140970000Y-92212240D01*
X141086525Y-92386632D01*
X141293368Y-92593475D01*
X141536589Y-92755990D01*
X141806842Y-92867932D01*
X142093740Y-92925000D01*
X142386260Y-92925000D01*
X142673158Y-92867932D01*
X142943411Y-92755990D01*
X143186632Y-92593475D01*
X143393475Y-92386632D01*
X143510000Y-92212240D01*
X143626525Y-92386632D01*
X143833368Y-92593475D01*
X144076589Y-92755990D01*
X144346842Y-92867932D01*
X144633740Y-92925000D01*
X144926260Y-92925000D01*
X145213158Y-92867932D01*
X145483411Y-92755990D01*
X145726632Y-92593475D01*
X145933475Y-92386632D01*
X146050000Y-92212240D01*
X146166525Y-92386632D01*
X146373368Y-92593475D01*
X146616589Y-92755990D01*
X146886842Y-92867932D01*
X147173740Y-92925000D01*
X147466260Y-92925000D01*
X147753158Y-92867932D01*
X148023411Y-92755990D01*
X148266632Y-92593475D01*
X148473475Y-92386632D01*
X148635990Y-92143411D01*
X148747932Y-91873158D01*
X148805000Y-91586260D01*
X148805000Y-91293740D01*
X148747932Y-91006842D01*
X148635990Y-90736589D01*
X148473475Y-90493368D01*
X148266632Y-90286525D01*
X148023411Y-90124010D01*
X147753158Y-90012068D01*
X147466260Y-89955000D01*
X147173740Y-89955000D01*
X146886842Y-90012068D01*
X146616589Y-90124010D01*
X146373368Y-90286525D01*
X146166525Y-90493368D01*
X146050000Y-90667760D01*
X145933475Y-90493368D01*
X145726632Y-90286525D01*
X145483411Y-90124010D01*
X145213158Y-90012068D01*
X144926260Y-89955000D01*
X144633740Y-89955000D01*
X144346842Y-90012068D01*
X144076589Y-90124010D01*
X143833368Y-90286525D01*
X143626525Y-90493368D01*
X143510000Y-90667760D01*
X143393475Y-90493368D01*
X143186632Y-90286525D01*
X142943411Y-90124010D01*
X142673158Y-90012068D01*
X142386260Y-89955000D01*
X142093740Y-89955000D01*
X141806842Y-90012068D01*
X141536589Y-90124010D01*
X141293368Y-90286525D01*
X141086525Y-90493368D01*
X140970000Y-90667760D01*
X140853475Y-90493368D01*
X140646632Y-90286525D01*
X140403411Y-90124010D01*
X140133158Y-90012068D01*
X139846260Y-89955000D01*
X139553740Y-89955000D01*
X139266842Y-90012068D01*
X138996589Y-90124010D01*
X138753368Y-90286525D01*
X138546525Y-90493368D01*
X138430000Y-90667760D01*
X138313475Y-90493368D01*
X138106632Y-90286525D01*
X137863411Y-90124010D01*
X137593158Y-90012068D01*
X137306260Y-89955000D01*
X137013740Y-89955000D01*
X136726842Y-90012068D01*
X136456589Y-90124010D01*
X136213368Y-90286525D01*
X136006525Y-90493368D01*
X135890000Y-90667760D01*
X135773475Y-90493368D01*
X135566632Y-90286525D01*
X135323411Y-90124010D01*
X135053158Y-90012068D01*
X134766260Y-89955000D01*
X134473740Y-89955000D01*
X134186842Y-90012068D01*
X133916589Y-90124010D01*
X133673368Y-90286525D01*
X133466525Y-90493368D01*
X133350000Y-90667760D01*
X133233475Y-90493368D01*
X133026632Y-90286525D01*
X132783411Y-90124010D01*
X132513158Y-90012068D01*
X132226260Y-89955000D01*
X131933740Y-89955000D01*
X131646842Y-90012068D01*
X131376589Y-90124010D01*
X131133368Y-90286525D01*
X130926525Y-90493368D01*
X130810000Y-90667760D01*
X130693475Y-90493368D01*
X130486632Y-90286525D01*
X130243411Y-90124010D01*
X129973158Y-90012068D01*
X129686260Y-89955000D01*
X129393740Y-89955000D01*
X129106842Y-90012068D01*
X128836589Y-90124010D01*
X128593368Y-90286525D01*
X128386525Y-90493368D01*
X128270000Y-90667760D01*
X128153475Y-90493368D01*
X127946632Y-90286525D01*
X127703411Y-90124010D01*
X127433158Y-90012068D01*
X127146260Y-89955000D01*
X126853740Y-89955000D01*
X126566842Y-90012068D01*
X126296589Y-90124010D01*
X126053368Y-90286525D01*
X125846525Y-90493368D01*
X125730000Y-90667760D01*
X125613475Y-90493368D01*
X125406632Y-90286525D01*
X125163411Y-90124010D01*
X124893158Y-90012068D01*
X124606260Y-89955000D01*
X124313740Y-89955000D01*
X124026842Y-90012068D01*
X123756589Y-90124010D01*
X123513368Y-90286525D01*
X123306525Y-90493368D01*
X123190000Y-90667760D01*
X123073475Y-90493368D01*
X122866632Y-90286525D01*
X122623411Y-90124010D01*
X122353158Y-90012068D01*
X122066260Y-89955000D01*
X121773740Y-89955000D01*
X121486842Y-90012068D01*
X121216589Y-90124010D01*
X120973368Y-90286525D01*
X120766525Y-90493368D01*
X120650000Y-90667760D01*
X120533475Y-90493368D01*
X120326632Y-90286525D01*
X120083411Y-90124010D01*
X119813158Y-90012068D01*
X119526260Y-89955000D01*
X119233740Y-89955000D01*
X118946842Y-90012068D01*
X118676589Y-90124010D01*
X118433368Y-90286525D01*
X118301513Y-90418380D01*
X118279502Y-90345820D01*
X118220537Y-90235506D01*
X118141185Y-90138815D01*
X118044494Y-90059463D01*
X117934180Y-90000498D01*
X117814482Y-89964188D01*
X117690000Y-89951928D01*
X117125750Y-89955000D01*
X116967000Y-90113750D01*
X116713000Y-90113750D01*
X116554250Y-89955000D01*
X115990000Y-89951928D01*
X115865518Y-89964188D01*
X115745820Y-90000498D01*
X115635506Y-90059463D01*
X115538815Y-90138815D01*
X115459463Y-90235506D01*
X115400498Y-90345820D01*
X115364188Y-90465518D01*
X115351928Y-90590000D01*
X97180000Y-90590000D01*
X97180000Y-89560000D01*
X150143108Y-89560000D01*
X150097500Y-89789291D01*
G37*
G04 #@! TD.AperFunction*
M02*
