M48
; DRILL file {KiCad (5.1.10-1-10_14)} date Friday, October 29, 2021 at 02:21:58 PM
; FORMAT={-:-/ absolute / metric / decimal}
; #@! TF.CreationDate,2021-10-29T14:21:58+02:00
; #@! TF.GenerationSoftware,Kicad,Pcbnew,(5.1.10-1-10_14)
; #@! TF.FileFunction,Plated,1,2,PTH
FMAT,2
METRIC
T1C0.400
T2C0.600
T3C0.760
T4C0.800
T5C1.000
T6C1.200
T7C2.500
%
G90
G05
T1
X99.06Y-91.44
X99.06Y-101.6
X99.06Y-111.76
X99.06Y-124.46
X102.362Y-92.456
X102.616Y-96.266
X104.14Y-129.54
X106.68Y-101.6
X109.728Y-95.758
X113.538Y-89.662
X114.3Y-114.3
X114.808Y-94.996
X117.856Y-94.488
X119.38Y-101.6
X119.38Y-129.54
X120.142Y-94.742
X122.936Y-94.742
X125.476Y-94.742
X129.54Y-94.488
X132.08Y-114.3
X132.08Y-129.54
X133.096Y-94.488
X135.382Y-94.742
X137.16Y-101.6
X139.192Y-94.742
X144.78Y-114.3
X145.288Y-94.488
X147.32Y-129.54
X150.876Y-91.948
X152.4Y-101.6
X154.94Y-93.98
X160.02Y-93.98
X165.1Y-114.3
X165.1Y-129.54
X170.18Y-101.6
X175.26Y-101.6
X175.26Y-114.3
X175.26Y-124.46
T2
X110.776Y-92.456
X112.776Y-92.456
T3
X151.384Y-89.916
X153.924Y-89.916
X156.464Y-89.916
T4
X105.196Y-92.456
X107.696Y-92.456
T5
X116.84Y-91.44
X119.38Y-91.44
X121.92Y-91.44
X124.46Y-91.44
X127.0Y-91.44
X129.54Y-91.44
X132.08Y-91.44
X134.62Y-91.44
X137.16Y-91.44
X139.7Y-91.44
X142.24Y-91.44
X144.78Y-91.44
X147.32Y-91.44
T6
X105.101Y-98.461
X107.641Y-98.461
X110.181Y-98.461
X112.721Y-98.461
X115.261Y-98.461
X117.801Y-98.461
X120.341Y-98.461
X122.881Y-98.461
X125.421Y-98.461
X127.961Y-98.461
X130.501Y-98.461
X133.041Y-98.461
X135.581Y-98.461
X138.121Y-98.461
X140.661Y-98.461
X143.201Y-98.461
T7
X99.602Y-98.461
X99.602Y-129.462
X174.6Y-129.462
X174.601Y-98.461
T0
M30
