G04 #@! TF.GenerationSoftware,KiCad,Pcbnew,(5.1.10-1-10_14)*
G04 #@! TF.CreationDate,2021-11-01T16:25:37+01:00*
G04 #@! TF.ProjectId,idc50_breakout,69646335-305f-4627-9265-616b6f75742e,rev?*
G04 #@! TF.SameCoordinates,Original*
G04 #@! TF.FileFunction,Legend,Bot*
G04 #@! TF.FilePolarity,Positive*
%FSLAX46Y46*%
G04 Gerber Fmt 4.6, Leading zero omitted, Abs format (unit mm)*
G04 Created by KiCad (PCBNEW (5.1.10-1-10_14)) date 2021-11-01 16:25:37*
%MOMM*%
%LPD*%
G01*
G04 APERTURE LIST*
%ADD10C,0.150000*%
%ADD11O,1.700000X1.700000*%
%ADD12R,1.700000X1.700000*%
%ADD13C,1.700000*%
G04 APERTURE END LIST*
D10*
X94136219Y-42844404D02*
X95136219Y-42844404D01*
X94136219Y-42368214D02*
X95136219Y-42368214D01*
X95136219Y-42130119D01*
X95088600Y-41987261D01*
X94993361Y-41892023D01*
X94898123Y-41844404D01*
X94707647Y-41796785D01*
X94564790Y-41796785D01*
X94374314Y-41844404D01*
X94279076Y-41892023D01*
X94183838Y-41987261D01*
X94136219Y-42130119D01*
X94136219Y-42368214D01*
X94231457Y-40796785D02*
X94183838Y-40844404D01*
X94136219Y-40987261D01*
X94136219Y-41082500D01*
X94183838Y-41225357D01*
X94279076Y-41320595D01*
X94374314Y-41368214D01*
X94564790Y-41415833D01*
X94707647Y-41415833D01*
X94898123Y-41368214D01*
X94993361Y-41320595D01*
X95088600Y-41225357D01*
X95136219Y-41082500D01*
X95136219Y-40987261D01*
X95088600Y-40844404D01*
X95040980Y-40796785D01*
X94517171Y-40368214D02*
X94517171Y-39606309D01*
X95136219Y-38653928D02*
X95136219Y-39130119D01*
X94660028Y-39177738D01*
X94707647Y-39130119D01*
X94755266Y-39034880D01*
X94755266Y-38796785D01*
X94707647Y-38701547D01*
X94660028Y-38653928D01*
X94564790Y-38606309D01*
X94326695Y-38606309D01*
X94231457Y-38653928D01*
X94183838Y-38701547D01*
X94136219Y-38796785D01*
X94136219Y-39034880D01*
X94183838Y-39130119D01*
X94231457Y-39177738D01*
X95136219Y-37987261D02*
X95136219Y-37892023D01*
X95088600Y-37796785D01*
X95040980Y-37749166D01*
X94945742Y-37701547D01*
X94755266Y-37653928D01*
X94517171Y-37653928D01*
X94326695Y-37701547D01*
X94231457Y-37749166D01*
X94183838Y-37796785D01*
X94136219Y-37892023D01*
X94136219Y-37987261D01*
X94183838Y-38082500D01*
X94231457Y-38130119D01*
X94326695Y-38177738D01*
X94517171Y-38225357D01*
X94755266Y-38225357D01*
X94945742Y-38177738D01*
X95040980Y-38130119D01*
X95088600Y-38082500D01*
X95136219Y-37987261D01*
X94660028Y-36130119D02*
X94612409Y-35987261D01*
X94564790Y-35939642D01*
X94469552Y-35892023D01*
X94326695Y-35892023D01*
X94231457Y-35939642D01*
X94183838Y-35987261D01*
X94136219Y-36082500D01*
X94136219Y-36463452D01*
X95136219Y-36463452D01*
X95136219Y-36130119D01*
X95088600Y-36034880D01*
X95040980Y-35987261D01*
X94945742Y-35939642D01*
X94850504Y-35939642D01*
X94755266Y-35987261D01*
X94707647Y-36034880D01*
X94660028Y-36130119D01*
X94660028Y-36463452D01*
X94136219Y-35463452D02*
X94802885Y-35463452D01*
X94612409Y-35463452D02*
X94707647Y-35415833D01*
X94755266Y-35368214D01*
X94802885Y-35272976D01*
X94802885Y-35177738D01*
X94183838Y-34463452D02*
X94136219Y-34558690D01*
X94136219Y-34749166D01*
X94183838Y-34844404D01*
X94279076Y-34892023D01*
X94660028Y-34892023D01*
X94755266Y-34844404D01*
X94802885Y-34749166D01*
X94802885Y-34558690D01*
X94755266Y-34463452D01*
X94660028Y-34415833D01*
X94564790Y-34415833D01*
X94469552Y-34892023D01*
X94136219Y-33558690D02*
X94660028Y-33558690D01*
X94755266Y-33606309D01*
X94802885Y-33701547D01*
X94802885Y-33892023D01*
X94755266Y-33987261D01*
X94183838Y-33558690D02*
X94136219Y-33653928D01*
X94136219Y-33892023D01*
X94183838Y-33987261D01*
X94279076Y-34034880D01*
X94374314Y-34034880D01*
X94469552Y-33987261D01*
X94517171Y-33892023D01*
X94517171Y-33653928D01*
X94564790Y-33558690D01*
X94136219Y-33082500D02*
X95136219Y-33082500D01*
X94517171Y-32987261D02*
X94136219Y-32701547D01*
X94802885Y-32701547D02*
X94421933Y-33082500D01*
X94136219Y-32130119D02*
X94183838Y-32225357D01*
X94231457Y-32272976D01*
X94326695Y-32320595D01*
X94612409Y-32320595D01*
X94707647Y-32272976D01*
X94755266Y-32225357D01*
X94802885Y-32130119D01*
X94802885Y-31987261D01*
X94755266Y-31892023D01*
X94707647Y-31844404D01*
X94612409Y-31796785D01*
X94326695Y-31796785D01*
X94231457Y-31844404D01*
X94183838Y-31892023D01*
X94136219Y-31987261D01*
X94136219Y-32130119D01*
X94802885Y-30939642D02*
X94136219Y-30939642D01*
X94802885Y-31368214D02*
X94279076Y-31368214D01*
X94183838Y-31320595D01*
X94136219Y-31225357D01*
X94136219Y-31082500D01*
X94183838Y-30987261D01*
X94231457Y-30939642D01*
X94802885Y-30606309D02*
X94802885Y-30225357D01*
X95136219Y-30463452D02*
X94279076Y-30463452D01*
X94183838Y-30415833D01*
X94136219Y-30320595D01*
X94136219Y-30225357D01*
X93390980Y-42892023D02*
X93438600Y-42844404D01*
X93486219Y-42749166D01*
X93486219Y-42511071D01*
X93438600Y-42415833D01*
X93390980Y-42368214D01*
X93295742Y-42320595D01*
X93200504Y-42320595D01*
X93057647Y-42368214D01*
X92486219Y-42939642D01*
X92486219Y-42320595D01*
X93486219Y-41701547D02*
X93486219Y-41606309D01*
X93438600Y-41511071D01*
X93390980Y-41463452D01*
X93295742Y-41415833D01*
X93105266Y-41368214D01*
X92867171Y-41368214D01*
X92676695Y-41415833D01*
X92581457Y-41463452D01*
X92533838Y-41511071D01*
X92486219Y-41606309D01*
X92486219Y-41701547D01*
X92533838Y-41796785D01*
X92581457Y-41844404D01*
X92676695Y-41892023D01*
X92867171Y-41939642D01*
X93105266Y-41939642D01*
X93295742Y-41892023D01*
X93390980Y-41844404D01*
X93438600Y-41796785D01*
X93486219Y-41701547D01*
X93390980Y-40987261D02*
X93438600Y-40939642D01*
X93486219Y-40844404D01*
X93486219Y-40606309D01*
X93438600Y-40511071D01*
X93390980Y-40463452D01*
X93295742Y-40415833D01*
X93200504Y-40415833D01*
X93057647Y-40463452D01*
X92486219Y-41034880D01*
X92486219Y-40415833D01*
X92486219Y-39463452D02*
X92486219Y-40034880D01*
X92486219Y-39749166D02*
X93486219Y-39749166D01*
X93343361Y-39844404D01*
X93248123Y-39939642D01*
X93200504Y-40034880D01*
X92819552Y-38796785D02*
X92819552Y-39177738D01*
X92486219Y-37939642D02*
X92486219Y-38511071D01*
X92486219Y-38225357D02*
X93486219Y-38225357D01*
X93343361Y-38320595D01*
X93248123Y-38415833D01*
X93200504Y-38511071D01*
X92486219Y-36987261D02*
X92486219Y-37558690D01*
X92486219Y-37272976D02*
X93486219Y-37272976D01*
X93343361Y-37368214D01*
X93248123Y-37463452D01*
X93200504Y-37558690D01*
X92867171Y-36558690D02*
X92867171Y-35796785D01*
X93486219Y-35130119D02*
X93486219Y-35034880D01*
X93438600Y-34939642D01*
X93390980Y-34892023D01*
X93295742Y-34844404D01*
X93105266Y-34796785D01*
X92867171Y-34796785D01*
X92676695Y-34844404D01*
X92581457Y-34892023D01*
X92533838Y-34939642D01*
X92486219Y-35034880D01*
X92486219Y-35130119D01*
X92533838Y-35225357D01*
X92581457Y-35272976D01*
X92676695Y-35320595D01*
X92867171Y-35368214D01*
X93105266Y-35368214D01*
X93295742Y-35320595D01*
X93390980Y-35272976D01*
X93438600Y-35225357D01*
X93486219Y-35130119D01*
X92486219Y-33844404D02*
X92486219Y-34415833D01*
X92486219Y-34130119D02*
X93486219Y-34130119D01*
X93343361Y-34225357D01*
X93248123Y-34320595D01*
X93200504Y-34415833D01*
X91121933Y-42892023D02*
X91121933Y-42415833D01*
X90836219Y-42987261D02*
X91836219Y-42653928D01*
X90836219Y-42320595D01*
X90836219Y-41558690D02*
X91836219Y-41558690D01*
X90883838Y-41558690D02*
X90836219Y-41653928D01*
X90836219Y-41844404D01*
X90883838Y-41939642D01*
X90931457Y-41987261D01*
X91026695Y-42034880D01*
X91312409Y-42034880D01*
X91407647Y-41987261D01*
X91455266Y-41939642D01*
X91502885Y-41844404D01*
X91502885Y-41653928D01*
X91455266Y-41558690D01*
X90836219Y-41082500D02*
X91502885Y-41082500D01*
X91312409Y-41082500D02*
X91407647Y-41034880D01*
X91455266Y-40987261D01*
X91502885Y-40892023D01*
X91502885Y-40796785D01*
X90836219Y-40463452D02*
X91502885Y-40463452D01*
X91836219Y-40463452D02*
X91788600Y-40511071D01*
X91740980Y-40463452D01*
X91788600Y-40415833D01*
X91836219Y-40463452D01*
X91740980Y-40463452D01*
X90883838Y-39606309D02*
X90836219Y-39701547D01*
X90836219Y-39892023D01*
X90883838Y-39987261D01*
X90979076Y-40034880D01*
X91360028Y-40034880D01*
X91455266Y-39987261D01*
X91502885Y-39892023D01*
X91502885Y-39701547D01*
X91455266Y-39606309D01*
X91360028Y-39558690D01*
X91264790Y-39558690D01*
X91169552Y-40034880D01*
X91502885Y-39130119D02*
X90836219Y-39130119D01*
X91407647Y-39130119D02*
X91455266Y-39082500D01*
X91502885Y-38987261D01*
X91502885Y-38844404D01*
X91455266Y-38749166D01*
X91360028Y-38701547D01*
X90836219Y-38701547D01*
X90836219Y-37463452D02*
X91836219Y-37463452D01*
X90836219Y-36892023D02*
X91407647Y-37320595D01*
X91836219Y-36892023D02*
X91264790Y-37463452D01*
X90836219Y-36320595D02*
X90883838Y-36415833D01*
X90931457Y-36463452D01*
X91026695Y-36511071D01*
X91312409Y-36511071D01*
X91407647Y-36463452D01*
X91455266Y-36415833D01*
X91502885Y-36320595D01*
X91502885Y-36177738D01*
X91455266Y-36082500D01*
X91407647Y-36034880D01*
X91312409Y-35987261D01*
X91026695Y-35987261D01*
X90931457Y-36034880D01*
X90883838Y-36082500D01*
X90836219Y-36177738D01*
X90836219Y-36320595D01*
X90836219Y-35558690D02*
X91836219Y-35558690D01*
X90836219Y-35130119D02*
X91360028Y-35130119D01*
X91455266Y-35177738D01*
X91502885Y-35272976D01*
X91502885Y-35415833D01*
X91455266Y-35511071D01*
X91407647Y-35558690D01*
X90836219Y-34511071D02*
X90883838Y-34606309D01*
X90979076Y-34653928D01*
X91836219Y-34653928D01*
X90836219Y-34130119D02*
X91836219Y-34130119D01*
X91455266Y-34130119D02*
X91502885Y-34034880D01*
X91502885Y-33844404D01*
X91455266Y-33749166D01*
X91407647Y-33701547D01*
X91312409Y-33653928D01*
X91026695Y-33653928D01*
X90931457Y-33701547D01*
X90883838Y-33749166D01*
X90836219Y-33844404D01*
X90836219Y-34034880D01*
X90883838Y-34130119D01*
X90883838Y-32844404D02*
X90836219Y-32939642D01*
X90836219Y-33130119D01*
X90883838Y-33225357D01*
X90979076Y-33272976D01*
X91360028Y-33272976D01*
X91455266Y-33225357D01*
X91502885Y-33130119D01*
X91502885Y-32939642D01*
X91455266Y-32844404D01*
X91360028Y-32796785D01*
X91264790Y-32796785D01*
X91169552Y-33272976D01*
X90883838Y-31939642D02*
X90836219Y-32034880D01*
X90836219Y-32225357D01*
X90883838Y-32320595D01*
X90931457Y-32368214D01*
X91026695Y-32415833D01*
X91312409Y-32415833D01*
X91407647Y-32368214D01*
X91455266Y-32320595D01*
X91502885Y-32225357D01*
X91502885Y-32034880D01*
X91455266Y-31939642D01*
X90836219Y-31511071D02*
X91836219Y-31511071D01*
X91217171Y-31415833D02*
X90836219Y-31130119D01*
X91502885Y-31130119D02*
X91121933Y-31511071D01*
X90883838Y-30320595D02*
X90836219Y-30415833D01*
X90836219Y-30606309D01*
X90883838Y-30701547D01*
X90979076Y-30749166D01*
X91360028Y-30749166D01*
X91455266Y-30701547D01*
X91502885Y-30606309D01*
X91502885Y-30415833D01*
X91455266Y-30320595D01*
X91360028Y-30272976D01*
X91264790Y-30272976D01*
X91169552Y-30749166D01*
X90836219Y-29844404D02*
X91502885Y-29844404D01*
X91312409Y-29844404D02*
X91407647Y-29796785D01*
X91455266Y-29749166D01*
X91502885Y-29653928D01*
X91502885Y-29558690D01*
%LPC*%
D11*
X101600000Y-45720000D03*
X101600000Y-43180000D03*
X101600000Y-40640000D03*
X101600000Y-38100000D03*
X101600000Y-35560000D03*
X101600000Y-33020000D03*
X101600000Y-30480000D03*
X101600000Y-27940000D03*
X101600000Y-25400000D03*
D12*
X101600000Y-22860000D03*
D13*
X93980000Y-114300000D03*
X93980000Y-111760000D03*
X93980000Y-109220000D03*
X93980000Y-106680000D03*
X93980000Y-104140000D03*
X93980000Y-101600000D03*
X93980000Y-99060000D03*
X93980000Y-96520000D03*
X93980000Y-93980000D03*
X93980000Y-91440000D03*
X93980000Y-88900000D03*
X93980000Y-86360000D03*
X93980000Y-83820000D03*
X93980000Y-81280000D03*
X93980000Y-78740000D03*
X93980000Y-76200000D03*
X93980000Y-73660000D03*
X93980000Y-71120000D03*
X93980000Y-68580000D03*
X93980000Y-66040000D03*
X93980000Y-63500000D03*
X93980000Y-60960000D03*
X93980000Y-58420000D03*
X93980000Y-55880000D03*
X93980000Y-53340000D03*
X91440000Y-114300000D03*
X91440000Y-111760000D03*
X91440000Y-109220000D03*
X91440000Y-106680000D03*
X91440000Y-104140000D03*
X91440000Y-101600000D03*
X91440000Y-99060000D03*
X91440000Y-96520000D03*
X91440000Y-93980000D03*
X91440000Y-91440000D03*
X91440000Y-88900000D03*
X91440000Y-86360000D03*
X91440000Y-83820000D03*
X91440000Y-81280000D03*
X91440000Y-78740000D03*
X91440000Y-76200000D03*
X91440000Y-73660000D03*
X91440000Y-71120000D03*
X91440000Y-68580000D03*
X91440000Y-66040000D03*
X91440000Y-63500000D03*
X91440000Y-60960000D03*
X91440000Y-58420000D03*
X91440000Y-55880000D03*
G36*
G01*
X90590000Y-53940000D02*
X90590000Y-52740000D01*
G75*
G02*
X90840000Y-52490000I250000J0D01*
G01*
X92040000Y-52490000D01*
G75*
G02*
X92290000Y-52740000I0J-250000D01*
G01*
X92290000Y-53940000D01*
G75*
G02*
X92040000Y-54190000I-250000J0D01*
G01*
X90840000Y-54190000D01*
G75*
G02*
X90590000Y-53940000I0J250000D01*
G01*
G37*
D11*
X101600000Y-149636000D03*
X101600000Y-147096000D03*
X101600000Y-144556000D03*
X101600000Y-142016000D03*
X101600000Y-139476000D03*
X101600000Y-136936000D03*
X101600000Y-134396000D03*
X101600000Y-131856000D03*
X101600000Y-129316000D03*
X101600000Y-126776000D03*
X101600000Y-124236000D03*
X101600000Y-121696000D03*
X101600000Y-119156000D03*
X101600000Y-116616000D03*
X101600000Y-114076000D03*
X101600000Y-111536000D03*
X101600000Y-108996000D03*
X101600000Y-106456000D03*
X101600000Y-103916000D03*
X101600000Y-101376000D03*
X101600000Y-98836000D03*
X101600000Y-96296000D03*
X101600000Y-93756000D03*
X101600000Y-91216000D03*
X101600000Y-88676000D03*
X101600000Y-86136000D03*
X101600000Y-83596000D03*
X101600000Y-81056000D03*
X101600000Y-78516000D03*
X101600000Y-75976000D03*
X101600000Y-73436000D03*
X101600000Y-70896000D03*
X101600000Y-68356000D03*
X101600000Y-65816000D03*
X101600000Y-63276000D03*
X101600000Y-60736000D03*
X101600000Y-58196000D03*
X101600000Y-55656000D03*
X101600000Y-53116000D03*
D12*
X101600000Y-50576000D03*
M02*
