G04 #@! TF.GenerationSoftware,KiCad,Pcbnew,(5.1.10-1-10_14)*
G04 #@! TF.CreationDate,2021-11-01T16:25:37+01:00*
G04 #@! TF.ProjectId,idc50_breakout,69646335-305f-4627-9265-616b6f75742e,rev?*
G04 #@! TF.SameCoordinates,Original*
G04 #@! TF.FileFunction,Legend,Top*
G04 #@! TF.FilePolarity,Positive*
%FSLAX46Y46*%
G04 Gerber Fmt 4.6, Leading zero omitted, Abs format (unit mm)*
G04 Created by KiCad (PCBNEW (5.1.10-1-10_14)) date 2021-11-01 16:25:37*
%MOMM*%
%LPD*%
G01*
G04 APERTURE LIST*
%ADD10C,0.120000*%
%ADD11O,1.700000X1.700000*%
%ADD12R,1.700000X1.700000*%
%ADD13C,1.700000*%
G04 APERTURE END LIST*
D10*
X101600000Y-21530000D02*
X102930000Y-21530000D01*
X102930000Y-21530000D02*
X102930000Y-22860000D01*
X102930000Y-24130000D02*
X102930000Y-47050000D01*
X100270000Y-47050000D02*
X102930000Y-47050000D01*
X100270000Y-24130000D02*
X100270000Y-47050000D01*
X100270000Y-24130000D02*
X102930000Y-24130000D01*
X86760000Y-53840000D02*
X87760000Y-53340000D01*
X86760000Y-52840000D02*
X86760000Y-53840000D01*
X87760000Y-53340000D02*
X86760000Y-52840000D01*
X89460000Y-85870000D02*
X88150000Y-85870000D01*
X89460000Y-85870000D02*
X89460000Y-85870000D01*
X89460000Y-118210000D02*
X89460000Y-85870000D01*
X95960000Y-118210000D02*
X89460000Y-118210000D01*
X95960000Y-49430000D02*
X95960000Y-118210000D01*
X89460000Y-49430000D02*
X95960000Y-49430000D01*
X89460000Y-81770000D02*
X89460000Y-49430000D01*
X88150000Y-81770000D02*
X89460000Y-81770000D01*
X88150000Y-119510000D02*
X88150000Y-48130000D01*
X97270000Y-119510000D02*
X88150000Y-119510000D01*
X97270000Y-48130000D02*
X97270000Y-119510000D01*
X88150000Y-48130000D02*
X97270000Y-48130000D01*
X100270000Y-51846000D02*
X102930000Y-51846000D01*
X100270000Y-51846000D02*
X100270000Y-150966000D01*
X100270000Y-150966000D02*
X102930000Y-150966000D01*
X102930000Y-51846000D02*
X102930000Y-150966000D01*
X102930000Y-49246000D02*
X102930000Y-50576000D01*
X101600000Y-49246000D02*
X102930000Y-49246000D01*
%LPC*%
D11*
X101600000Y-45720000D03*
X101600000Y-43180000D03*
X101600000Y-40640000D03*
X101600000Y-38100000D03*
X101600000Y-35560000D03*
X101600000Y-33020000D03*
X101600000Y-30480000D03*
X101600000Y-27940000D03*
X101600000Y-25400000D03*
D12*
X101600000Y-22860000D03*
D13*
X93980000Y-114300000D03*
X93980000Y-111760000D03*
X93980000Y-109220000D03*
X93980000Y-106680000D03*
X93980000Y-104140000D03*
X93980000Y-101600000D03*
X93980000Y-99060000D03*
X93980000Y-96520000D03*
X93980000Y-93980000D03*
X93980000Y-91440000D03*
X93980000Y-88900000D03*
X93980000Y-86360000D03*
X93980000Y-83820000D03*
X93980000Y-81280000D03*
X93980000Y-78740000D03*
X93980000Y-76200000D03*
X93980000Y-73660000D03*
X93980000Y-71120000D03*
X93980000Y-68580000D03*
X93980000Y-66040000D03*
X93980000Y-63500000D03*
X93980000Y-60960000D03*
X93980000Y-58420000D03*
X93980000Y-55880000D03*
X93980000Y-53340000D03*
X91440000Y-114300000D03*
X91440000Y-111760000D03*
X91440000Y-109220000D03*
X91440000Y-106680000D03*
X91440000Y-104140000D03*
X91440000Y-101600000D03*
X91440000Y-99060000D03*
X91440000Y-96520000D03*
X91440000Y-93980000D03*
X91440000Y-91440000D03*
X91440000Y-88900000D03*
X91440000Y-86360000D03*
X91440000Y-83820000D03*
X91440000Y-81280000D03*
X91440000Y-78740000D03*
X91440000Y-76200000D03*
X91440000Y-73660000D03*
X91440000Y-71120000D03*
X91440000Y-68580000D03*
X91440000Y-66040000D03*
X91440000Y-63500000D03*
X91440000Y-60960000D03*
X91440000Y-58420000D03*
X91440000Y-55880000D03*
G36*
G01*
X90590000Y-53940000D02*
X90590000Y-52740000D01*
G75*
G02*
X90840000Y-52490000I250000J0D01*
G01*
X92040000Y-52490000D01*
G75*
G02*
X92290000Y-52740000I0J-250000D01*
G01*
X92290000Y-53940000D01*
G75*
G02*
X92040000Y-54190000I-250000J0D01*
G01*
X90840000Y-54190000D01*
G75*
G02*
X90590000Y-53940000I0J250000D01*
G01*
G37*
D11*
X101600000Y-149636000D03*
X101600000Y-147096000D03*
X101600000Y-144556000D03*
X101600000Y-142016000D03*
X101600000Y-139476000D03*
X101600000Y-136936000D03*
X101600000Y-134396000D03*
X101600000Y-131856000D03*
X101600000Y-129316000D03*
X101600000Y-126776000D03*
X101600000Y-124236000D03*
X101600000Y-121696000D03*
X101600000Y-119156000D03*
X101600000Y-116616000D03*
X101600000Y-114076000D03*
X101600000Y-111536000D03*
X101600000Y-108996000D03*
X101600000Y-106456000D03*
X101600000Y-103916000D03*
X101600000Y-101376000D03*
X101600000Y-98836000D03*
X101600000Y-96296000D03*
X101600000Y-93756000D03*
X101600000Y-91216000D03*
X101600000Y-88676000D03*
X101600000Y-86136000D03*
X101600000Y-83596000D03*
X101600000Y-81056000D03*
X101600000Y-78516000D03*
X101600000Y-75976000D03*
X101600000Y-73436000D03*
X101600000Y-70896000D03*
X101600000Y-68356000D03*
X101600000Y-65816000D03*
X101600000Y-63276000D03*
X101600000Y-60736000D03*
X101600000Y-58196000D03*
X101600000Y-55656000D03*
X101600000Y-53116000D03*
D12*
X101600000Y-50576000D03*
M02*
