%FSLAX45Y45*%
G04 Gerber Fmt 4.5, Leading zero omitted, Abs format (unit mm)*
G04 Created by KiCad (PCBNEW (5.1.10-1-10_14)) date 2021-11-01 16:25:49*
%MOMM*%
%LPD*%
G01*
G04 APERTURE LIST*
%TA.AperFunction,Profile*%
%ADD10C,0.050000*%
%TD*%
%ADD11C,0.200000*%
%ADD12C,0.300000*%
G04 APERTURE END LIST*
D10*
X10414000Y-15199360D02*
X10414000Y-2032000D01*
X8628380Y-15199360D02*
X10414000Y-15199360D01*
X8636000Y-2032000D02*
X8628380Y-15199360D01*
X10414000Y-2032000D02*
X8636000Y-2032000D01*
D11*
D12*
X8912308Y-15667574D02*
X8912308Y-15367574D01*
X8983737Y-15367574D01*
X9026594Y-15381860D01*
X9055166Y-15410431D01*
X9069451Y-15439003D01*
X9083737Y-15496146D01*
X9083737Y-15539003D01*
X9069451Y-15596146D01*
X9055166Y-15624717D01*
X9026594Y-15653289D01*
X8983737Y-15667574D01*
X8912308Y-15667574D01*
X9212308Y-15667574D02*
X9212308Y-15467574D01*
X9212308Y-15524717D02*
X9226594Y-15496146D01*
X9240880Y-15481860D01*
X9269451Y-15467574D01*
X9298023Y-15467574D01*
X9398023Y-15667574D02*
X9398023Y-15467574D01*
X9398023Y-15367574D02*
X9383737Y-15381860D01*
X9398023Y-15396146D01*
X9412308Y-15381860D01*
X9398023Y-15367574D01*
X9398023Y-15396146D01*
X9583737Y-15667574D02*
X9555166Y-15653289D01*
X9540880Y-15624717D01*
X9540880Y-15367574D01*
X9740880Y-15667574D02*
X9712308Y-15653289D01*
X9698023Y-15624717D01*
X9698023Y-15367574D01*
X10083737Y-15667574D02*
X10083737Y-15367574D01*
X10183737Y-15581860D01*
X10283737Y-15367574D01*
X10283737Y-15667574D01*
X10555166Y-15667574D02*
X10555166Y-15510431D01*
X10540880Y-15481860D01*
X10512308Y-15467574D01*
X10455166Y-15467574D01*
X10426594Y-15481860D01*
X10555166Y-15653289D02*
X10526594Y-15667574D01*
X10455166Y-15667574D01*
X10426594Y-15653289D01*
X10412308Y-15624717D01*
X10412308Y-15596146D01*
X10426594Y-15567574D01*
X10455166Y-15553289D01*
X10526594Y-15553289D01*
X10555166Y-15539003D01*
X10698023Y-15467574D02*
X10698023Y-15767574D01*
X10698023Y-15481860D02*
X10726594Y-15467574D01*
X10783737Y-15467574D01*
X10812308Y-15481860D01*
X10826594Y-15496146D01*
X10840880Y-15524717D01*
X10840880Y-15610431D01*
X10826594Y-15639003D01*
X10812308Y-15653289D01*
X10783737Y-15667574D01*
X10726594Y-15667574D01*
X10698023Y-15653289D01*
X10969451Y-15639003D02*
X10983737Y-15653289D01*
X10969451Y-15667574D01*
X10955166Y-15653289D01*
X10969451Y-15639003D01*
X10969451Y-15667574D01*
X10969451Y-15481860D02*
X10983737Y-15496146D01*
X10969451Y-15510431D01*
X10955166Y-15496146D01*
X10969451Y-15481860D01*
X10969451Y-15510431D01*
M02*
