%FSLAX45Y45*%
G04 Gerber Fmt 4.5, Leading zero omitted, Abs format (unit mm)*
G04 Created by KiCad (PCBNEW (5.1.10-1-10_14)) date 2021-11-01 16:25:49*
%MOMM*%
%LPD*%
G01*
G04 APERTURE LIST*
%TA.AperFunction,Profile*%
%ADD10C,0.050000*%
%TD*%
%ADD11C,0.200000*%
%ADD12C,0.300000*%
G04 APERTURE END LIST*
D10*
X10414000Y-15199360D02*
X10414000Y-2032000D01*
X8628380Y-15199360D02*
X10414000Y-15199360D01*
X8636000Y-2032000D02*
X8628380Y-15199360D01*
X10414000Y-2032000D02*
X8636000Y-2032000D01*
D11*
X9094000Y-5284000D02*
X9194000Y-5384000D01*
X9194000Y-5284000D02*
X9094000Y-5384000D01*
X9094000Y-5538000D02*
X9194000Y-5638000D01*
X9194000Y-5538000D02*
X9094000Y-5638000D01*
X9094000Y-5792000D02*
X9194000Y-5892000D01*
X9194000Y-5792000D02*
X9094000Y-5892000D01*
X9094000Y-6046000D02*
X9194000Y-6146000D01*
X9194000Y-6046000D02*
X9094000Y-6146000D01*
X9094000Y-6300000D02*
X9194000Y-6400000D01*
X9194000Y-6300000D02*
X9094000Y-6400000D01*
X9094000Y-6554000D02*
X9194000Y-6654000D01*
X9194000Y-6554000D02*
X9094000Y-6654000D01*
X9094000Y-6808000D02*
X9194000Y-6908000D01*
X9194000Y-6808000D02*
X9094000Y-6908000D01*
X9094000Y-7062000D02*
X9194000Y-7162000D01*
X9194000Y-7062000D02*
X9094000Y-7162000D01*
X9094000Y-7316000D02*
X9194000Y-7416000D01*
X9194000Y-7316000D02*
X9094000Y-7416000D01*
X9094000Y-7570000D02*
X9194000Y-7670000D01*
X9194000Y-7570000D02*
X9094000Y-7670000D01*
X9094000Y-7824000D02*
X9194000Y-7924000D01*
X9194000Y-7824000D02*
X9094000Y-7924000D01*
X9094000Y-8078000D02*
X9194000Y-8178000D01*
X9194000Y-8078000D02*
X9094000Y-8178000D01*
X9094000Y-8332000D02*
X9194000Y-8432000D01*
X9194000Y-8332000D02*
X9094000Y-8432000D01*
X9094000Y-8586000D02*
X9194000Y-8686000D01*
X9194000Y-8586000D02*
X9094000Y-8686000D01*
X9094000Y-8840000D02*
X9194000Y-8940000D01*
X9194000Y-8840000D02*
X9094000Y-8940000D01*
X9094000Y-9094000D02*
X9194000Y-9194000D01*
X9194000Y-9094000D02*
X9094000Y-9194000D01*
X9094000Y-9348000D02*
X9194000Y-9448000D01*
X9194000Y-9348000D02*
X9094000Y-9448000D01*
X9094000Y-9602000D02*
X9194000Y-9702000D01*
X9194000Y-9602000D02*
X9094000Y-9702000D01*
X9094000Y-9856000D02*
X9194000Y-9956000D01*
X9194000Y-9856000D02*
X9094000Y-9956000D01*
X9094000Y-10110000D02*
X9194000Y-10210000D01*
X9194000Y-10110000D02*
X9094000Y-10210000D01*
X9094000Y-10364000D02*
X9194000Y-10464000D01*
X9194000Y-10364000D02*
X9094000Y-10464000D01*
X9094000Y-10618000D02*
X9194000Y-10718000D01*
X9194000Y-10618000D02*
X9094000Y-10718000D01*
X9094000Y-10872000D02*
X9194000Y-10972000D01*
X9194000Y-10872000D02*
X9094000Y-10972000D01*
X9094000Y-11126000D02*
X9194000Y-11226000D01*
X9194000Y-11126000D02*
X9094000Y-11226000D01*
X9094000Y-11380000D02*
X9194000Y-11480000D01*
X9194000Y-11380000D02*
X9094000Y-11480000D01*
X9348000Y-5284000D02*
X9448000Y-5384000D01*
X9448000Y-5284000D02*
X9348000Y-5384000D01*
X9348000Y-5538000D02*
X9448000Y-5638000D01*
X9448000Y-5538000D02*
X9348000Y-5638000D01*
X9348000Y-5792000D02*
X9448000Y-5892000D01*
X9448000Y-5792000D02*
X9348000Y-5892000D01*
X9348000Y-6046000D02*
X9448000Y-6146000D01*
X9448000Y-6046000D02*
X9348000Y-6146000D01*
X9348000Y-6300000D02*
X9448000Y-6400000D01*
X9448000Y-6300000D02*
X9348000Y-6400000D01*
X9348000Y-6554000D02*
X9448000Y-6654000D01*
X9448000Y-6554000D02*
X9348000Y-6654000D01*
X9348000Y-6808000D02*
X9448000Y-6908000D01*
X9448000Y-6808000D02*
X9348000Y-6908000D01*
X9348000Y-7062000D02*
X9448000Y-7162000D01*
X9448000Y-7062000D02*
X9348000Y-7162000D01*
X9348000Y-7316000D02*
X9448000Y-7416000D01*
X9448000Y-7316000D02*
X9348000Y-7416000D01*
X9348000Y-7570000D02*
X9448000Y-7670000D01*
X9448000Y-7570000D02*
X9348000Y-7670000D01*
X9348000Y-7824000D02*
X9448000Y-7924000D01*
X9448000Y-7824000D02*
X9348000Y-7924000D01*
X9348000Y-8078000D02*
X9448000Y-8178000D01*
X9448000Y-8078000D02*
X9348000Y-8178000D01*
X9348000Y-8332000D02*
X9448000Y-8432000D01*
X9448000Y-8332000D02*
X9348000Y-8432000D01*
X9348000Y-8586000D02*
X9448000Y-8686000D01*
X9448000Y-8586000D02*
X9348000Y-8686000D01*
X9348000Y-8840000D02*
X9448000Y-8940000D01*
X9448000Y-8840000D02*
X9348000Y-8940000D01*
X9348000Y-9094000D02*
X9448000Y-9194000D01*
X9448000Y-9094000D02*
X9348000Y-9194000D01*
X9348000Y-9348000D02*
X9448000Y-9448000D01*
X9448000Y-9348000D02*
X9348000Y-9448000D01*
X9348000Y-9602000D02*
X9448000Y-9702000D01*
X9448000Y-9602000D02*
X9348000Y-9702000D01*
X9348000Y-9856000D02*
X9448000Y-9956000D01*
X9448000Y-9856000D02*
X9348000Y-9956000D01*
X9348000Y-10110000D02*
X9448000Y-10210000D01*
X9448000Y-10110000D02*
X9348000Y-10210000D01*
X9348000Y-10364000D02*
X9448000Y-10464000D01*
X9448000Y-10364000D02*
X9348000Y-10464000D01*
X9348000Y-10618000D02*
X9448000Y-10718000D01*
X9448000Y-10618000D02*
X9348000Y-10718000D01*
X9348000Y-10872000D02*
X9448000Y-10972000D01*
X9448000Y-10872000D02*
X9348000Y-10972000D01*
X9348000Y-11126000D02*
X9448000Y-11226000D01*
X9448000Y-11126000D02*
X9348000Y-11226000D01*
X9348000Y-11380000D02*
X9448000Y-11480000D01*
X9448000Y-11380000D02*
X9348000Y-11480000D01*
X10110000Y-2236000D02*
X10210000Y-2336000D01*
X10210000Y-2236000D02*
X10110000Y-2336000D01*
X10110000Y-2490000D02*
X10210000Y-2590000D01*
X10210000Y-2490000D02*
X10110000Y-2590000D01*
X10110000Y-2744000D02*
X10210000Y-2844000D01*
X10210000Y-2744000D02*
X10110000Y-2844000D01*
X10110000Y-2998000D02*
X10210000Y-3098000D01*
X10210000Y-2998000D02*
X10110000Y-3098000D01*
X10110000Y-3252000D02*
X10210000Y-3352000D01*
X10210000Y-3252000D02*
X10110000Y-3352000D01*
X10110000Y-3506000D02*
X10210000Y-3606000D01*
X10210000Y-3506000D02*
X10110000Y-3606000D01*
X10110000Y-3760000D02*
X10210000Y-3860000D01*
X10210000Y-3760000D02*
X10110000Y-3860000D01*
X10110000Y-4014000D02*
X10210000Y-4114000D01*
X10210000Y-4014000D02*
X10110000Y-4114000D01*
X10110000Y-4268000D02*
X10210000Y-4368000D01*
X10210000Y-4268000D02*
X10110000Y-4368000D01*
X10110000Y-4522000D02*
X10210000Y-4622000D01*
X10210000Y-4522000D02*
X10110000Y-4622000D01*
X10110000Y-5007600D02*
X10210000Y-5107600D01*
X10210000Y-5007600D02*
X10110000Y-5107600D01*
X10110000Y-5261600D02*
X10210000Y-5361600D01*
X10210000Y-5261600D02*
X10110000Y-5361600D01*
X10110000Y-5515600D02*
X10210000Y-5615600D01*
X10210000Y-5515600D02*
X10110000Y-5615600D01*
X10110000Y-5769600D02*
X10210000Y-5869600D01*
X10210000Y-5769600D02*
X10110000Y-5869600D01*
X10110000Y-6023600D02*
X10210000Y-6123600D01*
X10210000Y-6023600D02*
X10110000Y-6123600D01*
X10110000Y-6277600D02*
X10210000Y-6377600D01*
X10210000Y-6277600D02*
X10110000Y-6377600D01*
X10110000Y-6531600D02*
X10210000Y-6631600D01*
X10210000Y-6531600D02*
X10110000Y-6631600D01*
X10110000Y-6785600D02*
X10210000Y-6885600D01*
X10210000Y-6785600D02*
X10110000Y-6885600D01*
X10110000Y-7039600D02*
X10210000Y-7139600D01*
X10210000Y-7039600D02*
X10110000Y-7139600D01*
X10110000Y-7293600D02*
X10210000Y-7393600D01*
X10210000Y-7293600D02*
X10110000Y-7393600D01*
X10110000Y-7547600D02*
X10210000Y-7647600D01*
X10210000Y-7547600D02*
X10110000Y-7647600D01*
X10110000Y-7801600D02*
X10210000Y-7901600D01*
X10210000Y-7801600D02*
X10110000Y-7901600D01*
X10110000Y-8055600D02*
X10210000Y-8155600D01*
X10210000Y-8055600D02*
X10110000Y-8155600D01*
X10110000Y-8309600D02*
X10210000Y-8409600D01*
X10210000Y-8309600D02*
X10110000Y-8409600D01*
X10110000Y-8563600D02*
X10210000Y-8663600D01*
X10210000Y-8563600D02*
X10110000Y-8663600D01*
X10110000Y-8817600D02*
X10210000Y-8917600D01*
X10210000Y-8817600D02*
X10110000Y-8917600D01*
X10110000Y-9071600D02*
X10210000Y-9171600D01*
X10210000Y-9071600D02*
X10110000Y-9171600D01*
X10110000Y-9325600D02*
X10210000Y-9425600D01*
X10210000Y-9325600D02*
X10110000Y-9425600D01*
X10110000Y-9579600D02*
X10210000Y-9679600D01*
X10210000Y-9579600D02*
X10110000Y-9679600D01*
X10110000Y-9833600D02*
X10210000Y-9933600D01*
X10210000Y-9833600D02*
X10110000Y-9933600D01*
X10110000Y-10087600D02*
X10210000Y-10187600D01*
X10210000Y-10087600D02*
X10110000Y-10187600D01*
X10110000Y-10341600D02*
X10210000Y-10441600D01*
X10210000Y-10341600D02*
X10110000Y-10441600D01*
X10110000Y-10595600D02*
X10210000Y-10695600D01*
X10210000Y-10595600D02*
X10110000Y-10695600D01*
X10110000Y-10849600D02*
X10210000Y-10949600D01*
X10210000Y-10849600D02*
X10110000Y-10949600D01*
X10110000Y-11103600D02*
X10210000Y-11203600D01*
X10210000Y-11103600D02*
X10110000Y-11203600D01*
X10110000Y-11357600D02*
X10210000Y-11457600D01*
X10210000Y-11357600D02*
X10110000Y-11457600D01*
X10110000Y-11611600D02*
X10210000Y-11711600D01*
X10210000Y-11611600D02*
X10110000Y-11711600D01*
X10110000Y-11865600D02*
X10210000Y-11965600D01*
X10210000Y-11865600D02*
X10110000Y-11965600D01*
X10110000Y-12119600D02*
X10210000Y-12219600D01*
X10210000Y-12119600D02*
X10110000Y-12219600D01*
X10110000Y-12373600D02*
X10210000Y-12473600D01*
X10210000Y-12373600D02*
X10110000Y-12473600D01*
X10110000Y-12627600D02*
X10210000Y-12727600D01*
X10210000Y-12627600D02*
X10110000Y-12727600D01*
X10110000Y-12881600D02*
X10210000Y-12981600D01*
X10210000Y-12881600D02*
X10110000Y-12981600D01*
X10110000Y-13135600D02*
X10210000Y-13235600D01*
X10210000Y-13135600D02*
X10110000Y-13235600D01*
X10110000Y-13389600D02*
X10210000Y-13489600D01*
X10210000Y-13389600D02*
X10110000Y-13489600D01*
X10110000Y-13643600D02*
X10210000Y-13743600D01*
X10210000Y-13643600D02*
X10110000Y-13743600D01*
X10110000Y-13897600D02*
X10210000Y-13997600D01*
X10210000Y-13897600D02*
X10110000Y-13997600D01*
X10110000Y-14151600D02*
X10210000Y-14251600D01*
X10210000Y-14151600D02*
X10110000Y-14251600D01*
X10110000Y-14405600D02*
X10210000Y-14505600D01*
X10210000Y-14405600D02*
X10110000Y-14505600D01*
X10110000Y-14659600D02*
X10210000Y-14759600D01*
X10210000Y-14659600D02*
X10110000Y-14759600D01*
X10110000Y-14913600D02*
X10210000Y-15013600D01*
X10210000Y-14913600D02*
X10110000Y-15013600D01*
D12*
X8912308Y-15667574D02*
X8912308Y-15367574D01*
X8983737Y-15367574D01*
X9026594Y-15381860D01*
X9055166Y-15410431D01*
X9069451Y-15439003D01*
X9083737Y-15496146D01*
X9083737Y-15539003D01*
X9069451Y-15596146D01*
X9055166Y-15624717D01*
X9026594Y-15653289D01*
X8983737Y-15667574D01*
X8912308Y-15667574D01*
X9212308Y-15667574D02*
X9212308Y-15467574D01*
X9212308Y-15524717D02*
X9226594Y-15496146D01*
X9240880Y-15481860D01*
X9269451Y-15467574D01*
X9298023Y-15467574D01*
X9398023Y-15667574D02*
X9398023Y-15467574D01*
X9398023Y-15367574D02*
X9383737Y-15381860D01*
X9398023Y-15396146D01*
X9412308Y-15381860D01*
X9398023Y-15367574D01*
X9398023Y-15396146D01*
X9583737Y-15667574D02*
X9555166Y-15653289D01*
X9540880Y-15624717D01*
X9540880Y-15367574D01*
X9740880Y-15667574D02*
X9712308Y-15653289D01*
X9698023Y-15624717D01*
X9698023Y-15367574D01*
X10083737Y-15667574D02*
X10083737Y-15367574D01*
X10183737Y-15581860D01*
X10283737Y-15367574D01*
X10283737Y-15667574D01*
X10555166Y-15667574D02*
X10555166Y-15510431D01*
X10540880Y-15481860D01*
X10512308Y-15467574D01*
X10455166Y-15467574D01*
X10426594Y-15481860D01*
X10555166Y-15653289D02*
X10526594Y-15667574D01*
X10455166Y-15667574D01*
X10426594Y-15653289D01*
X10412308Y-15624717D01*
X10412308Y-15596146D01*
X10426594Y-15567574D01*
X10455166Y-15553289D01*
X10526594Y-15553289D01*
X10555166Y-15539003D01*
X10698023Y-15467574D02*
X10698023Y-15767574D01*
X10698023Y-15481860D02*
X10726594Y-15467574D01*
X10783737Y-15467574D01*
X10812308Y-15481860D01*
X10826594Y-15496146D01*
X10840880Y-15524717D01*
X10840880Y-15610431D01*
X10826594Y-15639003D01*
X10812308Y-15653289D01*
X10783737Y-15667574D01*
X10726594Y-15667574D01*
X10698023Y-15653289D01*
X10969451Y-15639003D02*
X10983737Y-15653289D01*
X10969451Y-15667574D01*
X10955166Y-15653289D01*
X10969451Y-15639003D01*
X10969451Y-15667574D01*
X10969451Y-15481860D02*
X10983737Y-15496146D01*
X10969451Y-15510431D01*
X10955166Y-15496146D01*
X10969451Y-15481860D01*
X10969451Y-15510431D01*
X8525880Y-16111860D02*
X8625880Y-16211860D01*
X8625880Y-16111860D02*
X8525880Y-16211860D01*
X9069451Y-16297574D02*
X8898023Y-16297574D01*
X8983737Y-16297574D02*
X8983737Y-15997574D01*
X8955166Y-16040431D01*
X8926594Y-16069003D01*
X8898023Y-16083289D01*
X9198023Y-16269003D02*
X9212308Y-16283289D01*
X9198023Y-16297574D01*
X9183737Y-16283289D01*
X9198023Y-16269003D01*
X9198023Y-16297574D01*
X9398023Y-15997574D02*
X9426594Y-15997574D01*
X9455166Y-16011860D01*
X9469451Y-16026146D01*
X9483737Y-16054717D01*
X9498023Y-16111860D01*
X9498023Y-16183289D01*
X9483737Y-16240431D01*
X9469451Y-16269003D01*
X9455166Y-16283289D01*
X9426594Y-16297574D01*
X9398023Y-16297574D01*
X9369451Y-16283289D01*
X9355166Y-16269003D01*
X9340880Y-16240431D01*
X9326594Y-16183289D01*
X9326594Y-16111860D01*
X9340880Y-16054717D01*
X9355166Y-16026146D01*
X9369451Y-16011860D01*
X9398023Y-15997574D01*
X9683737Y-15997574D02*
X9712308Y-15997574D01*
X9740880Y-16011860D01*
X9755166Y-16026146D01*
X9769451Y-16054717D01*
X9783737Y-16111860D01*
X9783737Y-16183289D01*
X9769451Y-16240431D01*
X9755166Y-16269003D01*
X9740880Y-16283289D01*
X9712308Y-16297574D01*
X9683737Y-16297574D01*
X9655166Y-16283289D01*
X9640880Y-16269003D01*
X9626594Y-16240431D01*
X9612308Y-16183289D01*
X9612308Y-16111860D01*
X9626594Y-16054717D01*
X9640880Y-16026146D01*
X9655166Y-16011860D01*
X9683737Y-15997574D01*
X9969451Y-15997574D02*
X9998023Y-15997574D01*
X10026594Y-16011860D01*
X10040880Y-16026146D01*
X10055166Y-16054717D01*
X10069451Y-16111860D01*
X10069451Y-16183289D01*
X10055166Y-16240431D01*
X10040880Y-16269003D01*
X10026594Y-16283289D01*
X9998023Y-16297574D01*
X9969451Y-16297574D01*
X9940880Y-16283289D01*
X9926594Y-16269003D01*
X9912308Y-16240431D01*
X9898023Y-16183289D01*
X9898023Y-16111860D01*
X9912308Y-16054717D01*
X9926594Y-16026146D01*
X9940880Y-16011860D01*
X9969451Y-15997574D01*
X10198023Y-16297574D02*
X10198023Y-16097574D01*
X10198023Y-16126146D02*
X10212308Y-16111860D01*
X10240880Y-16097574D01*
X10283737Y-16097574D01*
X10312308Y-16111860D01*
X10326594Y-16140431D01*
X10326594Y-16297574D01*
X10326594Y-16140431D02*
X10340880Y-16111860D01*
X10369451Y-16097574D01*
X10412308Y-16097574D01*
X10440880Y-16111860D01*
X10455166Y-16140431D01*
X10455166Y-16297574D01*
X10598023Y-16297574D02*
X10598023Y-16097574D01*
X10598023Y-16126146D02*
X10612308Y-16111860D01*
X10640880Y-16097574D01*
X10683737Y-16097574D01*
X10712308Y-16111860D01*
X10726594Y-16140431D01*
X10726594Y-16297574D01*
X10726594Y-16140431D02*
X10740880Y-16111860D01*
X10769451Y-16097574D01*
X10812308Y-16097574D01*
X10840880Y-16111860D01*
X10855166Y-16140431D01*
X10855166Y-16297574D01*
X11440880Y-15983289D02*
X11183737Y-16369003D01*
X11826594Y-15997574D02*
X11855166Y-15997574D01*
X11883737Y-16011860D01*
X11898023Y-16026146D01*
X11912308Y-16054717D01*
X11926594Y-16111860D01*
X11926594Y-16183289D01*
X11912308Y-16240431D01*
X11898023Y-16269003D01*
X11883737Y-16283289D01*
X11855166Y-16297574D01*
X11826594Y-16297574D01*
X11798023Y-16283289D01*
X11783737Y-16269003D01*
X11769451Y-16240431D01*
X11755166Y-16183289D01*
X11755166Y-16111860D01*
X11769451Y-16054717D01*
X11783737Y-16026146D01*
X11798023Y-16011860D01*
X11826594Y-15997574D01*
X12055166Y-16269003D02*
X12069451Y-16283289D01*
X12055166Y-16297574D01*
X12040880Y-16283289D01*
X12055166Y-16269003D01*
X12055166Y-16297574D01*
X12255166Y-15997574D02*
X12283737Y-15997574D01*
X12312308Y-16011860D01*
X12326594Y-16026146D01*
X12340880Y-16054717D01*
X12355166Y-16111860D01*
X12355166Y-16183289D01*
X12340880Y-16240431D01*
X12326594Y-16269003D01*
X12312308Y-16283289D01*
X12283737Y-16297574D01*
X12255166Y-16297574D01*
X12226594Y-16283289D01*
X12212308Y-16269003D01*
X12198023Y-16240431D01*
X12183737Y-16183289D01*
X12183737Y-16111860D01*
X12198023Y-16054717D01*
X12212308Y-16026146D01*
X12226594Y-16011860D01*
X12255166Y-15997574D01*
X12455166Y-15997574D02*
X12640880Y-15997574D01*
X12540880Y-16111860D01*
X12583737Y-16111860D01*
X12612308Y-16126146D01*
X12626594Y-16140431D01*
X12640880Y-16169003D01*
X12640880Y-16240431D01*
X12626594Y-16269003D01*
X12612308Y-16283289D01*
X12583737Y-16297574D01*
X12498023Y-16297574D01*
X12469451Y-16283289D01*
X12455166Y-16269003D01*
X12783737Y-16297574D02*
X12840880Y-16297574D01*
X12869451Y-16283289D01*
X12883737Y-16269003D01*
X12912308Y-16226146D01*
X12926594Y-16169003D01*
X12926594Y-16054717D01*
X12912308Y-16026146D01*
X12898023Y-16011860D01*
X12869451Y-15997574D01*
X12812308Y-15997574D01*
X12783737Y-16011860D01*
X12769451Y-16026146D01*
X12755166Y-16054717D01*
X12755166Y-16126146D01*
X12769451Y-16154717D01*
X12783737Y-16169003D01*
X12812308Y-16183289D01*
X12869451Y-16183289D01*
X12898023Y-16169003D01*
X12912308Y-16154717D01*
X12926594Y-16126146D01*
X13183737Y-16097574D02*
X13183737Y-16297574D01*
X13112308Y-15983289D02*
X13040880Y-16197574D01*
X13226594Y-16197574D01*
X13326594Y-15997574D02*
X13326594Y-16054717D01*
X13440880Y-15997574D02*
X13440880Y-16054717D01*
X13883737Y-16411860D02*
X13869451Y-16397574D01*
X13840880Y-16354717D01*
X13826594Y-16326146D01*
X13812308Y-16283289D01*
X13798023Y-16211860D01*
X13798023Y-16154717D01*
X13812308Y-16083289D01*
X13826594Y-16040431D01*
X13840880Y-16011860D01*
X13869451Y-15969003D01*
X13883737Y-15954717D01*
X14155166Y-16297574D02*
X13983737Y-16297574D01*
X14069451Y-16297574D02*
X14069451Y-15997574D01*
X14040880Y-16040431D01*
X14012308Y-16069003D01*
X13983737Y-16083289D01*
X14340880Y-15997574D02*
X14369451Y-15997574D01*
X14398023Y-16011860D01*
X14412308Y-16026146D01*
X14426594Y-16054717D01*
X14440880Y-16111860D01*
X14440880Y-16183289D01*
X14426594Y-16240431D01*
X14412308Y-16269003D01*
X14398023Y-16283289D01*
X14369451Y-16297574D01*
X14340880Y-16297574D01*
X14312308Y-16283289D01*
X14298023Y-16269003D01*
X14283737Y-16240431D01*
X14269451Y-16183289D01*
X14269451Y-16111860D01*
X14283737Y-16054717D01*
X14298023Y-16026146D01*
X14312308Y-16011860D01*
X14340880Y-15997574D01*
X14626594Y-15997574D02*
X14655166Y-15997574D01*
X14683737Y-16011860D01*
X14698023Y-16026146D01*
X14712308Y-16054717D01*
X14726594Y-16111860D01*
X14726594Y-16183289D01*
X14712308Y-16240431D01*
X14698023Y-16269003D01*
X14683737Y-16283289D01*
X14655166Y-16297574D01*
X14626594Y-16297574D01*
X14598023Y-16283289D01*
X14583737Y-16269003D01*
X14569451Y-16240431D01*
X14555166Y-16183289D01*
X14555166Y-16111860D01*
X14569451Y-16054717D01*
X14583737Y-16026146D01*
X14598023Y-16011860D01*
X14626594Y-15997574D01*
X15083737Y-16297574D02*
X15083737Y-15997574D01*
X15212308Y-16297574D02*
X15212308Y-16140431D01*
X15198023Y-16111860D01*
X15169451Y-16097574D01*
X15126594Y-16097574D01*
X15098023Y-16111860D01*
X15083737Y-16126146D01*
X15398023Y-16297574D02*
X15369451Y-16283289D01*
X15355166Y-16269003D01*
X15340880Y-16240431D01*
X15340880Y-16154717D01*
X15355166Y-16126146D01*
X15369451Y-16111860D01*
X15398023Y-16097574D01*
X15440880Y-16097574D01*
X15469451Y-16111860D01*
X15483737Y-16126146D01*
X15498023Y-16154717D01*
X15498023Y-16240431D01*
X15483737Y-16269003D01*
X15469451Y-16283289D01*
X15440880Y-16297574D01*
X15398023Y-16297574D01*
X15669451Y-16297574D02*
X15640880Y-16283289D01*
X15626594Y-16254717D01*
X15626594Y-15997574D01*
X15898023Y-16283289D02*
X15869451Y-16297574D01*
X15812308Y-16297574D01*
X15783737Y-16283289D01*
X15769451Y-16254717D01*
X15769451Y-16140431D01*
X15783737Y-16111860D01*
X15812308Y-16097574D01*
X15869451Y-16097574D01*
X15898023Y-16111860D01*
X15912308Y-16140431D01*
X15912308Y-16169003D01*
X15769451Y-16197574D01*
X16026594Y-16283289D02*
X16055166Y-16297574D01*
X16112308Y-16297574D01*
X16140880Y-16283289D01*
X16155166Y-16254717D01*
X16155166Y-16240431D01*
X16140880Y-16211860D01*
X16112308Y-16197574D01*
X16069451Y-16197574D01*
X16040880Y-16183289D01*
X16026594Y-16154717D01*
X16026594Y-16140431D01*
X16040880Y-16111860D01*
X16069451Y-16097574D01*
X16112308Y-16097574D01*
X16140880Y-16111860D01*
X16255166Y-16411860D02*
X16269451Y-16397574D01*
X16298023Y-16354717D01*
X16312308Y-16326146D01*
X16326594Y-16283289D01*
X16340880Y-16211860D01*
X16340880Y-16154717D01*
X16326594Y-16083289D01*
X16312308Y-16040431D01*
X16298023Y-16011860D01*
X16269451Y-15969003D01*
X16255166Y-15954717D01*
M02*
