M48
; DRILL file {KiCad (5.1.10-1-10_14)} date Monday, November 01, 2021 at 04:25:48 PM
; FORMAT={-:-/ absolute / metric / decimal}
; #@! TF.CreationDate,2021-11-01T16:25:48+01:00
; #@! TF.GenerationSoftware,Kicad,Pcbnew,(5.1.10-1-10_14)
; #@! TF.FileFunction,Plated,1,2,PTH
FMAT,2
METRIC
T1C1.000
%
G90
G05
T1
X91.44Y-53.34
X91.44Y-55.88
X91.44Y-58.42
X91.44Y-60.96
X91.44Y-63.5
X91.44Y-66.04
X91.44Y-68.58
X91.44Y-71.12
X91.44Y-73.66
X91.44Y-76.2
X91.44Y-78.74
X91.44Y-81.28
X91.44Y-83.82
X91.44Y-86.36
X91.44Y-88.9
X91.44Y-91.44
X91.44Y-93.98
X91.44Y-96.52
X91.44Y-99.06
X91.44Y-101.6
X91.44Y-104.14
X91.44Y-106.68
X91.44Y-109.22
X91.44Y-111.76
X91.44Y-114.3
X93.98Y-53.34
X93.98Y-55.88
X93.98Y-58.42
X93.98Y-60.96
X93.98Y-63.5
X93.98Y-66.04
X93.98Y-68.58
X93.98Y-71.12
X93.98Y-73.66
X93.98Y-76.2
X93.98Y-78.74
X93.98Y-81.28
X93.98Y-83.82
X93.98Y-86.36
X93.98Y-88.9
X93.98Y-91.44
X93.98Y-93.98
X93.98Y-96.52
X93.98Y-99.06
X93.98Y-101.6
X93.98Y-104.14
X93.98Y-106.68
X93.98Y-109.22
X93.98Y-111.76
X93.98Y-114.3
X101.6Y-22.86
X101.6Y-25.4
X101.6Y-27.94
X101.6Y-30.48
X101.6Y-33.02
X101.6Y-35.56
X101.6Y-38.1
X101.6Y-40.64
X101.6Y-43.18
X101.6Y-45.72
X101.6Y-50.576
X101.6Y-53.116
X101.6Y-55.656
X101.6Y-58.196
X101.6Y-60.736
X101.6Y-63.276
X101.6Y-65.816
X101.6Y-68.356
X101.6Y-70.896
X101.6Y-73.436
X101.6Y-75.976
X101.6Y-78.516
X101.6Y-81.056
X101.6Y-83.596
X101.6Y-86.136
X101.6Y-88.676
X101.6Y-91.216
X101.6Y-93.756
X101.6Y-96.296
X101.6Y-98.836
X101.6Y-101.376
X101.6Y-103.916
X101.6Y-106.456
X101.6Y-108.996
X101.6Y-111.536
X101.6Y-114.076
X101.6Y-116.616
X101.6Y-119.156
X101.6Y-121.696
X101.6Y-124.236
X101.6Y-126.776
X101.6Y-129.316
X101.6Y-131.856
X101.6Y-134.396
X101.6Y-136.936
X101.6Y-139.476
X101.6Y-142.016
X101.6Y-144.556
X101.6Y-147.096
X101.6Y-149.636
T0
M30
