%TF.GenerationSoftware,KiCad,Pcbnew,(5.1.10-1-10_14)*%
%TF.CreationDate,2021-08-04T23:39:18+02:00*%
%TF.ProjectId,idc40_breakout,69646334-305f-4627-9265-616b6f75742e,rev?*%
%TF.SameCoordinates,Original*%
%TF.FileFunction,Copper,L2,Bot*%
%TF.FilePolarity,Positive*%
%FSLAX46Y46*%
G04 Gerber Fmt 4.6, Leading zero omitted, Abs format (unit mm)*
G04 Created by KiCad (PCBNEW (5.1.10-1-10_14)) date 2021-08-04 23:39:18*
%MOMM*%
%LPD*%
G01*
G04 APERTURE LIST*
%TA.AperFunction,ComponentPad*%
%ADD10C,1.700000*%
%TD*%
%TA.AperFunction,ComponentPad*%
%ADD11O,1.700000X1.700000*%
%TD*%
%TA.AperFunction,ComponentPad*%
%ADD12R,1.700000X1.700000*%
%TD*%
G04 APERTURE END LIST*
D10*
%TO.P,J2,40*%
%TO.N,Net-(J1-Pad40)*%
X96621600Y-114046000D03*
%TO.P,J2,38*%
%TO.N,Net-(J1-Pad38)*%
X96621600Y-111506000D03*
%TO.P,J2,36*%
%TO.N,Net-(J1-Pad36)*%
X96621600Y-108966000D03*
%TO.P,J2,34*%
%TO.N,Net-(J1-Pad34)*%
X96621600Y-106426000D03*
%TO.P,J2,32*%
%TO.N,Net-(J1-Pad32)*%
X96621600Y-103886000D03*
%TO.P,J2,30*%
%TO.N,Net-(J1-Pad30)*%
X96621600Y-101346000D03*
%TO.P,J2,28*%
%TO.N,Net-(J1-Pad28)*%
X96621600Y-98806000D03*
%TO.P,J2,26*%
%TO.N,Net-(J1-Pad26)*%
X96621600Y-96266000D03*
%TO.P,J2,24*%
%TO.N,Net-(J1-Pad24)*%
X96621600Y-93726000D03*
%TO.P,J2,22*%
%TO.N,Net-(J1-Pad22)*%
X96621600Y-91186000D03*
%TO.P,J2,20*%
%TO.N,Net-(J1-Pad20)*%
X96621600Y-88646000D03*
%TO.P,J2,18*%
%TO.N,Net-(J1-Pad18)*%
X96621600Y-86106000D03*
%TO.P,J2,16*%
%TO.N,Net-(J1-Pad16)*%
X96621600Y-83566000D03*
%TO.P,J2,14*%
%TO.N,Net-(J1-Pad14)*%
X96621600Y-81026000D03*
%TO.P,J2,12*%
%TO.N,Net-(J1-Pad12)*%
X96621600Y-78486000D03*
%TO.P,J2,10*%
%TO.N,Net-(J1-Pad10)*%
X96621600Y-75946000D03*
%TO.P,J2,8*%
%TO.N,Net-(J1-Pad8)*%
X96621600Y-73406000D03*
%TO.P,J2,6*%
%TO.N,Net-(J1-Pad6)*%
X96621600Y-70866000D03*
%TO.P,J2,4*%
%TO.N,Net-(J1-Pad4)*%
X96621600Y-68326000D03*
%TO.P,J2,2*%
%TO.N,Net-(J1-Pad2)*%
X96621600Y-65786000D03*
%TO.P,J2,39*%
%TO.N,Net-(J1-Pad39)*%
X94081600Y-114046000D03*
%TO.P,J2,37*%
%TO.N,Net-(J1-Pad37)*%
X94081600Y-111506000D03*
%TO.P,J2,35*%
%TO.N,Net-(J1-Pad35)*%
X94081600Y-108966000D03*
%TO.P,J2,33*%
%TO.N,Net-(J1-Pad33)*%
X94081600Y-106426000D03*
%TO.P,J2,31*%
%TO.N,Net-(J1-Pad31)*%
X94081600Y-103886000D03*
%TO.P,J2,29*%
%TO.N,Net-(J1-Pad29)*%
X94081600Y-101346000D03*
%TO.P,J2,27*%
%TO.N,Net-(J1-Pad27)*%
X94081600Y-98806000D03*
%TO.P,J2,25*%
%TO.N,Net-(J1-Pad25)*%
X94081600Y-96266000D03*
%TO.P,J2,23*%
%TO.N,Net-(J1-Pad23)*%
X94081600Y-93726000D03*
%TO.P,J2,21*%
%TO.N,Net-(J1-Pad21)*%
X94081600Y-91186000D03*
%TO.P,J2,19*%
%TO.N,Net-(J1-Pad19)*%
X94081600Y-88646000D03*
%TO.P,J2,17*%
%TO.N,Net-(J1-Pad17)*%
X94081600Y-86106000D03*
%TO.P,J2,15*%
%TO.N,Net-(J1-Pad15)*%
X94081600Y-83566000D03*
%TO.P,J2,13*%
%TO.N,Net-(J1-Pad13)*%
X94081600Y-81026000D03*
%TO.P,J2,11*%
%TO.N,Net-(J1-Pad11)*%
X94081600Y-78486000D03*
%TO.P,J2,9*%
%TO.N,Net-(J1-Pad9)*%
X94081600Y-75946000D03*
%TO.P,J2,7*%
%TO.N,Net-(J1-Pad7)*%
X94081600Y-73406000D03*
%TO.P,J2,5*%
%TO.N,Net-(J1-Pad5)*%
X94081600Y-70866000D03*
%TO.P,J2,3*%
%TO.N,Net-(J1-Pad3)*%
X94081600Y-68326000D03*
%TO.P,J2,1*%
%TO.N,Net-(J1-Pad1)*%
%TA.AperFunction,ComponentPad*%
G36*
G01*
X93231600Y-66386000D02*
X93231600Y-65186000D01*
G75*
G02*
X93481600Y-64936000I250000J0D01*
G01*
X94681600Y-64936000D01*
G75*
G02*
X94931600Y-65186000I0J-250000D01*
G01*
X94931600Y-66386000D01*
G75*
G02*
X94681600Y-66636000I-250000J0D01*
G01*
X93481600Y-66636000D01*
G75*
G02*
X93231600Y-66386000I0J250000D01*
G01*
G37*
%TD.AperFunction*%
%TD*%
D11*
%TO.P,J1,40*%
%TO.N,Net-(J1-Pad40)*%
X103555800Y-139476000D03*
%TO.P,J1,39*%
%TO.N,Net-(J1-Pad39)*%
X103555800Y-136936000D03*
%TO.P,J1,38*%
%TO.N,Net-(J1-Pad38)*%
X103555800Y-134396000D03*
%TO.P,J1,37*%
%TO.N,Net-(J1-Pad37)*%
X103555800Y-131856000D03*
%TO.P,J1,36*%
%TO.N,Net-(J1-Pad36)*%
X103555800Y-129316000D03*
%TO.P,J1,35*%
%TO.N,Net-(J1-Pad35)*%
X103555800Y-126776000D03*
%TO.P,J1,34*%
%TO.N,Net-(J1-Pad34)*%
X103555800Y-124236000D03*
%TO.P,J1,33*%
%TO.N,Net-(J1-Pad33)*%
X103555800Y-121696000D03*
%TO.P,J1,32*%
%TO.N,Net-(J1-Pad32)*%
X103555800Y-119156000D03*
%TO.P,J1,31*%
%TO.N,Net-(J1-Pad31)*%
X103555800Y-116616000D03*
%TO.P,J1,30*%
%TO.N,Net-(J1-Pad30)*%
X103555800Y-114076000D03*
%TO.P,J1,29*%
%TO.N,Net-(J1-Pad29)*%
X103555800Y-111536000D03*
%TO.P,J1,28*%
%TO.N,Net-(J1-Pad28)*%
X103555800Y-108996000D03*
%TO.P,J1,27*%
%TO.N,Net-(J1-Pad27)*%
X103555800Y-106456000D03*
%TO.P,J1,26*%
%TO.N,Net-(J1-Pad26)*%
X103555800Y-103916000D03*
%TO.P,J1,25*%
%TO.N,Net-(J1-Pad25)*%
X103555800Y-101376000D03*
%TO.P,J1,24*%
%TO.N,Net-(J1-Pad24)*%
X103555800Y-98836000D03*
%TO.P,J1,23*%
%TO.N,Net-(J1-Pad23)*%
X103555800Y-96296000D03*
%TO.P,J1,22*%
%TO.N,Net-(J1-Pad22)*%
X103555800Y-93756000D03*
%TO.P,J1,21*%
%TO.N,Net-(J1-Pad21)*%
X103555800Y-91216000D03*
%TO.P,J1,20*%
%TO.N,Net-(J1-Pad20)*%
X103555800Y-88676000D03*
%TO.P,J1,19*%
%TO.N,Net-(J1-Pad19)*%
X103555800Y-86136000D03*
%TO.P,J1,18*%
%TO.N,Net-(J1-Pad18)*%
X103555800Y-83596000D03*
%TO.P,J1,17*%
%TO.N,Net-(J1-Pad17)*%
X103555800Y-81056000D03*
%TO.P,J1,16*%
%TO.N,Net-(J1-Pad16)*%
X103555800Y-78516000D03*
%TO.P,J1,15*%
%TO.N,Net-(J1-Pad15)*%
X103555800Y-75976000D03*
%TO.P,J1,14*%
%TO.N,Net-(J1-Pad14)*%
X103555800Y-73436000D03*
%TO.P,J1,13*%
%TO.N,Net-(J1-Pad13)*%
X103555800Y-70896000D03*
%TO.P,J1,12*%
%TO.N,Net-(J1-Pad12)*%
X103555800Y-68356000D03*
%TO.P,J1,11*%
%TO.N,Net-(J1-Pad11)*%
X103555800Y-65816000D03*
%TO.P,J1,10*%
%TO.N,Net-(J1-Pad10)*%
X103555800Y-63276000D03*
%TO.P,J1,9*%
%TO.N,Net-(J1-Pad9)*%
X103555800Y-60736000D03*
%TO.P,J1,8*%
%TO.N,Net-(J1-Pad8)*%
X103555800Y-58196000D03*
%TO.P,J1,7*%
%TO.N,Net-(J1-Pad7)*%
X103555800Y-55656000D03*
%TO.P,J1,6*%
%TO.N,Net-(J1-Pad6)*%
X103555800Y-53116000D03*
%TO.P,J1,5*%
%TO.N,Net-(J1-Pad5)*%
X103555800Y-50576000D03*
%TO.P,J1,4*%
%TO.N,Net-(J1-Pad4)*%
X103555800Y-48036000D03*
%TO.P,J1,3*%
%TO.N,Net-(J1-Pad3)*%
X103555800Y-45496000D03*
%TO.P,J1,2*%
%TO.N,Net-(J1-Pad2)*%
X103555800Y-42956000D03*
D12*
%TO.P,J1,1*%
%TO.N,Net-(J1-Pad1)*%
X103555800Y-40416000D03*
%TD*%
M02*
