%TF.GenerationSoftware,KiCad,Pcbnew,(5.1.10-1-10_14)*%
%TF.CreationDate,2021-08-04T23:39:18+02:00*%
%TF.ProjectId,idc40_breakout,69646334-305f-4627-9265-616b6f75742e,rev?*%
%TF.SameCoordinates,Original*%
%TF.FileFunction,Copper,L1,Top*%
%TF.FilePolarity,Positive*%
%FSLAX46Y46*%
G04 Gerber Fmt 4.6, Leading zero omitted, Abs format (unit mm)*
G04 Created by KiCad (PCBNEW (5.1.10-1-10_14)) date 2021-08-04 23:39:18*
%MOMM*%
%LPD*%
G01*
G04 APERTURE LIST*
%TA.AperFunction,ComponentPad*%
%ADD10C,1.700000*%
%TD*%
%TA.AperFunction,ComponentPad*%
%ADD11O,1.700000X1.700000*%
%TD*%
%TA.AperFunction,ComponentPad*%
%ADD12R,1.700000X1.700000*%
%TD*%
%TA.AperFunction,Conductor*%
%ADD13C,0.250000*%
%TD*%
G04 APERTURE END LIST*
D10*
%TO.P,J2,40*%
%TO.N,Net-(J1-Pad40)*%
X96621600Y-114046000D03*
%TO.P,J2,38*%
%TO.N,Net-(J1-Pad38)*%
X96621600Y-111506000D03*
%TO.P,J2,36*%
%TO.N,Net-(J1-Pad36)*%
X96621600Y-108966000D03*
%TO.P,J2,34*%
%TO.N,Net-(J1-Pad34)*%
X96621600Y-106426000D03*
%TO.P,J2,32*%
%TO.N,Net-(J1-Pad32)*%
X96621600Y-103886000D03*
%TO.P,J2,30*%
%TO.N,Net-(J1-Pad30)*%
X96621600Y-101346000D03*
%TO.P,J2,28*%
%TO.N,Net-(J1-Pad28)*%
X96621600Y-98806000D03*
%TO.P,J2,26*%
%TO.N,Net-(J1-Pad26)*%
X96621600Y-96266000D03*
%TO.P,J2,24*%
%TO.N,Net-(J1-Pad24)*%
X96621600Y-93726000D03*
%TO.P,J2,22*%
%TO.N,Net-(J1-Pad22)*%
X96621600Y-91186000D03*
%TO.P,J2,20*%
%TO.N,Net-(J1-Pad20)*%
X96621600Y-88646000D03*
%TO.P,J2,18*%
%TO.N,Net-(J1-Pad18)*%
X96621600Y-86106000D03*
%TO.P,J2,16*%
%TO.N,Net-(J1-Pad16)*%
X96621600Y-83566000D03*
%TO.P,J2,14*%
%TO.N,Net-(J1-Pad14)*%
X96621600Y-81026000D03*
%TO.P,J2,12*%
%TO.N,Net-(J1-Pad12)*%
X96621600Y-78486000D03*
%TO.P,J2,10*%
%TO.N,Net-(J1-Pad10)*%
X96621600Y-75946000D03*
%TO.P,J2,8*%
%TO.N,Net-(J1-Pad8)*%
X96621600Y-73406000D03*
%TO.P,J2,6*%
%TO.N,Net-(J1-Pad6)*%
X96621600Y-70866000D03*
%TO.P,J2,4*%
%TO.N,Net-(J1-Pad4)*%
X96621600Y-68326000D03*
%TO.P,J2,2*%
%TO.N,Net-(J1-Pad2)*%
X96621600Y-65786000D03*
%TO.P,J2,39*%
%TO.N,Net-(J1-Pad39)*%
X94081600Y-114046000D03*
%TO.P,J2,37*%
%TO.N,Net-(J1-Pad37)*%
X94081600Y-111506000D03*
%TO.P,J2,35*%
%TO.N,Net-(J1-Pad35)*%
X94081600Y-108966000D03*
%TO.P,J2,33*%
%TO.N,Net-(J1-Pad33)*%
X94081600Y-106426000D03*
%TO.P,J2,31*%
%TO.N,Net-(J1-Pad31)*%
X94081600Y-103886000D03*
%TO.P,J2,29*%
%TO.N,Net-(J1-Pad29)*%
X94081600Y-101346000D03*
%TO.P,J2,27*%
%TO.N,Net-(J1-Pad27)*%
X94081600Y-98806000D03*
%TO.P,J2,25*%
%TO.N,Net-(J1-Pad25)*%
X94081600Y-96266000D03*
%TO.P,J2,23*%
%TO.N,Net-(J1-Pad23)*%
X94081600Y-93726000D03*
%TO.P,J2,21*%
%TO.N,Net-(J1-Pad21)*%
X94081600Y-91186000D03*
%TO.P,J2,19*%
%TO.N,Net-(J1-Pad19)*%
X94081600Y-88646000D03*
%TO.P,J2,17*%
%TO.N,Net-(J1-Pad17)*%
X94081600Y-86106000D03*
%TO.P,J2,15*%
%TO.N,Net-(J1-Pad15)*%
X94081600Y-83566000D03*
%TO.P,J2,13*%
%TO.N,Net-(J1-Pad13)*%
X94081600Y-81026000D03*
%TO.P,J2,11*%
%TO.N,Net-(J1-Pad11)*%
X94081600Y-78486000D03*
%TO.P,J2,9*%
%TO.N,Net-(J1-Pad9)*%
X94081600Y-75946000D03*
%TO.P,J2,7*%
%TO.N,Net-(J1-Pad7)*%
X94081600Y-73406000D03*
%TO.P,J2,5*%
%TO.N,Net-(J1-Pad5)*%
X94081600Y-70866000D03*
%TO.P,J2,3*%
%TO.N,Net-(J1-Pad3)*%
X94081600Y-68326000D03*
%TO.P,J2,1*%
%TO.N,Net-(J1-Pad1)*%
%TA.AperFunction,ComponentPad*%
G36*
G01*
X93231600Y-66386000D02*
X93231600Y-65186000D01*
G75*
G02*
X93481600Y-64936000I250000J0D01*
G01*
X94681600Y-64936000D01*
G75*
G02*
X94931600Y-65186000I0J-250000D01*
G01*
X94931600Y-66386000D01*
G75*
G02*
X94681600Y-66636000I-250000J0D01*
G01*
X93481600Y-66636000D01*
G75*
G02*
X93231600Y-66386000I0J250000D01*
G01*
G37*
%TD.AperFunction*%
%TD*%
D11*
%TO.P,J1,40*%
%TO.N,Net-(J1-Pad40)*%
X103555800Y-139476000D03*
%TO.P,J1,39*%
%TO.N,Net-(J1-Pad39)*%
X103555800Y-136936000D03*
%TO.P,J1,38*%
%TO.N,Net-(J1-Pad38)*%
X103555800Y-134396000D03*
%TO.P,J1,37*%
%TO.N,Net-(J1-Pad37)*%
X103555800Y-131856000D03*
%TO.P,J1,36*%
%TO.N,Net-(J1-Pad36)*%
X103555800Y-129316000D03*
%TO.P,J1,35*%
%TO.N,Net-(J1-Pad35)*%
X103555800Y-126776000D03*
%TO.P,J1,34*%
%TO.N,Net-(J1-Pad34)*%
X103555800Y-124236000D03*
%TO.P,J1,33*%
%TO.N,Net-(J1-Pad33)*%
X103555800Y-121696000D03*
%TO.P,J1,32*%
%TO.N,Net-(J1-Pad32)*%
X103555800Y-119156000D03*
%TO.P,J1,31*%
%TO.N,Net-(J1-Pad31)*%
X103555800Y-116616000D03*
%TO.P,J1,30*%
%TO.N,Net-(J1-Pad30)*%
X103555800Y-114076000D03*
%TO.P,J1,29*%
%TO.N,Net-(J1-Pad29)*%
X103555800Y-111536000D03*
%TO.P,J1,28*%
%TO.N,Net-(J1-Pad28)*%
X103555800Y-108996000D03*
%TO.P,J1,27*%
%TO.N,Net-(J1-Pad27)*%
X103555800Y-106456000D03*
%TO.P,J1,26*%
%TO.N,Net-(J1-Pad26)*%
X103555800Y-103916000D03*
%TO.P,J1,25*%
%TO.N,Net-(J1-Pad25)*%
X103555800Y-101376000D03*
%TO.P,J1,24*%
%TO.N,Net-(J1-Pad24)*%
X103555800Y-98836000D03*
%TO.P,J1,23*%
%TO.N,Net-(J1-Pad23)*%
X103555800Y-96296000D03*
%TO.P,J1,22*%
%TO.N,Net-(J1-Pad22)*%
X103555800Y-93756000D03*
%TO.P,J1,21*%
%TO.N,Net-(J1-Pad21)*%
X103555800Y-91216000D03*
%TO.P,J1,20*%
%TO.N,Net-(J1-Pad20)*%
X103555800Y-88676000D03*
%TO.P,J1,19*%
%TO.N,Net-(J1-Pad19)*%
X103555800Y-86136000D03*
%TO.P,J1,18*%
%TO.N,Net-(J1-Pad18)*%
X103555800Y-83596000D03*
%TO.P,J1,17*%
%TO.N,Net-(J1-Pad17)*%
X103555800Y-81056000D03*
%TO.P,J1,16*%
%TO.N,Net-(J1-Pad16)*%
X103555800Y-78516000D03*
%TO.P,J1,15*%
%TO.N,Net-(J1-Pad15)*%
X103555800Y-75976000D03*
%TO.P,J1,14*%
%TO.N,Net-(J1-Pad14)*%
X103555800Y-73436000D03*
%TO.P,J1,13*%
%TO.N,Net-(J1-Pad13)*%
X103555800Y-70896000D03*
%TO.P,J1,12*%
%TO.N,Net-(J1-Pad12)*%
X103555800Y-68356000D03*
%TO.P,J1,11*%
%TO.N,Net-(J1-Pad11)*%
X103555800Y-65816000D03*
%TO.P,J1,10*%
%TO.N,Net-(J1-Pad10)*%
X103555800Y-63276000D03*
%TO.P,J1,9*%
%TO.N,Net-(J1-Pad9)*%
X103555800Y-60736000D03*
%TO.P,J1,8*%
%TO.N,Net-(J1-Pad8)*%
X103555800Y-58196000D03*
%TO.P,J1,7*%
%TO.N,Net-(J1-Pad7)*%
X103555800Y-55656000D03*
%TO.P,J1,6*%
%TO.N,Net-(J1-Pad6)*%
X103555800Y-53116000D03*
%TO.P,J1,5*%
%TO.N,Net-(J1-Pad5)*%
X103555800Y-50576000D03*
%TO.P,J1,4*%
%TO.N,Net-(J1-Pad4)*%
X103555800Y-48036000D03*
%TO.P,J1,3*%
%TO.N,Net-(J1-Pad3)*%
X103555800Y-45496000D03*
%TO.P,J1,2*%
%TO.N,Net-(J1-Pad2)*%
X103555800Y-42956000D03*
D12*
%TO.P,J1,1*%
%TO.N,Net-(J1-Pad1)*%
X103555800Y-40416000D03*
%TD*%
D13*
%TO.N,Net-(J1-Pad40)*%
X103555800Y-139471400D02*
X103555800Y-139476000D01*
X96621600Y-132537200D02*
X103555800Y-139471400D01*
X96621600Y-114046000D02*
X96621600Y-132537200D01*
%TO.N,Net-(J1-Pad39)*%
X94081600Y-114046000D02*
X95351600Y-112776000D01*
X97090602Y-112776000D02*
X97796601Y-113481999D01*
X97796601Y-113481999D02*
X97796601Y-131176801D01*
X97796601Y-131176801D02*
X103555800Y-136936000D01*
X95351600Y-112776000D02*
X97090602Y-112776000D01*
%TO.N,Net-(J1-Pad38)*%
X98246612Y-113131012D02*
X98246612Y-129086812D01*
X98246612Y-129086812D02*
X102705801Y-133546001D01*
X102705801Y-133546001D02*
X103555800Y-134396000D01*
X96621600Y-111506000D02*
X98246612Y-113131012D01*
%TO.N,Net-(J1-Pad37)*%
X102705801Y-131006001D02*
X103555800Y-131856000D01*
X94081600Y-111506000D02*
X95275400Y-110312200D01*
X98696623Y-126996823D02*
X102705801Y-131006001D01*
X97459800Y-110312200D02*
X98696623Y-111549023D01*
X98696623Y-111549023D02*
X98696623Y-126996823D01*
X95275400Y-110312200D02*
X97459800Y-110312200D01*
%TO.N,Net-(J1-Pad36)*%
X99146634Y-124906834D02*
X102705801Y-128466001D01*
X99146634Y-111362623D02*
X99146634Y-124906834D01*
X96750010Y-108966000D02*
X99146634Y-111362623D01*
X102705801Y-128466001D02*
X103555800Y-129316000D01*
X96621600Y-108966000D02*
X96750010Y-108966000D01*
%TO.N,Net-(J1-Pad35)*%
X102705801Y-125926001D02*
X103555800Y-126776000D01*
X99596645Y-111176223D02*
X99596645Y-122816845D01*
X99596645Y-122816845D02*
X102705801Y-125926001D01*
X97185601Y-107790999D02*
X98011409Y-108616807D01*
X95256601Y-107790999D02*
X97185601Y-107790999D01*
X98011409Y-109590987D02*
X99596645Y-111176223D01*
X98011409Y-108616807D02*
X98011409Y-109590987D01*
X94081600Y-108966000D02*
X95256601Y-107790999D01*
%TO.N,Net-(J1-Pad34)*%
X102705801Y-123386001D02*
X103555800Y-124236000D01*
X100046656Y-120726856D02*
X102705801Y-123386001D01*
X98461420Y-109404587D02*
X100046656Y-110989823D01*
X96621600Y-106426000D02*
X98461420Y-108265820D01*
X100046656Y-110989823D02*
X100046656Y-120726856D01*
X98461420Y-108265820D02*
X98461420Y-109404587D01*
%TO.N,Net-(J1-Pad33)*%
X100496667Y-118636867D02*
X103555800Y-121696000D01*
X100496667Y-110803423D02*
X100496667Y-118636867D01*
X98911431Y-109218187D02*
X100496667Y-110803423D01*
X94081600Y-106426000D02*
X95256601Y-105250999D01*
X98911431Y-106913842D02*
X98911431Y-109218187D01*
X95256601Y-105250999D02*
X97248588Y-105250999D01*
X97248588Y-105250999D02*
X98911431Y-106913842D01*
%TO.N,Net-(J1-Pad32)*%
X99390200Y-109060546D02*
X100946678Y-110617023D01*
X100946678Y-110617023D02*
X100946678Y-116546878D01*
X99390200Y-105943400D02*
X99390200Y-109060546D01*
X97332800Y-103886000D02*
X99390200Y-105943400D01*
X100946678Y-116546878D02*
X103555800Y-119156000D01*
X96621600Y-103886000D02*
X97332800Y-103886000D01*
%TO.N,Net-(J1-Pad31)*%
X101396689Y-114456889D02*
X103555800Y-116616000D01*
X99840211Y-108874145D02*
X101396689Y-110430623D01*
X99840211Y-105365609D02*
X99840211Y-108874145D01*
X97185601Y-102710999D02*
X99840211Y-105365609D01*
X101396689Y-110430623D02*
X101396689Y-114456889D01*
X95256601Y-102710999D02*
X97185601Y-102710999D01*
X94081600Y-103886000D02*
X95256601Y-102710999D01*
%TO.N,Net-(J1-Pad30)*%
X100341022Y-105065422D02*
X100341022Y-108738545D01*
X101846700Y-112366900D02*
X103555800Y-114076000D01*
X101846700Y-110244223D02*
X101846700Y-112366900D01*
X96621600Y-101346000D02*
X100341022Y-105065422D01*
X100341022Y-108738545D02*
X101846700Y-110244223D01*
%TO.N,Net-(J1-Pad29)*%
X95256601Y-100170999D02*
X97185601Y-100170999D01*
X100791033Y-108401157D02*
X103555800Y-111165924D01*
X94081600Y-101346000D02*
X95256601Y-100170999D01*
X97185601Y-100170999D02*
X100791033Y-103776431D01*
X103555800Y-111165924D02*
X103555800Y-111536000D01*
X100791033Y-103776431D02*
X100791033Y-108401157D01*
%TO.N,Net-(J1-Pad28)*%
X96621600Y-98806000D02*
X101241044Y-103425444D01*
X101241044Y-103425444D02*
X101241044Y-106681244D01*
X101241044Y-106681244D02*
X103555800Y-108996000D01*
%TO.N,Net-(J1-Pad27)*%
X102380799Y-105280999D02*
X103555800Y-106456000D01*
X102380799Y-102826197D02*
X102380799Y-105280999D01*
X95256601Y-97630999D02*
X97185601Y-97630999D01*
X94081600Y-98806000D02*
X95256601Y-97630999D01*
X97185601Y-97630999D02*
X102380799Y-102826197D01*
%TO.N,Net-(J1-Pad26)*%
X96621600Y-96266000D02*
X103555800Y-103200200D01*
X103555800Y-103200200D02*
X103555800Y-103916000D01*
%TO.N,Net-(J1-Pad25)*%
X97270799Y-95090999D02*
X103555800Y-101376000D01*
X95256601Y-95090999D02*
X97270799Y-95090999D01*
X94081600Y-96266000D02*
X95256601Y-95090999D01*
%TO.N,Net-(J1-Pad24)*%
X98445800Y-93726000D02*
X103555800Y-98836000D01*
X96621600Y-93726000D02*
X98445800Y-93726000D01*
%TO.N,Net-(J1-Pad23)*%
X99810799Y-92550999D02*
X103555800Y-96296000D01*
X95256601Y-92550999D02*
X99810799Y-92550999D01*
X94081600Y-93726000D02*
X95256601Y-92550999D01*
%TO.N,Net-(J1-Pad22)*%
X96621600Y-91186000D02*
X100076000Y-91186000D01*
X102646000Y-93756000D02*
X103555800Y-93756000D01*
X100076000Y-91186000D02*
X102646000Y-93756000D01*
%TO.N,Net-(J1-Pad21)*%
X102350799Y-90010999D02*
X103555800Y-91216000D01*
X95256601Y-90010999D02*
X102350799Y-90010999D01*
X94081600Y-91186000D02*
X95256601Y-90010999D01*
%TO.N,Net-(J1-Pad20)*%
X103525800Y-88646000D02*
X103555800Y-88676000D01*
X96621600Y-88646000D02*
X103525800Y-88646000D01*
%TO.N,Net-(J1-Pad19)*%
X102220801Y-87470999D02*
X103555800Y-86136000D01*
X95256601Y-87470999D02*
X102220801Y-87470999D01*
X94081600Y-88646000D02*
X95256601Y-87470999D01*
%TO.N,Net-(J1-Pad18)*%
X101045800Y-86106000D02*
X103555800Y-83596000D01*
X96621600Y-86106000D02*
X101045800Y-86106000D01*
%TO.N,Net-(J1-Pad17)*%
X99680801Y-84930999D02*
X103555800Y-81056000D01*
X95256601Y-84930999D02*
X99680801Y-84930999D01*
X94081600Y-86106000D02*
X95256601Y-84930999D01*
%TO.N,Net-(J1-Pad16)*%
X98505800Y-83566000D02*
X103555800Y-78516000D01*
X96621600Y-83566000D02*
X98505800Y-83566000D01*
%TO.N,Net-(J1-Pad15)*%
X97140801Y-82390999D02*
X103555800Y-75976000D01*
X95256601Y-82390999D02*
X97140801Y-82390999D01*
X94081600Y-83566000D02*
X95256601Y-82390999D01*
%TO.N,Net-(J1-Pad14)*%
X101777800Y-75214000D02*
X103555800Y-73436000D01*
X96621600Y-81026000D02*
X101777800Y-75869800D01*
X101777800Y-75869800D02*
X101777800Y-75214000D01*
%TO.N,Net-(J1-Pad13)*%
X101327789Y-73124011D02*
X103555800Y-70896000D01*
X101327789Y-75518813D02*
X101327789Y-73124011D01*
X96995603Y-79850999D02*
X101327789Y-75518813D01*
X95256601Y-79850999D02*
X96995603Y-79850999D01*
X94081600Y-81026000D02*
X95256601Y-79850999D01*
%TO.N,Net-(J1-Pad12)*%
X103555800Y-69156998D02*
X103555800Y-68356000D01*
X100877778Y-74229822D02*
X100877778Y-71835020D01*
X96621600Y-78486000D02*
X100877778Y-74229822D01*
X100877778Y-71835020D02*
X103555800Y-69156998D01*
%TO.N,Net-(J1-Pad11)*%
X100965000Y-68406800D02*
X103555800Y-65816000D01*
X100965000Y-71111387D02*
X100965000Y-68406800D01*
X100427767Y-73878835D02*
X100427767Y-71648620D01*
X95256601Y-77310999D02*
X96995603Y-77310999D01*
X94081600Y-78486000D02*
X95256601Y-77310999D01*
X96995603Y-77310999D02*
X100427767Y-73878835D01*
X100427767Y-71648620D02*
X100965000Y-71111387D01*
%TO.N,Net-(J1-Pad10)*%
X99977756Y-71462220D02*
X100514989Y-70924988D01*
X100514989Y-70924988D02*
X100514989Y-68176286D01*
X100514989Y-68176286D02*
X101219475Y-67471801D01*
X96621600Y-75946000D02*
X99977756Y-72589844D01*
X99977756Y-72589844D02*
X99977756Y-71462220D01*
X101219475Y-67471801D02*
X101219475Y-65612324D01*
X101219475Y-65612324D02*
X103555800Y-63276000D01*
%TO.N,Net-(J1-Pad9)*%
X100769464Y-67285401D02*
X100769464Y-63522336D01*
X100769464Y-63522336D02*
X103555800Y-60736000D01*
X100064978Y-70738588D02*
X100064978Y-67989886D01*
X96995603Y-74770999D02*
X99527745Y-72238857D01*
X95256601Y-74770999D02*
X96995603Y-74770999D01*
X100064978Y-67989886D02*
X100769464Y-67285401D01*
X99527745Y-72238857D02*
X99527746Y-71275819D01*
X99527746Y-71275819D02*
X100064978Y-70738588D01*
X94081600Y-75946000D02*
X95256601Y-74770999D01*
%TO.N,Net-(J1-Pad8)*%
X100319453Y-67099001D02*
X100319453Y-63335937D01*
X102380799Y-59371001D02*
X103555800Y-58196000D01*
X96621600Y-73406000D02*
X99614967Y-70412633D01*
X100319453Y-63335937D02*
X102380799Y-61274591D01*
X99614967Y-67803486D02*
X100319453Y-67099001D01*
X99614967Y-70412633D02*
X99614967Y-67803486D01*
X102380799Y-61274591D02*
X102380799Y-59371001D01*
%TO.N,Net-(J1-Pad7)*%
X95256601Y-72230999D02*
X96995603Y-72230999D01*
X101930788Y-61088191D02*
X101930788Y-57281012D01*
X96995603Y-72230999D02*
X99164956Y-70061646D01*
X99164956Y-67617086D02*
X99869442Y-66912601D01*
X99164956Y-70061646D02*
X99164956Y-67617086D01*
X99869442Y-63149537D02*
X101930788Y-61088191D01*
X94081600Y-73406000D02*
X95256601Y-72230999D01*
X99869442Y-66912601D02*
X99869442Y-63149537D01*
X101930788Y-57281012D02*
X103555800Y-55656000D01*
%TO.N,Net-(J1-Pad6)*%
X96621600Y-70866000D02*
X98714945Y-68772655D01*
X98714945Y-68772655D02*
X98714945Y-67430686D01*
X98714945Y-67430686D02*
X99419431Y-66726201D01*
X99419431Y-66726201D02*
X99419431Y-62963137D01*
X99419431Y-62963137D02*
X101480777Y-60901791D01*
X101480777Y-60901791D02*
X101480777Y-55191023D01*
X101480777Y-55191023D02*
X102705801Y-53965999D01*
X102705801Y-53965999D02*
X103555800Y-53116000D01*
%TO.N,Net-(J1-Pad5)*%
X97141344Y-69501001D02*
X95446599Y-69501001D01*
X98969420Y-66539801D02*
X98264934Y-67244286D01*
X95446599Y-69501001D02*
X94081600Y-70866000D01*
X98264934Y-67244286D02*
X98264934Y-68377412D01*
X98264934Y-68377412D02*
X97141344Y-69501001D01*
X103555800Y-50576000D02*
X98969420Y-55162380D01*
X98969420Y-55162380D02*
X98969420Y-66539801D01*
%TO.N,Net-(J1-Pad4)*%
X103555800Y-48036000D02*
X98519409Y-53072391D01*
X98519409Y-53072391D02*
X98519409Y-66353401D01*
X98519409Y-66353401D02*
X96621600Y-68251210D01*
X96621600Y-68251210D02*
X96621600Y-68326000D01*
%TO.N,Net-(J1-Pad3)*%
X94081600Y-68326000D02*
X95097600Y-68326000D01*
X95097600Y-68326000D02*
X95097600Y-68110998D01*
X96247597Y-66961001D02*
X97275399Y-66961001D01*
X95097600Y-68110998D02*
X96247597Y-66961001D01*
X97796601Y-51255199D02*
X103555800Y-45496000D01*
X97796601Y-66439799D02*
X97796601Y-51255199D01*
X97275399Y-66961001D02*
X97796601Y-66439799D01*
%TO.N,Net-(J1-Pad2)*%
X103555800Y-43756998D02*
X103555800Y-42956000D01*
X96621600Y-50691198D02*
X103555800Y-43756998D01*
X96621600Y-65786000D02*
X96621600Y-50691198D01*
%TO.N,Net-(J1-Pad1)*%
X94081600Y-49890200D02*
X94081600Y-65786000D01*
X103555800Y-40416000D02*
X94081600Y-49890200D01*
%TD*%
M02*
