%FSLAX45Y45*%
G04 Gerber Fmt 4.5, Leading zero omitted, Abs format (unit mm)*
G04 Created by KiCad (PCBNEW (5.1.10-1-10_14)) date 2021-08-04 23:39:22*
%MOMM*%
%LPD*%
G01*
G04 APERTURE LIST*
%TA.AperFunction,Profile*%
%ADD10C,0.050000*%
%TD*%
%ADD11C,0.200000*%
%ADD12C,0.300000*%
G04 APERTURE END LIST*
D10*
X10614660Y-14183360D02*
X10614660Y-3774440D01*
X8882380Y-14183360D02*
X10614660Y-14183360D01*
X8882380Y-3774440D02*
X8882380Y-14183360D01*
X10614660Y-3774440D02*
X8882380Y-3774440D01*
D11*
X9358160Y-6528600D02*
X9458160Y-6628600D01*
X9458160Y-6528600D02*
X9358160Y-6628600D01*
X9358160Y-6782600D02*
X9458160Y-6882600D01*
X9458160Y-6782600D02*
X9358160Y-6882600D01*
X9358160Y-7036600D02*
X9458160Y-7136600D01*
X9458160Y-7036600D02*
X9358160Y-7136600D01*
X9358160Y-7290600D02*
X9458160Y-7390600D01*
X9458160Y-7290600D02*
X9358160Y-7390600D01*
X9358160Y-7544600D02*
X9458160Y-7644600D01*
X9458160Y-7544600D02*
X9358160Y-7644600D01*
X9358160Y-7798600D02*
X9458160Y-7898600D01*
X9458160Y-7798600D02*
X9358160Y-7898600D01*
X9358160Y-8052600D02*
X9458160Y-8152600D01*
X9458160Y-8052600D02*
X9358160Y-8152600D01*
X9358160Y-8306600D02*
X9458160Y-8406600D01*
X9458160Y-8306600D02*
X9358160Y-8406600D01*
X9358160Y-8560600D02*
X9458160Y-8660600D01*
X9458160Y-8560600D02*
X9358160Y-8660600D01*
X9358160Y-8814600D02*
X9458160Y-8914600D01*
X9458160Y-8814600D02*
X9358160Y-8914600D01*
X9358160Y-9068600D02*
X9458160Y-9168600D01*
X9458160Y-9068600D02*
X9358160Y-9168600D01*
X9358160Y-9322600D02*
X9458160Y-9422600D01*
X9458160Y-9322600D02*
X9358160Y-9422600D01*
X9358160Y-9576600D02*
X9458160Y-9676600D01*
X9458160Y-9576600D02*
X9358160Y-9676600D01*
X9358160Y-9830600D02*
X9458160Y-9930600D01*
X9458160Y-9830600D02*
X9358160Y-9930600D01*
X9358160Y-10084600D02*
X9458160Y-10184600D01*
X9458160Y-10084600D02*
X9358160Y-10184600D01*
X9358160Y-10338600D02*
X9458160Y-10438600D01*
X9458160Y-10338600D02*
X9358160Y-10438600D01*
X9358160Y-10592600D02*
X9458160Y-10692600D01*
X9458160Y-10592600D02*
X9358160Y-10692600D01*
X9358160Y-10846600D02*
X9458160Y-10946600D01*
X9458160Y-10846600D02*
X9358160Y-10946600D01*
X9358160Y-11100600D02*
X9458160Y-11200600D01*
X9458160Y-11100600D02*
X9358160Y-11200600D01*
X9358160Y-11354600D02*
X9458160Y-11454600D01*
X9458160Y-11354600D02*
X9358160Y-11454600D01*
X9612160Y-6528600D02*
X9712160Y-6628600D01*
X9712160Y-6528600D02*
X9612160Y-6628600D01*
X9612160Y-6782600D02*
X9712160Y-6882600D01*
X9712160Y-6782600D02*
X9612160Y-6882600D01*
X9612160Y-7036600D02*
X9712160Y-7136600D01*
X9712160Y-7036600D02*
X9612160Y-7136600D01*
X9612160Y-7290600D02*
X9712160Y-7390600D01*
X9712160Y-7290600D02*
X9612160Y-7390600D01*
X9612160Y-7544600D02*
X9712160Y-7644600D01*
X9712160Y-7544600D02*
X9612160Y-7644600D01*
X9612160Y-7798600D02*
X9712160Y-7898600D01*
X9712160Y-7798600D02*
X9612160Y-7898600D01*
X9612160Y-8052600D02*
X9712160Y-8152600D01*
X9712160Y-8052600D02*
X9612160Y-8152600D01*
X9612160Y-8306600D02*
X9712160Y-8406600D01*
X9712160Y-8306600D02*
X9612160Y-8406600D01*
X9612160Y-8560600D02*
X9712160Y-8660600D01*
X9712160Y-8560600D02*
X9612160Y-8660600D01*
X9612160Y-8814600D02*
X9712160Y-8914600D01*
X9712160Y-8814600D02*
X9612160Y-8914600D01*
X9612160Y-9068600D02*
X9712160Y-9168600D01*
X9712160Y-9068600D02*
X9612160Y-9168600D01*
X9612160Y-9322600D02*
X9712160Y-9422600D01*
X9712160Y-9322600D02*
X9612160Y-9422600D01*
X9612160Y-9576600D02*
X9712160Y-9676600D01*
X9712160Y-9576600D02*
X9612160Y-9676600D01*
X9612160Y-9830600D02*
X9712160Y-9930600D01*
X9712160Y-9830600D02*
X9612160Y-9930600D01*
X9612160Y-10084600D02*
X9712160Y-10184600D01*
X9712160Y-10084600D02*
X9612160Y-10184600D01*
X9612160Y-10338600D02*
X9712160Y-10438600D01*
X9712160Y-10338600D02*
X9612160Y-10438600D01*
X9612160Y-10592600D02*
X9712160Y-10692600D01*
X9712160Y-10592600D02*
X9612160Y-10692600D01*
X9612160Y-10846600D02*
X9712160Y-10946600D01*
X9712160Y-10846600D02*
X9612160Y-10946600D01*
X9612160Y-11100600D02*
X9712160Y-11200600D01*
X9712160Y-11100600D02*
X9612160Y-11200600D01*
X9612160Y-11354600D02*
X9712160Y-11454600D01*
X9712160Y-11354600D02*
X9612160Y-11454600D01*
X10305580Y-3991600D02*
X10405580Y-4091600D01*
X10405580Y-3991600D02*
X10305580Y-4091600D01*
X10305580Y-4245600D02*
X10405580Y-4345600D01*
X10405580Y-4245600D02*
X10305580Y-4345600D01*
X10305580Y-4499600D02*
X10405580Y-4599600D01*
X10405580Y-4499600D02*
X10305580Y-4599600D01*
X10305580Y-4753600D02*
X10405580Y-4853600D01*
X10405580Y-4753600D02*
X10305580Y-4853600D01*
X10305580Y-5007600D02*
X10405580Y-5107600D01*
X10405580Y-5007600D02*
X10305580Y-5107600D01*
X10305580Y-5261600D02*
X10405580Y-5361600D01*
X10405580Y-5261600D02*
X10305580Y-5361600D01*
X10305580Y-5515600D02*
X10405580Y-5615600D01*
X10405580Y-5515600D02*
X10305580Y-5615600D01*
X10305580Y-5769600D02*
X10405580Y-5869600D01*
X10405580Y-5769600D02*
X10305580Y-5869600D01*
X10305580Y-6023600D02*
X10405580Y-6123600D01*
X10405580Y-6023600D02*
X10305580Y-6123600D01*
X10305580Y-6277600D02*
X10405580Y-6377600D01*
X10405580Y-6277600D02*
X10305580Y-6377600D01*
X10305580Y-6531600D02*
X10405580Y-6631600D01*
X10405580Y-6531600D02*
X10305580Y-6631600D01*
X10305580Y-6785600D02*
X10405580Y-6885600D01*
X10405580Y-6785600D02*
X10305580Y-6885600D01*
X10305580Y-7039600D02*
X10405580Y-7139600D01*
X10405580Y-7039600D02*
X10305580Y-7139600D01*
X10305580Y-7293600D02*
X10405580Y-7393600D01*
X10405580Y-7293600D02*
X10305580Y-7393600D01*
X10305580Y-7547600D02*
X10405580Y-7647600D01*
X10405580Y-7547600D02*
X10305580Y-7647600D01*
X10305580Y-7801600D02*
X10405580Y-7901600D01*
X10405580Y-7801600D02*
X10305580Y-7901600D01*
X10305580Y-8055600D02*
X10405580Y-8155600D01*
X10405580Y-8055600D02*
X10305580Y-8155600D01*
X10305580Y-8309600D02*
X10405580Y-8409600D01*
X10405580Y-8309600D02*
X10305580Y-8409600D01*
X10305580Y-8563600D02*
X10405580Y-8663600D01*
X10405580Y-8563600D02*
X10305580Y-8663600D01*
X10305580Y-8817600D02*
X10405580Y-8917600D01*
X10405580Y-8817600D02*
X10305580Y-8917600D01*
X10305580Y-9071600D02*
X10405580Y-9171600D01*
X10405580Y-9071600D02*
X10305580Y-9171600D01*
X10305580Y-9325600D02*
X10405580Y-9425600D01*
X10405580Y-9325600D02*
X10305580Y-9425600D01*
X10305580Y-9579600D02*
X10405580Y-9679600D01*
X10405580Y-9579600D02*
X10305580Y-9679600D01*
X10305580Y-9833600D02*
X10405580Y-9933600D01*
X10405580Y-9833600D02*
X10305580Y-9933600D01*
X10305580Y-10087600D02*
X10405580Y-10187600D01*
X10405580Y-10087600D02*
X10305580Y-10187600D01*
X10305580Y-10341600D02*
X10405580Y-10441600D01*
X10405580Y-10341600D02*
X10305580Y-10441600D01*
X10305580Y-10595600D02*
X10405580Y-10695600D01*
X10405580Y-10595600D02*
X10305580Y-10695600D01*
X10305580Y-10849600D02*
X10405580Y-10949600D01*
X10405580Y-10849600D02*
X10305580Y-10949600D01*
X10305580Y-11103600D02*
X10405580Y-11203600D01*
X10405580Y-11103600D02*
X10305580Y-11203600D01*
X10305580Y-11357600D02*
X10405580Y-11457600D01*
X10405580Y-11357600D02*
X10305580Y-11457600D01*
X10305580Y-11611600D02*
X10405580Y-11711600D01*
X10405580Y-11611600D02*
X10305580Y-11711600D01*
X10305580Y-11865600D02*
X10405580Y-11965600D01*
X10405580Y-11865600D02*
X10305580Y-11965600D01*
X10305580Y-12119600D02*
X10405580Y-12219600D01*
X10405580Y-12119600D02*
X10305580Y-12219600D01*
X10305580Y-12373600D02*
X10405580Y-12473600D01*
X10405580Y-12373600D02*
X10305580Y-12473600D01*
X10305580Y-12627600D02*
X10405580Y-12727600D01*
X10405580Y-12627600D02*
X10305580Y-12727600D01*
X10305580Y-12881600D02*
X10405580Y-12981600D01*
X10405580Y-12881600D02*
X10305580Y-12981600D01*
X10305580Y-13135600D02*
X10405580Y-13235600D01*
X10405580Y-13135600D02*
X10305580Y-13235600D01*
X10305580Y-13389600D02*
X10405580Y-13489600D01*
X10405580Y-13389600D02*
X10305580Y-13489600D01*
X10305580Y-13643600D02*
X10405580Y-13743600D01*
X10405580Y-13643600D02*
X10305580Y-13743600D01*
X10305580Y-13897600D02*
X10405580Y-13997600D01*
X10405580Y-13897600D02*
X10305580Y-13997600D01*
D12*
X9166308Y-14651574D02*
X9166308Y-14351574D01*
X9237737Y-14351574D01*
X9280594Y-14365860D01*
X9309166Y-14394431D01*
X9323451Y-14423003D01*
X9337737Y-14480146D01*
X9337737Y-14523003D01*
X9323451Y-14580146D01*
X9309166Y-14608717D01*
X9280594Y-14637289D01*
X9237737Y-14651574D01*
X9166308Y-14651574D01*
X9466308Y-14651574D02*
X9466308Y-14451574D01*
X9466308Y-14508717D02*
X9480594Y-14480146D01*
X9494880Y-14465860D01*
X9523451Y-14451574D01*
X9552023Y-14451574D01*
X9652023Y-14651574D02*
X9652023Y-14451574D01*
X9652023Y-14351574D02*
X9637737Y-14365860D01*
X9652023Y-14380146D01*
X9666308Y-14365860D01*
X9652023Y-14351574D01*
X9652023Y-14380146D01*
X9837737Y-14651574D02*
X9809166Y-14637289D01*
X9794880Y-14608717D01*
X9794880Y-14351574D01*
X9994880Y-14651574D02*
X9966308Y-14637289D01*
X9952023Y-14608717D01*
X9952023Y-14351574D01*
X10337737Y-14651574D02*
X10337737Y-14351574D01*
X10437737Y-14565860D01*
X10537737Y-14351574D01*
X10537737Y-14651574D01*
X10809166Y-14651574D02*
X10809166Y-14494431D01*
X10794880Y-14465860D01*
X10766308Y-14451574D01*
X10709166Y-14451574D01*
X10680594Y-14465860D01*
X10809166Y-14637289D02*
X10780594Y-14651574D01*
X10709166Y-14651574D01*
X10680594Y-14637289D01*
X10666308Y-14608717D01*
X10666308Y-14580146D01*
X10680594Y-14551574D01*
X10709166Y-14537289D01*
X10780594Y-14537289D01*
X10809166Y-14523003D01*
X10952023Y-14451574D02*
X10952023Y-14751574D01*
X10952023Y-14465860D02*
X10980594Y-14451574D01*
X11037737Y-14451574D01*
X11066308Y-14465860D01*
X11080594Y-14480146D01*
X11094880Y-14508717D01*
X11094880Y-14594431D01*
X11080594Y-14623003D01*
X11066308Y-14637289D01*
X11037737Y-14651574D01*
X10980594Y-14651574D01*
X10952023Y-14637289D01*
X11223451Y-14623003D02*
X11237737Y-14637289D01*
X11223451Y-14651574D01*
X11209166Y-14637289D01*
X11223451Y-14623003D01*
X11223451Y-14651574D01*
X11223451Y-14465860D02*
X11237737Y-14480146D01*
X11223451Y-14494431D01*
X11209166Y-14480146D01*
X11223451Y-14465860D01*
X11223451Y-14494431D01*
X8779880Y-15095860D02*
X8879880Y-15195860D01*
X8879880Y-15095860D02*
X8779880Y-15195860D01*
X9323451Y-15281574D02*
X9152023Y-15281574D01*
X9237737Y-15281574D02*
X9237737Y-14981574D01*
X9209166Y-15024431D01*
X9180594Y-15053003D01*
X9152023Y-15067289D01*
X9452023Y-15253003D02*
X9466308Y-15267289D01*
X9452023Y-15281574D01*
X9437737Y-15267289D01*
X9452023Y-15253003D01*
X9452023Y-15281574D01*
X9652023Y-14981574D02*
X9680594Y-14981574D01*
X9709166Y-14995860D01*
X9723451Y-15010146D01*
X9737737Y-15038717D01*
X9752023Y-15095860D01*
X9752023Y-15167289D01*
X9737737Y-15224431D01*
X9723451Y-15253003D01*
X9709166Y-15267289D01*
X9680594Y-15281574D01*
X9652023Y-15281574D01*
X9623451Y-15267289D01*
X9609166Y-15253003D01*
X9594880Y-15224431D01*
X9580594Y-15167289D01*
X9580594Y-15095860D01*
X9594880Y-15038717D01*
X9609166Y-15010146D01*
X9623451Y-14995860D01*
X9652023Y-14981574D01*
X9937737Y-14981574D02*
X9966308Y-14981574D01*
X9994880Y-14995860D01*
X10009166Y-15010146D01*
X10023451Y-15038717D01*
X10037737Y-15095860D01*
X10037737Y-15167289D01*
X10023451Y-15224431D01*
X10009166Y-15253003D01*
X9994880Y-15267289D01*
X9966308Y-15281574D01*
X9937737Y-15281574D01*
X9909166Y-15267289D01*
X9894880Y-15253003D01*
X9880594Y-15224431D01*
X9866308Y-15167289D01*
X9866308Y-15095860D01*
X9880594Y-15038717D01*
X9894880Y-15010146D01*
X9909166Y-14995860D01*
X9937737Y-14981574D01*
X10223451Y-14981574D02*
X10252023Y-14981574D01*
X10280594Y-14995860D01*
X10294880Y-15010146D01*
X10309166Y-15038717D01*
X10323451Y-15095860D01*
X10323451Y-15167289D01*
X10309166Y-15224431D01*
X10294880Y-15253003D01*
X10280594Y-15267289D01*
X10252023Y-15281574D01*
X10223451Y-15281574D01*
X10194880Y-15267289D01*
X10180594Y-15253003D01*
X10166308Y-15224431D01*
X10152023Y-15167289D01*
X10152023Y-15095860D01*
X10166308Y-15038717D01*
X10180594Y-15010146D01*
X10194880Y-14995860D01*
X10223451Y-14981574D01*
X10452023Y-15281574D02*
X10452023Y-15081574D01*
X10452023Y-15110146D02*
X10466308Y-15095860D01*
X10494880Y-15081574D01*
X10537737Y-15081574D01*
X10566308Y-15095860D01*
X10580594Y-15124431D01*
X10580594Y-15281574D01*
X10580594Y-15124431D02*
X10594880Y-15095860D01*
X10623451Y-15081574D01*
X10666308Y-15081574D01*
X10694880Y-15095860D01*
X10709166Y-15124431D01*
X10709166Y-15281574D01*
X10852023Y-15281574D02*
X10852023Y-15081574D01*
X10852023Y-15110146D02*
X10866308Y-15095860D01*
X10894880Y-15081574D01*
X10937737Y-15081574D01*
X10966308Y-15095860D01*
X10980594Y-15124431D01*
X10980594Y-15281574D01*
X10980594Y-15124431D02*
X10994880Y-15095860D01*
X11023451Y-15081574D01*
X11066308Y-15081574D01*
X11094880Y-15095860D01*
X11109166Y-15124431D01*
X11109166Y-15281574D01*
X11694880Y-14967289D02*
X11437737Y-15353003D01*
X12080594Y-14981574D02*
X12109166Y-14981574D01*
X12137737Y-14995860D01*
X12152023Y-15010146D01*
X12166308Y-15038717D01*
X12180594Y-15095860D01*
X12180594Y-15167289D01*
X12166308Y-15224431D01*
X12152023Y-15253003D01*
X12137737Y-15267289D01*
X12109166Y-15281574D01*
X12080594Y-15281574D01*
X12052023Y-15267289D01*
X12037737Y-15253003D01*
X12023451Y-15224431D01*
X12009166Y-15167289D01*
X12009166Y-15095860D01*
X12023451Y-15038717D01*
X12037737Y-15010146D01*
X12052023Y-14995860D01*
X12080594Y-14981574D01*
X12309166Y-15253003D02*
X12323451Y-15267289D01*
X12309166Y-15281574D01*
X12294880Y-15267289D01*
X12309166Y-15253003D01*
X12309166Y-15281574D01*
X12509166Y-14981574D02*
X12537737Y-14981574D01*
X12566308Y-14995860D01*
X12580594Y-15010146D01*
X12594880Y-15038717D01*
X12609166Y-15095860D01*
X12609166Y-15167289D01*
X12594880Y-15224431D01*
X12580594Y-15253003D01*
X12566308Y-15267289D01*
X12537737Y-15281574D01*
X12509166Y-15281574D01*
X12480594Y-15267289D01*
X12466308Y-15253003D01*
X12452023Y-15224431D01*
X12437737Y-15167289D01*
X12437737Y-15095860D01*
X12452023Y-15038717D01*
X12466308Y-15010146D01*
X12480594Y-14995860D01*
X12509166Y-14981574D01*
X12709166Y-14981574D02*
X12894880Y-14981574D01*
X12794880Y-15095860D01*
X12837737Y-15095860D01*
X12866308Y-15110146D01*
X12880594Y-15124431D01*
X12894880Y-15153003D01*
X12894880Y-15224431D01*
X12880594Y-15253003D01*
X12866308Y-15267289D01*
X12837737Y-15281574D01*
X12752023Y-15281574D01*
X12723451Y-15267289D01*
X12709166Y-15253003D01*
X13037737Y-15281574D02*
X13094880Y-15281574D01*
X13123451Y-15267289D01*
X13137737Y-15253003D01*
X13166308Y-15210146D01*
X13180594Y-15153003D01*
X13180594Y-15038717D01*
X13166308Y-15010146D01*
X13152023Y-14995860D01*
X13123451Y-14981574D01*
X13066308Y-14981574D01*
X13037737Y-14995860D01*
X13023451Y-15010146D01*
X13009166Y-15038717D01*
X13009166Y-15110146D01*
X13023451Y-15138717D01*
X13037737Y-15153003D01*
X13066308Y-15167289D01*
X13123451Y-15167289D01*
X13152023Y-15153003D01*
X13166308Y-15138717D01*
X13180594Y-15110146D01*
X13437737Y-15081574D02*
X13437737Y-15281574D01*
X13366308Y-14967289D02*
X13294880Y-15181574D01*
X13480594Y-15181574D01*
X13580594Y-14981574D02*
X13580594Y-15038717D01*
X13694880Y-14981574D02*
X13694880Y-15038717D01*
X14137737Y-15395860D02*
X14123451Y-15381574D01*
X14094880Y-15338717D01*
X14080594Y-15310146D01*
X14066308Y-15267289D01*
X14052023Y-15195860D01*
X14052023Y-15138717D01*
X14066308Y-15067289D01*
X14080594Y-15024431D01*
X14094880Y-14995860D01*
X14123451Y-14953003D01*
X14137737Y-14938717D01*
X14294880Y-15110146D02*
X14266308Y-15095860D01*
X14252023Y-15081574D01*
X14237737Y-15053003D01*
X14237737Y-15038717D01*
X14252023Y-15010146D01*
X14266308Y-14995860D01*
X14294880Y-14981574D01*
X14352023Y-14981574D01*
X14380594Y-14995860D01*
X14394880Y-15010146D01*
X14409166Y-15038717D01*
X14409166Y-15053003D01*
X14394880Y-15081574D01*
X14380594Y-15095860D01*
X14352023Y-15110146D01*
X14294880Y-15110146D01*
X14266308Y-15124431D01*
X14252023Y-15138717D01*
X14237737Y-15167289D01*
X14237737Y-15224431D01*
X14252023Y-15253003D01*
X14266308Y-15267289D01*
X14294880Y-15281574D01*
X14352023Y-15281574D01*
X14380594Y-15267289D01*
X14394880Y-15253003D01*
X14409166Y-15224431D01*
X14409166Y-15167289D01*
X14394880Y-15138717D01*
X14380594Y-15124431D01*
X14352023Y-15110146D01*
X14594880Y-14981574D02*
X14623451Y-14981574D01*
X14652023Y-14995860D01*
X14666308Y-15010146D01*
X14680594Y-15038717D01*
X14694880Y-15095860D01*
X14694880Y-15167289D01*
X14680594Y-15224431D01*
X14666308Y-15253003D01*
X14652023Y-15267289D01*
X14623451Y-15281574D01*
X14594880Y-15281574D01*
X14566308Y-15267289D01*
X14552023Y-15253003D01*
X14537737Y-15224431D01*
X14523451Y-15167289D01*
X14523451Y-15095860D01*
X14537737Y-15038717D01*
X14552023Y-15010146D01*
X14566308Y-14995860D01*
X14594880Y-14981574D01*
X15052023Y-15281574D02*
X15052023Y-14981574D01*
X15180594Y-15281574D02*
X15180594Y-15124431D01*
X15166308Y-15095860D01*
X15137737Y-15081574D01*
X15094880Y-15081574D01*
X15066308Y-15095860D01*
X15052023Y-15110146D01*
X15366308Y-15281574D02*
X15337737Y-15267289D01*
X15323451Y-15253003D01*
X15309166Y-15224431D01*
X15309166Y-15138717D01*
X15323451Y-15110146D01*
X15337737Y-15095860D01*
X15366308Y-15081574D01*
X15409166Y-15081574D01*
X15437737Y-15095860D01*
X15452023Y-15110146D01*
X15466308Y-15138717D01*
X15466308Y-15224431D01*
X15452023Y-15253003D01*
X15437737Y-15267289D01*
X15409166Y-15281574D01*
X15366308Y-15281574D01*
X15637737Y-15281574D02*
X15609166Y-15267289D01*
X15594880Y-15238717D01*
X15594880Y-14981574D01*
X15866308Y-15267289D02*
X15837737Y-15281574D01*
X15780594Y-15281574D01*
X15752023Y-15267289D01*
X15737737Y-15238717D01*
X15737737Y-15124431D01*
X15752023Y-15095860D01*
X15780594Y-15081574D01*
X15837737Y-15081574D01*
X15866308Y-15095860D01*
X15880594Y-15124431D01*
X15880594Y-15153003D01*
X15737737Y-15181574D01*
X15994880Y-15267289D02*
X16023451Y-15281574D01*
X16080594Y-15281574D01*
X16109166Y-15267289D01*
X16123451Y-15238717D01*
X16123451Y-15224431D01*
X16109166Y-15195860D01*
X16080594Y-15181574D01*
X16037737Y-15181574D01*
X16009166Y-15167289D01*
X15994880Y-15138717D01*
X15994880Y-15124431D01*
X16009166Y-15095860D01*
X16037737Y-15081574D01*
X16080594Y-15081574D01*
X16109166Y-15095860D01*
X16223451Y-15395860D02*
X16237737Y-15381574D01*
X16266308Y-15338717D01*
X16280594Y-15310146D01*
X16294880Y-15267289D01*
X16309166Y-15195860D01*
X16309166Y-15138717D01*
X16294880Y-15067289D01*
X16280594Y-15024431D01*
X16266308Y-14995860D01*
X16237737Y-14953003D01*
X16223451Y-14938717D01*
M02*
