%TF.GenerationSoftware,KiCad,Pcbnew,(5.1.10-1-10_14)*%
%TF.CreationDate,2021-08-04T23:39:18+02:00*%
%TF.ProjectId,idc40_breakout,69646334-305f-4627-9265-616b6f75742e,rev?*%
%TF.SameCoordinates,Original*%
%TF.FileFunction,Legend,Top*%
%TF.FilePolarity,Positive*%
%FSLAX46Y46*%
G04 Gerber Fmt 4.6, Leading zero omitted, Abs format (unit mm)*
G04 Created by KiCad (PCBNEW (5.1.10-1-10_14)) date 2021-08-04 23:39:18*
%MOMM*%
%LPD*%
G01*
G04 APERTURE LIST*
%ADD10C,0.120000*%
G04 APERTURE END LIST*
D10*
%TO.C,J2*%
X90791600Y-60576000D02*
X99911600Y-60576000D01*
X99911600Y-60576000D02*
X99911600Y-119256000D01*
X99911600Y-119256000D02*
X90791600Y-119256000D01*
X90791600Y-119256000D02*
X90791600Y-60576000D01*
X90791600Y-87866000D02*
X92101600Y-87866000D01*
X92101600Y-87866000D02*
X92101600Y-61876000D01*
X92101600Y-61876000D02*
X98601600Y-61876000D01*
X98601600Y-61876000D02*
X98601600Y-117956000D01*
X98601600Y-117956000D02*
X92101600Y-117956000D01*
X92101600Y-117956000D02*
X92101600Y-91966000D01*
X92101600Y-91966000D02*
X92101600Y-91966000D01*
X92101600Y-91966000D02*
X90791600Y-91966000D01*
X90401600Y-65786000D02*
X89401600Y-65286000D01*
X89401600Y-65286000D02*
X89401600Y-66286000D01*
X89401600Y-66286000D02*
X90401600Y-65786000D01*
%TO.C,J1*%
X102225800Y-41686000D02*
X104885800Y-41686000D01*
X102225800Y-41686000D02*
X102225800Y-140806000D01*
X102225800Y-140806000D02*
X104885800Y-140806000D01*
X104885800Y-41686000D02*
X104885800Y-140806000D01*
X104885800Y-39086000D02*
X104885800Y-40416000D01*
X103555800Y-39086000D02*
X104885800Y-39086000D01*
%TD*%
M02*
