M48
; DRILL file {KiCad (5.1.10-1-10_14)} date Wednesday, August 04, 2021 at 11:39:22 PM
; FORMAT={-:-/ absolute / metric / decimal}
; #@! TF.CreationDate,2021-08-04T23:39:22+02:00
; #@! TF.GenerationSoftware,Kicad,Pcbnew,(5.1.10-1-10_14)
; #@! TF.FileFunction,Plated,1,2,PTH
FMAT,2
METRIC
T1C1.000
%
G90
G05
T1
X94.082Y-65.786
X94.082Y-68.326
X94.082Y-70.866
X94.082Y-73.406
X94.082Y-75.946
X94.082Y-78.486
X94.082Y-81.026
X94.082Y-83.566
X94.082Y-86.106
X94.082Y-88.646
X94.082Y-91.186
X94.082Y-93.726
X94.082Y-96.266
X94.082Y-98.806
X94.082Y-101.346
X94.082Y-103.886
X94.082Y-106.426
X94.082Y-108.966
X94.082Y-111.506
X94.082Y-114.046
X96.622Y-65.786
X96.622Y-68.326
X96.622Y-70.866
X96.622Y-73.406
X96.622Y-75.946
X96.622Y-78.486
X96.622Y-81.026
X96.622Y-83.566
X96.622Y-86.106
X96.622Y-88.646
X96.622Y-91.186
X96.622Y-93.726
X96.622Y-96.266
X96.622Y-98.806
X96.622Y-101.346
X96.622Y-103.886
X96.622Y-106.426
X96.622Y-108.966
X96.622Y-111.506
X96.622Y-114.046
X103.556Y-40.416
X103.556Y-42.956
X103.556Y-45.496
X103.556Y-48.036
X103.556Y-50.576
X103.556Y-53.116
X103.556Y-55.656
X103.556Y-58.196
X103.556Y-60.736
X103.556Y-63.276
X103.556Y-65.816
X103.556Y-68.356
X103.556Y-70.896
X103.556Y-73.436
X103.556Y-75.976
X103.556Y-78.516
X103.556Y-81.056
X103.556Y-83.596
X103.556Y-86.136
X103.556Y-88.676
X103.556Y-91.216
X103.556Y-93.756
X103.556Y-96.296
X103.556Y-98.836
X103.556Y-101.376
X103.556Y-103.916
X103.556Y-106.456
X103.556Y-108.996
X103.556Y-111.536
X103.556Y-114.076
X103.556Y-116.616
X103.556Y-119.156
X103.556Y-121.696
X103.556Y-124.236
X103.556Y-126.776
X103.556Y-129.316
X103.556Y-131.856
X103.556Y-134.396
X103.556Y-136.936
X103.556Y-139.476
T0
M30
